<svg width="1920" height="1864" viewBox="0 0 1920 1864" fill="none" xmlns="http://www.w3.org/2000/svg">
<g filter="url(#filter0_f_1216_38354)">
<path d="M677.349 200.323C587.439 196.016 480.738 364.713 457.664 391.891L137.416 993.662L280.383 1663.51C558.044 1402.8 1615.18 1206.91 1791.03 1061.5C2029.19 864.574 2035.39 415.494 1805.53 254.369C1586.7 100.975 1066.08 325.117 984.465 337.921C902.852 350.726 793.773 205.901 677.349 200.323Z" fill="white" fill-opacity="0.2"/>
<path d="M677.349 200.323C587.439 196.016 480.738 364.713 457.664 391.891L137.416 993.662L280.383 1663.51C558.044 1402.8 1615.18 1206.91 1791.03 1061.5C2029.19 864.574 2035.39 415.494 1805.53 254.369C1586.7 100.975 1066.08 325.117 984.465 337.921C902.852 350.726 793.773 205.901 677.349 200.323Z" fill="url(#paint0_linear_1216_38354)"/>
<path d="M677.349 200.323C587.439 196.016 480.738 364.713 457.664 391.891L137.416 993.662L280.383 1663.51C558.044 1402.8 1615.18 1206.91 1791.03 1061.5C2029.19 864.574 2035.39 415.494 1805.53 254.369C1586.7 100.975 1066.08 325.117 984.465 337.921C902.852 350.726 793.773 205.901 677.349 200.323Z" fill="url(#paint1_linear_1216_38354)"/>
<path d="M677.349 200.323C587.439 196.016 480.738 364.713 457.664 391.891L137.416 993.662L280.383 1663.51C558.044 1402.8 1615.18 1206.91 1791.03 1061.5C2029.19 864.574 2035.39 415.494 1805.53 254.369C1586.7 100.975 1066.08 325.117 984.465 337.921C902.852 350.726 793.773 205.901 677.349 200.323Z" fill="url(#paint2_linear_1216_38354)" fill-opacity="0.3"/>
<path d="M677.349 200.323C587.439 196.016 480.738 364.713 457.664 391.891L137.416 993.662L280.383 1663.51C558.044 1402.8 1615.18 1206.91 1791.03 1061.5C2029.19 864.574 2035.39 415.494 1805.53 254.369C1586.7 100.975 1066.08 325.117 984.465 337.921C902.852 350.726 793.773 205.901 677.349 200.323Z" fill="url(#paint3_linear_1216_38354)" fill-opacity="0.5"/>
<path d="M677.349 200.323C587.439 196.016 480.738 364.713 457.664 391.891L137.416 993.662L280.383 1663.51C558.044 1402.8 1615.18 1206.91 1791.03 1061.5C2029.19 864.574 2035.39 415.494 1805.53 254.369C1586.7 100.975 1066.08 325.117 984.465 337.921C902.852 350.726 793.773 205.901 677.349 200.323Z" fill="url(#paint4_radial_1216_38354)" fill-opacity="0.5"/>
</g>
<defs>
<filter id="filter0_f_1216_38354" x="-62.5859" y="0.24231" width="2236.46" height="1863.27" filterUnits="userSpaceOnUse" color-interpolation-filters="sRGB">
<feFlood flood-opacity="0" result="BackgroundImageFix"/>
<feBlend mode="normal" in="SourceGraphic" in2="BackgroundImageFix" result="shape"/>
<feGaussianBlur stdDeviation="100" result="effect1_foregroundBlur_1216_38354"/>
</filter>
<linearGradient id="paint0_linear_1216_38354" x1="1616.44" y1="131.381" x2="1296.46" y2="528.053" gradientUnits="userSpaceOnUse">
<stop stop-color="#FFEADE"/>
<stop offset="1" stop-color="white" stop-opacity="0.33"/>
</linearGradient>
<linearGradient id="paint1_linear_1216_38354" x1="592.146" y1="792.7" x2="1044.78" y2="926.09" gradientUnits="userSpaceOnUse">
<stop stop-color="#CBE5FA"/>
<stop offset="1" stop-color="#CDE3F5" stop-opacity="0"/>
</linearGradient>
<linearGradient id="paint2_linear_1216_38354" x1="1125.11" y1="305.838" x2="1174.28" y2="574.942" gradientUnits="userSpaceOnUse">
<stop stop-color="#CDE3F5"/>
<stop offset="1" stop-color="#CDE3F5" stop-opacity="0"/>
</linearGradient>
<linearGradient id="paint3_linear_1216_38354" x1="357.775" y1="679.786" x2="952.245" y2="936.044" gradientUnits="userSpaceOnUse">
<stop stop-color="white"/>
<stop offset="1" stop-color="#F67C2D" stop-opacity="0"/>
</linearGradient>
<radialGradient id="paint4_radial_1216_38354" cx="0" cy="0" r="1" gradientUnits="userSpaceOnUse" gradientTransform="translate(622.97 827.492) rotate(18.5595) scale(282.522 444.068)">
<stop stop-color="white"/>
<stop offset="1" stop-color="white" stop-opacity="0"/>
</radialGradient>
</defs>
</svg>
