<svg width="375" height="12546" viewBox="0 0 375 12546" fill="none" xmlns="http://www.w3.org/2000/svg">
<g clip-path="url(#clip0_1221_20668)">
<rect width="375" height="12546" fill="#CDE3F5"/>
<g filter="url(#filter0_f_1221_20668)">
<path d="M24.0498 12412.7C11.4864 12461.5 58.265 12552.5 65.079 12570.5L239.356 12862.1L494.647 12911C436.192 12708 496.408 12087.2 466.382 11962.4C425.718 11793.3 267.091 11704.2 181.693 11800.3C100.393 11891.8 148.35 11951.4 119.786 11969.9C58.8757 12009.5 40.3179 12349.5 24.0498 12412.7Z" fill="#2E88FC"/>
<path d="M24.0498 12412.7C11.4864 12461.5 58.265 12552.5 65.079 12570.5L239.356 12862.1L494.647 12911C436.192 12708 496.408 12087.2 466.382 11962.4C425.718 11793.3 267.091 11704.2 181.693 11800.3C100.393 11891.8 148.35 11951.4 119.786 11969.9C58.8757 12009.5 40.3179 12349.5 24.0498 12412.7Z" fill="url(#paint0_linear_1221_20668)"/>
<path d="M24.0498 12412.7C11.4864 12461.5 58.265 12552.5 65.079 12570.5L239.356 12862.1L494.647 12911C436.192 12708 496.408 12087.2 466.382 11962.4C425.718 11793.3 267.091 11704.2 181.693 11800.3C100.393 11891.8 148.35 11951.4 119.786 11969.9C58.8757 12009.5 40.3179 12349.5 24.0498 12412.7Z" fill="url(#paint1_linear_1221_20668)" fill-opacity="0.25"/>
<path d="M24.0498 12412.7C11.4864 12461.5 58.265 12552.5 65.079 12570.5L239.356 12862.1L494.647 12911C436.192 12708 496.408 12087.2 466.382 11962.4C425.718 11793.3 267.091 11704.2 181.693 11800.3C100.393 11891.8 148.35 11951.4 119.786 11969.9C58.8757 12009.5 40.3179 12349.5 24.0498 12412.7Z" fill="url(#paint2_linear_1221_20668)"/>
<path d="M24.0498 12412.7C11.4864 12461.5 58.265 12552.5 65.079 12570.5L239.356 12862.1L494.647 12911C436.192 12708 496.408 12087.2 466.382 11962.4C425.718 11793.3 267.091 11704.2 181.693 11800.3C100.393 11891.8 148.35 11951.4 119.786 11969.9C58.8757 12009.5 40.3179 12349.5 24.0498 12412.7Z" fill="url(#paint3_linear_1221_20668)" fill-opacity="0.75"/>
<path d="M24.0498 12412.7C11.4864 12461.5 58.265 12552.5 65.079 12570.5L239.356 12862.1L494.647 12911C436.192 12708 496.408 12087.2 466.382 11962.4C425.718 11793.3 267.091 11704.2 181.693 11800.3C100.393 11891.8 148.35 11951.4 119.786 11969.9C58.8757 12009.5 40.3179 12349.5 24.0498 12412.7Z" fill="url(#paint4_linear_1221_20668)" fill-opacity="0.8"/>
<path d="M24.0498 12412.7C11.4864 12461.5 58.265 12552.5 65.079 12570.5L239.356 12862.1L494.647 12911C436.192 12708 496.408 12087.2 466.382 11962.4C425.718 11793.3 267.091 11704.2 181.693 11800.3C100.393 11891.8 148.35 11951.4 119.786 11969.9C58.8757 12009.5 40.3179 12349.5 24.0498 12412.7Z" fill="url(#paint5_radial_1221_20668)" fill-opacity="0.5"/>
</g>
<g filter="url(#filter1_f_1221_20668)">
<path d="M177.373 8094.33C198.269 8052.82 272.507 8070.5 285.915 8070.74L535.88 8160.58L691.243 8481.94C548.768 8504.59 232.954 8897.67 148.326 8919.61C33.7126 8949.32 -95.5525 8779.1 -84.8292 8615.16C-74.6204 8459.09 -17.3756 8494.2 -21.3627 8446.19C-29.865 8343.8 150.315 8148.07 177.373 8094.33Z" fill="#2E88FC"/>
<path d="M177.373 8094.33C198.269 8052.82 272.507 8070.5 285.915 8070.74L535.88 8160.58L691.243 8481.94C548.768 8504.59 232.954 8897.67 148.326 8919.61C33.7126 8949.32 -95.5525 8779.1 -84.8292 8615.16C-74.6204 8459.09 -17.3756 8494.2 -21.3627 8446.19C-29.865 8343.8 150.315 8148.07 177.373 8094.33Z" fill="url(#paint6_linear_1221_20668)"/>
<path d="M177.373 8094.33C198.269 8052.82 272.507 8070.5 285.915 8070.74L535.88 8160.58L691.243 8481.94C548.768 8504.59 232.954 8897.67 148.326 8919.61C33.7126 8949.32 -95.5525 8779.1 -84.8292 8615.16C-74.6204 8459.09 -17.3756 8494.2 -21.3627 8446.19C-29.865 8343.8 150.315 8148.07 177.373 8094.33Z" fill="url(#paint7_linear_1221_20668)" fill-opacity="0.25"/>
<path d="M177.373 8094.33C198.269 8052.82 272.507 8070.5 285.915 8070.74L535.88 8160.58L691.243 8481.94C548.768 8504.59 232.954 8897.67 148.326 8919.61C33.7126 8949.32 -95.5525 8779.1 -84.8292 8615.16C-74.6204 8459.09 -17.3756 8494.2 -21.3627 8446.19C-29.865 8343.8 150.315 8148.07 177.373 8094.33Z" fill="url(#paint8_linear_1221_20668)"/>
<path d="M177.373 8094.33C198.269 8052.82 272.507 8070.5 285.915 8070.74L535.88 8160.58L691.243 8481.94C548.768 8504.59 232.954 8897.67 148.326 8919.61C33.7126 8949.32 -95.5525 8779.1 -84.8292 8615.16C-74.6204 8459.09 -17.3756 8494.2 -21.3627 8446.19C-29.865 8343.8 150.315 8148.07 177.373 8094.33Z" fill="url(#paint9_linear_1221_20668)" fill-opacity="0.75"/>
<path d="M177.373 8094.33C198.269 8052.82 272.507 8070.5 285.915 8070.74L535.88 8160.58L691.243 8481.94C548.768 8504.59 232.954 8897.67 148.326 8919.61C33.7126 8949.32 -95.5525 8779.1 -84.8292 8615.16C-74.6204 8459.09 -17.3756 8494.2 -21.3627 8446.19C-29.865 8343.8 150.315 8148.07 177.373 8094.33Z" fill="url(#paint10_radial_1221_20668)" fill-opacity="0.5"/>
</g>
<g filter="url(#filter2_f_1221_20668)">
<path d="M403.336 4532.68C389.713 4577.89 318.823 4586.16 306.422 4590.37L63.6033 4590.26L-123.477 4345.25C4.86693 4277.19 242.664 3810.03 317.743 3761.77C419.424 3696.42 561.847 3810.65 574.28 3965.42C586.117 4112.77 528.529 4099.34 538.746 4142.31C560.532 4233.94 420.977 4474.14 403.336 4532.68Z" fill="#2E88FC"/>
<path d="M403.336 4532.68C389.713 4577.89 318.823 4586.16 306.422 4590.37L63.6033 4590.26L-123.477 4345.25C4.86693 4277.19 242.664 3810.03 317.743 3761.77C419.424 3696.42 561.847 3810.65 574.28 3965.42C586.117 4112.77 528.529 4099.34 538.746 4142.31C560.532 4233.94 420.977 4474.14 403.336 4532.68Z" fill="url(#paint11_linear_1221_20668)"/>
<path d="M403.336 4532.68C389.713 4577.89 318.823 4586.16 306.422 4590.37L63.6033 4590.26L-123.477 4345.25C4.86693 4277.19 242.664 3810.03 317.743 3761.77C419.424 3696.42 561.847 3810.65 574.28 3965.42C586.117 4112.77 528.529 4099.34 538.746 4142.31C560.532 4233.94 420.977 4474.14 403.336 4532.68Z" fill="url(#paint12_linear_1221_20668)" fill-opacity="0.5"/>
<path d="M403.336 4532.68C389.713 4577.89 318.823 4586.16 306.422 4590.37L63.6033 4590.26L-123.477 4345.25C4.86693 4277.19 242.664 3810.03 317.743 3761.77C419.424 3696.42 561.847 3810.65 574.28 3965.42C586.117 4112.77 528.529 4099.34 538.746 4142.31C560.532 4233.94 420.977 4474.14 403.336 4532.68Z" fill="url(#paint13_linear_1221_20668)"/>
<path d="M403.336 4532.68C389.713 4577.89 318.823 4586.16 306.422 4590.37L63.6033 4590.26L-123.477 4345.25C4.86693 4277.19 242.664 3810.03 317.743 3761.77C419.424 3696.42 561.847 3810.65 574.28 3965.42C586.117 4112.77 528.529 4099.34 538.746 4142.31C560.532 4233.94 420.977 4474.14 403.336 4532.68Z" fill="url(#paint14_linear_1221_20668)" fill-opacity="0.8"/>
<path d="M403.336 4532.68C389.713 4577.89 318.823 4586.16 306.422 4590.37L63.6033 4590.26L-123.477 4345.25C4.86693 4277.19 242.664 3810.03 317.743 3761.77C419.424 3696.42 561.847 3810.65 574.28 3965.42C586.117 4112.77 528.529 4099.34 538.746 4142.31C560.532 4233.94 420.977 4474.14 403.336 4532.68Z" fill="url(#paint15_linear_1221_20668)"/>
<path d="M403.336 4532.68C389.713 4577.89 318.823 4586.16 306.422 4590.37L63.6033 4590.26L-123.477 4345.25C4.86693 4277.19 242.664 3810.03 317.743 3761.77C419.424 3696.42 561.847 3810.65 574.28 3965.42C586.117 4112.77 528.529 4099.34 538.746 4142.31C560.532 4233.94 420.977 4474.14 403.336 4532.68Z" fill="url(#paint16_linear_1221_20668)" fill-opacity="0.5"/>
<path d="M403.336 4532.68C389.713 4577.89 318.823 4586.16 306.422 4590.37L63.6033 4590.26L-123.477 4345.25C4.86693 4277.19 242.664 3810.03 317.743 3761.77C419.424 3696.42 561.847 3810.65 574.28 3965.42C586.117 4112.77 528.529 4099.34 538.746 4142.31C560.532 4233.94 420.977 4474.14 403.336 4532.68Z" fill="url(#paint17_radial_1221_20668)" fill-opacity="0.5"/>
</g>
<g filter="url(#filter3_f_1221_20668)">
<path d="M293.884 491.544C316.136 491.243 287.967 437.315 303.554 432.424C319.141 427.532 302.305 382.448 350.919 373.287C377.759 368.23 400.176 370.433 401.941 400.124C424.605 457.287 406.151 558.683 374.049 600.393C340.823 643.565 215.586 605.311 161.929 680.202L160.59 682.116C161.031 681.47 161.478 680.832 161.929 680.202L293.884 491.544Z" fill="#ED5F5C"/>
<path d="M293.884 491.544C316.136 491.243 287.967 437.315 303.554 432.424C319.141 427.532 302.305 382.448 350.919 373.287C377.759 368.23 400.176 370.433 401.941 400.124C424.605 457.287 406.151 558.683 374.049 600.393C340.823 643.565 215.586 605.311 161.929 680.202L160.59 682.116C161.031 681.47 161.478 680.832 161.929 680.202L293.884 491.544Z" fill="url(#paint18_linear_1221_20668)"/>
<path d="M293.884 491.544C316.136 491.243 287.967 437.315 303.554 432.424C319.141 427.532 302.305 382.448 350.919 373.287C377.759 368.23 400.176 370.433 401.941 400.124C424.605 457.287 406.151 558.683 374.049 600.393C340.823 643.565 215.586 605.311 161.929 680.202L160.59 682.116C161.031 681.47 161.478 680.832 161.929 680.202L293.884 491.544Z" fill="url(#paint19_linear_1221_20668)"/>
<path d="M293.884 491.544C316.136 491.243 287.967 437.315 303.554 432.424C319.141 427.532 302.305 382.448 350.919 373.287C377.759 368.23 400.176 370.433 401.941 400.124C424.605 457.287 406.151 558.683 374.049 600.393C340.823 643.565 215.586 605.311 161.929 680.202L160.59 682.116C161.031 681.47 161.478 680.832 161.929 680.202L293.884 491.544Z" fill="url(#paint20_linear_1221_20668)"/>
</g>
<g filter="url(#filter4_f_1221_20668)">
<path d="M163.286 510.371C144.323 508.928 121.85 564.487 116.988 573.436L49.5537 771.643L79.8213 992.409C138.334 906.575 361.245 842.313 398.307 794.446C448.5 729.619 449.729 581.641 401.224 528.486C355.046 477.881 245.289 551.598 228.079 555.795C210.87 559.992 187.84 512.24 163.286 510.371Z" fill="#2E88FC"/>
<path d="M163.286 510.371C144.323 508.928 121.85 564.487 116.988 573.436L49.5537 771.643L79.8213 992.409C138.334 906.575 361.245 842.313 398.307 794.446C448.5 729.619 449.729 581.641 401.224 528.486C355.046 477.881 245.289 551.598 228.079 555.795C210.87 559.992 187.84 512.24 163.286 510.371Z" fill="white" fill-opacity="0.2"/>
<path d="M163.286 510.371C144.323 508.928 121.85 564.487 116.988 573.436L49.5537 771.643L79.8213 992.409C138.334 906.575 361.245 842.313 398.307 794.446C448.5 729.619 449.729 581.641 401.224 528.486C355.046 477.881 245.289 551.598 228.079 555.795C210.87 559.992 187.84 512.24 163.286 510.371Z" fill="url(#paint21_linear_1221_20668)"/>
<path d="M163.286 510.371C144.323 508.928 121.85 564.487 116.988 573.436L49.5537 771.643L79.8213 992.409C138.334 906.575 361.245 842.313 398.307 794.446C448.5 729.619 449.729 581.641 401.224 528.486C355.046 477.881 245.289 551.598 228.079 555.795C210.87 559.992 187.84 512.24 163.286 510.371Z" fill="url(#paint22_linear_1221_20668)" fill-opacity="0.8"/>
<path d="M163.286 510.371C144.323 508.928 121.85 564.487 116.988 573.436L49.5537 771.643L79.8213 992.409C138.334 906.575 361.245 842.313 398.307 794.446C448.5 729.619 449.729 581.641 401.224 528.486C355.046 477.881 245.289 551.598 228.079 555.795C210.87 559.992 187.84 512.24 163.286 510.371Z" fill="url(#paint23_linear_1221_20668)"/>
<path d="M163.286 510.371C144.323 508.928 121.85 564.487 116.988 573.436L49.5537 771.643L79.8213 992.409C138.334 906.575 361.245 842.313 398.307 794.446C448.5 729.619 449.729 581.641 401.224 528.486C355.046 477.881 245.289 551.598 228.079 555.795C210.87 559.992 187.84 512.24 163.286 510.371Z" fill="url(#paint24_linear_1221_20668)" fill-opacity="0.3"/>
<path d="M163.286 510.371C144.323 508.928 121.85 564.487 116.988 573.436L49.5537 771.643L79.8213 992.409C138.334 906.575 361.245 842.313 398.307 794.446C448.5 729.619 449.729 581.641 401.224 528.486C355.046 477.881 245.289 551.598 228.079 555.795C210.87 559.992 187.84 512.24 163.286 510.371Z" fill="url(#paint25_linear_1221_20668)"/>
<path d="M163.286 510.371C144.323 508.928 121.85 564.487 116.988 573.436L49.5537 771.643L79.8213 992.409C138.334 906.575 361.245 842.313 398.307 794.446C448.5 729.619 449.729 581.641 401.224 528.486C355.046 477.881 245.289 551.598 228.079 555.795C210.87 559.992 187.84 512.24 163.286 510.371Z" fill="url(#paint26_linear_1221_20668)" fill-opacity="0.5"/>
<path d="M163.286 510.371C144.323 508.928 121.85 564.487 116.988 573.436L49.5537 771.643L79.8213 992.409C138.334 906.575 361.245 842.313 398.307 794.446C448.5 729.619 449.729 581.641 401.224 528.486C355.046 477.881 245.289 551.598 228.079 555.795C210.87 559.992 187.84 512.24 163.286 510.371Z" fill="url(#paint27_radial_1221_20668)" fill-opacity="0.5"/>
</g>
<g filter="url(#filter5_f_1221_20668)">
<path d="M166.213 821.584C137.118 819.369 102.636 904.617 95.1764 918.348L-8.29195 1222.47L38.1493 1561.2C127.928 1429.5 469.953 1330.9 526.819 1257.45C603.833 1157.99 605.719 930.937 531.295 849.378C460.442 771.732 292.035 884.84 265.63 891.28C239.224 897.72 203.888 824.452 166.213 821.584Z" fill="#2E88FC"/>
<path d="M166.213 821.584C137.118 819.369 102.636 904.617 95.1764 918.348L-8.29195 1222.47L38.1493 1561.2C127.928 1429.5 469.953 1330.9 526.819 1257.45C603.833 1157.99 605.719 930.937 531.295 849.378C460.442 771.732 292.035 884.84 265.63 891.28C239.224 897.72 203.888 824.452 166.213 821.584Z" fill="white" fill-opacity="0.2"/>
<path d="M166.213 821.584C137.118 819.369 102.636 904.617 95.1764 918.348L-8.29195 1222.47L38.1493 1561.2C127.928 1429.5 469.953 1330.9 526.819 1257.45C603.833 1157.99 605.719 930.937 531.295 849.378C460.442 771.732 292.035 884.84 265.63 891.28C239.224 897.72 203.888 824.452 166.213 821.584Z" fill="url(#paint28_linear_1221_20668)"/>
<path d="M166.213 821.584C137.118 819.369 102.636 904.617 95.1764 918.348L-8.29195 1222.47L38.1493 1561.2C127.928 1429.5 469.953 1330.9 526.819 1257.45C603.833 1157.99 605.719 930.937 531.295 849.378C460.442 771.732 292.035 884.84 265.63 891.28C239.224 897.72 203.888 824.452 166.213 821.584Z" fill="url(#paint29_linear_1221_20668)" fill-opacity="0.8"/>
<path d="M166.213 821.584C137.118 819.369 102.636 904.617 95.1764 918.348L-8.29195 1222.47L38.1493 1561.2C127.928 1429.5 469.953 1330.9 526.819 1257.45C603.833 1157.99 605.719 930.937 531.295 849.378C460.442 771.732 292.035 884.84 265.63 891.28C239.224 897.72 203.888 824.452 166.213 821.584Z" fill="url(#paint30_linear_1221_20668)"/>
<path d="M166.213 821.584C137.118 819.369 102.636 904.617 95.1764 918.348L-8.29195 1222.47L38.1493 1561.2C127.928 1429.5 469.953 1330.9 526.819 1257.45C603.833 1157.99 605.719 930.937 531.295 849.378C460.442 771.732 292.035 884.84 265.63 891.28C239.224 897.72 203.888 824.452 166.213 821.584Z" fill="url(#paint31_linear_1221_20668)" fill-opacity="0.3"/>
<path d="M166.213 821.584C137.118 819.369 102.636 904.617 95.1764 918.348L-8.29195 1222.47L38.1493 1561.2C127.928 1429.5 469.953 1330.9 526.819 1257.45C603.833 1157.99 605.719 930.937 531.295 849.378C460.442 771.732 292.035 884.84 265.63 891.28C239.224 897.72 203.888 824.452 166.213 821.584Z" fill="url(#paint32_linear_1221_20668)"/>
<path d="M166.213 821.584C137.118 819.369 102.636 904.617 95.1764 918.348L-8.29195 1222.47L38.1493 1561.2C127.928 1429.5 469.953 1330.9 526.819 1257.45C603.833 1157.99 605.719 930.937 531.295 849.378C460.442 771.732 292.035 884.84 265.63 891.28C239.224 897.72 203.888 824.452 166.213 821.584Z" fill="url(#paint33_linear_1221_20668)" fill-opacity="0.5"/>
<path d="M166.213 821.584C137.118 819.369 102.636 904.617 95.1764 918.348L-8.29195 1222.47L38.1493 1561.2C127.928 1429.5 469.953 1330.9 526.819 1257.45C603.833 1157.99 605.719 930.937 531.295 849.378C460.442 771.732 292.035 884.84 265.63 891.28C239.224 897.72 203.888 824.452 166.213 821.584Z" fill="url(#paint34_radial_1221_20668)" fill-opacity="0.5"/>
</g>
<g filter="url(#filter6_f_1221_20668)">
<path d="M469.816 5314.18C448.084 5283.94 386.894 5316.42 375.557 5319.79L172.463 5454.85L71.9833 5763.78C194.905 5749.38 500.629 6008 574.466 6006.63C674.463 6004.78 767.487 5830.07 742.502 5693.69C718.716 5563.85 542.15 5486.72 519.019 5465.84C495.889 5444.96 497.956 5353.35 469.816 5314.18Z" fill="#2E88FC"/>
<path d="M469.816 5314.18C448.084 5283.94 386.894 5316.42 375.557 5319.79L172.463 5454.85L71.9833 5763.78C194.905 5749.38 500.629 6008 574.466 6006.63C674.463 6004.78 767.487 5830.07 742.502 5693.69C718.716 5563.85 542.15 5486.72 519.019 5465.84C495.889 5444.96 497.956 5353.35 469.816 5314.18Z" fill="white" fill-opacity="0.2"/>
<path d="M469.816 5314.18C448.084 5283.94 386.894 5316.42 375.557 5319.79L172.463 5454.85L71.9833 5763.78C194.905 5749.38 500.629 6008 574.466 6006.63C674.463 6004.78 767.487 5830.07 742.502 5693.69C718.716 5563.85 542.15 5486.72 519.019 5465.84C495.889 5444.96 497.956 5353.35 469.816 5314.18Z" fill="url(#paint35_linear_1221_20668)"/>
<path d="M469.816 5314.18C448.084 5283.94 386.894 5316.42 375.557 5319.79L172.463 5454.85L71.9833 5763.78C194.905 5749.38 500.629 6008 574.466 6006.63C674.463 6004.78 767.487 5830.07 742.502 5693.69C718.716 5563.85 542.15 5486.72 519.019 5465.84C495.889 5444.96 497.956 5353.35 469.816 5314.18Z" fill="url(#paint36_linear_1221_20668)" fill-opacity="0.8"/>
<path d="M469.816 5314.18C448.084 5283.94 386.894 5316.42 375.557 5319.79L172.463 5454.85L71.9833 5763.78C194.905 5749.38 500.629 6008 574.466 6006.63C674.463 6004.78 767.487 5830.07 742.502 5693.69C718.716 5563.85 542.15 5486.72 519.019 5465.84C495.889 5444.96 497.956 5353.35 469.816 5314.18Z" fill="url(#paint37_linear_1221_20668)"/>
<path d="M469.816 5314.18C448.084 5283.94 386.894 5316.42 375.557 5319.79L172.463 5454.85L71.9833 5763.78C194.905 5749.38 500.629 6008 574.466 6006.63C674.463 6004.78 767.487 5830.07 742.502 5693.69C718.716 5563.85 542.15 5486.72 519.019 5465.84C495.889 5444.96 497.956 5353.35 469.816 5314.18Z" fill="url(#paint38_linear_1221_20668)" fill-opacity="0.3"/>
<path d="M469.816 5314.18C448.084 5283.94 386.894 5316.42 375.557 5319.79L172.463 5454.85L71.9833 5763.78C194.905 5749.38 500.629 6008 574.466 6006.63C674.463 6004.78 767.487 5830.07 742.502 5693.69C718.716 5563.85 542.15 5486.72 519.019 5465.84C495.889 5444.96 497.956 5353.35 469.816 5314.18Z" fill="url(#paint39_linear_1221_20668)"/>
<path d="M469.816 5314.18C448.084 5283.94 386.894 5316.42 375.557 5319.79L172.463 5454.85L71.9833 5763.78C194.905 5749.38 500.629 6008 574.466 6006.63C674.463 6004.78 767.487 5830.07 742.502 5693.69C718.716 5563.85 542.15 5486.72 519.019 5465.84C495.889 5444.96 497.956 5353.35 469.816 5314.18Z" fill="url(#paint40_linear_1221_20668)" fill-opacity="0.5"/>
<path d="M469.816 5314.18C448.084 5283.94 386.894 5316.42 375.557 5319.79L172.463 5454.85L71.9833 5763.78C194.905 5749.38 500.629 6008 574.466 6006.63C674.463 6004.78 767.487 5830.07 742.502 5693.69C718.716 5563.85 542.15 5486.72 519.019 5465.84C495.889 5444.96 497.956 5353.35 469.816 5314.18Z" fill="url(#paint41_radial_1221_20668)" fill-opacity="0.5"/>
</g>
</g>
<defs>
<filter id="filter0_f_1221_20668" x="-191.082" y="11547.8" width="898.729" height="1576.17" filterUnits="userSpaceOnUse" color-interpolation-filters="sRGB">
<feFlood flood-opacity="0" result="BackgroundImageFix"/>
<feBlend mode="normal" in="SourceGraphic" in2="BackgroundImageFix" result="shape"/>
<feGaussianBlur stdDeviation="106.5" result="effect1_foregroundBlur_1221_20668"/>
</filter>
<filter id="filter1_f_1221_20668" x="-185.455" y="7966.8" width="976.697" height="1056.21" filterUnits="userSpaceOnUse" color-interpolation-filters="sRGB">
<feFlood flood-opacity="0" result="BackgroundImageFix"/>
<feBlend mode="normal" in="SourceGraphic" in2="BackgroundImageFix" result="shape"/>
<feGaussianBlur stdDeviation="50" result="effect1_foregroundBlur_1221_20668"/>
</filter>
<filter id="filter2_f_1221_20668" x="-336.477" y="3530" width="1125.37" height="1273.38" filterUnits="userSpaceOnUse" color-interpolation-filters="sRGB">
<feFlood flood-opacity="0" result="BackgroundImageFix"/>
<feBlend mode="normal" in="SourceGraphic" in2="BackgroundImageFix" result="shape"/>
<feGaussianBlur stdDeviation="106.5" result="effect1_foregroundBlur_1221_20668"/>
</filter>
<filter id="filter3_f_1221_20668" x="-39.4102" y="171.17" width="651.393" height="710.946" filterUnits="userSpaceOnUse" color-interpolation-filters="sRGB">
<feFlood flood-opacity="0" result="BackgroundImageFix"/>
<feBlend mode="normal" in="SourceGraphic" in2="BackgroundImageFix" result="shape"/>
<feGaussianBlur stdDeviation="100" result="effect1_foregroundBlur_1221_20668"/>
</filter>
<filter id="filter4_f_1221_20668" x="-150.447" y="310.344" width="787.24" height="882.065" filterUnits="userSpaceOnUse" color-interpolation-filters="sRGB">
<feFlood flood-opacity="0" result="BackgroundImageFix"/>
<feBlend mode="normal" in="SourceGraphic" in2="BackgroundImageFix" result="shape"/>
<feGaussianBlur stdDeviation="100" result="effect1_foregroundBlur_1221_20668"/>
</filter>
<filter id="filter5_f_1221_20668" x="-208.291" y="621.541" width="994.162" height="1139.66" filterUnits="userSpaceOnUse" color-interpolation-filters="sRGB">
<feFlood flood-opacity="0" result="BackgroundImageFix"/>
<feBlend mode="normal" in="SourceGraphic" in2="BackgroundImageFix" result="shape"/>
<feGaussianBlur stdDeviation="100" result="effect1_foregroundBlur_1221_20668"/>
</filter>
<filter id="filter6_f_1221_20668" x="-128.018" y="5101.4" width="1074.63" height="1105.23" filterUnits="userSpaceOnUse" color-interpolation-filters="sRGB">
<feFlood flood-opacity="0" result="BackgroundImageFix"/>
<feBlend mode="normal" in="SourceGraphic" in2="BackgroundImageFix" result="shape"/>
<feGaussianBlur stdDeviation="100" result="effect1_foregroundBlur_1221_20668"/>
</filter>
<linearGradient id="paint0_linear_1221_20668" x1="114.835" y1="11881.2" x2="290.306" y2="12061.6" gradientUnits="userSpaceOnUse">
<stop stop-color="#FFEADE"/>
<stop offset="1" stop-color="#D65007" stop-opacity="0"/>
</linearGradient>
<linearGradient id="paint1_linear_1221_20668" x1="75.3285" y1="12145.2" x2="314.713" y2="12141.7" gradientUnits="userSpaceOnUse">
<stop stop-color="#F9914E"/>
<stop offset="1" stop-color="#F67C2D" stop-opacity="0"/>
</linearGradient>
<linearGradient id="paint2_linear_1221_20668" x1="112.857" y1="12050.6" x2="344.496" y2="12133.2" gradientUnits="userSpaceOnUse">
<stop stop-color="#CDE3F5"/>
<stop offset="1" stop-color="#CDE3F5" stop-opacity="0"/>
</linearGradient>
<linearGradient id="paint3_linear_1221_20668" x1="74.9745" y1="12597.5" x2="160.785" y2="12217.7" gradientUnits="userSpaceOnUse">
<stop stop-color="#ED5F5C"/>
<stop offset="1" stop-color="#ED5F5C" stop-opacity="0"/>
</linearGradient>
<linearGradient id="paint4_linear_1221_20668" x1="424.423" y1="11948.5" x2="228.249" y2="12161.6" gradientUnits="userSpaceOnUse">
<stop offset="0.121877" stop-color="white"/>
<stop offset="1" stop-color="white" stop-opacity="0"/>
</linearGradient>
<radialGradient id="paint5_radial_1221_20668" cx="0" cy="0" r="1" gradientUnits="userSpaceOnUse" gradientTransform="translate(239.971 12562.4) rotate(-63.6254) scale(145.837 188.664)">
<stop stop-color="white"/>
<stop offset="1" stop-color="white" stop-opacity="0"/>
</radialGradient>
<linearGradient id="paint6_linear_1221_20668" x1="-73.2886" y1="8483.99" x2="118.418" y2="8488.2" gradientUnits="userSpaceOnUse">
<stop stop-color="#FFEADE"/>
<stop offset="1" stop-color="#D65007" stop-opacity="0"/>
</linearGradient>
<linearGradient id="paint7_linear_1221_20668" x1="54.0023" y1="8298.03" x2="264.839" y2="8545.03" gradientUnits="userSpaceOnUse">
<stop stop-color="#F9914E"/>
<stop offset="1" stop-color="#F67C2D" stop-opacity="0"/>
</linearGradient>
<linearGradient id="paint8_linear_1221_20668" x1="50.2464" y1="8368.48" x2="467.968" y2="8452.83" gradientUnits="userSpaceOnUse">
<stop stop-color="#CDE3F5"/>
<stop offset="1" stop-color="#CDE3F5" stop-opacity="0"/>
</linearGradient>
<linearGradient id="paint9_linear_1221_20668" x1="357.215" y1="8032.01" x2="194.955" y2="8298.37" gradientUnits="userSpaceOnUse">
<stop stop-color="#ED5F5C"/>
<stop offset="1" stop-color="#ED5F5C" stop-opacity="0"/>
</linearGradient>
<radialGradient id="paint10_radial_1221_20668" cx="0" cy="0" r="1" gradientUnits="userSpaceOnUse" gradientTransform="translate(369.149 8311.78) rotate(104.731) scale(158.551 174.742)">
<stop stop-color="white"/>
<stop offset="1" stop-color="white" stop-opacity="0"/>
</radialGradient>
<linearGradient id="paint11_linear_1221_20668" x1="581.498" y1="4090.25" x2="399.484" y2="4112.94" gradientUnits="userSpaceOnUse">
<stop stop-color="#FFEADE"/>
<stop offset="1" stop-color="#D65007" stop-opacity="0"/>
</linearGradient>
<linearGradient id="paint12_linear_1221_20668" x1="489.401" y1="4303.93" x2="264.304" y2="4141.67" gradientUnits="userSpaceOnUse">
<stop stop-color="#F9914E"/>
<stop offset="1" stop-color="#F67C2D" stop-opacity="0"/>
</linearGradient>
<linearGradient id="paint13_linear_1221_20668" x1="106.066" y1="4281.05" x2="268.317" y2="4101.27" gradientUnits="userSpaceOnUse">
<stop stop-color="#CBE5FA"/>
<stop offset="1" stop-color="#CDE3F5" stop-opacity="0"/>
</linearGradient>
<linearGradient id="paint14_linear_1221_20668" x1="496.985" y1="4363.03" x2="307.392" y2="4217.93" gradientUnits="userSpaceOnUse">
<stop stop-color="#CDE3F5"/>
<stop offset="1" stop-color="#CDE3F5" stop-opacity="0"/>
</linearGradient>
<linearGradient id="paint15_linear_1221_20668" x1="386.402" y1="4589.22" x2="340.888" y2="4289.74" gradientUnits="userSpaceOnUse">
<stop stop-color="#ED5F5C"/>
<stop offset="1" stop-color="#ED5F5C" stop-opacity="0"/>
</linearGradient>
<linearGradient id="paint16_linear_1221_20668" x1="199.138" y1="4564.17" x2="244.812" y2="4209.31" gradientUnits="userSpaceOnUse">
<stop stop-color="white"/>
<stop offset="1" stop-color="#F67C2D" stop-opacity="0"/>
</linearGradient>
<radialGradient id="paint17_radial_1221_20668" cx="0" cy="0" r="1" gradientUnits="userSpaceOnUse" gradientTransform="translate(196.816 4395.58) rotate(-83.9855) scale(155.654 159.487)">
<stop stop-color="white"/>
<stop offset="1" stop-color="white" stop-opacity="0"/>
</radialGradient>
<linearGradient id="paint18_linear_1221_20668" x1="370.905" y1="380.792" x2="259.174" y2="437.642" gradientUnits="userSpaceOnUse">
<stop stop-color="#FFEADE"/>
<stop offset="1" stop-color="#D65007" stop-opacity="0"/>
</linearGradient>
<linearGradient id="paint19_linear_1221_20668" x1="187.309" y1="535.686" x2="273.924" y2="565.19" gradientUnits="userSpaceOnUse">
<stop stop-color="#F9914E"/>
<stop offset="1" stop-color="#F67C2D" stop-opacity="0"/>
</linearGradient>
<linearGradient id="paint20_linear_1221_20668" x1="157.15" y1="593.563" x2="228.955" y2="599.923" gradientUnits="userSpaceOnUse">
<stop stop-color="#CBE5FA"/>
<stop offset="1" stop-color="#CDE3F5" stop-opacity="0"/>
</linearGradient>
<linearGradient id="paint21_linear_1221_20668" x1="361.324" y1="487.908" x2="256.347" y2="571.17" gradientUnits="userSpaceOnUse">
<stop stop-color="#FFEADE"/>
<stop offset="1" stop-color="#D65007" stop-opacity="0"/>
</linearGradient>
<linearGradient id="paint22_linear_1221_20668" x1="193.288" y1="670.703" x2="292.311" y2="703.463" gradientUnits="userSpaceOnUse">
<stop stop-color="#F9914E"/>
<stop offset="1" stop-color="#F67C2D" stop-opacity="0"/>
</linearGradient>
<linearGradient id="paint23_linear_1221_20668" x1="145.42" y1="705.546" x2="245.647" y2="724.402" gradientUnits="userSpaceOnUse">
<stop stop-color="#CBE5FA"/>
<stop offset="1" stop-color="#CDE3F5" stop-opacity="0"/>
</linearGradient>
<linearGradient id="paint24_linear_1221_20668" x1="257.735" y1="545.261" x2="281.841" y2="630.058" gradientUnits="userSpaceOnUse">
<stop stop-color="#CDE3F5"/>
<stop offset="1" stop-color="#CDE3F5" stop-opacity="0"/>
</linearGradient>
<linearGradient id="paint25_linear_1221_20668" x1="157.385" y1="547.357" x2="245.357" y2="578.426" gradientUnits="userSpaceOnUse">
<stop stop-color="#ED5F5C"/>
<stop offset="1" stop-color="#ED5F5C" stop-opacity="0"/>
</linearGradient>
<linearGradient id="paint26_linear_1221_20668" x1="95.9721" y1="668.275" x2="234.204" y2="706.353" gradientUnits="userSpaceOnUse">
<stop stop-color="white"/>
<stop offset="1" stop-color="#F67C2D" stop-opacity="0"/>
</linearGradient>
<radialGradient id="paint27_radial_1221_20668" cx="0" cy="0" r="1" gradientUnits="userSpaceOnUse" gradientTransform="translate(151.926 717.019) rotate(27.7326) scale(63.8321 136.587)">
<stop stop-color="white"/>
<stop offset="1" stop-color="white" stop-opacity="0"/>
</radialGradient>
<linearGradient id="paint28_linear_1221_20668" x1="470.074" y1="787.117" x2="309.003" y2="914.871" gradientUnits="userSpaceOnUse">
<stop stop-color="#FFEADE"/>
<stop offset="1" stop-color="#D65007" stop-opacity="0"/>
</linearGradient>
<linearGradient id="paint29_linear_1221_20668" x1="212.248" y1="1067.59" x2="364.184" y2="1117.86" gradientUnits="userSpaceOnUse">
<stop stop-color="#F9914E"/>
<stop offset="1" stop-color="#F67C2D" stop-opacity="0"/>
</linearGradient>
<linearGradient id="paint30_linear_1221_20668" x1="138.8" y1="1121.05" x2="292.584" y2="1149.98" gradientUnits="userSpaceOnUse">
<stop stop-color="#CBE5FA"/>
<stop offset="1" stop-color="#CDE3F5" stop-opacity="0"/>
</linearGradient>
<linearGradient id="paint31_linear_1221_20668" x1="311.132" y1="875.118" x2="348.118" y2="1005.23" gradientUnits="userSpaceOnUse">
<stop stop-color="#CDE3F5"/>
<stop offset="1" stop-color="#CDE3F5" stop-opacity="0"/>
</linearGradient>
<linearGradient id="paint32_linear_1221_20668" x1="157.159" y1="878.333" x2="292.139" y2="926.003" gradientUnits="userSpaceOnUse">
<stop stop-color="#ED5F5C"/>
<stop offset="1" stop-color="#ED5F5C" stop-opacity="0"/>
</linearGradient>
<linearGradient id="paint33_linear_1221_20668" x1="62.9304" y1="1063.86" x2="275.027" y2="1122.29" gradientUnits="userSpaceOnUse">
<stop stop-color="white"/>
<stop offset="1" stop-color="#F67C2D" stop-opacity="0"/>
</linearGradient>
<radialGradient id="paint34_radial_1221_20668" cx="0" cy="0" r="1" gradientUnits="userSpaceOnUse" gradientTransform="translate(148.784 1138.65) rotate(27.7325) scale(97.941 209.572)">
<stop stop-color="white"/>
<stop offset="1" stop-color="white" stop-opacity="0"/>
</radialGradient>
<linearGradient id="paint35_linear_1221_20668" x1="720.002" y1="5585.26" x2="554.396" y2="5608" gradientUnits="userSpaceOnUse">
<stop stop-color="#FFEADE"/>
<stop offset="1" stop-color="#D65007" stop-opacity="0"/>
</linearGradient>
<linearGradient id="paint36_linear_1221_20668" x1="406.412" y1="5550.61" x2="525.478" y2="5724.1" gradientUnits="userSpaceOnUse">
<stop stop-color="#F9914E"/>
<stop offset="1" stop-color="#F67C2D" stop-opacity="0"/>
</linearGradient>
<linearGradient id="paint37_linear_1221_20668" x1="327.74" y1="5520.18" x2="472.191" y2="5654" gradientUnits="userSpaceOnUse">
<stop stop-color="#CBE5FA"/>
<stop offset="1" stop-color="#CDE3F5" stop-opacity="0"/>
</linearGradient>
<linearGradient id="paint38_linear_1221_20668" x1="560.92" y1="5497.88" x2="483.133" y2="5589.29" gradientUnits="userSpaceOnUse">
<stop stop-color="#CDE3F5"/>
<stop offset="1" stop-color="#CDE3F5" stop-opacity="0"/>
</linearGradient>
<linearGradient id="paint39_linear_1221_20668" x1="439.892" y1="5349.44" x2="541.334" y2="5508.84" gradientUnits="userSpaceOnUse">
<stop stop-color="#ED5F5C"/>
<stop offset="1" stop-color="#ED5F5C" stop-opacity="0"/>
</linearGradient>
<linearGradient id="paint40_linear_1221_20668" x1="291.803" y1="5401.33" x2="473.095" y2="5621.87" gradientUnits="userSpaceOnUse">
<stop stop-color="white"/>
<stop offset="1" stop-color="#F67C2D" stop-opacity="0"/>
</linearGradient>
<radialGradient id="paint41_radial_1221_20668" cx="0" cy="0" r="1" gradientUnits="userSpaceOnUse" gradientTransform="translate(328.405 5543.66) rotate(67.8453) scale(130.025 157.86)">
<stop stop-color="white"/>
<stop offset="1" stop-color="white" stop-opacity="0"/>
</radialGradient>
<clipPath id="clip0_1221_20668">
<rect width="375" height="12546" fill="white"/>
</clipPath>
</defs>
</svg>
