<svg width="1920" height="2398" viewBox="0 0 1920 2398" fill="none" xmlns="http://www.w3.org/2000/svg">
<rect x="-291.211" y="-395" width="2262" height="2467" fill="url(#paint0_linear_1211_26508)"/>
<rect x="-291.211" y="-395" width="2262" height="2467" fill="url(#paint1_linear_1211_26508)" fill-opacity="0.3"/>
<g filter="url(#filter0_f_1211_26508)">
<path d="M-99.7325 488.42C-262.874 480.454 -456.221 787.022 -498.046 836.402L-1078.21 1930.07L-817.805 3148.22C-314.403 2674.6 1603.37 2320.02 1922.23 2055.9C2354.06 1698.19 2364.63 881.677 1947.33 588.374C1550.04 309.142 605.768 715.903 457.707 739.062C309.645 762.221 111.516 498.735 -99.7325 488.42Z" fill="#2E88FC"/>
<path d="M-99.7325 488.42C-262.874 480.454 -456.221 787.022 -498.046 836.402L-1078.21 1930.07L-817.805 3148.22C-314.403 2674.6 1603.37 2320.02 1922.23 2055.9C2354.06 1698.19 2364.63 881.677 1947.33 588.374C1550.04 309.142 605.768 715.903 457.707 739.062C309.645 762.221 111.516 498.735 -99.7325 488.42Z" fill="white" fill-opacity="0.2"/>
<path d="M-99.7325 488.42C-262.874 480.454 -456.221 787.022 -498.046 836.402L-1078.21 1930.07L-817.805 3148.22C-314.403 2674.6 1603.37 2320.02 1922.23 2055.9C2354.06 1698.19 2364.63 881.677 1947.33 588.374C1550.04 309.142 605.768 715.903 457.707 739.062C309.645 762.221 111.516 498.735 -99.7325 488.42Z" fill="url(#paint2_linear_1211_26508)"/>
<path d="M-99.7325 488.42C-262.874 480.454 -456.221 787.022 -498.046 836.402L-1078.21 1930.07L-817.805 3148.22C-314.403 2674.6 1603.37 2320.02 1922.23 2055.9C2354.06 1698.19 2364.63 881.677 1947.33 588.374C1550.04 309.142 605.768 715.903 457.707 739.062C309.645 762.221 111.516 498.735 -99.7325 488.42Z" fill="url(#paint3_linear_1211_26508)" fill-opacity="0.8"/>
<path d="M-99.7325 488.42C-262.874 480.454 -456.221 787.022 -498.046 836.402L-1078.21 1930.07L-817.805 3148.22C-314.403 2674.6 1603.37 2320.02 1922.23 2055.9C2354.06 1698.19 2364.63 881.677 1947.33 588.374C1550.04 309.142 605.768 715.903 457.707 739.062C309.645 762.221 111.516 498.735 -99.7325 488.42Z" fill="url(#paint4_linear_1211_26508)"/>
<path d="M-99.7325 488.42C-262.874 480.454 -456.221 787.022 -498.046 836.402L-1078.21 1930.07L-817.805 3148.22C-314.403 2674.6 1603.37 2320.02 1922.23 2055.9C2354.06 1698.19 2364.63 881.677 1947.33 588.374C1550.04 309.142 605.768 715.903 457.707 739.062C309.645 762.221 111.516 498.735 -99.7325 488.42Z" fill="url(#paint5_linear_1211_26508)" fill-opacity="0.3"/>
<path d="M-99.7325 488.42C-262.874 480.454 -456.221 787.022 -498.046 836.402L-1078.21 1930.07L-817.805 3148.22C-314.403 2674.6 1603.37 2320.02 1922.23 2055.9C2354.06 1698.19 2364.63 881.677 1947.33 588.374C1550.04 309.142 605.768 715.903 457.707 739.062C309.645 762.221 111.516 498.735 -99.7325 488.42Z" fill="url(#paint6_linear_1211_26508)"/>
<path d="M-99.7325 488.42C-262.874 480.454 -456.221 787.022 -498.046 836.402L-1078.21 1930.07L-817.805 3148.22C-314.403 2674.6 1603.37 2320.02 1922.23 2055.9C2354.06 1698.19 2364.63 881.677 1947.33 588.374C1550.04 309.142 605.768 715.903 457.707 739.062C309.645 762.221 111.516 498.735 -99.7325 488.42Z" fill="url(#paint7_linear_1211_26508)" fill-opacity="0.5"/>
<path d="M-99.7325 488.42C-262.874 480.454 -456.221 787.022 -498.046 836.402L-1078.21 1930.07L-817.805 3148.22C-314.403 2674.6 1603.37 2320.02 1922.23 2055.9C2354.06 1698.19 2364.63 881.677 1947.33 588.374C1550.04 309.142 605.768 715.903 457.707 739.062C309.645 762.221 111.516 498.735 -99.7325 488.42Z" fill="url(#paint8_radial_1211_26508)" fill-opacity="0.5"/>
</g>
<defs>
<filter id="filter0_f_1211_26508" x="-1278.21" y="288.268" width="3731.55" height="3059.95" filterUnits="userSpaceOnUse" color-interpolation-filters="sRGB">
<feFlood flood-opacity="0" result="BackgroundImageFix"/>
<feBlend mode="normal" in="SourceGraphic" in2="BackgroundImageFix" result="shape"/>
<feGaussianBlur stdDeviation="100" result="effect1_foregroundBlur_1211_26508"/>
</filter>
<linearGradient id="paint0_linear_1211_26508" x1="-291.211" y1="-234.298" x2="2092.29" y2="-101.035" gradientUnits="userSpaceOnUse">
<stop stop-color="#CDE3F5"/>
<stop offset="1" stop-color="#C1CFE4"/>
</linearGradient>
<linearGradient id="paint1_linear_1211_26508" x1="936.498" y1="-262.585" x2="933.414" y2="277.728" gradientUnits="userSpaceOnUse">
<stop stop-color="#5A6877"/>
<stop offset="1" stop-color="#5A6877" stop-opacity="0"/>
</linearGradient>
<linearGradient id="paint2_linear_1211_26508" x1="1604.05" y1="364.472" x2="1022.36" y2="1083.83" gradientUnits="userSpaceOnUse">
<stop stop-color="#FFEADE"/>
<stop offset="1" stop-color="#D65007" stop-opacity="0"/>
</linearGradient>
<linearGradient id="paint3_linear_1211_26508" x1="158.388" y1="1373.11" x2="904.92" y2="1758.19" gradientUnits="userSpaceOnUse">
<stop stop-color="#F9914E"/>
<stop offset="1" stop-color="#F67C2D" stop-opacity="0"/>
</linearGradient>
<linearGradient id="paint4_linear_1211_26508" x1="-253.441" y1="1565.36" x2="568.632" y2="1806.5" gradientUnits="userSpaceOnUse">
<stop stop-color="#CBE5FA"/>
<stop offset="1" stop-color="#CDE3F5" stop-opacity="0"/>
</linearGradient>
<linearGradient id="paint5_linear_1211_26508" x1="712.842" y1="680.938" x2="802.079" y2="1170.37" gradientUnits="userSpaceOnUse">
<stop stop-color="#CDE3F5"/>
<stop offset="1" stop-color="#CDE3F5" stop-opacity="0"/>
</linearGradient>
<linearGradient id="paint6_linear_1211_26508" x1="-150.5" y1="692.5" x2="502.691" y2="1052.18" gradientUnits="userSpaceOnUse">
<stop stop-color="#ED5F5C"/>
<stop offset="1" stop-color="#ED5F5C" stop-opacity="0"/>
</linearGradient>
<linearGradient id="paint7_linear_1211_26508" x1="-678.854" y1="1359.71" x2="401.372" y2="1823.66" gradientUnits="userSpaceOnUse">
<stop stop-color="white"/>
<stop offset="1" stop-color="#F67C2D" stop-opacity="0"/>
</linearGradient>
<radialGradient id="paint8_radial_1211_26508" cx="0" cy="0" r="1" gradientUnits="userSpaceOnUse" gradientTransform="translate(-197.461 1628.67) rotate(18.6334) scale(512.974 806.838)">
<stop stop-color="white"/>
<stop offset="1" stop-color="white" stop-opacity="0"/>
</radialGradient>
</defs>
</svg>
