<svg width="375" height="2059" viewBox="0 0 375 2059" fill="none" xmlns="http://www.w3.org/2000/svg">
<g clip-path="url(#clip0_1216_43286)">
<rect width="375" height="2059" fill="#CDE3F5"/>
<g filter="url(#filter0_f_1216_43286)">
<path d="M94.5954 1975.83C113.899 1967.1 182.478 1970.82 194.863 1970.87L425.774 1989.77L569.293 2057.36C437.679 2062.13 145.939 2144.81 67.7626 2149.42C-38.1137 2155.67 -157.525 2119.87 -147.619 2085.39C-138.188 2052.56 -85.3073 2059.94 -88.9904 2049.84C-96.8446 2028.3 69.5998 1987.13 94.5954 1975.83Z" fill="#2E88FC"/>
<path d="M94.5954 1975.83C113.899 1967.1 182.478 1970.82 194.863 1970.87L425.774 1989.77L569.293 2057.36C437.679 2062.13 145.939 2144.81 67.7626 2149.42C-38.1137 2155.67 -157.525 2119.87 -147.619 2085.39C-138.188 2052.56 -85.3073 2059.94 -88.9904 2049.84C-96.8446 2028.3 69.5998 1987.13 94.5954 1975.83Z" fill="url(#paint0_linear_1216_43286)"/>
<path d="M94.5954 1975.83C113.899 1967.1 182.478 1970.82 194.863 1970.87L425.774 1989.77L569.293 2057.36C437.679 2062.13 145.939 2144.81 67.7626 2149.42C-38.1137 2155.67 -157.525 2119.87 -147.619 2085.39C-138.188 2052.56 -85.3073 2059.94 -88.9904 2049.84C-96.8446 2028.3 69.5998 1987.13 94.5954 1975.83Z" fill="url(#paint1_linear_1216_43286)" fill-opacity="0.25"/>
<path d="M94.5954 1975.83C113.899 1967.1 182.478 1970.82 194.863 1970.87L425.774 1989.77L569.293 2057.36C437.679 2062.13 145.939 2144.81 67.7626 2149.42C-38.1137 2155.67 -157.525 2119.87 -147.619 2085.39C-138.188 2052.56 -85.3073 2059.94 -88.9904 2049.84C-96.8446 2028.3 69.5998 1987.13 94.5954 1975.83Z" fill="url(#paint2_linear_1216_43286)"/>
<path d="M94.5954 1975.83C113.899 1967.1 182.478 1970.82 194.863 1970.87L425.774 1989.77L569.293 2057.36C437.679 2062.13 145.939 2144.81 67.7626 2149.42C-38.1137 2155.67 -157.525 2119.87 -147.619 2085.39C-138.188 2052.56 -85.3073 2059.94 -88.9904 2049.84C-96.8446 2028.3 69.5998 1987.13 94.5954 1975.83Z" fill="url(#paint3_linear_1216_43286)" fill-opacity="0.75"/>
<path d="M94.5954 1975.83C113.899 1967.1 182.478 1970.82 194.863 1970.87L425.774 1989.77L569.293 2057.36C437.679 2062.13 145.939 2144.81 67.7626 2149.42C-38.1137 2155.67 -157.525 2119.87 -147.619 2085.39C-138.188 2052.56 -85.3073 2059.94 -88.9904 2049.84C-96.8446 2028.3 69.5998 1987.13 94.5954 1975.83Z" fill="url(#paint4_radial_1216_43286)" fill-opacity="0.5"/>
</g>
<g filter="url(#filter1_f_1216_43286)">
<path d="M303.336 1226.65C290.751 1236.16 225.265 1237.9 213.809 1238.79L-10.4996 1238.76L-183.318 1187.23C-64.7585 1172.91 154.911 1074.64 224.267 1064.5C318.197 1050.75 449.763 1074.78 461.248 1107.33C472.183 1138.33 418.985 1135.5 428.423 1144.54C448.549 1163.81 319.632 1214.34 303.336 1226.65Z" fill="#2E88FC"/>
<path d="M303.336 1226.65C290.751 1236.16 225.265 1237.9 213.809 1238.79L-10.4996 1238.76L-183.318 1187.23C-64.7585 1172.91 154.911 1074.64 224.267 1064.5C318.197 1050.75 449.763 1074.78 461.248 1107.33C472.183 1138.33 418.985 1135.5 428.423 1144.54C448.549 1163.81 319.632 1214.34 303.336 1226.65Z" fill="url(#paint5_linear_1216_43286)"/>
<path d="M303.336 1226.65C290.751 1236.16 225.265 1237.9 213.809 1238.79L-10.4996 1238.76L-183.318 1187.23C-64.7585 1172.91 154.911 1074.64 224.267 1064.5C318.197 1050.75 449.763 1074.78 461.248 1107.33C472.183 1138.33 418.985 1135.5 428.423 1144.54C448.549 1163.81 319.632 1214.34 303.336 1226.65Z" fill="url(#paint6_linear_1216_43286)" fill-opacity="0.5"/>
<path d="M303.336 1226.65C290.751 1236.16 225.265 1237.9 213.809 1238.79L-10.4996 1238.76L-183.318 1187.23C-64.7585 1172.91 154.911 1074.64 224.267 1064.5C318.197 1050.75 449.763 1074.78 461.248 1107.33C472.183 1138.33 418.985 1135.5 428.423 1144.54C448.549 1163.81 319.632 1214.34 303.336 1226.65Z" fill="url(#paint7_linear_1216_43286)"/>
<path d="M303.336 1226.65C290.751 1236.16 225.265 1237.9 213.809 1238.79L-10.4996 1238.76L-183.318 1187.23C-64.7585 1172.91 154.911 1074.64 224.267 1064.5C318.197 1050.75 449.763 1074.78 461.248 1107.33C472.183 1138.33 418.985 1135.5 428.423 1144.54C448.549 1163.81 319.632 1214.34 303.336 1226.65Z" fill="url(#paint8_linear_1216_43286)" fill-opacity="0.8"/>
<path d="M303.336 1226.65C290.751 1236.16 225.265 1237.9 213.809 1238.79L-10.4996 1238.76L-183.318 1187.23C-64.7585 1172.91 154.911 1074.64 224.267 1064.5C318.197 1050.75 449.763 1074.78 461.248 1107.33C472.183 1138.33 418.985 1135.5 428.423 1144.54C448.549 1163.81 319.632 1214.34 303.336 1226.65Z" fill="url(#paint9_linear_1216_43286)"/>
<path d="M303.336 1226.65C290.751 1236.16 225.265 1237.9 213.809 1238.79L-10.4996 1238.76L-183.318 1187.23C-64.7585 1172.91 154.911 1074.64 224.267 1064.5C318.197 1050.75 449.763 1074.78 461.248 1107.33C472.183 1138.33 418.985 1135.5 428.423 1144.54C448.549 1163.81 319.632 1214.34 303.336 1226.65Z" fill="url(#paint10_linear_1216_43286)" fill-opacity="0.5"/>
<path d="M303.336 1226.65C290.751 1236.16 225.265 1237.9 213.809 1238.79L-10.4996 1238.76L-183.318 1187.23C-64.7585 1172.91 154.911 1074.64 224.267 1064.5C318.197 1050.75 449.763 1074.78 461.248 1107.33C472.183 1138.33 418.985 1135.5 428.423 1144.54C448.549 1163.81 319.632 1214.34 303.336 1226.65Z" fill="url(#paint11_radial_1216_43286)" fill-opacity="0.5"/>
</g>
<g filter="url(#filter2_f_1216_43286)">
<path d="M202.229 376.615C222.784 376.552 196.762 365.209 211.161 364.18C225.56 363.151 210.008 353.667 254.916 351.741C279.71 350.677 300.418 351.14 302.048 357.385C322.985 369.409 305.937 390.738 276.283 399.511C245.589 408.592 129.899 400.546 80.3324 416.299L79.0959 416.701C79.5033 416.565 79.9155 416.431 80.3324 416.299L202.229 376.615Z" fill="#ED5F5C"/>
<path d="M202.229 376.615C222.784 376.552 196.762 365.209 211.161 364.18C225.56 363.151 210.008 353.667 254.916 351.741C279.71 350.677 300.418 351.14 302.048 357.385C322.985 369.409 305.937 390.738 276.283 399.511C245.589 408.592 129.899 400.546 80.3324 416.299L79.0959 416.701C79.5033 416.565 79.9155 416.431 80.3324 416.299L202.229 376.615Z" fill="url(#paint12_linear_1216_43286)"/>
<path d="M202.229 376.615C222.784 376.552 196.762 365.209 211.161 364.18C225.56 363.151 210.008 353.667 254.916 351.741C279.71 350.677 300.418 351.14 302.048 357.385C322.985 369.409 305.937 390.738 276.283 399.511C245.589 408.592 129.899 400.546 80.3324 416.299L79.0959 416.701C79.5033 416.565 79.9155 416.431 80.3324 416.299L202.229 376.615Z" fill="url(#paint13_linear_1216_43286)"/>
<path d="M202.229 376.615C222.784 376.552 196.762 365.209 211.161 364.18C225.56 363.151 210.008 353.667 254.916 351.741C279.71 350.677 300.418 351.14 302.048 357.385C322.985 369.409 305.937 390.738 276.283 399.511C245.589 408.592 129.899 400.546 80.3324 416.299L79.0959 416.701C79.5033 416.565 79.9155 416.431 80.3324 416.299L202.229 376.615Z" fill="url(#paint14_linear_1216_43286)"/>
</g>
<g filter="url(#filter3_f_1216_43286)">
<path d="M81.5849 380.576C64.0678 380.272 43.3075 391.959 38.8165 393.841L-23.4774 435.533L4.48293 481.97C58.535 463.915 264.454 450.398 298.69 440.33C345.057 426.694 346.193 395.567 301.385 384.386C258.727 373.741 157.337 389.248 141.439 390.13C125.541 391.013 104.267 380.969 81.5849 380.576Z" fill="#2E88FC"/>
<path d="M81.5849 380.576C64.0678 380.272 43.3075 391.959 38.8165 393.841L-23.4774 435.533L4.48293 481.97C58.535 463.915 264.454 450.398 298.69 440.33C345.057 426.694 346.193 395.567 301.385 384.386C258.727 373.741 157.337 389.248 141.439 390.13C125.541 391.013 104.267 380.969 81.5849 380.576Z" fill="white" fill-opacity="0.2"/>
<path d="M81.5849 380.576C64.0678 380.272 43.3075 391.959 38.8165 393.841L-23.4774 435.533L4.48293 481.97C58.535 463.915 264.454 450.398 298.69 440.33C345.057 426.694 346.193 395.567 301.385 384.386C258.727 373.741 157.337 389.248 141.439 390.13C125.541 391.013 104.267 380.969 81.5849 380.576Z" fill="url(#paint15_linear_1216_43286)"/>
<path d="M81.5849 380.576C64.0678 380.272 43.3075 391.959 38.8165 393.841L-23.4774 435.533L4.48293 481.97C58.535 463.915 264.454 450.398 298.69 440.33C345.057 426.694 346.193 395.567 301.385 384.386C258.727 373.741 157.337 389.248 141.439 390.13C125.541 391.013 104.267 380.969 81.5849 380.576Z" fill="url(#paint16_linear_1216_43286)" fill-opacity="0.8"/>
<path d="M81.5849 380.576C64.0678 380.272 43.3075 391.959 38.8165 393.841L-23.4774 435.533L4.48293 481.97C58.535 463.915 264.454 450.398 298.69 440.33C345.057 426.694 346.193 395.567 301.385 384.386C258.727 373.741 157.337 389.248 141.439 390.13C125.541 391.013 104.267 380.969 81.5849 380.576Z" fill="url(#paint17_linear_1216_43286)"/>
<path d="M81.5849 380.576C64.0678 380.272 43.3075 391.959 38.8165 393.841L-23.4774 435.533L4.48293 481.97C58.535 463.915 264.454 450.398 298.69 440.33C345.057 426.694 346.193 395.567 301.385 384.386C258.727 373.741 157.337 389.248 141.439 390.13C125.541 391.013 104.267 380.969 81.5849 380.576Z" fill="url(#paint18_linear_1216_43286)" fill-opacity="0.3"/>
<path d="M81.5849 380.576C64.0678 380.272 43.3075 391.959 38.8165 393.841L-23.4774 435.533L4.48293 481.97C58.535 463.915 264.454 450.398 298.69 440.33C345.057 426.694 346.193 395.567 301.385 384.386C258.727 373.741 157.337 389.248 141.439 390.13C125.541 391.013 104.267 380.969 81.5849 380.576Z" fill="url(#paint19_linear_1216_43286)"/>
<path d="M81.5849 380.576C64.0678 380.272 43.3075 391.959 38.8165 393.841L-23.4774 435.533L4.48293 481.97C58.535 463.915 264.454 450.398 298.69 440.33C345.057 426.694 346.193 395.567 301.385 384.386C258.727 373.741 157.337 389.248 141.439 390.13C125.541 391.013 104.267 380.969 81.5849 380.576Z" fill="url(#paint20_linear_1216_43286)" fill-opacity="0.5"/>
<path d="M81.5849 380.576C64.0678 380.272 43.3075 391.959 38.8165 393.841L-23.4774 435.533L4.48293 481.97C58.535 463.915 264.454 450.398 298.69 440.33C345.057 426.694 346.193 395.567 301.385 384.386C258.727 373.741 157.337 389.248 141.439 390.13C125.541 391.013 104.267 380.969 81.5849 380.576Z" fill="url(#paint21_radial_1216_43286)" fill-opacity="0.5"/>
</g>
<g filter="url(#filter4_f_1216_43286)">
<path d="M84.2889 446.038C57.4115 445.572 25.5578 463.503 18.6671 466.392L-76.9138 530.362L-34.0128 601.613C48.9222 573.911 364.874 553.17 417.405 537.722C488.549 516.799 490.291 469.04 421.54 451.884C356.088 435.552 200.52 459.344 176.127 460.698C151.734 462.053 119.092 446.641 84.2889 446.038Z" fill="#2E88FC"/>
<path d="M84.2889 446.038C57.4115 445.572 25.5578 463.503 18.6671 466.392L-76.9138 530.362L-34.0128 601.613C48.9222 573.911 364.874 553.17 417.405 537.722C488.549 516.799 490.291 469.04 421.54 451.884C356.088 435.552 200.52 459.344 176.127 460.698C151.734 462.053 119.092 446.641 84.2889 446.038Z" fill="white" fill-opacity="0.2"/>
<path d="M84.2889 446.038C57.4115 445.572 25.5578 463.503 18.6671 466.392L-76.9138 530.362L-34.0128 601.613C48.9222 573.911 364.874 553.17 417.405 537.722C488.549 516.799 490.291 469.04 421.54 451.884C356.088 435.552 200.52 459.344 176.127 460.698C151.734 462.053 119.092 446.641 84.2889 446.038Z" fill="url(#paint22_linear_1216_43286)"/>
<path d="M84.2889 446.038C57.4115 445.572 25.5578 463.503 18.6671 466.392L-76.9138 530.362L-34.0128 601.613C48.9222 573.911 364.874 553.17 417.405 537.722C488.549 516.799 490.291 469.04 421.54 451.884C356.088 435.552 200.52 459.344 176.127 460.698C151.734 462.053 119.092 446.641 84.2889 446.038Z" fill="url(#paint23_linear_1216_43286)" fill-opacity="0.8"/>
<path d="M84.2889 446.038C57.4115 445.572 25.5578 463.503 18.6671 466.392L-76.9138 530.362L-34.0128 601.613C48.9222 573.911 364.874 553.17 417.405 537.722C488.549 516.799 490.291 469.04 421.54 451.884C356.088 435.552 200.52 459.344 176.127 460.698C151.734 462.053 119.092 446.641 84.2889 446.038Z" fill="url(#paint24_linear_1216_43286)"/>
<path d="M84.2889 446.038C57.4115 445.572 25.5578 463.503 18.6671 466.392L-76.9138 530.362L-34.0128 601.613C48.9222 573.911 364.874 553.17 417.405 537.722C488.549 516.799 490.291 469.04 421.54 451.884C356.088 435.552 200.52 459.344 176.127 460.698C151.734 462.053 119.092 446.641 84.2889 446.038Z" fill="url(#paint25_linear_1216_43286)" fill-opacity="0.3"/>
<path d="M84.2889 446.038C57.4115 445.572 25.5578 463.503 18.6671 466.392L-76.9138 530.362L-34.0128 601.613C48.9222 573.911 364.874 553.17 417.405 537.722C488.549 516.799 490.291 469.04 421.54 451.884C356.088 435.552 200.52 459.344 176.127 460.698C151.734 462.053 119.092 446.641 84.2889 446.038Z" fill="url(#paint26_linear_1216_43286)"/>
<path d="M84.2889 446.038C57.4115 445.572 25.5578 463.503 18.6671 466.392L-76.9138 530.362L-34.0128 601.613C48.9222 573.911 364.874 553.17 417.405 537.722C488.549 516.799 490.291 469.04 421.54 451.884C356.088 435.552 200.52 459.344 176.127 460.698C151.734 462.053 119.092 446.641 84.2889 446.038Z" fill="url(#paint27_linear_1216_43286)" fill-opacity="0.5"/>
<path d="M84.2889 446.038C57.4115 445.572 25.5578 463.503 18.6671 466.392L-76.9138 530.362L-34.0128 601.613C48.9222 573.911 364.874 553.17 417.405 537.722C488.549 516.799 490.291 469.04 421.54 451.884C356.088 435.552 200.52 459.344 176.127 460.698C151.734 462.053 119.092 446.641 84.2889 446.038Z" fill="url(#paint28_radial_1216_43286)" fill-opacity="0.5"/>
</g>
<g filter="url(#filter5_f_1216_43286)">
<path d="M364.746 1391.04C344.671 1384.68 288.146 1391.51 277.672 1392.22L90.0602 1420.63L-2.7597 1485.61C110.791 1482.58 393.211 1536.98 461.418 1536.69C553.793 1536.3 639.726 1499.55 616.646 1470.87C594.673 1443.56 431.566 1427.33 410.198 1422.94C388.831 1418.55 390.741 1399.28 364.746 1391.04Z" fill="#2E88FC"/>
<path d="M364.746 1391.04C344.671 1384.68 288.146 1391.51 277.672 1392.22L90.0602 1420.63L-2.7597 1485.61C110.791 1482.58 393.211 1536.98 461.418 1536.69C553.793 1536.3 639.726 1499.55 616.646 1470.87C594.673 1443.56 431.566 1427.33 410.198 1422.94C388.831 1418.55 390.741 1399.28 364.746 1391.04Z" fill="white" fill-opacity="0.2"/>
<path d="M364.746 1391.04C344.671 1384.68 288.146 1391.51 277.672 1392.22L90.0602 1420.63L-2.7597 1485.61C110.791 1482.58 393.211 1536.98 461.418 1536.69C553.793 1536.3 639.726 1499.55 616.646 1470.87C594.673 1443.56 431.566 1427.33 410.198 1422.94C388.831 1418.55 390.741 1399.28 364.746 1391.04Z" fill="url(#paint29_linear_1216_43286)"/>
<path d="M364.746 1391.04C344.671 1384.68 288.146 1391.51 277.672 1392.22L90.0602 1420.63L-2.7597 1485.61C110.791 1482.58 393.211 1536.98 461.418 1536.69C553.793 1536.3 639.726 1499.55 616.646 1470.87C594.673 1443.56 431.566 1427.33 410.198 1422.94C388.831 1418.55 390.741 1399.28 364.746 1391.04Z" fill="url(#paint30_linear_1216_43286)" fill-opacity="0.8"/>
<path d="M364.746 1391.04C344.671 1384.68 288.146 1391.51 277.672 1392.22L90.0602 1420.63L-2.7597 1485.61C110.791 1482.58 393.211 1536.98 461.418 1536.69C553.793 1536.3 639.726 1499.55 616.646 1470.87C594.673 1443.56 431.566 1427.33 410.198 1422.94C388.831 1418.55 390.741 1399.28 364.746 1391.04Z" fill="url(#paint31_linear_1216_43286)"/>
<path d="M364.746 1391.04C344.671 1384.68 288.146 1391.51 277.672 1392.22L90.0602 1420.63L-2.7597 1485.61C110.791 1482.58 393.211 1536.98 461.418 1536.69C553.793 1536.3 639.726 1499.55 616.646 1470.87C594.673 1443.56 431.566 1427.33 410.198 1422.94C388.831 1418.55 390.741 1399.28 364.746 1391.04Z" fill="url(#paint32_linear_1216_43286)" fill-opacity="0.3"/>
<path d="M364.746 1391.04C344.671 1384.68 288.146 1391.51 277.672 1392.22L90.0602 1420.63L-2.7597 1485.61C110.791 1482.58 393.211 1536.98 461.418 1536.69C553.793 1536.3 639.726 1499.55 616.646 1470.87C594.673 1443.56 431.566 1427.33 410.198 1422.94C388.831 1418.55 390.741 1399.28 364.746 1391.04Z" fill="url(#paint33_linear_1216_43286)"/>
<path d="M364.746 1391.04C344.671 1384.68 288.146 1391.51 277.672 1392.22L90.0602 1420.63L-2.7597 1485.61C110.791 1482.58 393.211 1536.98 461.418 1536.69C553.793 1536.3 639.726 1499.55 616.646 1470.87C594.673 1443.56 431.566 1427.33 410.198 1422.94C388.831 1418.55 390.741 1399.28 364.746 1391.04Z" fill="url(#paint34_linear_1216_43286)" fill-opacity="0.5"/>
<path d="M364.746 1391.04C344.671 1384.68 288.146 1391.51 277.672 1392.22L90.0602 1420.63L-2.7597 1485.61C110.791 1482.58 393.211 1536.98 461.418 1536.69C553.793 1536.3 639.726 1499.55 616.646 1470.87C594.673 1443.56 431.566 1427.33 410.198 1422.94C388.831 1418.55 390.741 1399.28 364.746 1391.04Z" fill="url(#paint35_radial_1216_43286)" fill-opacity="0.5"/>
</g>
</g>
<defs>
<filter id="filter0_f_1216_43286" x="-248.197" y="1870.04" width="917.49" height="380.101" filterUnits="userSpaceOnUse" color-interpolation-filters="sRGB">
<feFlood flood-opacity="0" result="BackgroundImageFix"/>
<feBlend mode="normal" in="SourceGraphic" in2="BackgroundImageFix" result="shape"/>
<feGaussianBlur stdDeviation="50" result="effect1_foregroundBlur_1216_43286"/>
</filter>
<filter id="filter1_f_1216_43286" x="-396.318" y="847.546" width="1072.05" height="604.243" filterUnits="userSpaceOnUse" color-interpolation-filters="sRGB">
<feFlood flood-opacity="0" result="BackgroundImageFix"/>
<feBlend mode="normal" in="SourceGraphic" in2="BackgroundImageFix" result="shape"/>
<feGaussianBlur stdDeviation="106.5" result="effect1_foregroundBlur_1216_43286"/>
</filter>
<filter id="filter2_f_1216_43286" x="-120.904" y="151.295" width="632.229" height="465.406" filterUnits="userSpaceOnUse" color-interpolation-filters="sRGB">
<feFlood flood-opacity="0" result="BackgroundImageFix"/>
<feBlend mode="normal" in="SourceGraphic" in2="BackgroundImageFix" result="shape"/>
<feGaussianBlur stdDeviation="100" result="effect1_foregroundBlur_1216_43286"/>
</filter>
<filter id="filter3_f_1216_43286" x="-223.477" y="180.57" width="757.721" height="501.401" filterUnits="userSpaceOnUse" color-interpolation-filters="sRGB">
<feFlood flood-opacity="0" result="BackgroundImageFix"/>
<feBlend mode="normal" in="SourceGraphic" in2="BackgroundImageFix" result="shape"/>
<feGaussianBlur stdDeviation="100" result="effect1_foregroundBlur_1216_43286"/>
</filter>
<filter id="filter4_f_1216_43286" x="-276.914" y="246.029" width="948.871" height="555.584" filterUnits="userSpaceOnUse" color-interpolation-filters="sRGB">
<feFlood flood-opacity="0" result="BackgroundImageFix"/>
<feBlend mode="normal" in="SourceGraphic" in2="BackgroundImageFix" result="shape"/>
<feGaussianBlur stdDeviation="100" result="effect1_foregroundBlur_1216_43286"/>
</filter>
<filter id="filter5_f_1216_43286" x="-202.76" y="1188.35" width="1023.2" height="548.343" filterUnits="userSpaceOnUse" color-interpolation-filters="sRGB">
<feFlood flood-opacity="0" result="BackgroundImageFix"/>
<feBlend mode="normal" in="SourceGraphic" in2="BackgroundImageFix" result="shape"/>
<feGaussianBlur stdDeviation="100" result="effect1_foregroundBlur_1216_43286"/>
</filter>
<linearGradient id="paint0_linear_1216_43286" x1="-136.958" y1="2057.79" x2="38.5804" y2="2074.76" gradientUnits="userSpaceOnUse">
<stop stop-color="#FFEADE"/>
<stop offset="1" stop-color="#D65007" stop-opacity="0"/>
</linearGradient>
<linearGradient id="paint1_linear_1216_43286" x1="-19.3706" y1="2018.68" x2="-2.55031" y2="2105.22" gradientUnits="userSpaceOnUse">
<stop stop-color="#F9914E"/>
<stop offset="1" stop-color="#F67C2D" stop-opacity="0"/>
</linearGradient>
<linearGradient id="paint2_linear_1216_43286" x1="-22.8402" y1="2033.5" x2="201.985" y2="2232.86" gradientUnits="userSpaceOnUse">
<stop stop-color="#CDE3F5"/>
<stop offset="1" stop-color="#CDE3F5" stop-opacity="0"/>
</linearGradient>
<linearGradient id="paint3_linear_1216_43286" x1="260.729" y1="1962.72" x2="250.274" y2="2038.09" gradientUnits="userSpaceOnUse">
<stop stop-color="#ED5F5C"/>
<stop offset="1" stop-color="#ED5F5C" stop-opacity="0"/>
</linearGradient>
<radialGradient id="paint4_radial_1216_43286" cx="0" cy="0" r="1" gradientUnits="userSpaceOnUse" gradientTransform="translate(271.753 2021.57) rotate(139.107) scale(49.2692 109.267)">
<stop stop-color="white"/>
<stop offset="1" stop-color="white" stop-opacity="0"/>
</radialGradient>
<linearGradient id="paint5_linear_1216_43286" x1="467.916" y1="1133.59" x2="336.529" y2="1205.51" gradientUnits="userSpaceOnUse">
<stop stop-color="#FFEADE"/>
<stop offset="1" stop-color="#D65007" stop-opacity="0"/>
</linearGradient>
<linearGradient id="paint6_linear_1216_43286" x1="382.84" y1="1178.54" x2="354.17" y2="1087.78" gradientUnits="userSpaceOnUse">
<stop stop-color="#F9914E"/>
<stop offset="1" stop-color="#F67C2D" stop-opacity="0"/>
</linearGradient>
<linearGradient id="paint7_linear_1216_43286" x1="28.7265" y1="1173.72" x2="42.2556" y2="1107.89" gradientUnits="userSpaceOnUse">
<stop stop-color="#CBE5FA"/>
<stop offset="1" stop-color="#CDE3F5" stop-opacity="0"/>
</linearGradient>
<linearGradient id="paint8_linear_1216_43286" x1="389.846" y1="1190.97" x2="367.262" y2="1115.06" gradientUnits="userSpaceOnUse">
<stop stop-color="#CDE3F5"/>
<stop offset="1" stop-color="#CDE3F5" stop-opacity="0"/>
</linearGradient>
<linearGradient id="paint9_linear_1216_43286" x1="287.692" y1="1238.54" x2="285.465" y2="1174.17" gradientUnits="userSpaceOnUse">
<stop stop-color="#ED5F5C"/>
<stop offset="1" stop-color="#ED5F5C" stop-opacity="0"/>
</linearGradient>
<linearGradient id="paint10_linear_1216_43286" x1="114.703" y1="1233.28" x2="116.925" y2="1157.46" gradientUnits="userSpaceOnUse">
<stop stop-color="white"/>
<stop offset="1" stop-color="#F67C2D" stop-opacity="0"/>
</linearGradient>
<radialGradient id="paint11_radial_1216_43286" cx="0" cy="0" r="1" gradientUnits="userSpaceOnUse" gradientTransform="translate(112.558 1197.81) rotate(-65.1698) scale(35.8777 134.45)">
<stop stop-color="white"/>
<stop offset="1" stop-color="white" stop-opacity="0"/>
</radialGradient>
<linearGradient id="paint12_linear_1216_43286" x1="273.378" y1="353.319" x2="251.698" y2="401.765" gradientUnits="userSpaceOnUse">
<stop stop-color="#FFEADE"/>
<stop offset="1" stop-color="#D65007" stop-opacity="0"/>
</linearGradient>
<linearGradient id="paint13_linear_1216_43286" x1="103.778" y1="385.9" x2="131.357" y2="427.157" gradientUnits="userSpaceOnUse">
<stop stop-color="#F9914E"/>
<stop offset="1" stop-color="#F67C2D" stop-opacity="0"/>
</linearGradient>
<linearGradient id="paint14_linear_1216_43286" x1="75.9181" y1="398.075" x2="133.984" y2="420.661" gradientUnits="userSpaceOnUse">
<stop stop-color="#CBE5FA"/>
<stop offset="1" stop-color="#CDE3F5" stop-opacity="0"/>
</linearGradient>
<linearGradient id="paint15_linear_1216_43286" x1="264.526" y1="375.851" x2="252.497" y2="417.751" gradientUnits="userSpaceOnUse">
<stop stop-color="#FFEADE"/>
<stop offset="1" stop-color="#D65007" stop-opacity="0"/>
</linearGradient>
<linearGradient id="paint16_linear_1216_43286" x1="109.3" y1="414.301" x2="141.923" y2="461.698" gradientUnits="userSpaceOnUse">
<stop stop-color="#F9914E"/>
<stop offset="1" stop-color="#F67C2D" stop-opacity="0"/>
</linearGradient>
<linearGradient id="paint17_linear_1216_43286" x1="65.0807" y1="421.63" x2="122.054" y2="468.701" gradientUnits="userSpaceOnUse">
<stop stop-color="#CBE5FA"/>
<stop offset="1" stop-color="#CDE3F5" stop-opacity="0"/>
</linearGradient>
<linearGradient id="paint18_linear_1216_43286" x1="168.834" y1="387.915" x2="170.077" y2="407.112" gradientUnits="userSpaceOnUse">
<stop stop-color="#CDE3F5"/>
<stop offset="1" stop-color="#CDE3F5" stop-opacity="0"/>
</linearGradient>
<linearGradient id="paint19_linear_1216_43286" x1="76.1338" y1="388.355" x2="102.973" y2="429.982" gradientUnits="userSpaceOnUse">
<stop stop-color="#ED5F5C"/>
<stop offset="1" stop-color="#ED5F5C" stop-opacity="0"/>
</linearGradient>
<linearGradient id="paint20_linear_1216_43286" x1="19.4026" y1="413.79" x2="75.1709" y2="481.255" gradientUnits="userSpaceOnUse">
<stop stop-color="white"/>
<stop offset="1" stop-color="#F67C2D" stop-opacity="0"/>
</linearGradient>
<radialGradient id="paint21_radial_1216_43286" cx="0" cy="0" r="1" gradientUnits="userSpaceOnUse" gradientTransform="translate(71.0914 424.043) rotate(6.82652) scale(52.5653 32.2289)">
<stop stop-color="white"/>
<stop offset="1" stop-color="white" stop-opacity="0"/>
</radialGradient>
<linearGradient id="paint22_linear_1216_43286" x1="364.986" y1="438.788" x2="346.529" y2="503.078" gradientUnits="userSpaceOnUse">
<stop stop-color="#FFEADE"/>
<stop offset="1" stop-color="#D65007" stop-opacity="0"/>
</linearGradient>
<linearGradient id="paint23_linear_1216_43286" x1="126.814" y1="497.784" x2="176.869" y2="570.508" gradientUnits="userSpaceOnUse">
<stop stop-color="#F9914E"/>
<stop offset="1" stop-color="#F67C2D" stop-opacity="0"/>
</linearGradient>
<linearGradient id="paint24_linear_1216_43286" x1="58.9657" y1="509.03" x2="146.383" y2="581.254" gradientUnits="userSpaceOnUse">
<stop stop-color="#CBE5FA"/>
<stop offset="1" stop-color="#CDE3F5" stop-opacity="0"/>
</linearGradient>
<linearGradient id="paint25_linear_1216_43286" x1="218.16" y1="457.298" x2="220.067" y2="486.754" gradientUnits="userSpaceOnUse">
<stop stop-color="#CDE3F5"/>
<stop offset="1" stop-color="#CDE3F5" stop-opacity="0"/>
</linearGradient>
<linearGradient id="paint26_linear_1216_43286" x1="75.925" y1="457.975" x2="117.105" y2="521.845" gradientUnits="userSpaceOnUse">
<stop stop-color="#ED5F5C"/>
<stop offset="1" stop-color="#ED5F5C" stop-opacity="0"/>
</linearGradient>
<linearGradient id="paint27_linear_1216_43286" x1="-11.1208" y1="497.001" x2="74.4476" y2="600.516" gradientUnits="userSpaceOnUse">
<stop stop-color="white"/>
<stop offset="1" stop-color="#F67C2D" stop-opacity="0"/>
</linearGradient>
<radialGradient id="paint28_radial_1216_43286" cx="0" cy="0" r="1" gradientUnits="userSpaceOnUse" gradientTransform="translate(68.1882 512.732) rotate(6.82652) scale(80.6539 49.4506)">
<stop stop-color="white"/>
<stop offset="1" stop-color="white" stop-opacity="0"/>
</radialGradient>
<linearGradient id="paint29_linear_1216_43286" x1="595.86" y1="1448.06" x2="481.554" y2="1516.98" gradientUnits="userSpaceOnUse">
<stop stop-color="#FFEADE"/>
<stop offset="1" stop-color="#D65007" stop-opacity="0"/>
</linearGradient>
<linearGradient id="paint30_linear_1216_43286" x1="306.175" y1="1440.77" x2="314.364" y2="1493.17" gradientUnits="userSpaceOnUse">
<stop stop-color="#F9914E"/>
<stop offset="1" stop-color="#F67C2D" stop-opacity="0"/>
</linearGradient>
<linearGradient id="paint31_linear_1216_43286" x1="233.501" y1="1434.37" x2="247.627" y2="1491.84" gradientUnits="userSpaceOnUse">
<stop stop-color="#CBE5FA"/>
<stop offset="1" stop-color="#CDE3F5" stop-opacity="0"/>
</linearGradient>
<linearGradient id="paint32_linear_1216_43286" x1="448.905" y1="1429.68" x2="442.714" y2="1461.63" gradientUnits="userSpaceOnUse">
<stop stop-color="#CDE3F5"/>
<stop offset="1" stop-color="#CDE3F5" stop-opacity="0"/>
</linearGradient>
<linearGradient id="paint33_linear_1216_43286" x1="337.103" y1="1398.45" x2="343.789" y2="1444.59" gradientUnits="userSpaceOnUse">
<stop stop-color="#ED5F5C"/>
<stop offset="1" stop-color="#ED5F5C" stop-opacity="0"/>
</linearGradient>
<linearGradient id="paint34_linear_1216_43286" x1="200.303" y1="1409.37" x2="214.361" y2="1484.48" gradientUnits="userSpaceOnUse">
<stop stop-color="white"/>
<stop offset="1" stop-color="#F67C2D" stop-opacity="0"/>
</linearGradient>
<radialGradient id="paint35_radial_1216_43286" cx="0" cy="0" r="1" gradientUnits="userSpaceOnUse" gradientTransform="translate(234.115 1439.31) rotate(29.2155) scale(51.8976 76.8509)">
<stop stop-color="white"/>
<stop offset="1" stop-color="white" stop-opacity="0"/>
</radialGradient>
<clipPath id="clip0_1216_43286">
<rect width="375" height="2059" fill="white"/>
</clipPath>
</defs>
</svg>
