<svg width="375" height="12177" viewBox="0 0 375 12177" fill="none" xmlns="http://www.w3.org/2000/svg">
<g clip-path="url(#clip0_1216_35766)">
<rect width="375" height="12177" fill="white"/>
<rect width="375" height="12177" fill="#CDE3F5"/>
<g filter="url(#filter0_f_1216_35766)">
<path d="M14.0632 12242.1C63.6736 12178.9 239.924 12205.8 271.755 12206.2L865.204 12343L1234.05 12832.3C895.802 12866.8 146.019 13465.3 -54.8979 13498.7C-327.004 13544 -633.895 13284.8 -608.436 13035.2C-584.199 12797.5 -448.293 12851 -457.759 12777.9C-477.945 12622 -50.1763 12324 14.0632 12242.1Z" fill="#2E88FC"/>
<path d="M14.0632 12242.1C63.6736 12178.9 239.924 12205.8 271.755 12206.2L865.204 12343L1234.05 12832.3C895.802 12866.8 146.019 13465.3 -54.8979 13498.7C-327.004 13544 -633.895 13284.8 -608.436 13035.2C-584.199 12797.5 -448.293 12851 -457.759 12777.9C-477.945 12622 -50.1763 12324 14.0632 12242.1Z" fill="url(#paint0_linear_1216_35766)"/>
<path d="M14.0632 12242.1C63.6736 12178.9 239.924 12205.8 271.755 12206.2L865.204 12343L1234.05 12832.3C895.802 12866.8 146.019 13465.3 -54.8979 13498.7C-327.004 13544 -633.895 13284.8 -608.436 13035.2C-584.199 12797.5 -448.293 12851 -457.759 12777.9C-477.945 12622 -50.1763 12324 14.0632 12242.1Z" fill="url(#paint1_linear_1216_35766)" fill-opacity="0.25"/>
<path d="M14.0632 12242.1C63.6736 12178.9 239.924 12205.8 271.755 12206.2L865.204 12343L1234.05 12832.3C895.802 12866.8 146.019 13465.3 -54.8979 13498.7C-327.004 13544 -633.895 13284.8 -608.436 13035.2C-584.199 12797.5 -448.293 12851 -457.759 12777.9C-477.945 12622 -50.1763 12324 14.0632 12242.1Z" fill="url(#paint2_linear_1216_35766)"/>
<path d="M14.0632 12242.1C63.6736 12178.9 239.924 12205.8 271.755 12206.2L865.204 12343L1234.05 12832.3C895.802 12866.8 146.019 13465.3 -54.8979 13498.7C-327.004 13544 -633.895 13284.8 -608.436 13035.2C-584.199 12797.5 -448.293 12851 -457.759 12777.9C-477.945 12622 -50.1763 12324 14.0632 12242.1Z" fill="url(#paint3_linear_1216_35766)" fill-opacity="0.75"/>
<path d="M14.0632 12242.1C63.6736 12178.9 239.924 12205.8 271.755 12206.2L865.204 12343L1234.05 12832.3C895.802 12866.8 146.019 13465.3 -54.8979 13498.7C-327.004 13544 -633.895 13284.8 -608.436 13035.2C-584.199 12797.5 -448.293 12851 -457.759 12777.9C-477.945 12622 -50.1763 12324 14.0632 12242.1Z" fill="url(#paint4_radial_1216_35766)" fill-opacity="0.5"/>
</g>
<g filter="url(#filter1_f_1216_35766)">
<path d="M550.533 6818.93C518.189 6887.77 349.888 6900.35 320.446 6906.77L-256.035 6906.59L-700.186 6533.53C-395.482 6429.89 169.077 5718.56 347.323 5645.09C588.727 5545.58 926.856 5719.51 956.374 5955.18C984.476 6179.54 847.756 6159.09 872.011 6224.52C923.735 6364.05 592.414 6729.79 550.533 6818.93Z" fill="#2E88FC"/>
<path d="M550.533 6818.93C518.189 6887.77 349.888 6900.35 320.446 6906.77L-256.035 6906.59L-700.186 6533.53C-395.482 6429.89 169.077 5718.56 347.323 5645.09C588.727 5545.58 926.856 5719.51 956.374 5955.18C984.476 6179.54 847.756 6159.09 872.011 6224.52C923.735 6364.05 592.414 6729.79 550.533 6818.93Z" fill="url(#paint5_linear_1216_35766)"/>
<path d="M550.533 6818.93C518.189 6887.77 349.888 6900.35 320.446 6906.77L-256.035 6906.59L-700.186 6533.53C-395.482 6429.89 169.077 5718.56 347.323 5645.09C588.727 5545.58 926.856 5719.51 956.374 5955.18C984.476 6179.54 847.756 6159.09 872.011 6224.52C923.735 6364.05 592.414 6729.79 550.533 6818.93Z" fill="url(#paint6_linear_1216_35766)" fill-opacity="0.5"/>
<path d="M550.533 6818.93C518.189 6887.77 349.888 6900.35 320.446 6906.77L-256.035 6906.59L-700.186 6533.53C-395.482 6429.89 169.077 5718.56 347.323 5645.09C588.727 5545.58 926.856 5719.51 956.374 5955.18C984.476 6179.54 847.756 6159.09 872.011 6224.52C923.735 6364.05 592.414 6729.79 550.533 6818.93Z" fill="url(#paint7_linear_1216_35766)"/>
<path d="M550.533 6818.93C518.189 6887.77 349.888 6900.35 320.446 6906.77L-256.035 6906.59L-700.186 6533.53C-395.482 6429.89 169.077 5718.56 347.323 5645.09C588.727 5545.58 926.856 5719.51 956.374 5955.18C984.476 6179.54 847.756 6159.09 872.011 6224.52C923.735 6364.05 592.414 6729.79 550.533 6818.93Z" fill="url(#paint8_linear_1216_35766)" fill-opacity="0.8"/>
<path d="M550.533 6818.93C518.189 6887.77 349.888 6900.35 320.446 6906.77L-256.035 6906.59L-700.186 6533.53C-395.482 6429.89 169.077 5718.56 347.323 5645.09C588.727 5545.58 926.856 5719.51 956.374 5955.18C984.476 6179.54 847.756 6159.09 872.011 6224.52C923.735 6364.05 592.414 6729.79 550.533 6818.93Z" fill="url(#paint9_linear_1216_35766)"/>
<path d="M550.533 6818.93C518.189 6887.77 349.888 6900.35 320.446 6906.77L-256.035 6906.59L-700.186 6533.53C-395.482 6429.89 169.077 5718.56 347.323 5645.09C588.727 5545.58 926.856 5719.51 956.374 5955.18C984.476 6179.54 847.756 6159.09 872.011 6224.52C923.735 6364.05 592.414 6729.79 550.533 6818.93Z" fill="url(#paint10_linear_1216_35766)" fill-opacity="0.5"/>
<path d="M550.533 6818.93C518.189 6887.77 349.888 6900.35 320.446 6906.77L-256.035 6906.59L-700.186 6533.53C-395.482 6429.89 169.077 5718.56 347.323 5645.09C588.727 5545.58 926.856 5719.51 956.374 5955.18C984.476 6179.54 847.756 6159.09 872.011 6224.52C923.735 6364.05 592.414 6729.79 550.533 6818.93Z" fill="url(#paint11_radial_1216_35766)" fill-opacity="0.5"/>
</g>
<g filter="url(#filter2_f_1216_35766)">
<path d="M290.681 665.615C343.51 665.157 276.633 583.043 313.639 575.594C350.645 568.146 310.674 499.498 426.09 485.549C489.811 477.848 543.032 481.204 547.221 526.412C601.029 613.453 557.217 767.846 481.004 831.356C402.12 897.092 104.792 838.844 -22.5963 952.878L-25.7743 955.793C-24.7271 954.809 -23.6677 953.838 -22.5963 952.878L290.681 665.615Z" fill="#ED5F5C"/>
<path d="M290.681 665.615C343.51 665.157 276.633 583.043 313.639 575.594C350.645 568.146 310.674 499.498 426.09 485.549C489.811 477.848 543.032 481.204 547.221 526.412C601.029 613.453 557.217 767.846 481.004 831.356C402.12 897.092 104.792 838.844 -22.5963 952.878L-25.7743 955.793C-24.7271 954.809 -23.6677 953.838 -22.5963 952.878L290.681 665.615Z" fill="url(#paint12_linear_1216_35766)"/>
<path d="M290.681 665.615C343.51 665.157 276.633 583.043 313.639 575.594C350.645 568.146 310.674 499.498 426.09 485.549C489.811 477.848 543.032 481.204 547.221 526.412C601.029 613.453 557.217 767.846 481.004 831.356C402.12 897.092 104.792 838.844 -22.5963 952.878L-25.7743 955.793C-24.7271 954.809 -23.6677 953.838 -22.5963 952.878L290.681 665.615Z" fill="url(#paint13_linear_1216_35766)"/>
<path d="M290.681 665.615C343.51 665.157 276.633 583.043 313.639 575.594C350.645 568.146 310.674 499.498 426.09 485.549C489.811 477.848 543.032 481.204 547.221 526.412C601.029 613.453 557.217 767.846 481.004 831.356C402.12 897.092 104.792 838.844 -22.5963 952.878L-25.7743 955.793C-24.7271 954.809 -23.6677 953.838 -22.5963 952.878L290.681 665.615Z" fill="url(#paint14_linear_1216_35766)"/>
</g>
<g filter="url(#filter3_f_1216_35766)">
<path d="M-19.3775 694.282C-64.397 692.084 -117.752 776.682 -129.294 790.309L-289.391 1092.11L-217.532 1428.26C-78.6166 1297.57 450.602 1199.72 538.591 1126.83C657.756 1028.12 660.675 802.803 545.517 721.864C435.885 644.809 175.308 757.057 134.45 763.448C93.592 769.838 38.9173 697.128 -19.3775 694.282Z" fill="#2E88FC"/>
<path d="M-19.3775 694.282C-64.397 692.084 -117.752 776.682 -129.294 790.309L-289.391 1092.11L-217.532 1428.26C-78.6166 1297.57 450.602 1199.72 538.591 1126.83C657.756 1028.12 660.675 802.803 545.517 721.864C435.885 644.809 175.308 757.057 134.45 763.448C93.592 769.838 38.9173 697.128 -19.3775 694.282Z" fill="white" fill-opacity="0.2"/>
<path d="M-19.3775 694.282C-64.397 692.084 -117.752 776.682 -129.294 790.309L-289.391 1092.11L-217.532 1428.26C-78.6166 1297.57 450.602 1199.72 538.591 1126.83C657.756 1028.12 660.675 802.803 545.517 721.864C435.885 644.809 175.308 757.057 134.45 763.448C93.592 769.838 38.9173 697.128 -19.3775 694.282Z" fill="url(#paint15_linear_1216_35766)"/>
<path d="M-19.3775 694.282C-64.397 692.084 -117.752 776.682 -129.294 790.309L-289.391 1092.11L-217.532 1428.26C-78.6166 1297.57 450.602 1199.72 538.591 1126.83C657.756 1028.12 660.675 802.803 545.517 721.864C435.885 644.809 175.308 757.057 134.45 763.448C93.592 769.838 38.9173 697.128 -19.3775 694.282Z" fill="url(#paint16_linear_1216_35766)" fill-opacity="0.8"/>
<path d="M-19.3775 694.282C-64.397 692.084 -117.752 776.682 -129.294 790.309L-289.391 1092.11L-217.532 1428.26C-78.6166 1297.57 450.602 1199.72 538.591 1126.83C657.756 1028.12 660.675 802.803 545.517 721.864C435.885 644.809 175.308 757.057 134.45 763.448C93.592 769.838 38.9173 697.128 -19.3775 694.282Z" fill="url(#paint17_linear_1216_35766)"/>
<path d="M-19.3775 694.282C-64.397 692.084 -117.752 776.682 -129.294 790.309L-289.391 1092.11L-217.532 1428.26C-78.6166 1297.57 450.602 1199.72 538.591 1126.83C657.756 1028.12 660.675 802.803 545.517 721.864C435.885 644.809 175.308 757.057 134.45 763.448C93.592 769.838 38.9173 697.128 -19.3775 694.282Z" fill="url(#paint18_linear_1216_35766)" fill-opacity="0.3"/>
<path d="M-19.3775 694.282C-64.397 692.084 -117.752 776.682 -129.294 790.309L-289.391 1092.11L-217.532 1428.26C-78.6166 1297.57 450.602 1199.72 538.591 1126.83C657.756 1028.12 660.675 802.803 545.517 721.864C435.885 644.809 175.308 757.057 134.45 763.448C93.592 769.838 38.9173 697.128 -19.3775 694.282Z" fill="url(#paint19_linear_1216_35766)"/>
<path d="M-19.3775 694.282C-64.397 692.084 -117.752 776.682 -129.294 790.309L-289.391 1092.11L-217.532 1428.26C-78.6166 1297.57 450.602 1199.72 538.591 1126.83C657.756 1028.12 660.675 802.803 545.517 721.864C435.885 644.809 175.308 757.057 134.45 763.448C93.592 769.838 38.9173 697.128 -19.3775 694.282Z" fill="url(#paint20_linear_1216_35766)" fill-opacity="0.5"/>
<path d="M-19.3775 694.282C-64.397 692.084 -117.752 776.682 -129.294 790.309L-289.391 1092.11L-217.532 1428.26C-78.6166 1297.57 450.602 1199.72 538.591 1126.83C657.756 1028.12 660.675 802.803 545.517 721.864C435.885 644.809 175.308 757.057 134.45 763.448C93.592 769.838 38.9173 697.128 -19.3775 694.282Z" fill="url(#paint21_radial_1216_35766)" fill-opacity="0.5"/>
</g>
<g filter="url(#filter4_f_1216_35766)">
<path d="M-12.4276 1168.16C-81.5034 1164.78 -163.369 1294.59 -181.078 1315.49L-426.725 1778.57L-316.467 2294.35C-103.321 2093.81 708.687 1943.67 843.693 1831.84C1026.54 1680.39 1031.01 1334.66 854.321 1210.48C686.107 1092.25 286.289 1264.47 223.599 1274.28C160.908 1284.09 77.0174 1172.52 -12.4276 1168.16Z" fill="#2E88FC"/>
<path d="M-12.4276 1168.16C-81.5034 1164.78 -163.369 1294.59 -181.078 1315.49L-426.725 1778.57L-316.467 2294.35C-103.321 2093.81 708.687 1943.67 843.693 1831.84C1026.54 1680.39 1031.01 1334.66 854.321 1210.48C686.107 1092.25 286.289 1264.47 223.599 1274.28C160.908 1284.09 77.0174 1172.52 -12.4276 1168.16Z" fill="white" fill-opacity="0.2"/>
<path d="M-12.4276 1168.16C-81.5034 1164.78 -163.369 1294.59 -181.078 1315.49L-426.725 1778.57L-316.467 2294.35C-103.321 2093.81 708.687 1943.67 843.693 1831.84C1026.54 1680.39 1031.01 1334.66 854.321 1210.48C686.107 1092.25 286.289 1264.47 223.599 1274.28C160.908 1284.09 77.0174 1172.52 -12.4276 1168.16Z" fill="url(#paint22_linear_1216_35766)"/>
<path d="M-12.4276 1168.16C-81.5034 1164.78 -163.369 1294.59 -181.078 1315.49L-426.725 1778.57L-316.467 2294.35C-103.321 2093.81 708.687 1943.67 843.693 1831.84C1026.54 1680.39 1031.01 1334.66 854.321 1210.48C686.107 1092.25 286.289 1264.47 223.599 1274.28C160.908 1284.09 77.0174 1172.52 -12.4276 1168.16Z" fill="url(#paint23_linear_1216_35766)" fill-opacity="0.8"/>
<path d="M-12.4276 1168.16C-81.5034 1164.78 -163.369 1294.59 -181.078 1315.49L-426.725 1778.57L-316.467 2294.35C-103.321 2093.81 708.687 1943.67 843.693 1831.84C1026.54 1680.39 1031.01 1334.66 854.321 1210.48C686.107 1092.25 286.289 1264.47 223.599 1274.28C160.908 1284.09 77.0174 1172.52 -12.4276 1168.16Z" fill="url(#paint24_linear_1216_35766)"/>
<path d="M-12.4276 1168.16C-81.5034 1164.78 -163.369 1294.59 -181.078 1315.49L-426.725 1778.57L-316.467 2294.35C-103.321 2093.81 708.687 1943.67 843.693 1831.84C1026.54 1680.39 1031.01 1334.66 854.321 1210.48C686.107 1092.25 286.289 1264.47 223.599 1274.28C160.908 1284.09 77.0174 1172.52 -12.4276 1168.16Z" fill="url(#paint25_linear_1216_35766)" fill-opacity="0.3"/>
<path d="M-12.4276 1168.16C-81.5034 1164.78 -163.369 1294.59 -181.078 1315.49L-426.725 1778.57L-316.467 2294.35C-103.321 2093.81 708.687 1943.67 843.693 1831.84C1026.54 1680.39 1031.01 1334.66 854.321 1210.48C686.107 1092.25 286.289 1264.47 223.599 1274.28C160.908 1284.09 77.0174 1172.52 -12.4276 1168.16Z" fill="url(#paint26_linear_1216_35766)"/>
<path d="M-12.4276 1168.16C-81.5034 1164.78 -163.369 1294.59 -181.078 1315.49L-426.725 1778.57L-316.467 2294.35C-103.321 2093.81 708.687 1943.67 843.693 1831.84C1026.54 1680.39 1031.01 1334.66 854.321 1210.48C686.107 1092.25 286.289 1264.47 223.599 1274.28C160.908 1284.09 77.0174 1172.52 -12.4276 1168.16Z" fill="url(#paint27_linear_1216_35766)" fill-opacity="0.5"/>
<path d="M-12.4276 1168.16C-81.5034 1164.78 -163.369 1294.59 -181.078 1315.49L-426.725 1778.57L-316.467 2294.35C-103.321 2093.81 708.687 1943.67 843.693 1831.84C1026.54 1680.39 1031.01 1334.66 854.321 1210.48C686.107 1092.25 286.289 1264.47 223.599 1274.28C160.908 1284.09 77.0174 1172.52 -12.4276 1168.16Z" fill="url(#paint28_radial_1216_35766)" fill-opacity="0.5"/>
</g>
<g filter="url(#filter5_f_1216_35766)">
<path d="M708.361 8008.89C656.767 7962.84 511.495 8012.3 484.578 8017.43L2.40782 8223.07L-236.143 8693.47C55.6872 8671.55 781.516 9065.34 956.812 9063.26C1194.22 9060.44 1415.07 8794.42 1355.75 8586.76C1299.28 8389.06 880.09 8271.6 825.175 8239.81C770.26 8208.02 775.169 8068.52 708.361 8008.89Z" fill="#2E88FC"/>
<path d="M708.361 8008.89C656.767 7962.84 511.495 8012.3 484.578 8017.43L2.40782 8223.07L-236.143 8693.47C55.6872 8671.55 781.516 9065.34 956.812 9063.26C1194.22 9060.44 1415.07 8794.42 1355.75 8586.76C1299.28 8389.06 880.09 8271.6 825.175 8239.81C770.26 8208.02 775.169 8068.52 708.361 8008.89Z" fill="white" fill-opacity="0.2"/>
<path d="M708.361 8008.89C656.767 7962.84 511.495 8012.3 484.578 8017.43L2.40782 8223.07L-236.143 8693.47C55.6872 8671.55 781.516 9065.34 956.812 9063.26C1194.22 9060.44 1415.07 8794.42 1355.75 8586.76C1299.28 8389.06 880.09 8271.6 825.175 8239.81C770.26 8208.02 775.169 8068.52 708.361 8008.89Z" fill="url(#paint29_linear_1216_35766)"/>
<path d="M708.361 8008.89C656.767 7962.84 511.495 8012.3 484.578 8017.43L2.40782 8223.07L-236.143 8693.47C55.6872 8671.55 781.516 9065.34 956.812 9063.26C1194.22 9060.44 1415.07 8794.42 1355.75 8586.76C1299.28 8389.06 880.09 8271.6 825.175 8239.81C770.26 8208.02 775.169 8068.52 708.361 8008.89Z" fill="url(#paint30_linear_1216_35766)" fill-opacity="0.8"/>
<path d="M708.361 8008.89C656.767 7962.84 511.495 8012.3 484.578 8017.43L2.40782 8223.07L-236.143 8693.47C55.6872 8671.55 781.516 9065.34 956.812 9063.26C1194.22 9060.44 1415.07 8794.42 1355.75 8586.76C1299.28 8389.06 880.09 8271.6 825.175 8239.81C770.26 8208.02 775.169 8068.52 708.361 8008.89Z" fill="url(#paint31_linear_1216_35766)"/>
<path d="M708.361 8008.89C656.767 7962.84 511.495 8012.3 484.578 8017.43L2.40782 8223.07L-236.143 8693.47C55.6872 8671.55 781.516 9065.34 956.812 9063.26C1194.22 9060.44 1415.07 8794.42 1355.75 8586.76C1299.28 8389.06 880.09 8271.6 825.175 8239.81C770.26 8208.02 775.169 8068.52 708.361 8008.89Z" fill="url(#paint32_linear_1216_35766)" fill-opacity="0.3"/>
<path d="M708.361 8008.89C656.767 7962.84 511.495 8012.3 484.578 8017.43L2.40782 8223.07L-236.143 8693.47C55.6872 8671.55 781.516 9065.34 956.812 9063.26C1194.22 9060.44 1415.07 8794.42 1355.75 8586.76C1299.28 8389.06 880.09 8271.6 825.175 8239.81C770.26 8208.02 775.169 8068.52 708.361 8008.89Z" fill="url(#paint33_linear_1216_35766)"/>
<path d="M708.361 8008.89C656.767 7962.84 511.495 8012.3 484.578 8017.43L2.40782 8223.07L-236.143 8693.47C55.6872 8671.55 781.516 9065.34 956.812 9063.26C1194.22 9060.44 1415.07 8794.42 1355.75 8586.76C1299.28 8389.06 880.09 8271.6 825.175 8239.81C770.26 8208.02 775.169 8068.52 708.361 8008.89Z" fill="url(#paint34_linear_1216_35766)" fill-opacity="0.5"/>
<path d="M708.361 8008.89C656.767 7962.84 511.495 8012.3 484.578 8017.43L2.40782 8223.07L-236.143 8693.47C55.6872 8671.55 781.516 9065.34 956.812 9063.26C1194.22 9060.44 1415.07 8794.42 1355.75 8586.76C1299.28 8389.06 880.09 8271.6 825.175 8239.81C770.26 8208.02 775.169 8068.52 708.361 8008.89Z" fill="url(#paint35_radial_1216_35766)" fill-opacity="0.5"/>
</g>
<g filter="url(#filter6_f_1216_35766)">
<path d="M909.044 2691.17C917.214 2595.92 742.075 2476.24 714.094 2450.72L86.9315 2087.87L-631.122 2213.96C-364.954 2518.57 -198.838 3647.84 -51.2257 3840.01C148.689 4100.26 626.011 4124.02 806.534 3886.27C978.395 3659.92 760.816 3098.89 750.458 3011.8C740.099 2924.71 898.466 2814.5 909.044 2691.17Z" fill="#2E88FC"/>
<path d="M909.044 2691.17C917.214 2595.92 742.075 2476.24 714.094 2450.72L86.9315 2087.87L-631.122 2213.96C-364.954 2518.57 -198.838 3647.84 -51.2257 3840.01C148.689 4100.26 626.011 4124.02 806.534 3886.27C978.395 3659.92 760.816 3098.89 750.458 3011.8C740.099 2924.71 898.466 2814.5 909.044 2691.17Z" fill="white" fill-opacity="0.2"/>
<path d="M909.044 2691.17C917.214 2595.92 742.075 2476.24 714.094 2450.72L86.9315 2087.87L-631.122 2213.96C-364.954 2518.57 -198.838 3647.84 -51.2257 3840.01C148.689 4100.26 626.011 4124.02 806.534 3886.27C978.395 3659.92 760.816 3098.89 750.458 3011.8C740.099 2924.71 898.466 2814.5 909.044 2691.17Z" fill="url(#paint36_linear_1216_35766)"/>
<path d="M909.044 2691.17C917.214 2595.92 742.075 2476.24 714.094 2450.72L86.9315 2087.87L-631.122 2213.96C-364.954 2518.57 -198.838 3647.84 -51.2257 3840.01C148.689 4100.26 626.011 4124.02 806.534 3886.27C978.395 3659.92 760.816 3098.89 750.458 3011.8C740.099 2924.71 898.466 2814.5 909.044 2691.17Z" fill="url(#paint37_linear_1216_35766)" fill-opacity="0.8"/>
<path d="M909.044 2691.17C917.214 2595.92 742.075 2476.24 714.094 2450.72L86.9315 2087.87L-631.122 2213.96C-364.954 2518.57 -198.838 3647.84 -51.2257 3840.01C148.689 4100.26 626.011 4124.02 806.534 3886.27C978.395 3659.92 760.816 3098.89 750.458 3011.8C740.099 2924.71 898.466 2814.5 909.044 2691.17Z" fill="url(#paint38_linear_1216_35766)"/>
<path d="M909.044 2691.17C917.214 2595.92 742.075 2476.24 714.094 2450.72L86.9315 2087.87L-631.122 2213.96C-364.954 2518.57 -198.838 3647.84 -51.2257 3840.01C148.689 4100.26 626.011 4124.02 806.534 3886.27C978.395 3659.92 760.816 3098.89 750.458 3011.8C740.099 2924.71 898.466 2814.5 909.044 2691.17Z" fill="url(#paint39_linear_1216_35766)" fill-opacity="0.3"/>
<path d="M909.044 2691.17C917.214 2595.92 742.075 2476.24 714.094 2450.72L86.9315 2087.87L-631.122 2213.96C-364.954 2518.57 -198.838 3647.84 -51.2257 3840.01C148.689 4100.26 626.011 4124.02 806.534 3886.27C978.395 3659.92 760.816 3098.89 750.458 3011.8C740.099 2924.71 898.466 2814.5 909.044 2691.17Z" fill="url(#paint40_linear_1216_35766)"/>
<path d="M909.044 2691.17C917.214 2595.92 742.075 2476.24 714.094 2450.72L86.9315 2087.87L-631.122 2213.96C-364.954 2518.57 -198.838 3647.84 -51.2257 3840.01C148.689 4100.26 626.011 4124.02 806.534 3886.27C978.395 3659.92 760.816 3098.89 750.458 3011.8C740.099 2924.71 898.466 2814.5 909.044 2691.17Z" fill="url(#paint41_linear_1216_35766)" fill-opacity="0.5"/>
<path d="M909.044 2691.17C917.214 2595.92 742.075 2476.24 714.094 2450.72L86.9315 2087.87L-631.122 2213.96C-364.954 2518.57 -198.838 3647.84 -51.2257 3840.01C148.689 4100.26 626.011 4124.02 806.534 3886.27C978.395 3659.92 760.816 3098.89 750.458 3011.8C740.099 2924.71 898.466 2814.5 909.044 2691.17Z" fill="url(#paint42_radial_1216_35766)" fill-opacity="0.5"/>
</g>
</g>
<defs>
<filter id="filter0_f_1216_35766" x="-709.922" y="12100.2" width="2043.98" height="1503.73" filterUnits="userSpaceOnUse" color-interpolation-filters="sRGB">
<feFlood flood-opacity="0" result="BackgroundImageFix"/>
<feBlend mode="normal" in="SourceGraphic" in2="BackgroundImageFix" result="shape"/>
<feGaussianBlur stdDeviation="50" result="effect1_foregroundBlur_1216_35766"/>
</filter>
<filter id="filter1_f_1216_35766" x="-913.188" y="5403.5" width="2086.39" height="1716.27" filterUnits="userSpaceOnUse" color-interpolation-filters="sRGB">
<feFlood flood-opacity="0" result="BackgroundImageFix"/>
<feBlend mode="normal" in="SourceGraphic" in2="BackgroundImageFix" result="shape"/>
<feGaussianBlur stdDeviation="106.5" result="effect1_foregroundBlur_1216_35766"/>
</filter>
<filter id="filter2_f_1216_35766" x="-225.773" y="282.325" width="996.836" height="873.467" filterUnits="userSpaceOnUse" color-interpolation-filters="sRGB">
<feFlood flood-opacity="0" result="BackgroundImageFix"/>
<feBlend mode="normal" in="SourceGraphic" in2="BackgroundImageFix" result="shape"/>
<feGaussianBlur stdDeviation="100" result="effect1_foregroundBlur_1216_35766"/>
</filter>
<filter id="filter3_f_1216_35766" x="-489.391" y="494.24" width="1319.36" height="1134.03" filterUnits="userSpaceOnUse" color-interpolation-filters="sRGB">
<feFlood flood-opacity="0" result="BackgroundImageFix"/>
<feBlend mode="normal" in="SourceGraphic" in2="BackgroundImageFix" result="shape"/>
<feGaussianBlur stdDeviation="100" result="effect1_foregroundBlur_1216_35766"/>
</filter>
<filter id="filter4_f_1216_35766" x="-626.723" y="968.091" width="1810.61" height="1526.25" filterUnits="userSpaceOnUse" color-interpolation-filters="sRGB">
<feFlood flood-opacity="0" result="BackgroundImageFix"/>
<feBlend mode="normal" in="SourceGraphic" in2="BackgroundImageFix" result="shape"/>
<feGaussianBlur stdDeviation="100" result="effect1_foregroundBlur_1216_35766"/>
</filter>
<filter id="filter5_f_1216_35766" x="-436.145" y="7789.43" width="2001.65" height="1473.84" filterUnits="userSpaceOnUse" color-interpolation-filters="sRGB">
<feFlood flood-opacity="0" result="BackgroundImageFix"/>
<feBlend mode="normal" in="SourceGraphic" in2="BackgroundImageFix" result="shape"/>
<feGaussianBlur stdDeviation="100" result="effect1_foregroundBlur_1216_35766"/>
</filter>
<filter id="filter6_f_1216_35766" x="-831.121" y="1887.87" width="1940.44" height="2362.94" filterUnits="userSpaceOnUse" color-interpolation-filters="sRGB">
<feFlood flood-opacity="0" result="BackgroundImageFix"/>
<feBlend mode="normal" in="SourceGraphic" in2="BackgroundImageFix" result="shape"/>
<feGaussianBlur stdDeviation="100" result="effect1_foregroundBlur_1216_35766"/>
</filter>
<linearGradient id="paint0_linear_1216_35766" x1="-581.038" y1="12835.4" x2="-126.219" y2="12851" gradientUnits="userSpaceOnUse">
<stop stop-color="#FFEADE"/>
<stop offset="1" stop-color="#D65007" stop-opacity="0"/>
</linearGradient>
<linearGradient id="paint1_linear_1216_35766" x1="-278.833" y1="12552.3" x2="-4.99215" y2="13052.5" gradientUnits="userSpaceOnUse">
<stop stop-color="#F9914E"/>
<stop offset="1" stop-color="#F67C2D" stop-opacity="0"/>
</linearGradient>
<linearGradient id="paint2_linear_1216_35766" x1="-287.75" y1="12659.6" x2="651.328" y2="12955.2" gradientUnits="userSpaceOnUse">
<stop stop-color="#CDE3F5"/>
<stop offset="1" stop-color="#CDE3F5" stop-opacity="0"/>
</linearGradient>
<linearGradient id="paint3_linear_1216_35766" x1="441.032" y1="12147.2" x2="252.541" y2="12629.7" gradientUnits="userSpaceOnUse">
<stop stop-color="#ED5F5C"/>
<stop offset="1" stop-color="#ED5F5C" stop-opacity="0"/>
</linearGradient>
<radialGradient id="paint4_radial_1216_35766" cx="0" cy="0" r="1" gradientUnits="userSpaceOnUse" gradientTransform="translate(469.364 12573.2) rotate(112.291) scale(252.343 396.901)">
<stop stop-color="white"/>
<stop offset="1" stop-color="white" stop-opacity="0"/>
</radialGradient>
<linearGradient id="paint5_linear_1216_35766" x1="973.511" y1="6145.25" x2="550.643" y2="6227.43" gradientUnits="userSpaceOnUse">
<stop stop-color="#FFEADE"/>
<stop offset="1" stop-color="#D65007" stop-opacity="0"/>
</linearGradient>
<linearGradient id="paint6_linear_1216_35766" x1="754.861" y1="6470.62" x2="396.039" y2="6067.33" gradientUnits="userSpaceOnUse">
<stop stop-color="#F9914E"/>
<stop offset="1" stop-color="#F67C2D" stop-opacity="0"/>
</linearGradient>
<linearGradient id="paint7_linear_1216_35766" x1="-155.223" y1="6435.78" x2="60.1295" y2="6063.72" gradientUnits="userSpaceOnUse">
<stop stop-color="#CBE5FA"/>
<stop offset="1" stop-color="#CDE3F5" stop-opacity="0"/>
</linearGradient>
<linearGradient id="paint8_linear_1216_35766" x1="772.867" y1="6560.61" x2="478.407" y2="6209.22" gradientUnits="userSpaceOnUse">
<stop stop-color="#CDE3F5"/>
<stop offset="1" stop-color="#CDE3F5" stop-opacity="0"/>
</linearGradient>
<linearGradient id="paint9_linear_1216_35766" x1="510.328" y1="6905.01" x2="465.282" y2="6442.86" gradientUnits="userSpaceOnUse">
<stop stop-color="#ED5F5C"/>
<stop offset="1" stop-color="#ED5F5C" stop-opacity="0"/>
</linearGradient>
<linearGradient id="paint10_linear_1216_35766" x1="65.7411" y1="6866.88" x2="110.778" y2="6321.3" gradientUnits="userSpaceOnUse">
<stop stop-color="white"/>
<stop offset="1" stop-color="#F67C2D" stop-opacity="0"/>
</linearGradient>
<radialGradient id="paint11_radial_1216_35766" cx="0" cy="0" r="1" gradientUnits="userSpaceOnUse" gradientTransform="translate(60.2284 6610.16) rotate(-80.6711) scale(238.865 375.701)">
<stop stop-color="white"/>
<stop offset="1" stop-color="white" stop-opacity="0"/>
</radialGradient>
<linearGradient id="paint12_linear_1216_35766" x1="473.539" y1="496.977" x2="268.591" y2="659.567" gradientUnits="userSpaceOnUse">
<stop stop-color="#FFEADE"/>
<stop offset="1" stop-color="#D65007" stop-opacity="0"/>
</linearGradient>
<linearGradient id="paint13_linear_1216_35766" x1="37.6594" y1="732.828" x2="216.662" y2="827.899" gradientUnits="userSpaceOnUse">
<stop stop-color="#F9914E"/>
<stop offset="1" stop-color="#F67C2D" stop-opacity="0"/>
</linearGradient>
<linearGradient id="paint14_linear_1216_35766" x1="-33.9413" y1="820.956" x2="134.655" y2="844.239" gradientUnits="userSpaceOnUse">
<stop stop-color="#CBE5FA"/>
<stop offset="1" stop-color="#CDE3F5" stop-opacity="0"/>
</linearGradient>
<linearGradient id="paint15_linear_1216_35766" x1="450.788" y1="660.078" x2="290.269" y2="858.589" gradientUnits="userSpaceOnUse">
<stop stop-color="#FFEADE"/>
<stop offset="1" stop-color="#D65007" stop-opacity="0"/>
</linearGradient>
<linearGradient id="paint16_linear_1216_35766" x1="51.852" y1="938.415" x2="257.861" y2="1044.68" gradientUnits="userSpaceOnUse">
<stop stop-color="#F9914E"/>
<stop offset="1" stop-color="#F67C2D" stop-opacity="0"/>
</linearGradient>
<linearGradient id="paint17_linear_1216_35766" x1="-61.7939" y1="991.468" x2="165.06" y2="1058.01" gradientUnits="userSpaceOnUse">
<stop stop-color="#CBE5FA"/>
<stop offset="1" stop-color="#CDE3F5" stop-opacity="0"/>
</linearGradient>
<linearGradient id="paint18_linear_1216_35766" x1="204.856" y1="747.408" x2="229.481" y2="882.469" gradientUnits="userSpaceOnUse">
<stop stop-color="#CDE3F5"/>
<stop offset="1" stop-color="#CDE3F5" stop-opacity="0"/>
</linearGradient>
<linearGradient id="paint19_linear_1216_35766" x1="-33.387" y1="750.598" x2="146.864" y2="849.854" gradientUnits="userSpaceOnUse">
<stop stop-color="#ED5F5C"/>
<stop offset="1" stop-color="#ED5F5C" stop-opacity="0"/>
</linearGradient>
<linearGradient id="paint20_linear_1216_35766" x1="-179.188" y1="934.717" x2="118.904" y2="1062.75" gradientUnits="userSpaceOnUse">
<stop stop-color="white"/>
<stop offset="1" stop-color="#F67C2D" stop-opacity="0"/>
</linearGradient>
<radialGradient id="paint21_radial_1216_35766" cx="0" cy="0" r="1" gradientUnits="userSpaceOnUse" gradientTransform="translate(-46.3461 1008.94) rotate(18.6334) scale(141.557 222.65)">
<stop stop-color="white"/>
<stop offset="1" stop-color="white" stop-opacity="0"/>
</radialGradient>
<linearGradient id="paint22_linear_1216_35766" x1="708.974" y1="1115.67" x2="462.679" y2="1420.26" gradientUnits="userSpaceOnUse">
<stop stop-color="#FFEADE"/>
<stop offset="1" stop-color="#D65007" stop-opacity="0"/>
</linearGradient>
<linearGradient id="paint23_linear_1216_35766" x1="96.8638" y1="1542.74" x2="412.954" y2="1705.79" gradientUnits="userSpaceOnUse">
<stop stop-color="#F9914E"/>
<stop offset="1" stop-color="#F67C2D" stop-opacity="0"/>
</linearGradient>
<linearGradient id="paint24_linear_1216_35766" x1="-77.5092" y1="1624.14" x2="270.565" y2="1726.24" gradientUnits="userSpaceOnUse">
<stop stop-color="#CBE5FA"/>
<stop offset="1" stop-color="#CDE3F5" stop-opacity="0"/>
</linearGradient>
<linearGradient id="paint25_linear_1216_35766" x1="331.626" y1="1249.67" x2="369.41" y2="1456.9" gradientUnits="userSpaceOnUse">
<stop stop-color="#CDE3F5"/>
<stop offset="1" stop-color="#CDE3F5" stop-opacity="0"/>
</linearGradient>
<linearGradient id="paint26_linear_1216_35766" x1="-33.9231" y1="1254.56" x2="242.645" y2="1406.86" gradientUnits="userSpaceOnUse">
<stop stop-color="#ED5F5C"/>
<stop offset="1" stop-color="#ED5F5C" stop-opacity="0"/>
</linearGradient>
<linearGradient id="paint27_linear_1216_35766" x1="-257.634" y1="1537.07" x2="199.746" y2="1733.51" gradientUnits="userSpaceOnUse">
<stop stop-color="white"/>
<stop offset="1" stop-color="#F67C2D" stop-opacity="0"/>
</linearGradient>
<radialGradient id="paint28_radial_1216_35766" cx="0" cy="0" r="1" gradientUnits="userSpaceOnUse" gradientTransform="translate(-53.807 1650.95) rotate(18.6334) scale(217.199 341.624)">
<stop stop-color="white"/>
<stop offset="1" stop-color="white" stop-opacity="0"/>
</radialGradient>
<linearGradient id="paint29_linear_1216_35766" x1="1302.33" y1="8421.65" x2="919.305" y2="8503.65" gradientUnits="userSpaceOnUse">
<stop stop-color="#FFEADE"/>
<stop offset="1" stop-color="#D65007" stop-opacity="0"/>
</linearGradient>
<linearGradient id="paint30_linear_1216_35766" x1="557.832" y1="8368.89" x2="701.115" y2="8694.42" gradientUnits="userSpaceOnUse">
<stop stop-color="#F9914E"/>
<stop offset="1" stop-color="#F67C2D" stop-opacity="0"/>
</linearGradient>
<linearGradient id="paint31_linear_1216_35766" x1="371.055" y1="8322.56" x2="577.53" y2="8620.8" gradientUnits="userSpaceOnUse">
<stop stop-color="#CBE5FA"/>
<stop offset="1" stop-color="#CDE3F5" stop-opacity="0"/>
</linearGradient>
<linearGradient id="paint32_linear_1216_35766" x1="924.652" y1="8288.59" x2="823.739" y2="8473.5" gradientUnits="userSpaceOnUse">
<stop stop-color="#CDE3F5"/>
<stop offset="1" stop-color="#CDE3F5" stop-opacity="0"/>
</linearGradient>
<linearGradient id="paint33_linear_1216_35766" x1="637.317" y1="8062.57" x2="756.629" y2="8354.88" gradientUnits="userSpaceOnUse">
<stop stop-color="#ED5F5C"/>
<stop offset="1" stop-color="#ED5F5C" stop-opacity="0"/>
</linearGradient>
<linearGradient id="paint34_linear_1216_35766" x1="285.735" y1="8141.59" x2="517.89" y2="8581.92" gradientUnits="userSpaceOnUse">
<stop stop-color="white"/>
<stop offset="1" stop-color="#F67C2D" stop-opacity="0"/>
</linearGradient>
<radialGradient id="paint35_radial_1216_35766" cx="0" cy="0" r="1" gradientUnits="userSpaceOnUse" gradientTransform="translate(372.634 8358.3) rotate(57.5904) scale(217.199 341.624)">
<stop stop-color="white"/>
<stop offset="1" stop-color="white" stop-opacity="0"/>
</radialGradient>
<linearGradient id="paint36_linear_1216_35766" x1="944.872" y1="3690.31" x2="536.662" y2="3334.62" gradientUnits="userSpaceOnUse">
<stop stop-color="#FFEADE"/>
<stop offset="1" stop-color="#D65007" stop-opacity="0"/>
</linearGradient>
<linearGradient id="paint37_linear_1216_35766" x1="386.07" y1="2823.09" x2="144.785" y2="3251.43" gradientUnits="userSpaceOnUse">
<stop stop-color="#F9914E"/>
<stop offset="1" stop-color="#F67C2D" stop-opacity="0"/>
</linearGradient>
<linearGradient id="paint38_linear_1216_35766" x1="282.489" y1="2578.09" x2="123.766" y2="3053.7" gradientUnits="userSpaceOnUse">
<stop stop-color="#CBE5FA"/>
<stop offset="1" stop-color="#CDE3F5" stop-opacity="0"/>
</linearGradient>
<linearGradient id="paint39_linear_1216_35766" x1="778.962" y1="3162.27" x2="490.789" y2="3203.93" gradientUnits="userSpaceOnUse">
<stop stop-color="#CDE3F5"/>
<stop offset="1" stop-color="#CDE3F5" stop-opacity="0"/>
</linearGradient>
<linearGradient id="paint40_linear_1216_35766" x1="790.778" y1="2657.08" x2="566.357" y2="3031.37" gradientUnits="userSpaceOnUse">
<stop stop-color="#ED5F5C"/>
<stop offset="1" stop-color="#ED5F5C" stop-opacity="0"/>
</linearGradient>
<linearGradient id="paint41_linear_1216_35766" x1="411.923" y1="2333.71" x2="117.327" y2="2955.51" gradientUnits="userSpaceOnUse">
<stop stop-color="white"/>
<stop offset="1" stop-color="#F67C2D" stop-opacity="0"/>
</linearGradient>
<radialGradient id="paint42_radial_1216_35766" cx="0" cy="0" r="1" gradientUnits="userSpaceOnUse" gradientTransform="translate(244.259 2609.47) rotate(110.741) scale(300.222 472.209)">
<stop stop-color="white"/>
<stop offset="1" stop-color="white" stop-opacity="0"/>
</radialGradient>
<clipPath id="clip0_1216_35766">
<rect width="375" height="12177" fill="white"/>
</clipPath>
</defs>
</svg>
