<svg width="1920" height="4463" viewBox="0 0 1920 4463" fill="none" xmlns="http://www.w3.org/2000/svg">
<g filter="url(#filter0_f_593_8005)">
<path d="M378.54 5188.05C479.39 5316.54 837.679 5261.8 902.388 5261.05L2108.78 4982.98L2858.59 3988.25C2170.98 3918.15 646.786 2701.42 238.353 2633.52C-314.796 2541.56 -938.657 3068.44 -886.904 3575.88C-837.634 4058.97 -561.358 3950.3 -580.601 4098.92C-621.635 4415.85 247.951 5021.68 378.54 5188.05Z" fill="#2E88FC"/>
<path d="M378.54 5188.05C479.39 5316.54 837.679 5261.8 902.388 5261.05L2108.78 4982.98L2858.59 3988.25C2170.98 3918.15 646.786 2701.42 238.353 2633.52C-314.796 2541.56 -938.657 3068.44 -886.904 3575.88C-837.634 4058.97 -561.358 3950.3 -580.601 4098.92C-621.635 4415.85 247.951 5021.68 378.54 5188.05Z" fill="url(#paint0_linear_593_8005)"/>
<path d="M378.54 5188.05C479.39 5316.54 837.679 5261.8 902.388 5261.05L2108.78 4982.98L2858.59 3988.25C2170.98 3918.15 646.786 2701.42 238.353 2633.52C-314.796 2541.56 -938.657 3068.44 -886.904 3575.88C-837.634 4058.97 -561.358 3950.3 -580.601 4098.92C-621.635 4415.85 247.951 5021.68 378.54 5188.05Z" fill="url(#paint1_linear_593_8005)" fill-opacity="0.25"/>
<path d="M378.54 5188.05C479.39 5316.54 837.679 5261.8 902.388 5261.05L2108.78 4982.98L2858.59 3988.25C2170.98 3918.15 646.786 2701.42 238.353 2633.52C-314.796 2541.56 -938.657 3068.44 -886.904 3575.88C-837.634 4058.97 -561.358 3950.3 -580.601 4098.92C-621.635 4415.85 247.951 5021.68 378.54 5188.05Z" fill="url(#paint2_linear_593_8005)"/>
<path d="M378.54 5188.05C479.39 5316.54 837.679 5261.8 902.388 5261.05L2108.78 4982.98L2858.59 3988.25C2170.98 3918.15 646.786 2701.42 238.353 2633.52C-314.796 2541.56 -938.657 3068.44 -886.904 3575.88C-837.634 4058.97 -561.358 3950.3 -580.601 4098.92C-621.635 4415.85 247.951 5021.68 378.54 5188.05Z" fill="url(#paint3_linear_593_8005)" fill-opacity="0.75"/>
<path d="M378.54 5188.05C479.39 5316.54 837.679 5261.8 902.388 5261.05L2108.78 4982.98L2858.59 3988.25C2170.98 3918.15 646.786 2701.42 238.353 2633.52C-314.796 2541.56 -938.657 3068.44 -886.904 3575.88C-837.634 4058.97 -561.358 3950.3 -580.601 4098.92C-621.635 4415.85 247.951 5021.68 378.54 5188.05Z" fill="url(#paint4_linear_593_8005)" fill-opacity="0.8"/>
<path d="M378.54 5188.05C479.39 5316.54 837.679 5261.8 902.388 5261.05L2108.78 4982.98L2858.59 3988.25C2170.98 3918.15 646.786 2701.42 238.353 2633.52C-314.796 2541.56 -938.657 3068.44 -886.904 3575.88C-837.634 4058.97 -561.358 3950.3 -580.601 4098.92C-621.635 4415.85 247.951 5021.68 378.54 5188.05Z" fill="url(#paint5_radial_593_8005)" fill-opacity="0.5"/>
</g>
<rect x="-291" y="-395" width="2262" height="1773" fill="url(#paint6_linear_593_8005)"/>
<rect x="-291" y="-395" width="2262" height="1773" fill="url(#paint7_linear_593_8005)" fill-opacity="0.3"/>
<g filter="url(#filter1_f_593_8005)">
<path d="M-121.733 518.42C-284.874 510.454 -478.221 817.022 -520.046 866.402L-1100.21 1960.07L-839.805 3178.22C-336.403 2704.6 1581.37 2350.02 1900.23 2085.9C2332.06 1728.19 2342.63 911.677 1925.33 618.374C1528.04 339.142 583.768 745.903 435.707 769.062C287.645 792.221 89.5158 528.735 -121.733 518.42Z" fill="#2E88FC"/>
<path d="M-121.733 518.42C-284.874 510.454 -478.221 817.022 -520.046 866.402L-1100.21 1960.07L-839.805 3178.22C-336.403 2704.6 1581.37 2350.02 1900.23 2085.9C2332.06 1728.19 2342.63 911.677 1925.33 618.374C1528.04 339.142 583.768 745.903 435.707 769.062C287.645 792.221 89.5158 528.735 -121.733 518.42Z" fill="white" fill-opacity="0.2"/>
<path d="M-121.733 518.42C-284.874 510.454 -478.221 817.022 -520.046 866.402L-1100.21 1960.07L-839.805 3178.22C-336.403 2704.6 1581.37 2350.02 1900.23 2085.9C2332.06 1728.19 2342.63 911.677 1925.33 618.374C1528.04 339.142 583.768 745.903 435.707 769.062C287.645 792.221 89.5158 528.735 -121.733 518.42Z" fill="url(#paint8_linear_593_8005)"/>
<path d="M-121.733 518.42C-284.874 510.454 -478.221 817.022 -520.046 866.402L-1100.21 1960.07L-839.805 3178.22C-336.403 2704.6 1581.37 2350.02 1900.23 2085.9C2332.06 1728.19 2342.63 911.677 1925.33 618.374C1528.04 339.142 583.768 745.903 435.707 769.062C287.645 792.221 89.5158 528.735 -121.733 518.42Z" fill="url(#paint9_linear_593_8005)" fill-opacity="0.8"/>
<path d="M-121.733 518.42C-284.874 510.454 -478.221 817.022 -520.046 866.402L-1100.21 1960.07L-839.805 3178.22C-336.403 2704.6 1581.37 2350.02 1900.23 2085.9C2332.06 1728.19 2342.63 911.677 1925.33 618.374C1528.04 339.142 583.768 745.903 435.707 769.062C287.645 792.221 89.5158 528.735 -121.733 518.42Z" fill="url(#paint10_linear_593_8005)"/>
<path d="M-121.733 518.42C-284.874 510.454 -478.221 817.022 -520.046 866.402L-1100.21 1960.07L-839.805 3178.22C-336.403 2704.6 1581.37 2350.02 1900.23 2085.9C2332.06 1728.19 2342.63 911.677 1925.33 618.374C1528.04 339.142 583.768 745.903 435.707 769.062C287.645 792.221 89.5158 528.735 -121.733 518.42Z" fill="url(#paint11_linear_593_8005)" fill-opacity="0.3"/>
<path d="M-121.733 518.42C-284.874 510.454 -478.221 817.022 -520.046 866.402L-1100.21 1960.07L-839.805 3178.22C-336.403 2704.6 1581.37 2350.02 1900.23 2085.9C2332.06 1728.19 2342.63 911.677 1925.33 618.374C1528.04 339.142 583.768 745.903 435.707 769.062C287.645 792.221 89.5158 528.735 -121.733 518.42Z" fill="url(#paint12_linear_593_8005)"/>
<path d="M-121.733 518.42C-284.874 510.454 -478.221 817.022 -520.046 866.402L-1100.21 1960.07L-839.805 3178.22C-336.403 2704.6 1581.37 2350.02 1900.23 2085.9C2332.06 1728.19 2342.63 911.677 1925.33 618.374C1528.04 339.142 583.768 745.903 435.707 769.062C287.645 792.221 89.5158 528.735 -121.733 518.42Z" fill="url(#paint13_linear_593_8005)" fill-opacity="0.5"/>
<path d="M-121.733 518.42C-284.874 510.454 -478.221 817.022 -520.046 866.402L-1100.21 1960.07L-839.805 3178.22C-336.403 2704.6 1581.37 2350.02 1900.23 2085.9C2332.06 1728.19 2342.63 911.677 1925.33 618.374C1528.04 339.142 583.768 745.903 435.707 769.062C287.645 792.221 89.5158 528.735 -121.733 518.42Z" fill="url(#paint14_radial_593_8005)" fill-opacity="0.5"/>
</g>
<defs>
<filter id="filter0_f_593_8005" x="-1102.92" y="2409.99" width="4174.51" height="3076.28" filterUnits="userSpaceOnUse" color-interpolation-filters="sRGB">
<feFlood flood-opacity="0" result="BackgroundImageFix"/>
<feBlend mode="normal" in="SourceGraphic" in2="BackgroundImageFix" result="shape"/>
<feGaussianBlur stdDeviation="106.5" result="effect1_foregroundBlur_593_8005"/>
</filter>
<filter id="filter1_f_593_8005" x="-1300.21" y="318.268" width="3731.55" height="3059.95" filterUnits="userSpaceOnUse" color-interpolation-filters="sRGB">
<feFlood flood-opacity="0" result="BackgroundImageFix"/>
<feBlend mode="normal" in="SourceGraphic" in2="BackgroundImageFix" result="shape"/>
<feGaussianBlur stdDeviation="100" result="effect1_foregroundBlur_593_8005"/>
</filter>
<linearGradient id="paint0_linear_593_8005" x1="-831.207" y1="3981.92" x2="93.3685" y2="3950.2" gradientUnits="userSpaceOnUse">
<stop stop-color="#FFEADE"/>
<stop offset="1" stop-color="#D65007" stop-opacity="0"/>
</linearGradient>
<linearGradient id="paint1_linear_593_8005" x1="-216.873" y1="4557.53" x2="339.804" y2="3540.66" gradientUnits="userSpaceOnUse">
<stop stop-color="#F9914E"/>
<stop offset="1" stop-color="#F67C2D" stop-opacity="0"/>
</linearGradient>
<linearGradient id="paint2_linear_593_8005" x1="-380.331" y1="4253.29" x2="567.669" y2="3685.29" gradientUnits="userSpaceOnUse">
<stop stop-color="#CDE3F5"/>
<stop offset="1" stop-color="#CDE3F5" stop-opacity="0"/>
</linearGradient>
<linearGradient id="paint3_linear_593_8005" x1="999" y1="5261.5" x2="35.344" y2="4501.93" gradientUnits="userSpaceOnUse">
<stop stop-color="#ED5F5C"/>
<stop offset="1" stop-color="#ED5F5C" stop-opacity="0"/>
</linearGradient>
<linearGradient id="paint4_linear_593_8005" x1="99.4999" y1="2788" x2="617" y2="3705" gradientUnits="userSpaceOnUse">
<stop offset="0.121877" stop-color="white"/>
<stop offset="1" stop-color="white" stop-opacity="0"/>
</linearGradient>
<radialGradient id="paint5_radial_593_8005" cx="0" cy="0" r="1" gradientUnits="userSpaceOnUse" gradientTransform="translate(1304.09 4514.95) rotate(-112.291) scale(512.974 806.838)">
<stop stop-color="white"/>
<stop offset="1" stop-color="white" stop-opacity="0"/>
</radialGradient>
<linearGradient id="paint6_linear_593_8005" x1="-291" y1="-279.506" x2="2085.56" y2="-94.6187" gradientUnits="userSpaceOnUse">
<stop stop-color="#CDE3F5"/>
<stop offset="1" stop-color="#C1CFE4"/>
</linearGradient>
<linearGradient id="paint7_linear_593_8005" x1="936.709" y1="-299.835" x2="935.116" y2="88.4869" gradientUnits="userSpaceOnUse">
<stop stop-color="#5A6877"/>
<stop offset="1" stop-color="#5A6877" stop-opacity="0"/>
</linearGradient>
<linearGradient id="paint8_linear_593_8005" x1="1582.05" y1="394.472" x2="1000.36" y2="1113.83" gradientUnits="userSpaceOnUse">
<stop stop-color="#FFEADE"/>
<stop offset="1" stop-color="#D65007" stop-opacity="0"/>
</linearGradient>
<linearGradient id="paint9_linear_593_8005" x1="136.388" y1="1403.11" x2="882.92" y2="1788.19" gradientUnits="userSpaceOnUse">
<stop stop-color="#F9914E"/>
<stop offset="1" stop-color="#F67C2D" stop-opacity="0"/>
</linearGradient>
<linearGradient id="paint10_linear_593_8005" x1="-275.441" y1="1595.36" x2="546.632" y2="1836.5" gradientUnits="userSpaceOnUse">
<stop stop-color="#CBE5FA"/>
<stop offset="1" stop-color="#CDE3F5" stop-opacity="0"/>
</linearGradient>
<linearGradient id="paint11_linear_593_8005" x1="690.842" y1="710.938" x2="780.079" y2="1200.37" gradientUnits="userSpaceOnUse">
<stop stop-color="#CDE3F5"/>
<stop offset="1" stop-color="#CDE3F5" stop-opacity="0"/>
</linearGradient>
<linearGradient id="paint12_linear_593_8005" x1="-172.5" y1="722.5" x2="480.691" y2="1082.18" gradientUnits="userSpaceOnUse">
<stop stop-color="#ED5F5C"/>
<stop offset="1" stop-color="#ED5F5C" stop-opacity="0"/>
</linearGradient>
<linearGradient id="paint13_linear_593_8005" x1="-700.854" y1="1389.71" x2="379.372" y2="1853.66" gradientUnits="userSpaceOnUse">
<stop stop-color="white"/>
<stop offset="1" stop-color="#F67C2D" stop-opacity="0"/>
</linearGradient>
<radialGradient id="paint14_radial_593_8005" cx="0" cy="0" r="1" gradientUnits="userSpaceOnUse" gradientTransform="translate(-219.461 1658.67) rotate(18.6334) scale(512.974 806.838)">
<stop stop-color="white"/>
<stop offset="1" stop-color="white" stop-opacity="0"/>
</radialGradient>
</defs>
</svg>
