<svg width="375" height="4263" viewBox="0 0 375 4263" fill="none" xmlns="http://www.w3.org/2000/svg">
<g clip-path="url(#clip0_1216_30384)">
<rect width="375" height="4263" fill="#CDE3F5"/>
<g filter="url(#filter0_f_1216_30384)">
<path d="M180.681 567.615C233.51 567.157 166.633 485.043 203.639 477.594C240.645 470.146 200.674 401.498 316.09 387.549C379.811 379.848 433.032 383.204 437.221 428.412C491.029 515.453 447.217 669.846 371.004 733.356C292.12 799.092 -5.20806 740.844 -132.596 854.878L-135.774 857.793C-134.727 856.809 -133.668 855.838 -132.596 854.878L180.681 567.615Z" fill="#ED5F5C"/>
<path d="M180.681 567.615C233.51 567.157 166.633 485.043 203.639 477.594C240.645 470.146 200.674 401.498 316.09 387.549C379.811 379.848 433.032 383.204 437.221 428.412C491.029 515.453 447.217 669.846 371.004 733.356C292.12 799.092 -5.20806 740.844 -132.596 854.878L-135.774 857.793C-134.727 856.809 -133.668 855.838 -132.596 854.878L180.681 567.615Z" fill="url(#paint0_linear_1216_30384)"/>
<path d="M180.681 567.615C233.51 567.157 166.633 485.043 203.639 477.594C240.645 470.146 200.674 401.498 316.09 387.549C379.811 379.848 433.032 383.204 437.221 428.412C491.029 515.453 447.217 669.846 371.004 733.356C292.12 799.092 -5.20806 740.844 -132.596 854.878L-135.774 857.793C-134.727 856.809 -133.668 855.838 -132.596 854.878L180.681 567.615Z" fill="url(#paint1_linear_1216_30384)"/>
<path d="M180.681 567.615C233.51 567.157 166.633 485.043 203.639 477.594C240.645 470.146 200.674 401.498 316.09 387.549C379.811 379.848 433.032 383.204 437.221 428.412C491.029 515.453 447.217 669.846 371.004 733.356C292.12 799.092 -5.20806 740.844 -132.596 854.878L-135.774 857.793C-134.727 856.809 -133.668 855.838 -132.596 854.878L180.681 567.615Z" fill="url(#paint2_linear_1216_30384)"/>
</g>
<g filter="url(#filter1_f_1216_30384)">
<path d="M-129.378 596.282C-174.397 594.084 -227.752 678.682 -239.294 692.309L-399.391 994.112L-327.532 1330.26C-188.617 1199.57 340.602 1101.72 428.591 1028.83C547.756 930.123 550.675 704.803 435.517 623.864C325.885 546.809 65.3083 659.057 24.4501 665.448C-16.408 671.838 -71.0827 599.128 -129.378 596.282Z" fill="#2E88FC"/>
<path d="M-129.378 596.282C-174.397 594.084 -227.752 678.682 -239.294 692.309L-399.391 994.112L-327.532 1330.26C-188.617 1199.57 340.602 1101.72 428.591 1028.83C547.756 930.123 550.675 704.803 435.517 623.864C325.885 546.809 65.3083 659.057 24.4501 665.448C-16.408 671.838 -71.0827 599.128 -129.378 596.282Z" fill="white" fill-opacity="0.2"/>
<path d="M-129.378 596.282C-174.397 594.084 -227.752 678.682 -239.294 692.309L-399.391 994.112L-327.532 1330.26C-188.617 1199.57 340.602 1101.72 428.591 1028.83C547.756 930.123 550.675 704.803 435.517 623.864C325.885 546.809 65.3083 659.057 24.4501 665.448C-16.408 671.838 -71.0827 599.128 -129.378 596.282Z" fill="url(#paint3_linear_1216_30384)"/>
<path d="M-129.378 596.282C-174.397 594.084 -227.752 678.682 -239.294 692.309L-399.391 994.112L-327.532 1330.26C-188.617 1199.57 340.602 1101.72 428.591 1028.83C547.756 930.123 550.675 704.803 435.517 623.864C325.885 546.809 65.3083 659.057 24.4501 665.448C-16.408 671.838 -71.0827 599.128 -129.378 596.282Z" fill="url(#paint4_linear_1216_30384)" fill-opacity="0.8"/>
<path d="M-129.378 596.282C-174.397 594.084 -227.752 678.682 -239.294 692.309L-399.391 994.112L-327.532 1330.26C-188.617 1199.57 340.602 1101.72 428.591 1028.83C547.756 930.123 550.675 704.803 435.517 623.864C325.885 546.809 65.3083 659.057 24.4501 665.448C-16.408 671.838 -71.0827 599.128 -129.378 596.282Z" fill="url(#paint5_linear_1216_30384)"/>
<path d="M-129.378 596.282C-174.397 594.084 -227.752 678.682 -239.294 692.309L-399.391 994.112L-327.532 1330.26C-188.617 1199.57 340.602 1101.72 428.591 1028.83C547.756 930.123 550.675 704.803 435.517 623.864C325.885 546.809 65.3083 659.057 24.4501 665.448C-16.408 671.838 -71.0827 599.128 -129.378 596.282Z" fill="url(#paint6_linear_1216_30384)" fill-opacity="0.3"/>
<path d="M-129.378 596.282C-174.397 594.084 -227.752 678.682 -239.294 692.309L-399.391 994.112L-327.532 1330.26C-188.617 1199.57 340.602 1101.72 428.591 1028.83C547.756 930.123 550.675 704.803 435.517 623.864C325.885 546.809 65.3083 659.057 24.4501 665.448C-16.408 671.838 -71.0827 599.128 -129.378 596.282Z" fill="url(#paint7_linear_1216_30384)"/>
<path d="M-129.378 596.282C-174.397 594.084 -227.752 678.682 -239.294 692.309L-399.391 994.112L-327.532 1330.26C-188.617 1199.57 340.602 1101.72 428.591 1028.83C547.756 930.123 550.675 704.803 435.517 623.864C325.885 546.809 65.3083 659.057 24.4501 665.448C-16.408 671.838 -71.0827 599.128 -129.378 596.282Z" fill="url(#paint8_linear_1216_30384)" fill-opacity="0.5"/>
<path d="M-129.378 596.282C-174.397 594.084 -227.752 678.682 -239.294 692.309L-399.391 994.112L-327.532 1330.26C-188.617 1199.57 340.602 1101.72 428.591 1028.83C547.756 930.123 550.675 704.803 435.517 623.864C325.885 546.809 65.3083 659.057 24.4501 665.448C-16.408 671.838 -71.0827 599.128 -129.378 596.282Z" fill="url(#paint9_radial_1216_30384)" fill-opacity="0.5"/>
</g>
<g filter="url(#filter2_f_1216_30384)">
<path d="M-122.428 1070.16C-191.503 1066.78 -273.369 1196.59 -291.078 1217.49L-536.725 1680.57L-426.467 2196.35C-213.321 1995.81 598.687 1845.67 733.693 1733.84C916.535 1582.39 921.013 1236.66 744.321 1112.48C576.107 994.247 176.289 1166.47 113.599 1176.28C50.9077 1186.09 -32.9826 1074.52 -122.428 1070.16Z" fill="#2E88FC"/>
<path d="M-122.428 1070.16C-191.503 1066.78 -273.369 1196.59 -291.078 1217.49L-536.725 1680.57L-426.467 2196.35C-213.321 1995.81 598.687 1845.67 733.693 1733.84C916.535 1582.39 921.013 1236.66 744.321 1112.48C576.107 994.247 176.289 1166.47 113.599 1176.28C50.9077 1186.09 -32.9826 1074.52 -122.428 1070.16Z" fill="white" fill-opacity="0.2"/>
<path d="M-122.428 1070.16C-191.503 1066.78 -273.369 1196.59 -291.078 1217.49L-536.725 1680.57L-426.467 2196.35C-213.321 1995.81 598.687 1845.67 733.693 1733.84C916.535 1582.39 921.013 1236.66 744.321 1112.48C576.107 994.247 176.289 1166.47 113.599 1176.28C50.9077 1186.09 -32.9826 1074.52 -122.428 1070.16Z" fill="url(#paint10_linear_1216_30384)"/>
<path d="M-122.428 1070.16C-191.503 1066.78 -273.369 1196.59 -291.078 1217.49L-536.725 1680.57L-426.467 2196.35C-213.321 1995.81 598.687 1845.67 733.693 1733.84C916.535 1582.39 921.013 1236.66 744.321 1112.48C576.107 994.247 176.289 1166.47 113.599 1176.28C50.9077 1186.09 -32.9826 1074.52 -122.428 1070.16Z" fill="url(#paint11_linear_1216_30384)" fill-opacity="0.8"/>
<path d="M-122.428 1070.16C-191.503 1066.78 -273.369 1196.59 -291.078 1217.49L-536.725 1680.57L-426.467 2196.35C-213.321 1995.81 598.687 1845.67 733.693 1733.84C916.535 1582.39 921.013 1236.66 744.321 1112.48C576.107 994.247 176.289 1166.47 113.599 1176.28C50.9077 1186.09 -32.9826 1074.52 -122.428 1070.16Z" fill="url(#paint12_linear_1216_30384)"/>
<path d="M-122.428 1070.16C-191.503 1066.78 -273.369 1196.59 -291.078 1217.49L-536.725 1680.57L-426.467 2196.35C-213.321 1995.81 598.687 1845.67 733.693 1733.84C916.535 1582.39 921.013 1236.66 744.321 1112.48C576.107 994.247 176.289 1166.47 113.599 1176.28C50.9077 1186.09 -32.9826 1074.52 -122.428 1070.16Z" fill="url(#paint13_linear_1216_30384)" fill-opacity="0.3"/>
<path d="M-122.428 1070.16C-191.503 1066.78 -273.369 1196.59 -291.078 1217.49L-536.725 1680.57L-426.467 2196.35C-213.321 1995.81 598.687 1845.67 733.693 1733.84C916.535 1582.39 921.013 1236.66 744.321 1112.48C576.107 994.247 176.289 1166.47 113.599 1176.28C50.9077 1186.09 -32.9826 1074.52 -122.428 1070.16Z" fill="url(#paint14_linear_1216_30384)"/>
<path d="M-122.428 1070.16C-191.503 1066.78 -273.369 1196.59 -291.078 1217.49L-536.725 1680.57L-426.467 2196.35C-213.321 1995.81 598.687 1845.67 733.693 1733.84C916.535 1582.39 921.013 1236.66 744.321 1112.48C576.107 994.247 176.289 1166.47 113.599 1176.28C50.9077 1186.09 -32.9826 1074.52 -122.428 1070.16Z" fill="url(#paint15_linear_1216_30384)" fill-opacity="0.5"/>
<path d="M-122.428 1070.16C-191.503 1066.78 -273.369 1196.59 -291.078 1217.49L-536.725 1680.57L-426.467 2196.35C-213.321 1995.81 598.687 1845.67 733.693 1733.84C916.535 1582.39 921.013 1236.66 744.321 1112.48C576.107 994.247 176.289 1166.47 113.599 1176.28C50.9077 1186.09 -32.9826 1074.52 -122.428 1070.16Z" fill="url(#paint16_radial_1216_30384)" fill-opacity="0.5"/>
</g>
<g filter="url(#filter3_f_1216_30384)">
<path d="M799.044 2593.17C807.214 2497.92 632.075 2378.24 604.094 2352.72L-23.0685 1989.87L-741.122 2115.96C-474.954 2420.57 -308.838 3549.84 -161.226 3742.01C38.6893 4002.26 516.011 4026.02 696.534 3788.27C868.395 3561.92 650.816 3000.89 640.458 2913.8C630.099 2826.71 788.466 2716.5 799.044 2593.17Z" fill="#2E88FC"/>
<path d="M799.044 2593.17C807.214 2497.92 632.075 2378.24 604.094 2352.72L-23.0685 1989.87L-741.122 2115.96C-474.954 2420.57 -308.838 3549.84 -161.226 3742.01C38.6893 4002.26 516.011 4026.02 696.534 3788.27C868.395 3561.92 650.816 3000.89 640.458 2913.8C630.099 2826.71 788.466 2716.5 799.044 2593.17Z" fill="white" fill-opacity="0.2"/>
<path d="M799.044 2593.17C807.214 2497.92 632.075 2378.24 604.094 2352.72L-23.0685 1989.87L-741.122 2115.96C-474.954 2420.57 -308.838 3549.84 -161.226 3742.01C38.6893 4002.26 516.011 4026.02 696.534 3788.27C868.395 3561.92 650.816 3000.89 640.458 2913.8C630.099 2826.71 788.466 2716.5 799.044 2593.17Z" fill="url(#paint17_linear_1216_30384)"/>
<path d="M799.044 2593.17C807.214 2497.92 632.075 2378.24 604.094 2352.72L-23.0685 1989.87L-741.122 2115.96C-474.954 2420.57 -308.838 3549.84 -161.226 3742.01C38.6893 4002.26 516.011 4026.02 696.534 3788.27C868.395 3561.92 650.816 3000.89 640.458 2913.8C630.099 2826.71 788.466 2716.5 799.044 2593.17Z" fill="url(#paint18_linear_1216_30384)" fill-opacity="0.8"/>
<path d="M799.044 2593.17C807.214 2497.92 632.075 2378.24 604.094 2352.72L-23.0685 1989.87L-741.122 2115.96C-474.954 2420.57 -308.838 3549.84 -161.226 3742.01C38.6893 4002.26 516.011 4026.02 696.534 3788.27C868.395 3561.92 650.816 3000.89 640.458 2913.8C630.099 2826.71 788.466 2716.5 799.044 2593.17Z" fill="url(#paint19_linear_1216_30384)"/>
<path d="M799.044 2593.17C807.214 2497.92 632.075 2378.24 604.094 2352.72L-23.0685 1989.87L-741.122 2115.96C-474.954 2420.57 -308.838 3549.84 -161.226 3742.01C38.6893 4002.26 516.011 4026.02 696.534 3788.27C868.395 3561.92 650.816 3000.89 640.458 2913.8C630.099 2826.71 788.466 2716.5 799.044 2593.17Z" fill="url(#paint20_linear_1216_30384)" fill-opacity="0.3"/>
<path d="M799.044 2593.17C807.214 2497.92 632.075 2378.24 604.094 2352.72L-23.0685 1989.87L-741.122 2115.96C-474.954 2420.57 -308.838 3549.84 -161.226 3742.01C38.6893 4002.26 516.011 4026.02 696.534 3788.27C868.395 3561.92 650.816 3000.89 640.458 2913.8C630.099 2826.71 788.466 2716.5 799.044 2593.17Z" fill="url(#paint21_linear_1216_30384)"/>
<path d="M799.044 2593.17C807.214 2497.92 632.075 2378.24 604.094 2352.72L-23.0685 1989.87L-741.122 2115.96C-474.954 2420.57 -308.838 3549.84 -161.226 3742.01C38.6893 4002.26 516.011 4026.02 696.534 3788.27C868.395 3561.92 650.816 3000.89 640.458 2913.8C630.099 2826.71 788.466 2716.5 799.044 2593.17Z" fill="url(#paint22_linear_1216_30384)" fill-opacity="0.5"/>
<path d="M799.044 2593.17C807.214 2497.92 632.075 2378.24 604.094 2352.72L-23.0685 1989.87L-741.122 2115.96C-474.954 2420.57 -308.838 3549.84 -161.226 3742.01C38.6893 4002.26 516.011 4026.02 696.534 3788.27C868.395 3561.92 650.816 3000.89 640.458 2913.8C630.099 2826.71 788.466 2716.5 799.044 2593.17Z" fill="url(#paint23_radial_1216_30384)" fill-opacity="0.5"/>
</g>
</g>
<defs>
<filter id="filter0_f_1216_30384" x="-335.774" y="184.325" width="996.838" height="873.467" filterUnits="userSpaceOnUse" color-interpolation-filters="sRGB">
<feFlood flood-opacity="0" result="BackgroundImageFix"/>
<feBlend mode="normal" in="SourceGraphic" in2="BackgroundImageFix" result="shape"/>
<feGaussianBlur stdDeviation="100" result="effect1_foregroundBlur_1216_30384"/>
</filter>
<filter id="filter1_f_1216_30384" x="-599.392" y="396.24" width="1319.36" height="1134.03" filterUnits="userSpaceOnUse" color-interpolation-filters="sRGB">
<feFlood flood-opacity="0" result="BackgroundImageFix"/>
<feBlend mode="normal" in="SourceGraphic" in2="BackgroundImageFix" result="shape"/>
<feGaussianBlur stdDeviation="100" result="effect1_foregroundBlur_1216_30384"/>
</filter>
<filter id="filter2_f_1216_30384" x="-736.725" y="870.091" width="1810.62" height="1526.25" filterUnits="userSpaceOnUse" color-interpolation-filters="sRGB">
<feFlood flood-opacity="0" result="BackgroundImageFix"/>
<feBlend mode="normal" in="SourceGraphic" in2="BackgroundImageFix" result="shape"/>
<feGaussianBlur stdDeviation="100" result="effect1_foregroundBlur_1216_30384"/>
</filter>
<filter id="filter3_f_1216_30384" x="-941.122" y="1789.87" width="1940.44" height="2362.94" filterUnits="userSpaceOnUse" color-interpolation-filters="sRGB">
<feFlood flood-opacity="0" result="BackgroundImageFix"/>
<feBlend mode="normal" in="SourceGraphic" in2="BackgroundImageFix" result="shape"/>
<feGaussianBlur stdDeviation="100" result="effect1_foregroundBlur_1216_30384"/>
</filter>
<linearGradient id="paint0_linear_1216_30384" x1="363.539" y1="398.977" x2="158.591" y2="561.567" gradientUnits="userSpaceOnUse">
<stop stop-color="#FFEADE"/>
<stop offset="1" stop-color="#D65007" stop-opacity="0"/>
</linearGradient>
<linearGradient id="paint1_linear_1216_30384" x1="-72.3406" y1="634.828" x2="106.662" y2="729.899" gradientUnits="userSpaceOnUse">
<stop stop-color="#F9914E"/>
<stop offset="1" stop-color="#F67C2D" stop-opacity="0"/>
</linearGradient>
<linearGradient id="paint2_linear_1216_30384" x1="-143.941" y1="722.956" x2="24.6549" y2="746.239" gradientUnits="userSpaceOnUse">
<stop stop-color="#CBE5FA"/>
<stop offset="1" stop-color="#CDE3F5" stop-opacity="0"/>
</linearGradient>
<linearGradient id="paint3_linear_1216_30384" x1="340.788" y1="562.078" x2="180.269" y2="760.589" gradientUnits="userSpaceOnUse">
<stop stop-color="#FFEADE"/>
<stop offset="1" stop-color="#D65007" stop-opacity="0"/>
</linearGradient>
<linearGradient id="paint4_linear_1216_30384" x1="-58.148" y1="840.415" x2="147.861" y2="946.679" gradientUnits="userSpaceOnUse">
<stop stop-color="#F9914E"/>
<stop offset="1" stop-color="#F67C2D" stop-opacity="0"/>
</linearGradient>
<linearGradient id="paint5_linear_1216_30384" x1="-171.794" y1="893.468" x2="55.0603" y2="960.011" gradientUnits="userSpaceOnUse">
<stop stop-color="#CBE5FA"/>
<stop offset="1" stop-color="#CDE3F5" stop-opacity="0"/>
</linearGradient>
<linearGradient id="paint6_linear_1216_30384" x1="94.8558" y1="649.408" x2="119.481" y2="784.469" gradientUnits="userSpaceOnUse">
<stop stop-color="#CDE3F5"/>
<stop offset="1" stop-color="#CDE3F5" stop-opacity="0"/>
</linearGradient>
<linearGradient id="paint7_linear_1216_30384" x1="-143.387" y1="652.598" x2="36.8636" y2="751.854" gradientUnits="userSpaceOnUse">
<stop stop-color="#ED5F5C"/>
<stop offset="1" stop-color="#ED5F5C" stop-opacity="0"/>
</linearGradient>
<linearGradient id="paint8_linear_1216_30384" x1="-289.188" y1="836.717" x2="8.90447" y2="964.748" gradientUnits="userSpaceOnUse">
<stop stop-color="white"/>
<stop offset="1" stop-color="#F67C2D" stop-opacity="0"/>
</linearGradient>
<radialGradient id="paint9_radial_1216_30384" cx="0" cy="0" r="1" gradientUnits="userSpaceOnUse" gradientTransform="translate(-156.346 910.938) rotate(18.6334) scale(141.557 222.65)">
<stop stop-color="white"/>
<stop offset="1" stop-color="white" stop-opacity="0"/>
</radialGradient>
<linearGradient id="paint10_linear_1216_30384" x1="598.974" y1="1017.67" x2="352.679" y2="1322.26" gradientUnits="userSpaceOnUse">
<stop stop-color="#FFEADE"/>
<stop offset="1" stop-color="#D65007" stop-opacity="0"/>
</linearGradient>
<linearGradient id="paint11_linear_1216_30384" x1="-13.1362" y1="1444.74" x2="302.954" y2="1607.79" gradientUnits="userSpaceOnUse">
<stop stop-color="#F9914E"/>
<stop offset="1" stop-color="#F67C2D" stop-opacity="0"/>
</linearGradient>
<linearGradient id="paint12_linear_1216_30384" x1="-187.509" y1="1526.14" x2="160.565" y2="1628.24" gradientUnits="userSpaceOnUse">
<stop stop-color="#CBE5FA"/>
<stop offset="1" stop-color="#CDE3F5" stop-opacity="0"/>
</linearGradient>
<linearGradient id="paint13_linear_1216_30384" x1="221.626" y1="1151.67" x2="259.41" y2="1358.9" gradientUnits="userSpaceOnUse">
<stop stop-color="#CDE3F5"/>
<stop offset="1" stop-color="#CDE3F5" stop-opacity="0"/>
</linearGradient>
<linearGradient id="paint14_linear_1216_30384" x1="-143.923" y1="1156.56" x2="132.645" y2="1308.86" gradientUnits="userSpaceOnUse">
<stop stop-color="#ED5F5C"/>
<stop offset="1" stop-color="#ED5F5C" stop-opacity="0"/>
</linearGradient>
<linearGradient id="paint15_linear_1216_30384" x1="-367.634" y1="1439.07" x2="89.746" y2="1635.51" gradientUnits="userSpaceOnUse">
<stop stop-color="white"/>
<stop offset="1" stop-color="#F67C2D" stop-opacity="0"/>
</linearGradient>
<radialGradient id="paint16_radial_1216_30384" cx="0" cy="0" r="1" gradientUnits="userSpaceOnUse" gradientTransform="translate(-163.807 1552.95) rotate(18.6334) scale(217.199 341.624)">
<stop stop-color="white"/>
<stop offset="1" stop-color="white" stop-opacity="0"/>
</radialGradient>
<linearGradient id="paint17_linear_1216_30384" x1="834.872" y1="3592.31" x2="426.662" y2="3236.62" gradientUnits="userSpaceOnUse">
<stop stop-color="#FFEADE"/>
<stop offset="1" stop-color="#D65007" stop-opacity="0"/>
</linearGradient>
<linearGradient id="paint18_linear_1216_30384" x1="276.07" y1="2725.09" x2="34.785" y2="3153.43" gradientUnits="userSpaceOnUse">
<stop stop-color="#F9914E"/>
<stop offset="1" stop-color="#F67C2D" stop-opacity="0"/>
</linearGradient>
<linearGradient id="paint19_linear_1216_30384" x1="172.489" y1="2480.09" x2="13.7663" y2="2955.7" gradientUnits="userSpaceOnUse">
<stop stop-color="#CBE5FA"/>
<stop offset="1" stop-color="#CDE3F5" stop-opacity="0"/>
</linearGradient>
<linearGradient id="paint20_linear_1216_30384" x1="668.962" y1="3064.27" x2="380.789" y2="3105.93" gradientUnits="userSpaceOnUse">
<stop stop-color="#CDE3F5"/>
<stop offset="1" stop-color="#CDE3F5" stop-opacity="0"/>
</linearGradient>
<linearGradient id="paint21_linear_1216_30384" x1="680.778" y1="2559.08" x2="456.357" y2="2933.37" gradientUnits="userSpaceOnUse">
<stop stop-color="#ED5F5C"/>
<stop offset="1" stop-color="#ED5F5C" stop-opacity="0"/>
</linearGradient>
<linearGradient id="paint22_linear_1216_30384" x1="301.923" y1="2235.71" x2="7.32694" y2="2857.51" gradientUnits="userSpaceOnUse">
<stop stop-color="white"/>
<stop offset="1" stop-color="#F67C2D" stop-opacity="0"/>
</linearGradient>
<radialGradient id="paint23_radial_1216_30384" cx="0" cy="0" r="1" gradientUnits="userSpaceOnUse" gradientTransform="translate(134.259 2511.47) rotate(110.741) scale(300.222 472.209)">
<stop stop-color="white"/>
<stop offset="1" stop-color="white" stop-opacity="0"/>
</radialGradient>
<clipPath id="clip0_1216_30384">
<rect width="375" height="4263" fill="white"/>
</clipPath>
</defs>
</svg>
