<svg width="1920" height="7102" viewBox="0 0 1920 7102" fill="none" xmlns="http://www.w3.org/2000/svg">
<g filter="url(#filter0_f_1211_25555)">
<path d="M288.536 8414.06C389.386 8542.54 747.675 8487.8 812.384 8487.06L2018.77 8208.98L2768.59 7214.26C2080.97 7144.15 556.782 5927.42 148.349 5859.52C-404.8 5767.56 -1028.66 6294.45 -976.908 6801.88C-927.638 7284.98 -651.362 7176.3 -670.605 7324.92C-711.639 7641.85 157.947 8247.69 288.536 8414.06Z" fill="#2E88FC"/>
<path d="M288.536 8414.06C389.386 8542.54 747.675 8487.8 812.384 8487.06L2018.77 8208.98L2768.59 7214.26C2080.97 7144.15 556.782 5927.42 148.349 5859.52C-404.8 5767.56 -1028.66 6294.45 -976.908 6801.88C-927.638 7284.98 -651.362 7176.3 -670.605 7324.92C-711.639 7641.85 157.947 8247.69 288.536 8414.06Z" fill="url(#paint0_linear_1211_25555)"/>
<path d="M288.536 8414.06C389.386 8542.54 747.675 8487.8 812.384 8487.06L2018.77 8208.98L2768.59 7214.26C2080.97 7144.15 556.782 5927.42 148.349 5859.52C-404.8 5767.56 -1028.66 6294.45 -976.908 6801.88C-927.638 7284.98 -651.362 7176.3 -670.605 7324.92C-711.639 7641.85 157.947 8247.69 288.536 8414.06Z" fill="url(#paint1_linear_1211_25555)" fill-opacity="0.25"/>
<path d="M288.536 8414.06C389.386 8542.54 747.675 8487.8 812.384 8487.06L2018.77 8208.98L2768.59 7214.26C2080.97 7144.15 556.782 5927.42 148.349 5859.52C-404.8 5767.56 -1028.66 6294.45 -976.908 6801.88C-927.638 7284.98 -651.362 7176.3 -670.605 7324.92C-711.639 7641.85 157.947 8247.69 288.536 8414.06Z" fill="url(#paint2_linear_1211_25555)"/>
<path d="M288.536 8414.06C389.386 8542.54 747.675 8487.8 812.384 8487.06L2018.77 8208.98L2768.59 7214.26C2080.97 7144.15 556.782 5927.42 148.349 5859.52C-404.8 5767.56 -1028.66 6294.45 -976.908 6801.88C-927.638 7284.98 -651.362 7176.3 -670.605 7324.92C-711.639 7641.85 157.947 8247.69 288.536 8414.06Z" fill="url(#paint3_linear_1211_25555)" fill-opacity="0.75"/>
<path d="M288.536 8414.06C389.386 8542.54 747.675 8487.8 812.384 8487.06L2018.77 8208.98L2768.59 7214.26C2080.97 7144.15 556.782 5927.42 148.349 5859.52C-404.8 5767.56 -1028.66 6294.45 -976.908 6801.88C-927.638 7284.98 -651.362 7176.3 -670.605 7324.92C-711.639 7641.85 157.947 8247.69 288.536 8414.06Z" fill="url(#paint4_linear_1211_25555)" fill-opacity="0.8"/>
<path d="M288.536 8414.06C389.386 8542.54 747.675 8487.8 812.384 8487.06L2018.77 8208.98L2768.59 7214.26C2080.97 7144.15 556.782 5927.42 148.349 5859.52C-404.8 5767.56 -1028.66 6294.45 -976.908 6801.88C-927.638 7284.98 -651.362 7176.3 -670.605 7324.92C-711.639 7641.85 157.947 8247.69 288.536 8414.06Z" fill="url(#paint5_radial_1211_25555)" fill-opacity="0.5"/>
</g>
<g filter="url(#filter1_f_1211_25555)">
<path d="M1317.02 5663.02C1215.96 5791.33 857.761 5735.99 793.054 5735.14L-412.865 5455.02L-1161 4459.04C-473.271 4390.1 1052.97 3175.93 1461.51 3108.72C2014.82 3017.7 2637.79 3545.63 2585.18 4052.98C2535.1 4535.99 2259.01 4426.85 2278 4575.5C2318.5 4892.5 1447.89 5496.87 1317.02 5663.02Z" fill="#2E88FC"/>
<path d="M1317.02 5663.02C1215.96 5791.33 857.761 5735.99 793.054 5735.14L-412.865 5455.02L-1161 4459.04C-473.271 4390.1 1052.97 3175.93 1461.51 3108.72C2014.82 3017.7 2637.79 3545.63 2585.18 4052.98C2535.1 4535.99 2259.01 4426.85 2278 4575.5C2318.5 4892.5 1447.89 5496.87 1317.02 5663.02Z" fill="url(#paint6_linear_1211_25555)"/>
<path d="M1317.02 5663.02C1215.96 5791.33 857.761 5735.99 793.054 5735.14L-412.865 5455.02L-1161 4459.04C-473.271 4390.1 1052.97 3175.93 1461.51 3108.72C2014.82 3017.7 2637.79 3545.63 2585.18 4052.98C2535.1 4535.99 2259.01 4426.85 2278 4575.5C2318.5 4892.5 1447.89 5496.87 1317.02 5663.02Z" fill="url(#paint7_linear_1211_25555)" fill-opacity="0.5"/>
<path d="M1317.02 5663.02C1215.96 5791.33 857.761 5735.99 793.054 5735.14L-412.865 5455.02L-1161 4459.04C-473.271 4390.1 1052.97 3175.93 1461.51 3108.72C2014.82 3017.7 2637.79 3545.63 2585.18 4052.98C2535.1 4535.99 2259.01 4426.85 2278 4575.5C2318.5 4892.5 1447.89 5496.87 1317.02 5663.02Z" fill="url(#paint8_linear_1211_25555)"/>
<path d="M1317.02 5663.02C1215.96 5791.33 857.761 5735.99 793.054 5735.14L-412.865 5455.02L-1161 4459.04C-473.271 4390.1 1052.97 3175.93 1461.51 3108.72C2014.82 3017.7 2637.79 3545.63 2585.18 4052.98C2535.1 4535.99 2259.01 4426.85 2278 4575.5C2318.5 4892.5 1447.89 5496.87 1317.02 5663.02Z" fill="url(#paint9_linear_1211_25555)" fill-opacity="0.8"/>
<path d="M1317.02 5663.02C1215.96 5791.33 857.761 5735.99 793.054 5735.14L-412.865 5455.02L-1161 4459.04C-473.271 4390.1 1052.97 3175.93 1461.51 3108.72C2014.82 3017.7 2637.79 3545.63 2585.18 4052.98C2535.1 4535.99 2259.01 4426.85 2278 4575.5C2318.5 4892.5 1447.89 5496.87 1317.02 5663.02Z" fill="url(#paint10_linear_1211_25555)"/>
<path d="M1317.02 5663.02C1215.96 5791.33 857.761 5735.99 793.054 5735.14L-412.865 5455.02L-1161 4459.04C-473.271 4390.1 1052.97 3175.93 1461.51 3108.72C2014.82 3017.7 2637.79 3545.63 2585.18 4052.98C2535.1 4535.99 2259.01 4426.85 2278 4575.5C2318.5 4892.5 1447.89 5496.87 1317.02 5663.02Z" fill="url(#paint11_linear_1211_25555)" fill-opacity="0.5"/>
<path d="M1317.02 5663.02C1215.96 5791.33 857.761 5735.99 793.054 5735.14L-412.865 5455.02L-1161 4459.04C-473.271 4390.1 1052.97 3175.93 1461.51 3108.72C2014.82 3017.7 2637.79 3545.63 2585.18 4052.98C2535.1 4535.99 2259.01 4426.85 2278 4575.5C2318.5 4892.5 1447.89 5496.87 1317.02 5663.02Z" fill="url(#paint12_radial_1211_25555)" fill-opacity="0.5"/>
</g>
<rect x="-291.211" y="-395" width="2262" height="2467" fill="url(#paint13_linear_1211_25555)"/>
<rect x="-291.211" y="-395" width="2262" height="2467" fill="url(#paint14_linear_1211_25555)" fill-opacity="0.3"/>
<g filter="url(#filter2_f_1211_25555)">
<path d="M1040.33 1104.85C1252.98 1103 983.777 772.46 1132.74 742.477C1281.7 712.495 1120.8 436.162 1585.4 380.012C1841.9 349.012 2056.14 362.518 2073 544.5C2289.6 894.872 2113.24 1516.36 1806.45 1772.02C1488.91 2036.63 292.052 1802.16 -220.735 2261.19L-233.528 2272.92C-229.312 2268.96 -225.048 2265.05 -220.735 2261.19L1040.33 1104.85Z" fill="#ED5F5C"/>
<path d="M1040.33 1104.85C1252.98 1103 983.777 772.46 1132.74 742.477C1281.7 712.495 1120.8 436.162 1585.4 380.012C1841.9 349.012 2056.14 362.518 2073 544.5C2289.6 894.872 2113.24 1516.36 1806.45 1772.02C1488.91 2036.63 292.052 1802.16 -220.735 2261.19L-233.528 2272.92C-229.312 2268.96 -225.048 2265.05 -220.735 2261.19L1040.33 1104.85Z" fill="url(#paint15_linear_1211_25555)"/>
<path d="M1040.33 1104.85C1252.98 1103 983.777 772.46 1132.74 742.477C1281.7 712.495 1120.8 436.162 1585.4 380.012C1841.9 349.012 2056.14 362.518 2073 544.5C2289.6 894.872 2113.24 1516.36 1806.45 1772.02C1488.91 2036.63 292.052 1802.16 -220.735 2261.19L-233.528 2272.92C-229.312 2268.96 -225.048 2265.05 -220.735 2261.19L1040.33 1104.85Z" fill="url(#paint16_linear_1211_25555)"/>
<path d="M1040.33 1104.85C1252.98 1103 983.777 772.46 1132.74 742.477C1281.7 712.495 1120.8 436.162 1585.4 380.012C1841.9 349.012 2056.14 362.518 2073 544.5C2289.6 894.872 2113.24 1516.36 1806.45 1772.02C1488.91 2036.63 292.052 1802.16 -220.735 2261.19L-233.528 2272.92C-229.312 2268.96 -225.048 2265.05 -220.735 2261.19L1040.33 1104.85Z" fill="url(#paint17_linear_1211_25555)"/>
</g>
<g filter="url(#filter3_f_1211_25555)">
<path d="M-121.733 838.42C-284.874 830.454 -478.221 1137.02 -520.046 1186.4L-1100.21 2280.07L-839.805 3498.22C-336.403 3024.6 1581.37 2670.02 1900.23 2405.9C2332.06 2048.19 2342.63 1231.68 1925.33 938.374C1528.04 659.142 583.768 1065.9 435.707 1089.06C287.645 1112.22 89.5158 848.735 -121.733 838.42Z" fill="#2E88FC"/>
<path d="M-121.733 838.42C-284.874 830.454 -478.221 1137.02 -520.046 1186.4L-1100.21 2280.07L-839.805 3498.22C-336.403 3024.6 1581.37 2670.02 1900.23 2405.9C2332.06 2048.19 2342.63 1231.68 1925.33 938.374C1528.04 659.142 583.768 1065.9 435.707 1089.06C287.645 1112.22 89.5158 848.735 -121.733 838.42Z" fill="white" fill-opacity="0.2"/>
<path d="M-121.733 838.42C-284.874 830.454 -478.221 1137.02 -520.046 1186.4L-1100.21 2280.07L-839.805 3498.22C-336.403 3024.6 1581.37 2670.02 1900.23 2405.9C2332.06 2048.19 2342.63 1231.68 1925.33 938.374C1528.04 659.142 583.768 1065.9 435.707 1089.06C287.645 1112.22 89.5158 848.735 -121.733 838.42Z" fill="url(#paint18_linear_1211_25555)"/>
<path d="M-121.733 838.42C-284.874 830.454 -478.221 1137.02 -520.046 1186.4L-1100.21 2280.07L-839.805 3498.22C-336.403 3024.6 1581.37 2670.02 1900.23 2405.9C2332.06 2048.19 2342.63 1231.68 1925.33 938.374C1528.04 659.142 583.768 1065.9 435.707 1089.06C287.645 1112.22 89.5158 848.735 -121.733 838.42Z" fill="url(#paint19_linear_1211_25555)" fill-opacity="0.8"/>
<path d="M-121.733 838.42C-284.874 830.454 -478.221 1137.02 -520.046 1186.4L-1100.21 2280.07L-839.805 3498.22C-336.403 3024.6 1581.37 2670.02 1900.23 2405.9C2332.06 2048.19 2342.63 1231.68 1925.33 938.374C1528.04 659.142 583.768 1065.9 435.707 1089.06C287.645 1112.22 89.5158 848.735 -121.733 838.42Z" fill="url(#paint20_linear_1211_25555)"/>
<path d="M-121.733 838.42C-284.874 830.454 -478.221 1137.02 -520.046 1186.4L-1100.21 2280.07L-839.805 3498.22C-336.403 3024.6 1581.37 2670.02 1900.23 2405.9C2332.06 2048.19 2342.63 1231.68 1925.33 938.374C1528.04 659.142 583.768 1065.9 435.707 1089.06C287.645 1112.22 89.5158 848.735 -121.733 838.42Z" fill="url(#paint21_linear_1211_25555)" fill-opacity="0.3"/>
<path d="M-121.733 838.42C-284.874 830.454 -478.221 1137.02 -520.046 1186.4L-1100.21 2280.07L-839.805 3498.22C-336.403 3024.6 1581.37 2670.02 1900.23 2405.9C2332.06 2048.19 2342.63 1231.68 1925.33 938.374C1528.04 659.142 583.768 1065.9 435.707 1089.06C287.645 1112.22 89.5158 848.735 -121.733 838.42Z" fill="url(#paint22_linear_1211_25555)"/>
<path d="M-121.733 838.42C-284.874 830.454 -478.221 1137.02 -520.046 1186.4L-1100.21 2280.07L-839.805 3498.22C-336.403 3024.6 1581.37 2670.02 1900.23 2405.9C2332.06 2048.19 2342.63 1231.68 1925.33 938.374C1528.04 659.142 583.768 1065.9 435.707 1089.06C287.645 1112.22 89.5158 848.735 -121.733 838.42Z" fill="url(#paint23_linear_1211_25555)" fill-opacity="0.5"/>
<path d="M-121.733 838.42C-284.874 830.454 -478.221 1137.02 -520.046 1186.4L-1100.21 2280.07L-839.805 3498.22C-336.403 3024.6 1581.37 2670.02 1900.23 2405.9C2332.06 2048.19 2342.63 1231.68 1925.33 938.374C1528.04 659.142 583.768 1065.9 435.707 1089.06C287.645 1112.22 89.5158 848.735 -121.733 838.42Z" fill="url(#paint24_radial_1211_25555)" fill-opacity="0.5"/>
</g>
<defs>
<filter id="filter0_f_1211_25555" x="-1192.92" y="5636" width="4174.51" height="3076.28" filterUnits="userSpaceOnUse" color-interpolation-filters="sRGB">
<feFlood flood-opacity="0" result="BackgroundImageFix"/>
<feBlend mode="normal" in="SourceGraphic" in2="BackgroundImageFix" result="shape"/>
<feGaussianBlur stdDeviation="106.5" result="effect1_foregroundBlur_1211_25555"/>
</filter>
<filter id="filter1_f_1211_25555" x="-1374" y="2885.41" width="4175.3" height="3075.32" filterUnits="userSpaceOnUse" color-interpolation-filters="sRGB">
<feFlood flood-opacity="0" result="BackgroundImageFix"/>
<feBlend mode="normal" in="SourceGraphic" in2="BackgroundImageFix" result="shape"/>
<feGaussianBlur stdDeviation="106.5" result="effect1_foregroundBlur_1211_25555"/>
</filter>
<filter id="filter2_f_1211_25555" x="-433.528" y="167.034" width="2802.5" height="2305.89" filterUnits="userSpaceOnUse" color-interpolation-filters="sRGB">
<feFlood flood-opacity="0" result="BackgroundImageFix"/>
<feBlend mode="normal" in="SourceGraphic" in2="BackgroundImageFix" result="shape"/>
<feGaussianBlur stdDeviation="100" result="effect1_foregroundBlur_1211_25555"/>
</filter>
<filter id="filter3_f_1211_25555" x="-1300.21" y="638.268" width="3731.55" height="3059.95" filterUnits="userSpaceOnUse" color-interpolation-filters="sRGB">
<feFlood flood-opacity="0" result="BackgroundImageFix"/>
<feBlend mode="normal" in="SourceGraphic" in2="BackgroundImageFix" result="shape"/>
<feGaussianBlur stdDeviation="100" result="effect1_foregroundBlur_1211_25555"/>
</filter>
<linearGradient id="paint0_linear_1211_25555" x1="-921.211" y1="7207.93" x2="3.36459" y2="7176.2" gradientUnits="userSpaceOnUse">
<stop stop-color="#FFEADE"/>
<stop offset="1" stop-color="#D65007" stop-opacity="0"/>
</linearGradient>
<linearGradient id="paint1_linear_1211_25555" x1="-306.877" y1="7783.54" x2="249.8" y2="6766.66" gradientUnits="userSpaceOnUse">
<stop stop-color="#F9914E"/>
<stop offset="1" stop-color="#F67C2D" stop-opacity="0"/>
</linearGradient>
<linearGradient id="paint2_linear_1211_25555" x1="-470.335" y1="7479.3" x2="477.665" y2="6911.3" gradientUnits="userSpaceOnUse">
<stop stop-color="#CDE3F5"/>
<stop offset="1" stop-color="#CDE3F5" stop-opacity="0"/>
</linearGradient>
<linearGradient id="paint3_linear_1211_25555" x1="908.996" y1="8487.5" x2="-54.6599" y2="7727.93" gradientUnits="userSpaceOnUse">
<stop stop-color="#ED5F5C"/>
<stop offset="1" stop-color="#ED5F5C" stop-opacity="0"/>
</linearGradient>
<linearGradient id="paint4_linear_1211_25555" x1="9.49604" y1="6014" x2="526.996" y2="6931" gradientUnits="userSpaceOnUse">
<stop offset="0.121877" stop-color="white"/>
<stop offset="1" stop-color="white" stop-opacity="0"/>
</linearGradient>
<radialGradient id="paint5_radial_1211_25555" cx="0" cy="0" r="1" gradientUnits="userSpaceOnUse" gradientTransform="translate(1214.09 7740.96) rotate(-112.291) scale(512.974 806.838)">
<stop stop-color="white"/>
<stop offset="1" stop-color="white" stop-opacity="0"/>
</radialGradient>
<linearGradient id="paint6_linear_1211_25555" x1="2528.8" y1="4458.93" x2="1604.28" y2="4425.64" gradientUnits="userSpaceOnUse">
<stop stop-color="#FFEADE"/>
<stop offset="1" stop-color="#D65007" stop-opacity="0"/>
</linearGradient>
<linearGradient id="paint7_linear_1211_25555" x1="1913.5" y1="5033.5" x2="1358.54" y2="4015.69" gradientUnits="userSpaceOnUse">
<stop stop-color="#F9914E"/>
<stop offset="1" stop-color="#F67C2D" stop-opacity="0"/>
</linearGradient>
<linearGradient id="paint8_linear_1211_25555" x1="26.4981" y1="4519" x2="657.562" y2="3845.14" gradientUnits="userSpaceOnUse">
<stop stop-color="#CBE5FA"/>
<stop offset="1" stop-color="#CDE3F5" stop-opacity="0"/>
</linearGradient>
<linearGradient id="paint9_linear_1211_25555" x1="1907.5" y1="5230.5" x2="1462" y2="4352.5" gradientUnits="userSpaceOnUse">
<stop stop-color="#CDE3F5"/>
<stop offset="1" stop-color="#CDE3F5" stop-opacity="0"/>
</linearGradient>
<linearGradient id="paint10_linear_1211_25555" x1="1191.14" y1="5823.59" x2="1321.17" y2="4834.91" gradientUnits="userSpaceOnUse">
<stop stop-color="#ED5F5C"/>
<stop offset="1" stop-color="#ED5F5C" stop-opacity="0"/>
</linearGradient>
<linearGradient id="paint11_linear_1211_25555" x1="279.567" y1="5528.08" x2="638.526" y2="4408.58" gradientUnits="userSpaceOnUse">
<stop stop-color="white"/>
<stop offset="1" stop-color="#F67C2D" stop-opacity="0"/>
</linearGradient>
<radialGradient id="paint12_radial_1211_25555" cx="0" cy="0" r="1" gradientUnits="userSpaceOnUse" gradientTransform="translate(392.604 4988.36) rotate(-67.612) scale(512.974 806.838)">
<stop stop-color="white"/>
<stop offset="1" stop-color="white" stop-opacity="0"/>
</radialGradient>
<linearGradient id="paint13_linear_1211_25555" x1="-291.211" y1="-234.298" x2="2092.29" y2="-101.035" gradientUnits="userSpaceOnUse">
<stop stop-color="#CDE3F5"/>
<stop offset="1" stop-color="#C1CFE4"/>
</linearGradient>
<linearGradient id="paint14_linear_1211_25555" x1="936.498" y1="-262.585" x2="933.413" y2="277.728" gradientUnits="userSpaceOnUse">
<stop stop-color="#5A6877"/>
<stop offset="1" stop-color="#5A6877" stop-opacity="0"/>
</linearGradient>
<linearGradient id="paint15_linear_1211_25555" x1="1776.4" y1="426.011" x2="951.405" y2="1080.5" gradientUnits="userSpaceOnUse">
<stop stop-color="#FFEADE"/>
<stop offset="1" stop-color="#D65007" stop-opacity="0"/>
</linearGradient>
<linearGradient id="paint16_linear_1211_25555" x1="21.8173" y1="1375.41" x2="742.371" y2="1758.1" gradientUnits="userSpaceOnUse">
<stop stop-color="#F9914E"/>
<stop offset="1" stop-color="#F67C2D" stop-opacity="0"/>
</linearGradient>
<linearGradient id="paint17_linear_1211_25555" x1="-266.403" y1="1730.15" x2="412.262" y2="1823.87" gradientUnits="userSpaceOnUse">
<stop stop-color="#CBE5FA"/>
<stop offset="1" stop-color="#CDE3F5" stop-opacity="0"/>
</linearGradient>
<linearGradient id="paint18_linear_1211_25555" x1="1582.05" y1="714.472" x2="1000.36" y2="1433.83" gradientUnits="userSpaceOnUse">
<stop stop-color="#FFEADE"/>
<stop offset="1" stop-color="#D65007" stop-opacity="0"/>
</linearGradient>
<linearGradient id="paint19_linear_1211_25555" x1="136.388" y1="1723.11" x2="882.92" y2="2108.19" gradientUnits="userSpaceOnUse">
<stop stop-color="#F9914E"/>
<stop offset="1" stop-color="#F67C2D" stop-opacity="0"/>
</linearGradient>
<linearGradient id="paint20_linear_1211_25555" x1="-275.441" y1="1915.36" x2="546.632" y2="2156.5" gradientUnits="userSpaceOnUse">
<stop stop-color="#CBE5FA"/>
<stop offset="1" stop-color="#CDE3F5" stop-opacity="0"/>
</linearGradient>
<linearGradient id="paint21_linear_1211_25555" x1="690.842" y1="1030.94" x2="780.079" y2="1520.37" gradientUnits="userSpaceOnUse">
<stop stop-color="#CDE3F5"/>
<stop offset="1" stop-color="#CDE3F5" stop-opacity="0"/>
</linearGradient>
<linearGradient id="paint22_linear_1211_25555" x1="-172.5" y1="1042.5" x2="480.691" y2="1402.18" gradientUnits="userSpaceOnUse">
<stop stop-color="#ED5F5C"/>
<stop offset="1" stop-color="#ED5F5C" stop-opacity="0"/>
</linearGradient>
<linearGradient id="paint23_linear_1211_25555" x1="-700.854" y1="1709.71" x2="379.372" y2="2173.66" gradientUnits="userSpaceOnUse">
<stop stop-color="white"/>
<stop offset="1" stop-color="#F67C2D" stop-opacity="0"/>
</linearGradient>
<radialGradient id="paint24_radial_1211_25555" cx="0" cy="0" r="1" gradientUnits="userSpaceOnUse" gradientTransform="translate(-219.461 1978.67) rotate(18.6334) scale(512.974 806.838)">
<stop stop-color="white"/>
<stop offset="1" stop-color="white" stop-opacity="0"/>
</radialGradient>
</defs>
</svg>
