<svg width="1920" height="4295" viewBox="0 0 1920 4295" fill="none" xmlns="http://www.w3.org/2000/svg">
<g filter="url(#filter0_f_1211_26418)">
<path d="M413.544 5144.12C514.394 5272.6 872.683 5217.86 937.392 5217.12L2143.78 4939.04L2893.59 3944.32C2205.98 3874.21 681.789 2657.48 273.357 2589.58C-279.792 2497.62 -903.654 3024.51 -851.901 3531.94C-802.631 4015.03 -526.355 3906.36 -545.597 4054.98C-586.631 4371.91 282.955 4977.75 413.544 5144.12Z" fill="#2E88FC"/>
<path d="M413.544 5144.12C514.394 5272.6 872.683 5217.86 937.392 5217.12L2143.78 4939.04L2893.59 3944.32C2205.98 3874.21 681.789 2657.48 273.357 2589.58C-279.792 2497.62 -903.654 3024.51 -851.901 3531.94C-802.631 4015.03 -526.355 3906.36 -545.597 4054.98C-586.631 4371.91 282.955 4977.75 413.544 5144.12Z" fill="url(#paint0_linear_1211_26418)"/>
<path d="M413.544 5144.12C514.394 5272.6 872.683 5217.86 937.392 5217.12L2143.78 4939.04L2893.59 3944.32C2205.98 3874.21 681.789 2657.48 273.357 2589.58C-279.792 2497.62 -903.654 3024.51 -851.901 3531.94C-802.631 4015.03 -526.355 3906.36 -545.597 4054.98C-586.631 4371.91 282.955 4977.75 413.544 5144.12Z" fill="url(#paint1_linear_1211_26418)" fill-opacity="0.25"/>
<path d="M413.544 5144.12C514.394 5272.6 872.683 5217.86 937.392 5217.12L2143.78 4939.04L2893.59 3944.32C2205.98 3874.21 681.789 2657.48 273.357 2589.58C-279.792 2497.62 -903.654 3024.51 -851.901 3531.94C-802.631 4015.03 -526.355 3906.36 -545.597 4054.98C-586.631 4371.91 282.955 4977.75 413.544 5144.12Z" fill="url(#paint2_linear_1211_26418)"/>
<path d="M413.544 5144.12C514.394 5272.6 872.683 5217.86 937.392 5217.12L2143.78 4939.04L2893.59 3944.32C2205.98 3874.21 681.789 2657.48 273.357 2589.58C-279.792 2497.62 -903.654 3024.51 -851.901 3531.94C-802.631 4015.03 -526.355 3906.36 -545.597 4054.98C-586.631 4371.91 282.955 4977.75 413.544 5144.12Z" fill="url(#paint3_linear_1211_26418)" fill-opacity="0.75"/>
<path d="M413.544 5144.12C514.394 5272.6 872.683 5217.86 937.392 5217.12L2143.78 4939.04L2893.59 3944.32C2205.98 3874.21 681.789 2657.48 273.357 2589.58C-279.792 2497.62 -903.654 3024.51 -851.901 3531.94C-802.631 4015.03 -526.355 3906.36 -545.597 4054.98C-586.631 4371.91 282.955 4977.75 413.544 5144.12Z" fill="url(#paint4_linear_1211_26418)" fill-opacity="0.8"/>
<path d="M413.544 5144.12C514.394 5272.6 872.683 5217.86 937.392 5217.12L2143.78 4939.04L2893.59 3944.32C2205.98 3874.21 681.789 2657.48 273.357 2589.58C-279.792 2497.62 -903.654 3024.51 -851.901 3531.94C-802.631 4015.03 -526.355 3906.36 -545.597 4054.98C-586.631 4371.91 282.955 4977.75 413.544 5144.12Z" fill="url(#paint5_radial_1211_26418)" fill-opacity="0.5"/>
</g>
<rect x="-291" y="-395" width="2262" height="1446" fill="url(#paint6_linear_1211_26418)"/>
<rect x="-291" y="-395" width="2262" height="1446" fill="url(#paint7_linear_1211_26418)" fill-opacity="0.3"/>
<g filter="url(#filter1_f_1211_26418)">
<path d="M-121.733 488.897C-284.874 480.931 -478.221 787.499 -520.046 836.879L-1100.21 1930.55L-839.805 3148.7C-336.403 2675.08 1581.37 2320.49 1900.23 2056.37C2332.06 1698.67 2342.63 882.154 1925.33 588.85C1528.04 309.619 583.768 716.379 435.707 739.538C287.645 762.698 89.5158 499.211 -121.733 488.897Z" fill="#2E88FC"/>
<path d="M-121.733 488.897C-284.874 480.931 -478.221 787.499 -520.046 836.879L-1100.21 1930.55L-839.805 3148.7C-336.403 2675.08 1581.37 2320.49 1900.23 2056.37C2332.06 1698.67 2342.63 882.154 1925.33 588.85C1528.04 309.619 583.768 716.379 435.707 739.538C287.645 762.698 89.5158 499.211 -121.733 488.897Z" fill="white" fill-opacity="0.2"/>
<path d="M-121.733 488.897C-284.874 480.931 -478.221 787.499 -520.046 836.879L-1100.21 1930.55L-839.805 3148.7C-336.403 2675.08 1581.37 2320.49 1900.23 2056.37C2332.06 1698.67 2342.63 882.154 1925.33 588.85C1528.04 309.619 583.768 716.379 435.707 739.538C287.645 762.698 89.5158 499.211 -121.733 488.897Z" fill="url(#paint8_linear_1211_26418)"/>
<path d="M-121.733 488.897C-284.874 480.931 -478.221 787.499 -520.046 836.879L-1100.21 1930.55L-839.805 3148.7C-336.403 2675.08 1581.37 2320.49 1900.23 2056.37C2332.06 1698.67 2342.63 882.154 1925.33 588.85C1528.04 309.619 583.768 716.379 435.707 739.538C287.645 762.698 89.5158 499.211 -121.733 488.897Z" fill="url(#paint9_linear_1211_26418)" fill-opacity="0.8"/>
<path d="M-121.733 488.897C-284.874 480.931 -478.221 787.499 -520.046 836.879L-1100.21 1930.55L-839.805 3148.7C-336.403 2675.08 1581.37 2320.49 1900.23 2056.37C2332.06 1698.67 2342.63 882.154 1925.33 588.85C1528.04 309.619 583.768 716.379 435.707 739.538C287.645 762.698 89.5158 499.211 -121.733 488.897Z" fill="url(#paint10_linear_1211_26418)"/>
<path d="M-121.733 488.897C-284.874 480.931 -478.221 787.499 -520.046 836.879L-1100.21 1930.55L-839.805 3148.7C-336.403 2675.08 1581.37 2320.49 1900.23 2056.37C2332.06 1698.67 2342.63 882.154 1925.33 588.85C1528.04 309.619 583.768 716.379 435.707 739.538C287.645 762.698 89.5158 499.211 -121.733 488.897Z" fill="url(#paint11_linear_1211_26418)" fill-opacity="0.3"/>
<path d="M-121.733 488.897C-284.874 480.931 -478.221 787.499 -520.046 836.879L-1100.21 1930.55L-839.805 3148.7C-336.403 2675.08 1581.37 2320.49 1900.23 2056.37C2332.06 1698.67 2342.63 882.154 1925.33 588.85C1528.04 309.619 583.768 716.379 435.707 739.538C287.645 762.698 89.5158 499.211 -121.733 488.897Z" fill="url(#paint12_linear_1211_26418)"/>
<path d="M-121.733 488.897C-284.874 480.931 -478.221 787.499 -520.046 836.879L-1100.21 1930.55L-839.805 3148.7C-336.403 2675.08 1581.37 2320.49 1900.23 2056.37C2332.06 1698.67 2342.63 882.154 1925.33 588.85C1528.04 309.619 583.768 716.379 435.707 739.538C287.645 762.698 89.5158 499.211 -121.733 488.897Z" fill="url(#paint13_linear_1211_26418)" fill-opacity="0.5"/>
<path d="M-121.733 488.897C-284.874 480.931 -478.221 787.499 -520.046 836.879L-1100.21 1930.55L-839.805 3148.7C-336.403 2675.08 1581.37 2320.49 1900.23 2056.37C2332.06 1698.67 2342.63 882.154 1925.33 588.85C1528.04 309.619 583.768 716.379 435.707 739.538C287.645 762.698 89.5158 499.211 -121.733 488.897Z" fill="url(#paint14_radial_1211_26418)" fill-opacity="0.5"/>
</g>
<defs>
<filter id="filter0_f_1211_26418" x="-1067.92" y="2366.05" width="4174.51" height="3076.28" filterUnits="userSpaceOnUse" color-interpolation-filters="sRGB">
<feFlood flood-opacity="0" result="BackgroundImageFix"/>
<feBlend mode="normal" in="SourceGraphic" in2="BackgroundImageFix" result="shape"/>
<feGaussianBlur stdDeviation="106.5" result="effect1_foregroundBlur_1211_26418"/>
</filter>
<filter id="filter1_f_1211_26418" x="-1300.21" y="288.744" width="3731.55" height="3059.95" filterUnits="userSpaceOnUse" color-interpolation-filters="sRGB">
<feFlood flood-opacity="0" result="BackgroundImageFix"/>
<feBlend mode="normal" in="SourceGraphic" in2="BackgroundImageFix" result="shape"/>
<feGaussianBlur stdDeviation="100" result="effect1_foregroundBlur_1211_26418"/>
</filter>
<linearGradient id="paint0_linear_1211_26418" x1="-796.203" y1="3937.98" x2="128.372" y2="3906.26" gradientUnits="userSpaceOnUse">
<stop stop-color="#FFEADE"/>
<stop offset="1" stop-color="#D65007" stop-opacity="0"/>
</linearGradient>
<linearGradient id="paint1_linear_1211_26418" x1="-181.869" y1="4513.59" x2="374.807" y2="3496.72" gradientUnits="userSpaceOnUse">
<stop stop-color="#F9914E"/>
<stop offset="1" stop-color="#F67C2D" stop-opacity="0"/>
</linearGradient>
<linearGradient id="paint2_linear_1211_26418" x1="-345.327" y1="4209.36" x2="602.673" y2="3641.36" gradientUnits="userSpaceOnUse">
<stop stop-color="#CDE3F5"/>
<stop offset="1" stop-color="#CDE3F5" stop-opacity="0"/>
</linearGradient>
<linearGradient id="paint3_linear_1211_26418" x1="1034" y1="5217.56" x2="70.3479" y2="4457.99" gradientUnits="userSpaceOnUse">
<stop stop-color="#ED5F5C"/>
<stop offset="1" stop-color="#ED5F5C" stop-opacity="0"/>
</linearGradient>
<linearGradient id="paint4_linear_1211_26418" x1="134.504" y1="2744.06" x2="652.004" y2="3661.06" gradientUnits="userSpaceOnUse">
<stop offset="0.121877" stop-color="white"/>
<stop offset="1" stop-color="white" stop-opacity="0"/>
</linearGradient>
<radialGradient id="paint5_radial_1211_26418" cx="0" cy="0" r="1" gradientUnits="userSpaceOnUse" gradientTransform="translate(1339.1 4471.02) rotate(-112.291) scale(512.974 806.838)">
<stop stop-color="white"/>
<stop offset="1" stop-color="white" stop-opacity="0"/>
</radialGradient>
<linearGradient id="paint6_linear_1211_26418" x1="-291" y1="-300.807" x2="2078.39" y2="-74.7935" gradientUnits="userSpaceOnUse">
<stop stop-color="#CDE3F5"/>
<stop offset="1" stop-color="#C1CFE4"/>
</linearGradient>
<linearGradient id="paint7_linear_1211_26418" x1="936.709" y1="-317.387" x2="935.65" y2="-0.682319" gradientUnits="userSpaceOnUse">
<stop stop-color="#5A6877"/>
<stop offset="1" stop-color="#5A6877" stop-opacity="0"/>
</linearGradient>
<linearGradient id="paint8_linear_1211_26418" x1="1582.05" y1="364.949" x2="1000.36" y2="1084.31" gradientUnits="userSpaceOnUse">
<stop stop-color="#FFEADE"/>
<stop offset="1" stop-color="#D65007" stop-opacity="0"/>
</linearGradient>
<linearGradient id="paint9_linear_1211_26418" x1="136.388" y1="1373.58" x2="882.92" y2="1758.66" gradientUnits="userSpaceOnUse">
<stop stop-color="#F9914E"/>
<stop offset="1" stop-color="#F67C2D" stop-opacity="0"/>
</linearGradient>
<linearGradient id="paint10_linear_1211_26418" x1="-275.441" y1="1565.84" x2="546.632" y2="1806.98" gradientUnits="userSpaceOnUse">
<stop stop-color="#CBE5FA"/>
<stop offset="1" stop-color="#CDE3F5" stop-opacity="0"/>
</linearGradient>
<linearGradient id="paint11_linear_1211_26418" x1="690.842" y1="681.415" x2="780.079" y2="1170.85" gradientUnits="userSpaceOnUse">
<stop stop-color="#CDE3F5"/>
<stop offset="1" stop-color="#CDE3F5" stop-opacity="0"/>
</linearGradient>
<linearGradient id="paint12_linear_1211_26418" x1="-172.5" y1="692.976" x2="480.691" y2="1052.66" gradientUnits="userSpaceOnUse">
<stop stop-color="#ED5F5C"/>
<stop offset="1" stop-color="#ED5F5C" stop-opacity="0"/>
</linearGradient>
<linearGradient id="paint13_linear_1211_26418" x1="-700.854" y1="1360.18" x2="379.372" y2="1824.14" gradientUnits="userSpaceOnUse">
<stop stop-color="white"/>
<stop offset="1" stop-color="#F67C2D" stop-opacity="0"/>
</linearGradient>
<radialGradient id="paint14_radial_1211_26418" cx="0" cy="0" r="1" gradientUnits="userSpaceOnUse" gradientTransform="translate(-219.461 1629.14) rotate(18.6334) scale(512.974 806.838)">
<stop stop-color="white"/>
<stop offset="1" stop-color="white" stop-opacity="0"/>
</radialGradient>
</defs>
</svg>
