<svg id="Слой_1" data-name="Слой 1" xmlns="http://www.w3.org/2000/svg" viewBox="0 0 36.942 24.969">
  <defs>
    <style>
      .cls-1 {
        fill: #036cbd;
      }

      .cls-1, .cls-2, .cls-3 {
        fill-rule: evenodd;
      }

      .cls-2 {
        fill: #045696;
      }

      .cls-3 {
        fill: #034579;
      }
    </style>
  </defs>
  <path class="cls-1" d="M27.126,9.455a42.312,42.312,0,0,0-4.279,3.8L19.308,16.61l2.843,2.951c1.563,1.623,3.173,3.285,3.578,3.693l.736.742.833-.471.832-.471V18.792l.449.048c.247.026,2.661.146,5.364.266l4.914.218.793-.451.792-.451V14.757l-5.707-.272c-3.139-.15-5.909-.276-6.156-.28L28.13,14.2v-2.6c0-2.017-.03-2.6-.132-2.594A4.865,4.865,0,0,0,27.126,9.455ZM16.583,19.416l-.713.416v4.277l-.925-.062c-.508-.034-2.926-.154-5.374-.266l-4.449-.2-.782.445-.782.447-.029,1.853L3.5,28.175h.4c.219,0,2.8.115,5.736.255s5.538.254,5.784.254h.448l.028,2.642.028,2.641.809-.45c.667-.373,1.426-1.035,4.333-3.782C23,27.9,24.589,26.371,24.589,26.33c0-.156-6.983-7.334-7.134-7.332A3.958,3.958,0,0,0,16.583,19.416Z" transform="translate(-3.5 -9)"/>
  <path class="cls-2" d="M27.126,9.455a42.312,42.312,0,0,0-4.279,3.8L19.308,16.61l2.843,2.951c1.563,1.623,3.173,3.285,3.578,3.693l.736.742.833-.471.832-.471V18.792l.449.048c.247.026,2.661.146,5.364.266l4.914.218.793-.451.792-.451V14.757l-5.707-.272c-3.139-.15-5.909-.276-6.156-.28L28.13,14.2v-2.6c0-2.017-.03-2.6-.132-2.594A4.865,4.865,0,0,0,27.126,9.455Zm-.342,5.763c.188,0,2.744.115,5.679.254s5.563.253,5.839.254h.5v3.467l-1.083-.061c-3.011-.169-10.936-.5-11.1-.466s-.185.267-.211,2.533l-.028,2.491-3.418-3.548-3.419-3.549,3.419-3.228,3.418-3.229.028,2.54.028,2.54Zm-10.2,4.2-.713.416v4.277l-.925-.062c-.508-.034-2.926-.154-5.374-.266l-4.449-.2-.782.445-.782.447-.029,1.853L3.5,28.175h.4c.219,0,2.8.115,5.736.255s5.538.254,5.784.254h.448l.028,2.642.028,2.641.809-.45c.667-.373,1.426-1.035,4.333-3.782C23,27.9,24.589,26.371,24.589,26.33c0-.156-6.983-7.334-7.134-7.332A3.958,3.958,0,0,0,16.583,19.416Zm1.08-.071c.07.081.1.19.068.241-.119.186.619,1.043,3.22,3.743a23.484,23.484,0,0,0,2.962,2.846c.168.05.306.127.306.171a2.323,2.323,0,0,1-.616.441,49.085,49.085,0,0,0-4.1,3.652L16.029,33.73,16,31.171l-.028-2.559-.923-.061c-.507-.033-3.182-.158-5.943-.277s-5.127-.236-5.258-.261c-.235-.045-.238-.065-.238-1.727,0-1.534.017-1.682.185-1.681.1,0,2.563.115,5.47.254s5.6.254,6,.254h.714V19.955l.66-.378C17.373,19.155,17.479,19.131,17.663,19.345Z" transform="translate(-3.5 -9)"/>
  <path class="cls-3" d="M27.126,9.455a42.312,42.312,0,0,0-4.279,3.8L19.308,16.61l2.842,2.951c1.564,1.623,3.174,3.285,3.579,3.693l.736.742.832-.471.833-.471V20.93c0-1.605.032-2.138.132-2.177.072-.028-.284-.055-.793-.059l-.925-.008v2.551a20.414,20.414,0,0,1-.079,2.543c-.142-.014-6.843-7.052-6.843-7.187,0-.072,1.546-1.594,3.435-3.381l3.435-3.25.028,2.576c.015,1.417.049,2.577.074,2.577a6.965,6.965,0,0,0,.659-.357,2.082,2.082,0,0,1,1.458-.356c1.134,0,11.372.485,11.429.54a1.937,1.937,0,0,1-.566.394l-.611.35-.029,1.755L38.905,19.2h-.369c-.2,0-1.859-.072-3.682-.159s-3.522-.146-3.777-.128,1.393.117,3.662.221l4.127.189.788-.449.788-.448V14.757l-5.707-.272c-3.139-.15-5.909-.276-6.156-.28L28.13,14.2v-2.6c0-2.017-.03-2.6-.132-2.594A4.83,4.83,0,0,0,27.126,9.455Zm1.823,9.408a9.786,9.786,0,0,0,1.11,0c.3-.02.055-.037-.555-.037S28.644,18.843,28.949,18.863Zm-12.366.553-.713.416v4.277l-.925-.062c-.508-.034-2.927-.154-5.374-.266l-4.449-.2-.782.445-.783.447-.028,1.838L3.5,28.144l1.3.065c.713.035,2.082.085,3.041.11,1.651.044,1.618.039-.634-.09-1.308-.075-2.652-.14-2.986-.146l-.608-.01V24.627l.764-.438.765-.438,2.961.127c4.951.212,5.786.28,6.249.511a4.432,4.432,0,0,0,1.531.566,17.545,17.545,0,0,0,.1-2.546v-2.49l.754-.432.755-.433.434.5c.825.957,3.663,3.918,5.59,5.834l.947.94-.666.386a43.208,43.208,0,0,0-4.214,3.722l-3.548,3.337L16,31.192l-.028-2.585-2.011-.075c-1.107-.041-2.035-.052-2.063-.025a17.606,17.606,0,0,0,1.958.125l2.01.074.029,2.631.028,2.631.809-.45c.666-.373,1.425-1.035,4.333-3.782C23,27.9,24.589,26.371,24.589,26.33c0-.156-6.983-7.334-7.134-7.332A3.958,3.958,0,0,0,16.583,19.416Zm-6.446,9.039a10.257,10.257,0,0,0,1.109,0c.3-.021.056-.038-.555-.038S9.831,28.434,10.137,28.455Z" transform="translate(-3.5 -9)"/>
</svg>
