<svg width="44" height="44" viewBox="0 0 44 44" fill="none" xmlns="http://www.w3.org/2000/svg">
<path fill-rule="evenodd" clip-rule="evenodd" d="M14.3581 3.69118L12.5749 4.393V4.8672V5.34142L11.7589 5.25938C10.9605 5.17905 10.8988 5.1945 8.90335 5.97823C7.78157 6.41872 6.74248 6.85982 6.59414 6.95841C6.0188 7.34077 5.92571 7.80934 5.92571 10.3218V12.6535L4.71676 13.1217L3.50781 13.5899V15.3965C3.50781 17.4639 3.50419 17.4569 4.57278 17.4569C4.90137 17.4569 5.3401 17.4913 5.54791 17.5335C5.92184 17.6094 5.92571 17.6179 5.92571 18.3634V19.1166L4.71676 19.5848L3.50781 20.053V21.8748C3.50781 22.9698 3.55653 23.7271 3.63004 23.7732C3.69726 23.8152 4.24358 23.8821 4.84406 23.9214L5.93599 23.9933L5.90057 24.7888L5.86526 25.5844L4.71676 26.0351L3.56826 26.4859V28.3788V30.2717L4.74699 30.3786L5.92571 30.4856L5.92837 33.3218C5.93127 36.4472 6.01106 36.8648 6.71213 37.4241C7.20067 37.8139 7.6718 37.9003 10.2477 38.072L12.5749 38.227V39.534V40.8409L14.2372 40.9646L15.8995 41.0882L16.9876 40.6892C17.586 40.4699 18.1708 40.2515 18.2872 40.2038C18.4701 40.129 18.4988 40.1924 18.4988 40.6724C18.4988 41.337 18.4631 41.3241 20.6144 41.4337L22.0652 41.5076L23.1438 41.0708C23.737 40.8305 24.2675 40.6339 24.3225 40.6339C24.3775 40.6339 24.4226 40.8823 24.4226 41.1858C24.4226 41.5853 24.4709 41.7376 24.5974 41.7376C24.6936 41.7376 25.4533 41.7966 26.2859 41.8688L27.7995 42L29.617 41.2938L31.4345 40.5877V40.1194V39.6512L32.2506 39.7259C33.0423 39.7982 33.1268 39.7768 35.0895 39.0064C36.2021 38.5696 37.2414 38.1266 37.3988 38.022C37.9915 37.628 38.0838 37.1747 38.0838 34.6548V32.3302L39.1416 31.923C39.7234 31.6991 40.2675 31.4637 40.3505 31.3999C40.4595 31.3164 40.5016 30.7788 40.5016 29.4756V27.6673L40.0483 27.5913C39.799 27.5494 39.3409 27.5146 39.0306 27.5139C38.1319 27.5117 38.0838 27.4658 38.0839 26.6104L38.0841 25.857L39.2928 25.3901L40.5016 24.9232V23.0394V21.1554L39.2875 21.0681L38.0735 20.9808L38.1088 20.1847L38.1442 19.3886L39.2927 18.9406L40.4412 18.4926V16.5952C40.4412 14.7876 40.4297 14.6966 40.1994 14.6734C40.0664 14.6602 39.5359 14.6141 39.0207 14.571L38.0838 14.4928L38.0818 11.5909C38.0799 8.80988 38.0684 8.66849 37.8079 8.202C37.2583 7.21753 37.0268 7.14702 33.5238 6.89649L31.4423 6.74761L31.4082 5.44957L31.3741 4.15154L29.6816 4.02768L27.989 3.90395L26.8017 4.36491C26.1488 4.61851 25.5912 4.826 25.5625 4.826C25.534 4.826 25.5107 4.58283 25.5107 4.28569V3.74539L24.9364 3.67586C24.6205 3.6376 23.844 3.57162 23.2108 3.52919C22.0926 3.45426 22.0269 3.46481 20.9319 3.89377C20.3117 4.1367 19.7554 4.33548 19.6956 4.33548C19.6358 4.33548 19.5868 4.09378 19.5868 3.79824V3.261L18.4081 3.18178C17.7597 3.13825 16.9846 3.07705 16.6854 3.04603C16.233 2.99894 15.8409 3.10759 14.3581 3.69118Z" fill="#0360A8"/>
<path fill-rule="evenodd" clip-rule="evenodd" d="M14.3581 3.69118L12.5749 4.393V4.8672V5.34142L11.7589 5.25938C10.9605 5.17905 10.8988 5.1945 8.90335 5.97823C7.78157 6.41872 6.74248 6.85982 6.59414 6.95841C6.0188 7.34077 5.92571 7.80934 5.92571 10.3218V12.6535L4.71676 13.1217L3.50781 13.5899V15.3965C3.50781 17.4639 3.50419 17.4569 4.57278 17.4569C4.90137 17.4569 5.3401 17.4913 5.54791 17.5335C5.92184 17.6094 5.92571 17.6179 5.92571 18.3634V19.1166L4.71676 19.5848L3.50781 20.053V21.8748C3.50781 22.9698 3.55653 23.7271 3.63004 23.7732C3.69726 23.8152 4.24358 23.8821 4.84406 23.9214L5.93599 23.9933L5.90057 24.7888L5.86526 25.5844L4.71676 26.0351L3.56826 26.4859V28.3788V30.2717L4.74699 30.3786L5.92571 30.4856L5.92837 33.3218C5.93127 36.4472 6.01106 36.8648 6.71213 37.4241C7.20067 37.8139 7.6718 37.9003 10.2477 38.072L12.5749 38.227V39.534V40.8409L14.2372 40.9646L15.8995 41.0882L16.9876 40.6892C17.586 40.4699 18.1708 40.2515 18.2872 40.2038C18.4701 40.129 18.4988 40.1924 18.4988 40.6724C18.4988 41.337 18.4631 41.3241 20.6144 41.4337L22.0652 41.5076L23.1438 41.0708C23.737 40.8305 24.2675 40.6339 24.3225 40.6339C24.3775 40.6339 24.4226 40.8823 24.4226 41.1858C24.4226 41.5853 24.4709 41.7376 24.5974 41.7376C24.6936 41.7376 25.4533 41.7966 26.2859 41.8688L27.7995 42L29.617 41.2938L31.4345 40.5877V40.1194V39.6512L32.2506 39.7259C33.0423 39.7982 33.1268 39.7768 35.0895 39.0064C36.2021 38.5696 37.2414 38.1266 37.3988 38.022C37.9915 37.628 38.0838 37.1747 38.0838 34.6548V32.3302L39.1416 31.923C39.7234 31.6991 40.2675 31.4637 40.3505 31.3999C40.4595 31.3164 40.5016 30.7788 40.5016 29.4756V27.6673L40.0483 27.5913C39.799 27.5494 39.3409 27.5146 39.0306 27.5139C38.1319 27.5117 38.0838 27.4658 38.0839 26.6104L38.0841 25.857L39.2928 25.3901L40.5016 24.9232V23.0394V21.1554L39.2875 21.0681L38.0735 20.9808L38.1088 20.1847L38.1442 19.3886L39.2927 18.9406L40.4412 18.4926V16.5952C40.4412 14.7876 40.4297 14.6966 40.1994 14.6734C40.0664 14.6602 39.5359 14.6141 39.0207 14.571L38.0838 14.4928L38.0818 11.5909C38.0799 8.80988 38.0684 8.66849 37.8079 8.202C37.2583 7.21753 37.0268 7.14702 33.5238 6.89649L31.4423 6.74761L31.4082 5.44957L31.3741 4.15154L29.6816 4.02768L27.989 3.90395L26.8017 4.36491C26.1488 4.61851 25.5912 4.826 25.5625 4.826C25.534 4.826 25.5107 4.58283 25.5107 4.28569V3.74539L24.9364 3.67586C24.6205 3.6376 23.844 3.57162 23.2108 3.52919C22.0926 3.45426 22.0269 3.46481 20.9319 3.89377C20.3117 4.1367 19.7554 4.33548 19.6956 4.33548C19.6358 4.33548 19.5868 4.09378 19.5868 3.79824V3.261L18.4081 3.18178C17.7597 3.13825 16.9846 3.07705 16.6854 3.04603C16.233 2.99894 15.8409 3.10759 14.3581 3.69118ZM14.8378 4.6607L15.8312 4.73906L15.8654 6.03955L15.8995 7.33992L17.2116 7.43961C17.9334 7.49455 18.5572 7.50559 18.5979 7.46414C18.6387 7.42281 18.694 6.83566 18.7207 6.15936L18.7695 4.92962L19.3292 4.99535C19.6371 5.03153 20.3089 5.09554 20.822 5.1376L21.755 5.214L21.7892 6.50897L21.8234 7.80382L22.5488 7.84638C22.9477 7.86968 23.5527 7.91677 23.8931 7.95086L24.5121 8.01279L24.5869 7.55366C24.6282 7.30129 24.6624 6.71683 24.6631 6.25513L24.6644 5.41561L25.964 5.49814C27.8411 5.61733 27.6868 5.48465 27.6868 6.98024C27.6868 8.2253 27.694 8.25964 27.9588 8.25964C28.8997 8.25976 32.9526 8.65451 33.1682 8.76708C33.5139 8.94772 33.9618 9.36564 34.1356 9.66988C34.2265 9.82918 34.2967 10.9868 34.336 12.9738L34.3965 16.0324L35.4241 16.0764C35.9892 16.1007 36.5197 16.1436 36.6028 16.1717C36.714 16.2094 36.7539 16.6738 36.7539 17.932V19.641L35.545 19.5735L34.336 19.5059V20.9778V22.4498L35.0791 22.5286C35.4878 22.5719 36.0318 22.6073 36.2881 22.6073H36.7539V24.3378V26.0682L35.5752 26.0239L34.3965 25.9797V27.4512C34.3965 28.8329 34.4112 28.9243 34.6382 28.9471C34.7712 28.9603 35.3017 29.0064 35.817 29.0495L36.7539 29.1277V30.8457V32.5638L35.5752 32.5215L34.3965 32.4791L34.336 35.4892C34.2684 38.8521 34.2296 39.015 33.4123 39.3614C33.0533 39.5136 32.6834 39.5191 30.9131 39.3986C29.7703 39.3207 28.5905 39.2496 28.2913 39.2404L27.7472 39.2237L27.7128 40.4863L27.6782 41.7488L26.9874 41.6845C26.6074 41.6492 25.9292 41.587 25.4805 41.5466L24.6644 41.4729V40.2524C24.6644 39.3889 24.6203 39.0151 24.5133 38.974C24.2993 38.8917 22.0516 38.7174 21.8939 38.7707C21.8115 38.7985 21.7629 39.2708 21.7629 40.0429V41.2706L20.4633 41.1881C19.7485 41.1427 19.0704 41.0791 18.9562 41.0467C18.7807 40.997 18.7436 40.7961 18.7145 39.738L18.6801 38.4879L17.4316 38.3865C16.745 38.3307 16.1057 38.3151 16.0111 38.3519C15.8785 38.4035 15.8391 38.6943 15.8391 39.6191V40.8192L14.7813 40.7373C14.1995 40.6922 13.5195 40.6505 13.2701 40.6446L12.8167 40.6339V39.3545C12.8167 38.2411 12.7893 38.0674 12.6052 38.0144C12.4887 37.9811 11.339 37.8852 10.05 37.8013C7.40571 37.6294 6.9104 37.4782 6.47252 36.7098C6.25055 36.3202 6.22239 36.0033 6.1675 33.2761L6.10705 30.2717L4.92506 30.1611L3.74307 30.0505L3.77656 28.383L3.81005 26.7154L4.91044 26.7522L6.01094 26.7891L6.08916 26.0292C6.13232 25.6112 6.1675 24.9521 6.1675 24.5645C6.1675 23.763 6.11068 23.7117 5.22065 23.7097C4.91031 23.7089 4.45079 23.6739 4.19969 23.6318L3.74295 23.5551L3.77656 21.8857L3.81005 20.2161L4.90971 20.2598L6.00949 20.3037L6.08843 19.5368C6.13196 19.115 6.1675 18.4508 6.1675 18.0608V17.3519L5.5328 17.2809C5.18378 17.2419 4.65329 17.1965 4.35408 17.1801L3.81005 17.1503V15.4335V13.7167L4.59587 13.7525C5.02807 13.7722 5.52313 13.8162 5.69613 13.8502C6.00441 13.9108 6.01215 13.8956 6.08819 13.0786C6.13087 12.6202 6.16617 11.3383 6.16665 10.2298C6.16762 7.8129 6.31112 7.34274 7.17044 6.93879C7.65572 6.7107 7.76597 6.70714 9.613 6.86129C10.6769 6.95007 11.8057 7.02512 12.1216 7.02807L12.6958 7.03334V6.56085C12.6958 6.30087 12.7308 5.74904 12.7734 5.33455L12.8512 4.58074L13.3477 4.58148C13.6209 4.58184 14.2914 4.61753 14.8378 4.6607ZM9.88792 12.4172C8.98242 12.7881 8.79563 12.9155 9.13946 12.9279C9.267 12.9325 13.4786 13.2499 18.4988 13.6333L27.6263 14.3302L27.6573 24.6003L27.6881 34.8703H27.2342C26.9844 34.8703 23.5187 34.622 19.5327 34.3185C15.5465 34.015 12.0476 33.7667 11.7571 33.7667C11.2649 33.7667 11.2346 33.7856 11.3129 34.0426C11.5019 34.6625 11.8684 35.2355 12.3354 35.6409C13.2958 36.4748 13.5954 36.52 22.7208 37.2059C27.42 37.5592 31.2057 37.792 31.4857 37.7448C32.1933 37.6257 32.6087 37.3758 32.853 36.9223C33.0513 36.5544 33.069 35.8352 33.0997 26.9347C33.1324 17.455 33.1298 17.3347 32.8775 16.5725C32.7371 16.1484 32.4345 15.4871 32.205 15.1029C31.7294 14.3069 31.0969 13.9197 29.742 13.5955C29.2743 13.4836 25.5306 13.1602 20.4935 12.7965C15.8391 12.4605 11.7317 12.1627 11.366 12.1349C10.8427 12.0949 10.5277 12.1551 9.88792 12.4172Z" fill="#065695"/>
<path fill-rule="evenodd" clip-rule="evenodd" d="M14.3581 3.69118L12.5749 4.393V4.8672V5.34142L11.7589 5.25938C10.9605 5.17905 10.8988 5.1945 8.90335 5.97823C7.78157 6.41872 6.74248 6.85982 6.59414 6.95841C6.0188 7.34077 5.92571 7.80934 5.92571 10.3218V12.6535L4.71676 13.1217L3.50781 13.5899V15.3965C3.50781 17.4639 3.50419 17.4569 4.57278 17.4569C4.90137 17.4569 5.3401 17.4913 5.54791 17.5335C5.92184 17.6094 5.92571 17.6179 5.92571 18.3634V19.1166L4.71676 19.5848L3.50781 20.053V21.8748C3.50781 22.9698 3.55653 23.7271 3.63004 23.7732C3.69726 23.8152 4.24358 23.8821 4.84406 23.9214L5.93599 23.9933L5.90057 24.7888L5.86526 25.5844L4.71676 26.0351L3.56826 26.4859V28.3788V30.2717L4.74699 30.3786L5.92571 30.4856L5.92837 33.3218C5.93127 36.4472 6.01106 36.8648 6.71213 37.4241C7.20067 37.8139 7.6718 37.9003 10.2477 38.072L12.5749 38.227V39.534V40.8409L14.2372 40.9646L15.8995 41.0882L16.9876 40.6892C17.586 40.4699 18.1708 40.2515 18.2872 40.2038C18.4701 40.129 18.4988 40.1924 18.4988 40.6724C18.4988 41.337 18.4631 41.3241 20.6144 41.4337L22.0652 41.5076L23.1438 41.0708C23.737 40.8305 24.2675 40.6339 24.3225 40.6339C24.3775 40.6339 24.4226 40.8823 24.4226 41.1858C24.4226 41.5853 24.4709 41.7376 24.5974 41.7376C24.6936 41.7376 25.4533 41.7966 26.2859 41.8688L27.7995 42L29.617 41.2938L31.4345 40.5877V40.1194V39.6512L32.2506 39.7259C33.0423 39.7982 33.1268 39.7768 35.0895 39.0064C36.2021 38.5696 37.2414 38.1266 37.3988 38.022C37.9915 37.628 38.0838 37.1747 38.0838 34.6548V32.3302L39.1416 31.923C39.7234 31.6991 40.2675 31.4637 40.3505 31.3999C40.4595 31.3164 40.5016 30.7788 40.5016 29.4756V27.6673L40.0483 27.5913C39.799 27.5494 39.3409 27.5146 39.0306 27.5139C38.1319 27.5117 38.0838 27.4658 38.0839 26.6104L38.0841 25.857L39.2928 25.3901L40.5016 24.9232V23.0394V21.1554L39.2875 21.0681L38.0735 20.9808L38.1088 20.1847L38.1442 19.3886L39.2927 18.9406L40.4412 18.4926V16.5952C40.4412 14.7876 40.4297 14.6966 40.1994 14.6734C40.0664 14.6602 39.5359 14.6141 39.0207 14.571L38.0838 14.4928L38.0818 11.5909C38.0799 8.80988 38.0684 8.66849 37.8079 8.202C37.2583 7.21753 37.0268 7.14702 33.5238 6.89649L31.4423 6.74761L31.4082 5.44957L31.3741 4.15154L29.6816 4.02768L27.989 3.90395L26.8017 4.36491C26.1488 4.61851 25.5912 4.826 25.5625 4.826C25.534 4.826 25.5107 4.58283 25.5107 4.28569V3.74539L24.9364 3.67586C24.6205 3.6376 23.844 3.57162 23.2108 3.52919C22.0926 3.45426 22.0269 3.46481 20.9319 3.89377C20.3117 4.1367 19.7554 4.33548 19.6956 4.33548C19.6358 4.33548 19.5868 4.09378 19.5868 3.79824V3.261L18.4081 3.18178C17.7597 3.13825 16.9846 3.07705 16.6854 3.04603C16.233 2.99894 15.8409 3.10759 14.3581 3.69118ZM18.659 3.47057C18.8131 3.52649 18.4487 3.71632 17.45 4.10077L16.0204 4.65089V5.98301V7.31502L17.052 7.28988C18.5951 7.25223 18.5476 7.27124 18.641 6.65405C18.6859 6.35679 18.7267 5.86222 18.7316 5.55491L18.7406 4.99609L20.4385 4.35069L22.1365 3.70529L23.5311 3.79235C24.2982 3.8403 24.8585 3.92173 24.776 3.97336C24.6937 4.02498 24.0093 4.30164 23.255 4.58798L21.8838 5.10866V6.45747V7.80615L23.0965 7.73123C23.7635 7.69002 24.3619 7.62319 24.4264 7.58285C24.4908 7.5425 24.5435 7.07442 24.5435 6.54282C24.5435 5.90318 24.5947 5.54339 24.6946 5.47913C24.7778 5.42566 25.5258 5.11565 26.3569 4.79019C27.9616 4.16184 28.5375 4.0901 30.2001 4.31157L30.8395 4.3968L29.3538 4.96604L27.8681 5.53529L27.8339 6.89955L27.7997 8.26381L28.2571 8.20507C28.5086 8.17269 29.1496 8.11432 29.6816 8.07545C30.7723 7.99574 32.7063 7.70278 33.4199 7.50914C33.7788 7.41165 33.8522 7.3523 33.7221 7.2645C33.6122 7.19043 33.9861 7.1778 34.7591 7.22967C35.4241 7.27431 35.9832 7.32348 36.0017 7.33893C36.0202 7.35451 35.3456 7.63447 34.5027 7.96116C33.2195 8.45842 33.0074 8.57603 33.1987 8.68333C33.6464 8.93423 34.2077 9.62304 34.3307 10.0721C34.3994 10.3231 34.4558 11.7637 34.4562 13.275L34.4569 16.0215L35.4804 15.9417C36.0433 15.8978 36.7815 15.8015 37.1208 15.7277C37.8964 15.5589 38.0262 15.6574 37.3358 15.8907L36.8144 16.0668L36.7809 17.8798L36.7473 19.6929L35.6021 19.6059L34.4569 19.5187V21.0017V22.4847H35.4767C36.0375 22.4847 36.6224 22.4376 36.7763 22.38C36.9302 22.3225 37.2194 22.2413 37.4188 22.1997C37.7068 22.1398 37.6756 22.1729 37.2677 22.3607L36.7539 22.5973V24.3771V26.157L35.6054 26.0805L34.4569 26.0039L34.4571 27.4634L34.4573 28.9228L35.3805 28.9576C35.9953 28.9809 36.5029 28.9255 36.8995 28.7918C37.227 28.6814 37.5223 28.6189 37.5557 28.6528C37.589 28.6867 37.4223 28.7793 37.1851 28.8588L36.7539 29.0031V30.8254V32.6475L36.361 32.5989C36.1448 32.5721 35.6315 32.5216 35.2202 32.4867L34.4724 32.4231L34.4344 35.3942C34.3922 38.6981 34.3418 38.9224 33.5454 39.3576C33.1916 39.5508 32.9629 39.5557 30.6959 39.4186C29.34 39.3366 28.1356 39.2417 28.0193 39.2078C27.8271 39.1516 27.8077 39.2664 27.8077 40.4551V41.7645L26.4476 41.681C25.6996 41.6351 24.9975 41.5717 24.8873 41.5403C24.7247 41.4938 24.6708 41.2416 24.6008 40.2001C24.5147 38.9188 24.5143 38.9171 24.1967 38.9164C24.0217 38.916 23.4298 38.8802 22.8812 38.8369L21.8838 38.7582V40.0026V41.2471L21.3096 41.2464C20.9937 41.246 20.2866 41.2102 19.738 41.1669L18.7406 41.0882V39.8769C18.7406 38.4441 18.808 38.5047 17.0783 38.3844L15.96 38.3067V39.6026V40.8987L15.1742 40.8277C14.742 40.7886 14.0347 40.7246 13.6025 40.6854L12.8167 40.6144V39.3507V38.0869L12.182 38.0141C11.833 37.974 10.6497 37.8778 9.55256 37.8006C7.51463 37.6571 7.15243 37.5632 6.6894 37.0587C6.21622 36.5433 6.1675 36.1849 6.1675 33.22C6.1675 30.0435 6.21404 30.2104 5.32825 30.2104C5.07703 30.2104 4.61896 30.1753 4.31055 30.1324L3.7496 30.0544V28.3663V26.6782L4.1413 26.5396C4.4057 26.4461 4.54642 26.4422 4.57447 26.5277C4.59732 26.5972 4.91068 26.6541 5.27082 26.6541C5.8817 26.6541 5.92571 26.6343 5.92571 26.3596C5.92571 26.066 5.92366 26.0656 5.36174 26.2372C4.61134 26.4663 4.5631 26.378 5.28835 26.1028C6.14767 25.7767 6.1675 25.7462 6.1675 24.7472V23.8513L5.5328 23.7803C5.18378 23.7413 4.65329 23.6959 4.35408 23.6795L3.81005 23.6497L3.77668 21.9238L3.7432 20.1979L4.16971 20.0651C4.40425 19.9921 4.56576 19.9823 4.52841 20.0435C4.49117 20.1047 4.62029 20.1547 4.81541 20.1547C5.01054 20.1547 5.3401 20.1892 5.54791 20.2314C5.8973 20.3023 5.92571 20.2829 5.92571 19.9729C5.92571 19.6771 5.89005 19.6464 5.62347 19.7123C4.77709 19.9211 4.72051 19.8976 5.38168 19.6115C5.78064 19.4387 6.12071 19.2972 6.13728 19.2969C6.22081 19.2954 6.15336 17.4625 6.06776 17.4088C6.01288 17.3745 5.4674 17.308 4.85555 17.2612L3.7432 17.1759L3.77656 15.4621L3.81005 13.7482L4.95855 13.3001L6.10705 12.852L6.1675 10.3353C6.2184 8.2139 6.26119 7.76716 6.43951 7.49161C6.70657 7.07884 6.69363 7.08546 9.00805 6.18192C10.8441 5.46527 10.9877 5.42897 11.8491 5.4638L12.7563 5.50047L12.8167 5.02442L12.8772 4.54824L14.5092 3.90432L16.1413 3.26026L17.2898 3.32538C17.9215 3.36131 18.5376 3.42655 18.659 3.47057ZM10.013 12.4629C9.63464 12.6162 9.29445 12.7727 9.25709 12.8106C9.21961 12.8486 10.0188 12.9402 11.0332 13.0144C23.6107 13.934 26.7358 14.1676 27.173 14.2209L27.6868 14.2836V24.647V35.0106L27.0521 34.9375C26.7031 34.8974 23.4524 34.647 19.8286 34.381C16.2048 34.1152 12.8727 33.8649 12.4238 33.8248C11.7507 33.7646 11.6078 33.7837 11.6078 33.9338C11.6078 34.4414 12.9424 35.495 13.9628 35.7929C14.5753 35.9717 28.3443 37.0777 29.9576 37.0777C30.6224 37.0777 30.9167 37.0108 31.443 36.7404C32.5905 36.1507 32.5338 36.7327 32.4953 25.9352L32.4621 16.6598L32.1755 15.9386C31.8018 14.9984 31.267 14.4204 30.3251 13.9392L29.5607 13.5485L21.2794 12.9283C10.1752 12.0965 10.849 12.1242 10.013 12.4629Z" fill="#044D87"/>
<path fill-rule="evenodd" clip-rule="evenodd" d="M14.3581 3.69118L12.5749 4.393V4.8672V5.34142L11.7589 5.25938C10.9605 5.17905 10.8988 5.1945 8.90335 5.97823C7.78157 6.41872 6.74248 6.85982 6.59414 6.95841C6.0188 7.34077 5.92571 7.80934 5.92571 10.3218V12.6535L4.71676 13.1217L3.50781 13.5899V15.3965C3.50781 17.4639 3.50419 17.4569 4.57278 17.4569C4.90137 17.4569 5.3401 17.4913 5.54791 17.5335C5.92184 17.6094 5.92571 17.6179 5.92571 18.3634V19.1166L4.71676 19.5848L3.50781 20.053V21.8748C3.50781 22.9698 3.55653 23.7271 3.63004 23.7732C3.69726 23.8152 4.24358 23.8821 4.84406 23.9214L5.93599 23.9933L5.90057 24.7888L5.86526 25.5844L4.71676 26.0351L3.56826 26.4859V28.3788V30.2717L4.74699 30.3786L5.92571 30.4856L5.92837 33.3218C5.93127 36.4472 6.01106 36.8648 6.71213 37.4241C7.20067 37.8139 7.6718 37.9003 10.2477 38.072L12.5749 38.227V39.534V40.8409L14.2372 40.9646L15.8995 41.0882L16.9876 40.6892C17.586 40.4699 18.1708 40.2515 18.2872 40.2038C18.4701 40.129 18.4988 40.1924 18.4988 40.6724C18.4988 41.337 18.4631 41.3241 20.6144 41.4337L22.0652 41.5076L23.1438 41.0708C23.737 40.8305 24.2675 40.6339 24.3225 40.6339C24.3775 40.6339 24.4226 40.8823 24.4226 41.1858C24.4226 41.5853 24.4709 41.7376 24.5974 41.7376C24.6936 41.7376 25.4533 41.7966 26.2859 41.8688L27.7995 42L29.617 41.2938L31.4345 40.5877V40.1194V39.6512L32.2506 39.7259C33.0423 39.7982 33.1268 39.7768 35.0895 39.0064C36.2021 38.5696 37.2414 38.1266 37.3988 38.022C37.9915 37.628 38.0838 37.1747 38.0838 34.6548V32.3302L39.1416 31.923C39.7234 31.6991 40.2675 31.4637 40.3505 31.3999C40.4595 31.3164 40.5016 30.7788 40.5016 29.4756V27.6673L40.0483 27.5913C39.799 27.5494 39.3409 27.5146 39.0306 27.5139C38.1319 27.5117 38.0838 27.4658 38.0839 26.6104L38.0841 25.857L39.2928 25.3901L40.5016 24.9232V23.0394V21.1554L39.2875 21.0681L38.0735 20.9808L38.1088 20.1847L38.1442 19.3886L39.2927 18.9406L40.4412 18.4926V16.5952C40.4412 14.7876 40.4297 14.6966 40.1994 14.6734C40.0664 14.6602 39.5359 14.6141 39.0207 14.571L38.0838 14.4928L38.0818 11.5909C38.0799 8.80988 38.0684 8.66849 37.8079 8.202C37.2583 7.21753 37.0268 7.14702 33.5238 6.89649L31.4423 6.74761L31.4082 5.44957L31.3741 4.15154L29.6816 4.02768L27.989 3.90395L26.8017 4.36491C26.1488 4.61851 25.5912 4.826 25.5625 4.826C25.534 4.826 25.5107 4.58283 25.5107 4.28569V3.74539L24.9364 3.67586C24.6205 3.6376 23.844 3.57162 23.2108 3.52919C22.0926 3.45426 22.0269 3.46481 20.9319 3.89377C20.3117 4.1367 19.7554 4.33548 19.6956 4.33548C19.6358 4.33548 19.5868 4.09378 19.5868 3.79824V3.261L18.4081 3.18178C17.7597 3.13825 16.9846 3.07705 16.6854 3.04603C16.233 2.99894 15.8409 3.10759 14.3581 3.69118ZM18.5778 3.35444C19.0925 3.35444 19.0983 3.53495 18.5894 3.71363C18.3733 3.78953 17.6934 4.04902 17.0783 4.29023L15.96 4.72876V6.01416V7.29957L16.857 7.21422C17.3505 7.16737 17.9353 7.09159 18.1566 7.04585L18.5592 6.96258L18.594 5.97786L18.6287 4.99302L20.3105 4.35768C22.1019 3.68101 22.5135 3.62717 24.3622 3.82767L25.0875 3.90628L23.8786 4.38245C23.2137 4.64439 22.4929 4.93134 22.2767 5.02L21.8838 5.18138V6.46949V7.75759L22.5185 7.68757C22.8676 7.64907 23.4524 7.5826 23.8182 7.53992L24.4831 7.46242L24.5435 6.44374L24.604 5.42505L26.3569 4.75549L28.1099 4.08593L29.4864 4.20697C30.2435 4.27355 30.88 4.34529 30.9009 4.36638C30.9217 4.3876 30.2343 4.67394 29.3733 5.00283L27.8077 5.6009V6.93266C27.8077 8.24983 27.8106 8.26369 28.0797 8.2036C28.2294 8.17012 28.9916 8.05669 29.7737 7.95147C31.2329 7.75526 32.7644 7.35132 32.7644 7.16271C32.7644 7.10434 32.9684 7.07798 33.2177 7.10385C33.4671 7.12985 34.2559 7.18503 34.9707 7.2266C35.6856 7.26818 36.2698 7.33832 36.2691 7.38235C36.2685 7.42649 35.7653 7.65201 35.1508 7.88366C34.5365 8.1153 33.8547 8.37908 33.6359 8.46983L33.2382 8.63501L33.623 8.96341C34.3829 9.61212 34.4513 9.95573 34.4542 13.1439L34.4569 16.0048L34.7894 15.9414C34.9722 15.9065 35.4482 15.8428 35.8472 15.7998C36.2461 15.7569 37.0597 15.6155 37.6549 15.4856C38.2502 15.3557 38.767 15.2504 38.8034 15.2514C38.9622 15.2559 38.4439 15.5164 37.6908 15.8106L36.8748 16.1294V17.9153V19.7013L35.6659 19.6266L34.4569 19.5519V21.0003V22.4487L35.0916 22.3921C35.4406 22.361 36.3218 22.2328 37.0497 22.1073C37.7776 21.9817 38.3928 21.8989 38.4167 21.9232C38.4406 21.9475 38.1171 22.1001 37.6977 22.2625L36.9352 22.5576L36.8748 24.3299L36.8144 26.1023L35.6356 26.0624L34.4569 26.0226V27.4597V28.8967L35.3137 28.816C35.7848 28.7715 36.6606 28.6493 37.2596 28.5445C37.8588 28.4396 38.3689 28.3741 38.3934 28.3989C38.4179 28.4237 38.0876 28.5768 37.6594 28.7393L36.881 29.0346L36.8477 30.8182L36.8144 32.6017L35.6356 32.5567L34.4569 32.5117V35.3586C34.4569 38.5215 34.3925 38.8496 33.6808 39.3092C33.3416 39.5281 33.1574 39.5435 31.6159 39.4813C30.685 39.4438 29.4474 39.3761 28.8655 39.3309L27.8077 39.2486V40.5079V41.7672L26.2663 41.6779C25.4186 41.6288 24.6841 41.5638 24.6342 41.5333C24.5843 41.5028 24.5435 40.933 24.5435 40.267C24.5435 38.8621 24.6694 38.9772 23.0021 38.8568L21.8838 38.7761V40.0837V41.3913L21.4305 41.3242C21.1812 41.2873 20.4788 41.2218 19.8696 41.1787L18.7622 41.1002L18.6771 39.8329L18.5919 38.5658L17.7897 38.4936C17.3486 38.4538 16.7564 38.3961 16.4738 38.365L15.96 38.3086V39.6069V40.9052L14.8417 40.8259C14.2266 40.7822 13.5195 40.7164 13.2701 40.6794L12.8167 40.6124V39.4041C12.8167 38.7396 12.7731 38.1685 12.7199 38.1351C12.6666 38.1016 11.4832 37.9832 10.0904 37.8716C7.22315 37.6421 6.91221 37.5481 6.46563 36.775C6.17113 36.2653 6.1675 36.2234 6.1675 33.3113V30.3637L5.7897 30.287C5.58189 30.2449 5.16032 30.2097 4.85277 30.2087C3.69943 30.2052 3.7496 30.2901 3.7496 28.3452C3.7496 26.8171 3.77257 26.6247 3.96117 26.572C4.07759 26.5395 4.60796 26.3377 5.13989 26.1236L6.10705 25.7344L6.1432 24.8881C6.16315 24.4228 6.13341 23.9953 6.07719 23.9382C6.02098 23.8812 5.47417 23.7984 4.86232 23.7544L3.7496 23.6743V21.9356V20.1969L4.80743 19.7926C5.3893 19.5703 5.93333 19.3332 6.01638 19.266C6.22347 19.0984 6.22347 17.4673 6.01638 17.4002C5.93333 17.3733 5.3893 17.3148 4.80743 17.2704L3.7496 17.1896L3.75093 15.4531L3.75226 13.7167L4.68787 13.3664C6.30085 12.7626 6.16738 13.038 6.16798 10.3109C6.16859 7.08104 6.00066 7.3187 9.13196 6.11435C10.8417 5.45669 10.9935 5.42002 11.8496 5.45914L12.7563 5.50047L12.7933 5.00995L12.8303 4.51943L14.4253 3.88052C16.0079 3.24677 16.029 3.24211 17.0969 3.29803C17.6889 3.32906 18.3553 3.35444 18.5778 3.35444ZM29.3793 13.6117C29.2796 13.6444 28.858 13.8118 28.4424 13.9836L27.6868 14.2961V24.6446C27.6868 30.3362 27.646 34.9931 27.5961 34.9933C27.5462 34.9936 24.1899 34.7427 20.1375 34.4356C16.0852 34.1287 12.5527 33.894 12.2874 33.9141L11.8053 33.9506L12.1872 34.3368C12.6787 34.8338 13.4471 35.2081 14.2753 35.3539C14.6367 35.4175 18.3957 35.728 22.6284 36.0438C30.2612 36.6133 30.3282 36.6161 30.7817 36.388C31.045 36.2554 31.4085 35.9052 31.639 35.5621L32.039 34.9662V25.8659C32.039 16.0601 32.0401 16.0786 31.4041 15.1213C31.2531 14.894 30.8853 14.5285 30.5869 14.3089C30.2885 14.0893 29.949 13.8248 29.8327 13.7212C29.7164 13.6176 29.6074 13.5371 29.5909 13.5424C29.5743 13.5477 29.4791 13.5788 29.3793 13.6117Z" fill="#024477"/>
<path fill-rule="evenodd" clip-rule="evenodd" d="M14.3581 3.69118L12.5749 4.393V4.8672V5.34142L11.7589 5.25938C10.9605 5.17905 10.8988 5.1945 8.90335 5.97823C7.78157 6.41872 6.74248 6.85982 6.59414 6.95841C6.0188 7.34077 5.92571 7.80934 5.92571 10.3218V12.6535L4.71676 13.1217L3.50781 13.5899V15.3965C3.50781 17.4639 3.50419 17.4569 4.57278 17.4569C4.90137 17.4569 5.3401 17.4913 5.54791 17.5335C5.92184 17.6094 5.92571 17.6179 5.92571 18.3634V19.1166L4.71676 19.5848L3.50781 20.053V21.8748C3.50781 22.9698 3.55653 23.7271 3.63004 23.7732C3.69726 23.8152 4.24358 23.8821 4.84406 23.9214L5.93599 23.9933L5.90057 24.7888L5.86526 25.5844L4.71676 26.0351L3.56826 26.4859V28.3788V30.2717L4.74699 30.3786L5.92571 30.4856L5.92837 33.3218C5.93127 36.4472 6.01106 36.8648 6.71213 37.4241C7.20067 37.8139 7.6718 37.9003 10.2477 38.072L12.5749 38.227V39.534V40.8409L14.2372 40.9646L15.8995 41.0882L16.9876 40.6892C17.586 40.4699 18.1708 40.2515 18.2872 40.2038C18.4701 40.129 18.4988 40.1924 18.4988 40.6724C18.4988 41.337 18.4631 41.3241 20.6144 41.4337L22.0652 41.5076L23.1438 41.0708C23.737 40.8305 24.2675 40.6339 24.3225 40.6339C24.3775 40.6339 24.4226 40.8823 24.4226 41.1858C24.4226 41.5853 24.4709 41.7376 24.5974 41.7376C24.6936 41.7376 25.4533 41.7966 26.2859 41.8688L27.7995 42L29.617 41.2938L31.4345 40.5877V40.1194V39.6512L32.2506 39.7259C33.0423 39.7982 33.1268 39.7768 35.0895 39.0064C36.2021 38.5696 37.2414 38.1266 37.3988 38.022C37.9915 37.628 38.0838 37.1747 38.0838 34.6548V32.3302L39.1416 31.923C39.7234 31.6991 40.2675 31.4637 40.3505 31.3999C40.4595 31.3164 40.5016 30.7788 40.5016 29.4756V27.6673L40.0483 27.5913C39.799 27.5494 39.3409 27.5146 39.0306 27.5139C38.1319 27.5117 38.0838 27.4658 38.0839 26.6104L38.0841 25.857L39.2928 25.3901L40.5016 24.9232V23.0394V21.1554L39.2875 21.0681L38.0735 20.9808L38.1088 20.1847L38.1442 19.3886L39.2927 18.9406L40.4412 18.4926V16.5952C40.4412 14.7876 40.4297 14.6966 40.1994 14.6734C40.0664 14.6602 39.5359 14.6141 39.0207 14.571L38.0838 14.4928L38.0818 11.5909C38.0799 8.80988 38.0684 8.66849 37.8079 8.202C37.2583 7.21753 37.0268 7.14702 33.5238 6.89649L31.4423 6.74761L31.4082 5.44957L31.3741 4.15154L29.6816 4.02768L27.989 3.90395L26.8017 4.36491C26.1488 4.61851 25.5912 4.826 25.5625 4.826C25.534 4.826 25.5107 4.58283 25.5107 4.28569V3.74539L24.9364 3.67586C24.6205 3.6376 23.844 3.57162 23.2108 3.52919C22.0926 3.45426 22.0269 3.46481 20.9319 3.89377C20.3117 4.1367 19.7554 4.33548 19.6956 4.33548C19.6358 4.33548 19.5868 4.09378 19.5868 3.79824V3.261L18.4081 3.18178C17.7597 3.13825 16.9846 3.07705 16.6854 3.04603C16.233 2.99894 15.8409 3.10759 14.3581 3.69118ZM18.4383 3.34868L19.2846 3.43501L18.8774 3.60939C18.6535 3.70516 17.9191 4.00438 17.2453 4.27417L16.0204 4.76469L15.986 6.02164C15.967 6.71303 15.9816 7.2786 16.0183 7.2786C16.1751 7.2786 18.4432 6.75889 18.4912 6.71193C18.5203 6.6836 18.5747 6.27083 18.6121 5.7949L18.6801 4.92938L20.3122 4.30053C22.0658 3.62496 22.2541 3.60093 24.3017 3.79113C25.3608 3.88948 25.4002 3.85698 23.1835 4.71122L21.8838 5.21204V6.5037C21.8838 7.52766 21.9171 7.78236 22.0445 7.73282C22.1329 7.69836 22.683 7.56948 23.267 7.44648C24.4729 7.19215 24.5418 7.11489 24.5458 6.01367L24.5481 5.37784L26.1477 4.76616L27.7472 4.15436L29.2535 4.19188C30.0818 4.21248 30.8275 4.26779 30.9105 4.315C30.9968 4.36393 30.378 4.66229 29.4648 5.01191L27.8681 5.6231L27.8337 6.88005C27.8073 7.84061 27.8359 8.13676 27.9546 8.13603C28.3712 8.13345 31.0051 7.38946 31.1862 7.22329C31.4361 6.99385 32.4942 6.97509 34.7718 7.15965C36.4221 7.29344 36.7539 7.35402 36.7539 7.52178C36.7539 7.57904 36.0875 7.88685 35.2729 8.20581C34.4584 8.52489 33.7755 8.79909 33.7556 8.81515C33.7355 8.83134 33.8852 9.10996 34.0881 9.43443L34.4569 10.0245V13.0131C34.4569 15.8029 34.471 15.9975 34.6685 15.936C34.7848 15.8999 35.3697 15.7567 35.9681 15.6179C37.4342 15.278 38.2208 15.0074 38.138 14.8715C38.0598 14.7432 38.7408 14.7376 39.513 14.8601L40.0355 14.943L38.4551 15.554L36.8748 16.165V17.9857V19.8064L36.5423 19.7404C36.3595 19.704 35.8291 19.6582 35.3636 19.6386L34.5174 19.6029L34.483 20.9971L34.4487 22.3911L35.027 22.3037C36.457 22.0873 38.1235 21.6464 38.2281 21.4567C38.3033 21.3206 38.4967 21.2611 38.8454 21.267C39.9663 21.286 39.8724 21.4322 38.3422 22.0488L36.8748 22.6402V24.4194V26.1987L35.6659 26.1142L34.4569 26.0297V27.4456C34.4569 28.2717 34.5054 28.8615 34.5733 28.8615C34.6374 28.8615 35.4637 28.698 36.4097 28.4981C37.5405 28.2592 38.1651 28.0703 38.2335 27.9463C38.3108 27.8064 38.5435 27.7578 39.1375 27.7578C39.5775 27.7578 39.9043 27.7914 39.8638 27.8325C39.8233 27.8737 39.1477 28.1731 38.3627 28.498L36.9352 29.0887L36.9018 30.8812L36.8683 32.6738L35.6626 32.5895L34.4569 32.5053V35.4108C34.4569 38.4639 34.4208 38.702 33.8814 39.1971C33.4494 39.5937 32.9889 39.6312 30.6352 39.461C29.3793 39.3701 28.2312 39.2935 28.0839 39.2904C27.8268 39.2853 27.8148 39.3347 27.7817 40.542L27.7472 41.7989L26.9614 41.7555C26.5292 41.7317 25.822 41.6765 25.3898 41.6329L24.604 41.5537L24.5696 40.3036L24.5352 39.0535L24.0256 38.9908C23.7453 38.9562 23.1486 38.8964 22.6999 38.8579L21.8838 38.7876V40.0891V41.3907L20.9469 41.3144C20.4316 41.2725 19.6972 41.2072 19.3148 41.1693L18.6197 41.1004V39.8425V38.5847L17.8036 38.5066C17.3547 38.4635 16.7564 38.428 16.4738 38.4275L15.96 38.4266V39.6653V40.9039L14.4186 40.8157C13.5709 40.7672 12.8363 40.7032 12.7865 40.6735C12.7367 40.6438 12.6958 40.0516 12.6958 39.3575V38.0954L10.6708 37.9502C7.12148 37.6957 6.88767 37.6285 6.35537 36.7094C6.12688 36.3148 6.10391 36.0444 6.06752 33.3221L6.02799 30.3638L5.47646 30.287C5.17302 30.2449 4.65897 30.2104 4.33401 30.2104H3.7432L3.77656 28.4027L3.81005 26.5951L4.92833 26.1648L6.04661 25.7345V24.7986V23.8628L4.89496 23.7753L3.74332 23.6876L3.77668 21.9098L3.81005 20.1322L4.93304 19.6961L6.05616 19.2602L6.0211 18.3278L5.98616 17.3956L5.50258 17.3654C5.23661 17.3488 4.73332 17.3035 4.3843 17.2646L3.7496 17.194V15.4408V13.6877L4.86788 13.2604L5.98616 12.833L6.04661 10.393C6.08408 8.87782 6.16013 7.86011 6.24705 7.7078C6.55654 7.16578 7.05487 6.87552 8.88219 6.17321C10.6228 5.50415 10.8754 5.43915 11.7365 5.43915H12.6812L12.7188 4.98481L12.7563 4.53034L14.3884 3.88825C16.146 3.19686 16.4954 3.15039 18.4383 3.34868ZM28.5633 13.9841L27.8077 14.29L27.7921 16.6398C27.7835 17.9323 27.7682 22.5601 27.7579 26.9239C27.7476 31.2877 27.7008 34.8969 27.654 34.9445C27.5827 35.0168 15.0783 34.1544 13.0887 33.9401C12.3964 33.8654 12.2617 34.0044 12.7865 34.252C13.4358 34.5584 13.8715 34.6292 16.2018 34.8083C26.6494 35.6105 30.0412 35.8493 30.2107 35.7944C30.3187 35.7593 30.6398 35.5143 30.9244 35.25L31.4418 34.7693L31.4079 25.408C31.3744 16.1397 31.3715 16.041 31.1156 15.4796C30.8402 14.8755 29.7266 13.6476 29.4716 13.6669C29.3875 13.6731 28.9789 13.8159 28.5633 13.9841Z" fill="#013156"/>
<path fill-rule="evenodd" clip-rule="evenodd" d="M14.3581 3.69118L12.5749 4.393V4.8672V5.34142L11.7589 5.25938C10.9605 5.17905 10.8988 5.1945 8.90335 5.97823C7.78157 6.41872 6.74248 6.85982 6.59414 6.95841C6.0188 7.34077 5.92571 7.80934 5.92571 10.3218V12.6535L4.71676 13.1217L3.50781 13.5899V15.3965C3.50781 17.4639 3.50419 17.4569 4.57278 17.4569C4.90137 17.4569 5.3401 17.4913 5.54791 17.5335C5.92184 17.6094 5.92571 17.6179 5.92571 18.3634V19.1166L4.71676 19.5848L3.50781 20.053V21.8748C3.50781 22.9698 3.55653 23.7271 3.63004 23.7732C3.69726 23.8152 4.24358 23.8821 4.84406 23.9214L5.93599 23.9933L5.90057 24.7888L5.86526 25.5844L4.71676 26.0351L3.56826 26.4859V28.3788V30.2717L4.74699 30.3786L5.92571 30.4856L5.92837 33.3218C5.93127 36.4472 6.01106 36.8648 6.71213 37.4241C7.20067 37.8139 7.6718 37.9003 10.2477 38.072L12.5749 38.227V39.534V40.8409L14.2372 40.9646L15.8995 41.0882L16.9876 40.6892C17.586 40.4699 18.1708 40.2515 18.2872 40.2038C18.4701 40.129 18.4988 40.1924 18.4988 40.6724C18.4988 41.337 18.4631 41.3241 20.6144 41.4337L22.0652 41.5076L23.1438 41.0708C23.737 40.8305 24.2675 40.6339 24.3225 40.6339C24.3775 40.6339 24.4226 40.8823 24.4226 41.1858C24.4226 41.5853 24.4709 41.7376 24.5974 41.7376C24.6936 41.7376 25.4533 41.7966 26.2859 41.8688L27.7995 42L29.617 41.2938L31.4345 40.5877V40.1194V39.6512L32.2506 39.7259C33.0423 39.7982 33.1268 39.7768 35.0895 39.0064C36.2021 38.5696 37.2414 38.1266 37.3988 38.022C37.9915 37.628 38.0838 37.1747 38.0838 34.6548V32.3302L39.1416 31.923C39.7234 31.6991 40.2675 31.4637 40.3505 31.3999C40.4595 31.3164 40.5016 30.7788 40.5016 29.4756V27.6673L40.0483 27.5913C39.799 27.5494 39.3409 27.5146 39.0306 27.5139C38.1319 27.5117 38.0838 27.4658 38.0839 26.6104L38.0841 25.857L39.2928 25.3901L40.5016 24.9232V23.0394V21.1554L39.2875 21.0681L38.0735 20.9808L38.1088 20.1847L38.1442 19.3886L39.2927 18.9406L40.4412 18.4926V16.5952C40.4412 14.7876 40.4297 14.6966 40.1994 14.6734C40.0664 14.6602 39.5359 14.6141 39.0207 14.571L38.0838 14.4928L38.0818 11.5909C38.0799 8.80988 38.0684 8.66849 37.8079 8.202C37.2583 7.21753 37.0268 7.14702 33.5238 6.89649L31.4423 6.74761L31.4082 5.44957L31.3741 4.15154L29.6816 4.02768L27.989 3.90395L26.8017 4.36491C26.1488 4.61851 25.5912 4.826 25.5625 4.826C25.534 4.826 25.5107 4.58283 25.5107 4.28569V3.74539L24.9364 3.67586C24.6205 3.6376 23.844 3.57162 23.2108 3.52919C22.0926 3.45426 22.0269 3.46481 20.9319 3.89377C20.3117 4.1367 19.7554 4.33548 19.6956 4.33548C19.6358 4.33548 19.5868 4.09378 19.5868 3.79824V3.261L18.4081 3.18178C17.7597 3.13825 16.9846 3.07705 16.6854 3.04603C16.233 2.99894 15.8409 3.10759 14.3581 3.69118ZM18.0454 3.29901C18.7603 3.34255 19.345 3.416 19.345 3.46248C19.345 3.50896 18.611 3.82093 17.7137 4.15583L16.0823 4.76469L16.0816 6.02029L16.0809 7.27602L17.0783 6.89808C17.6268 6.69022 18.1684 6.49193 18.2818 6.45735C18.4406 6.40891 18.4961 6.22533 18.5236 5.65743C18.5584 4.93784 18.5693 4.91662 18.9824 4.7653C19.2151 4.67995 20.0366 4.37987 20.808 4.09832L22.2105 3.58646L23.649 3.71448C24.4402 3.78487 25.1392 3.843 25.2024 3.84374C25.5019 3.84705 24.9634 4.10678 23.5461 4.64292L22.0047 5.22602V6.43625C22.0047 7.3252 22.0449 7.64526 22.1558 7.64171C22.239 7.63913 22.7694 7.45408 23.3346 7.23041L24.3622 6.82364L24.3986 6.12649C24.4406 5.32032 24.2807 5.43142 26.6265 4.57988L28.0445 4.06521L29.5602 4.15387C30.3936 4.20267 31.1007 4.28373 31.1314 4.33401C31.162 4.38441 30.4676 4.70325 29.5881 5.04257L27.989 5.65952L27.9547 6.89097L27.9202 8.12229L28.2569 8.02358C28.442 7.96925 29.1826 7.69064 29.9028 7.40466L31.2121 6.88447L33.2274 7.02328C36.3869 7.24083 36.6114 7.2759 37.0065 7.61313C37.2 7.77832 37.3584 7.98213 37.3584 8.06601C37.3584 8.14989 36.6602 8.48405 35.8069 8.80853L34.2555 9.39838L34.4113 9.84071C34.5205 10.1506 34.5687 11.1188 34.5725 13.0729C34.5759 14.8447 34.6218 15.8627 34.6986 15.8627C34.7649 15.8627 35.4916 15.5962 36.3135 15.2706C37.7773 14.6906 37.8295 14.6797 38.8826 14.7322C39.4739 14.7616 40.0005 14.8261 40.053 14.8753C40.1055 14.9246 39.4119 15.2557 38.5116 15.6111L36.8748 16.2573V18.0335V19.8098L35.7263 19.7223L34.5778 19.635V21.0068C34.5778 22.606 34.339 22.5226 36.4781 21.6706L37.8343 21.1303L38.9926 21.2129C39.6296 21.2583 40.1073 21.338 40.0542 21.3901C40.0011 21.4421 39.2776 21.759 38.4464 22.0941L36.9352 22.7034L36.9018 24.493L36.8684 26.2826L35.9346 26.2155C35.4212 26.1787 34.9057 26.1295 34.7894 26.1062C34.5979 26.068 34.5778 26.1959 34.5778 27.4561V28.8482L35.2125 28.6237C35.5615 28.5002 36.2702 28.2272 36.7873 28.0172C37.7717 27.6171 38.3836 27.5596 39.5949 27.7533C40.0418 27.8248 40.1363 27.872 39.9576 27.9345C39.8246 27.981 39.0902 28.2776 38.3255 28.5935L36.9352 29.168L36.8748 30.944L36.8144 32.72L36.2703 32.6892C35.9711 32.6724 35.4679 32.6268 35.152 32.5879L34.5778 32.5173L34.5751 35.3187C34.5727 37.8299 34.5481 38.1746 34.337 38.6465C34.1549 39.0532 33.9825 39.2263 33.5788 39.4074C33.0909 39.6264 32.9044 39.634 30.7644 39.5235C29.504 39.4584 28.3521 39.3776 28.2048 39.3439C27.9436 39.284 27.9362 39.3128 27.9026 40.5407L27.8681 41.7989L27.3846 41.7773C27.1186 41.7654 26.3768 41.7195 25.736 41.6749L24.571 41.5941L24.4863 40.3334L24.4016 39.0725L23.669 38.9947C23.266 38.9521 22.7288 38.9171 22.475 38.9171H22.0134L21.9789 40.1128L21.9443 41.3084L20.9167 41.2808C20.3515 41.2656 19.6091 41.221 19.2669 41.1816L18.6447 41.11L18.558 39.8817C18.5059 39.1421 18.4167 38.6367 18.334 38.611C18.2584 38.5877 17.7206 38.5338 17.1387 38.4912L16.0809 38.4138V39.6638V40.9138L14.4825 40.8256C13.6034 40.7772 12.8417 40.711 12.79 40.6785C12.7381 40.6461 12.6958 40.0534 12.6958 39.3615V38.1035L10.5499 37.9545C7.75473 37.7604 7.44451 37.7122 6.98028 37.3995C6.76605 37.2551 6.46817 36.8913 6.31862 36.5908C6.0599 36.0713 6.04661 35.9062 6.04661 33.2064V30.368L5.30346 30.2891C4.89484 30.2458 4.37801 30.2104 4.15496 30.2104H3.7496V28.3994V26.5885L4.86788 26.1561L5.98616 25.7239L6.02146 24.7787L6.05676 23.8336L5.53788 23.8325C5.25245 23.832 4.73199 23.7965 4.38116 23.7538L3.74332 23.6761L3.77668 21.8903L3.81005 20.1045L4.92833 19.6719L6.04661 19.2393V18.3624C6.04661 17.3639 6.02037 17.3405 4.8981 17.3343C3.68988 17.3275 3.7496 17.4267 3.7496 15.4287V13.6744L4.8981 13.223L6.04661 12.7716L6.04927 10.485C6.05313 7.12237 5.93973 7.28608 9.12942 6.04188C10.7208 5.42112 10.8779 5.38372 11.7589 5.41524L12.6958 5.44872V4.98223V4.51563L14.479 3.82056C15.4598 3.43832 16.371 3.14683 16.504 3.17283C16.637 3.19882 17.3307 3.2556 18.0454 3.29901ZM28.6539 14.0115L27.8681 14.3475L27.8372 24.6521L27.8064 34.9567L28.9713 35.0397C29.9207 35.1074 30.1893 35.0875 30.4228 34.9324L30.7092 34.7421V25.3859C30.7092 15.2692 30.7063 15.221 30.0619 14.4276C29.9086 14.239 29.7484 13.9881 29.706 13.87C29.6099 13.6031 29.6089 13.6032 28.6539 14.0115Z" fill="#012745"/>
<path fill-rule="evenodd" clip-rule="evenodd" d="M14.3581 3.69118L12.5749 4.393V4.8672V5.34142L11.7589 5.25938C10.9605 5.17905 10.8988 5.1945 8.90335 5.97823C7.78157 6.41872 6.74248 6.85982 6.59414 6.95841C6.0188 7.34077 5.92571 7.80934 5.92571 10.3218V12.6535L4.71676 13.1217L3.50781 13.5899V15.3965C3.50781 17.4639 3.50419 17.4569 4.57278 17.4569C4.90137 17.4569 5.3401 17.4913 5.54791 17.5335C5.92184 17.6094 5.92571 17.6179 5.92571 18.3634V19.1166L4.71676 19.5848L3.50781 20.053V21.8748C3.50781 22.9698 3.55653 23.7271 3.63004 23.7732C3.69726 23.8152 4.24358 23.8821 4.84406 23.9214L5.93599 23.9933L5.90057 24.7888L5.86526 25.5844L4.71676 26.0351L3.56826 26.4859V28.3788V30.2717L4.74699 30.3786L5.92571 30.4856L5.92837 33.3218C5.93127 36.4472 6.01106 36.8648 6.71213 37.4241C7.20067 37.8139 7.6718 37.9003 10.2477 38.072L12.5749 38.227V39.534V40.8409L14.2372 40.9646L15.8995 41.0882L16.9876 40.6892C17.586 40.4699 18.1708 40.2515 18.2872 40.2038C18.4701 40.129 18.4988 40.1924 18.4988 40.6724C18.4988 41.337 18.4631 41.3241 20.6144 41.4337L22.0652 41.5076L23.1438 41.0708C23.737 40.8305 24.2675 40.6339 24.3225 40.6339C24.3775 40.6339 24.4226 40.8823 24.4226 41.1858C24.4226 41.5853 24.4709 41.7376 24.5974 41.7376C24.6936 41.7376 25.4533 41.7966 26.2859 41.8688L27.7995 42L29.617 41.2938L31.4345 40.5877V40.1194V39.6512L32.2506 39.7259C33.0423 39.7982 33.1268 39.7768 35.0895 39.0064C36.2021 38.5696 37.2414 38.1266 37.3988 38.022C37.9915 37.628 38.0838 37.1747 38.0838 34.6548V32.3302L39.1416 31.923C39.7234 31.6991 40.2675 31.4637 40.3505 31.3999C40.4595 31.3164 40.5016 30.7788 40.5016 29.4756V27.6673L40.0483 27.5913C39.799 27.5494 39.3409 27.5146 39.0306 27.5139C38.1319 27.5117 38.0838 27.4658 38.0839 26.6104L38.0841 25.857L39.2928 25.3901L40.5016 24.9232V23.0394V21.1554L39.2875 21.0681L38.0735 20.9808L38.1088 20.1847L38.1442 19.3886L39.2927 18.9406L40.4412 18.4926V16.5952C40.4412 14.7876 40.4297 14.6966 40.1994 14.6734C40.0664 14.6602 39.5359 14.6141 39.0207 14.571L38.0838 14.4928L38.0818 11.5909C38.0799 8.80988 38.0684 8.66849 37.8079 8.202C37.2583 7.21753 37.0268 7.14702 33.5238 6.89649L31.4423 6.74761L31.4082 5.44957L31.3741 4.15154L29.6816 4.02768L27.989 3.90395L26.8017 4.36491C26.1488 4.61851 25.5912 4.826 25.5625 4.826C25.534 4.826 25.5107 4.58283 25.5107 4.28569V3.74539L24.9364 3.67586C24.6205 3.6376 23.844 3.57162 23.2108 3.52919C22.0926 3.45426 22.0269 3.46481 20.9319 3.89377C20.3117 4.1367 19.7554 4.33548 19.6956 4.33548C19.6358 4.33548 19.5868 4.09378 19.5868 3.79824V3.261L18.4081 3.18178C17.7597 3.13825 16.9846 3.07705 16.6854 3.04603C16.233 2.99894 15.8409 3.10759 14.3581 3.69118ZM18.2682 3.30073L19.428 3.38068L19.3712 3.98071C19.3348 4.36418 19.3614 4.58074 19.4448 4.58074C19.5166 4.58074 20.1509 4.35523 20.8545 4.07955C22.101 3.59124 22.1607 3.58033 23.1874 3.65525C23.7671 3.69756 24.4872 3.76108 24.7877 3.79628L25.3343 3.86029L25.2879 4.35375C25.2624 4.62513 25.2885 4.89259 25.3459 4.9479C25.4033 5.0032 26.0137 4.82649 26.7026 4.55523L27.9549 4.06202L29.5738 4.15007L31.1927 4.23799V5.5169C31.1927 6.43123 31.2358 6.81028 31.3439 6.84645C31.427 6.87429 32.6247 6.9784 34.0056 7.07773C36.8269 7.28081 37.1 7.36726 37.5679 8.20519C37.8266 8.66849 37.8381 8.81331 37.84 11.6528L37.842 14.6169L38.5976 14.6884C39.0132 14.7278 39.5436 14.7735 39.7763 14.7902L40.1994 14.8203V16.5844V18.3484L39.0509 18.7996L37.9024 19.2507V20.1626V21.0745L39.0811 21.1848L40.2599 21.2951V23.0423V24.7895L39.0811 25.2623L37.9024 25.7351V26.6545V27.5739L38.3255 27.604C38.5583 27.6207 39.0887 27.6664 39.5043 27.7058L40.2599 27.7773V29.5247V31.2719L39.202 31.6762C38.6203 31.8985 38.0763 32.1356 37.9931 32.2028C37.8817 32.2929 37.842 32.9384 37.842 34.6562C37.842 37.8065 37.9618 37.6386 34.88 38.8048C34.4811 38.9558 34 39.1945 33.8111 39.3354C33.5218 39.5512 33.293 39.5916 32.3603 39.5916H31.2532L31.2174 40.0219L31.1816 40.4522L29.5249 41.1173C27.7391 41.8341 27.628 41.8497 25.5409 41.676L24.5435 41.5929V40.9908C24.5435 40.5575 24.4963 40.3887 24.3749 40.3887C24.2822 40.3887 23.6522 40.6142 22.9748 40.8899C21.7499 41.3884 21.7368 41.3907 20.5743 41.3144C18.5458 41.1814 18.6197 41.2119 18.6197 40.5058C18.6197 40.1716 18.5789 39.898 18.529 39.8978C18.4104 39.8973 16.1775 40.7656 16.0204 40.8733C15.9539 40.9189 15.1805 40.9036 14.3015 40.8392L12.7037 40.7222L12.6695 39.4211L12.6354 38.12L9.9989 37.9211C7.38987 37.7243 7.35783 37.7184 6.91608 37.3606C6.08372 36.6861 6.04697 36.5132 6.04685 33.2605L6.04661 30.3629L4.86788 30.256L3.68915 30.1491V28.3743V26.5994L4.83766 26.151L5.98616 25.7026V24.7987V23.895L4.97245 23.8097C4.41489 23.7629 3.88307 23.6951 3.79046 23.659C3.6553 23.6064 3.62871 23.2525 3.65555 21.8658L3.68915 20.1381L4.83766 19.6835L5.98616 19.2288L6.02134 18.3592L6.05652 17.4895L5.67377 17.4119C5.46329 17.3692 5.03943 17.3335 4.73187 17.3325C3.57999 17.3291 3.62871 17.4103 3.62871 15.4955C3.62871 14.2918 3.67199 13.7733 3.77983 13.687C3.863 13.6204 4.40703 13.3856 4.98878 13.1652L6.04661 12.7643V10.4385C6.04661 7.89543 6.13111 7.49222 6.75662 7.04867C6.93131 6.92481 7.95747 6.48396 9.03694 6.06898C10.954 5.3321 11.0195 5.3164 11.8477 5.39439L12.6958 5.47435V4.98898V4.50349L14.4186 3.81516C15.7496 3.28332 16.2513 3.13751 16.6249 3.17381C16.8909 3.19968 17.6304 3.25683 18.2682 3.30073ZM28.9123 14.0088C28.2762 14.2706 28.2262 14.3555 28.111 15.3722C28.0017 16.3349 27.9306 34.6155 28.0358 34.6693C28.0766 34.6901 28.45 34.6012 28.8655 34.4715L29.6211 34.2358V24.0069C29.6211 18.381 29.5804 13.7811 29.5304 13.7849C29.4805 13.7887 29.2024 13.8893 28.9123 14.0088Z" fill="#031B31"/>
<path fill-rule="evenodd" clip-rule="evenodd" d="M14.3565 3.69495L12.5733 4.39296V4.8462C12.5733 5.20048 12.5201 5.31158 12.3297 5.35499C12.1269 5.4011 12.132 5.40772 12.3599 5.39411C12.5843 5.38075 12.6404 5.29662 12.6706 4.92849C12.6939 4.64509 12.7833 4.44888 12.9124 4.39725C14.6278 3.71212 15.7574 3.28672 16.2001 3.15943C16.5629 3.05519 16.6434 3.00209 16.4419 3.00001C16.2757 2.99829 15.3373 3.311 14.3565 3.69495ZM17.381 3.19805C17.5983 3.22528 17.9247 3.22479 18.1064 3.19683C18.2881 3.16875 18.1103 3.14643 17.7113 3.14716C17.3124 3.14778 17.1638 3.17071 17.381 3.19805ZM19.0714 3.32044C19.455 3.36876 19.4643 3.38421 19.4643 3.97528C19.4643 4.30835 19.4783 4.58071 19.4954 4.58071C19.5124 4.58071 20.0157 4.38119 20.6136 4.13728C21.2116 3.89337 22.0545 3.65289 22.4867 3.60286L23.2725 3.51186L22.6332 3.49445C22.1622 3.48157 21.7057 3.58998 20.8983 3.90624C20.2957 4.1423 19.7537 4.33545 19.694 4.33545C19.6341 4.33545 19.5852 4.08712 19.5852 3.78361V3.23178L19.1318 3.2514C18.6855 3.27077 18.6845 3.27175 19.0714 3.32044ZM23.9094 3.68857C24.1266 3.7158 24.453 3.71531 24.6347 3.68735C24.8164 3.65927 24.6386 3.63695 24.2396 3.63768C23.8407 3.6383 23.6921 3.66123 23.9094 3.68857ZM25.237 3.80348C25.3259 3.8399 25.3881 4.08847 25.3881 4.40694C25.3881 4.70493 25.4378 4.9486 25.4986 4.9486C25.6857 4.9486 27.8592 4.0832 27.9818 3.95995C28.0453 3.89606 27.5383 4.06493 26.8551 4.33496C26.1719 4.60499 25.5895 4.82597 25.5609 4.82597C25.5324 4.82597 25.509 4.57764 25.509 4.27413C25.509 3.82666 25.469 3.72414 25.2975 3.73199C25.1711 3.73775 25.1467 3.76657 25.237 3.80348ZM28.7451 4.05646C28.9624 4.08369 29.2888 4.0832 29.4705 4.05524C29.6522 4.02715 29.4744 4.00484 29.0754 4.00557C28.6765 4.00619 28.5279 4.02912 28.7451 4.05646ZM30.6471 4.19773L31.2515 4.27413L31.312 5.56175L31.3724 6.84936L32.1583 6.85966L32.9441 6.87009L32.1925 6.82336L31.441 6.77652L31.4066 5.46401L31.3724 4.1515L30.7075 4.13642L30.0426 4.12121L30.6471 4.19773ZM10.1827 5.46462C9.83211 5.60479 9.56783 5.74238 9.5954 5.77046C9.62308 5.79842 9.85556 5.72987 10.1121 5.61803C10.3686 5.5062 10.8505 5.37192 11.183 5.31955C11.7715 5.22697 11.7746 5.22427 11.3039 5.21716C11.0379 5.21311 10.5334 5.32446 10.1827 5.46462ZM8.64456 6.06882C7.98568 6.33971 7.7393 6.50673 8.22058 6.35627C8.66499 6.2172 9.50993 5.82467 9.36957 5.82234C9.30307 5.82123 8.97678 5.93221 8.64456 6.06882ZM7.01175 6.75739C5.9856 7.29132 5.92406 7.49157 5.92406 10.3013V12.6534L4.71511 13.1216L3.50617 13.5898V15.3935C3.50617 16.3854 3.54703 17.2228 3.59684 17.2543C3.64664 17.2857 3.67131 16.4954 3.65136 15.4983L3.61521 13.6852L4.79986 13.2103L5.98451 12.7352L6.04496 10.2607C6.11483 7.39813 6.13938 7.3275 7.25947 6.76131C7.62215 6.57798 7.86056 6.42629 7.78935 6.42408C7.71814 6.42187 7.36827 6.57185 7.01175 6.75739ZM33.4601 6.99958C33.6773 7.02681 34.0037 7.02632 34.1854 6.99836C34.3671 6.97027 34.1893 6.94796 33.7903 6.94869C33.3914 6.9493 33.2428 6.97224 33.4601 6.99958ZM35.0317 7.12221C35.2489 7.14944 35.5753 7.14895 35.7571 7.12099C35.9388 7.0929 35.7609 7.07059 35.362 7.07132C34.963 7.07193 34.8144 7.09487 35.0317 7.12221ZM36.5565 7.28273C37.0307 7.42683 37.4652 7.85554 37.7327 8.44355C37.9292 8.87533 37.9562 9.27584 37.9585 11.7852L37.9612 14.6364L38.475 14.6158L38.9888 14.5952L38.5355 14.5471L38.0821 14.4989L38.0802 11.5939C38.0782 8.80972 38.0669 8.66858 37.8062 8.20197C37.501 7.65516 36.8461 7.15054 36.4624 7.16648C36.2655 7.1747 36.2867 7.20082 36.5565 7.28273ZM39.6235 14.7233L40.2582 14.7719V16.5886V18.4054L39.1399 18.8393L38.0217 19.2732L37.9864 20.2045L37.951 21.1357L38.4699 21.1369C38.7554 21.1373 39.2745 21.1727 39.6235 21.2152L40.2582 21.2926V23.0843V24.8761L39.1399 25.3061L38.0217 25.7362L37.9865 26.6087C37.9462 27.6053 37.972 27.6289 39.1097 27.6351C40.3301 27.6419 40.2692 27.5368 40.2311 29.5704L40.1978 31.3527L39.0795 31.7838L37.9612 32.215V34.5285C37.9612 37.7857 38.0215 37.688 35.3754 38.7253C34.0998 39.2254 33.209 39.6357 33.3725 39.648C33.5163 39.6588 37.136 38.1955 37.4004 38.0198C37.9896 37.6281 38.0821 37.1717 38.0821 34.6547V32.3301L39.1399 31.923C39.7218 31.6991 40.2658 31.4636 40.3489 31.3999C40.4578 31.3164 40.5 30.7788 40.5 29.4756V27.6673L40.0466 27.5912C39.7974 27.5494 39.3393 27.5146 39.0289 27.5139C38.1302 27.5116 38.0821 27.4658 38.0822 26.6103L38.0825 25.857L39.2912 25.39L40.5 24.9232V23.0393V21.1554L39.2859 21.0681L38.0718 20.9807L38.1071 20.1846L38.1426 19.3885L39.291 18.9406L40.4396 18.4926V16.5951V14.6977L39.7142 14.6862C39.0171 14.6751 39.0136 14.6766 39.6235 14.7233ZM4.20349 17.4231C4.42074 17.4504 4.74715 17.4499 4.92886 17.4219C5.11056 17.3938 4.93272 17.3715 4.53377 17.3722C4.13482 17.3729 3.98624 17.3958 4.20349 17.4231ZM5.65205 17.5434C5.89928 17.5917 5.92406 17.6659 5.92406 18.3566V19.1165L4.71197 19.586L3.5 20.0553L3.53325 21.9122C3.56335 23.5854 3.58777 23.7712 3.7806 23.789C3.93643 23.8033 3.9438 23.7928 3.80756 23.7502C3.6481 23.7003 3.62561 23.4291 3.65414 21.9002L3.68751 20.1087L4.83601 19.6582L5.98451 19.2075L6.02005 18.3322L6.0556 17.4569L5.71782 17.4735C5.43275 17.4876 5.42247 17.4985 5.65205 17.5434ZM4.68489 23.9223C4.90093 23.9495 5.25467 23.9495 5.47071 23.9223C5.68675 23.8952 5.51 23.8729 5.0778 23.8729C4.6456 23.8729 4.46885 23.8952 4.68489 23.9223ZM5.8994 24.7704L5.86362 25.5844L4.71511 26.0351L3.56661 26.4858V28.3788V30.2717L4.08126 30.2837L4.59603 30.2957L4.10834 30.2458L3.62065 30.1959L3.65414 28.3943L3.68751 26.5928L4.86623 26.117L6.04496 25.6412V24.7987C6.04496 23.7225 5.94619 23.7033 5.8994 24.7704ZM5.34764 30.4191L5.91971 30.4689L5.95537 33.3134L5.99104 36.1579L5.98777 33.2761L5.98451 30.3943L5.38004 30.3818L4.77556 30.3693L5.34764 30.4191ZM6.04653 36.4032C6.04399 36.8607 7.02783 37.816 7.4957 37.8102C7.59543 37.809 7.45217 37.7045 7.17738 37.5779C6.84117 37.4231 6.5746 37.1732 6.36255 36.8141C6.18906 36.5207 6.04689 36.3357 6.04653 36.4032ZM8.0095 37.9012C8.19229 37.9293 8.49163 37.9293 8.67442 37.9012C8.85721 37.8731 8.70767 37.8502 8.34196 37.8502C7.97625 37.8502 7.82671 37.8731 8.0095 37.9012ZM9.64376 38.025C9.86101 38.0522 10.1874 38.0517 10.3691 38.0237C10.5508 37.9956 10.373 37.9733 9.97404 37.9741C9.57509 37.9747 9.42651 37.9976 9.64376 38.025ZM11.2154 38.1476C11.4326 38.1748 11.7591 38.1743 11.9408 38.1464C12.1225 38.1183 11.9446 38.096 11.5457 38.0967C11.1467 38.0973 10.9981 38.1202 11.2154 38.1476ZM12.5989 39.4996L12.5733 40.8792L13.1475 40.8577L13.7218 40.8364L13.212 40.7895L12.7023 40.7428L12.6635 39.4314L12.6247 38.12L12.5989 39.4996ZM31.312 40.0025V40.4747L29.5288 41.1615C28.548 41.539 27.5552 41.8695 27.3225 41.8958L26.8993 41.9436L27.3707 41.9632C27.6884 41.9765 28.427 41.7556 29.6375 41.2852L31.4329 40.5877V40.1305C31.4329 39.879 31.5009 39.6455 31.584 39.6114C31.6743 39.5745 31.6499 39.5457 31.5236 39.5399C31.3571 39.5323 31.312 39.6308 31.312 40.0025ZM32.3094 39.7407C32.4922 39.7688 32.7915 39.7688 32.9743 39.7407C33.1571 39.7126 33.0075 39.6897 32.6418 39.6897C32.2761 39.6897 32.1266 39.7126 32.3094 39.7407ZM17.1314 40.4771C16.5464 40.7144 16.09 40.9309 16.1171 40.9584C16.1572 40.9992 17.3096 40.5976 18.2856 40.2027C18.4686 40.1287 18.4971 40.1932 18.4971 40.6821C18.4971 40.9928 18.5379 41.2471 18.5878 41.2472C18.6377 41.2472 18.6596 40.9713 18.6365 40.634C18.5859 39.8915 18.5772 39.8905 17.1314 40.4771ZM23.1719 40.8875C22.3785 41.2019 21.7354 41.3729 21.2376 41.4018L20.4919 41.4451L21.2786 41.4687C21.9263 41.4882 22.2554 41.4165 23.143 41.0631C23.7357 40.8271 24.2659 40.6339 24.3209 40.6339C24.3759 40.6339 24.421 40.8822 24.421 41.1857C24.421 41.71 24.4375 41.7367 24.7534 41.7209C25.0385 41.7066 25.0471 41.6966 24.8139 41.651C24.5813 41.6056 24.5419 41.5203 24.5419 41.0618C24.5419 40.767 24.5011 40.5012 24.4512 40.4712C24.4013 40.4411 23.8257 40.6285 23.1719 40.8875ZM14.3565 40.9678C14.5725 40.9951 14.9263 40.9951 15.1423 40.9678C15.3583 40.9407 15.1816 40.9184 14.7494 40.9184C14.3172 40.9184 14.1404 40.9407 14.3565 40.9678ZM15.6939 41.0856C15.7811 41.121 15.8854 41.1166 15.9256 41.0759C15.9657 41.0352 15.8944 41.0062 15.767 41.0115C15.6261 41.0174 15.5975 41.0464 15.6939 41.0856ZM19.1945 41.336C19.4117 41.3632 19.7381 41.3627 19.9198 41.3347C20.1015 41.3067 19.9237 41.2843 19.5247 41.2851C19.1258 41.2857 18.9772 41.3086 19.1945 41.336ZM25.7206 41.8262C25.9368 41.8535 26.2903 41.8535 26.5064 41.8262C26.7226 41.7991 26.5457 41.7768 26.1135 41.7768C25.6813 41.7768 25.5044 41.7991 25.7206 41.8262Z" fill="#000F16"/>
</svg>
