<svg width="44" height="44" viewBox="0 0 44 44" fill="none" xmlns="http://www.w3.org/2000/svg">
<path fill-rule="evenodd" clip-rule="evenodd" d="M7.12377 3.94724C5.28734 4.72199 4.71105 5.23794 4.34502 6.4351C4.10596 7.21724 4.10352 7.37334 4.10352 21.6435C4.10352 31.3602 4.14371 36.2509 4.22665 36.642C4.50161 37.9373 5.51955 39.0784 6.69583 39.4099C7.11018 39.5267 9.38107 39.6792 13.9774 39.8986L20.6569 40.2175L21.7023 39.7682C22.2773 39.5212 22.7613 39.31 22.7779 39.2991C22.7944 39.2882 22.652 38.9316 22.4613 38.5068C21.1773 35.6454 21.1514 32.1993 22.394 29.5369C23.5116 27.1426 25.4063 25.2942 27.0786 24.9671C28.0278 24.7815 29.409 24.7637 30.2536 24.9264C30.8449 25.0403 30.9368 25.0228 31.9247 24.6088C32.4997 24.3678 33.0087 24.1155 33.0556 24.0481C33.1025 23.9808 33.1417 21.9384 33.1427 19.5096L33.1445 15.0936L28.0858 9.50394C23.4355 4.36554 22.9971 3.91414 22.6551 3.91285C22.4505 3.91203 19.6956 3.78034 16.533 3.62025C8.47964 3.21251 8.90027 3.19784 7.12377 3.94724ZM24.3638 13.3508C25.873 15.0227 27.0917 16.4067 27.0722 16.4265C27.0528 16.4461 25.7713 16.4016 24.2244 16.3276L21.4119 16.193V13.1404C21.4119 11.3391 21.4545 10.1335 21.5159 10.1993C21.573 10.2606 22.8547 11.6788 24.3638 13.3508ZM35.1954 28.7835C34.1933 29.2206 34.1163 29.2839 32.0479 31.3715L29.9275 33.5114L29.2417 32.7694C28.8646 32.3612 28.2363 31.6877 27.8455 31.2726L27.135 30.5178L26.1612 30.9093C25.258 31.2722 25.0882 31.3988 23.8223 32.6537C23.0717 33.3979 22.458 34.0361 22.4587 34.0718C22.4592 34.1074 23.5119 35.2986 24.7977 36.7188C26.0834 38.1389 27.4094 39.6063 27.7441 39.9795L28.3527 40.6583L29.4213 40.19L30.4899 39.7216L34.6922 35.5285C37.0035 33.2224 38.8946 31.2907 38.8946 31.236C38.8946 31.1142 36.4005 28.3252 36.2969 28.3311C36.2561 28.3335 35.7605 28.5371 35.1954 28.7835Z" fill="#036CBD"/>
<path fill-rule="evenodd" clip-rule="evenodd" d="M7.12377 3.94724C5.28734 4.72199 4.71105 5.23794 4.34502 6.4351C4.10596 7.21724 4.10352 7.37334 4.10352 21.6435C4.10352 31.3602 4.14371 36.2509 4.22665 36.642C4.50161 37.9373 5.51955 39.0784 6.69583 39.4099C7.11018 39.5267 9.38107 39.6792 13.9774 39.8986L20.6569 40.2175L21.7023 39.7682C22.2773 39.5212 22.7613 39.31 22.7779 39.2991C22.7944 39.2882 22.652 38.9316 22.4613 38.5068C21.1773 35.6454 21.1514 32.1993 22.394 29.5369C23.5116 27.1426 25.4063 25.2942 27.0786 24.9671C28.0278 24.7815 29.409 24.7637 30.2536 24.9264C30.8449 25.0403 30.9368 25.0228 31.9247 24.6088C32.4997 24.3678 33.0087 24.1155 33.0556 24.0481C33.1025 23.9808 33.1417 21.9384 33.1427 19.5096L33.1445 15.0936L28.0858 9.50394C23.4355 4.36554 22.9971 3.91414 22.6551 3.91285C22.4505 3.91203 19.6956 3.78034 16.533 3.62025C8.47964 3.21251 8.90027 3.19784 7.12377 3.94724ZM27.8053 9.59912C30.4863 12.5644 32.6798 15.0265 32.6798 15.0703C32.6798 15.114 32.2877 15.3226 31.8086 15.5337L30.9373 15.9175V20.3744V24.8313L30.676 24.7675C28.9543 24.3474 26.3647 24.7136 24.539 25.6354C22.8628 26.4819 21.2086 28.1655 20.3377 29.9114C19.3119 31.9679 18.965 34.9043 19.4988 37.0122C19.6951 37.7872 20.1799 39.0575 20.4217 39.4303L20.5963 39.6996L21.1251 39.4632C21.416 39.3333 21.7432 39.2484 21.8524 39.2747C22.0055 39.3117 21.9782 39.3529 21.733 39.455C21.5582 39.5278 21.2184 39.6832 20.9779 39.8004C20.5529 40.0076 20.3601 40.0046 14.0936 39.6955C10.5477 39.5205 7.44566 39.3455 7.20021 39.3066C6.17169 39.1437 5.2073 38.3537 4.69827 37.257L4.39393 36.6014V21.6956V6.78979L4.67144 6.16914C5.0161 5.39862 5.78406 4.69711 6.57281 4.43244C7.13725 4.24301 7.4883 4.24923 14.0406 4.56647L20.9161 4.89921L21.7739 4.52763C22.2456 4.32329 22.699 4.16777 22.7813 4.18186C22.8635 4.19606 25.1244 6.63381 27.8053 9.59912ZM19.2048 12.3562V17.1769H19.6177C20.1923 17.1769 27.0247 17.5123 27.779 17.5775C28.2535 17.6186 28.3876 17.5947 28.3598 17.4742C28.3091 17.2543 19.5527 7.61982 19.3613 7.57346C19.232 7.54212 19.2048 8.37368 19.2048 12.3562ZM24.3638 13.3508C25.873 15.0227 27.0917 16.4067 27.0722 16.4265C27.0528 16.4461 25.7713 16.4016 24.2244 16.3276L21.4119 16.193V13.1404C21.4119 11.3391 21.4545 10.1335 21.5159 10.1993C21.573 10.2606 22.8547 11.6788 24.3638 13.3508ZM35.1954 28.7835C34.1933 29.2206 34.1163 29.2839 32.0479 31.3715L29.9275 33.5114L29.2417 32.7694C28.8646 32.3612 28.2363 31.6877 27.8455 31.2726L27.135 30.5178L26.1612 30.9093C25.258 31.2722 25.0882 31.3988 23.8223 32.6537C23.0717 33.3979 22.458 34.0361 22.4587 34.0718C22.4592 34.1074 23.5119 35.2986 24.7977 36.7188C26.0834 38.1389 27.4094 39.6063 27.7441 39.9795L28.3527 40.6583L29.4213 40.19L30.4899 39.7216L34.6922 35.5285C37.0035 33.2224 38.8946 31.2907 38.8946 31.236C38.8946 31.1142 36.4005 28.3252 36.2969 28.3311C36.2561 28.3335 35.7605 28.5371 35.1954 28.7835ZM37.3264 29.7999C37.9333 30.4808 38.4299 31.0965 38.4299 31.1683C38.4299 31.24 38.064 31.4529 37.6168 31.6414C36.8361 31.9705 36.6376 32.1516 32.6516 36.1693L28.4995 40.3544L28.155 40.0037C27.9655 39.8109 26.6622 38.3854 25.2587 36.8361L22.7068 34.0193L23.8831 32.8201C24.9402 31.7425 25.1591 31.5777 26.046 31.1927L27.0327 30.7644L27.504 31.2919C27.7632 31.5819 28.3672 32.2721 28.8464 32.8257C29.3256 33.3792 29.7669 33.8346 29.827 33.8376C29.8871 33.8408 30.9416 32.8325 32.1703 31.5969C34.2056 29.5504 34.4799 29.3166 35.2554 28.9666C35.7235 28.7553 36.1328 28.578 36.1647 28.5722C36.1967 28.5666 36.7194 29.119 37.3264 29.7999Z" fill="#045797"/>
<path fill-rule="evenodd" clip-rule="evenodd" d="M7.12377 3.94724C5.28734 4.72199 4.71105 5.23794 4.34502 6.4351C4.10596 7.21724 4.10352 7.37334 4.10352 21.6435C4.10352 31.3602 4.14371 36.2509 4.22665 36.642C4.50161 37.9373 5.51955 39.0784 6.69583 39.4099C7.11018 39.5267 9.38107 39.6792 13.9774 39.8986L20.6569 40.2175L21.7023 39.7682C22.2773 39.5212 22.7613 39.31 22.7779 39.2991C22.7944 39.2882 22.652 38.9316 22.4613 38.5068C21.1773 35.6454 21.1514 32.1993 22.394 29.5369C23.5116 27.1426 25.4063 25.2942 27.0786 24.9671C28.0278 24.7815 29.409 24.7637 30.2536 24.9264C30.8449 25.0403 30.9368 25.0228 31.9247 24.6088C32.4997 24.3678 33.0087 24.1155 33.0556 24.0481C33.1025 23.9808 33.1417 21.9384 33.1427 19.5096L33.1445 15.0936L28.0858 9.50394C23.4355 4.36554 22.9971 3.91414 22.6551 3.91285C22.4505 3.91203 19.6956 3.78034 16.533 3.62025C8.47964 3.21251 8.90027 3.19784 7.12377 3.94724ZM16.0103 3.79841C18.6937 3.92658 21.3493 4.05111 21.9118 4.07529L22.9342 4.11918L27.8621 9.56239C30.5724 12.5561 32.7746 15.0563 32.7558 15.1181C32.7371 15.1801 32.3463 15.3881 31.8876 15.5803L31.0535 15.9299V20.353V24.7762L29.5067 24.7165C27.7095 24.6472 26.8111 24.775 25.4779 25.2893C22.4417 26.4608 20.1582 29.2358 19.5497 32.4935C19.3827 33.3879 19.3278 35.5363 19.4635 35.8706C19.5418 36.0633 19.5793 36.0654 19.9715 35.8999C20.4899 35.681 20.4826 35.681 20.4826 35.8972C20.4826 35.994 20.532 36.0732 20.5923 36.0732C20.6527 36.0732 20.8853 36.2448 21.1093 36.4547C21.4121 36.7383 21.5309 36.9591 21.5718 37.3156C21.6267 37.7952 21.9656 38.5243 22.3216 38.9291C22.5454 39.1836 22.5019 39.2187 21.3183 39.7381L20.5859 40.0594L14.5227 39.7719C7.89673 39.4577 6.89179 39.367 6.22374 39.0226C5.64257 38.723 4.84534 37.8423 4.52879 37.1502L4.27776 36.6014L4.24558 22.1205C4.22421 12.4755 4.25383 7.41912 4.3341 6.97992C4.57119 5.68347 5.36343 4.80497 6.72765 4.3261C7.16908 4.17118 7.89626 3.90815 8.34349 3.74173C9.05744 3.476 9.2771 3.44678 10.144 3.50218C10.6871 3.53692 13.3269 3.67025 16.0103 3.79841ZM19.321 12.3505C19.321 14.9404 19.3487 17.0595 19.3825 17.0595C19.4165 17.0595 19.7546 16.9275 20.1341 16.7661C21.1255 16.3445 21.0306 16.3381 26.1134 17.1729C27.2617 17.3615 28.2252 17.4916 28.2544 17.462C28.2838 17.4324 28.1479 17.2372 27.9525 17.0284C27.757 16.8196 25.8359 14.6946 23.6831 12.3061C21.5304 9.91766 19.6683 7.89106 19.545 7.80244C19.3248 7.64411 19.321 7.72181 19.321 12.3505ZM24.3638 13.3508C25.873 15.0227 27.0917 16.4067 27.0722 16.4265C27.0528 16.4461 25.7713 16.4016 24.2244 16.3276L21.4119 16.193V13.1404C21.4119 11.3391 21.4545 10.1335 21.5159 10.1993C21.573 10.2606 22.8547 11.6788 24.3638 13.3508ZM35.1954 28.7835C34.1933 29.2206 34.1163 29.2839 32.0479 31.3715L29.9275 33.5114L29.2417 32.7694C28.8646 32.3612 28.2363 31.6877 27.8455 31.2726L27.135 30.5178L26.1612 30.9093C25.258 31.2722 25.0882 31.3988 23.8223 32.6537C23.0717 33.3979 22.458 34.0361 22.4587 34.0718C22.4592 34.1074 23.5119 35.2986 24.7977 36.7188C26.0834 38.1389 27.4094 39.6063 27.7441 39.9795L28.3527 40.6583L29.4213 40.19L30.4899 39.7216L34.6922 35.5285C37.0035 33.2224 38.8946 31.2907 38.8946 31.236C38.8946 31.1142 36.4005 28.3252 36.2969 28.3311C36.2561 28.3335 35.7605 28.5371 35.1954 28.7835ZM37.4425 29.8164C38.0495 30.4961 38.5461 31.1096 38.5461 31.1796C38.5461 31.2495 38.1569 31.4767 37.6812 31.6844C36.8487 32.048 36.6602 32.2172 32.6118 36.2358L28.4072 40.4097L25.4967 37.2145L22.5862 34.0193L23.8868 32.7633C24.9958 31.6923 25.3241 31.4469 26.1165 31.0959L27.0459 30.6843L27.9749 31.7062C28.4859 32.2684 29.1243 32.9659 29.3934 33.2564L29.8827 33.7846L32.0811 31.5691C34.0809 29.5539 34.3567 29.3186 35.1349 28.9647C35.6055 28.7507 36.0689 28.5768 36.1647 28.5781C36.2605 28.5794 36.8356 29.1366 37.4425 29.8164Z" fill="#03477C"/>
</svg>
