<svg width="44" height="44" viewBox="0 0 44 44" fill="none" xmlns="http://www.w3.org/2000/svg">
<path fill-rule="evenodd" clip-rule="evenodd" d="M17.719 5.06235C17.0351 5.18355 16.5154 5.41225 15.2559 6.14605C13.97 6.8952 13.3155 7.54577 12.8681 8.51928C11.9347 10.5499 12.264 12.9247 13.7152 14.6289C15.5047 16.7306 20.5313 22.3146 20.732 22.4239C21.129 22.6402 21.7701 22.4746 22.7383 21.9056C23.5434 21.4325 24.0471 20.9492 27.1024 17.7188C29.0021 15.7102 30.6971 13.856 30.869 13.5983C32.2548 11.5212 31.939 8.61165 30.129 6.7815C29.388 6.03234 28.7008 5.62617 27.8267 5.42092C26.5893 5.13033 25.5193 5.38107 23.7797 6.36959L22.5295 7.08006L22.1103 6.67295C20.7742 5.37532 19.2034 4.79919 17.719 5.06235ZM15.2436 25.463C13.9927 25.7169 11.743 26.9444 10.0742 28.2838L9.04966 29.1061L7.3686 29.0711L5.68754 29.0362L4.74874 29.5968C4.23236 29.9052 3.74017 30.2429 3.65497 30.3473C3.53304 30.4967 3.5 31.253 3.5 33.8895C3.5 35.7331 3.53961 37.3857 3.58796 37.5619C3.77125 38.2284 3.43391 38.1975 15.5987 38.6592C24.4984 38.9968 26.9789 39.0584 27.4401 38.9533C28.6683 38.6732 30.2183 37.6133 35.2247 33.6302C37.8832 31.5151 40.1455 29.6492 40.2518 29.4839C40.5566 29.0103 40.5862 27.9374 40.3098 27.3859C40.0483 26.8642 39.8122 26.6269 39.2835 26.3543C38.1842 25.7876 36.8741 26.4542 32.9448 29.58C30.1504 31.8028 30.132 31.815 29.4824 31.8654C29.1232 31.8933 27.179 31.8474 25.162 31.7633L21.4947 31.6106L21.2187 31.2839C21.067 31.1042 20.9427 30.9055 20.9427 30.8423C20.9427 30.7698 21.8447 30.7398 23.3893 30.761L25.8359 30.7945L26.9743 30.1498C27.6338 29.7763 28.2346 29.3427 28.4021 29.1192C28.7434 28.6639 28.8623 27.7951 28.6661 27.19C28.5009 26.6803 27.8209 25.9754 27.3461 25.8214C26.9824 25.7036 18.4811 25.333 16.6828 25.3566C16.1445 25.3637 15.4969 25.4115 15.2436 25.463Z" fill="#036BBB"/>
<path fill-rule="evenodd" clip-rule="evenodd" d="M17.719 5.06235C17.0351 5.18355 16.5154 5.41225 15.2559 6.14605C13.97 6.8952 13.3155 7.54577 12.8681 8.51928C11.9347 10.5499 12.264 12.9247 13.7152 14.6289C15.5047 16.7306 20.5313 22.3146 20.732 22.4239C21.129 22.6402 21.7701 22.4746 22.7383 21.9056C23.5434 21.4325 24.0471 20.9492 27.1024 17.7188C29.0021 15.7102 30.6971 13.856 30.869 13.5983C32.2548 11.5212 31.939 8.61165 30.129 6.7815C29.388 6.03234 28.7008 5.62617 27.8267 5.42092C26.5893 5.13033 25.5193 5.38107 23.7797 6.36959L22.5295 7.08006L22.1103 6.67295C20.7742 5.37532 19.2034 4.79919 17.719 5.06235ZM20.5555 5.78782C20.8477 5.92766 21.3922 6.32997 21.7655 6.68186L22.4442 7.32153L23.323 6.86742C24.1507 6.43968 24.2661 6.41237 25.3066 6.39772C25.9144 6.38904 26.4751 6.43406 26.5529 6.49747C26.6513 6.57789 26.9243 6.48423 27.4506 6.18965L28.2071 5.76625L28.7599 6.00843C29.0639 6.14159 29.5344 6.48059 29.8054 6.76169L30.2981 7.27288L29.6451 7.64811C29.286 7.85441 29.0089 8.0565 29.0294 8.09717C30.1737 10.367 30.301 12.0103 29.4722 13.8135C29.189 14.4295 28.6351 15.0685 25.8748 17.9629C24.0803 19.8447 22.4869 21.543 22.3339 21.7371C21.9728 22.1949 21.3909 22.4473 21.0241 22.3053C20.7982 22.2179 16.1046 17.0431 14.0025 14.5639C12.5153 12.8099 12.1814 10.5953 13.1067 8.62197C14.0115 6.69253 15.6282 5.81924 17.7555 6.11065C18.6701 6.23595 18.6844 6.23396 19.264 5.89203C19.5856 5.70213 19.8883 5.54377 19.9366 5.54014C19.9847 5.5365 20.2633 5.64798 20.5555 5.78782ZM15.2436 25.463C13.9927 25.7169 11.743 26.9444 10.0742 28.2838L9.04966 29.1061L7.3686 29.0711L5.68754 29.0362L4.74874 29.5968C4.23236 29.9052 3.74017 30.2429 3.65497 30.3473C3.53304 30.4967 3.5 31.253 3.5 33.8895C3.5 35.7331 3.53961 37.3857 3.58796 37.5619C3.77125 38.2284 3.43391 38.1975 15.5987 38.6592C24.4984 38.9968 26.9789 39.0584 27.4401 38.9533C28.6683 38.6732 30.2183 37.6133 35.2247 33.6302C37.8832 31.5151 40.1455 29.6492 40.2518 29.4839C40.5566 29.0103 40.5862 27.9374 40.3098 27.3859C40.0483 26.8642 39.8122 26.6269 39.2835 26.3543C38.1842 25.7876 36.8741 26.4542 32.9448 29.58C30.1504 31.8028 30.132 31.815 29.4824 31.8654C29.1232 31.8933 27.179 31.8474 25.162 31.7633L21.4947 31.6106L21.2187 31.2839C21.067 31.1042 20.9427 30.9055 20.9427 30.8423C20.9427 30.7698 21.8447 30.7398 23.3893 30.761L25.8359 30.7945L26.9743 30.1498C27.6338 29.7763 28.2346 29.3427 28.4021 29.1192C28.7434 28.6639 28.8623 27.7951 28.6661 27.19C28.5009 26.6803 27.8209 25.9754 27.3461 25.8214C26.9824 25.7036 18.4811 25.333 16.6828 25.3566C16.1445 25.3637 15.4969 25.4115 15.2436 25.463ZM27.7068 26.2802C27.9127 26.408 28.0804 26.5529 28.0796 26.6021C28.0789 26.6515 27.7708 26.8637 27.3951 27.0738L26.7119 27.4558L26.8784 27.8613C27.2773 28.8332 26.9809 29.8548 26.1575 30.346L25.6455 30.6515L22.7767 30.5668L19.9079 30.4821L19.5618 30.8344C19.3715 31.0282 19.2157 31.2997 19.2157 31.4379C19.2157 31.8343 19.4353 32.1617 19.6545 32.0923C19.914 32.0101 20.1921 32.1999 20.1933 32.46C20.1942 32.6544 20.4681 32.6809 23.8786 32.817C25.905 32.8979 27.8248 32.9349 28.145 32.8993C28.7445 32.8327 29.6035 32.4569 30.2118 31.9952C30.4022 31.8505 31.7326 30.7993 33.1682 29.659C34.6038 28.5187 35.9348 27.5033 36.1263 27.4025C36.3176 27.3017 36.7489 27.2208 37.0844 27.2226C37.5557 27.2252 37.8569 27.1386 38.4071 26.8427L39.1195 26.4594L39.436 26.6999C39.6101 26.8322 39.7692 26.9917 39.7897 27.0541C39.8101 27.1165 39.5387 27.3243 39.1865 27.5159C38.6123 27.828 38.5539 27.8942 38.6215 28.1571C38.8148 28.9098 38.8112 29.7367 38.6131 30.1115C38.3922 30.5289 29.0817 38.0072 28.1916 38.482C27.4283 38.8891 26.3929 38.8854 14.6911 38.4333L4.35222 38.0337L4.07003 37.7637L3.78783 37.4938V34.0061V30.5185L4.10226 30.2667C4.40426 30.0248 4.48658 30.0182 6.17225 30.0979L7.9278 30.181L8.45396 29.7844C8.74341 29.5663 9.53461 28.951 10.2123 28.417C12.2177 26.8367 13.3356 26.3988 15.3644 26.3988C16.7489 26.3988 25.5787 26.7426 25.6337 26.7986C25.6547 26.8199 25.9937 26.6607 26.3872 26.4449C26.7804 26.229 27.1542 26.0514 27.2175 26.0501C27.2808 26.049 27.501 26.1525 27.7068 26.2802Z" fill="#0362AC"/>
<path fill-rule="evenodd" clip-rule="evenodd" d="M17.719 5.06235C17.0351 5.18355 16.5154 5.41225 15.2559 6.14605C13.97 6.8952 13.3155 7.54577 12.8681 8.51928C11.9347 10.5499 12.264 12.9247 13.7152 14.6289C15.5047 16.7306 20.5313 22.3146 20.732 22.4239C21.129 22.6402 21.7701 22.4746 22.7383 21.9056C23.5434 21.4325 24.0471 20.9492 27.1024 17.7188C29.0021 15.7102 30.6971 13.856 30.869 13.5983C32.2548 11.5212 31.939 8.61165 30.129 6.7815C29.388 6.03234 28.7008 5.62617 27.8267 5.42092C26.5893 5.13033 25.5193 5.38107 23.7797 6.36959L22.5295 7.08006L22.1103 6.67295C20.7742 5.37532 19.2034 4.79919 17.719 5.06235ZM20.5921 5.76485C20.8743 5.91161 21.4083 6.3261 21.7787 6.68596C22.4054 7.29445 22.47 7.32891 22.705 7.17934C23.4447 6.70858 24.1388 6.45082 25.051 6.30804C25.7173 6.20384 26.252 6.04125 26.6069 5.83483C27.0541 5.57483 27.2334 5.53345 27.642 5.59546C28.8024 5.77164 30.1816 6.78548 30.7186 7.85699C30.851 8.12132 30.9593 8.36549 30.9593 8.39984C30.9593 8.43407 30.6744 8.62584 30.3261 8.82593C29.9778 9.02603 29.6934 9.22425 29.6942 9.26645C29.6949 9.30865 29.7721 9.63335 29.8656 9.98794C30.2262 11.3559 30.0035 13.0373 29.3097 14.1844C28.8347 14.9698 22.0957 22.1011 21.6516 22.2884C21.3913 22.3981 21.2463 22.3951 20.9679 22.274C20.6025 22.1151 14.1256 14.9011 13.4481 13.8985C12.6126 12.6622 12.3114 10.7152 12.7415 9.33103C13.3462 7.38541 14.9612 6.05907 16.8048 5.99401C17.2471 5.97842 17.6585 5.85862 18.2048 5.58655C18.9483 5.21626 18.9998 5.207 19.5289 5.34954C19.8316 5.43112 20.3101 5.61797 20.5921 5.76485ZM15.2436 25.463C13.9927 25.7169 11.743 26.9444 10.0742 28.2838L9.04966 29.1061L7.3686 29.0711L5.68754 29.0362L4.74874 29.5968C4.23236 29.9052 3.74017 30.2429 3.65497 30.3473C3.53304 30.4967 3.5 31.253 3.5 33.8895C3.5 35.7331 3.53961 37.3857 3.58796 37.5619C3.77125 38.2284 3.43391 38.1975 15.5987 38.6592C24.4984 38.9968 26.9789 39.0584 27.4401 38.9533C28.6683 38.6732 30.2183 37.6133 35.2247 33.6302C37.8832 31.5151 40.1455 29.6492 40.2518 29.4839C40.5566 29.0103 40.5862 27.9374 40.3098 27.3859C40.0483 26.8642 39.8122 26.6269 39.2835 26.3543C38.1842 25.7876 36.8741 26.4542 32.9448 29.58C30.1504 31.8028 30.132 31.815 29.4824 31.8654C29.1232 31.8933 27.179 31.8474 25.162 31.7633L21.4947 31.6106L21.2187 31.2839C21.067 31.1042 20.9427 30.9055 20.9427 30.8423C20.9427 30.7698 21.8447 30.7398 23.3893 30.761L25.8359 30.7945L26.9743 30.1498C27.6338 29.7763 28.2346 29.3427 28.4021 29.1192C28.7434 28.6639 28.8623 27.7951 28.6661 27.19C28.5009 26.6803 27.8209 25.9754 27.3461 25.8214C26.9824 25.7036 18.4811 25.333 16.6828 25.3566C16.1445 25.3637 15.4969 25.4115 15.2436 25.463ZM27.5008 26.1034C27.8523 26.2885 28.3115 26.8137 28.3109 27.03C28.3107 27.1018 28.0214 27.3189 27.668 27.5123C27.0301 27.8615 27.026 27.8672 27.0952 28.3109C27.253 29.3223 26.6229 30.3473 25.7011 30.5791C25.4306 30.647 24.3036 30.6517 22.7849 30.5911C21.4234 30.5367 20.1916 30.5221 20.0476 30.5585C19.6208 30.6663 19.3309 31.0463 19.3309 31.4978C19.3309 31.8333 19.3739 31.9081 19.5669 31.9081C19.9297 31.9081 20.509 32.2539 20.4424 32.4308C20.3956 32.5549 20.905 32.6056 22.9947 32.6842C24.4307 32.7383 26.331 32.7836 27.2175 32.7849C28.7693 32.7871 28.851 32.7751 29.41 32.4595C29.7294 32.2792 31.3473 31.0556 33.0056 29.7402C35.8567 27.4789 36.4362 27.1049 37.0919 27.1028C37.2037 27.1024 37.5813 26.9376 37.9311 26.7367C38.4262 26.4522 38.6483 26.3879 38.9336 26.4459C39.3001 26.5205 40.0551 27.1556 40.0546 27.3888C40.0544 27.4568 39.7667 27.6653 39.4152 27.8523L38.7762 28.1923L38.8514 28.8053C38.9403 29.5298 38.674 30.2583 38.1414 30.7472C37.2377 31.5765 28.8115 38.1715 28.3383 38.4199C28.0385 38.5773 27.5592 38.7499 27.2732 38.8035C26.6761 38.9153 4.54265 38.0958 4.21532 37.9497C3.72198 37.7296 3.6727 37.3672 3.6727 33.9576C3.6727 31.8661 3.71668 30.6368 3.79693 30.4842C4.03756 30.0265 4.52895 29.9309 6.32077 29.994L7.99021 30.0529L9.02641 29.2837C9.59632 28.8606 10.3994 28.2502 10.811 27.9273C11.7902 27.159 12.794 26.6647 13.8297 26.441C14.638 26.2662 17.1511 26.2724 20.3671 26.4571C20.842 26.4844 22.189 26.5354 23.3605 26.5704L25.4905 26.6341L26.1237 26.2875C26.8515 25.8892 27.045 25.8633 27.5008 26.1034Z" fill="#05599C"/>
<path fill-rule="evenodd" clip-rule="evenodd" d="M17.719 5.06235C17.0351 5.18355 16.5154 5.41225 15.2559 6.14605C13.97 6.8952 13.3155 7.54577 12.8681 8.51928C11.9347 10.5499 12.264 12.9247 13.7152 14.6289C15.5047 16.7306 20.5313 22.3146 20.732 22.4239C21.129 22.6402 21.7701 22.4746 22.7383 21.9056C23.5434 21.4325 24.0471 20.9492 27.1024 17.7188C29.0021 15.7102 30.6971 13.856 30.869 13.5983C32.2548 11.5212 31.939 8.61165 30.129 6.7815C29.388 6.03234 28.7008 5.62617 27.8267 5.42092C26.5893 5.13033 25.5193 5.38107 23.7797 6.36959L22.5295 7.08006L22.1103 6.67295C20.7742 5.37532 19.2034 4.79919 17.719 5.06235ZM20.374 5.60941C20.7872 5.80634 21.4274 6.25377 21.7968 6.60379L22.4684 7.24018L24.0945 6.41624C25.6983 5.60355 25.735 5.59159 26.757 5.55303C27.5993 5.52115 27.916 5.56077 28.4497 5.76449C29.2252 6.06059 30.1527 6.86847 30.6796 7.70707C31.0304 8.26539 31.4202 9.33912 31.4196 9.74553C31.4194 9.84856 31.1487 10.0733 30.8031 10.2572L30.1868 10.5849L30.1183 11.5466C30.0454 12.5692 29.747 13.6069 29.324 14.3076C29.0395 14.7788 22.3379 21.8802 21.8689 22.2073C21.5663 22.4184 21.2134 22.4667 20.8916 22.3409C20.641 22.2431 13.6671 14.353 13.2813 13.7309C12.5648 12.5752 12.3136 11.1966 12.5821 9.89346C12.9593 8.06271 13.7564 7.08392 15.6582 6.11616C17.4328 5.21321 17.5406 5.18074 18.642 5.21813C19.452 5.24568 19.7534 5.31378 20.374 5.60941ZM15.2436 25.463C13.9927 25.7169 11.743 26.9444 10.0742 28.2838L9.04966 29.1061L7.3686 29.0711L5.68754 29.0362L4.74874 29.5968C4.23236 29.9052 3.74017 30.2429 3.65497 30.3473C3.53304 30.4967 3.5 31.253 3.5 33.8895C3.5 35.7331 3.53961 37.3857 3.58796 37.5619C3.77125 38.2284 3.43391 38.1975 15.5987 38.6592C24.4984 38.9968 26.9789 39.0584 27.4401 38.9533C28.6683 38.6732 30.2183 37.6133 35.2247 33.6302C37.8832 31.5151 40.1455 29.6492 40.2518 29.4839C40.5566 29.0103 40.5862 27.9374 40.3098 27.3859C40.0483 26.8642 39.8122 26.6269 39.2835 26.3543C38.1842 25.7876 36.8741 26.4542 32.9448 29.58C30.1504 31.8028 30.132 31.815 29.4824 31.8654C29.1232 31.8933 27.179 31.8474 25.162 31.7633L21.4947 31.6106L21.2187 31.2839C21.067 31.1042 20.9427 30.9055 20.9427 30.8423C20.9427 30.7698 21.8447 30.7398 23.3893 30.761L25.8359 30.7945L26.9743 30.1498C27.6338 29.7763 28.2346 29.3427 28.4021 29.1192C28.7434 28.6639 28.8623 27.7951 28.6661 27.19C28.5009 26.6803 27.8209 25.9754 27.3461 25.8214C26.9824 25.7036 18.4811 25.333 16.6828 25.3566C16.1445 25.3637 15.4969 25.4115 15.2436 25.463ZM21.8062 25.6918C26.7448 25.8349 27.2168 25.8741 27.706 26.1819C28.0932 26.4256 28.5418 27.1533 28.5413 27.537C28.5411 27.6722 28.3155 27.8667 27.9065 28.0844C27.4415 28.3317 27.2548 28.504 27.2079 28.7291C27.0276 29.5944 26.7783 30.0537 26.3218 30.3613C25.7997 30.713 25.9671 30.7026 21.9214 30.6378L19.849 30.6047L19.5899 30.9113C19.3211 31.2294 19.2473 31.5564 19.4443 31.5564C19.5067 31.5564 19.8245 31.7237 20.1508 31.928L20.744 32.2996L23.4051 32.3528C25.6821 32.3984 26.1305 32.3786 26.512 32.2157C27.1425 31.9464 29.5204 31.9375 29.4197 32.2048C29.2917 32.544 30.3998 31.7713 33.0188 29.6951C36.0484 27.2934 37.5667 26.3707 38.5126 26.3568C38.9936 26.3498 39.1849 26.4106 39.5344 26.682C39.9572 27.0104 40.2851 27.5912 40.2851 28.0122C40.2851 28.1478 40.064 28.3549 39.682 28.5769C39.2532 28.826 39.0499 29.0279 38.9785 29.2749C38.6436 30.4348 38.6897 30.39 33.8364 34.2539C31.2865 36.2839 28.9446 38.1121 28.6321 38.3163C27.5944 38.9946 27.9773 38.988 16.1791 38.5354C10.2346 38.3074 5.14031 38.1208 4.85834 38.1208C4.44536 38.1208 4.28037 38.0542 4.00923 37.7781L3.6727 37.4355V33.9889C3.6727 30.0008 3.5548 30.3811 5.02264 29.6349L5.85448 29.212L7.49801 29.2102L9.14154 29.2083L10.2353 28.3278C10.8784 27.8101 11.7797 27.226 12.4228 26.91C13.0244 26.6144 13.8275 26.221 14.2074 26.0358C15.0644 25.618 15.9242 25.4588 16.9706 25.5244C17.4139 25.5522 19.5899 25.6276 21.8062 25.6918Z" fill="#033B67"/>
</svg>
