<svg width="44" height="44" viewBox="0 0 44 44" fill="none" xmlns="http://www.w3.org/2000/svg">
<path fill-rule="evenodd" clip-rule="evenodd" d="M6.78165 6.24437C5.22969 6.6692 4.41653 7.30287 3.83406 8.5411L3.54321 9.1595L3.50978 16.1764C3.47478 23.5133 3.51492 24.3399 3.94744 25.1852C4.32383 25.921 5.10009 26.6609 5.86528 27.0133L6.56237 27.3344L11.6502 27.371C15.3408 27.3976 16.9146 27.3704 17.381 27.2722L18.024 27.1367V23.2666V19.3964L16.5983 19.3239C14.5436 19.2194 12.5749 19.252 11.9298 19.4012L11.3707 19.5305L10.7384 21.2582L10.1062 22.9858L9.2009 23.0182C8.517 23.0427 8.29705 23.0154 8.30152 22.9067C8.30477 22.8276 9.252 19.978 10.4064 16.5744L12.5055 10.386L14.5837 10.3557L16.6619 10.3255L17.52 12.8924C18.033 14.4268 18.4346 15.4594 18.5187 15.4594C18.9101 15.4594 19.7502 15.1053 20.1136 14.787C20.8139 14.1739 21.1135 14.1043 22.9296 14.1333C23.9644 14.1498 24.743 14.1091 25.0484 14.0226L25.5312 13.8856L25.4957 11.4111C25.4605 8.96392 25.4566 8.92947 25.1491 8.30494C24.7495 7.49354 24.0562 6.80256 23.2796 6.44173C22.708 6.17602 22.5069 6.15049 20.4282 6.0789C19.1981 6.03665 15.8267 6.00119 12.9362 6.00018C7.85927 5.99829 7.65006 6.00665 6.78165 6.24437ZM14.2186 12.0197L13.8238 12.1249L12.9047 14.8817C12.3993 16.3979 11.9857 17.7002 11.9857 17.7755C11.9857 17.8787 12.4747 17.9119 13.9705 17.9103C16.0542 17.908 17.0842 17.7568 17.0619 17.4565C17.0554 17.37 16.6335 16.0825 16.1243 14.5953C15.0926 11.5828 15.2186 11.753 14.2186 12.0197ZM22.024 15.7904C20.4491 16.192 19.5382 16.8342 18.9354 17.9682L18.639 18.5257V26.3309C18.639 34.0682 18.6411 34.1405 18.878 34.6514C19.1653 35.2708 19.8247 36.0215 20.3996 36.3834C21.2805 36.9378 21.5021 36.9532 29.1554 36.9877C35.7672 37.0175 36.3658 37.0047 37.0895 36.8174C38.738 36.3908 39.8199 35.5499 40.2727 34.3435C40.493 33.7563 40.5 33.5052 40.5 26.2752C40.5 19.0389 40.4931 18.7944 40.272 18.2054C39.9909 17.456 39.5267 16.8611 38.8475 16.3795C37.8894 15.7004 37.9569 15.706 30.0819 15.635C23.1664 15.5726 22.8548 15.5786 22.024 15.7904ZM29.9888 21.5363V23.5991H32.9521H35.9153V24.3796V25.1601H35.197C34.8019 25.1601 34.2339 25.2164 33.9346 25.2853L33.3904 25.4107L33.1431 26.3647C32.8426 27.5236 32.242 28.7675 31.5278 29.7098C31.2349 30.0963 30.9952 30.4539 30.9952 30.5044C30.9952 30.7046 34.3306 31.7388 34.9762 31.7388C35.1165 31.7388 35.2601 31.7854 35.2953 31.8423C35.3306 31.8991 35.2981 32.3949 35.2232 32.9438L35.0869 33.942L34.3549 33.7387C33.377 33.4671 32.1496 32.9535 31.0097 32.3391C30.0876 31.842 30.0654 31.8365 29.53 31.9646C29.231 32.036 28.4019 32.3903 27.6873 32.7517C25.9674 33.6215 24.0642 34.2165 24.0617 33.8852C24.0613 33.8392 23.9858 33.3041 23.8939 32.6959C23.802 32.0878 23.7395 31.5774 23.7552 31.5619C23.7708 31.5463 24.2865 31.4059 24.9013 31.25C25.8704 31.0041 27.1374 30.6057 27.7804 30.3448C27.888 30.3011 27.9761 30.2294 27.9761 30.1853C27.9761 30.1413 27.7442 29.8079 27.4608 29.4446C26.6003 28.3415 25.6278 26.1508 25.6278 25.3157C25.6278 25.0502 25.6209 25.0486 24.3978 25.0486H23.1678V24.2567V23.465L25.6558 23.4988C27.3994 23.5227 28.2859 23.4915 28.619 23.3944L29.0943 23.256V21.3647V19.4735H29.5416H29.9888V21.5363ZM27.4913 25.2093C27.194 25.2948 26.9216 25.3939 26.8859 25.4295C26.7796 25.5356 27.1827 26.8362 27.5583 27.5987C27.7507 27.9894 28.1183 28.5404 28.3752 28.8233L28.8422 29.3377L29.49 29.2022C30.2185 29.0499 30.4914 28.8371 31.0667 27.9728C31.4717 27.3642 32.1134 25.7747 32.1134 25.3799C32.1134 25.1755 32.033 25.1601 30.9673 25.1595C30.3369 25.1591 29.4186 25.1351 28.9265 25.1063C28.3446 25.0721 27.843 25.1082 27.4913 25.2093Z" fill="#036BBC"/>
<path fill-rule="evenodd" clip-rule="evenodd" d="M6.78165 6.24437C5.22969 6.6692 4.41653 7.30287 3.83406 8.5411L3.54321 9.1595L3.50978 16.1764C3.47478 23.5133 3.51492 24.3399 3.94744 25.1852C4.32383 25.921 5.10009 26.6609 5.86528 27.0133L6.56237 27.3344L11.6502 27.371C15.3408 27.3976 16.9146 27.3704 17.381 27.2722L18.024 27.1367V23.2666V19.3964L16.5983 19.3239C14.5436 19.2194 12.5749 19.252 11.9298 19.4012L11.3707 19.5305L10.7384 21.2582L10.1062 22.9858L9.2009 23.0182C8.517 23.0427 8.29705 23.0154 8.30152 22.9067C8.30477 22.8276 9.252 19.978 10.4064 16.5744L12.5055 10.386L14.5837 10.3557L16.6619 10.3255L17.52 12.8924C18.033 14.4268 18.4346 15.4594 18.5187 15.4594C18.9101 15.4594 19.7502 15.1053 20.1136 14.787C20.8139 14.1739 21.1135 14.1043 22.9296 14.1333C23.9644 14.1498 24.743 14.1091 25.0484 14.0226L25.5312 13.8856L25.4957 11.4111C25.4605 8.96392 25.4566 8.92947 25.1491 8.30494C24.7495 7.49354 24.0562 6.80256 23.2796 6.44173C22.708 6.17602 22.5069 6.15049 20.4282 6.0789C19.1981 6.03665 15.8267 6.00119 12.9362 6.00018C7.85927 5.99829 7.65006 6.00665 6.78165 6.24437ZM17.8004 6.4666C21.0056 6.50228 21.9896 6.55368 22.1292 6.69284C22.1561 6.71982 22.3311 6.69808 22.5179 6.64467C22.9275 6.52759 23.4982 6.78349 23.9983 7.30833L24.3256 7.65187L23.9703 7.72279C23.6189 7.79281 23.5231 7.95627 23.7131 8.16155C23.767 8.21987 23.9053 8.54345 24.0203 8.88074C24.197 9.39901 24.2294 9.83933 24.2297 11.7241L24.2301 13.9541L22.4409 13.9598C20.859 13.9647 20.5784 13.9944 20.0181 14.2151C19.6696 14.3525 19.2625 14.5606 19.1135 14.6774C18.9645 14.7944 18.7779 14.9052 18.6989 14.9239C18.6027 14.9465 18.2888 14.1652 17.7492 12.5603L16.9432 10.163L14.1441 10.1333L11.345 10.1035L9.1063 16.7119C7.87504 20.3466 6.89001 23.3579 6.91729 23.404C6.94458 23.45 7.66224 23.4876 8.51219 23.4876C9.80797 23.4876 10.0819 23.458 10.2095 23.3047C10.2933 23.2041 10.6405 22.3636 10.981 21.4371L11.6002 19.7522L14.1411 19.7223L16.6822 19.6923V23.4361V27.1799L11.7341 27.1425C7.35507 27.1094 6.7291 27.0828 6.29121 26.9112C5.15679 26.4666 4.16974 25.342 3.93827 24.2301C3.85564 23.8334 3.82645 21.3122 3.84759 16.4022L3.87867 9.1595L4.17511 8.52895C4.48497 7.86997 5.20252 7.08666 5.7595 6.79955C6.62723 6.35209 6.88319 6.34495 17.8004 6.4666ZM14.2186 12.0197L13.8238 12.1249L12.9047 14.8817C12.3993 16.3979 11.9857 17.7002 11.9857 17.7755C11.9857 17.8787 12.4747 17.9119 13.9705 17.9103C16.0542 17.908 17.0842 17.7568 17.0619 17.4565C17.0554 17.37 16.6335 16.0825 16.1243 14.5953C15.0926 11.5828 15.2186 11.753 14.2186 12.0197ZM14.937 15.1074C15.4048 16.4776 15.7876 17.6191 15.7876 17.6441C15.7876 17.669 15.0076 17.6894 14.0544 17.6894C13.1011 17.6894 12.3211 17.6504 12.3211 17.6028C12.3211 17.531 13.7563 13.1841 13.9451 12.6838C13.9773 12.5984 14.0223 12.5482 14.045 12.5723C14.0677 12.5963 14.4691 13.7371 14.937 15.1074ZM22.024 15.7904C20.4491 16.192 19.5382 16.8342 18.9354 17.9682L18.639 18.5257V26.3309C18.639 34.0682 18.6411 34.1405 18.878 34.6514C19.1653 35.2708 19.8247 36.0215 20.3996 36.3834C21.2805 36.9378 21.5021 36.9532 29.1554 36.9877C35.7672 37.0175 36.3658 37.0047 37.0895 36.8174C38.738 36.3908 39.8199 35.5499 40.2727 34.3435C40.493 33.7563 40.5 33.5052 40.5 26.2752C40.5 19.0389 40.4931 18.7944 40.272 18.2054C39.9909 17.456 39.5267 16.8611 38.8475 16.3795C37.8894 15.7004 37.9569 15.706 30.0819 15.635C23.1664 15.5726 22.8548 15.5786 22.024 15.7904ZM35.4122 16.1421C36.3347 16.2076 37.302 16.2544 37.5619 16.2463C38.0827 16.2299 38.4937 16.4075 38.9649 16.8526C39.2894 17.1593 39.2823 17.3549 38.9466 17.3549C38.6241 17.3549 38.5966 17.4706 38.8169 17.9011C39.2539 18.7552 39.2834 19.3642 39.2481 26.7769C39.2142 33.8887 39.2132 33.9152 38.9616 34.5353C38.5099 35.6481 37.4625 36.5153 36.2825 36.7537C35.9448 36.8218 33.1514 36.831 28.7029 36.7785C21.8176 36.6972 21.6462 36.6898 21.1307 36.455C20.3466 36.0977 19.5593 35.3054 19.1847 34.4967L18.8627 33.8016L18.8308 26.6742C18.8094 21.9164 18.8386 19.3555 18.9187 18.9714C19.1999 17.6203 20.1316 16.5775 21.4149 16.1774C22.0101 15.9918 32.9085 15.9643 35.4122 16.1421ZM27.8389 21.2854L27.8083 23.3203L24.873 23.2765L21.9377 23.2326V24.3599V25.4871L23.1312 25.5187L24.3247 25.5504L24.4689 26.1851C24.7443 27.3959 25.6288 29.0304 26.4599 29.8641C26.8308 30.2362 26.8505 30.2851 26.6681 30.3808C26.2496 30.6001 23.9742 31.2747 23.1957 31.4103C22.7498 31.4879 22.385 31.5811 22.385 31.6172C22.385 31.6535 22.4605 32.0763 22.5528 32.557C22.645 33.0377 22.7205 33.6287 22.7205 33.8706C22.7205 34.4272 22.8357 34.4709 23.8633 34.3037C25.0289 34.114 26.4804 33.6096 27.8503 32.9179C29.4886 32.0909 29.4413 32.0983 30.0673 32.5749C31.0563 33.3279 33.7059 34.3734 34.794 34.4399L35.294 34.4706L35.5064 33.0996C35.6232 32.3456 35.6968 31.7068 35.67 31.68C35.6433 31.6533 35.2472 31.5596 34.7899 31.4717C33.971 31.3144 31.9119 30.698 31.5227 30.4936C31.342 30.3987 31.3611 30.3452 31.7268 29.9209C32.2795 29.2797 33.1966 27.3939 33.4304 26.4185L33.623 25.6142L34.853 25.5823L36.0831 25.5504L36.1151 24.4632L36.147 23.3761H33.1798H30.2125V21.3133V19.2505H29.0409H27.8693L27.8389 21.2854ZM29.9888 21.5363V23.5991H32.9521H35.9153V24.3796V25.1601H35.197C34.8019 25.1601 34.2339 25.2164 33.9346 25.2853L33.3904 25.4107L33.1431 26.3647C32.8426 27.5236 32.242 28.7675 31.5278 29.7098C31.2349 30.0963 30.9952 30.4539 30.9952 30.5044C30.9952 30.7046 34.3306 31.7388 34.9762 31.7388C35.1165 31.7388 35.2601 31.7854 35.2953 31.8423C35.3306 31.8991 35.2981 32.3949 35.2232 32.9438L35.0869 33.942L34.3549 33.7387C33.377 33.4671 32.1496 32.9535 31.0097 32.3391C30.0876 31.842 30.0654 31.8365 29.53 31.9646C29.231 32.036 28.4019 32.3903 27.6873 32.7517C25.9674 33.6215 24.0642 34.2165 24.0617 33.8852C24.0613 33.8392 23.9858 33.3041 23.8939 32.6959C23.802 32.0878 23.7395 31.5774 23.7552 31.5619C23.7708 31.5463 24.2865 31.4059 24.9013 31.25C25.8704 31.0041 27.1374 30.6057 27.7804 30.3448C27.888 30.3011 27.9761 30.2294 27.9761 30.1853C27.9761 30.1413 27.7442 29.8079 27.4608 29.4446C26.6003 28.3415 25.6278 26.1508 25.6278 25.3157C25.6278 25.0502 25.6209 25.0486 24.3978 25.0486H23.1678V24.2567V23.465L25.6558 23.4988C27.3994 23.5227 28.2859 23.4915 28.619 23.3944L29.0943 23.256V21.3647V19.4735H29.5416H29.9888V21.5363ZM27.4913 25.2093C27.194 25.2948 26.9216 25.3939 26.8859 25.4295C26.7796 25.5356 27.1827 26.8362 27.5583 27.5987C27.7507 27.9894 28.1183 28.5404 28.3752 28.8233L28.8422 29.3377L29.49 29.2022C30.2185 29.0499 30.4914 28.8371 31.0667 27.9728C31.4717 27.3642 32.1134 25.7747 32.1134 25.3799C32.1134 25.1755 32.033 25.1601 30.9673 25.1595C30.3369 25.1591 29.4186 25.1351 28.9265 25.1063C28.3446 25.0721 27.843 25.1082 27.4913 25.2093ZM30.7709 25.634C30.7685 26.1975 30.1143 27.6513 29.4684 28.5286L29.0643 29.0775L28.696 28.7215C28.14 28.1842 27.1933 26.2456 27.1933 25.6444C27.1933 25.5253 27.5593 25.4946 28.9825 25.4946C30.3395 25.4946 30.7715 25.5283 30.7709 25.634Z" fill="#025FA8"/>
<path fill-rule="evenodd" clip-rule="evenodd" d="M6.78165 6.24437C5.22969 6.6692 4.41653 7.30287 3.83406 8.5411L3.54321 9.1595L3.50978 16.1764C3.47478 23.5133 3.51492 24.3399 3.94744 25.1852C4.32383 25.921 5.10009 26.6609 5.86528 27.0133L6.56237 27.3344L11.6502 27.371C15.3408 27.3976 16.9146 27.3704 17.381 27.2722L18.024 27.1367V23.2666V19.3964L16.5983 19.3239C14.5436 19.2194 12.5749 19.252 11.9298 19.4012L11.3707 19.5305L10.7384 21.2582L10.1062 22.9858L9.2009 23.0182C8.517 23.0427 8.29705 23.0154 8.30152 22.9067C8.30477 22.8276 9.252 19.978 10.4064 16.5744L12.5055 10.386L14.5837 10.3557L16.6619 10.3255L17.52 12.8924C18.033 14.4268 18.4346 15.4594 18.5187 15.4594C18.9101 15.4594 19.7502 15.1053 20.1136 14.787C20.8139 14.1739 21.1135 14.1043 22.9296 14.1333C23.9644 14.1498 24.743 14.1091 25.0484 14.0226L25.5312 13.8856L25.4957 11.4111C25.4605 8.96392 25.4566 8.92947 25.1491 8.30494C24.7495 7.49354 24.0562 6.80256 23.2796 6.44173C22.708 6.17602 22.5069 6.15049 20.4282 6.0789C19.1981 6.03665 15.8267 6.00119 12.9362 6.00018C7.85927 5.99829 7.65006 6.00665 6.78165 6.24437ZM15.9724 6.31741C23.1786 6.32298 22.9779 6.30169 23.9362 7.16081C24.5011 7.66726 24.9376 8.39113 24.772 8.54702C24.72 8.59596 24.584 8.6535 24.4698 8.6748C24.2739 8.71126 24.2632 8.86279 24.2795 11.3617L24.2966 14.0099H22.5063C20.5174 14.0099 19.9493 14.1394 19.0317 14.8022C18.7735 14.9887 18.537 15.1162 18.5062 15.0854C18.4753 15.0546 18.0901 13.9345 17.65 12.5962L16.8499 10.163H14.1165H11.3831L9.17149 16.6859C7.9551 20.2735 6.95844 23.2464 6.95677 23.2925C6.95509 23.3385 7.67924 23.3761 8.56587 23.3761H10.1781L10.3558 22.9022C10.4535 22.6416 10.7525 21.8293 11.0201 21.0973C11.3517 20.1906 11.5743 19.7399 11.7183 19.6834C11.8346 19.638 13.0242 19.5971 14.3619 19.5928L16.794 19.585V23.3761V27.1672H11.9501C7.85536 27.1672 7.01391 27.1399 6.50959 26.9905C5.37551 26.6547 4.59321 25.9755 4.0804 24.8814L3.76685 24.2124V16.6859V9.1595L4.01487 8.62886C4.78398 6.98375 6.46207 6.169 8.8547 6.27905C9.25446 6.29745 12.4575 6.31473 15.9724 6.31741ZM14.2186 12.0197L13.8238 12.1249L12.9047 14.8817C12.3993 16.3979 11.9857 17.7002 11.9857 17.7755C11.9857 17.8787 12.4747 17.9119 13.9705 17.9103C16.0542 17.908 17.0842 17.7568 17.0619 17.4565C17.0554 17.37 16.6335 16.0825 16.1243 14.5953C15.0926 11.5828 15.2186 11.753 14.2186 12.0197ZM15.0877 15.097L15.9719 17.6894H14.0906C13.0559 17.6894 12.2093 17.6756 12.2093 17.6588C12.2093 17.6252 13.8495 12.7136 13.9461 12.4581C13.9819 12.3633 14.0454 12.341 14.1047 12.4023C14.1591 12.4585 14.6015 13.6712 15.0877 15.097ZM22.024 15.7904C20.4491 16.192 19.5382 16.8342 18.9354 17.9682L18.639 18.5257V26.3309C18.639 34.0682 18.6411 34.1405 18.878 34.6514C19.1653 35.2708 19.8247 36.0215 20.3996 36.3834C21.2805 36.9378 21.5021 36.9532 29.1554 36.9877C35.7672 37.0175 36.3658 37.0047 37.0895 36.8174C38.738 36.3908 39.8199 35.5499 40.2727 34.3435C40.493 33.7563 40.5 33.5052 40.5 26.2752C40.5 19.0389 40.4931 18.7944 40.272 18.2054C39.9909 17.456 39.5267 16.8611 38.8475 16.3795C37.8894 15.7004 37.9569 15.706 30.0819 15.635C23.1664 15.5726 22.8548 15.5786 22.024 15.7904ZM38.1518 16.2251C38.7903 16.5568 39.4515 17.1811 39.7259 17.7113C39.953 18.15 39.9413 18.176 39.4687 18.2887C39.1915 18.3547 39.1715 18.3935 39.245 18.7222C39.2895 18.9208 39.3259 22.3949 39.3259 26.4424V33.8016L39.0682 34.4374C38.7261 35.2819 37.9621 36.111 37.1681 36.4999C36.5537 36.8007 36.4586 36.8134 34.5735 36.8441C33.4972 36.8618 30.1258 36.835 27.0815 36.7847L21.5464 36.6934L20.9154 36.3879C20.1486 36.0168 19.4473 35.2829 19.0483 34.4344L18.7508 33.8016L18.7166 26.9012C18.694 22.3522 18.7235 19.737 18.803 19.2263C19.0591 17.5797 20.0025 16.5205 21.605 16.0799C22.1282 15.9361 23.3401 15.9153 29.9329 15.9376L37.6486 15.9636L38.1518 16.2251ZM27.964 19.3341C27.9574 19.3801 27.9448 20.2958 27.936 21.369L27.9202 23.3203L24.9289 23.35L21.9377 23.3798V24.3814V25.3831H23.1566H24.3755L24.5136 25.9685C24.6604 26.5903 25.0144 27.3714 25.2335 27.5571C25.3061 27.6185 25.5838 28.0427 25.8504 28.4995C26.117 28.9563 26.5252 29.5357 26.7576 29.7869L27.1798 30.2439L26.3759 30.537C25.3294 30.9186 24.186 31.2443 23.2796 31.419C22.8798 31.496 22.5374 31.5687 22.5188 31.5806C22.5002 31.5924 22.5629 32.0467 22.6582 32.5903C22.7536 33.1339 22.8317 33.7416 22.832 33.941C22.8323 34.2789 22.858 34.3033 23.2138 34.3033C24.3931 34.3033 26.4759 33.6344 28.2556 32.6841C28.7476 32.4214 29.3637 32.1721 29.6245 32.1303C30.0598 32.0602 30.1076 32.0769 30.2049 32.3322C30.2789 32.5262 30.5845 32.7468 31.2155 33.0618C32.0718 33.4891 34.7067 34.4148 35.0668 34.4148C35.1701 34.4148 35.2553 34.2757 35.2889 34.0525C35.3189 33.8531 35.4019 33.2919 35.4732 32.8052C35.5444 32.3186 35.6249 31.8629 35.652 31.7925C35.6835 31.7107 35.4078 31.6132 34.8858 31.5217C34.1681 31.3959 31.4838 30.5905 31.3554 30.4625C31.3289 30.4361 31.6088 29.9649 31.9774 29.4154C32.6595 28.3986 33.2782 27.0005 33.4101 26.1777C33.4503 25.927 33.5427 25.6726 33.6155 25.6124C33.6882 25.5522 34.2733 25.4885 34.9154 25.4709L36.0831 25.4389V24.4354V23.4318L33.0919 23.4022L30.1007 23.3724V21.3115V19.2505H29.0384C28.4541 19.2505 27.9706 19.2882 27.964 19.3341ZM29.9888 21.5363V23.5991H32.9521H35.9153V24.3796V25.1601H35.197C34.8019 25.1601 34.2339 25.2164 33.9346 25.2853L33.3904 25.4107L33.1431 26.3647C32.8426 27.5236 32.242 28.7675 31.5278 29.7098C31.2349 30.0963 30.9952 30.4539 30.9952 30.5044C30.9952 30.7046 34.3306 31.7388 34.9762 31.7388C35.1165 31.7388 35.2601 31.7854 35.2953 31.8423C35.3306 31.8991 35.2981 32.3949 35.2232 32.9438L35.0869 33.942L34.3549 33.7387C33.377 33.4671 32.1496 32.9535 31.0097 32.3391C30.0876 31.842 30.0654 31.8365 29.53 31.9646C29.231 32.036 28.4019 32.3903 27.6873 32.7517C25.9674 33.6215 24.0642 34.2165 24.0617 33.8852C24.0613 33.8392 23.9858 33.3041 23.8939 32.6959C23.802 32.0878 23.7395 31.5774 23.7552 31.5619C23.7708 31.5463 24.2865 31.4059 24.9013 31.25C25.8704 31.0041 27.1374 30.6057 27.7804 30.3448C27.888 30.3011 27.9761 30.2294 27.9761 30.1853C27.9761 30.1413 27.7442 29.8079 27.4608 29.4446C26.6003 28.3415 25.6278 26.1508 25.6278 25.3157C25.6278 25.0502 25.6209 25.0486 24.3978 25.0486H23.1678V24.2567V23.465L25.6558 23.4988C27.3994 23.5227 28.2859 23.4915 28.619 23.3944L29.0943 23.256V21.3647V19.4735H29.5416H29.9888V21.5363ZM27.4913 25.2093C27.194 25.2948 26.9216 25.3939 26.8859 25.4295C26.7796 25.5356 27.1827 26.8362 27.5583 27.5987C27.7507 27.9894 28.1183 28.5404 28.3752 28.8233L28.8422 29.3377L29.49 29.2022C30.2185 29.0499 30.4914 28.8371 31.0667 27.9728C31.4717 27.3642 32.1134 25.7747 32.1134 25.3799C32.1134 25.1755 32.033 25.1601 30.9673 25.1595C30.3369 25.1591 29.4186 25.1351 28.9265 25.1063C28.3446 25.0721 27.843 25.1082 27.4913 25.2093ZM30.853 25.5387C30.8759 25.5615 30.7579 25.9925 30.5909 26.4966C30.2858 27.4168 29.6719 28.4889 29.2232 28.8849C28.9865 29.0937 28.9784 29.0937 28.7417 28.8849C28.1583 28.3702 27.3588 26.8593 27.144 25.8657C27.0772 25.5571 27.1005 25.5047 27.3262 25.4547C27.6026 25.3934 30.7833 25.4692 30.853 25.5387Z" fill="#035290"/>
<path fill-rule="evenodd" clip-rule="evenodd" d="M6.78165 6.24437C5.22969 6.6692 4.41653 7.30287 3.83406 8.5411L3.54321 9.1595L3.50978 16.1764C3.47478 23.5133 3.51492 24.3399 3.94744 25.1852C4.32383 25.921 5.10009 26.6609 5.86528 27.0133L6.56237 27.3344L11.6502 27.371C15.3408 27.3976 16.9146 27.3704 17.381 27.2722L18.024 27.1367V23.2666V19.3964L16.5983 19.3239C14.5436 19.2194 12.5749 19.252 11.9298 19.4012L11.3707 19.5305L10.7384 21.2582L10.1062 22.9858L9.2009 23.0182C8.517 23.0427 8.29705 23.0154 8.30152 22.9067C8.30477 22.8276 9.252 19.978 10.4064 16.5744L12.5055 10.386L14.5837 10.3557L16.6619 10.3255L17.52 12.8924C18.033 14.4268 18.4346 15.4594 18.5187 15.4594C18.9101 15.4594 19.7502 15.1053 20.1136 14.787C20.8139 14.1739 21.1135 14.1043 22.9296 14.1333C23.9644 14.1498 24.743 14.1091 25.0484 14.0226L25.5312 13.8856L25.4957 11.4111C25.4605 8.96392 25.4566 8.92947 25.1491 8.30494C24.7495 7.49354 24.0562 6.80256 23.2796 6.44173C22.708 6.17602 22.5069 6.15049 20.4282 6.0789C19.1981 6.03665 15.8267 6.00119 12.9362 6.00018C7.85927 5.99829 7.65006 6.00665 6.78165 6.24437ZM22.6021 6.38899C23.7761 6.71469 24.6818 7.58129 25.0139 8.69621C25.2441 9.46914 25.2327 9.51519 24.7892 9.59815L24.3978 9.67141V11.8406V14.0099H22.6745C20.6834 14.0099 19.9538 14.174 19.0425 14.8268L18.4894 15.223L17.6664 12.693L16.8433 10.163L14.2266 10.133C12.5689 10.1141 11.5683 10.1444 11.4965 10.216C11.4343 10.278 10.3941 13.2524 9.18524 16.8256L6.98729 23.3226L8.55905 23.2929C9.42342 23.2766 10.1622 23.2259 10.2007 23.1803C10.2392 23.1347 10.5433 22.3306 10.8765 21.3936C11.3552 20.0476 11.5295 19.6802 11.7061 19.6442C12.2397 19.5356 17.2892 19.492 17.1015 19.5976C16.9212 19.6989 16.9058 20.0011 16.9058 23.4308C16.9058 25.4786 16.868 27.1761 16.8219 27.203C16.7759 27.2299 14.4485 27.2201 11.6502 27.1812L6.56237 27.1105L5.94736 26.8217C5.16897 26.4561 4.47658 25.7649 4.07783 24.9554L3.76685 24.3239V16.6859V9.048L4.14794 8.3472C4.81092 7.12792 5.73032 6.54588 7.40696 6.28385C8.83659 6.06039 21.7397 6.14971 22.6021 6.38899ZM14.2186 12.0197L13.8238 12.1249L12.9047 14.8817C12.3993 16.3979 11.9857 17.7002 11.9857 17.7755C11.9857 17.8787 12.4747 17.9119 13.9705 17.9103C16.0542 17.908 17.0842 17.7568 17.0619 17.4565C17.0554 17.37 16.6335 16.0825 16.1243 14.5953C15.0926 11.5828 15.2186 11.753 14.2186 12.0197ZM14.9763 13.3687C15.2274 13.9973 15.6132 15.0385 15.8336 15.6824C16.0541 16.3263 16.3149 16.9947 16.4133 17.1675C16.5116 17.3404 16.558 17.5161 16.5163 17.5578C16.4052 17.669 12.2093 17.7197 12.2093 17.6098C12.2093 17.535 13.7418 12.888 13.9389 12.3652C13.9678 12.2886 14.1104 12.2258 14.2558 12.2258C14.4867 12.2258 14.5776 12.37 14.9763 13.3687ZM22.024 15.7904C20.4491 16.192 19.5382 16.8342 18.9354 17.9682L18.639 18.5257V26.3309C18.639 34.0682 18.6411 34.1405 18.878 34.6514C19.1653 35.2708 19.8247 36.0215 20.3996 36.3834C21.2805 36.9378 21.5021 36.9532 29.1554 36.9877C35.7672 37.0175 36.3658 37.0047 37.0895 36.8174C38.738 36.3908 39.8199 35.5499 40.2727 34.3435C40.493 33.7563 40.5 33.5052 40.5 26.2752C40.5 19.0389 40.4931 18.7944 40.272 18.2054C39.9909 17.456 39.5267 16.8611 38.8475 16.3795C37.8894 15.7004 37.9569 15.706 30.0819 15.635C23.1664 15.5726 22.8548 15.5786 22.024 15.7904ZM38.0451 16.1397C38.9109 16.5447 39.427 17.0338 39.8238 17.8257C40.2818 18.7396 40.2764 19.0748 39.8011 19.2106L39.4377 19.3145L39.4138 26.335C39.3981 30.9463 39.3475 33.556 39.2663 33.9398C39.1019 34.7165 38.3927 35.758 37.7306 36.1953C36.6379 36.9171 36.7367 36.91 28.895 36.8262C22.1808 36.7545 21.7881 36.7391 21.2173 36.5263C20.0486 36.0902 19.191 35.1453 18.8677 33.9374C18.7021 33.3185 18.6859 32.4658 18.7165 25.9964C18.7507 18.7798 18.752 18.7465 18.9989 18.2181C19.3721 17.4196 20.1521 16.6535 20.9611 16.2906C21.9419 15.8508 22.5931 15.8199 30.5479 15.8358L37.4249 15.8497L38.0451 16.1397ZM28.0506 19.3249C28.0096 19.3657 27.9761 20.2939 27.9761 21.3877V23.3761H25.0128H22.0496V24.3796V25.3831H23.2623C24.295 25.3831 24.5024 25.4133 24.66 25.5871C24.7618 25.6992 24.8451 25.8256 24.8451 25.8681C24.8451 25.9104 24.973 26.1473 25.1294 26.3943C25.2859 26.6413 25.5589 27.2192 25.7363 27.6785C26.132 28.7031 26.5226 29.3803 26.9825 29.8389C27.175 30.0308 27.3136 30.2037 27.2908 30.2233C27.0712 30.4113 24.1877 31.275 22.8235 31.5614L22.5351 31.6219L22.7465 32.433C22.8702 32.9076 22.9386 33.4645 22.9114 33.7754L22.8648 34.3067L23.4356 34.2412C25.0435 34.0566 26.483 33.5824 28.1997 32.6721C28.7449 32.3829 29.3648 32.1429 29.6534 32.109C30.118 32.0544 30.1952 32.0838 30.6598 32.4918C30.9365 32.7347 31.3816 33.0445 31.6487 33.1799C32.3417 33.5317 35.0586 34.4229 35.147 34.3275C35.1877 34.2836 35.2758 33.8462 35.3427 33.3556C35.4097 32.865 35.4953 32.285 35.5333 32.0667L35.6022 31.6699L34.8363 31.5322C33.9479 31.3724 32.455 30.9371 31.7235 30.6244L31.2157 30.4073L31.7208 29.7451C32.3741 28.8887 33.064 27.4427 33.322 26.3899C33.5651 25.3972 33.6078 25.3743 35.0487 25.4651L36.0272 25.5266V24.5237V23.5206L35.1046 23.449C34.5972 23.4096 33.2638 23.3771 32.1414 23.3768L30.1007 23.3761V21.3133V19.2505H29.1129C28.5696 19.2505 28.0916 19.2839 28.0506 19.3249ZM29.9888 21.5363V23.5991H32.9521H35.9153V24.3796V25.1601H35.197C34.8019 25.1601 34.2339 25.2164 33.9346 25.2853L33.3904 25.4107L33.1431 26.3647C32.8426 27.5236 32.242 28.7675 31.5278 29.7098C31.2349 30.0963 30.9952 30.4539 30.9952 30.5044C30.9952 30.7046 34.3306 31.7388 34.9762 31.7388C35.1165 31.7388 35.2601 31.7854 35.2953 31.8423C35.3306 31.8991 35.2981 32.3949 35.2232 32.9438L35.0869 33.942L34.3549 33.7387C33.377 33.4671 32.1496 32.9535 31.0097 32.3391C30.0876 31.842 30.0654 31.8365 29.53 31.9646C29.231 32.036 28.4019 32.3903 27.6873 32.7517C25.9674 33.6215 24.0642 34.2165 24.0617 33.8852C24.0613 33.8392 23.9858 33.3041 23.8939 32.6959C23.802 32.0878 23.7395 31.5774 23.7552 31.5619C23.7708 31.5463 24.2865 31.4059 24.9013 31.25C25.8704 31.0041 27.1374 30.6057 27.7804 30.3448C27.888 30.3011 27.9761 30.2294 27.9761 30.1853C27.9761 30.1413 27.7442 29.8079 27.4608 29.4446C26.6003 28.3415 25.6278 26.1508 25.6278 25.3157C25.6278 25.0502 25.6209 25.0486 24.3978 25.0486H23.1678V24.2567V23.465L25.6558 23.4988C27.3994 23.5227 28.2859 23.4915 28.619 23.3944L29.0943 23.256V21.3647V19.4735H29.5416H29.9888V21.5363ZM27.4913 25.2093C27.194 25.2948 26.9216 25.3939 26.8859 25.4295C26.7796 25.5356 27.1827 26.8362 27.5583 27.5987C27.7507 27.9894 28.1183 28.5404 28.3752 28.8233L28.8422 29.3377L29.49 29.2022C30.2185 29.0499 30.4914 28.8371 31.0667 27.9728C31.4717 27.3642 32.1134 25.7747 32.1134 25.3799C32.1134 25.1755 32.033 25.1601 30.9673 25.1595C30.3369 25.1591 29.4186 25.1351 28.9265 25.1063C28.3446 25.0721 27.843 25.1082 27.4913 25.2093ZM30.0066 25.3831H30.9995L30.9267 25.6898C30.6478 26.8642 29.4823 28.9616 29.0639 29.042C28.963 29.0614 28.7287 28.9109 28.5434 28.7076C27.9112 28.0143 26.9737 25.9356 27.1208 25.5534C27.19 25.3735 27.8123 25.2792 28.5229 25.3406C28.7928 25.3641 29.4605 25.3831 30.0066 25.3831Z" fill="#034375"/>
<path fill-rule="evenodd" clip-rule="evenodd" d="M6.78165 6.24437C5.22969 6.6692 4.41653 7.30287 3.83406 8.5411L3.54321 9.1595L3.50978 16.1764C3.47478 23.5133 3.51492 24.3399 3.94744 25.1852C4.32383 25.921 5.10009 26.6609 5.86528 27.0133L6.56237 27.3344L11.6502 27.371C15.3408 27.3976 16.9146 27.3704 17.381 27.2722L18.024 27.1367V23.2666V19.3964L16.5983 19.3239C14.5436 19.2194 12.5749 19.252 11.9298 19.4012L11.3707 19.5305L10.7384 21.2582L10.1062 22.9858L9.2009 23.0182C8.517 23.0427 8.29705 23.0154 8.30152 22.9067C8.30477 22.8276 9.252 19.978 10.4064 16.5744L12.5055 10.386L14.5837 10.3557L16.6619 10.3255L17.52 12.8924C18.033 14.4268 18.4346 15.4594 18.5187 15.4594C18.9101 15.4594 19.7502 15.1053 20.1136 14.787C20.8139 14.1739 21.1135 14.1043 22.9296 14.1333C23.9644 14.1498 24.743 14.1091 25.0484 14.0226L25.5312 13.8856L25.4957 11.4111C25.4605 8.96392 25.4566 8.92947 25.1491 8.30494C24.7495 7.49354 24.0562 6.80256 23.2796 6.44173C22.708 6.17602 22.5069 6.15049 20.4282 6.0789C19.1981 6.03665 15.8267 6.00119 12.9362 6.00018C7.85927 5.99829 7.65006 6.00665 6.78165 6.24437ZM20.0927 6.19654C22.4432 6.25753 22.5805 6.27336 23.1753 6.55156C23.9538 6.91562 24.5672 7.52989 24.9447 8.32323C25.2266 8.91587 25.2377 9.01711 25.272 11.3366L25.3075 13.7366L24.7951 13.8733C24.5032 13.9511 23.5908 14.0099 22.6748 14.0099C20.7911 14.0099 19.9237 14.2145 19.0777 14.8585C18.7912 15.0765 18.5173 15.2131 18.4687 15.162C18.4201 15.111 18.0436 14.0154 17.6317 12.7276C17.22 11.4397 16.8482 10.3487 16.8056 10.303C16.72 10.2112 11.5854 10.1296 11.5102 10.2188C11.4843 10.2494 10.4795 13.1861 9.27716 16.7448L7.09106 23.215L8.61283 23.193L10.1345 23.1709L10.2759 22.8554C10.3538 22.6819 10.657 21.8879 10.95 21.0909C11.4487 19.734 11.5037 19.6375 11.818 19.5709C12.3371 19.4609 17.6885 19.461 17.6885 19.5709C17.6885 19.6246 17.606 19.8881 17.5053 20.1563C17.3591 20.5453 17.3112 21.2255 17.2684 23.5091C17.2341 25.3467 17.2567 26.4934 17.3313 26.7069C17.441 27.0204 17.4272 27.047 17.0956 27.1623C16.7113 27.2958 12.2355 27.3024 8.57515 27.1749C6.56327 27.1048 6.41667 27.0845 5.81295 26.794C5.01936 26.412 4.25708 25.5866 3.91267 24.7366L3.65503 24.1008V16.6859V9.271L3.95248 8.63822C4.33256 7.82994 5.03915 7.06593 5.70482 6.74346C6.90399 6.16275 7.50871 6.10957 12.7684 6.12161C15.4437 6.12774 18.7397 6.16142 20.0927 6.19654ZM14.2186 12.0197L13.8238 12.1249L12.9047 14.8817C12.3993 16.3979 11.9857 17.7002 11.9857 17.7755C11.9857 17.8787 12.4747 17.9119 13.9705 17.9103C16.0542 17.908 17.0842 17.7568 17.0619 17.4565C17.0554 17.37 16.6335 16.0825 16.1243 14.5953C15.0926 11.5828 15.2186 11.753 14.2186 12.0197ZM14.8482 12.3094C14.8812 12.4168 15.0127 12.7304 15.1404 13.0063C15.5035 13.7912 16.7862 17.3887 16.7334 17.474C16.7073 17.5161 16.4553 17.6084 16.1734 17.6792C15.6206 17.818 12.4463 17.8354 12.228 17.7009C12.0602 17.5975 13.8066 12.4579 14.0789 12.2537C14.3507 12.05 14.778 12.081 14.8482 12.3094ZM22.024 15.7904C20.4491 16.192 19.5382 16.8342 18.9354 17.9682L18.639 18.5257V26.3309C18.639 34.0682 18.6411 34.1405 18.878 34.6514C19.1653 35.2708 19.8247 36.0215 20.3996 36.3834C21.2805 36.9378 21.5021 36.9532 29.1554 36.9877C35.7672 37.0175 36.3658 37.0047 37.0895 36.8174C38.738 36.3908 39.8199 35.5499 40.2727 34.3435C40.493 33.7563 40.5 33.5052 40.5 26.2752C40.5 19.0389 40.4931 18.7944 40.272 18.2054C39.9909 17.456 39.5267 16.8611 38.8475 16.3795C37.8894 15.7004 37.9569 15.706 30.0819 15.635C23.1664 15.5726 22.8548 15.5786 22.024 15.7904ZM37.6508 15.9649C38.8069 16.2837 39.7297 17.1658 40.1008 18.3071C40.26 18.7964 40.2773 19.7003 40.2506 26.149L40.2204 33.4379L39.8436 33.564C39.5207 33.672 39.4256 33.7938 39.1791 34.4148C38.7899 35.3952 37.9039 36.2898 36.9808 36.6342L36.3145 36.8827L29.0423 36.8448L21.77 36.807L21.1026 36.5415C20.3018 36.2231 19.425 35.3962 19.0249 34.5821L18.7508 34.0246L18.7199 26.5651C18.6853 18.2708 18.6712 18.4529 19.427 17.4328C20.1561 16.4488 21.2196 15.9656 23.0343 15.794C23.569 15.7434 26.9501 15.7263 30.5479 15.7561C35.6494 15.7983 37.213 15.8442 37.6508 15.9649ZM28.619 19.3288C27.9992 19.3818 28.0135 19.3242 28.2454 20.8406C28.3322 21.4072 28.4334 22.1604 28.4704 22.5143C28.5347 23.13 28.5253 23.1623 28.2496 23.2669C28.0884 23.3279 26.6838 23.3761 25.0615 23.3761H22.1614V23.6384C22.1614 23.7828 22.1937 24.2093 22.2332 24.5862L22.3051 25.2716H23.5728H24.8405L25.0687 25.7176C25.1942 25.9629 25.3361 26.1636 25.3839 26.1636C25.4319 26.1636 25.5387 26.3519 25.6212 26.5818C25.9385 27.4649 26.6519 28.839 27.1281 29.4842L27.6249 30.1571L27.3253 30.273C26.423 30.6219 25.13 31.0307 23.9607 31.337L22.6401 31.683L23.0114 32.6308C23.2156 33.1521 23.3847 33.7215 23.3871 33.8961L23.3914 34.2137L24.0903 34.1334C24.9944 34.0295 26.3892 33.5358 27.8692 32.7956C28.5182 32.471 29.2622 32.1483 29.5227 32.0784C29.985 31.9542 30.0178 31.9642 30.9182 32.5066C32.2854 33.33 34.9313 34.3405 35.1318 34.1157C35.1764 34.0656 35.2711 33.5981 35.3423 33.0768C35.4133 32.5555 35.5017 32.0162 35.5387 31.8782C35.597 31.6607 35.5632 31.6273 35.2855 31.6269C34.7213 31.6265 31.2189 30.5991 31.2189 30.4342C31.2189 30.4071 31.4463 30.067 31.7244 29.6785C32.3877 28.7516 33.078 27.2676 33.2983 26.295C33.5058 25.3787 33.4906 25.3868 34.9928 25.3847L36.0272 25.3831V24.4354V23.4876L33.4832 23.4744C32.0841 23.4671 30.8697 23.4709 30.7846 23.4827C30.6994 23.4945 30.5107 23.4744 30.3652 23.4381L30.1007 23.3718V21.3669C30.1007 19.7401 30.0717 19.362 29.9469 19.362C29.8624 19.362 29.6485 19.3443 29.4717 19.3226C29.2949 19.301 28.9112 19.3037 28.619 19.3288ZM29.9888 21.5363V23.5991H32.9521H35.9153V24.3796V25.1601H35.197C34.8019 25.1601 34.2339 25.2164 33.9346 25.2853L33.3904 25.4107L33.1431 26.3647C32.8426 27.5236 32.242 28.7675 31.5278 29.7098C31.2349 30.0963 30.9952 30.4539 30.9952 30.5044C30.9952 30.7046 34.3306 31.7388 34.9762 31.7388C35.1165 31.7388 35.2601 31.7854 35.2953 31.8423C35.3306 31.8991 35.2981 32.3949 35.2232 32.9438L35.0869 33.942L34.3549 33.7387C33.377 33.4671 32.1496 32.9535 31.0097 32.3391C30.0876 31.842 30.0654 31.8365 29.53 31.9646C29.231 32.036 28.4019 32.3903 27.6873 32.7517C25.9674 33.6215 24.0642 34.2165 24.0617 33.8852C24.0613 33.8392 23.9858 33.3041 23.8939 32.6959C23.802 32.0878 23.7395 31.5774 23.7552 31.5619C23.7708 31.5463 24.2865 31.4059 24.9013 31.25C25.8704 31.0041 27.1374 30.6057 27.7804 30.3448C27.888 30.3011 27.9761 30.2294 27.9761 30.1853C27.9761 30.1413 27.7442 29.8079 27.4608 29.4446C26.6003 28.3415 25.6278 26.1508 25.6278 25.3157C25.6278 25.0502 25.6209 25.0486 24.3978 25.0486H23.1678V24.2567V23.465L25.6558 23.4988C27.3994 23.5227 28.2859 23.4915 28.619 23.3944L29.0943 23.256V21.3647V19.4735H29.5416H29.9888V21.5363ZM27.4913 25.2093C27.194 25.2948 26.9216 25.3939 26.8859 25.4295C26.7796 25.5356 27.1827 26.8362 27.5583 27.5987C27.7507 27.9894 28.1183 28.5404 28.3752 28.8233L28.8422 29.3377L29.49 29.2022C30.2185 29.0499 30.4914 28.8371 31.0667 27.9728C31.4717 27.3642 32.1134 25.7747 32.1134 25.3799C32.1134 25.1755 32.033 25.1601 30.9673 25.1595C30.3369 25.1591 29.4186 25.1351 28.9265 25.1063C28.3446 25.0721 27.843 25.1082 27.4913 25.2093ZM31.2189 25.3507C31.2189 25.3702 31.1702 25.4733 31.1109 25.5798C31.0515 25.6863 30.85 26.1667 30.663 26.6473C30.2985 27.585 29.7348 28.5096 29.2564 28.9546L28.9603 29.23L28.5395 28.7591C28.0023 28.1579 27.3726 26.9607 27.156 26.1289C26.9796 25.4513 26.9758 25.4605 27.4729 25.3435C27.7166 25.2861 31.2189 25.2928 31.2189 25.3507Z" fill="#023054"/>
</svg>
