<?xml version="1.0" encoding="utf-8"?>
<!-- Generator: Adobe Illustrator 26.0.2, SVG Export Plug-In . SVG Version: 6.00 Build 0)  -->
<svg version="1.1" id="Слой_1" xmlns="http://www.w3.org/2000/svg" xmlns:xlink="http://www.w3.org/1999/xlink" x="0px" y="0px"
	 viewBox="0 0 34.1 42" style="enable-background:new 0 0 34.1 42;" xml:space="preserve">
<style type="text/css">
	.st0{fill:#0059A1;}
	.st1{fill:#004683;}
</style>
<path class="st0" d="M34,6.8c0-0.1,0-0.2,0-0.2c-0.5-1.7-1.4-3.3-2.7-4.5c-0.9-0.9-1.9-1.5-3.1-1.8C27.2,0,26.7,0,21.4,0H11.3
	C5.9,0.1,6,0,4.8,0.6c-2.5,1-4.3,3.3-4.7,6C0.1,6.9,0,12.5,0,22.2c0,15.7,0,15.4,0.3,16.2c0.3,0.9,0.9,1.7,1.8,2.2
	c0.8,0.2,1.6,0.2,2.4,0.1c0.2,0,0.6-0.1,0.8-0.1c1-0.3,1.9-0.7,2.8-1.3c2.5-1.4,6.2-3.6,7-4.1c0.3-0.2,0.7-0.4,1-0.5
	c0.9,0.2,1.7,0.5,2.4,1c0.6,0.4,4.4,3,5.8,3.8c1.2,0.8,2.4,1.5,3.7,2.2l0.7,0.3h0.8c2.3,0,3.8-1,4.4-3.1l0.2-0.5V7.6L34,6.8z
	 M14.1,21.9c-0.4-0.5-0.9-1.1-1.3-1.5l-0.3-0.3c-0.3-0.3-0.5-0.6-0.6-0.7c-0.1-0.1-0.2-0.2-0.2-0.4v-0.8c0.2-0.6,0.3-0.5,1.1,0.3
	c0.2,0.3,0.7,0.7,0.9,1l0.5,0.5h0.6c0.3,0,0.7-0.1,0.8-0.1c0.2-0.1,0.6-0.6,3.5-3.6c1-1.2,2.1-2.3,3.3-3.4c0.1,0,0.2,0.1,0.3,0.2
	c0.1,0.1,0.2,0.2,0.2,0.3l0.1,0.1c0,0.3,0,0.5-0.1,0.8c-0.1,0.1-1,1.1-2,2.2c-0.3,0.3-0.6,0.7-0.8,0.9c-0.2,0.3-0.5,0.6-0.8,0.8
	c-0.2,0.3-1.3,1.4-2.3,2.5c-0.6,0.7-1.3,1.4-2,2C14.9,22.7,14.6,22.5,14.1,21.9z"/>
<path class="st1" d="M34,6.7c0-0.1,0-0.2,0-0.2c-0.5-1.7-1.4-3.3-2.7-4.5c-0.9-0.9-1.9-1.5-3.1-1.8C27.2,0,26.7,0,21.4,0H11.3
	C5.9,0.1,6,0,4.8,0.6c-2.5,1-4.3,3.3-4.7,6C0.1,6.9,0,12.5,0,22.2c0,15.7,0,15.4,0.3,16.2c0.3,0.9,0.9,1.7,1.8,2.2
	c0.8,0.2,1.6,0.2,2.4,0.1c0.2,0,0.6-0.1,0.8-0.1c1-0.3,1.9-0.7,2.8-1.3c2.5-1.4,6.2-3.6,7-4.1c0.3-0.2,0.6-0.4,1-0.5
	c0.9,0.2,1.7,0.5,2.4,1c0.6,0.4,4.4,3,5.8,3.8c1.2,0.8,2.4,1.5,3.7,2.2l0.7,0.3h0.8c2.3,0,3.8-1,4.4-3.1l0.2-0.5V7.6L34,6.7z
	 M33.6,38.4c0,0.2-0.1,0.3-0.2,0.5c-0.1,0.4-0.3,0.8-0.5,1.1c-0.1,0.1-0.1,0.2-0.2,0.2c-0.1,0.1-0.2,0.1-0.3,0.1
	c-0.1,0-0.3,0.2-0.8,0.6c0,0-0.1,0.1-0.1,0.1c-0.6,0.6-0.8,0.6-1.9,0.8c-0.5,0.1-0.7,0.1-0.9,0c-0.6-0.2-1.2-0.4-1.7-0.8
	c-0.2-0.1-0.4-0.2-0.6-0.3c0,0-1.7-1-1.9-1.2c-1.8-1.2-5.3-3.5-5.7-3.8c-0.7-0.5-1.4-0.8-2.2-1.1c-0.4-0.2-0.8-0.2-1.2,0
	c-0.2,0.1-0.4,0.2-0.6,0.2c-0.4,0.1-0.8,0.3-1.2,0.5c-0.5,0.3-2,1.1-3.4,1.9s-3,1.7-3.5,2c-0.3,0.2-1,0.6-1.3,0.8
	c-0.4,0.3-0.8,0.4-1.3,0.4c-0.6,0.1-1.3,0.1-1.9-0.1c-0.1-0.1-0.2-0.1-0.3-0.2L1.8,40c-0.6-0.3-1-0.9-1.2-1.6
	c-0.1-0.3-0.1-0.5-0.2-0.8v0c0-0.2-0.1-0.3-0.1-0.6V22.3c0-8.6,0-12.3,0-14.1c0-0.1,0-0.2,0-0.4s0-0.2,0-0.3c0-0.5,0-0.9,0.1-1.4
	c0.2-0.9,0.5-1.7,1-2.5c0.2-0.2,0.4-0.4,0.6-0.7l0.2-0.2c0-0.1,0.1-0.1,0.2-0.2C2.7,2.3,3,2,3.3,1.8c0.9-0.6,1.9-1,3-1.3
	C6.5,0.4,9.1,0.4,13,0.4c3.5-0.1,6.4-0.1,6.4-0.1h7.5c0.8,0.2,1.5,0.6,2.1,1.1c0.2,0.1,0.4,0.3,0.5,0.4c0.5,0.4,0.9,0.8,1.2,1.3
	c0,0.1,0.1,0.1,0.1,0.2c0.1,0.1,0.2,0.2,0.2,0.3l0.2,0.4c0.6,1.1,1,2.3,1.1,3.6c0,0.4,0.1,7.2,0,16.1c0,11.6,0,14.5,0.1,15
	c0,0.2,0.1,0,0.1-0.3c0.1-0.2,0.1-0.2,0.4-0.2h0.4l0.1,0.1l0,0L33.6,38.4L33.6,38.4z"/>
<path class="st1" d="M22.9,12.4c-0.1,0-0.3-0.1-0.4-0.1c-0.4-0.2-0.8-0.2-1.2-0.1c-0.9,0.8-1.7,1.6-2.4,2.5
	c-2.3,2.6-4.3,4.7-4.4,4.7S14,19,13.2,18c-0.5-0.6-0.7-0.7-0.9-0.7c-0.1,0-0.3,0-0.4-0.1c-0.4-0.1-0.8,0-1.1,0.3
	c-0.3,0.4-0.3,0.5,0.3,0.4h0.5v0.2c0,0.2-0.1,0.2-0.3,0.3h-0.7c-0.2,0-0.3,0-0.3,0.2v0.2c0,0.4,0.3,0.9,1.4,2.1
	c0.6,0.6,1.2,1.4,1.4,1.6c0.6,0.7,1.1,1,1.7,0.7c0.1,0,0.1-0.1,0.2-0.1s0.1-0.1,0.2-0.1c0.1-0.1,0.2-0.1,0.3-0.1
	c0.2,0,0.5-0.3,1.6-1.5c0.4-0.4,0.7-0.8,0.8-0.8c0.1-0.1,1-1.1,1.6-1.7c0.4-0.4,0.9-1,1.2-1.3s0.9-0.9,1.3-1.4
	c0.4-0.4,0.9-1,1.1-1.2c0.4-0.3,0.7-0.9,0.6-1.4C23.7,12.9,23.4,12.4,22.9,12.4z M22.9,14.3c-0.1,0.1-1,1.1-2,2.2
	c-0.3,0.3-0.6,0.7-0.8,0.9c-0.2,0.3-0.5,0.6-0.8,0.8c-0.2,0.3-1.3,1.4-2.3,2.5c-0.6,0.7-1.3,1.4-2,2c-0.1,0-0.4-0.2-0.9-0.8
	c-0.4-0.5-0.9-1.1-1.3-1.5l-0.3-0.3c-0.3-0.3-0.5-0.6-0.6-0.7c-0.1-0.1-0.2-0.2-0.2-0.4v-0.8c0.2-0.6,0.3-0.5,1.1,0.3
	c0.2,0.3,0.7,0.7,0.9,1l0.5,0.5h0.6c0.3,0,0.7-0.1,0.8-0.1c0.2-0.1,0.6-0.6,3.5-3.6c1-1.2,2.1-2.4,3.3-3.4c0.1,0,0.2,0.1,0.3,0.2
	s0.2,0.2,0.2,0.3l0.1,0.1C23,13.8,23,14,22.9,14.3z"/>
</svg>
