<svg width="76" height="80" viewBox="0 0 76 80" fill="none" xmlns="http://www.w3.org/2000/svg">
<path fill-rule="evenodd" clip-rule="evenodd" d="M35.79 3.25451C34.9984 3.42854 33.2047 4.1284 31.8042 4.80952C29.6952 5.83524 28.9884 6.31379 27.6903 7.59435C24.8595 10.387 23.6888 13.6018 23.887 18.0379C24.179 24.5756 28.0964 29.8649 34.2138 31.981C35.8571 32.5495 36.445 32.6428 38.4472 32.653C41.2732 32.6676 42.273 32.4119 45.3117 30.8969C48.1211 29.4963 49.6884 28.1896 51.0881 26.0805C56.333 18.1773 52.219 6.89754 42.9448 3.7531C40.6472 2.97395 37.9273 2.78445 35.79 3.25451ZM30.2541 42.2414C26.2703 42.8156 23.7271 43.5725 19.8725 45.3312C15.291 47.4214 12.1834 49.6891 10.6327 52.0738C9.30651 54.113 8.99583 55.4441 9.00004 59.0686C9.00646 64.3181 9.75292 66.6394 12.2086 69.0457C16.7538 73.4994 28.243 75.9793 44.426 75.9996C51.8417 76.0087 53.0587 75.8856 56.605 74.7689C58.8202 74.0712 62.7215 72.0659 63.8479 71.0463C66.2013 68.9161 66.8169 67.1955 66.9573 62.3549C67.0514 59.1139 67.0131 58.5572 66.6041 57.2361C65.7427 54.4537 63.8787 51.9479 60.9553 49.6432C56.0153 45.7481 49.6344 43.2861 41.7688 42.2401C38.9574 41.8661 32.8522 41.8668 30.2541 42.2414Z" fill="#035DA2"/>
<path fill-rule="evenodd" clip-rule="evenodd" d="M35.79 3.25451C34.9984 3.42854 33.2047 4.1284 31.8042 4.80952C29.6952 5.83524 28.9884 6.31379 27.6903 7.59435C24.8595 10.387 23.6888 13.6018 23.887 18.0379C24.179 24.5756 28.0964 29.8649 34.2138 31.981C35.8571 32.5495 36.445 32.6428 38.4472 32.653C41.2732 32.6676 42.273 32.4119 45.3117 30.8969C48.1211 29.4963 49.6884 28.1896 51.0881 26.0805C56.333 18.1773 52.219 6.89754 42.9448 3.7531C40.6472 2.97395 37.9273 2.78445 35.79 3.25451ZM39.6651 4.47996C41.1295 4.87334 43.9831 6.0304 43.9831 6.23058C43.9831 6.33361 44.1333 6.41769 44.3171 6.41769C44.6034 6.41769 47.4087 9.02564 48.0892 9.92458C48.7551 10.8041 49.8242 12.8937 50.3282 14.3006C51.1027 16.4627 51.2867 20.0282 50.7471 22.4142C49.3337 28.663 43.9727 32.702 37.6722 32.2651C32.1248 31.8804 27.125 27.8967 25.0158 22.1809C23.6048 18.3566 24.0674 13.35 26.1294 10.133C27.7913 7.54055 30.7579 5.33534 33.592 4.58582C35.0272 4.20638 38.4264 4.14713 39.6651 4.47996ZM30.2541 42.2414C26.2703 42.8156 23.7271 43.5725 19.8725 45.3312C15.291 47.4214 12.1834 49.6891 10.6327 52.0738C9.30651 54.113 8.99583 55.4441 9.00004 59.0686C9.00646 64.3181 9.75292 66.6394 12.2086 69.0457C16.7538 73.4994 28.243 75.9793 44.426 75.9996C51.8417 76.0087 53.0587 75.8856 56.605 74.7689C58.8202 74.0712 62.7215 72.0659 63.8479 71.0463C66.2013 68.9161 66.8169 67.1955 66.9573 62.3549C67.0514 59.1139 67.0131 58.5572 66.6041 57.2361C65.7427 54.4537 63.8787 51.9479 60.9553 49.6432C56.0153 45.7481 49.6344 43.2861 41.7688 42.2401C38.9574 41.8661 32.8522 41.8668 30.2541 42.2414ZM38.5865 43.9809C42.0152 44.4257 44.7668 45.05 47.6162 46.0297C50.0195 46.8557 53.2848 48.2158 53.5049 48.4819C53.5658 48.5558 53.8397 48.6847 54.1138 48.769C54.388 48.8531 54.6121 49.0132 54.6121 49.125C54.6121 49.2367 54.7462 49.3282 54.9105 49.3282C55.3771 49.3282 58.8379 51.9854 59.76 53.0516C60.2164 53.5794 60.7438 54.1869 60.9318 54.4016C61.4987 55.0488 62.7303 57.4187 63.163 58.6944C63.6451 60.1161 63.7226 65.1659 63.2943 67.2622C62.7348 70.0017 61.126 72.3365 59.0815 73.3766C57.9061 73.9745 55.4772 74.7584 53.5049 75.1764C50.8288 75.7438 38.6532 75.7449 33.4649 75.1786C22.0982 73.9377 15.999 72.0773 12.6267 68.8231C10.3933 66.6675 9.59393 64.5845 9.32511 60.2192C9.13999 57.2163 9.44624 55.284 10.411 53.365C12.7726 48.6677 18.8748 45.3144 27.4716 43.9901C29.9558 43.6071 35.6702 43.6026 38.5865 43.9809Z" fill="#034E89"/>
<path fill-rule="evenodd" clip-rule="evenodd" d="M35.79 3.25451C34.9984 3.42854 33.2047 4.1284 31.8042 4.80952C29.6952 5.83524 28.9884 6.31379 27.6903 7.59435C24.8595 10.387 23.6888 13.6018 23.887 18.0379C24.179 24.5756 28.0964 29.8649 34.2138 31.981C35.8571 32.5495 36.445 32.6428 38.4472 32.653C41.2732 32.6676 42.273 32.4119 45.3117 30.8969C48.1211 29.4963 49.6884 28.1896 51.0881 26.0805C56.333 18.1773 52.219 6.89754 42.9448 3.7531C40.6472 2.97395 37.9273 2.78445 35.79 3.25451ZM41.8795 3.84393C43.2511 4.1308 45.5471 5.21358 46.8647 6.19464C48.285 7.25237 50.1209 9.3894 51.1036 11.1285C51.5689 11.9518 51.9508 12.7007 51.9522 12.7924C51.9537 12.8843 51.614 13.1191 51.1977 13.3145C50.5064 13.6386 50.4599 13.7192 50.663 14.2368C51.0392 15.1956 51.1805 16.6519 51.1621 19.378C51.1472 21.5917 51.0545 22.2612 50.5558 23.7511C49.1951 27.8161 45.8678 30.9832 41.8884 32.0008C40.2081 32.4304 37.1516 32.4341 35.449 32.0082C28.633 30.3038 23.706 23.5847 24.1126 16.5476C24.5196 9.49831 30.007 4.07307 36.7865 4.01709C37.5172 4.01121 38.3642 3.86636 38.6687 3.69537C39.2331 3.37823 39.773 3.40328 41.8795 3.84393ZM30.2541 42.2414C26.2703 42.8156 23.7271 43.5725 19.8725 45.3312C15.291 47.4214 12.1834 49.6891 10.6327 52.0738C9.30651 54.113 8.99583 55.4441 9.00004 59.0686C9.00646 64.3181 9.75292 66.6394 12.2086 69.0457C16.7538 73.4994 28.243 75.9793 44.426 75.9996C51.8417 76.0087 53.0587 75.8856 56.605 74.7689C58.8202 74.0712 62.7215 72.0659 63.8479 71.0463C66.2013 68.9161 66.8169 67.1955 66.9573 62.3549C67.0514 59.1139 67.0131 58.5572 66.6041 57.2361C65.7427 54.4537 63.8787 51.9479 60.9553 49.6432C56.0153 45.7481 49.6344 43.2861 41.7688 42.2401C38.9574 41.8661 32.8522 41.8668 30.2541 42.2414ZM41.7688 42.6951C49.9674 43.5063 58.4245 47.2188 62.8964 51.9699C64.076 53.2232 65.6838 55.5278 65.6838 55.9651C65.6838 56.0253 65.0902 56.3692 64.3645 56.7295L63.0452 57.3845L63.3366 58.2028C64.0753 60.278 63.9135 66.2874 63.0523 68.7494C61.6787 72.6769 58.5957 74.5275 51.7821 75.5138C47.3182 76.1599 35.4353 75.6828 28.1505 74.5652C16.5818 72.79 11.5512 69.9956 9.77485 64.3577C9.19867 62.5291 9.05407 57.2583 9.52994 55.4345C10.0758 53.3424 11.2066 51.5347 12.9797 49.9198C17.6945 45.6261 25.2413 43.3669 34.5513 43.4623C36.8334 43.4858 37.1487 43.439 38.1379 42.9304C38.7643 42.6082 39.4559 42.4109 39.7759 42.4629C40.0803 42.5124 40.9771 42.6169 41.7688 42.6951Z" fill="#023B67"/>
<path fill-rule="evenodd" clip-rule="evenodd" d="M35.79 3.25451C34.9984 3.42854 33.2047 4.1284 31.8042 4.80952C29.6952 5.83524 28.9884 6.31379 27.6903 7.59435C24.8595 10.387 23.6888 13.6018 23.887 18.0379C24.179 24.5756 28.0964 29.8649 34.2138 31.981C35.8571 32.5495 36.445 32.6428 38.4472 32.653C41.2732 32.6676 42.273 32.4119 45.3117 30.8969C48.1211 29.4963 49.6884 28.1896 51.0881 26.0805C56.333 18.1773 52.219 6.89754 42.9448 3.7531C40.6472 2.97395 37.9273 2.78445 35.79 3.25451ZM42.4938 3.89119C48.2624 5.69474 52.3299 10.8342 52.9469 17.0991L53.0872 18.523L52.2996 18.8924C51.6665 19.1895 51.512 19.3849 51.512 19.889C51.512 21.0669 50.5908 24.1678 49.7872 25.6947C48.219 28.6752 45.3058 31.032 41.9038 32.0725C40.1308 32.6149 36.7083 32.5471 34.7935 31.932C30.05 30.4079 26.208 26.5536 24.6682 21.774C23.9605 19.577 23.9529 15.2468 24.6529 13.0612C25.5229 10.3452 27.4828 7.70064 29.7767 6.14824C30.8104 5.44861 33.773 4.20529 35.6461 3.6847C37.0595 3.29197 40.9523 3.40938 42.4938 3.89119ZM30.2541 42.2414C26.2703 42.8156 23.7271 43.5725 19.8725 45.3312C15.291 47.4214 12.1834 49.6891 10.6327 52.0738C9.30651 54.113 8.99583 55.4441 9.00004 59.0686C9.00646 64.3181 9.75292 66.6394 12.2086 69.0457C16.7538 73.4994 28.243 75.9793 44.426 75.9996C51.8417 76.0087 53.0587 75.8856 56.605 74.7689C58.8202 74.0712 62.7215 72.0659 63.8479 71.0463C66.2013 68.9161 66.8169 67.1955 66.9573 62.3549C67.0514 59.1139 67.0131 58.5572 66.6041 57.2361C65.7427 54.4537 63.8787 51.9479 60.9553 49.6432C56.0153 45.7481 49.6344 43.2861 41.7688 42.2401C38.9574 41.8661 32.8522 41.8668 30.2541 42.2414ZM42.3748 42.7028C52.583 43.9069 61.7252 48.8117 65.2808 54.9915C66.3561 56.8604 66.7053 58.5389 66.6059 61.3597C66.5696 62.3887 66.5667 62.3926 65.2742 63.0343L63.9788 63.6775L63.8484 65.2085C63.5164 69.1036 62.0977 71.6811 59.3729 73.3391C58.1333 74.0936 55.5574 74.9163 52.9513 75.3905C49.9017 75.9453 39.3567 75.944 34.0185 75.3884C17.5641 73.6756 11.0339 70.5281 9.55142 63.5954C9.0988 61.4788 9.10877 56.5265 9.56869 54.9767C10.8269 50.7368 14.2337 47.9278 21.7043 44.9707C28.2745 42.3701 34.1188 41.7287 42.3748 42.7028Z" fill="#023053"/>
<path fill-rule="evenodd" clip-rule="evenodd" d="M35.7771 3.25451C34.9852 3.42854 33.1908 4.1284 31.7896 4.80952C29.6798 5.83524 28.9727 6.31379 27.6741 7.59435C24.8421 10.387 23.6709 13.6018 23.8692 18.0379C24.1614 24.5756 28.0804 29.8649 34.2003 31.981C35.8443 32.5495 36.4324 32.6428 38.4355 32.653C41.2626 32.6676 42.2628 32.4119 45.3028 30.8969C48.1133 29.4963 49.6813 28.1896 51.0816 26.0805C56.3286 18.1773 52.2129 6.89754 42.9349 3.7531C40.6363 2.97395 37.9153 2.78445 35.7771 3.25451ZM41.0189 3.4732C46.7401 4.53659 51.7315 9.60112 52.8163 15.4428C53.1234 17.0972 53.0952 20.1843 52.7616 21.4473C52.5518 22.2405 52.344 22.5104 51.6724 22.8631C51.2158 23.1027 50.8419 23.4098 50.8416 23.5457C50.8412 23.6816 50.4265 24.6074 49.9196 25.6028C48.1789 29.0228 44.9916 31.4365 41.1636 32.2339C39.2491 32.6327 37.8427 32.6316 35.8879 32.2295C30.5936 31.1402 25.8926 26.5545 24.4722 21.0937C23.9396 19.046 23.8933 15.7765 24.3707 13.9238C25.5665 9.28223 28.7002 6.04195 33.7417 4.23426C36.8591 3.11641 38.293 2.96633 41.0189 3.4732ZM30.239 42.2414C26.2535 42.8156 23.7092 43.5725 19.8531 45.3312C15.2697 47.4214 12.1608 49.6891 10.6094 52.0738C9.67704 53.5068 8.96438 55.5933 9.00138 56.7815C9.02995 57.6962 9.03372 57.6909 9.19987 56.5162C9.94974 51.2141 14.5185 47.3005 23.664 44.1266C34.4947 40.3679 49.0595 42.0865 58.7052 48.2617C59.6799 48.8858 61.3908 50.3044 62.5073 51.4145C65.7624 54.651 66.7779 57.103 66.7847 61.7439C66.7883 64.0025 66.4799 65.9792 65.9261 67.2497C65.5703 68.0655 65.3311 68.28 64.2753 68.7311C63.4029 69.1038 62.964 69.4371 62.7804 69.8666C61.6705 72.4639 58.786 74.1978 53.7357 75.3032C51.8184 75.7229 50.9402 75.7676 44.5275 75.7711C37.136 75.7752 33.4216 75.5147 27.3591 74.5667C18.2213 73.1378 12.6468 70.5301 10.6575 66.7538C9.71004 64.9548 9.34275 63.4553 9.19034 60.7637L9.04258 58.1499L9.01135 60.2192C8.95176 64.1593 9.9061 66.8126 12.1861 69.0457C16.7331 73.4994 28.227 75.9793 44.4167 75.9996C51.8354 76.0087 53.0529 75.8856 56.6007 74.7689C58.8168 74.0712 62.7197 72.0659 63.8466 71.0463C66.201 68.9161 66.8168 67.1955 66.9573 62.3549C67.0514 59.1139 67.0131 58.5572 66.604 57.2361C65.7422 54.4537 63.8774 51.9479 60.9528 49.6432C56.0108 45.7481 49.6272 43.2861 41.7584 42.2401C38.9459 41.8661 32.8381 41.8668 30.239 42.2414Z" fill="#01213A"/>
</svg>
