<svg width="44" height="44" viewBox="0 0 44 44" fill="none" xmlns="http://www.w3.org/2000/svg">
<path fill-rule="evenodd" clip-rule="evenodd" d="M16.1935 7.04926C15.088 7.16076 14.1056 7.53304 12.7032 8.37176C10.1365 9.90697 8.95948 11.7664 8.84759 14.4627C8.74988 16.8174 9.39408 18.4916 11.0165 20.1002C12.518 21.5889 14.0186 22.2269 16.0304 22.2319C17.719 22.2361 18.7381 21.9091 20.6822 20.7389C22.0038 19.9434 22.9942 18.9206 23.5607 17.7661C24.155 16.5552 24.3373 15.776 24.3373 14.4483C24.3373 10.533 21.4253 7.33263 17.5708 7.01172C17.2682 6.98648 16.6484 7.00338 16.1935 7.04926ZM31.7641 20.0135C31.5825 20.0781 29.9734 20.6933 28.1882 21.3807C24.7661 22.6985 23.5679 23.2976 23.2925 23.8291C23.0782 24.2425 23.0801 25.2966 23.2976 26.7583C23.9652 31.2431 26.3538 34.7028 30.0688 36.566C30.5447 36.8048 31.0757 37 31.2487 37C32.0915 37 35.5563 34.9102 36.8147 33.643C38.9636 31.4791 40.2309 28.5082 40.4643 25.0878C40.5318 24.0966 40.5161 23.9406 40.3076 23.5329C40.0331 22.9962 40.1385 23.05 35.7598 21.2071C34.024 20.4765 32.4892 19.8827 32.349 19.8874C32.2088 19.8922 31.9456 19.9489 31.7641 20.0135ZM13.1443 24.1661C11.5188 24.377 10.1905 24.8955 8.38361 26.0241C6.5135 27.1923 5.39069 28.3896 4.52335 30.1405C3.79146 31.6179 3.5241 32.6829 3.50364 34.2013C3.48889 35.3038 3.50969 35.4397 3.74371 35.7669C4.2802 36.5172 3.67264 36.4663 14.6551 36.6828C28.2773 36.9515 27.1225 36.9663 27.8521 36.5133L28.4513 36.1412L28.0172 35.779C27.1 35.0136 25.8567 33.6547 25.2861 32.7941C23.8498 30.6275 22.9287 28.0514 22.7233 25.6267C22.6864 25.1917 22.6245 24.7844 22.5856 24.7218C22.4009 24.4236 21.1501 24.2479 18.561 24.1563C15.4014 24.0445 14.0626 24.047 13.1443 24.1661Z" fill="#0368B7"/>
<path fill-rule="evenodd" clip-rule="evenodd" d="M16.1935 7.04926C15.088 7.16076 14.1056 7.53304 12.7032 8.37176C10.1365 9.90697 8.95948 11.7664 8.84759 14.4627C8.74988 16.8174 9.39408 18.4916 11.0165 20.1002C12.518 21.5889 14.0186 22.2269 16.0304 22.2319C17.719 22.2361 18.7381 21.9091 20.6822 20.7389C22.0038 19.9434 22.9942 18.9206 23.5607 17.7661C24.155 16.5552 24.3373 15.776 24.3373 14.4483C24.3373 10.533 21.4253 7.33263 17.5708 7.01172C17.2682 6.98648 16.6484 7.00338 16.1935 7.04926ZM19.1522 7.54698C20.5882 7.92013 22.4042 9.37423 23.0403 10.6603C23.3631 11.313 23.3583 11.3302 22.7552 11.7023C22.594 11.8017 22.6041 11.9044 22.8636 12.7998C23.757 15.8821 22.6317 19.1642 20.1033 20.8512C18.8792 21.6678 17.7818 21.9977 16.2505 22.0095C15.2757 22.0169 14.8795 21.9692 14.215 21.7639C11.9851 21.0749 10.2284 19.3733 9.44184 17.1398C9.02165 15.9467 8.92483 14.3203 9.20319 13.1291C9.60368 11.4154 10.6954 9.877 12.2116 8.88968C13.3122 8.173 14.0267 7.93166 15.527 7.76956C16.3958 7.67561 16.8973 7.56849 17.0804 7.43778C17.3834 7.22135 18.0301 7.25548 19.1522 7.54698ZM31.7641 20.0135C31.5825 20.0781 29.9734 20.6933 28.1882 21.3807C24.7661 22.6985 23.5679 23.2976 23.2925 23.8291C23.0782 24.2425 23.0801 25.2966 23.2976 26.7583C23.9652 31.2431 26.3538 34.7028 30.0688 36.566C30.5447 36.8048 31.0757 37 31.2487 37C32.0915 37 35.5563 34.9102 36.8147 33.643C38.9636 31.4791 40.2309 28.5082 40.4643 25.0878C40.5318 24.0966 40.5161 23.9406 40.3076 23.5329C40.0331 22.9962 40.1385 23.05 35.7598 21.2071C34.024 20.4765 32.4892 19.8827 32.349 19.8874C32.2088 19.8922 31.9456 19.9489 31.7641 20.0135ZM36.1311 21.5935C38.0863 22.4159 39.7726 23.1644 39.8785 23.2568C40.1609 23.5032 40.116 23.6719 39.7035 23.9147L39.3359 24.131L39.2623 25.4168C39.0165 29.7107 37.2262 33.2368 34.2138 35.3604C33.3159 35.9935 31.7043 36.7805 31.3062 36.7805C30.9102 36.7805 29.4468 36.0058 28.4602 35.2737C25.4592 33.0471 23.6017 29.3824 23.3788 25.2481L23.3162 24.0873L23.6342 23.7329C23.9003 23.4365 24.5321 23.1556 27.5036 22.0128C29.4567 21.2616 31.1401 20.6442 31.2444 20.6407C31.3487 20.6373 31.6073 20.5166 31.8191 20.3726C32.0309 20.2287 32.2879 20.108 32.3902 20.1046C32.4926 20.1011 34.176 20.7712 36.1311 21.5935ZM13.1443 24.1661C11.5188 24.377 10.1905 24.8955 8.38361 26.0241C6.5135 27.1923 5.39069 28.3896 4.52335 30.1405C3.79146 31.6179 3.5241 32.6829 3.50364 34.2013C3.48889 35.3038 3.50969 35.4397 3.74371 35.7669C4.2802 36.5172 3.67264 36.4663 14.6551 36.6828C28.2773 36.9515 27.1225 36.9663 27.8521 36.5133L28.4513 36.1412L28.0172 35.779C27.1 35.0136 25.8567 33.6547 25.2861 32.7941C23.8498 30.6275 22.9287 28.0514 22.7233 25.6267C22.6864 25.1917 22.6245 24.7844 22.5856 24.7218C22.4009 24.4236 21.1501 24.2479 18.561 24.1563C15.4014 24.0445 14.0626 24.047 13.1443 24.1661ZM21.7242 24.6685C22.2262 24.7513 22.2426 24.8536 21.7954 25.1131L21.4539 25.3115L21.5266 26.1346C21.7175 28.2947 22.7021 31.3033 23.4843 32.1161C23.6005 32.2368 23.9514 32.7284 24.264 33.2084C24.9282 34.2282 26.8223 36.1886 27.2459 36.2946C27.4064 36.3348 27.5191 36.4235 27.4964 36.4917C27.4314 36.6873 25.7417 36.6849 14.8497 36.4735C5.05357 36.2834 4.74814 36.2711 4.4591 36.0559C3.79718 35.5629 3.70619 35.3229 3.72204 34.1099C3.77584 29.9952 6.74962 26.3081 10.9692 25.1244C11.8119 24.888 12.0195 24.8779 15.8379 24.8876C18.0315 24.8931 19.8263 24.8578 19.8263 24.809C19.8263 24.7301 20.1804 24.6744 21.0366 24.6185C21.1879 24.6086 21.4974 24.6311 21.7242 24.6685Z" fill="#045CA2"/>
<path fill-rule="evenodd" clip-rule="evenodd" d="M16.1935 7.04926C15.088 7.16076 14.1056 7.53304 12.7032 8.37176C10.1365 9.90697 8.95948 11.7664 8.84759 14.4627C8.74988 16.8174 9.39408 18.4916 11.0165 20.1002C12.518 21.5889 14.0186 22.2269 16.0304 22.2319C17.719 22.2361 18.7381 21.9091 20.6822 20.7389C22.0038 19.9434 22.9942 18.9206 23.5607 17.7661C24.155 16.5552 24.3373 15.776 24.3373 14.4483C24.3373 10.533 21.4253 7.33263 17.5708 7.01172C17.2682 6.98648 16.6484 7.00338 16.1935 7.04926ZM19.336 7.57134C21.4194 8.28396 23.1047 10.0104 23.7126 12.0545L23.8827 12.6262L23.5079 12.8573L23.133 13.0884L23.2003 14.2622C23.2511 15.1465 23.2218 15.6661 23.0815 16.3679C22.54 19.0792 20.5555 21.177 17.8888 21.8574C14.6848 22.6748 11.251 21.0473 9.77753 18.013C7.73259 13.8017 9.83452 9.16329 14.3774 7.86219C14.9206 7.70667 15.471 7.5101 15.6005 7.42537C16.16 7.05968 18.057 7.13387 19.336 7.57134ZM31.7641 20.0135C31.5825 20.0781 29.9734 20.6933 28.1882 21.3807C24.7661 22.6985 23.5679 23.2976 23.2925 23.8291C23.0782 24.2425 23.0801 25.2966 23.2976 26.7583C23.9652 31.2431 26.3538 34.7028 30.0688 36.566C30.5447 36.8048 31.0757 37 31.2487 37C32.0915 37 35.5563 34.9102 36.8147 33.643C38.9636 31.4791 40.2309 28.5082 40.4643 25.0878C40.5318 24.0966 40.5161 23.9406 40.3076 23.5329C40.0331 22.9962 40.1385 23.05 35.7598 21.2071C34.024 20.4765 32.4892 19.8827 32.349 19.8874C32.2088 19.8922 31.9456 19.9489 31.7641 20.0135ZM36.1728 21.5704C38.0859 22.3799 39.7704 23.1541 39.9161 23.2906C40.2865 23.6375 40.2496 23.9066 39.7952 24.174C39.3523 24.4348 39.3353 24.4915 39.2559 25.97C39.0884 29.0903 37.5842 32.4313 35.4696 34.3792C34.2381 35.5137 32.0715 36.7805 31.3626 36.7805C30.9759 36.7805 29.5895 36.1107 28.6157 35.4534C27.823 34.9183 26.4813 33.5798 25.8421 32.6862C24.411 30.6857 23.5074 28.038 23.3765 25.4608C23.3024 24.005 23.3567 23.786 23.8718 23.4619C24.0976 23.3199 25.8594 22.5999 27.787 21.862C29.7145 21.1241 31.4474 20.4255 31.6379 20.3097C31.8283 20.1939 32.144 20.0989 32.3393 20.0987C32.5497 20.0985 34.1123 20.6983 36.1728 21.5704ZM13.1443 24.1661C11.5188 24.377 10.1905 24.8955 8.38361 26.0241C6.5135 27.1923 5.39069 28.3896 4.52335 30.1405C3.79146 31.6179 3.5241 32.6829 3.50364 34.2013C3.48889 35.3038 3.50969 35.4397 3.74371 35.7669C4.2802 36.5172 3.67264 36.4663 14.6551 36.6828C28.2773 36.9515 27.1225 36.9663 27.8521 36.5133L28.4513 36.1412L28.0172 35.779C27.1 35.0136 25.8567 33.6547 25.2861 32.7941C23.8498 30.6275 22.9287 28.0514 22.7233 25.6267C22.6864 25.1917 22.6245 24.7844 22.5856 24.7218C22.4009 24.4236 21.1501 24.2479 18.561 24.1563C15.4014 24.0445 14.0626 24.047 13.1443 24.1661ZM21.2094 24.5351C21.5768 24.5656 21.9959 24.6343 22.1408 24.6879C22.3981 24.7828 22.3932 24.792 21.9289 25.0844L21.4535 25.3837L21.5276 26.0061C21.6166 26.7531 22.1372 28.9108 22.2471 28.9881C22.29 29.0183 22.3888 29.2406 22.4667 29.482C22.6922 30.181 23.3807 31.6108 23.8935 32.4453C24.9188 34.114 26.562 35.9414 27.3415 36.2804C27.6211 36.4019 27.6331 36.4285 27.4689 36.5644C27.3156 36.6913 25.5724 36.684 16.1578 36.517C3.76671 36.297 4.368 36.3442 3.86848 35.5533C3.66163 35.2258 3.64359 35.0677 3.68892 33.9818C3.74085 32.7373 3.91051 31.9406 4.36019 30.8301C5.34987 28.3859 7.5977 26.2636 10.1809 25.3344C11.8335 24.7399 12.2537 24.6882 16.1114 24.6053C18.0924 24.5627 19.7431 24.4981 19.7796 24.4618C19.8161 24.4253 20.0024 24.4145 20.1937 24.4375C20.385 24.4607 20.842 24.5045 21.2094 24.5351Z" fill="#04508C"/>
<path fill-rule="evenodd" clip-rule="evenodd" d="M16.1935 7.04926C15.088 7.16076 14.1056 7.53304 12.7032 8.37176C10.1365 9.90697 8.95948 11.7664 8.84759 14.4627C8.74988 16.8174 9.39408 18.4916 11.0165 20.1002C12.518 21.5889 14.0186 22.2269 16.0304 22.2319C17.719 22.2361 18.7381 21.9091 20.6822 20.7389C22.0038 19.9434 22.9942 18.9206 23.5607 17.7661C24.155 16.5552 24.3373 15.776 24.3373 14.4483C24.3373 10.533 21.4253 7.33263 17.5708 7.01172C17.2682 6.98648 16.6484 7.00338 16.1935 7.04926ZM19.258 7.50692C20.372 7.89851 21.1641 8.3947 22.0164 9.23474C23.1846 10.3864 23.8904 11.811 24.0679 13.3758L24.1416 14.0259L23.7664 14.2468C23.4021 14.4612 23.3872 14.4977 23.2543 15.4995C22.838 18.6346 21.1381 20.8226 18.396 21.7528C17.4177 22.0846 15.6519 22.1616 14.6111 21.9178C13.1165 21.5678 11.6299 20.6353 10.6055 19.4051C9.98657 18.6617 9.2988 17.2444 9.09779 16.2978C8.51806 13.5687 9.62536 10.6472 11.8356 9.07395C12.7094 8.4521 14.6093 7.53743 15.4841 7.3176C16.4991 7.06243 18.2424 7.1499 19.258 7.50692ZM31.7641 20.0135C31.5825 20.0781 29.9734 20.6933 28.1882 21.3807C24.7661 22.6985 23.5679 23.2976 23.2925 23.8291C23.0782 24.2425 23.0801 25.2966 23.2976 26.7583C23.9652 31.2431 26.3538 34.7028 30.0688 36.566C30.5447 36.8048 31.0757 37 31.2487 37C32.0915 37 35.5563 34.9102 36.8147 33.643C38.9636 31.4791 40.2309 28.5082 40.4643 25.0878C40.5318 24.0966 40.5161 23.9406 40.3076 23.5329C40.0331 22.9962 40.1385 23.05 35.7598 21.2071C34.024 20.4765 32.4892 19.8827 32.349 19.8874C32.2088 19.8922 31.9456 19.9489 31.7641 20.0135ZM36.1651 21.5527C38.0411 22.3403 39.6797 23.0521 39.8065 23.1344C40.0468 23.2904 40.2911 23.7259 40.2911 23.9983C40.2911 24.0852 40.1045 24.2739 39.8764 24.4174L39.4617 24.6785L39.328 25.9343C38.81 30.8004 36.4745 34.4621 32.7261 36.2852C32.1074 36.5861 31.5558 36.7805 31.3206 36.7805C31.0963 36.7805 30.6082 36.6171 30.1604 36.3922C26.7832 34.6957 24.3737 31.4337 23.575 27.4773C23.4564 26.8897 23.3287 25.9398 23.2912 25.3663C23.2335 24.4844 23.2538 24.2648 23.4226 23.9412C23.6842 23.4399 24.0862 23.2257 26.6479 22.2232C27.8279 21.7612 29.4123 21.1372 30.1687 20.8362C32.2215 20.0195 32.2962 19.995 32.5343 20.0603C32.6553 20.0934 34.2892 20.765 36.1651 21.5527ZM13.1443 24.1661C11.5188 24.377 10.1905 24.8955 8.38361 26.0241C6.5135 27.1923 5.39069 28.3896 4.52335 30.1405C3.79146 31.6179 3.5241 32.6829 3.50364 34.2013C3.48889 35.3038 3.50969 35.4397 3.74371 35.7669C4.2802 36.5172 3.67264 36.4663 14.6551 36.6828C28.2773 36.9515 27.1225 36.9663 27.8521 36.5133L28.4513 36.1412L28.0172 35.779C27.1 35.0136 25.8567 33.6547 25.2861 32.7941C23.8498 30.6275 22.9287 28.0514 22.7233 25.6267C22.6864 25.1917 22.6245 24.7844 22.5856 24.7218C22.4009 24.4236 21.1501 24.2479 18.561 24.1563C15.4014 24.0445 14.0626 24.047 13.1443 24.1661ZM21.9443 24.5923C22.4431 24.7445 22.4606 24.8538 22.0268 25.1094C21.615 25.3521 21.6148 25.4275 22.0232 27.234C22.5579 29.5996 23.4508 31.7477 24.5243 33.2513C25.1525 34.1313 26.7602 35.8182 27.2704 36.1327C27.7034 36.3997 27.7243 36.4871 27.3906 36.6369C27.1409 36.749 5.65695 36.4091 4.88798 36.2809C4.4174 36.2024 3.80874 35.6614 3.64953 35.18C3.50276 34.7367 3.64711 33.0935 3.92811 32.0063C4.1529 31.1366 4.86443 29.6615 5.46187 28.8261C6.66853 27.1394 8.77948 25.6791 11.2135 24.8473C12.0355 24.5664 12.1941 24.5519 15.2052 24.4816C19.1065 24.3908 21.4079 24.4285 21.9443 24.5923Z" fill="#044476"/>
<path fill-rule="evenodd" clip-rule="evenodd" d="M16.1935 7.04926C15.088 7.16076 14.1056 7.53304 12.7032 8.37176C10.1365 9.90697 8.95948 11.7664 8.84759 14.4627C8.74988 16.8174 9.39408 18.4916 11.0165 20.1002C12.518 21.5889 14.0186 22.2269 16.0304 22.2319C17.719 22.2361 18.7381 21.9091 20.6822 20.7389C22.0038 19.9434 22.9942 18.9206 23.5607 17.7661C24.155 16.5552 24.3373 15.776 24.3373 14.4483C24.3373 10.533 21.4253 7.33263 17.5708 7.01172C17.2682 6.98648 16.6484 7.00338 16.1935 7.04926ZM18.6754 7.31244C21.7876 8.09486 24.0884 10.9237 24.1511 14.0449C24.1803 15.5076 24.0911 15.8567 23.6162 16.1361C23.4048 16.2606 23.2047 16.4498 23.1715 16.5566C22.437 18.9225 21.2035 20.4674 19.3385 21.3571C18.0949 21.9504 17.4301 22.1043 16.1544 22.0941C14.9414 22.0843 14.1173 21.883 12.9497 21.3114C8.58782 19.1755 7.56744 13.2603 10.9686 9.82652C11.9954 8.78969 14.0197 7.62688 15.365 7.30081C16.1526 7.10995 17.8942 7.11609 18.6754 7.31244ZM31.7641 20.0135C31.5825 20.0781 29.9734 20.6933 28.1882 21.3807C24.7661 22.6985 23.5679 23.2976 23.2925 23.8291C23.0782 24.2425 23.0801 25.2966 23.2976 26.7583C23.9652 31.2431 26.3538 34.7028 30.0688 36.566C30.5447 36.8048 31.0757 37 31.2487 37C32.0915 37 35.5563 34.9102 36.8147 33.643C38.9636 31.4791 40.2309 28.5082 40.4643 25.0878C40.5318 24.0966 40.5161 23.9406 40.3076 23.5329C40.0331 22.9962 40.1385 23.05 35.7598 21.2071C34.024 20.4765 32.4892 19.8827 32.349 19.8874C32.2088 19.8922 31.9456 19.9489 31.7641 20.0135ZM36.1788 21.5422C39.2093 22.8211 39.9013 23.153 40.0911 23.4188C40.3007 23.7125 40.3158 23.8429 40.2581 24.8559C40.2231 25.4686 40.1303 26.2607 40.0519 26.616C39.9282 27.1765 39.8545 27.2964 39.495 27.5227C39.2672 27.6663 39.0808 27.8636 39.0808 27.9613C39.0808 28.2787 38.4062 30.1184 37.965 31.0041C36.74 33.4636 35.0594 35.1555 32.628 36.3769C31.5021 36.9425 31.2416 36.9633 30.3888 36.5565C28.6669 35.7349 26.8904 34.2614 25.8229 32.7692C24.3515 30.7123 23.4311 28.0197 23.2827 25.3382C23.206 23.9491 23.3256 23.7074 24.3816 23.1184C25.1351 22.698 31.9468 20.0113 32.2956 19.9969C32.4064 19.9923 34.1538 20.6876 36.1788 21.5422ZM13.1443 24.1661C11.5188 24.377 10.1905 24.8955 8.38361 26.0241C6.5135 27.1923 5.39069 28.3896 4.52335 30.1405C3.79146 31.6179 3.5241 32.6829 3.50364 34.2013C3.48889 35.3038 3.50969 35.4397 3.74371 35.7669C4.2802 36.5172 3.67264 36.4663 14.6551 36.6828C28.2773 36.9515 27.1225 36.9663 27.8521 36.5133L28.4513 36.1412L28.0172 35.779C27.1 35.0136 25.8567 33.6547 25.2861 32.7941C23.8498 30.6275 22.9287 28.0514 22.7233 25.6267C22.6864 25.1917 22.6245 24.7844 22.5856 24.7218C22.4009 24.4236 21.1501 24.2479 18.561 24.1563C15.4014 24.0445 14.0626 24.047 13.1443 24.1661ZM21.7613 24.5577L22.4669 24.7345V25.3662C22.4669 25.8098 22.4148 26.0411 22.2919 26.1428C22.0597 26.335 22.1543 27.1431 22.5756 28.5661C22.918 29.723 23.7511 31.6247 23.977 31.7653C24.055 31.8138 24.2194 32.0501 24.3423 32.2905C24.4653 32.5308 24.614 32.6979 24.6727 32.6616C24.7315 32.6253 24.8657 32.7533 24.971 32.9458C25.3254 33.5935 27.3721 35.7142 27.8672 35.9467C28.157 36.0828 28.1362 36.1326 27.6453 36.479L27.2169 36.7812L16.0318 36.5626C3.48207 36.3175 4.32432 36.3909 3.79862 35.4961C3.52817 35.0357 3.51629 34.9537 3.58605 34.0317C3.77342 31.5557 4.73515 29.4052 6.41624 27.703C7.80025 26.3014 10.2045 24.9685 12.0191 24.5965C12.8944 24.4171 13.512 24.3835 15.9068 24.3852C17.4728 24.3864 18.7849 24.3548 18.8225 24.3151C18.9351 24.1968 21.0018 24.3674 21.7613 24.5577Z" fill="#033156"/>
<path fill-rule="evenodd" clip-rule="evenodd" d="M16.1935 7.04926C15.088 7.16076 14.1056 7.53304 12.7032 8.37176C10.1365 9.90697 8.95948 11.7664 8.84759 14.4627C8.74988 16.8174 9.39408 18.4916 11.0165 20.1002C12.5628 21.6334 14.0372 22.2434 16.1404 22.2201C16.8061 22.2127 17.4992 22.1547 17.6808 22.0911C17.9511 21.9964 17.9013 21.9893 17.4057 22.0521C15.763 22.26 14.3227 22.0302 12.8947 21.3324C11.728 20.7624 10.3676 19.3951 9.73924 18.1609C9.10868 16.9226 8.89226 15.8792 8.96069 14.407C9.02484 13.0263 9.35206 12.0039 10.0894 10.8791C10.751 9.86998 11.4521 9.2377 12.8138 8.42236C14.6329 7.33318 15.9576 6.99756 17.7908 7.16153C20.5127 7.40496 22.9757 9.43558 23.8972 12.1962C24.2317 13.198 24.316 14.9733 24.0745 15.9277C23.8144 16.9549 23.2522 18.0237 22.8332 18.2874C22.6412 18.4081 22.4372 18.6056 22.3797 18.7264C22.1674 19.1723 20.7775 20.5479 20.1469 20.9361C19.3712 21.4136 19.2731 21.5652 20.0188 21.1338C21.9755 20.0019 22.892 19.1291 23.5657 17.756C24.1549 16.5552 24.3373 15.7733 24.3373 14.4483C24.3373 10.533 21.4253 7.33263 17.5708 7.01172C17.2682 6.98648 16.6484 7.00338 16.1935 7.04926ZM32.3692 19.9833C32.8848 20.0894 39.6297 22.9374 39.8937 23.1604C40.4195 23.6047 40.477 24.2894 40.1668 26.409C39.8622 28.49 38.5464 31.5992 37.8332 31.9233C37.6836 31.9914 37.2656 32.4343 36.9044 32.9076C36.1521 33.8934 35.1758 34.8293 34.235 35.4667C33.4254 36.0151 31.6389 36.8902 31.3288 36.8902C31.2017 36.8902 30.7424 36.7204 30.308 36.5127C27.2281 35.0404 24.8483 32.177 23.8546 28.7479C23.5223 27.6014 23.2371 25.7707 23.2371 24.7844C23.2371 23.4909 23.6337 23.2347 28.5459 21.356C30.4069 20.6443 31.9095 20.0422 31.8852 20.0179C31.7879 19.9208 24.8975 22.6568 24.2029 23.0685C23.7632 23.3289 23.3901 23.6407 23.2925 23.8291C23.0782 24.2425 23.0801 25.2966 23.2976 26.7583C23.9652 31.2431 26.3538 34.7028 30.0688 36.566C30.5447 36.8048 31.0757 37 31.2487 37C32.0915 37 35.5563 34.9102 36.8147 33.643C38.9636 31.4791 40.2309 28.5082 40.4643 25.0878C40.5318 24.0966 40.5161 23.9406 40.3076 23.5329C40.0331 22.9962 40.1385 23.05 35.7598 21.2071C33.9994 20.4662 32.4668 19.8844 32.294 19.8914C32.0098 19.9029 32.016 19.9106 32.3692 19.9833ZM18.8361 21.6348C18.7453 21.6933 18.7205 21.7411 18.781 21.7411C18.8416 21.7411 18.9653 21.6933 19.0561 21.6348C19.1469 21.5763 19.1716 21.5284 19.1111 21.5284C19.0506 21.5284 18.9268 21.5763 18.8361 21.6348ZM18.2309 21.8543C18.0858 21.9165 18.0671 21.9507 18.1759 21.9546C18.2667 21.958 18.4152 21.9128 18.506 21.8543C18.7071 21.7247 18.5334 21.7247 18.2309 21.8543ZM13.1443 24.1661C11.5188 24.377 10.1905 24.8955 8.38361 26.0241C6.5135 27.1923 5.39069 28.3896 4.52335 30.1405C3.79146 31.6179 3.5241 32.6829 3.50364 34.2013C3.48889 35.3038 3.50969 35.4397 3.74371 35.7669C4.2802 36.5172 3.67264 36.4663 14.6551 36.6828C28.2773 36.9515 27.1225 36.9663 27.8521 36.5133L28.4513 36.1412L28.0172 35.779C27.1 35.0136 25.8567 33.6547 25.2861 32.7941C23.8498 30.6275 22.9287 28.0514 22.7233 25.6267C22.6864 25.1917 22.6245 24.7844 22.5856 24.7218C22.4009 24.4236 21.1501 24.2479 18.561 24.1563C15.4014 24.0445 14.0626 24.047 13.1443 24.1661ZM20.9265 24.3844C21.3199 24.4471 21.8245 24.5466 22.0479 24.6057C22.4298 24.7064 22.458 24.7439 22.517 25.2317C22.7114 26.8395 22.9328 27.9685 23.2441 28.9395C24.0684 31.5109 25.7411 34.0929 27.5135 35.5301C27.8776 35.8254 28.1785 36.0918 28.1818 36.122C28.1852 36.1522 27.9669 36.3161 27.6968 36.4864L27.2057 36.7958L16.0477 36.5802C3.72171 36.3419 4.37955 36.3925 3.84285 35.642C3.62323 35.3349 3.59925 35.178 3.61421 34.1465C3.65976 31.0145 5.29067 28.1759 8.10854 26.3237C9.71316 25.269 10.8647 24.7529 12.3445 24.4253C13.1149 24.2547 19.9094 24.2224 20.9265 24.3844Z" fill="#001D33"/>
</svg>
