<svg width="44" height="44" viewBox="0 0 44 44" fill="none" xmlns="http://www.w3.org/2000/svg">
<path fill-rule="evenodd" clip-rule="evenodd" d="M20.2523 1.81265C19.8054 1.90958 18.7929 2.29937 18.0022 2.67873C16.8117 3.25002 16.4127 3.51655 15.6799 4.22978C14.0818 5.78519 13.421 7.57571 13.5328 10.0465C13.6977 13.6877 15.9092 16.6336 19.3625 17.8122C20.2902 18.1289 20.6221 18.1808 21.7523 18.1865C23.3476 18.1946 23.912 18.0522 25.6275 17.2084C27.2134 16.4284 28.0982 15.7006 28.8883 14.5259C31.8492 10.1241 29.5267 3.84168 24.2913 2.09034C22.9943 1.65639 21.4588 1.55085 20.2523 1.81265ZM17.1272 23.5269C14.8782 23.8467 13.4426 24.2682 11.2666 25.2478C8.6803 26.4119 6.92599 27.675 6.05059 29.0031C5.30194 30.1389 5.12655 30.8803 5.12893 32.899C5.13256 35.8228 5.55394 37.1156 6.94024 38.4558C9.50607 40.9364 15.9919 42.3176 25.1275 42.3289C29.3137 42.334 30.0007 42.2654 32.0027 41.6434C33.2532 41.2549 35.4555 40.138 36.0914 39.5701C37.42 38.3836 37.7675 37.4254 37.8467 34.7293C37.8999 32.9242 37.8783 32.6141 37.6474 31.8784C37.1611 30.3287 36.1088 28.933 34.4585 27.6494C31.6698 25.48 28.0677 24.1087 23.6274 23.5261C22.0404 23.3178 18.5939 23.3182 17.1272 23.5269Z" fill="#035DA2"/>
<path fill-rule="evenodd" clip-rule="evenodd" d="M20.2523 1.81265C19.8054 1.90958 18.7929 2.29937 18.0022 2.67873C16.8117 3.25002 16.4127 3.51655 15.6799 4.22978C14.0818 5.78519 13.421 7.57571 13.5328 10.0465C13.6977 13.6877 15.9092 16.6336 19.3625 17.8122C20.2902 18.1289 20.6221 18.1808 21.7523 18.1865C23.3476 18.1946 23.912 18.0522 25.6275 17.2084C27.2134 16.4284 28.0982 15.7006 28.8883 14.5259C31.8492 10.1241 29.5267 3.84168 24.2913 2.09034C22.9943 1.65639 21.4588 1.55085 20.2523 1.81265ZM22.4399 2.49518C23.2665 2.71428 24.8774 3.35872 24.8774 3.47021C24.8774 3.52759 24.9622 3.57442 25.066 3.57442C25.2276 3.57442 26.8113 5.02695 27.1954 5.52763C27.5713 6.01751 28.1748 7.18131 28.4593 7.96489C28.8966 9.16909 29.0005 11.1549 28.6958 12.4838C27.8979 15.9642 24.8716 18.2138 21.3148 17.9704C18.1832 17.7562 15.3608 15.5374 14.1701 12.3539C13.3736 10.2239 13.6347 7.43546 14.7987 5.64373C15.7369 4.19981 17.4116 2.97159 19.0115 2.55414C19.8217 2.34281 21.7406 2.30981 22.4399 2.49518ZM17.1272 23.5269C14.8782 23.8467 13.4426 24.2682 11.2666 25.2478C8.6803 26.4119 6.92599 27.675 6.05059 29.0031C5.30194 30.1389 5.12655 30.8803 5.12893 32.899C5.13256 35.8228 5.55394 37.1156 6.94024 38.4558C9.50607 40.9364 15.9919 42.3176 25.1275 42.3289C29.3137 42.334 30.0007 42.2654 32.0027 41.6434C33.2532 41.2549 35.4555 40.138 36.0914 39.5701C37.42 38.3836 37.7675 37.4254 37.8467 34.7293C37.8999 32.9242 37.8783 32.6141 37.6474 31.8784C37.1611 30.3287 36.1088 28.933 34.4585 27.6494C31.6698 25.48 28.0677 24.1087 23.6274 23.5261C22.0404 23.3178 18.5939 23.3182 17.1272 23.5269ZM21.831 24.4957C23.7665 24.7434 25.3198 25.0911 26.9284 25.6368C28.2851 26.0969 30.1284 26.8544 30.2526 27.0026C30.287 27.0437 30.4416 27.1156 30.5964 27.1625C30.7511 27.2093 30.8776 27.2985 30.8776 27.3607C30.8776 27.423 30.9534 27.4739 31.0462 27.4739C31.3095 27.4739 33.2632 28.9539 33.7837 29.5477C34.0414 29.8417 34.3391 30.18 34.4453 30.2997C34.7653 30.6601 35.4605 31.98 35.7048 32.6906C35.9769 33.4824 36.0207 36.2949 35.7789 37.4625C35.463 38.9883 34.5549 40.2887 33.4007 40.868C32.7372 41.201 31.366 41.6376 30.2526 41.8704C28.742 42.1865 21.8686 42.1871 18.9398 41.8716C12.523 41.1805 9.07993 40.1443 7.17625 38.3318C5.91546 37.1313 5.46419 35.9711 5.31244 33.5398C5.20793 31.8673 5.38081 30.7911 5.92546 29.7223C7.25862 27.1061 10.7034 25.2384 15.5564 24.5008C16.9588 24.2875 20.1847 24.285 21.831 24.4957Z" fill="#034E89"/>
<path fill-rule="evenodd" clip-rule="evenodd" d="M20.2523 1.81265C19.8054 1.90958 18.7929 2.29937 18.0022 2.67873C16.8117 3.25002 16.4127 3.51655 15.6799 4.22978C14.0818 5.78519 13.421 7.57571 13.5328 10.0465C13.6977 13.6877 15.9092 16.6336 19.3625 17.8122C20.2902 18.1289 20.6221 18.1808 21.7523 18.1865C23.3476 18.1946 23.912 18.0522 25.6275 17.2084C27.2134 16.4284 28.0982 15.7006 28.8883 14.5259C31.8492 10.1241 29.5267 3.84168 24.2913 2.09034C22.9943 1.65639 21.4588 1.55085 20.2523 1.81265ZM23.6899 2.14093C24.4642 2.30071 25.7604 2.90378 26.5041 3.45019C27.3059 4.03931 28.3423 5.22955 28.8971 6.19815C29.1597 6.65673 29.3753 7.07382 29.3761 7.12489C29.377 7.17609 29.1852 7.30687 28.9502 7.41569C28.5599 7.59621 28.5337 7.6411 28.6483 7.92935C28.8607 8.46339 28.9405 9.27451 28.9301 10.7928C28.9217 12.0257 28.8693 12.3987 28.5878 13.2285C27.8197 15.4925 25.9414 17.2565 23.6949 17.8233C22.7464 18.0625 21.021 18.0646 20.0598 17.8274C16.212 16.8781 13.4307 13.1358 13.6602 9.2164C13.89 5.29021 16.9877 2.26856 20.8148 2.23738C21.2273 2.23411 21.7055 2.15343 21.8774 2.0582C22.196 1.88156 22.5007 1.89551 23.6899 2.14093ZM17.1272 23.5269C14.8782 23.8467 13.4426 24.2682 11.2666 25.2478C8.6803 26.4119 6.92599 27.675 6.05059 29.0031C5.30194 30.1389 5.12655 30.8803 5.12893 32.899C5.13256 35.8228 5.55394 37.1156 6.94024 38.4558C9.50607 40.9364 15.9919 42.3176 25.1275 42.3289C29.3137 42.334 30.0007 42.2654 32.0027 41.6434C33.2532 41.2549 35.4555 40.138 36.0914 39.5701C37.42 38.3836 37.7675 37.4254 37.8467 34.7293C37.8999 32.9242 37.8783 32.6141 37.6474 31.8784C37.1611 30.3287 36.1088 28.933 34.4585 27.6494C31.6698 25.48 28.0677 24.1087 23.6274 23.5261C22.0404 23.3178 18.5939 23.3182 17.1272 23.5269ZM23.6274 23.7796C28.2557 24.2314 33.0298 26.2991 35.5543 28.9453C36.2202 29.6433 37.1278 30.9269 37.1278 31.1705C37.1278 31.204 36.7927 31.3955 36.3831 31.5962L35.6383 31.961L35.8028 32.4168C36.2198 33.5726 36.1284 36.9196 35.6423 38.2908C34.8669 40.4783 33.1265 41.509 29.2801 42.0583C26.7601 42.4182 20.052 42.1525 15.9397 41.53C9.40895 40.5413 6.5691 38.9849 5.56632 35.8448C5.24106 34.8264 5.15943 31.8907 5.42807 30.8749C5.7362 29.7097 6.3746 28.7029 7.3755 27.8034C10.0371 25.412 14.2974 24.1537 19.553 24.2069C20.8413 24.22 21.0193 24.1939 21.5777 23.9106C21.9314 23.7312 22.3217 23.6213 22.5024 23.6503C22.6743 23.6778 23.1805 23.736 23.6274 23.7796Z" fill="#023B67"/>
<path fill-rule="evenodd" clip-rule="evenodd" d="M20.2523 1.81265C19.8054 1.90958 18.7929 2.29937 18.0022 2.67873C16.8117 3.25002 16.4127 3.51655 15.6799 4.22978C14.0818 5.78519 13.421 7.57571 13.5328 10.0465C13.6977 13.6877 15.9092 16.6336 19.3625 17.8122C20.2902 18.1289 20.6221 18.1808 21.7523 18.1865C23.3476 18.1946 23.912 18.0522 25.6275 17.2084C27.2134 16.4284 28.0982 15.7006 28.8883 14.5259C31.8492 10.1241 29.5267 3.84168 24.2913 2.09034C22.9943 1.65639 21.4588 1.55085 20.2523 1.81265ZM24.0367 2.16726C27.2932 3.17177 29.5894 6.03425 29.9376 9.52358L30.0169 10.3166L29.5722 10.5224C29.2148 10.6879 29.1276 10.7967 29.1276 11.0774C29.1276 11.7335 28.6076 13.4606 28.1539 14.311C27.2687 15.971 25.6241 17.2836 23.7037 17.8632C22.7028 18.1653 20.7707 18.1275 19.6898 17.7849C17.0119 16.9361 14.8431 14.7894 13.9738 12.1273C13.5743 10.9037 13.5701 8.4919 13.9652 7.2746C14.4564 5.76189 15.5628 4.28898 16.8577 3.42435C17.4412 3.03468 19.1136 2.3422 20.171 2.05225C20.9689 1.83352 23.1665 1.89891 24.0367 2.16726ZM17.1272 23.5269C14.8782 23.8467 13.4426 24.2682 11.2666 25.2478C8.6803 26.4119 6.92599 27.675 6.05059 29.0031C5.30194 30.1389 5.12655 30.8803 5.12893 32.899C5.13256 35.8228 5.55394 37.1156 6.94024 38.4558C9.50607 40.9364 15.9919 42.3176 25.1275 42.3289C29.3137 42.334 30.0007 42.2654 32.0027 41.6434C33.2532 41.2549 35.4555 40.138 36.0914 39.5701C37.42 38.3836 37.7675 37.4254 37.8467 34.7293C37.8999 32.9242 37.8783 32.6141 37.6474 31.8784C37.1611 30.3287 36.1088 28.933 34.4585 27.6494C31.6698 25.48 28.0677 24.1087 23.6274 23.5261C22.0404 23.3178 18.5939 23.3182 17.1272 23.5269ZM23.9695 23.7838C29.7322 24.4545 34.8932 27.1863 36.9003 30.6282C37.5074 31.6691 37.7045 32.604 37.6484 34.175C37.6279 34.7481 37.6262 34.7503 36.8966 35.1077L36.1653 35.466L36.0917 36.3187C35.9043 38.4881 35.1034 39.9236 33.5652 40.8471C32.8655 41.2674 31.4113 41.7256 29.9401 41.9897C28.2186 42.2987 22.2657 42.2979 19.2523 41.9885C9.96346 41.0345 6.27709 39.2815 5.44019 35.4202C5.18468 34.2414 5.19031 31.4831 5.44994 30.6199C6.16021 28.2585 8.0834 26.694 12.3007 25.047C16.0097 23.5986 19.3089 23.2413 23.9695 23.7838Z" fill="#023053"/>
<path fill-rule="evenodd" clip-rule="evenodd" d="M20.245 1.81265C19.798 1.90958 18.785 2.29937 17.994 2.67873C16.803 3.25002 16.4038 3.51655 15.6707 4.22978C14.072 5.78519 13.4109 7.57571 13.5228 10.0465C13.6877 13.6877 15.9001 16.6336 19.3549 17.8122C20.2829 18.1289 20.6149 18.1808 21.7457 18.1865C23.3417 18.1946 23.9063 18.0522 25.6224 17.2084C27.209 16.4284 28.0941 15.7006 28.8846 14.5259C31.8467 10.1241 29.5233 3.84168 24.2857 2.09034C22.9881 1.65639 21.4521 1.55085 20.245 1.81265ZM23.2041 1.93445C26.4338 2.52672 29.2515 5.34747 29.8639 8.60108C30.0373 9.52249 30.0214 11.2419 29.833 11.9453C29.7146 12.3872 29.5973 12.5375 29.2181 12.7339C28.9604 12.8673 28.7493 13.0384 28.7492 13.1141C28.7489 13.1898 28.5148 13.7054 28.2287 14.2598C27.246 16.1646 25.4467 17.5089 23.2858 17.9531C22.205 18.1752 21.411 18.1746 20.3076 17.9506C17.3189 17.3439 14.665 14.7898 13.8632 11.7484C13.5626 10.6079 13.5364 8.78694 13.8059 7.75502C14.481 5.16986 16.25 3.36515 19.096 2.35833C20.8558 1.73573 21.6653 1.65215 23.2041 1.93445ZM17.1186 23.5269C14.8688 23.8467 13.4325 24.2682 11.2557 25.2478C8.66826 26.4119 6.91323 27.675 6.03746 29.0031C5.5111 29.8013 5.1088 30.9634 5.12968 31.6252C5.14582 32.1346 5.14794 32.1317 5.24173 31.4774C5.66505 28.5243 8.2442 26.3446 13.407 24.5769C19.5211 22.4834 27.7431 23.4406 33.1883 26.88C33.7385 27.2275 34.7043 28.0177 35.3346 28.6359C37.1722 30.4386 37.7454 31.8042 37.7493 34.389C37.7513 35.647 37.5772 36.7479 37.2646 37.4556C37.0638 37.9099 36.9287 38.0294 36.3327 38.2806C35.8402 38.4882 35.5925 38.6738 35.4888 38.9131C34.8623 40.3597 33.2339 41.3253 30.3829 41.941C29.3006 42.1748 28.8048 42.1997 25.1847 42.2016C21.0121 42.2039 18.9153 42.0588 15.4929 41.5308C10.3345 40.735 7.1876 39.2826 6.0646 37.1793C5.52974 36.1774 5.3224 35.3422 5.23636 33.8431L5.15294 32.3873L5.13531 33.5398C5.10167 35.7343 5.64041 37.2121 6.92748 38.4558C9.49438 40.9364 15.9829 42.3176 25.1222 42.3289C29.3102 42.334 29.9975 42.2654 32.0003 41.6434C33.2513 41.2549 35.4545 40.138 36.0907 39.5701C37.4198 38.3836 37.7674 37.4254 37.8467 34.7293C37.8999 32.9242 37.8782 32.6141 37.6473 31.8784C37.1608 30.3287 36.1081 28.933 34.4571 27.6494C31.6672 25.48 28.0636 24.1087 23.6215 23.5261C22.0338 23.3178 18.5859 23.3182 17.1186 23.5269Z" fill="#01213A"/>
</svg>
