<svg width="44" height="44" viewBox="0 0 44 44" fill="none" xmlns="http://www.w3.org/2000/svg">
<path fill-rule="evenodd" clip-rule="evenodd" d="M19.7831 3.36344C19.2119 3.39149 17.8408 3.58145 17.3174 3.70498C14.9728 4.25852 13.0974 4.99441 11.1639 6.11953C10.0431 6.77176 8.39195 8.15477 7.46133 9.22099C6.6919 10.1024 6.62659 10.1866 6.06025 11.0256C5.13542 12.3957 4.18585 14.3901 3.80065 15.7715C3.4211 17.1326 3.35682 17.4352 3.17033 18.7388C2.91415 20.5292 2.95124 22.5358 3.27513 24.4097C3.47492 25.5657 3.54147 25.858 3.82775 26.8373C4.39156 28.7659 5.30691 30.7234 6.43976 32.4229C7.135 33.466 7.98942 34.512 8.92973 35.4713C10.0515 36.6157 10.6866 37.1604 11.4707 37.6503C11.6159 37.741 12.0983 38.0595 12.5428 38.3579C13.3316 38.8877 13.6121 39.0438 13.8819 39.1032C13.9548 39.1192 14.0257 39.1506 14.0395 39.1728C14.0814 39.2408 14.4231 39.3983 15.4306 39.8138C16.6194 40.3042 16.6632 40.3193 17.7443 40.6128C18.5328 40.8269 19.9492 41.0872 20.7479 41.1648C21.2851 41.217 22.876 41.2313 23.3423 41.1881C23.6253 41.1618 24.0691 41.1229 24.3286 41.1015C25.1488 41.0339 26.6123 40.7067 27.6733 40.3538C28.551 40.0618 29.9552 39.45 30.4392 39.1485C30.5217 39.0971 30.6227 39.0427 30.6635 39.0276C30.7043 39.0125 30.9069 38.8862 31.1138 38.7469C31.3206 38.6077 31.567 38.4543 31.6613 38.4061C31.7557 38.3578 31.9969 38.1859 32.1973 38.0238C32.3978 37.8619 32.639 37.6766 32.7334 37.6122C33.1119 37.3537 33.6356 36.8821 34.5277 35.9958C35.7132 34.8181 36.6012 33.7343 37.244 32.6807C37.9691 31.4922 37.9034 31.616 38.5044 30.3074C38.9383 29.3629 39.3688 27.9947 39.5947 26.8424C39.8197 25.6943 39.8206 25.6888 39.8704 25.1831C39.972 24.1492 40.0017 23.6957 40.0002 23.2043C39.9984 22.6234 39.8938 20.9756 39.8339 20.5856C39.5716 18.876 39.5614 18.8259 39.2534 17.7236C38.6966 15.7315 37.8206 13.8443 36.6028 12.0138C35.2867 10.0354 33.7912 8.46112 31.8114 6.96988C30.9765 6.34106 29.9592 5.73004 28.8311 5.17994C27.8013 4.67779 26.4652 4.1691 25.5721 3.93919C23.919 3.51365 22.4902 3.32872 20.9623 3.34251C20.4553 3.34707 19.9246 3.35652 19.7831 3.36344ZM20.9557 12.6373C21.7443 12.7256 22.2981 12.8441 22.9778 13.0701C24.3989 13.5428 25.7797 14.3991 26.8881 15.4952C27.2849 15.8876 27.4166 16.0487 27.5206 16.2688C27.6808 16.6082 27.6971 16.9584 27.566 17.2477L27.4821 17.4331L27.2775 17.4032C26.9675 17.3578 26.7179 17.2081 26.3869 16.869C25.6527 16.1169 24.9278 15.6098 23.9973 15.1974C22.2479 14.422 20.3563 14.3536 18.7134 15.0062C18.1013 15.2494 16.7643 15.944 16.3476 16.2353C15.6189 16.7447 14.9143 17.5108 14.4908 18.2539C14.287 18.6117 14.139 19.0266 14.1952 19.0828C14.2077 19.0954 14.6307 18.8876 15.1352 18.6211C16.0146 18.1565 16.063 18.1366 16.3097 18.1387C17.1765 18.146 17.7826 19.0912 17.4311 19.8876C17.3297 20.1174 17.034 20.4225 16.7899 20.5492C16.6757 20.6085 14.783 21.8046 14.1013 22.2482C13.6374 22.5501 13.5241 22.576 13.1916 22.4561C12.823 22.3233 12.6674 22.1949 12.4405 21.8368C12.3338 21.6686 12.2028 21.4632 12.1492 21.3805C11.5395 20.4392 9.73247 17.4415 9.6757 17.2772C9.63487 17.1591 9.60087 16.9805 9.6001 16.8804C9.59851 16.675 9.685 16.3105 9.73535 16.3105C9.84594 16.3105 10.1591 16.4748 10.3001 16.6068C10.391 16.6919 10.7259 17.1532 11.0442 17.6317C11.3625 18.1102 11.6299 18.5018 11.6384 18.5018C11.7041 18.5018 12.7116 17.9685 12.7561 17.9102C12.7873 17.8693 12.9657 17.5264 13.1525 17.1483C13.8701 15.6954 14.7199 14.647 15.8787 13.7849C16.4706 13.3446 16.8941 13.1228 17.446 12.9641C18.6876 12.6071 19.7786 12.5055 20.9557 12.6373ZM29.4809 22.2274C29.8098 22.3943 29.9395 22.5517 30.4827 23.4429C30.7491 23.8801 31.0877 24.4319 31.235 24.6692C31.3823 24.9064 31.5599 25.1964 31.6296 25.3137C31.6994 25.4309 31.8581 25.6911 31.9825 25.892C33.0082 27.5489 32.9866 27.505 32.9853 27.928C32.9842 28.3009 32.9341 28.3841 32.7104 28.3841C32.5359 28.3841 32.1298 28.2305 31.9588 28.0998C31.8686 28.0309 31.5569 27.6092 31.2027 27.077C30.8712 26.5788 30.5763 26.1656 30.5473 26.1586C30.5184 26.1517 30.294 26.3063 30.0488 26.5024L29.603 26.8588L29.3128 27.4365C28.7876 28.4819 28.3 29.166 27.5498 29.9102C27.1927 30.2643 27.0285 30.3898 26.6227 30.6185C25.3887 31.3138 24.0944 31.6727 22.6428 31.7221C21.0522 31.7762 19.5704 31.443 18.1107 30.7031C17.1137 30.1978 16.0834 29.4365 15.3516 28.6647C14.97 28.2621 14.8243 27.9842 14.7972 27.6069C14.7705 27.2358 14.8266 27.1214 15.0155 27.1614C15.2731 27.2159 15.5481 27.4037 15.905 27.769C16.574 28.4536 17.2096 28.914 18.039 29.3148C19.0161 29.7869 19.8836 30.0034 20.968 30.0456C21.5464 30.0681 21.7168 30.0583 22.2113 29.9746C22.9237 29.8538 23.518 29.6612 24.1363 29.3504C24.6686 29.083 24.7823 29.008 25.7008 28.3193C26.6734 27.59 27.2228 27.0061 27.7308 26.1619C27.9214 25.8451 28.0133 25.5053 27.9084 25.5053C27.8783 25.5053 27.6972 25.59 27.5061 25.6934C26.4834 26.247 26.1229 26.4123 25.8846 26.4369C25.0087 26.5275 24.3081 25.5331 24.6564 24.6934C24.7404 24.4908 24.7822 24.4507 25.1388 24.2304C25.3535 24.0978 25.7222 23.8694 25.9581 23.7229C27.3707 22.8453 28.338 22.2606 28.4879 22.1937C28.7648 22.0701 29.1999 22.0848 29.4809 22.2274Z" fill="#97D5F0"/>
<path fill-rule="evenodd" clip-rule="evenodd" d="M19.6756 3.38089C18.9996 3.42725 17.7329 3.61386 17.1885 3.74723C14.3926 4.43216 12.064 5.44273 10.1831 6.78746C9.45224 7.30997 8.34958 8.25769 7.85566 8.78794C6.30575 10.4518 5.08186 12.3785 4.29563 14.3923C3.93315 15.3208 3.84781 15.5936 3.48713 16.9769C3.39931 17.3138 3.32637 17.7392 3.12616 19.0819C3.1015 19.2473 3.05827 19.8385 3.0301 20.3957C2.98538 21.2805 2.98833 21.5389 3.05356 22.4366C3.16393 23.9559 3.39056 25.2891 3.74683 26.5151C3.85669 26.8932 3.97543 27.3089 4.01068 27.4389C4.08958 27.7297 4.70407 29.2688 4.92839 29.7376C5.07762 30.0493 5.2699 30.4184 5.73444 31.2844C6.03444 31.8437 6.93641 33.1558 7.54576 33.9194C7.97102 34.4523 8.44096 34.9675 9.12166 35.6471C9.65511 36.1797 10.1644 36.6753 10.2534 36.7485C10.8241 37.2175 13.0926 38.7599 13.4998 38.9559C13.63 39.0185 13.7932 39.0837 13.8625 39.1006C13.9318 39.1176 14.038 39.1667 14.0984 39.2098C14.2212 39.2974 14.7947 39.549 15.8806 39.9916C16.9343 40.421 18.2073 40.7747 19.3326 40.9506C19.7217 41.0115 20.1559 41.0806 20.2974 41.1042C20.4389 41.1278 21.0471 41.1669 21.649 41.1911C22.6286 41.2304 22.8497 41.2258 23.7586 41.1471C24.7194 41.064 25.8615 40.8723 26.6911 40.655C27.3797 40.4745 28.7547 39.9689 29.3766 39.6675C29.7475 39.4877 30.0587 39.3406 30.068 39.3406C30.1025 39.3406 31.022 38.8089 31.1465 38.7169C31.2172 38.6647 31.4295 38.5296 31.6182 38.4166C31.8069 38.3037 32.0674 38.1213 32.1971 38.0113C32.3268 37.9013 32.5938 37.6968 32.7904 37.5567C33.6382 36.9527 35.4327 35.1362 36.3332 33.9705C36.6409 33.5721 37.1087 32.8917 37.3729 32.4584C37.8027 31.7533 38.0268 31.3227 38.5651 30.1672C38.8771 29.4975 39.383 27.8622 39.5704 26.9176C39.8479 25.5193 39.866 25.386 39.9627 24.0384C40.0515 22.8 39.8902 20.6694 39.5907 19.1248C39.513 18.724 39.1861 17.4712 39.0314 16.9812C38.8097 16.279 38.2224 14.8852 37.8166 14.0977C37.2802 13.0571 37.1801 12.8865 36.5562 11.9494C36.0445 11.1808 35.9576 11.0667 35.1006 10.0374C34.4059 9.20317 33.1672 8.01484 32.3686 7.41644C32.2897 7.35736 32.079 7.1919 31.9003 7.04878C31.492 6.72176 31.3499 6.62556 30.5033 6.10231C29.8718 5.71204 28.4125 4.95326 27.8919 4.74444C27.1839 4.46047 26.0128 4.06277 25.529 3.94199C24.1461 3.5968 23.9288 3.55895 22.42 3.40023C21.7637 3.33114 20.5275 3.32246 19.6756 3.38089ZM21.3909 12.6774C22.9332 12.9341 24.1433 13.4175 25.4432 14.2959C26.3558 14.9126 27.36 15.867 27.5506 16.2991C27.6714 16.5726 27.684 16.9305 27.5833 17.2267C27.5165 17.4229 27.5107 17.4277 27.3367 17.4272C27.024 17.4265 26.7327 17.2495 26.2171 16.7468C25.5324 16.079 25.161 15.8021 24.4319 15.4154C23.382 14.8587 22.3077 14.592 21.0967 14.5874C19.9213 14.5829 19.201 14.7648 17.8635 15.4041C16.507 16.0525 15.7397 16.6062 15.0895 17.4062C14.6176 17.9867 14.2706 18.5773 14.2121 18.8993C14.187 19.0378 14.194 19.0604 14.262 19.0604C14.3055 19.0604 14.3595 19.0437 14.3819 19.0232C14.4186 18.9897 14.6585 18.8609 15.7519 18.2877C16.0652 18.1235 16.1174 18.1094 16.3523 18.1246C17.2268 18.1815 17.794 19.1471 17.419 19.9406C17.2873 20.2193 17.1995 20.2931 16.3952 20.8011C16.065 21.0096 15.6694 21.2607 15.5161 21.3592C15.3628 21.4576 15.0104 21.6815 14.7331 21.8568C14.4558 22.032 14.1084 22.2525 13.9612 22.3465C13.63 22.5583 13.3919 22.5733 13.029 22.4054C12.7219 22.2633 12.5468 22.0578 12.0825 21.2946C11.874 20.952 11.595 20.4976 11.4625 20.2849C11.33 20.0722 11.0849 19.6759 10.9177 19.4041C10.7506 19.1324 10.4418 18.6334 10.2315 18.2954C9.68736 17.4207 9.62616 17.2912 9.60588 16.9715C9.58714 16.6772 9.66952 16.3105 9.7543 16.3105C9.87346 16.3105 10.1893 16.4815 10.3294 16.6219C10.4124 16.705 10.7284 17.1476 11.0316 17.6052C11.3347 18.0629 11.597 18.4533 11.6143 18.4727C11.6525 18.5155 12.6841 18.0043 12.7582 17.9057C12.7871 17.8673 12.8722 17.7102 12.9472 17.5566C13.5576 16.307 13.7517 15.982 14.2949 15.3008C14.9222 14.514 15.7335 13.8021 16.5453 13.326C17.1086 12.9957 18.0664 12.7415 19.2897 12.598C19.611 12.5603 21.0034 12.6129 21.3909 12.6774ZM29.4809 22.2228C29.7796 22.3653 29.9115 22.5108 30.2721 23.0956C30.6693 23.7398 30.9112 24.1329 31.1072 24.4527C31.3206 24.8009 31.5475 25.1691 31.7557 25.5054C33.0717 27.6306 33.0268 27.5417 33.0048 27.9785C32.9961 28.1512 32.9765 28.305 32.9611 28.3204C32.9457 28.3358 32.856 28.3587 32.7618 28.3714C32.5257 28.4032 32.1533 28.278 31.9405 28.0955C31.845 28.0136 31.5143 27.5665 31.2055 27.102C30.8966 26.6374 30.619 26.2309 30.5885 26.1985C30.5421 26.1494 30.4603 26.1957 30.0893 26.4808L29.6456 26.8217L29.2915 27.5019C28.752 28.5383 28.3351 29.1264 27.6175 29.863C27.4122 30.0737 27.1285 30.3221 26.987 30.4149C26.6339 30.6464 25.6949 31.0994 25.2349 31.26C23.3687 31.9117 21.3101 31.9051 19.35 31.241C18.8849 31.0835 18.2623 30.8201 17.9925 30.6668C17.9041 30.6165 17.7594 30.5345 17.6709 30.4844C16.9429 30.0723 16.1842 29.4883 15.5322 28.838C15.0472 28.3544 14.9567 28.2423 14.8782 28.028C14.7899 27.7869 14.7612 27.4325 14.8141 27.2348C14.846 27.1157 14.9337 27.1126 15.2172 27.2206C15.3825 27.2835 15.5585 27.4237 15.9597 27.8124C16.7898 28.6163 17.534 29.122 18.4128 29.4793C19.4179 29.8878 20.1557 30.0369 21.1765 30.0375C22.5692 30.0384 23.7759 29.6657 24.9242 28.8802C26.0074 28.1391 26.743 27.4975 27.2414 26.8588C27.6922 26.281 28.0093 25.6763 27.9293 25.5467C27.9135 25.521 27.6708 25.6247 27.3375 25.7995C26.155 26.4197 26.145 26.4241 25.8836 26.443C25.4026 26.4779 24.9729 26.2513 24.7376 25.8387C24.5437 25.4987 24.4953 25.2046 24.5819 24.8925C24.7019 24.4599 24.5888 24.5487 26.5367 23.3576C26.8315 23.1774 27.3043 22.8875 27.5873 22.7136C28.3058 22.272 28.4477 22.194 28.6519 22.1286C28.8858 22.0536 29.2014 22.0895 29.4809 22.2228Z" fill="#A0B4C0"/>
<path fill-rule="evenodd" clip-rule="evenodd" d="M19.9542 3.37956C19.5768 3.3961 19.1234 3.43052 18.9465 3.45613C17.4005 3.67964 17.3725 3.68553 15.9258 4.09203C15.1509 4.30979 13.3829 4.9527 13.2668 5.05887C13.2444 5.07941 13.2014 5.09616 13.1711 5.09616C13.0809 5.09616 12.4538 5.40917 11.6818 5.83953C10.1396 6.6992 8.52995 7.99997 7.4182 9.28502C7.21391 9.52112 7.01112 9.75314 6.96751 9.80062C6.60216 10.1984 5.607 11.6891 5.24633 12.379C5.08569 12.6862 4.90156 13.0342 4.83715 13.1524C4.49045 13.7883 3.9359 15.3006 3.64508 16.4031C3.50576 16.9311 3.37801 17.4501 3.36116 17.5565C3.08586 19.294 3.07214 19.4346 3.04907 20.7575C3.01811 22.532 3.0992 23.4891 3.42758 25.226C3.67583 26.5389 4.38273 28.6263 4.99907 29.8664C5.61798 31.1117 5.73402 31.3154 6.41854 32.3585C7.18484 33.5262 7.98814 34.509 9.01743 35.5381C9.82819 36.3487 10.2846 36.7739 10.5082 36.927C10.562 36.9637 10.6156 37.0049 10.6274 37.0184C10.6562 37.0513 11.3246 37.5277 11.5923 37.7062C11.7102 37.7847 12.1466 38.0774 12.5622 38.3565C13.2572 38.8232 13.6071 39.021 13.8864 39.1048C13.9454 39.1225 14.0419 39.1698 14.1008 39.2099C14.1598 39.2501 14.401 39.3652 14.6369 39.4658C14.8727 39.5664 15.1236 39.6745 15.1943 39.706C15.6372 39.9031 16.6995 40.3121 16.9525 40.3829C17.2626 40.4698 18.0822 40.6931 18.3461 40.7626C18.4975 40.8025 18.9723 40.8879 19.5254 40.9746C19.6905 41.0005 19.9317 41.0394 20.0614 41.061C20.8272 41.1888 23.1084 41.2447 23.642 41.1489C23.7835 41.1235 24.0164 41.1025 24.1594 41.1024C24.4084 41.1022 24.6765 41.0669 25.1429 40.9731C25.2608 40.9494 25.502 40.9012 25.6789 40.8659C26.5282 40.6967 26.8386 40.6141 27.689 40.3309C28.1931 40.1629 28.7045 39.9803 28.8254 39.9248C29.636 39.5532 30.7302 38.9836 31.0981 38.7419C31.3369 38.5849 31.6262 38.4019 31.741 38.3352C31.8558 38.2685 32.068 38.1134 32.2127 37.9905C32.3573 37.8677 32.5742 37.7007 32.6946 37.6193C33.1585 37.3061 33.6096 36.8935 34.7822 35.7098C36.4749 34.0011 37.5668 32.3949 38.5644 30.1457C38.9448 29.2881 39.39 27.8535 39.5778 26.8802C39.6029 26.7502 39.6388 26.5666 39.6577 26.472C39.8046 25.7343 39.8537 25.3261 39.9624 23.937C40.0276 23.1037 39.9364 21.2632 39.7878 20.4137C39.7671 20.2956 39.7273 20.0346 39.6992 19.8337C39.5757 18.9475 39.1791 17.3473 38.9059 16.6327C38.2765 14.9861 38.1199 14.6403 37.4375 13.391C37.1411 12.8482 36.0754 11.1969 35.8971 11.0041C35.8534 10.9568 35.6843 10.7538 35.5213 10.5529C35.3584 10.352 35.0863 10.0226 34.9165 9.82085C34.5505 9.38577 33.1996 8.0765 32.782 7.7521C32.6204 7.62651 32.2923 7.36785 32.0531 7.17725C31.5996 6.81611 31.1838 6.52575 30.6746 6.2148C30.5095 6.114 30.2329 5.94488 30.0599 5.83905C29.5552 5.5303 27.9803 4.77855 27.3513 4.54619C26.2583 4.14235 25.7124 3.97542 24.937 3.80781C24.838 3.78637 24.5736 3.72845 24.3496 3.67904C23.9449 3.58975 23.6527 3.54567 22.913 3.46232C21.7431 3.33041 21.3355 3.31902 19.9542 3.37956ZM21.0906 12.6358C21.7885 12.733 22.0344 12.7762 22.3127 12.8508C23.6119 13.1988 24.852 13.807 25.8933 14.6071C26.313 14.9295 26.3997 15.0037 26.7724 15.3598C27.1889 15.7576 27.4407 16.0571 27.5611 16.298C27.6822 16.5403 27.685 17.0271 27.5669 17.2879C27.5214 17.3883 27.4745 17.4705 27.4627 17.4705C27.347 17.4705 26.958 17.3549 26.8303 17.2826C26.7416 17.2323 26.48 17.0068 26.249 16.7813C25.7575 16.3015 25.5182 16.1026 25.0786 15.808C24.3605 15.3268 23.6576 15.0197 22.7343 14.7838C22.1211 14.6271 21.5598 14.5765 20.7689 14.6064C19.6671 14.6482 19.0268 14.8372 17.6132 15.538C16.1533 16.2617 15.3499 16.9346 14.6344 18.0328C14.3189 18.5171 14.1053 19.0603 14.2303 19.0603C14.2581 19.0603 14.4574 18.966 14.6732 18.8507C16.086 18.0961 16.0694 18.1032 16.3737 18.125C16.6978 18.1482 16.8655 18.2249 17.1355 18.4732C17.4028 18.7188 17.5314 19.0213 17.5314 19.404C17.5314 19.8398 17.4029 20.1061 17.0682 20.3642C16.9256 20.4742 16.7995 20.5641 16.7879 20.5641C16.768 20.5641 15.3266 21.4749 14.1223 22.2484C13.7 22.5196 13.6539 22.5406 13.4809 22.5406C13.3006 22.5406 12.845 22.3364 12.6727 22.1784C12.6065 22.1177 12.3957 21.8118 12.2042 21.4987C12.0128 21.1856 11.7833 20.8133 11.6943 20.6715C11.6053 20.5298 11.361 20.1334 11.1515 19.7907C10.942 19.4481 10.6679 19.0034 10.5425 18.8025C9.68806 17.4341 9.5194 17.081 9.57999 16.7876C9.69046 16.2527 9.70332 16.2429 10.0581 16.42C10.3258 16.5537 10.4261 16.6758 11.0969 17.6854C11.3875 18.1226 11.6289 18.485 11.6336 18.4909C11.6583 18.5219 12.6767 17.9708 12.7456 17.8891C12.7903 17.8361 12.9472 17.5414 13.0943 17.2342C13.8079 15.7436 14.652 14.6815 15.8197 13.805C16.7368 13.1166 17.3816 12.8696 18.8607 12.6398C19.366 12.5613 20.5408 12.5592 21.0906 12.6358ZM29.5448 22.2481C29.6781 22.3186 29.843 22.4471 29.9112 22.5336C29.9793 22.6202 30.4671 23.3967 30.9952 24.2593C31.5232 25.1218 32.1478 26.1369 32.3832 26.515C32.9578 27.4381 33.0107 27.5584 33.0112 27.9406C33.0115 28.1641 32.9931 28.2676 32.9443 28.3165C32.7919 28.4692 32.1972 28.3403 31.9125 28.0927C31.8386 28.0285 31.5044 27.5647 31.1697 27.0622C30.7739 26.4678 30.5436 26.1592 30.5107 26.1789C30.4829 26.1956 30.2744 26.3512 30.0472 26.5246L29.6342 26.8399L29.2672 27.545C28.7081 28.6192 28.3222 29.1589 27.5729 29.9149C27.2793 30.2111 27.0762 30.3699 26.7425 30.5642C25.7182 31.1604 24.7541 31.4961 23.5563 31.6736C22.9952 31.7568 21.7933 31.7678 21.2621 31.6947C19.0389 31.3888 17.1848 30.4706 15.5588 28.8702C15.0555 28.3748 14.9668 28.2665 14.8799 28.0413C14.7446 27.691 14.7504 27.1778 14.8902 27.124C14.9205 27.1124 15.0583 27.1488 15.1964 27.2051C15.3903 27.2841 15.5408 27.3993 15.857 27.711C16.5446 28.3889 17.1523 28.8499 17.8101 29.193C18.9421 29.7833 19.8909 30.0146 21.1849 30.016C22.0181 30.0169 22.6046 29.9276 23.299 29.6944C23.8694 29.5028 24.623 29.1111 25.0786 28.7695C25.1611 28.7076 25.3444 28.5717 25.4859 28.4674C26.6211 27.6311 27.2786 26.9425 27.7521 26.0942C27.9006 25.8282 27.959 25.5483 27.866 25.5483C27.8425 25.5483 27.6827 25.6233 27.5109 25.715C26.0914 26.473 25.9352 26.5321 25.575 26.4473C25.1493 26.3471 24.8816 26.1382 24.689 25.756C24.5137 25.4079 24.4853 25.0835 24.603 24.7712C24.7139 24.477 24.7567 24.438 25.4002 24.0444C26.8048 23.1851 27.4478 22.7906 27.7801 22.5839C28.2932 22.2648 28.3909 22.2116 28.6016 22.1358C28.8658 22.041 29.2367 22.0851 29.5448 22.2481Z" fill="#71ACCC"/>
<path fill-rule="evenodd" clip-rule="evenodd" d="M20.0772 3.37746C18.5239 3.45841 17.1074 3.7291 15.3223 4.28616C14.5702 4.52085 12.9364 5.17952 12.3976 5.46521C11.3642 6.0132 10.949 6.2573 10.4767 6.59446C10.2644 6.746 10.0055 6.93007 9.90123 7.00354C9.47756 7.30212 8.99059 7.71954 8.16641 8.49057C7.87288 8.76517 6.96521 9.79813 6.64655 10.2203C5.2833 12.0261 4.22112 14.2269 3.64505 16.4394C3.40765 17.3512 3.33608 17.71 3.2059 18.6414C3.1836 18.8009 3.14487 19.0716 3.11983 19.243C3.04698 19.7409 3.01829 21.8343 3.07459 22.5406C3.1905 23.9944 3.42416 25.3965 3.71546 26.3862C3.78501 26.6225 3.90401 27.0285 3.97991 27.2884C4.11409 27.7481 4.61186 29.0267 4.90654 29.6687C5.23579 30.386 5.9125 31.5889 6.39552 32.3155C6.95114 33.1514 7.11263 33.3717 7.63497 34.0066C8.34998 34.8757 8.65577 35.2067 9.38322 35.8987C10.2445 36.7179 10.6234 37.0285 11.463 37.6033C12.9475 38.6198 13.3502 38.8794 13.5987 38.9802C13.7448 39.0395 13.9898 39.1525 14.1431 39.2311C14.4175 39.3721 15.9457 40.0204 16.4259 40.1997C17.1002 40.4515 18.4032 40.789 19.1602 40.908C19.5258 40.9654 19.9503 41.0324 20.1036 41.0568C20.589 41.1342 20.7896 41.1502 21.7117 41.1852C23.6876 41.2603 25.7239 40.9701 27.6294 40.3417C28.1977 40.1544 28.8428 39.9074 29.1517 39.7591C29.4465 39.6175 29.8228 39.4369 29.9879 39.3577C30.4239 39.1487 30.7595 38.9577 31.1242 38.7111C31.3011 38.5915 31.5526 38.4334 31.683 38.3597C31.8135 38.2861 32.0547 38.1139 32.2191 37.977C32.3834 37.8401 32.5951 37.6778 32.6894 37.6162C33.0385 37.3884 33.5299 36.9434 34.5263 35.9527C35.8797 34.6072 36.571 33.7533 37.3622 32.4495C38.1911 31.0836 38.6373 30.1014 39.1213 28.577C39.8024 26.432 40.0742 24.0154 39.8969 21.6813C39.86 21.1969 39.8124 20.6845 39.7909 20.5427C39.7695 20.4009 39.712 20.0239 39.6633 19.7048C39.5481 18.95 39.1732 17.4301 38.9428 16.7831C38.2869 14.9417 37.6062 13.5708 36.5846 12.0343C34.584 9.02516 31.8716 6.65637 28.6916 5.14111C27.6933 4.66547 26.5004 4.21681 25.6139 3.98372C23.7362 3.48995 21.8603 3.28453 20.0772 3.37746ZM21.1789 12.6356C21.7174 12.7117 21.9911 12.763 22.3451 12.854C24.0214 13.2852 25.7009 14.2634 26.9874 15.5581C27.532 16.1062 27.6518 16.334 27.6488 16.8165C27.6474 17.042 27.6228 17.1965 27.5721 17.2987C27.5018 17.4406 27.4866 17.4484 27.3062 17.4372C26.9009 17.4121 26.772 17.3319 26.13 16.706C25.8934 16.4753 25.6129 16.2182 25.5067 16.1349C24.1778 15.0908 22.4343 14.5262 20.7898 14.6071C19.9835 14.6468 19.1226 14.8495 18.4313 15.1625C17.2722 15.6871 16.7247 15.9879 16.18 16.3993C15.2774 17.0808 14.3831 18.2219 14.2355 18.8804C14.1913 19.0772 14.2268 19.1071 14.3801 19.0027C14.4266 18.971 14.8246 18.7583 15.2646 18.5301C15.989 18.1543 16.0867 18.1151 16.2981 18.1151C16.6013 18.1151 16.7731 18.1755 17.0452 18.3777C17.3142 18.5777 17.5356 18.9853 17.5636 19.3321C17.5853 19.6019 17.4545 19.9858 17.2685 20.1981C17.1998 20.2765 16.7242 20.6066 16.2115 20.9318C15.6989 21.2571 14.9703 21.7203 14.5925 21.9612C14.2147 22.2022 13.84 22.4333 13.7599 22.4748C13.4436 22.6387 12.8457 22.4371 12.5712 22.0742C12.4882 21.9644 12.1587 21.4493 11.8389 20.9294C11.0528 19.6517 10.7852 19.2194 10.2026 18.287C9.54557 17.2353 9.4791 17.0355 9.62211 16.5427C9.70093 16.271 9.7514 16.2561 10.06 16.4139C10.3363 16.5551 10.4033 16.6362 11.0627 17.6266L11.6386 18.4916L12.1924 18.2066L12.7462 17.9217L13.1558 17.1054C13.5984 16.2235 13.831 15.8544 14.3584 15.1975C14.956 14.453 16.0002 13.5792 16.7374 13.2066C17.1627 12.9917 17.9924 12.7633 18.7958 12.6399C19.3237 12.5589 20.6199 12.5565 21.1789 12.6356ZM29.5778 22.2632C29.8451 22.4202 29.9514 22.548 30.3267 23.1637C30.5366 23.508 31.3661 24.853 32.1818 26.1713C32.9982 27.4908 33.0108 27.5178 33.011 27.9384C33.011 28.3586 32.9722 28.4081 32.6486 28.4003C32.3663 28.3935 31.9937 28.2195 31.8034 28.0057C31.7247 27.9172 31.4191 27.474 31.1242 27.0209C30.8294 26.5677 30.568 26.196 30.5434 26.1949C30.4954 26.1927 29.8976 26.6393 29.6934 26.8299C29.6257 26.893 29.4869 27.1236 29.3849 27.3423C28.8471 28.495 27.8463 29.8181 27.12 30.3367C26.2615 30.9495 24.9044 31.4759 23.6628 31.6776C23.0573 31.7759 21.6771 31.7746 21.047 31.6751C18.9233 31.3396 17.1328 30.4331 15.5466 28.8904C15.1166 28.4721 14.9804 28.3108 14.8906 28.1126C14.6455 27.5717 14.7226 27.0429 15.0329 27.1368C15.3157 27.2225 15.4681 27.3217 15.7297 27.5907C17.0647 28.9635 18.6026 29.7604 20.3333 29.9759C20.9155 30.0484 22.0147 30.006 22.5564 29.8901C23.4853 29.6914 24.2955 29.3136 25.2245 28.6461C26.6023 27.6562 27.1539 27.0992 27.7044 26.1422C27.8778 25.8407 27.9667 25.5483 27.8849 25.5483C27.8722 25.5483 27.7226 25.6229 27.5526 25.714C27.3826 25.8051 26.9844 26.013 26.6677 26.1759C26.115 26.4602 26.0798 26.4721 25.7886 26.4717C25.525 26.4713 25.4496 26.4519 25.2133 26.3239C24.9085 26.1588 24.7874 26.0218 24.6291 25.663C24.455 25.2686 24.5076 24.7564 24.7503 24.4841C24.798 24.4304 25.2821 24.1137 25.8259 23.7803C26.3697 23.4468 26.9304 23.1012 27.0719 23.0122C28.5006 22.1135 28.625 22.0548 29.0316 22.0879C29.257 22.1062 29.3748 22.1439 29.5778 22.2632Z" fill="#618FAB"/>
<path fill-rule="evenodd" clip-rule="evenodd" d="M19.3755 3.44238C19.1043 3.47349 18.728 3.52131 18.5393 3.54868C18.3506 3.5761 18.0805 3.61502 17.9389 3.6353C17.611 3.68222 17.2519 3.75084 17.0599 3.80326C16.9773 3.82582 16.7651 3.88275 16.5882 3.92975C15.8019 4.13887 15.7355 4.15778 15.3232 4.29016C15.2524 4.31289 15.1559 4.34619 15.1088 4.36415C15.0616 4.38215 14.9458 4.42013 14.8515 4.44862C14.7571 4.47706 14.6413 4.51659 14.5942 4.5364C14.547 4.55621 14.3444 4.63522 14.1439 4.712C13.9434 4.78878 13.7611 4.86793 13.7387 4.88795C13.7163 4.90797 13.6726 4.92434 13.6417 4.92434C13.6108 4.92434 13.4941 4.96525 13.3823 5.01526C13.2705 5.06527 13.1115 5.13527 13.029 5.1708C12.5632 5.3712 11.8744 5.7307 11.2494 6.09957C10.8433 6.33928 10.8522 6.33352 10.4936 6.58926C10.3197 6.71326 10.0871 6.87846 9.97689 6.95632C9.61346 7.21292 9.31059 7.45061 9.1443 7.60976C9.09494 7.65702 8.89494 7.83963 8.69995 8.01549C8.15489 8.50711 7.79292 8.86807 7.49262 9.21954C7.34189 9.396 7.18331 9.57969 7.14026 9.62772C6.79035 10.0184 6.4307 10.5109 5.80055 11.4623C5.47354 11.956 4.78623 13.2536 4.51637 13.8866C4.41058 14.1348 4.32401 14.3502 4.32401 14.3652C4.32401 14.3803 4.22774 14.64 4.11011 14.9425C3.83039 15.6617 3.43575 17.1441 3.33983 17.8358C3.31037 18.0485 3.27799 18.2496 3.26796 18.2827C3.23331 18.3968 3.12756 19.2982 3.07842 19.8982C3.0014 20.8381 3.0734 23.0424 3.20788 23.8619C3.23215 24.0096 3.2728 24.2513 3.29827 24.3989C3.32379 24.5467 3.36131 24.7642 3.38172 24.8823C3.51667 25.6638 3.56937 25.8782 3.90981 27.0306C4.43005 28.7918 5.31037 30.6578 6.40874 32.3277C7.37551 33.7974 8.8307 35.4603 10.0642 36.5048C10.1897 36.6111 10.3341 36.7375 10.385 36.7857C10.4359 36.8338 10.574 36.939 10.6919 37.0194C10.8099 37.0999 10.9128 37.1814 10.9206 37.2005C10.9285 37.2196 10.9623 37.2352 10.9957 37.2352C11.0291 37.2352 11.0564 37.2545 11.0564 37.2782C11.0564 37.3018 11.0854 37.3211 11.1208 37.3211C11.1561 37.3211 11.1851 37.3363 11.1851 37.3548C11.1851 37.3734 11.2389 37.4204 11.3048 37.4594C11.3706 37.4983 11.5877 37.6518 11.7872 37.8004C12.7251 38.4988 13.4123 38.9243 13.8317 39.0664C13.9445 39.1046 14.085 39.1688 14.1439 39.2089C14.2633 39.2902 14.9679 39.6056 15.4947 39.8136C15.6834 39.8881 15.9053 39.9785 15.9878 40.0144C16.3251 40.1613 16.6629 40.2882 16.8455 40.3368C17.0104 40.3806 17.0983 40.4054 17.5745 40.5426C17.7513 40.5937 17.9636 40.6517 18.0462 40.6716C18.1287 40.6915 18.312 40.7368 18.4535 40.7722C18.595 40.8076 18.8555 40.8584 19.0324 40.8851C19.5235 40.9593 19.8426 41.0098 20.1319 41.0595C20.8017 41.1744 22.7668 41.2249 23.5053 41.1461C23.7221 41.123 24.1311 41.0835 24.4141 41.0585C24.6971 41.0334 24.9962 40.9956 25.0788 40.9745C25.1613 40.9535 25.3446 40.9146 25.4861 40.8881C25.6276 40.8617 25.8303 40.8218 25.9364 40.7996C26.0425 40.7773 26.271 40.7293 26.4441 40.6929C26.6173 40.6565 27.1907 40.4825 27.7184 40.306C28.4957 40.0462 28.8675 39.8919 29.6764 39.4935C30.2255 39.2231 30.8369 38.8924 31.0349 38.7586C31.2331 38.6248 31.4839 38.4664 31.5924 38.4065C31.7009 38.3466 31.9634 38.1591 32.1757 37.9897C32.3879 37.8203 32.6581 37.6159 32.776 37.5355C32.8939 37.455 33.029 37.3532 33.0762 37.3093C33.1234 37.2654 33.2434 37.1679 33.343 37.0927C33.6536 36.858 35.5523 34.9153 35.9122 34.4639C36.5171 33.7053 36.9 33.1845 37.144 32.7882C37.6234 32.0099 37.9483 31.4358 38.1201 31.0637C38.2168 30.8542 38.3632 30.5378 38.4453 30.3606C38.6841 29.8456 38.8169 29.4904 39.0961 28.6204C39.5752 27.1279 39.7895 25.9326 39.9197 24.0273C40.0152 22.63 39.8257 20.3164 39.4935 18.824C39.4119 18.4572 39.3702 18.2965 39.1868 17.6425C39.1438 17.4888 39.0777 17.2472 39.04 17.1054C39.0022 16.9636 38.9533 16.8089 38.9312 16.7616C38.9091 16.7144 38.8116 16.463 38.7146 16.2031C38.3884 15.329 38.1908 14.866 37.9445 14.3985C37.8324 14.1858 37.6475 13.8281 37.5334 13.6036C37.4194 13.3791 37.3155 13.1857 37.3024 13.1739C37.2893 13.1621 37.2316 13.0654 37.1742 12.9591C36.9516 12.547 35.8924 11.0076 35.6491 10.7427C35.6255 10.717 35.5387 10.6118 35.4561 10.509C34.9722 9.90589 34.6024 9.49195 34.1904 9.0921C33.9347 8.84397 33.5794 8.49946 33.4008 8.32657C33.2223 8.15367 32.9701 7.93132 32.8403 7.83245C32.7106 7.73358 32.5787 7.62827 32.5472 7.59837C32.5156 7.56846 32.4192 7.49112 32.3328 7.4265C32.2464 7.36188 32.1546 7.28965 32.1288 7.26602C32.1031 7.24239 32.018 7.17472 31.9398 7.11564C31.8616 7.05656 31.7765 6.98764 31.7508 6.96246C31.6846 6.89776 30.7902 6.29927 30.7596 6.29927C30.7458 6.29927 30.6234 6.2237 30.4876 6.13132C30.1768 5.91988 29.8823 5.74423 29.785 5.71231C29.7438 5.69877 29.71 5.67063 29.71 5.64975C29.71 5.62891 29.6907 5.61181 29.6671 5.61181C29.6436 5.61181 29.2335 5.42134 28.7559 5.18855C28.2783 4.95571 27.7766 4.72369 27.6409 4.67295C27.0584 4.45481 26.9283 4.40875 26.6439 4.31963C26.4788 4.2679 26.3052 4.21054 26.258 4.19215C26.1065 4.13311 26.0039 4.09896 25.8613 4.06007C25.7847 4.03915 25.6496 4.0022 25.5612 3.97796C25.4727 3.95369 25.3135 3.916 25.2074 3.89418C25.1013 3.87239 24.9276 3.83299 24.8215 3.8067C24.7153 3.7804 24.5417 3.74165 24.4355 3.72055C24.3294 3.6995 24.1461 3.66151 24.0282 3.63612C23.9102 3.61077 23.6401 3.57068 23.4278 3.54705C23.2155 3.52342 22.8586 3.48303 22.6345 3.45729C22.0071 3.38524 19.9558 3.37583 19.3755 3.44238ZM21.1435 12.6186C21.7307 12.7057 22.1919 12.8077 22.8703 13.0007C23.6299 13.2168 24.8258 13.8177 25.6105 14.3775C26.402 14.942 27.3562 15.8522 27.5422 16.2201C27.6908 16.5138 27.714 17.0169 27.5915 17.2892C27.5122 17.4658 27.5045 17.4706 27.3046 17.4706C27.1917 17.4706 27.0873 17.4513 27.0728 17.4276C27.0582 17.404 27.0171 17.3847 26.9815 17.3847C26.8709 17.3847 26.5752 17.1538 26.1486 16.7346C25.9233 16.5131 25.6742 16.2836 25.595 16.2246C25.5159 16.1655 25.43 16.0967 25.4043 16.0718C25.1062 15.7832 23.9543 15.1634 23.4463 15.0183C23.3418 14.9884 23.2379 14.948 23.2155 14.9283C23.1931 14.9087 23.1123 14.8926 23.0358 14.8926C22.9594 14.8926 22.8863 14.8754 22.8733 14.8543C22.8603 14.8333 22.7868 14.8052 22.7099 14.7917C22.6331 14.7783 22.464 14.7457 22.3343 14.7193C21.9762 14.6466 20.5233 14.6167 20.1688 14.6749C19.5586 14.775 19.046 14.9151 18.5822 15.1086C18.1361 15.2946 17.198 15.7532 16.9098 15.9261C16.7919 15.9968 16.6664 16.0673 16.6311 16.0828C16.5957 16.0982 16.5571 16.1234 16.5453 16.1387C16.5335 16.154 16.4054 16.2465 16.2607 16.3443C15.4103 16.9184 14.3463 18.261 14.2466 18.8857C14.2211 19.0457 14.2259 19.0592 14.2991 19.0322C14.3435 19.0157 14.4184 18.978 14.4655 18.9482C14.5127 18.9185 14.7732 18.7765 15.0444 18.6326C16.1788 18.0309 16.2751 18.0028 16.6802 18.1556C17.1836 18.3453 17.5253 18.812 17.5647 19.3634C17.5818 19.604 17.5683 19.6802 17.4724 19.8834C17.4106 20.0143 17.3263 20.1598 17.285 20.2067C17.2157 20.2854 16.3157 20.9079 16.2711 20.9079C16.2603 20.9079 16.1101 21.0015 15.9374 21.116C15.7647 21.2305 15.4979 21.4013 15.3446 21.4958C15.1913 21.5902 14.815 21.8278 14.5084 22.0238C13.7123 22.5328 13.6964 22.5406 13.4561 22.5406C13.0184 22.5406 12.6398 22.2593 12.2994 21.6813C12.1951 21.5041 12.0983 21.3494 12.0845 21.3376C12.0706 21.3258 11.9669 21.1614 11.854 20.9724C11.7412 20.7833 11.5447 20.4643 11.4173 20.2634C11.29 20.0625 11.1466 19.8305 11.0987 19.7478C11.0507 19.6651 10.9686 19.5286 10.916 19.4446C10.8636 19.3605 10.7634 19.1961 10.6935 19.0793C10.6236 18.9626 10.5513 18.8606 10.5327 18.8527C10.5142 18.8448 10.499 18.8191 10.499 18.7955C10.499 18.772 10.4341 18.6527 10.3549 18.5305C9.70249 17.5248 9.5958 17.3175 9.56754 17.0007C9.54593 16.7581 9.65236 16.2675 9.72659 16.2675C9.82779 16.2675 10.1948 16.4613 10.3217 16.5817C10.401 16.657 10.7261 17.1109 11.044 17.5903C11.5292 18.3221 11.6353 18.4578 11.7047 18.4357C11.7501 18.4213 11.9979 18.3047 12.2553 18.1767L12.7233 17.9438L13.1099 17.1702C13.685 16.0191 14.1023 15.4097 14.8268 14.6625C15.3763 14.0959 16.0857 13.5454 16.6835 13.2216C17.0738 13.0102 17.882 12.7784 18.7108 12.6401C19.136 12.5692 20.716 12.5552 21.1435 12.6186ZM29.5329 22.2196C29.7666 22.342 29.9914 22.5743 30.1548 22.8621C30.2087 22.957 30.3842 23.2474 30.5448 23.5074C31.0921 24.3934 31.5249 25.0966 31.7879 25.5268C32.1757 26.1614 32.3667 26.4685 32.5929 26.8215C32.981 27.4271 33.0785 27.7112 33.0284 28.0898C32.9888 28.3885 32.9224 28.4426 32.6278 28.4158C32.2038 28.3773 31.8574 28.1567 31.5908 27.7554C31.53 27.664 31.3102 27.3282 31.1022 27.0092C30.8942 26.6901 30.7116 26.4195 30.6963 26.4076C30.681 26.3958 30.6561 26.3523 30.6409 26.311C30.6034 26.2091 30.4296 26.2156 30.3532 26.3217C30.3192 26.369 30.2667 26.4076 30.2365 26.4076C30.2064 26.4076 30.1817 26.4228 30.1817 26.4413C30.1817 26.4599 30.1286 26.5066 30.0638 26.5451C29.746 26.734 29.6179 26.8983 29.3026 27.5215C28.8066 28.5019 28.3271 29.1822 27.6396 29.8809C26.9395 30.5925 25.8422 31.1648 24.4998 31.5186C24.0727 31.6312 23.7672 31.6789 22.9775 31.7565C22.3498 31.8182 21.7361 31.7964 21.1311 31.6911C20.9999 31.6682 20.8469 31.6496 20.7911 31.6496C20.7352 31.6496 20.6302 31.6317 20.5578 31.6099C20.4853 31.5881 20.32 31.5472 20.1902 31.5191C19.9427 31.4654 19.4572 31.3245 19.3112 31.2639C19.264 31.2443 19.1096 31.1849 18.9681 31.1318C18.4905 30.9527 17.578 30.49 17.2677 30.2696C17.2051 30.2251 17.1327 30.1887 17.1069 30.1887C17.081 30.1887 17.0599 30.1694 17.0599 30.1457C17.0599 30.1221 17.0408 30.1028 17.0175 30.1028C16.9942 30.1028 16.9411 30.0748 16.8995 30.0407C16.858 30.0066 16.6986 29.8858 16.5453 29.7723C16.1606 29.4876 16.0796 29.4168 15.5237 28.8782C15.1669 28.5326 15.0008 28.3364 14.9057 28.1483C14.7026 27.7467 14.6964 27.1867 14.8942 27.1107C14.9302 27.0969 15.0704 27.1305 15.2058 27.1855C15.3939 27.2619 15.5436 27.3767 15.8417 27.6736C16.4192 28.2487 17.0532 28.7619 17.4669 28.9894C17.9877 29.2757 18.4739 29.5027 18.7795 29.6024C19.2859 29.7676 19.5508 29.8394 19.8257 29.8861C19.9908 29.9142 20.2305 29.9551 20.3582 29.977C21.0338 30.0929 22.2662 29.9895 23.0633 29.75C23.6008 29.5886 24.3881 29.2272 24.7571 28.9727C25.8682 28.2061 26.7948 27.4019 27.2435 26.815C27.6942 26.2254 28.0255 25.5913 27.8829 25.5913C27.8499 25.5913 26.9071 26.0651 26.6041 26.2341C26.0576 26.5388 25.6723 26.5743 25.252 26.3587C24.8031 26.1285 24.5606 25.7542 24.5304 25.2448C24.5135 24.9589 24.5249 24.8908 24.6252 24.6784C24.7354 24.445 24.7594 24.4246 25.3485 24.0634C25.6836 23.8579 26.0254 23.6459 26.1079 23.5923C26.1905 23.5388 26.4799 23.3603 26.7511 23.1958C27.0224 23.0313 27.4083 22.7946 27.6088 22.6697C28.5399 22.0895 28.6081 22.061 29.0067 22.085C29.2286 22.0984 29.3712 22.1349 29.5329 22.2196Z" fill="#00467F"/>
<path fill-rule="evenodd" clip-rule="evenodd" d="M19.4721 3.45138C19.5373 3.46122 19.6337 3.46096 19.6865 3.45078C19.7392 3.44059 19.6859 3.43252 19.568 3.43282C19.45 3.43316 19.4069 3.4415 19.4721 3.45138ZM21.9828 3.44988C22.0137 3.46229 22.0507 3.46075 22.0649 3.44648C22.0792 3.43222 22.0539 3.42208 22.0087 3.42392C21.9587 3.42599 21.9485 3.43617 21.9828 3.44988ZM22.1945 3.44897C22.224 3.46092 22.2722 3.46092 22.3017 3.44897C22.3312 3.43707 22.307 3.42732 22.2481 3.42732C22.1891 3.42732 22.165 3.43707 22.1945 3.44897ZM22.8913 3.5151C22.8913 3.53396 22.9588 3.54943 23.0414 3.54943C23.1239 3.54943 23.1915 3.54187 23.1915 3.53263C23.1915 3.52343 23.1239 3.50797 23.0414 3.4983C22.9588 3.48863 22.8913 3.49619 22.8913 3.5151ZM18.8289 3.53731C18.894 3.54715 18.9905 3.54689 19.0433 3.53671C19.096 3.52653 19.0427 3.51845 18.9247 3.51875C18.8068 3.51909 18.7637 3.52743 18.8289 3.53731ZM18.2065 3.62084C18.236 3.63278 18.2842 3.63278 18.3137 3.62084C18.3432 3.60894 18.319 3.59918 18.2601 3.59918C18.2011 3.59918 18.177 3.60894 18.2065 3.62084ZM23.7382 3.62084C23.7677 3.63278 23.816 3.63278 23.8454 3.62084C23.8749 3.60894 23.8508 3.59918 23.7918 3.59918C23.7329 3.59918 23.7088 3.60894 23.7382 3.62084ZM17.649 3.70866C17.7021 3.71889 17.7889 3.71889 17.842 3.70866C17.8951 3.69839 17.8516 3.69002 17.7455 3.69002C17.6394 3.69002 17.5959 3.69839 17.649 3.70866ZM18.4959 3.77371C18.378 3.79279 18.2284 3.8111 18.1636 3.81436C18.0988 3.81763 18.0457 3.83468 18.0457 3.85226C18.0457 3.86983 17.9674 3.88023 17.8717 3.87533C17.776 3.87043 17.6872 3.88341 17.6744 3.9042C17.6615 3.925 17.6227 3.93106 17.5879 3.91774C17.5533 3.90438 17.4892 3.91258 17.4457 3.93596C17.3924 3.96449 17.3616 3.96376 17.3516 3.93372C17.3434 3.90914 17.2213 3.8804 17.0801 3.86983C16.8593 3.85333 16.8429 3.85681 16.9629 3.89462C17.0396 3.91881 17.1023 3.95972 17.1023 3.98558C17.1023 4.01815 17.0838 4.01725 17.0421 3.98257C17.0057 3.95228 16.9761 3.9491 16.9671 3.9745C16.9576 4.00109 16.8849 3.99834 16.7683 3.96698C16.6267 3.92887 16.5652 3.92951 16.5009 3.96977C16.4549 3.99852 16.3688 4.02206 16.3096 4.02206C16.2503 4.02206 16.2018 4.0414 16.2018 4.06503C16.2018 4.08866 16.1246 4.10799 16.0302 4.10799C15.9359 4.10799 15.8587 4.12733 15.8587 4.15096C15.8587 4.17459 15.8184 4.19393 15.7692 4.19393C15.6925 4.19393 15.0292 4.39351 14.7652 4.49598C14.718 4.51429 14.5637 4.57173 14.4222 4.62359C14.1114 4.7375 14.0485 4.76259 13.8004 4.87181C13.6942 4.91856 13.453 5.01846 13.2644 5.09391C13.0757 5.16931 12.8023 5.28773 12.657 5.35699C12.5116 5.42625 12.3828 5.48292 12.3709 5.48292C12.359 5.48292 12.1821 5.5796 11.9779 5.69776C11.7737 5.81592 11.5988 5.91259 11.5892 5.91259C11.5501 5.91259 10.8039 6.37203 10.5842 6.53135C9.49136 7.324 9.42292 7.37668 9.04051 7.71882C8.84003 7.8982 8.60766 8.10599 8.52408 8.18062C8.19779 8.47207 7.76203 8.9114 7.53827 9.17448C7.40933 9.32611 7.21683 9.54847 7.11057 9.6686C6.78025 10.0419 6.43934 10.5128 5.70787 11.6057C5.42776 12.0242 4.67095 13.4854 4.48394 13.9688C3.99732 15.2267 3.88998 15.5197 3.83531 15.7391C3.80118 15.8761 3.73136 16.1429 3.68016 16.332C3.42112 17.2887 3.41653 17.3099 3.29783 18.0936C3.27279 18.259 3.24414 18.4427 3.23424 18.5018C3.1179 19.1946 3.03715 20.2416 3.03711 21.0568C3.03707 21.8789 3.14894 23.5852 3.23021 24.0015C3.2417 24.0606 3.26087 24.1669 3.27274 24.2378C3.44753 25.2812 3.61288 26.05 3.7441 26.4291C3.77678 26.5237 3.86301 26.8167 3.93565 27.0804C4.14363 27.835 4.65615 29.1421 5.06348 29.9567C5.86271 31.555 6.57446 32.6717 7.60757 33.9483C8.27254 34.77 9.51714 36.0751 9.63575 36.0751C9.66491 36.0751 9.67687 36.0945 9.66229 36.1181C9.64771 36.1417 9.66589 36.1611 9.70264 36.1611C9.73939 36.1611 9.7695 36.1901 9.7695 36.2255C9.7695 36.261 9.78793 36.29 9.81045 36.29C9.83296 36.29 9.90457 36.3431 9.96962 36.4081C10.0346 36.4731 10.1031 36.5214 10.1216 36.5155C10.1402 36.5096 10.1554 36.5332 10.1554 36.5679C10.1554 36.6091 10.1802 36.6215 10.2268 36.6036C10.2748 36.5851 10.288 36.5926 10.2671 36.6264C10.2485 36.6566 10.2628 36.6767 10.303 36.6767C10.3397 36.6767 10.3698 36.6914 10.3698 36.7094C10.3698 36.7274 10.4132 36.7613 10.4663 36.7846C10.5194 36.808 10.5628 36.856 10.5628 36.8915C10.5628 36.9269 10.5918 36.957 10.6271 36.9584C10.7383 36.9627 10.8422 37.0275 10.8132 37.0745C10.7966 37.1014 10.8061 37.1068 10.8368 37.0878C10.9166 37.0384 11.1005 37.1788 11.072 37.2675C11.0549 37.3208 11.0593 37.3267 11.0872 37.288C11.118 37.2452 11.1465 37.2508 11.2191 37.3139C11.27 37.3581 11.2975 37.4085 11.2803 37.4258C11.263 37.4431 11.2682 37.4533 11.2918 37.4486C11.3828 37.4302 11.4458 37.4519 11.4204 37.493C11.4059 37.5167 11.424 37.536 11.4608 37.536C11.4975 37.536 11.5276 37.5553 11.5276 37.579C11.5276 37.6026 11.5421 37.6197 11.5598 37.6169C11.6417 37.6039 11.702 37.6255 11.6807 37.6601C11.6186 37.7607 13.5458 39.0398 13.7596 39.0398C13.7857 39.0398 14.0612 39.1636 14.3719 39.3149C15.0304 39.6356 16.5092 40.235 16.9736 40.3695C17.4945 40.5204 18.1498 40.6996 18.4745 40.78C18.6851 40.8322 19.7388 41.0021 20.4899 41.1049C20.8876 41.1593 23.1635 41.1919 23.4702 41.1475C23.6117 41.1271 23.9301 41.0975 24.1777 41.0819C24.4254 41.0663 24.6666 41.0453 24.7138 41.0353C24.7609 41.0254 24.8574 41.0066 24.9282 40.9937C26.1733 40.7663 26.74 40.6264 27.6799 40.3139C28.4497 40.058 28.8526 39.894 29.5398 39.557C30.5274 39.0726 30.9062 38.8675 31.1246 38.6988C31.2906 38.5705 31.7115 38.3094 31.7521 38.3094C31.7664 38.3094 31.9542 38.1673 32.1696 37.9938C32.3849 37.8202 32.6521 37.6167 32.7632 37.5417C32.8744 37.4666 33.0288 37.3469 33.1063 37.2757C33.1838 37.2045 33.3097 37.1035 33.3861 37.0511C33.6288 36.8848 35.5558 34.9109 35.912 34.4639C36.5191 33.7019 36.9 33.1837 37.1436 32.7882C37.6229 32.0099 37.9478 31.4359 38.1196 31.0637C38.2163 30.8542 38.3627 30.5378 38.4448 30.3606C38.6845 29.8437 38.8166 29.4889 39.093 28.6204C39.3909 27.6847 39.416 27.5924 39.508 27.0951C39.5452 26.8942 39.615 26.5269 39.6631 26.2787C39.8286 25.425 39.9014 24.4773 39.804 24.4443C39.7733 24.4339 39.7585 24.5094 39.7615 24.6608C39.7642 24.8012 39.7489 24.8866 39.7228 24.8765C39.6986 24.8672 39.6803 24.7139 39.6815 24.5294C39.6831 24.2668 39.6676 24.183 39.6064 24.1217C39.5133 24.0284 39.5098 24.0015 39.5909 24.0015C39.6314 24.0015 39.6511 23.9576 39.6487 23.8725C39.6466 23.8015 39.6769 23.7081 39.7159 23.665C39.8036 23.5679 39.8072 23.4859 39.7237 23.4859C39.6854 23.4859 39.6704 23.5111 39.6854 23.5504C39.699 23.5858 39.6888 23.6148 39.6626 23.6148C39.6133 23.6148 39.5959 23.5331 39.6101 23.3678C39.6147 23.3146 39.6005 23.2711 39.5785 23.2711C39.5177 23.2711 39.4897 23.3787 39.5327 23.4469C39.5538 23.4802 39.571 23.5847 39.571 23.6793C39.571 23.8059 39.56 23.8342 39.5294 23.7867C39.4966 23.7359 39.4877 23.7458 39.4872 23.8332C39.4868 23.8943 39.4742 23.9566 39.4591 23.9717C39.4294 24.0015 39.4026 24.2689 39.4031 24.5316C39.4033 24.6626 39.3851 24.7011 39.3139 24.7198C39.2605 24.7338 39.2335 24.767 39.2469 24.802C39.2593 24.8344 39.2507 24.8609 39.2279 24.8609C39.205 24.8609 39.1864 24.8899 39.1864 24.9253C39.1864 24.9607 39.2093 24.9898 39.2374 24.9898C39.2655 24.9898 39.2543 25.0148 39.2126 25.0454C39.1629 25.0818 39.1307 25.1747 39.1196 25.3139C39.0771 25.8459 39.0463 26.086 39.0101 26.1683C38.9683 26.2634 38.9924 25.3981 39.0506 24.7105C39.1185 23.9091 39.0135 21.8239 38.8687 21.0971C38.8588 21.0475 38.8385 20.9025 38.8234 20.7748C38.7223 19.9136 38.2077 17.8754 37.8954 17.0986C37.8395 16.9595 37.8449 16.9731 37.5831 16.3105C37.3183 15.6404 37.3332 15.6728 36.8545 14.7232C36.4219 13.8651 36.1154 13.3454 35.5482 12.508C35.1722 11.953 34.5215 11.0955 34.2252 10.7647C34.1103 10.6364 33.9619 10.4638 33.8955 10.3811C33.6016 10.0149 32.4936 8.92206 32.0231 8.53415C31.8945 8.42811 31.7796 8.33006 31.7678 8.31627C31.7397 8.28331 31.2559 7.90895 30.708 7.49608C29.654 6.70189 28.6435 6.10908 27.2009 5.43845C26.881 5.28975 26.1675 5.01029 26.1078 5.01029C26.0834 5.01029 26.0299 4.99195 25.9889 4.96956C25.8668 4.90279 25.1948 4.65938 25.067 4.63567C25.0019 4.62359 24.938 4.59657 24.9251 4.57569C24.9122 4.55476 24.8557 4.53766 24.7995 4.53766C24.7434 4.53766 24.6874 4.5215 24.6752 4.50174C24.663 4.48198 24.5799 4.46303 24.4905 4.45968C24.3922 4.45598 24.3068 4.42449 24.2743 4.37997C24.2394 4.33215 24.2206 4.32592 24.2206 4.36218C24.2206 4.39866 24.1947 4.40704 24.1456 4.38646C24.1043 4.3691 23.9741 4.33632 23.8561 4.31359C23.7382 4.29086 23.6176 4.25228 23.5881 4.22783C23.5587 4.20338 23.5345 4.19844 23.5345 4.21683C23.5345 4.23518 23.4959 4.2152 23.4488 4.17244C23.4001 4.12836 23.363 4.11616 23.363 4.1443C23.363 4.17158 23.3341 4.19393 23.2987 4.19393C23.2633 4.19393 23.2344 4.17236 23.2344 4.14593C23.2344 4.11796 23.1897 4.10653 23.1271 4.11852C23.0682 4.12982 23.0199 4.12458 23.0199 4.10692C23.0199 4.08926 22.9283 4.06142 22.8163 4.04509C22.7042 4.02872 22.5702 3.98807 22.5183 3.95473C22.4509 3.91142 22.4156 3.90781 22.3945 3.94214C22.3744 3.97458 22.3522 3.96745 22.3258 3.92014C22.3043 3.88169 22.2672 3.85019 22.2434 3.85019C22.2196 3.85019 22.2113 3.86824 22.2249 3.89033C22.2464 3.92513 22.1158 3.92732 21.7202 3.89875C21.6776 3.8957 21.6546 3.87383 21.6692 3.85019C21.6838 3.82656 21.6752 3.80723 21.6503 3.80723C21.6253 3.80723 21.6048 3.8288 21.6048 3.85522C21.6048 3.90218 21.5372 3.89376 21.3727 3.82631C21.3148 3.80254 21.2997 3.80749 21.3216 3.84289C21.3404 3.87335 21.3253 3.89316 21.2832 3.89316C21.2451 3.89316 21.2246 3.87567 21.2378 3.85432C21.2702 3.80186 20.9515 3.77831 20.0825 3.76899C19.6816 3.76469 19.2088 3.75618 19.0319 3.75008C18.8551 3.74398 18.6138 3.75459 18.4959 3.77371ZM17.18 3.79361C17.2109 3.80603 17.2479 3.80448 17.2622 3.79021C17.2764 3.77595 17.2511 3.76581 17.2059 3.76766C17.156 3.76972 17.1458 3.7799 17.18 3.79361ZM25.3248 3.96457C25.3543 3.97652 25.4026 3.97652 25.432 3.96457C25.4615 3.95267 25.4374 3.94292 25.3784 3.94292C25.3195 3.94292 25.2954 3.95267 25.3248 3.96457ZM25.6706 4.05141C25.7015 4.06382 25.7385 4.06228 25.7528 4.04801C25.767 4.03375 25.7417 4.02361 25.6965 4.02546C25.6465 4.02752 25.6364 4.0377 25.6706 4.05141ZM26.7078 4.38225C26.7078 4.39132 26.7464 4.40885 26.7936 4.42122C26.8408 4.4336 26.8686 4.42616 26.8554 4.40476C26.8323 4.36734 26.7078 4.34835 26.7078 4.38225ZM27.6083 4.68748C27.6083 4.71481 27.9048 4.83868 27.9673 4.83748C27.9939 4.83697 27.9315 4.7983 27.8287 4.75155C27.6293 4.66089 27.6083 4.65479 27.6083 4.68748ZM29.3236 5.49981C29.3236 5.50909 29.3535 5.52821 29.3901 5.5423C29.4283 5.55696 29.4455 5.54974 29.4305 5.52542C29.4053 5.48456 29.3236 5.46501 29.3236 5.49981ZM29.4951 5.58574C29.4951 5.59502 29.525 5.61414 29.5616 5.62824C29.5998 5.64289 29.617 5.63567 29.602 5.61135C29.5768 5.57049 29.4951 5.55094 29.4951 5.58574ZM33.6975 8.66245C33.6975 8.68608 33.7179 8.70542 33.7429 8.70542C33.7679 8.70542 33.7764 8.68608 33.7618 8.66245C33.7472 8.63882 33.7268 8.61948 33.7164 8.61948C33.706 8.61948 33.6975 8.63882 33.6975 8.66245ZM21.2832 12.6389C21.5663 12.6772 22.0101 12.7656 22.2695 12.8355C23.27 13.1049 23.4994 13.1923 24.3922 13.6437C25.3352 14.1207 26.1397 14.7093 26.9484 15.5141C27.5277 16.0906 27.6568 16.3135 27.6735 16.7659C27.691 17.239 27.5218 17.5521 27.1688 17.6997C27.0803 17.7367 27.0079 17.7848 27.0079 17.8066C27.0079 17.8285 26.9314 17.8586 26.8378 17.8736C26.7443 17.8886 26.6294 17.942 26.5826 17.9923C26.5122 18.0681 26.466 18.0794 26.3132 18.0584C26.1797 18.0399 26.1525 18.0442 26.2146 18.0739C26.2759 18.1031 26.2456 18.1072 26.1088 18.0881C25.8465 18.0516 25.6605 17.9237 25.1119 17.4031C24.5732 16.8918 24.1753 16.5819 23.6227 16.2429C23.2815 16.0336 23.0605 15.9261 22.4625 15.6782C22.3799 15.644 22.2553 15.59 22.1855 15.5581C22.1157 15.5263 22.0425 15.5102 22.0228 15.5224C22.0031 15.5345 21.9598 15.5219 21.9265 15.4941C21.8931 15.4664 21.8471 15.4554 21.8241 15.4696C21.8011 15.4839 21.7702 15.4759 21.7554 15.4519C21.7406 15.4278 21.6852 15.4082 21.6323 15.4082C21.5795 15.4082 21.5179 15.3902 21.4955 15.3681C21.4731 15.346 21.373 15.3205 21.273 15.3113C21.1731 15.3022 21.0782 15.2816 21.0622 15.2655C21.0462 15.2495 20.9893 15.2363 20.9358 15.2363C20.8823 15.2363 20.7842 15.2138 20.7178 15.1863C20.6515 15.1587 20.4042 15.1314 20.1683 15.1255C19.9325 15.1196 19.5996 15.1052 19.4286 15.0935C19.2096 15.0785 19.1173 15.087 19.1163 15.122C19.1156 15.1495 19.0906 15.1398 19.0609 15.1006C19.0055 15.0276 18.9313 15.0035 18.8175 15.0215C18.7822 15.0271 18.81 15.0439 18.8794 15.0588C18.9488 15.0738 19.0018 15.1053 18.997 15.1289C18.989 15.1684 18.8491 15.186 18.4852 15.1932C18.4085 15.1947 18.3458 15.2147 18.3458 15.2376C18.3458 15.2606 18.2976 15.2793 18.2386 15.2793C18.1797 15.2793 18.1314 15.2955 18.1314 15.3154C18.1314 15.3352 18.0542 15.377 17.9599 15.4082C17.8656 15.4394 17.7884 15.4812 17.7884 15.501C17.7884 15.5209 17.7546 15.5375 17.7133 15.538C17.6721 15.5386 17.59 15.5768 17.5311 15.623C17.4721 15.6693 17.394 15.7075 17.3574 15.708C17.3209 15.7085 17.2726 15.7269 17.2502 15.7488C17.2278 15.7707 17.0797 15.8572 16.9211 15.9412C16.623 16.099 16.1459 16.4194 15.9257 16.6097C15.0965 17.3263 14.3287 18.3684 14.2454 18.8903L14.2164 19.0719L14.6623 18.8353C14.9076 18.7052 15.3159 18.489 15.5698 18.3548C16.128 18.0598 16.3299 18.0233 16.6768 18.1543C17.1811 18.3448 17.527 18.8 17.5643 19.3222C17.5846 19.6067 17.5666 19.6957 17.4211 20.0289C17.3614 20.1656 17.0936 20.4353 17.0177 20.4353C16.9934 20.4353 16.9736 20.4546 16.9736 20.4783C16.9736 20.5019 16.9483 20.5212 16.9174 20.5212C16.8864 20.5212 16.8197 20.5599 16.7691 20.6072C16.7185 20.6544 16.668 20.6931 16.6569 20.6931C16.6354 20.6931 16.07 21.0374 15.7121 21.2685C15.5923 21.3458 15.3109 21.5251 15.0868 21.6667C14.8628 21.8083 14.5304 22.0194 14.3481 22.1358C13.7492 22.5181 13.7043 22.5392 13.487 22.54C13.3605 22.5404 13.291 22.5573 13.3072 22.5836C13.3218 22.6073 13.3112 22.6266 13.2837 22.6266C13.2562 22.6266 13.2448 22.6556 13.2584 22.691C13.291 22.7761 13.2232 22.7727 13.0855 22.6823C12.9751 22.6098 12.9745 22.61 13.0318 22.7018C13.0636 22.7528 13.0806 22.8019 13.0698 22.811C12.9533 22.9075 12.5279 23.1069 12.4047 23.1226C12.1947 23.1496 12.1342 23.1908 12.238 23.2362C12.2914 23.2596 12.2547 23.2642 12.1352 23.2492C11.8686 23.2158 11.5568 23.0432 11.3805 22.8313C11.2557 22.6813 10.2906 21.1555 9.45209 19.7823C9.35543 19.6241 9.10813 19.2266 8.90256 18.8991C8.69698 18.5716 8.4806 18.1982 8.42172 18.0693C8.27893 17.7568 8.24081 17.4098 8.32764 17.2128L8.39394 17.0624L8.39561 17.2185C8.39758 17.4028 8.49754 17.4523 8.67816 17.3585C8.74132 17.3256 8.81975 17.2987 8.85243 17.2987C8.8851 17.2987 8.91186 17.2794 8.91186 17.2558C8.91186 17.2321 8.93386 17.2128 8.96075 17.2128C8.98763 17.2128 9.03377 17.1797 9.06328 17.1392C9.09947 17.0897 9.16606 17.069 9.26756 17.0759C9.44492 17.0879 9.55509 16.9976 9.55509 16.8404C9.55509 16.6912 9.68154 16.2675 9.7261 16.2675C9.82739 16.2675 10.1943 16.4613 10.321 16.5817C10.4002 16.657 10.716 17.0957 11.0227 17.5565C11.3294 18.0173 11.5962 18.4116 11.6157 18.4326C11.6359 18.4544 11.8813 18.3582 12.1855 18.2094L12.7199 17.9479L13.1047 17.1771C13.6788 16.0276 14.1017 15.4098 14.8263 14.6626C15.3758 14.0959 16.0852 13.5454 16.683 13.2216C17.058 13.0185 17.8731 12.7808 18.6246 12.6552C19.3569 12.5329 20.4483 12.5262 21.2832 12.6389ZM20.1155 14.7075C20.1572 14.7185 20.2151 14.7177 20.2442 14.706C20.2732 14.6942 20.2391 14.6853 20.1683 14.6862C20.0976 14.687 20.0738 14.6966 20.1155 14.7075ZM19.3321 14.8496C19.2771 14.8852 19.2787 14.8914 19.3428 14.892C19.3841 14.8923 19.4179 14.8733 19.4179 14.8496C19.4179 14.7972 19.413 14.7972 19.3321 14.8496ZM39.7873 20.9376C39.7877 20.9567 39.8067 21.0014 39.8296 21.0368C39.8654 21.0924 39.8712 21.0912 39.8718 21.0286C39.8722 20.9887 39.8532 20.944 39.8296 20.9294C39.806 20.9148 39.787 20.9185 39.7873 20.9376ZM29.4974 22.2077C29.8109 22.3682 29.9806 22.5637 30.3706 23.2135C30.5102 23.446 30.6852 23.733 30.7595 23.8511C30.8339 23.9693 31.0014 24.24 31.1319 24.4527C31.2623 24.6654 31.4963 25.0424 31.6518 25.2905C31.8073 25.5386 32.0273 25.8927 32.1406 26.0772C32.254 26.2618 32.4046 26.5065 32.4754 26.6211C33.016 27.4964 33.0816 27.6722 33.0279 28.1021C32.9976 28.3446 32.842 28.5555 32.6925 28.5566C32.6293 28.5571 32.62 28.5674 32.6598 28.5928C32.701 28.619 32.6765 28.6583 32.5662 28.7425C32.484 28.8054 32.3973 28.8567 32.3734 28.8567C32.3496 28.8567 32.3008 28.8986 32.265 28.9499C32.2122 29.0254 32.155 29.0437 31.9627 29.0466C31.8035 29.0489 31.7254 29.0678 31.7252 29.1038C31.7251 29.1334 31.696 29.1575 31.6606 29.1575C31.6252 29.1575 31.5963 29.1756 31.5963 29.1976C31.5963 29.2197 31.4828 29.1994 31.3441 29.1525C30.9156 29.0075 30.8119 28.8895 30.0264 27.6537C29.8987 27.4528 29.7607 27.2165 29.7197 27.1285C29.6787 27.0404 29.6308 26.9679 29.6134 26.9673C29.5959 26.9667 29.4731 27.1838 29.3406 27.4496C28.7914 28.5516 28.3224 29.2153 27.5486 29.9858C27.2097 30.3232 26.8028 30.5907 26.1074 30.9337C25.789 31.0907 25.5565 31.2193 25.5907 31.2195C25.6402 31.2198 25.642 31.2308 25.5996 31.2733C25.5573 31.3157 25.5397 31.3157 25.5134 31.2731C25.4875 31.2311 25.4347 31.2347 25.2686 31.2899C25.1521 31.3286 25.0385 31.377 25.0161 31.3975C24.9937 31.418 24.9371 31.4347 24.8905 31.4347C24.8034 31.4347 24.5662 31.5021 24.4136 31.57C24.3416 31.6021 24.3466 31.6057 24.4447 31.5921C24.5231 31.5813 24.5866 31.6046 24.6377 31.6631C24.6795 31.7111 24.6887 31.7356 24.6581 31.7176C24.6275 31.6996 24.5723 31.6965 24.5353 31.7107C24.4811 31.7316 24.4784 31.7488 24.5212 31.8005C24.5519 31.8376 24.5559 31.8644 24.5306 31.8644C24.5067 31.8644 24.476 31.8354 24.4624 31.8C24.4204 31.6902 24.3455 31.7268 24.3745 31.8429C24.3988 31.9399 24.3888 31.9503 24.2707 31.9503C24.1988 31.9503 24.128 31.9697 24.1134 31.9933C24.0988 32.0169 24.0387 32.0363 23.9797 32.0363C23.9096 32.0363 23.8831 32.0534 23.9031 32.0859C23.9202 32.1136 23.9151 32.1239 23.8914 32.1093C23.8681 32.0949 23.6578 32.1305 23.4239 32.1886C23.1901 32.2466 22.9445 32.2941 22.8781 32.2941C22.8087 32.2941 22.7688 32.3123 22.7841 32.337C22.8 32.3629 22.7433 32.38 22.6414 32.38C22.5484 32.38 22.4253 32.4045 22.3678 32.4343C22.2922 32.4736 22.0626 32.4848 21.5374 32.4746C21.1382 32.4669 20.7102 32.4587 20.5864 32.4564C20.4626 32.4541 20.3613 32.4347 20.3613 32.4134C20.3613 32.3921 20.3275 32.3802 20.2862 32.387C20.245 32.3938 20.1871 32.3842 20.1576 32.3657C20.1235 32.3443 20.104 32.3556 20.104 32.3968C20.104 32.4325 20.1378 32.4814 20.179 32.5055C20.2505 32.5472 20.2505 32.5493 20.179 32.5506C20.1378 32.5513 20.104 32.5361 20.104 32.5169C20.104 32.4977 19.9931 32.4831 19.8574 32.4845C19.6032 32.4869 19.3211 32.4477 19.0963 32.3785C19.0255 32.3567 18.8229 32.2963 18.646 32.2444C17.6615 31.9552 16.5546 31.4178 15.6657 30.7975C15.4771 30.6659 15.313 30.5474 15.3012 30.5344C15.2894 30.5213 15.1376 30.3969 14.9639 30.2578C14.5515 29.9278 14.0261 29.4022 13.8451 29.1387C13.5865 28.7621 13.4826 28.3353 13.57 28.0086C13.604 27.8814 13.6717 27.928 13.6717 28.0787C13.6717 28.2374 13.7077 28.265 13.8156 28.1893C13.8649 28.1546 13.9401 28.1263 13.9828 28.1263C14.0255 28.1263 14.0715 28.0973 14.085 28.0619C14.0986 28.0264 14.1372 27.9974 14.1708 27.9974C14.2044 27.9974 14.2423 27.9702 14.2551 27.9368C14.2678 27.9035 14.3251 27.8645 14.3824 27.8501C14.4397 27.8357 14.4865 27.7953 14.4865 27.7603C14.4865 27.7033 14.5429 27.6814 14.6834 27.684C14.7091 27.6844 14.7332 27.608 14.7368 27.5143C14.7451 27.302 14.828 27.1222 14.9264 27.1032C15.0994 27.0699 15.4741 27.3077 15.9071 27.726C16.1474 27.958 16.3798 28.182 16.4236 28.2237C16.8712 28.6499 18.1632 29.4146 18.7304 29.5889C20.3496 30.0868 21.5073 30.1441 22.8699 29.794C23.7637 29.5644 24.386 29.245 25.4171 28.487C26.5478 27.6557 27.2016 26.9854 27.6975 26.149C27.8442 25.9016 27.9468 25.5913 27.8818 25.5913C27.8705 25.5913 27.7996 25.6243 27.7241 25.6647C27.6486 25.7051 27.5767 25.7389 27.5644 25.7399C27.5521 25.7409 27.4953 25.7852 27.4384 25.8383C27.3814 25.8915 27.3021 25.935 27.2621 25.935C27.1629 25.935 26.9597 26.0442 26.9943 26.0789C27.0097 26.0943 26.9697 26.1069 26.9054 26.1069C26.8383 26.1069 26.7998 26.1252 26.815 26.1499C26.8296 26.1735 26.8017 26.1928 26.7532 26.1928C26.7046 26.1928 26.6649 26.2122 26.6649 26.2358C26.6649 26.2594 26.6381 26.2787 26.6055 26.2787C26.5165 26.2787 26.319 26.3905 26.3511 26.4226C26.3664 26.438 26.3175 26.4506 26.2423 26.4506C26.167 26.4506 26.0302 26.5006 25.9374 26.5621C25.8419 26.6255 25.7469 26.6597 25.7173 26.6414C25.6863 26.6221 25.6765 26.6272 25.6929 26.6539C25.7081 26.6786 25.6934 26.7213 25.6602 26.7489C25.6127 26.7883 25.5891 26.7824 25.5502 26.7215C25.5072 26.6543 25.5037 26.6538 25.5233 26.7176C25.5446 26.7864 25.3598 26.9647 25.2646 26.9672C25.2447 26.9677 25.1801 27.0059 25.1211 27.0521C25.0622 27.0984 24.962 27.1366 24.8985 27.1371C24.8351 27.1377 24.7712 27.1574 24.7567 27.181C24.7106 27.2557 24.3543 27.2283 24.1743 27.1363C23.9574 27.0255 23.6911 26.7603 23.5845 26.5491C23.4726 26.3276 23.404 25.98 23.4347 25.7906C23.4642 25.6085 23.5196 25.5895 23.5774 25.7417C23.5998 25.8007 23.6485 25.8491 23.6856 25.8491C23.7506 25.8491 23.9633 25.6524 23.9633 25.5923C23.9633 25.5761 24.0164 25.5354 24.0813 25.5019C24.2298 25.425 24.3064 25.3534 24.3064 25.291C24.3064 25.2644 24.3239 25.2534 24.3454 25.2666C24.4405 25.3255 24.5208 25.2347 24.5208 25.0684C24.5208 24.975 24.5692 24.7959 24.6284 24.6706C24.7423 24.4293 24.7838 24.3968 25.6143 23.896C25.803 23.7822 26.0249 23.6455 26.1074 23.5923C26.7766 23.1603 28.3497 22.2161 28.5067 22.1522C28.826 22.0221 29.1729 22.0415 29.4974 22.2077ZM12.5997 22.1923C12.5997 22.2134 12.6314 22.2429 12.6701 22.2578C12.7289 22.2804 12.7316 22.2741 12.6863 22.2194C12.6245 22.1448 12.5997 22.1371 12.5997 22.1923ZM12.8851 22.4352C12.8981 22.4693 12.9261 22.4865 12.9472 22.4734C13.0004 22.4405 12.9955 22.4248 12.9235 22.3971C12.882 22.3811 12.8692 22.3938 12.8851 22.4352ZM39.9237 22.691C39.9246 22.7619 39.9342 22.7857 39.9451 22.7439C39.9559 22.7021 39.9552 22.6441 39.9435 22.615C39.9317 22.5859 39.9228 22.6201 39.9237 22.691ZM39.9143 23.6666C39.9029 23.7777 39.9095 23.8527 39.9288 23.8333C39.9482 23.8139 39.9575 23.723 39.9495 23.6312L39.935 23.4644L39.9143 23.6666ZM39.7925 23.9658C39.7893 24.0052 39.7749 24.0682 39.7605 24.1059C39.7413 24.156 39.7528 24.1672 39.8034 24.1478C39.8499 24.1299 39.8725 24.1446 39.8725 24.1928C39.8725 24.2322 39.8532 24.2524 39.8296 24.2378C39.806 24.2232 39.7867 24.2393 39.7867 24.2737C39.7867 24.308 39.8156 24.3472 39.851 24.3608C39.9006 24.3798 39.9153 24.3513 39.9153 24.2365C39.9153 24.1545 39.8974 24.0875 39.8755 24.0875C39.8535 24.0875 39.8272 24.044 39.817 23.9908C39.806 23.934 39.796 23.9237 39.7925 23.9658ZM39.2292 24.2118C39.2292 24.2329 39.2582 24.2613 39.2936 24.2749C39.3327 24.2899 39.3579 24.2749 39.3579 24.2365C39.3579 24.2018 39.3289 24.1734 39.2936 24.1734C39.2582 24.1734 39.2292 24.1907 39.2292 24.2118ZM39.5587 24.2674C39.545 24.3016 39.5349 24.2915 39.5328 24.2414C39.5309 24.1961 39.5411 24.1708 39.5553 24.185C39.5695 24.1993 39.5711 24.2364 39.5587 24.2674ZM39.2621 24.4525C39.2474 24.5283 39.257 24.5937 39.2855 24.6113C39.3584 24.6565 39.3665 24.6269 39.3249 24.4681L39.2871 24.3238L39.2621 24.4525ZM39.5723 24.6245C39.5723 24.66 39.553 24.689 39.5294 24.689C39.5058 24.689 39.4865 24.66 39.4865 24.6245C39.4865 24.5891 39.5058 24.5601 39.5294 24.5601C39.553 24.5601 39.5723 24.5891 39.5723 24.6245ZM39.4865 24.8844C39.4865 24.9351 39.4054 24.9351 39.386 24.8843C39.3701 24.8429 39.3829 24.8302 39.4244 24.8462C39.4586 24.8593 39.4865 24.8765 39.4865 24.8844ZM26.1816 26.5195C26.1673 26.5338 26.1303 26.5353 26.0994 26.5229C26.0652 26.5092 26.0754 26.499 26.1253 26.497C26.1705 26.4951 26.1958 26.5053 26.1816 26.5195ZM38.9155 26.5876C38.9018 26.6218 38.8916 26.6117 38.8896 26.5616C38.8877 26.5163 38.8978 26.491 38.9121 26.5052C38.9263 26.5195 38.9279 26.5566 38.9155 26.5876ZM38.9058 26.7484C38.9194 26.7704 38.9108 26.8005 38.8869 26.8154C38.8629 26.8302 38.8433 26.8122 38.8433 26.7754C38.8433 26.6999 38.869 26.6888 38.9058 26.7484ZM32.5718 28.4574C32.6249 28.4676 32.7118 28.4676 32.7648 28.4574C32.8179 28.4471 32.7745 28.4388 32.6683 28.4388C32.5622 28.4388 32.5188 28.4471 32.5718 28.4574ZM18.5951 31.0344C18.626 31.0468 18.663 31.0453 18.6773 31.031C18.6915 31.0168 18.6662 31.0066 18.621 31.0085C18.5711 31.0105 18.5609 31.0207 18.5951 31.0344ZM18.8175 31.1079C18.8175 31.1172 18.8475 31.1363 18.8841 31.1504C18.9223 31.165 18.9394 31.1578 18.9244 31.1335C18.8993 31.0926 18.8175 31.0731 18.8175 31.1079ZM19.0534 31.2199C19.1713 31.2706 19.239 31.2706 19.1606 31.2199C19.1252 31.197 19.0673 31.1793 19.0319 31.1806C18.9895 31.1822 18.9968 31.1955 19.0534 31.2199ZM19.4608 31.3653C19.4608 31.3743 19.5084 31.3909 19.5667 31.402C19.6249 31.4132 19.6624 31.4058 19.6499 31.3856C19.628 31.35 19.4608 31.332 19.4608 31.3653ZM19.7958 31.4641C19.8267 31.4765 19.8637 31.475 19.878 31.4607C19.8922 31.4464 19.8669 31.4363 19.8217 31.4381C19.7717 31.4402 19.7616 31.4504 19.7958 31.4641ZM25.164 31.4777C25.214 31.5101 25.2014 31.5195 25.1079 31.52C25.0384 31.5204 24.9986 31.5025 25.0139 31.4777C25.0468 31.4243 25.0817 31.4243 25.164 31.4777ZM24.91 31.5325C24.9082 31.5496 24.8971 31.5636 24.8853 31.5636C24.7146 31.5636 24.7128 31.563 24.7781 31.5207C24.8473 31.4759 24.9152 31.482 24.91 31.5325ZM20.0726 31.5504C20.1144 31.5614 20.1723 31.5606 20.2013 31.5489C20.2303 31.5371 20.1962 31.5282 20.1254 31.5291C20.0547 31.5299 20.0309 31.5395 20.0726 31.5504ZM24.0302 31.6456C24.0169 31.667 24.0456 31.6742 24.0939 31.6615C24.1498 31.6469 24.2038 31.6678 24.2427 31.7192C24.2953 31.7889 24.3039 31.7903 24.305 31.7294C24.307 31.625 24.0846 31.5572 24.0302 31.6456ZM23.7275 31.6925L23.556 31.7168L23.7061 31.743C23.7886 31.7575 23.8741 31.7523 23.8961 31.7316C23.9564 31.675 23.9167 31.6658 23.7275 31.6925ZM20.908 31.7229C20.9611 31.7331 21.0479 31.7331 21.101 31.7229C21.1541 31.7126 21.1106 31.7042 21.0045 31.7042C20.8984 31.7042 20.8549 31.7126 20.908 31.7229ZM21.6826 31.8078C21.7135 31.8202 21.7505 31.8187 21.7648 31.8044C21.779 31.7902 21.7537 31.78 21.7085 31.7819C21.6585 31.7839 21.6484 31.7941 21.6826 31.8078ZM21.9377 31.8088C21.991 31.8191 22.0682 31.8187 22.1092 31.808C22.1502 31.7972 22.1066 31.7888 22.0122 31.7893C21.9179 31.7898 21.8843 31.7986 21.9377 31.8088ZM22.5911 31.805C22.8434 31.8371 23.1916 31.8404 23.1915 31.8107C23.1915 31.793 23.0323 31.7814 22.8377 31.7849C22.6431 31.7884 22.5322 31.7975 22.5911 31.805ZM23.9437 31.9044C23.9302 31.9264 23.9387 31.9565 23.9627 31.9714C23.9866 31.9862 24.0062 31.9682 24.0062 31.9314C24.0062 31.8559 23.9805 31.8448 23.9437 31.9044ZM18.7032 32.1007C18.7032 32.1317 18.7289 32.1471 18.7604 32.135C18.7918 32.1229 18.8175 32.1075 18.8175 32.1007C18.8175 32.094 18.7918 32.0786 18.7604 32.0664C18.7289 32.0544 18.7032 32.0698 18.7032 32.1007ZM19.375 32.2875C19.375 32.3076 19.4377 32.3249 19.5144 32.3261C19.6274 32.3279 19.6376 32.3216 19.568 32.2927C19.4532 32.2451 19.375 32.243 19.375 32.2875ZM19.7271 32.354C19.7575 32.387 19.7972 32.405 19.8152 32.394C19.8643 32.3642 19.8081 32.2941 19.7353 32.2941C19.6831 32.2941 19.6816 32.3048 19.7271 32.354Z" fill="#00467F"/>
<path fill-rule="evenodd" clip-rule="evenodd" d="M18.4482 3.83455C18.3902 3.86471 18.3144 3.87846 18.2798 3.86514C18.2451 3.85182 18.2168 3.86299 18.2168 3.88998C18.2168 3.92461 18.1932 3.92641 18.1367 3.89608C18.0926 3.87245 18.0484 3.86123 18.0386 3.87116C18.0216 3.88817 17.6168 3.94102 17.4168 3.95232C17.3661 3.95516 17.3334 3.972 17.3444 3.98974C17.3553 4.00745 17.3197 4.02356 17.2652 4.02545C17.2108 4.02738 17.1083 4.03353 17.0376 4.03911C16.9668 4.0447 16.8947 4.02863 16.8774 4.00341C16.8563 3.97273 16.8457 3.97531 16.8452 4.01123C16.8448 4.04577 16.7795 4.06472 16.6623 4.06429C16.5207 4.06378 16.4944 4.05329 16.5444 4.01724C16.5979 3.9787 16.5955 3.97518 16.5302 3.99645C16.487 4.0105 16.4123 4.02197 16.3641 4.02197C16.2875 4.02197 16.284 4.03086 16.3355 4.09355C16.3885 4.158 16.3828 4.16225 16.279 4.13635C16.2105 4.11925 16.1518 4.12689 16.1343 4.15529C16.1134 4.18928 16.0953 4.18752 16.0717 4.14919C16.0521 4.11744 16.0064 4.10769 15.9603 4.12543C15.8939 4.151 15.8916 4.16157 15.9453 4.19607C15.9882 4.2237 15.963 4.22795 15.8665 4.20939C15.7884 4.19435 15.6823 4.20183 15.6306 4.22602C15.579 4.25021 15.4499 4.29416 15.3437 4.32377C15.0027 4.41881 14.3802 4.63484 14.3382 4.6727C14.3157 4.69289 14.2728 4.70943 14.2427 4.70943C14.2127 4.70943 14.067 4.76417 13.919 4.83107C13.771 4.89797 13.4376 5.03671 13.1782 5.13936C12.6946 5.33069 12.4705 5.44124 11.613 5.91164C11.0335 6.22951 10.6098 6.49968 10.4423 6.65818C10.3762 6.7207 10.308 6.77183 10.2907 6.77183C10.2177 6.77183 9.3089 7.47485 8.92515 7.82816C8.69634 8.03883 8.38253 8.32722 8.22785 8.46901C8.07318 8.6108 7.8598 8.82769 7.75367 8.95097C7.64753 9.07424 7.51246 9.22935 7.4535 9.2956C6.49655 10.3712 5.81747 11.354 5.13004 12.6583C3.96876 14.8615 3.32647 17.1011 3.10306 19.7263C3.01297 20.785 3.07339 22.9799 3.21545 23.8081C3.23981 23.9499 3.27583 24.1722 3.29551 24.3022C3.50019 25.652 3.93342 27.2548 4.42789 28.4914C4.51292 28.7041 4.60049 28.9168 4.62244 28.9641C4.6444 29.0113 4.71305 29.1757 4.77502 29.3293C4.87635 29.5804 5.32811 30.4758 5.72888 31.2198C6.05182 31.8194 7.04916 33.2567 7.68158 34.0341C8.30568 34.8013 9.29029 35.8217 9.65075 36.075C9.7348 36.1341 9.79574 36.1953 9.78609 36.211C9.77648 36.2267 9.82524 36.2646 9.89441 36.2953C9.96362 36.326 10.0108 36.3663 9.99934 36.3849C9.98785 36.4035 10.0097 36.4188 10.0478 36.4188C10.086 36.4188 10.1053 36.4381 10.0907 36.4617C10.0761 36.4854 10.0943 36.5047 10.1311 36.5047C10.1678 36.5047 10.1979 36.524 10.1979 36.5477C10.1979 36.5713 10.2178 36.5906 10.2421 36.5906C10.2664 36.5906 10.3839 36.668 10.5032 36.7625C10.6225 36.857 10.741 36.9344 10.7664 36.9344C10.7918 36.9344 10.8005 36.9465 10.7857 36.9613C10.7708 36.9762 10.8207 37.02 10.8964 37.0587C10.9722 37.0975 11.0953 37.1838 11.17 37.2506C11.2447 37.3173 11.3171 37.3702 11.3308 37.368C11.364 37.3627 11.4912 37.4717 11.7344 37.7136C12.0681 38.0456 13.6036 39.0397 13.7827 39.0397C13.8155 39.0397 14.0306 39.1347 14.2607 39.2508C14.4908 39.3669 14.7466 39.4908 14.8291 39.526C14.9117 39.5613 15.0564 39.6232 15.1508 39.6636C15.2451 39.7041 15.4091 39.7716 15.5153 39.8136C15.6214 39.8555 15.9012 39.97 16.137 40.068C16.7409 40.3189 18.3706 40.7854 18.9029 40.8598C19.009 40.8746 19.2117 40.9046 19.3532 40.9264C20.2544 41.0653 20.5902 41.1038 21.249 41.1435C22.1688 41.199 22.8674 41.2002 23.3768 41.147C23.593 41.1245 24.0015 41.0851 24.2846 41.0595C24.5676 41.034 25.2286 40.9274 25.7535 40.8226C26.9028 40.5933 28.3598 40.1276 29.1726 39.7298C29.4559 39.5912 29.8324 39.4083 30.0093 39.3234C30.4405 39.1164 30.7237 38.9543 31.21 38.6364C31.434 38.4899 31.707 38.3129 31.8167 38.243C31.9263 38.1731 32.1631 37.9999 32.3429 37.8582C32.5227 37.7164 32.867 37.4457 33.108 37.2566C33.6282 36.8485 35.4642 35.0135 35.9024 34.4638C36.731 33.424 37.0466 32.9602 37.8031 31.671C38.0651 31.2245 38.7173 29.7561 38.9006 29.2004C39.227 28.2106 39.4172 27.5321 39.5089 27.0306C39.5392 26.8652 39.5959 26.568 39.6349 26.3702C39.6739 26.1724 39.6965 25.9863 39.6851 25.9565C39.6737 25.9268 39.685 25.8818 39.7102 25.8565C39.7354 25.8312 39.7631 25.6597 39.7718 25.4753C39.7816 25.2674 39.7738 25.1727 39.7513 25.226C39.7313 25.2732 39.7191 25.3699 39.7242 25.4408C39.7293 25.5117 39.7068 25.6125 39.6741 25.6649C39.6041 25.7771 39.598 25.8214 39.6577 25.7845C39.6812 25.7699 39.7005 25.7785 39.7005 25.8035C39.7005 25.8285 39.6826 25.849 39.6607 25.849C39.6389 25.849 39.6077 25.9556 39.5914 26.0859C39.5482 26.4321 39.4835 26.4215 39.4907 26.0694C39.4948 25.869 39.5152 25.761 39.5518 25.747C39.6845 25.696 39.6548 25.2424 39.5194 25.2509C39.4764 25.2535 39.4761 25.2588 39.5183 25.2759C39.5976 25.308 39.5833 25.3761 39.4969 25.3777C39.4287 25.379 39.4294 25.3849 39.5044 25.4417C39.6114 25.5228 39.5646 25.5704 39.4423 25.5047C39.3761 25.4692 39.3348 25.4678 39.3028 25.4999C39.2708 25.5319 39.2785 25.5536 39.3289 25.5729C39.3726 25.5897 39.4004 25.6482 39.4004 25.7234C39.4004 25.815 39.384 25.84 39.336 25.8216C39.2953 25.8059 39.2717 25.8221 39.2717 25.8659C39.2717 25.9478 39.223 25.9549 39.1517 25.8834C39.0799 25.8114 39.0613 26.1034 39.1244 26.3127C39.1407 26.3669 39.1371 26.4081 39.1164 26.4043C39.0155 26.3858 38.9728 26.4161 38.9756 26.5042C38.9773 26.5574 38.9471 26.7363 38.9084 26.9017C38.8697 27.0671 38.8197 27.3251 38.7972 27.475C38.7747 27.625 38.7276 27.7888 38.6924 27.8391C38.63 27.9283 38.6285 27.9273 38.6285 27.7946C38.6285 27.7198 38.6449 27.6485 38.6649 27.6361C38.685 27.6237 38.7252 27.434 38.7542 27.2146C38.7833 26.9953 38.8243 26.7191 38.8454 26.6009C38.8665 26.4827 38.894 26.3281 38.9064 26.2572C38.9665 25.9146 39.0275 24.8282 39.0354 23.9585C39.0462 22.7696 38.9782 21.801 38.8214 20.9078C38.8152 20.8724 38.7968 20.737 38.7806 20.6071C38.733 20.2257 38.5978 19.5426 38.483 19.1032C38.4244 18.8787 38.3468 18.5818 38.3106 18.4433C38.157 17.8554 37.7379 16.6406 37.5378 16.203C37.5054 16.1321 37.4267 15.9484 37.363 15.7948C37.1872 15.3707 36.542 14.1074 36.2604 13.6357C35.155 11.7838 33.7391 10.0568 32.2261 8.71491C32.0922 8.59615 30.9819 7.70889 30.6001 7.41551C30.4635 7.31054 29.3907 6.59958 29.0586 6.39394C28.7058 6.1755 27.0797 5.38195 26.6002 5.19431C26.3643 5.10198 25.8819 4.93316 25.5281 4.81913C25.1744 4.70514 24.827 4.58715 24.7563 4.55699C24.6855 4.52683 24.5512 4.49026 24.4579 4.4757C24.3645 4.46117 24.2732 4.42564 24.2548 4.39672C24.2293 4.35642 24.2214 4.35728 24.2209 4.40046C24.2205 4.4314 24.1993 4.44373 24.1737 4.42787C24.1352 4.40403 23.8042 4.31986 23.5341 4.2652C23.4988 4.25807 23.4409 4.24058 23.4055 4.2264C23.3031 4.18537 22.7482 4.0603 22.6666 4.05987C22.6258 4.05965 22.581 4.04105 22.5672 4.01853C22.5533 3.99602 22.524 3.98871 22.502 4.00233C22.4801 4.01591 22.4618 4.00173 22.4614 3.9708C22.4609 3.92667 22.4527 3.92727 22.4233 3.97376C22.4014 4.00856 22.3633 4.019 22.3312 3.99907C22.3011 3.98046 22.2266 3.9613 22.1656 3.95649C22.1046 3.95172 21.8617 3.9335 21.6259 3.91606C21.39 3.89857 21.1778 3.86957 21.1542 3.85156C21.099 3.80946 21.178 3.81268 19.7681 3.79502C18.8427 3.78338 18.5285 3.79279 18.4482 3.83455ZM18.7278 3.82256C18.718 3.83107 18.6521 3.851 18.5813 3.86686C18.4873 3.88791 18.47 3.88392 18.517 3.85208C18.5749 3.81281 18.7708 3.78539 18.7278 3.82256ZM16.891 3.86587C16.9009 3.87455 16.9861 3.89462 17.0804 3.91043C17.2033 3.93105 17.2337 3.9268 17.1876 3.8953C17.1298 3.85582 16.848 3.82789 16.891 3.86587ZM27.6393 4.71476C27.6684 4.74415 27.7031 4.75734 27.7162 4.74411C27.7294 4.73087 27.7056 4.70686 27.6633 4.6907C27.6022 4.66741 27.5973 4.67231 27.6393 4.71476ZM21.3257 12.6363C21.538 12.668 21.7599 12.7043 21.8189 12.7169C23.6471 13.1083 25.2237 13.9183 26.6224 15.1848C27.1372 15.6509 27.4768 16.0444 27.5974 16.3146C27.6855 16.5118 27.6982 16.5951 27.6822 16.869C27.6625 17.2041 27.551 17.5135 27.4499 17.5135C27.4189 17.5135 27.3935 17.541 27.3935 17.5746C27.3935 17.6082 27.3211 17.6587 27.2327 17.6868C27.1443 17.7148 27.0518 17.7628 27.0272 17.7934C27.0027 17.824 26.9008 17.8711 26.8008 17.8981C26.7008 17.9251 26.629 17.9634 26.6413 17.9832C26.7174 18.1066 26.2871 18.1876 26.0331 18.0977C25.7763 18.0069 25.6198 17.8906 25.1377 17.4323C24.4139 16.7442 23.7897 16.2998 23.0581 15.952C22.7772 15.8184 22.5282 15.7081 22.4621 15.6881C21.3812 15.36 21.093 15.2882 20.7683 15.2657C20.6739 15.2592 20.5509 15.2286 20.4948 15.1977C20.4102 15.151 20.3866 15.1513 20.3561 15.1996C20.3342 15.2342 20.319 15.238 20.3187 15.2092C20.3178 15.1432 19.7925 15.1047 19.7505 15.1676C19.7285 15.2005 19.7188 15.1991 19.7183 15.1628C19.718 15.1331 19.6579 15.1104 19.5783 15.1099C19.5016 15.1094 19.3789 15.1084 19.3054 15.1077C19.2319 15.107 19.1236 15.1314 19.0647 15.1621C19.0057 15.1927 18.8409 15.2155 18.6985 15.2127C18.5124 15.209 18.445 15.2222 18.4592 15.2593C18.4701 15.2878 18.448 15.323 18.41 15.3376C18.3699 15.353 18.352 15.3464 18.3672 15.3217C18.415 15.2442 18.2107 15.2777 18.084 15.3681C18.0156 15.417 17.9595 15.4464 17.9595 15.4336C17.9595 15.4144 17.322 15.7287 16.9947 15.9093C16.9475 15.9354 16.8562 15.9813 16.7917 16.0115C16.7273 16.0417 16.6364 16.1019 16.5898 16.1454C16.5432 16.1889 16.4933 16.2245 16.4789 16.2245C16.4236 16.2245 16.0842 16.4821 15.8626 16.6923C15.7353 16.8131 15.6246 16.9119 15.6168 16.9119C15.5759 16.9119 15.0442 17.5088 14.8607 17.7607C14.4536 18.3193 14.1604 18.9201 14.2507 19.0106C14.2658 19.0257 14.3877 18.9776 14.5215 18.9037C14.8491 18.7226 15.5655 18.346 15.8697 18.1948C16.3006 17.9808 16.7039 18.0523 17.1096 18.4146C17.4449 18.714 17.5888 19.045 17.565 19.4623C17.5474 19.7707 17.4444 20.058 17.2847 20.2441C17.2163 20.3238 16.6931 20.693 16.6485 20.693C16.6384 20.693 16.4806 20.7888 16.2978 20.9059C15.8369 21.2011 15.33 21.5216 14.7005 21.916C14.4057 22.1006 14.0873 22.3028 13.993 22.3653C13.7036 22.5569 13.5979 22.5968 13.445 22.5719C13.3374 22.5544 13.2997 22.564 13.2997 22.6089C13.2997 22.6422 13.3206 22.6702 13.3462 22.671C13.3717 22.6718 13.3454 22.6987 13.2876 22.7308C13.2298 22.7629 13.1543 22.7782 13.1197 22.7649C13.0811 22.7501 13.0681 22.759 13.086 22.788C13.1026 22.8149 13.0735 22.8482 13.018 22.8656C12.9646 22.8824 12.8437 22.9486 12.7494 23.0128C12.655 23.077 12.5263 23.1269 12.4632 23.1237C12.4002 23.1206 12.3579 23.1332 12.3693 23.1515C12.3806 23.17 12.3598 23.1851 12.3231 23.1851C12.2863 23.1851 12.261 23.2092 12.267 23.2388C12.2807 23.3078 12.1313 23.2872 11.8483 23.1812C11.5686 23.0763 11.31 22.8055 10.9906 22.2828C10.7397 21.8723 10.6071 21.6584 10.4307 21.3805C10.3783 21.2978 10.2597 21.1044 10.1673 20.9508C9.95114 20.5918 8.94209 18.9757 8.75881 18.6951C8.34736 18.0649 8.19286 17.5503 8.3092 17.1971C8.35551 17.0565 8.45148 17.0138 8.43583 17.1407C8.42138 17.258 8.44668 17.2899 8.56842 17.3078C8.6562 17.3207 8.69706 17.3086 8.69706 17.2697C8.69706 17.2384 8.73184 17.2127 8.77438 17.2127C8.81692 17.2127 8.92785 17.1572 9.02095 17.0892C9.2113 16.9504 9.41413 16.87 9.36233 16.9539C9.34068 16.989 9.36173 17.0006 9.4294 16.9907C9.50706 16.9794 9.53124 16.9445 9.54329 16.826C9.56829 16.58 9.68489 16.2674 9.75157 16.2674C9.87387 16.2674 10.2002 16.4518 10.349 16.6049C10.4328 16.6911 10.7466 17.1281 11.0464 17.5761C11.3463 18.0241 11.6033 18.4075 11.6177 18.4281C11.661 18.4904 12.6665 17.9614 12.7604 17.8267C12.8065 17.7608 12.9911 17.4071 13.1706 17.0408C13.5343 16.2988 13.7966 15.8781 14.2701 15.2771C15.0433 14.2961 16.2529 13.3408 17.1212 13.0256C17.7315 12.8041 18.7372 12.5979 19.4175 12.5547C19.8226 12.5291 20.9222 12.5761 21.3257 12.6363ZM29.1511 22.0718C29.4211 22.1298 29.6889 22.2768 29.8644 22.4631C29.938 22.5412 30.1286 22.8177 30.288 23.0776C30.4475 23.3376 30.65 23.6663 30.738 23.8081C30.9202 24.1016 31.4974 25.035 32.073 25.9671C32.2883 26.3157 32.5295 26.7021 32.6089 26.8257C32.6884 26.9492 32.8211 27.178 32.9037 27.3341C33.036 27.584 33.0539 27.6553 33.0539 27.9331C33.0539 28.2069 33.0397 28.2654 32.9467 28.3762C32.8877 28.4464 32.8395 28.5221 32.8395 28.5445C32.8395 28.5668 32.7955 28.6051 32.7418 28.6296C32.6513 28.6709 32.5082 28.7803 32.3274 28.9463C32.2407 29.0259 31.9229 29.1147 31.8056 29.0921C31.759 29.0831 31.7245 29.1007 31.7245 29.1334C31.7245 29.3361 31.1073 29.1491 30.8216 28.8597C30.7469 28.7841 30.2237 28.013 30.2237 27.9785C30.2237 27.9664 30.0983 27.7622 29.945 27.5247C29.7917 27.2872 29.6662 27.0752 29.6662 27.0536C29.6662 27.0319 29.6477 27.0027 29.6251 26.9887C29.6025 26.9747 29.4496 27.2332 29.2855 27.5632C28.8062 28.5266 28.3011 29.2411 27.6102 29.933C27.2054 30.3384 26.5993 30.7422 25.9735 31.0234C25.7371 31.1297 25.6058 31.2126 25.609 31.2537C25.6117 31.2891 25.5898 31.3265 25.5603 31.3369C25.5308 31.3473 25.5067 31.3253 25.5067 31.2878C25.5067 31.2042 25.4864 31.2058 25.2708 31.3057C25.1765 31.3495 25.131 31.3867 25.1698 31.3885C25.2722 31.3931 25.2963 31.4974 25.2078 31.5528C25.1523 31.5875 25.119 31.5875 25.0844 31.5529C25.0498 31.5183 25.0165 31.523 24.961 31.5706C24.8985 31.624 24.8669 31.6263 24.7846 31.583C24.7147 31.5463 24.7017 31.5234 24.7417 31.5073C24.8358 31.4698 24.6874 31.4808 24.5633 31.5206C24.4576 31.5545 24.4574 31.555 24.5551 31.5592C24.612 31.5617 24.6424 31.5825 24.6265 31.6082C24.6084 31.6377 24.6405 31.6426 24.7205 31.6226C24.8309 31.595 24.8365 31.5989 24.7824 31.6648C24.7297 31.7288 24.7318 31.7339 24.8001 31.7076C24.8559 31.6862 24.8682 31.693 24.8442 31.7318C24.8259 31.7616 24.7733 31.776 24.7274 31.764C24.6768 31.7507 24.6341 31.7676 24.6191 31.8067C24.6046 31.8445 24.5612 31.8626 24.5144 31.8503C24.4704 31.8387 24.4196 31.856 24.4014 31.8886C24.3832 31.9212 24.3258 31.9543 24.2739 31.9622C24.222 31.9702 24.1662 31.9901 24.1499 32.0064C24.1335 32.0228 24.0848 32.0362 24.0416 32.0362C23.9983 32.0362 23.963 32.0555 23.963 32.0791C23.963 32.1028 23.8869 32.1221 23.794 32.1221C23.701 32.1221 23.613 32.1414 23.5985 32.1651C23.5839 32.1887 23.5067 32.208 23.4269 32.208C23.3472 32.208 23.27 32.2274 23.2554 32.251C23.2408 32.2746 23.148 32.2943 23.0492 32.2946C22.9174 32.2951 22.8866 32.3064 22.9338 32.3369C22.9807 32.3673 22.9457 32.379 22.8051 32.3799C22.6822 32.3808 22.6331 32.3945 22.6697 32.4178C22.7118 32.4444 22.6973 32.46 22.6161 32.4756C22.534 32.4913 22.5046 32.4788 22.5037 32.4276C22.5025 32.3677 22.4965 32.3685 22.4587 32.4336C22.4346 32.475 22.3688 32.5088 22.3124 32.5088C22.256 32.5088 22.1975 32.5289 22.1823 32.5535C22.1671 32.5781 22.1181 32.5866 22.0732 32.5723C22.0284 32.5581 21.9142 32.5453 21.8196 32.544C21.7248 32.5427 21.6473 32.5242 21.6473 32.5028C21.6473 32.4814 21.5987 32.4958 21.5391 32.5349C21.425 32.6099 21.1876 32.6338 21.0994 32.5791C21.0706 32.5613 21.047 32.565 21.047 32.5874C21.047 32.6572 20.2099 32.5975 19.5934 32.4837C19.1037 32.3933 18.2192 32.1402 17.8952 31.9976C17.848 31.9768 17.684 31.9071 17.5307 31.8427C15.8599 31.1405 13.9339 29.6116 13.6195 28.738C13.5295 28.4878 13.5227 28.0162 13.607 27.8684L13.6683 27.761L13.6698 27.8756C13.6722 28.0502 13.7129 28.1236 13.7928 28.0974C13.9707 28.0393 14.143 27.9467 14.143 27.9094C14.143 27.8869 14.172 27.8684 14.2074 27.8684C14.2427 27.8684 14.2717 27.8491 14.2717 27.8255C14.2717 27.8018 14.2983 27.7825 14.3308 27.7825C14.3633 27.7825 14.4163 27.745 14.4487 27.6991C14.4811 27.6533 14.5461 27.6098 14.5933 27.6025C14.7026 27.5855 14.7419 27.5308 14.7427 27.3946C14.7436 27.2525 14.856 27.095 14.9567 27.095C15.1663 27.095 15.4596 27.2868 15.8961 27.7096C16.5983 28.3894 17.036 28.7272 17.7022 29.1033C18.9312 29.7971 20.5348 30.13 21.8783 29.9703C22.6781 29.8753 23.2815 29.7064 23.963 29.387C24.4557 29.156 24.755 28.9666 25.4853 28.4234C26.477 27.6856 26.8964 27.2797 27.4204 26.5502C27.7048 26.1543 27.9226 25.7173 27.8642 25.6597C27.8296 25.6256 27.8013 25.6333 27.7611 25.6879C27.7306 25.7292 27.674 25.7631 27.6353 25.7631C27.5967 25.7631 27.565 25.7802 27.565 25.801C27.565 25.8219 27.5312 25.8512 27.49 25.8662C27.4487 25.8811 27.3184 25.9485 27.2005 26.016C27.0826 26.0835 26.962 26.1294 26.9325 26.1181C26.9031 26.1068 26.8789 26.119 26.8789 26.1452C26.8789 26.1713 26.8501 26.1927 26.8149 26.1927C26.7798 26.1927 26.7275 26.2304 26.6988 26.2765C26.6644 26.3317 26.6302 26.3466 26.5985 26.3202C26.5672 26.2943 26.5205 26.308 26.4654 26.3596C26.341 26.4757 26.2127 26.5365 26.092 26.5365C26.0335 26.5365 25.9791 26.5509 25.9712 26.5687C25.9573 26.6001 25.6423 26.7643 25.5852 26.7699C25.5694 26.7715 25.5088 26.8143 25.4505 26.8651C25.3923 26.9158 25.3056 26.9697 25.258 26.9849C25.2104 27 25.148 27.0407 25.1194 27.0752C25.0908 27.1097 25.0208 27.138 24.9639 27.138C24.907 27.138 24.8125 27.1694 24.7539 27.2079C24.4606 27.4006 23.8325 27.0373 23.5658 26.5207C23.4512 26.2987 23.4297 26.2097 23.4294 25.9564C23.4292 25.791 23.4449 25.5976 23.4644 25.5267L23.4998 25.3978L23.5491 25.5477C23.631 25.7965 23.7106 25.7772 24.0702 25.4211C24.1527 25.3394 24.2209 25.2911 24.2217 25.3137C24.2226 25.3364 24.25 25.3065 24.2826 25.2475C24.3152 25.1884 24.3645 25.14 24.3922 25.14C24.4198 25.14 24.4871 25.0069 24.5417 24.8443C24.5963 24.6816 24.6862 24.5041 24.7415 24.4497C24.7968 24.3954 25.1025 24.1915 25.4209 23.9967C26.0314 23.6231 27.8019 22.545 28.2173 22.2939C28.4162 22.1736 28.7354 22.0502 28.903 22.0288C28.9195 22.0267 29.0311 22.0461 29.1511 22.0718ZM39.7947 25.0111C39.7955 25.082 39.8051 25.1058 39.816 25.064C39.8269 25.0222 39.8262 24.9642 39.8144 24.9351C39.8027 24.906 39.7938 24.9402 39.7947 25.0111ZM39.4432 25.9303C39.4432 25.9514 39.4143 25.9798 39.3789 25.9934C39.3136 26.0186 39.2911 25.9728 39.3432 25.9206C39.3842 25.8795 39.4432 25.8853 39.4432 25.9303ZM39.4218 26.8086C39.4218 26.8931 39.4002 26.9518 39.3692 26.9518C39.3213 26.9518 39.3324 26.7958 39.3874 26.6976C39.4172 26.6443 39.4218 26.659 39.4218 26.8086ZM39.3835 27.0771C39.3692 27.1144 39.3561 27.1773 39.3545 27.2167C39.3521 27.2732 39.3443 27.2702 39.3175 27.2024C39.2789 27.1046 39.3032 27.0091 39.3667 27.0091C39.3902 27.0091 39.3978 27.0397 39.3835 27.0771ZM38.5623 28.424C38.5759 28.446 38.5674 28.4761 38.5434 28.491C38.5195 28.5058 38.4999 28.4878 38.4999 28.451C38.4999 28.3755 38.5256 28.3644 38.5623 28.424ZM25.8681 31.1661C25.8468 31.1839 25.8149 31.2177 25.7973 31.2413C25.779 31.2658 25.765 31.252 25.7646 31.2091C25.7643 31.1673 25.7957 31.1339 25.8355 31.1339C25.8747 31.1339 25.8895 31.1484 25.8681 31.1661ZM25.4209 31.3487C25.4209 31.3723 25.4005 31.3917 25.3755 31.3917C25.3506 31.3917 25.342 31.3723 25.3566 31.3487C25.3712 31.3251 25.3916 31.3057 25.402 31.3057C25.4124 31.3057 25.4209 31.3251 25.4209 31.3487ZM19.4952 31.3781C19.5262 31.3905 19.5632 31.3889 19.5774 31.3747C19.5916 31.3604 19.5663 31.3503 19.5211 31.3521C19.4712 31.3542 19.461 31.3644 19.4952 31.3781ZM20.0527 31.5499C20.0836 31.5623 20.1206 31.5608 20.1349 31.5465C20.1491 31.5323 20.1238 31.5221 20.0786 31.524C20.0286 31.526 20.0185 31.5362 20.0527 31.5499ZM20.8675 31.7218C20.8984 31.7342 20.9354 31.7327 20.9496 31.7184C20.9638 31.7041 20.9385 31.694 20.8934 31.6958C20.8434 31.6979 20.8332 31.7081 20.8675 31.7218ZM23.7834 31.7218C23.8143 31.7342 23.8513 31.7327 23.8656 31.7184C23.8798 31.7041 23.8545 31.694 23.8093 31.6958C23.7593 31.6979 23.7492 31.7081 23.7834 31.7218ZM20.0921 32.4338C20.0774 32.4723 20.1344 32.4895 20.2912 32.4938C20.4121 32.4972 20.4673 32.4909 20.4138 32.4798C20.3605 32.4688 20.3278 32.4417 20.3413 32.4198C20.3549 32.3979 20.3375 32.3799 20.3027 32.3799C20.2679 32.3799 20.2297 32.4041 20.2177 32.4336C20.2005 32.4766 20.1955 32.4766 20.1928 32.4336C20.1884 32.364 20.1188 32.3641 20.0921 32.4338ZM20.8868 32.4967C20.952 32.5065 21.0485 32.5063 21.1012 32.4961C21.1539 32.4859 21.1006 32.4778 20.9827 32.4781C20.8647 32.4785 20.8216 32.4868 20.8868 32.4967Z" fill="#005796"/>
<path fill-rule="evenodd" clip-rule="evenodd" d="M19.182 12.526C19.1113 12.5422 19.3139 12.5484 19.6323 12.5399C20.38 12.5197 20.4839 12.4963 19.8252 12.4965C19.5422 12.4965 19.2528 12.5098 19.182 12.526ZM20.8678 12.5587C20.8987 12.5711 20.9358 12.5696 20.95 12.5553C20.9642 12.5411 20.9389 12.5309 20.8937 12.5328C20.8438 12.5348 20.8336 12.545 20.8678 12.5587ZM18.721 12.6008C18.7505 12.6127 18.7988 12.6127 18.8282 12.6008C18.8577 12.5889 18.8336 12.5791 18.7746 12.5791C18.7157 12.5791 18.6916 12.5889 18.721 12.6008ZM21.2538 12.6017C21.2847 12.6141 21.3217 12.6126 21.3359 12.5983C21.3502 12.584 21.3249 12.5739 21.2797 12.5757C21.2297 12.5778 21.2195 12.588 21.2538 12.6017ZM21.4682 12.6447C21.4991 12.6571 21.5361 12.6555 21.5503 12.6413C21.5646 12.627 21.5393 12.6169 21.4941 12.6187C21.4441 12.6208 21.4339 12.6309 21.4682 12.6447ZM18.0671 12.7012C18.0366 12.7507 18.1061 12.7507 18.2601 12.7012C18.3624 12.6684 18.3611 12.6667 18.2304 12.6626C18.1552 12.6602 18.0817 12.6776 18.0671 12.7012ZM21.8836 12.7219C22.0251 12.7532 22.1987 12.793 22.2695 12.8105C22.3403 12.8279 22.3846 12.8275 22.368 12.8095C22.3274 12.7656 21.8677 12.6589 21.7335 12.6624C21.6745 12.6639 21.7421 12.6907 21.8836 12.7219ZM17.7455 12.7891C17.6985 12.821 17.7158 12.825 17.8098 12.8039C17.9675 12.7686 18.0017 12.744 17.892 12.7449C17.8468 12.7452 17.7809 12.7651 17.7455 12.7891ZM17.1451 12.9541C16.9682 13.0192 16.7849 13.0953 16.7378 13.1232C16.6906 13.151 16.6038 13.1931 16.5448 13.2167C16.4355 13.2604 16.4056 13.2778 16.081 13.4858C15.9792 13.551 15.9092 13.583 15.9254 13.5567C15.9467 13.5222 15.93 13.5223 15.8649 13.5573C15.8154 13.5838 15.7531 13.6463 15.7264 13.6963C15.6876 13.7689 15.6704 13.7751 15.6403 13.7275C15.611 13.681 15.6026 13.6856 15.602 13.7484C15.6013 13.8416 15.1715 14.2525 15.1129 14.2162C15.0913 14.2027 15.0855 14.2111 15.1 14.2347C15.1146 14.2583 14.9873 14.4146 14.8172 14.582C14.4901 14.9039 14.3165 15.1055 14.3155 15.1646C14.3152 15.1843 14.4226 15.0756 14.5541 14.9231C14.8561 14.5731 15.3824 14.1003 15.8801 13.7317C16.4934 13.2778 16.8878 13.0709 17.4667 12.8996C17.5995 12.8603 17.6403 12.836 17.574 12.8359C17.515 12.8358 17.322 12.889 17.1451 12.9541ZM22.827 12.9765C23.0628 13.0555 23.2944 13.135 23.3415 13.1533C23.3997 13.1758 23.4135 13.1724 23.3844 13.1426C23.3346 13.0915 22.5576 12.8295 22.4624 12.8316C22.427 12.8324 22.5911 12.8976 22.827 12.9765ZM23.6158 13.2638C23.7195 13.3098 23.812 13.3399 23.8213 13.3305C23.8398 13.312 23.5094 13.172 23.4586 13.1769C23.4414 13.1786 23.5121 13.2177 23.6158 13.2638ZM23.8776 13.3626C23.8776 13.3719 23.9075 13.391 23.9441 13.4051C23.9823 13.4198 23.9995 13.4126 23.9845 13.3882C23.9593 13.3474 23.8776 13.3278 23.8776 13.3626ZM24.0491 13.4486C24.0491 13.4578 24.079 13.477 24.1156 13.4911C24.1538 13.5057 24.171 13.4985 24.156 13.4742C24.1308 13.4333 24.0491 13.4138 24.0491 13.4486ZM24.3921 13.6204C24.3921 13.6297 24.4221 13.6488 24.4587 13.6629C24.4969 13.6776 24.5141 13.6704 24.499 13.646C24.4739 13.6052 24.3921 13.5856 24.3921 13.6204ZM15.4727 13.7565C15.4727 13.7933 15.492 13.8115 15.5156 13.7969C15.5392 13.7823 15.5585 13.7522 15.5585 13.7299C15.5585 13.7076 15.5392 13.6895 15.5156 13.6895C15.492 13.6895 15.4727 13.7196 15.4727 13.7565ZM15.2414 13.8626C15.1968 13.9078 15.1437 13.9345 15.1235 13.922C15.1033 13.9095 15.0868 13.9181 15.0868 13.9412C15.0868 13.9643 15.0188 14.0254 14.9356 14.0769C14.8524 14.1284 14.7607 14.1934 14.7319 14.2214C14.7031 14.2495 14.6119 14.3191 14.5294 14.3763C14.3579 14.495 14.3113 14.5511 14.3424 14.6015C14.3544 14.6209 14.3387 14.6316 14.3074 14.6251C14.2762 14.6186 14.2559 14.6389 14.2624 14.6701C14.2689 14.7015 14.2536 14.7143 14.2284 14.6987C14.2031 14.6831 14.1542 14.6939 14.1196 14.7227C14.0709 14.7631 14.0679 14.7887 14.1065 14.8353C14.1456 14.8826 14.1369 14.9137 14.0659 14.98C13.9577 15.0809 13.9229 15.0873 13.9564 15C13.97 14.9645 14.0118 14.9355 14.0494 14.9355C14.1023 14.9355 14.1062 14.9239 14.0665 14.8842C14.0268 14.8444 13.9965 14.853 13.9318 14.9226C13.886 14.9719 13.8601 15.024 13.8744 15.0384C13.8887 15.0527 13.8741 15.0644 13.8419 15.0644C13.7792 15.0644 13.3715 15.4783 13.3715 15.5419C13.3715 15.5629 13.391 15.58 13.4148 15.58C13.4404 15.58 13.4362 15.615 13.4045 15.6659C13.375 15.7132 13.3339 15.7519 13.3131 15.7519C13.2923 15.7519 13.2997 15.7224 13.3295 15.6864C13.3594 15.6504 13.3712 15.6083 13.3558 15.5928C13.3219 15.5589 13.2033 15.7078 13.2014 15.7866C13.2006 15.8183 13.2216 15.8295 13.2495 15.8122C13.2787 15.7941 13.2875 15.8003 13.2708 15.8273C13.2262 15.8997 13.2842 16.0012 13.3636 15.9896C13.4034 15.9838 13.4118 15.9873 13.3823 15.9975C13.3528 16.0076 13.3287 16.0363 13.3287 16.0611C13.3287 16.0907 13.3086 16.0895 13.27 16.0574C13.2253 16.0202 13.198 16.0248 13.1549 16.0769C13.1135 16.1268 13.1114 16.1532 13.1472 16.1754C13.2011 16.2088 13.2018 16.3964 13.148 16.3964C13.1294 16.3964 13.1143 16.4269 13.1143 16.4641C13.1143 16.5076 13.1565 16.4806 13.2322 16.3889C13.297 16.3103 13.3647 16.2395 13.3825 16.2316C13.4004 16.2236 13.404 16.1993 13.3905 16.1775C13.3771 16.1558 13.3962 16.1077 13.4331 16.0707C13.5093 15.9944 13.5209 15.9237 13.4573 15.9237C13.4337 15.9237 13.4144 15.8924 13.4144 15.854C13.4144 15.7951 13.425 15.7931 13.4828 15.8412C13.5411 15.8897 13.563 15.8826 13.6319 15.7927C13.6763 15.7348 13.7131 15.6718 13.7137 15.6527C13.7142 15.6335 13.7344 15.6301 13.7586 15.6451C13.7827 15.6601 13.7972 15.6542 13.7907 15.6321C13.777 15.5855 14.083 15.2137 14.3471 14.9561C14.4473 14.8583 14.5294 14.7546 14.5294 14.7255C14.5294 14.6964 14.5461 14.683 14.5665 14.6956C14.6176 14.7272 14.7518 14.572 14.7117 14.5277C14.6939 14.5081 14.7014 14.5046 14.7282 14.52C14.7829 14.5513 14.9001 14.4333 14.8571 14.3902C14.8419 14.375 14.8295 14.3852 14.8295 14.4127C14.8295 14.4403 14.8108 14.4629 14.788 14.4629C14.7652 14.4629 14.7579 14.4331 14.7718 14.3966C14.7858 14.3602 14.8286 14.3355 14.867 14.3418C14.9547 14.3563 15.0441 14.3019 15.0433 14.2348C15.0429 14.204 15.026 14.2093 15.0011 14.248C14.9782 14.2835 14.9592 14.2907 14.9588 14.264C14.958 14.2006 15.081 14.099 15.1161 14.1341C15.1579 14.176 15.2583 14.0749 15.2583 13.9909C15.2583 13.9362 15.2878 13.9193 15.3679 13.9281C15.4518 13.9374 15.4669 13.9275 15.4326 13.8861C15.4079 13.8563 15.4004 13.8192 15.4159 13.8037C15.4315 13.7881 15.4168 13.7766 15.3834 13.7779C15.35 13.7794 15.2861 13.8175 15.2414 13.8626ZM13.6074 15.4941C13.5913 15.5449 13.5685 15.5768 13.5567 15.565C13.5449 15.5532 13.5484 15.5019 13.5645 15.4511C13.5806 15.4003 13.6034 15.3683 13.6152 15.3802C13.627 15.392 13.6235 15.4432 13.6074 15.4941ZM14.0522 15.4833C13.9989 15.5515 14.0004 15.553 14.0684 15.4996C14.1096 15.4671 14.1434 15.4333 14.1434 15.4244C14.1434 15.389 14.1082 15.4117 14.0522 15.4833ZM13.028 16.0014C12.8562 16.2548 12.8501 16.2675 12.8977 16.2675C12.9225 16.2675 12.9427 16.2405 12.9427 16.2076C12.9427 16.1747 12.972 16.1365 13.0077 16.1228C13.0661 16.1003 13.1777 15.887 13.1471 15.8564C13.1403 15.8495 13.0867 15.9148 13.028 16.0014ZM13.3072 16.1815C13.3218 16.2052 13.3133 16.2245 13.2883 16.2245C13.2634 16.2245 13.2429 16.2052 13.2429 16.1815C13.2429 16.1579 13.2514 16.1386 13.2618 16.1386C13.2722 16.1386 13.2926 16.1579 13.3072 16.1815ZM9.185 16.2395C9.00812 16.2889 8.7832 16.4305 8.7832 16.4925C8.7832 16.5105 8.83145 16.5253 8.89041 16.5253C8.94937 16.5253 8.99761 16.5086 8.99761 16.4882C8.99761 16.4465 9.39148 16.3139 9.58123 16.2917C9.75327 16.2716 9.75962 16.2664 9.66228 16.2245C9.54744 16.175 9.39881 16.1797 9.185 16.2395ZM13.0071 16.2675C12.9925 16.2911 13.001 16.3104 13.026 16.3104C13.0509 16.3104 13.0714 16.2911 13.0714 16.2675C13.0714 16.2438 13.0629 16.2245 13.0525 16.2245C13.042 16.2245 13.0216 16.2438 13.0071 16.2675ZM13.3696 16.529C13.3432 16.5782 13.3298 16.6267 13.3397 16.6365C13.3495 16.6464 13.3797 16.6061 13.4065 16.5469C13.4656 16.417 13.4369 16.403 13.3696 16.529ZM13.1768 16.8719C13.1613 16.8971 13.1577 16.9269 13.169 16.9382C13.1802 16.9494 13.2008 16.9288 13.2148 16.8923C13.2438 16.8166 13.2191 16.8033 13.1768 16.8719ZM12.8109 17.6494C12.7817 17.7047 12.7297 17.7933 12.6953 17.8465C12.6609 17.8997 12.6443 17.9432 12.6585 17.9432C12.701 17.9432 12.9143 17.5996 12.8881 17.5734C12.8748 17.56 12.8401 17.5943 12.8109 17.6494ZM15.4516 18.3724C15.4366 18.3967 15.4538 18.4039 15.492 18.3892C15.5662 18.3607 15.5798 18.3299 15.5182 18.3299C15.4959 18.3299 15.466 18.349 15.4516 18.3724ZM11.6134 18.4158C11.6134 18.4394 11.6339 18.4588 11.6588 18.4588C11.6838 18.4588 11.6923 18.4394 11.6777 18.4158C11.6631 18.3922 11.6427 18.3728 11.6323 18.3728C11.6219 18.3728 11.6134 18.3922 11.6134 18.4158ZM28.6696 22.0534C28.6991 22.0654 28.7473 22.0654 28.7768 22.0534C28.8063 22.0415 28.7822 22.0318 28.7232 22.0318C28.6642 22.0318 28.6401 22.0415 28.6696 22.0534ZM29.0984 22.0534C29.1279 22.0654 29.1762 22.0654 29.2056 22.0534C29.2351 22.0415 29.211 22.0318 29.152 22.0318C29.0931 22.0318 29.069 22.0415 29.0984 22.0534ZM29.4093 22.1293C29.4093 22.1393 29.472 22.1778 29.5487 22.2147L29.688 22.2819L29.5868 22.1964C29.4932 22.1174 29.4093 22.0856 29.4093 22.1293ZM29.762 22.3506C29.8028 22.3932 29.8453 22.4188 29.8566 22.4075C29.8679 22.3962 29.8346 22.3614 29.7826 22.3301C29.6922 22.2757 29.6913 22.2766 29.762 22.3506ZM27.8015 22.4971C27.7865 22.5215 27.8037 22.5287 27.8419 22.514C27.9162 22.4855 27.9298 22.4547 27.8681 22.4547C27.8459 22.4547 27.8159 22.4738 27.8015 22.4971ZM29.9995 22.605C30.0715 22.6996 30.1672 22.8446 30.212 22.9273C30.3582 23.1967 30.4916 23.404 30.5082 23.3873C30.5368 23.3587 30.0961 22.6521 29.9801 22.5406C29.8834 22.4476 29.8861 22.4562 29.9995 22.605ZM30.6719 23.6872C30.7083 23.7625 30.7594 23.8374 30.7855 23.8535C30.843 23.8891 30.781 23.7667 30.6754 23.6362C30.6108 23.5565 30.6106 23.5601 30.6719 23.6872ZM30.9745 24.1733C31.0111 24.2442 31.0506 24.3022 31.0624 24.3022C31.0742 24.3022 31.0539 24.2442 31.0174 24.1733C30.9808 24.1024 30.9412 24.0444 30.9294 24.0444C30.9176 24.0444 30.9379 24.1024 30.9745 24.1733ZM24.0769 24.7541C24.0388 24.782 24.0201 24.8174 24.0355 24.8328C24.0868 24.8842 24.1349 24.8616 24.1355 24.7856C24.136 24.728 24.1447 24.7238 24.1724 24.7677C24.2023 24.8149 24.2128 24.8142 24.232 24.7642C24.2603 24.6901 24.1719 24.6844 24.0769 24.7541ZM14.4865 27.0674C14.3061 27.1265 14.0577 27.2723 14.0577 27.3192C14.0577 27.3725 14.1158 27.3588 14.2303 27.2784C14.2887 27.2375 14.3414 27.2089 14.3475 27.2148C14.3537 27.2208 14.4189 27.1945 14.4924 27.1564C14.566 27.1183 14.6724 27.096 14.7288 27.1068C14.7854 27.1176 14.8399 27.113 14.8501 27.0965C14.8603 27.0799 14.8453 27.0655 14.8169 27.0644C14.7885 27.0632 14.7363 27.0524 14.7009 27.0403C14.6655 27.0282 14.569 27.0404 14.4865 27.0674ZM29.5193 27.1254C29.496 27.1866 29.5009 27.1916 29.5433 27.1495C29.5726 27.1203 29.5858 27.0856 29.5726 27.0724C29.5593 27.0592 29.5354 27.0831 29.5193 27.1254ZM18.646 29.5181C18.646 29.5273 18.6759 29.5465 18.7125 29.5606C18.7507 29.5752 18.7679 29.568 18.7529 29.5437C18.7277 29.5028 18.646 29.4833 18.646 29.5181ZM22.366 29.8733C22.3955 29.8853 22.4437 29.8853 22.4732 29.8733C22.5027 29.8614 22.4785 29.8517 22.4196 29.8517C22.3606 29.8517 22.3365 29.8614 22.366 29.8733ZM37.8141 31.5636C37.7889 31.6108 37.7779 31.6495 37.7897 31.6495C37.8015 31.6495 37.8317 31.6108 37.857 31.5636C37.8823 31.5163 37.8932 31.4776 37.8814 31.4776C37.8696 31.4776 37.8394 31.5163 37.8141 31.5636ZM37.6426 31.8643C37.6173 31.9116 37.6064 31.9503 37.6181 31.9503C37.6299 31.9503 37.6602 31.9116 37.6855 31.8643C37.7107 31.8171 37.7217 31.7784 37.7099 31.7784C37.6981 31.7784 37.6678 31.8171 37.6426 31.8643ZM37.0628 32.8203C36.997 32.9208 36.9111 33.0513 36.872 33.1104C36.7563 33.2852 36.7357 33.3252 36.7613 33.3252C36.7746 33.3252 36.8685 33.1947 36.97 33.0352C37.2122 32.6545 37.222 32.6377 37.2007 32.6377C37.1907 32.6377 37.1287 32.7199 37.0628 32.8203ZM36.569 33.542C36.4934 33.6376 36.4387 33.7225 36.4474 33.7306C36.4562 33.7388 36.5267 33.6606 36.6041 33.5568C36.7809 33.3198 36.7537 33.3084 36.569 33.542ZM36.2487 33.97C36.2059 34.0174 36.1788 34.0638 36.1884 34.0732C36.1981 34.0825 36.2407 34.0437 36.2831 33.987C36.3767 33.8616 36.3559 33.8513 36.2487 33.97ZM36.0505 34.2168C35.9972 34.2849 35.9987 34.2864 36.0667 34.233C36.1381 34.1768 36.1608 34.1416 36.1255 34.1416C36.1166 34.1416 36.0829 34.1754 36.0505 34.2168ZM35.6717 34.6894C35.6169 34.7544 35.541 34.8462 35.5031 34.8935L35.4342 34.9794L35.5353 34.8935C35.6341 34.8095 35.8209 34.5712 35.7879 34.5712C35.7787 34.5712 35.7265 34.6244 35.6717 34.6894ZM28.6374 39.9421C28.6021 39.965 28.5924 39.9837 28.616 39.9837C28.6396 39.9837 28.6878 39.965 28.7232 39.9421C28.7586 39.9191 28.7682 39.9004 28.7446 39.9004C28.7211 39.9004 28.6728 39.9191 28.6374 39.9421ZM28.3801 40.028C28.3018 40.0787 28.3695 40.0787 28.4873 40.028C28.5439 40.0036 28.5512 39.9903 28.5088 39.9887C28.4734 39.9874 28.4155 40.0051 28.3801 40.028ZM26.8364 40.5436C26.758 40.5943 26.8257 40.5943 26.9436 40.5436C27.0002 40.5192 27.0075 40.5059 26.965 40.5043C26.9297 40.503 26.8718 40.5207 26.8364 40.5436ZM17.7375 40.5729C17.7684 40.5853 17.8054 40.5838 17.8196 40.5695C17.8339 40.5553 17.8086 40.5451 17.7634 40.547C17.7134 40.549 17.7032 40.5592 17.7375 40.5729ZM26.6113 40.615C26.6408 40.6269 26.689 40.6269 26.7185 40.615C26.748 40.6031 26.7238 40.5933 26.6649 40.5933C26.6059 40.5933 26.5818 40.6031 26.6113 40.615ZM18.2815 40.7155C18.3287 40.7358 18.3962 40.7524 18.4316 40.7524C18.4721 40.7524 18.4642 40.7387 18.4101 40.7155C18.363 40.6951 18.2954 40.6785 18.2601 40.6785C18.2195 40.6785 18.2274 40.6922 18.2815 40.7155ZM26.2047 40.7023C26.2464 40.7132 26.3043 40.7124 26.3334 40.7007C26.3624 40.6889 26.3283 40.68 26.2575 40.6809C26.1867 40.6817 26.163 40.6913 26.2047 40.7023ZM18.5718 40.7882C18.6135 40.7991 18.6714 40.7984 18.7004 40.7866C18.7294 40.7748 18.6953 40.7659 18.6246 40.7668C18.5538 40.7677 18.53 40.7773 18.5718 40.7882ZM19.1097 40.8737C19.1406 40.8861 19.1776 40.8846 19.1918 40.8703C19.2061 40.856 19.1808 40.8459 19.1356 40.8477C19.0856 40.8498 19.0755 40.86 19.1097 40.8737ZM25.3471 40.8741C25.3888 40.885 25.4467 40.8843 25.4757 40.8725C25.5048 40.8608 25.4706 40.8519 25.3999 40.8527C25.3291 40.8536 25.3054 40.8632 25.3471 40.8741ZM19.6867 40.9601C19.7284 40.971 19.7863 40.9702 19.8153 40.9585C19.8444 40.9467 19.8102 40.9378 19.7395 40.9387C19.6687 40.9395 19.645 40.9491 19.6867 40.9601ZM24.9389 40.9587C24.9684 40.9707 25.0166 40.9707 25.0461 40.9587C25.0756 40.9468 25.0515 40.9371 24.9925 40.9371C24.9335 40.9371 24.9094 40.9468 24.9389 40.9587ZM19.9217 41.0017C19.9512 41.0136 19.9995 41.0136 20.0289 41.0017C20.0584 40.9898 20.0343 40.98 19.9753 40.98C19.9164 40.98 19.8923 40.9898 19.9217 41.0017ZM20.2013 41.046C20.243 41.0569 20.3009 41.0562 20.3299 41.0444C20.3589 41.0326 20.3248 41.0237 20.2541 41.0246C20.1833 41.0255 20.1595 41.0351 20.2013 41.046ZM24.0803 41.0472C24.1564 41.0567 24.2915 41.0569 24.3805 41.0476C24.4694 41.0383 24.4072 41.0305 24.2421 41.0303C24.077 41.0301 24.0041 41.0377 24.0803 41.0472ZM20.5864 41.0888C20.6276 41.0996 20.6952 41.0996 20.7365 41.0888C20.7777 41.078 20.744 41.0692 20.6614 41.0692C20.5789 41.0692 20.5451 41.078 20.5864 41.0888ZM23.7409 41.0885C23.7718 41.1009 23.8088 41.0994 23.8231 41.0851C23.8373 41.0709 23.812 41.0607 23.7668 41.0626C23.7168 41.0646 23.7067 41.0748 23.7409 41.0885ZM21.4017 41.133C21.4669 41.1428 21.5634 41.1426 21.6162 41.1324C21.6689 41.1222 21.6156 41.1141 21.4976 41.1144C21.3797 41.1148 21.3366 41.1231 21.4017 41.133ZM23.1807 41.1306C23.2102 41.1425 23.2585 41.1425 23.2879 41.1306C23.3174 41.1187 23.2933 41.1089 23.2343 41.1089C23.1754 41.1089 23.1513 41.1187 23.1807 41.1306Z" fill="#004C75"/>
</svg>
