<svg width="44" height="46" viewBox="0 0 44 46" fill="none" xmlns="http://www.w3.org/2000/svg">
<path fill-rule="evenodd" clip-rule="evenodd" d="M5.51642 5.81721C4.31595 6.26545 3.60922 6.76276 3.25916 7.40591C3.07716 7.74021 3.05758 9.24894 3.02827 25.2104C3.00064 40.2874 3.01962 42.6497 3.16846 42.6497C3.26325 42.6497 3.60201 42.5376 3.92132 42.4005C4.38635 42.2009 5.27952 41.367 8.40618 38.2133L12.3104 34.2753L24.7008 34.4631L37.0911 34.6509L38.0724 34.1842C39.1531 33.6702 39.6792 33.1659 39.8733 32.4572C39.9573 32.1511 39.9996 28.0507 39.9999 20.1803C40.0008 7.12616 40.0229 7.52339 39.2531 6.77092C39.0366 6.55921 38.6988 6.32462 38.5024 6.24963C38.2581 6.15625 33.3626 6.03938 23.0055 5.87966C5.4214 5.60842 6.06963 5.61073 5.51642 5.81721ZM18.0665 11.1163C20.3813 11.7162 21.7745 13.1606 22.1289 15.3279C22.4658 17.3888 21.5354 19.1588 19.3703 20.5751C18.3433 21.2469 17.864 21.8146 17.7178 22.5321L17.6372 22.9278L16.7758 22.9264C16.302 22.9257 15.7117 22.8911 15.4639 22.8496C15.0531 22.7808 15.0134 22.7399 15.0134 22.3862C15.0134 21.2037 15.7469 20.0567 17.1194 19.093C18.9496 17.8079 19.5241 16.9575 19.5092 15.5552C19.4934 14.0709 18.7028 13.2494 17.29 13.2494C16.6115 13.2494 16.3719 13.3164 15.5481 13.7364C14.8472 14.0937 14.5156 14.3449 14.3024 14.6799L14.0121 15.1364H12.6969H11.3818L11.4662 14.4521C11.5764 13.5571 11.7971 12.9431 12.2458 12.2822C12.9731 11.211 13.7716 10.9029 15.8651 10.8859C16.7678 10.8786 17.4072 10.9455 18.0665 11.1163ZM30.1499 17.0234V23.0495H28.8285H27.507V17.0234V10.9972H28.8285H30.1499V17.0234ZM16.7853 25.8482L17.6563 25.8495V27.5539V29.2583H16.3348H15.0134V27.4771V25.6959L15.4639 25.7714C15.7117 25.8129 16.3062 25.8475 16.7853 25.8482ZM30.1499 27.7365V29.5017H28.8285H27.507V27.7365V25.9713H28.8285H30.1499V27.7365Z" fill="#036AB9"/>
<path fill-rule="evenodd" clip-rule="evenodd" d="M5.51642 5.81721C4.31595 6.26545 3.60922 6.76276 3.25916 7.40591C3.07716 7.74021 3.05758 9.24894 3.02827 25.2104C3.00064 40.2874 3.01962 42.6497 3.16846 42.6497C3.26325 42.6497 3.60201 42.5376 3.92132 42.4005C4.38635 42.2009 5.27952 41.367 8.40618 38.2133L12.3104 34.2753L24.7008 34.4631L37.0911 34.6509L38.0724 34.1842C39.1531 33.6702 39.6792 33.1659 39.8733 32.4572C39.9573 32.1511 39.9996 28.0507 39.9999 20.1803C40.0008 7.12616 40.0229 7.52339 39.2531 6.77092C39.0366 6.55921 38.6988 6.32462 38.5024 6.24963C38.2581 6.15625 33.3626 6.03938 23.0055 5.87966C5.4214 5.60842 6.06963 5.61073 5.51642 5.81721ZM21.9731 6.48763C35.0651 6.68899 37.0853 6.69653 37.374 6.54521C37.5567 6.44952 37.8224 6.37112 37.9643 6.37112C38.3992 6.37112 39.0406 6.75034 39.2283 7.11836C39.4038 7.46228 39.4001 7.47068 38.9828 7.67228L38.5591 7.87705V20.4135V32.9499L38.2628 33.4622C38.0789 33.7803 37.7943 34.0577 37.512 34.1941C37.0771 34.4041 36.5752 34.4073 25.9453 34.2665C19.8336 34.1856 14.0828 34.115 13.1656 34.1097L11.4981 34.1002L7.42939 38.2221L3.36067 42.344V25.1441C3.36067 8.40175 3.3668 7.93183 3.59216 7.48419C3.86018 6.95182 4.00614 6.81377 4.63959 6.49323C5.21021 6.2047 3.61307 6.20519 21.9731 6.48763ZM14.0523 10.8145C11.6767 11.361 10.1979 12.9546 10.1604 15.0087L10.1481 15.6842H12.1782H14.2084L14.372 15.2053C14.5846 14.5827 14.7964 14.3572 15.4694 14.0366C15.9181 13.8228 16.188 13.7816 16.8991 13.818C17.663 13.857 17.8178 13.9056 18.1046 14.1962C18.3803 14.4757 18.4109 14.5665 18.2933 14.7573C18.2162 14.8825 18.154 15.3888 18.1552 15.8823C18.1584 17.3703 17.744 18.0886 16.284 19.1252C14.3776 20.4789 13.739 21.3906 13.6631 22.8669L13.6319 23.4756L15.7554 23.5152L17.8791 23.5547L17.9621 22.9673C18.0996 21.9946 18.4396 21.5276 19.551 20.786C20.8166 19.9412 21.5288 19.19 22.0173 18.1845C22.3821 17.4334 22.4014 17.3231 22.4014 15.9886C22.4014 14.6473 22.3835 14.5467 22.0081 13.7738C21.3654 12.4508 20.1188 11.4449 18.4972 10.9408C17.5646 10.6508 15.0715 10.58 14.0523 10.8145ZM26.1456 10.835C26.1015 10.8795 26.0654 13.7806 26.0654 17.2816V23.6471L28.1377 23.6831C29.2775 23.7029 30.2504 23.7022 30.3001 23.6815C30.3497 23.6608 30.3902 20.7788 30.3902 17.277V10.9102L29.6517 10.8319C28.682 10.7293 26.2478 10.7314 26.1456 10.835ZM18.0665 11.1163C20.3813 11.7162 21.7745 13.1606 22.1289 15.3279C22.4658 17.3888 21.5354 19.1588 19.3703 20.5751C18.3433 21.2469 17.864 21.8146 17.7178 22.5321L17.6372 22.9278L16.7758 22.9264C16.302 22.9257 15.7117 22.8911 15.4639 22.8496C15.0531 22.7808 15.0134 22.7399 15.0134 22.3862C15.0134 21.2037 15.7469 20.0567 17.1194 19.093C18.9496 17.8079 19.5241 16.9575 19.5092 15.5552C19.4934 14.0709 18.7028 13.2494 17.29 13.2494C16.6115 13.2494 16.3719 13.3164 15.5481 13.7364C14.8472 14.0937 14.5156 14.3449 14.3024 14.6799L14.0121 15.1364H12.6969H11.3818L11.4662 14.4521C11.5764 13.5571 11.7971 12.9431 12.2458 12.2822C12.9731 11.211 13.7716 10.9029 15.8651 10.8859C16.7678 10.8786 17.4072 10.9455 18.0665 11.1163ZM30.1499 17.0234V23.0495H28.8285H27.507V17.0234V10.9972H28.8285H30.1499V17.0234ZM13.5718 27.7365V29.867H15.1768C16.0596 29.867 17.0327 29.9018 17.3391 29.9444L17.8965 30.0218V27.8139V25.6061H15.7342H13.5718V27.7365ZM16.7853 25.8482L17.6563 25.8495V27.5539V29.2583H16.3348H15.0134V27.4771V25.6959L15.4639 25.7714C15.7117 25.8129 16.3062 25.8475 16.7853 25.8482ZM26.1197 25.8818C26.0865 25.9696 26.0742 26.9434 26.0923 28.0455L26.1255 30.0496L28.2606 30.0828L30.3957 30.116L30.3629 27.9524L30.3301 25.7887L28.2552 25.7553C26.6301 25.7293 26.1671 25.7567 26.1197 25.8818ZM30.1499 27.7365V29.5017H28.8285H27.507V27.7365V25.9713H28.8285H30.1499V27.7365Z" fill="#055A9E"/>
<path fill-rule="evenodd" clip-rule="evenodd" d="M5.51642 5.81721C4.31595 6.26545 3.60922 6.76276 3.25916 7.40591C3.07716 7.74021 3.05758 9.24894 3.02827 25.2104C3.00064 40.2874 3.01962 42.6497 3.16846 42.6497C3.26325 42.6497 3.60201 42.5376 3.92132 42.4005C4.38635 42.2009 5.27952 41.367 8.40618 38.2133L12.3104 34.2753L24.7008 34.4631L37.3459 34.6708L38.0724 34.1842C39.1427 33.4981 39.6792 33.1659 39.8733 32.4572C39.9573 32.1511 39.9996 28.0507 39.9999 20.1803C40.0008 7.12616 40.0229 7.52339 39.2531 6.77092C39.0366 6.55921 38.6988 6.32462 38.5024 6.24963C38.2581 6.15625 33.3626 6.03938 23.0055 5.87966C5.4214 5.60842 6.06963 5.61073 5.51642 5.81721ZM23.0021 6.0647C39.9481 6.31378 38.3592 6.26338 38.7606 6.56493C39.1807 6.88048 39.6402 7.55018 39.6402 7.84686C39.6402 7.97505 39.4748 8.1551 39.2498 8.27197C39.0351 8.38349 38.8196 8.53554 38.7711 8.60992C38.7226 8.68419 38.6821 14.157 38.681 20.7718C38.6793 32.331 38.6703 32.816 38.4517 33.2501C38.173 33.8034 37.8979 34.0642 37.3459 34.2979C36.9726 34.456 35.4214 34.4545 24.2732 34.2858L11.624 34.0944L7.49234 38.2801L3.36067 42.4657V25.1369C3.36067 9.40062 3.37857 7.76967 3.55564 7.39143C3.79783 6.8744 4.18549 6.5894 5.17333 6.20263C5.8946 5.92032 6.09209 5.9006 8.28604 5.89208C9.57445 5.88696 16.1967 5.96475 23.0021 6.0647ZM14.3231 10.8056C13.2896 11.0054 12.1098 11.5395 11.4963 12.0854C10.8618 12.65 10.3165 13.8402 10.2379 14.8322C10.1745 15.632 10.1758 15.6363 10.4615 15.5646C10.8272 15.4728 13.6946 15.4207 13.9263 15.5016C14.0425 15.5422 14.2025 15.362 14.4068 14.9605C14.6491 14.4842 14.8385 14.2956 15.3135 14.0571C16.8288 13.2966 18.6232 13.7403 18.6135 14.8733C18.6114 15.1185 18.5303 15.4254 18.4333 15.5553C18.3363 15.6853 18.2564 16.014 18.2557 16.2858C18.2532 17.3532 17.5658 18.2954 15.9603 19.4324C15.523 19.7421 14.925 20.2662 14.6315 20.5971C14.0725 21.2269 13.8803 21.7009 13.7405 22.7933L13.6564 23.45L14.0045 23.3675C14.7052 23.2013 17.1383 23.1329 17.2261 23.277C17.2722 23.3528 17.4078 23.4147 17.5274 23.4147C17.6904 23.4147 17.7951 23.2327 17.9463 22.6871C18.2037 21.7571 18.5075 21.4009 19.7685 20.5507C21.3807 19.4635 22.2791 18.1166 22.418 16.5788C22.6601 13.8966 21.015 11.6562 18.2782 10.941C17.2156 10.6633 15.3834 10.6006 14.3231 10.8056ZM18.0665 11.1163C20.3813 11.7162 21.7745 13.1606 22.1289 15.3279C22.4658 17.3888 21.5354 19.1588 19.3703 20.5751C18.3433 21.2469 17.864 21.8146 17.7178 22.5321L17.6372 22.9278L16.7758 22.9264C16.302 22.9257 15.7117 22.8911 15.4639 22.8496C15.0531 22.7808 15.0134 22.7399 15.0134 22.3862C15.0134 21.2037 15.7469 20.0567 17.1194 19.093C18.9496 17.8079 19.5241 16.9575 19.5092 15.5552C19.4934 14.0709 18.7028 13.2494 17.29 13.2494C16.6115 13.2494 16.3719 13.3164 15.5481 13.7364C14.8472 14.0937 14.5156 14.3449 14.3024 14.6799L14.0121 15.1364H12.6969H11.3818L11.4662 14.4521C11.5764 13.5571 11.7971 12.9431 12.2458 12.2822C12.9731 11.211 13.7716 10.9029 15.8651 10.8859C16.7678 10.8786 17.4072 10.9455 18.0665 11.1163ZM26.1856 17.2615V23.6474L26.6898 23.4672C27.1362 23.3075 27.3553 23.3082 28.6022 23.4726C29.3769 23.5747 30.096 23.6582 30.2003 23.6582C30.3709 23.6582 30.3902 23.0107 30.3902 17.2669V10.8755H28.2879H26.1856V17.2615ZM30.1499 17.0234V23.0495H28.8285H27.507V17.0234V10.9972H28.8285H30.1499V17.0234ZM13.6919 27.7419V29.8834L13.9622 29.7838C14.3129 29.6548 15.6526 29.6568 16.9083 29.7886L17.9023 29.8928L17.8694 27.7798L17.8365 25.6669L15.7642 25.6336L13.6919 25.6003V27.7419ZM16.7853 25.8482L17.6563 25.8495V27.5539V29.2583H16.3348H15.0134V27.4771V25.6959L15.4639 25.7714C15.7117 25.8129 16.3062 25.8475 16.7853 25.8482ZM26.8163 25.8185L26.1856 25.8623V27.8951V29.9281L27.537 29.928C28.2804 29.9278 29.2129 29.9552 29.6093 29.9887L30.3301 30.0496L30.363 27.9496L30.3958 25.8495H29.0813C28.3584 25.8495 27.6949 25.8327 27.607 25.8122C27.5189 25.7915 27.1631 25.7944 26.8163 25.8185ZM30.1499 27.7365V29.5017H28.8285H27.507V27.7365V25.9713H28.8285H30.1499V27.7365Z" fill="#04477C"/>
<path fill-rule="evenodd" clip-rule="evenodd" d="M5.51642 5.81721C4.31595 6.26545 3.60922 6.76276 3.25916 7.40591C3.07716 7.74021 3.05758 9.24894 3.02827 25.2104C3.00064 40.2874 3.01962 42.6497 3.16846 42.6497C3.26325 42.6497 3.60201 42.5376 3.92132 42.4005C4.38635 42.2009 5.27952 41.367 8.40618 38.2133L12.3104 34.2753L24.7008 34.4631L37.3553 34.6652L37.7922 34.5137L38.1843 34.2912C38.6336 34.1177 39.6792 33.1659 39.8733 32.4572C39.9573 32.1511 39.9996 28.0507 39.9999 20.1803C40.0008 7.12616 40.0229 7.52339 39.2531 6.77092C39.0366 6.55921 38.6988 6.32462 38.5024 6.24963C38.2581 6.15625 33.3626 6.03938 23.0055 5.87966C5.4214 5.60842 6.06963 5.61073 5.51642 5.81721ZM25.5248 6.07554C38.1304 6.25742 38.139 6.25778 38.6792 6.52744C39.0797 6.72733 39.2899 6.93831 39.4907 7.34164L39.7616 7.88594L39.7309 19.9966L39.7003 32.1075L39.2398 32.4244C38.9866 32.5986 38.6352 33.0096 38.459 33.3374C38.2216 33.7792 37.9939 34.0088 37.5798 34.2237L37.0209 34.5137L24.3097 34.3169L11.5987 34.1201L7.50904 38.2631C5.25982 40.5419 3.37917 42.4062 3.33004 42.4062C3.28078 42.4062 3.24054 34.6522 3.24054 25.1751C3.24054 8.50693 3.24799 7.92927 3.46807 7.49235C3.76972 6.89339 4.01166 6.68704 4.86639 6.29966C6.02974 5.77253 6.04308 5.77119 9.54742 5.83352C11.3974 5.86651 18.5873 5.97535 25.5248 6.07554ZM13.8451 10.9411C12.348 11.3497 11.1646 12.2426 10.7049 13.3103C10.3939 14.033 10.3712 14.2568 10.554 14.8016L10.7073 15.2582L11.8092 15.2592C12.4152 15.2597 13.1912 15.2944 13.5336 15.3361C14.155 15.4117 14.1564 15.4112 14.33 14.9902C14.6983 14.0969 15.9818 13.5055 17.3985 13.5764C18.2182 13.6175 18.307 13.6491 18.6298 14.0152C18.9101 14.3332 18.9776 14.5219 18.977 14.9862C18.9761 15.7159 18.7829 16.4318 18.5637 16.5171C18.4706 16.5532 18.2809 16.8433 18.142 17.1617C17.7555 18.047 17.3909 18.4575 16.308 19.2259C14.3608 20.6079 13.7164 21.5962 14.0428 22.7002C14.1488 23.0585 14.2372 23.1721 14.3703 23.1204C14.4705 23.0814 15.2757 23.0495 16.1598 23.0495H17.7671L17.8904 22.593C18.1063 21.7936 18.4641 21.3683 19.4847 20.698C20.6865 19.9086 21.5275 19.0199 21.9576 18.0847C22.5649 16.7641 22.4082 14.5407 21.616 13.2419C20.987 12.2106 19.5892 11.2909 18.1156 10.9388C17.1446 10.7069 14.6985 10.7081 13.8451 10.9411ZM18.0665 11.1163C20.3813 11.7162 21.7745 13.1606 22.1289 15.3279C22.4658 17.3888 21.5354 19.1588 19.3703 20.5751C18.3433 21.2469 17.864 21.8146 17.7178 22.5321L17.6372 22.9278L16.7758 22.9264C16.302 22.9257 15.7117 22.8911 15.4639 22.8496C15.0531 22.7808 15.0134 22.7399 15.0134 22.3862C15.0134 21.2037 15.7469 20.0567 17.1194 19.093C18.9496 17.8079 19.5241 16.9575 19.5092 15.5552C19.4934 14.0709 18.7028 13.2494 17.29 13.2494C16.6115 13.2494 16.3719 13.3164 15.5481 13.7364C14.8472 14.0937 14.5156 14.3449 14.3024 14.6799L14.0121 15.1364H12.6969H11.3818L11.4662 14.4521C11.5764 13.5571 11.7971 12.9431 12.2458 12.2822C12.9731 11.211 13.7716 10.9029 15.8651 10.8859C16.7678 10.8786 17.4072 10.9455 18.0665 11.1163ZM26.3069 11.0277C26.3075 11.1114 26.4499 11.9742 26.6233 12.9451C26.9133 14.5691 26.943 15.0479 26.9942 18.9308L27.0497 23.1514L28.0892 23.2262C28.661 23.2672 29.3242 23.3539 29.5632 23.4186C29.8021 23.4835 30.0588 23.5365 30.1338 23.5365C30.2336 23.5365 30.27 21.8438 30.27 17.206V10.8755H28.2879C26.7817 10.8755 26.3059 10.912 26.3069 11.0277ZM30.1499 17.0234V23.0495H28.8285H27.507V17.0234V10.9972H28.8285H30.1499V17.0234ZM13.861 25.7742C13.826 25.8666 13.8771 26.3733 13.9744 26.9003C14.0718 27.4272 14.1887 28.2201 14.2341 28.6625L14.3169 29.4666L15.5961 29.5413C16.2997 29.5823 17.0782 29.6522 17.3259 29.6965L17.7764 29.7771V27.7677V25.7582L17.401 25.6821C17.1945 25.6403 16.3279 25.6061 15.4752 25.6061C14.2674 25.6061 13.9106 25.6432 13.861 25.7742ZM16.7853 25.8482L17.6563 25.8495V27.5539V29.2583H16.3348H15.0134V27.4771V25.6959L15.4639 25.7714C15.7117 25.8129 16.3062 25.8475 16.7853 25.8482ZM26.3425 26.2452C26.3777 26.4629 26.5045 27.3332 26.6244 28.1793L26.8424 29.7177L28.2859 29.7806C29.0799 29.8152 29.851 29.8825 29.9997 29.9303L30.27 30.0171V27.9334V25.8495H28.2743H26.2784L26.3425 26.2452ZM30.1499 27.7365V29.5017H28.8285H27.507V27.7365V25.9713H28.8285H30.1499V27.7365Z" fill="#00345D"/>
</svg>
