<svg width="44" height="44" viewBox="0 0 44 44" fill="none" xmlns="http://www.w3.org/2000/svg">
<path fill-rule="evenodd" clip-rule="evenodd" d="M18.7469 3.07319C17.7209 3.22597 16.047 3.84145 14.8032 4.5232C13.3921 5.29656 11.857 6.81683 11.1688 8.1228C9.56128 11.1726 9.85816 14.6985 11.9647 17.579C13.0882 19.1151 15.3221 20.5186 17.3295 20.9499C18.5781 21.2179 20.3334 21.1978 21.5448 20.9013C22.7971 20.5948 25.0459 19.5111 26.0079 18.7506C29.1203 16.2903 30.1789 11.9592 28.5529 8.33966C27.4677 5.92418 25.0135 3.8855 22.4226 3.24708C21.4528 3.00814 19.7304 2.92659 18.7469 3.07319ZM7.60346 22.7596C6.5733 23.0898 5.05002 23.9617 4.56585 24.4984C3.65646 25.5063 3.5 25.9757 3.5 27.695C3.5 29.4171 3.70658 30.3763 4.37544 31.7602C6.1191 35.3677 10.385 37.7947 16.1857 38.4792C16.9426 38.5686 17.1246 38.5498 17.5796 38.3348L18.103 38.0877L18.1393 33.225L18.1756 28.3624L18.5033 27.6804C18.9054 26.8438 19.6518 26.0165 20.2101 25.7885C20.553 25.6483 21.8692 25.6197 27.5683 25.6279C33.8733 25.6371 34.5497 25.6191 34.9549 25.4306C35.2001 25.3164 35.4008 25.1679 35.4008 25.1004C35.4008 25.0328 35.2546 24.7717 35.0757 24.5199C34.4766 23.6764 33.4117 23.0564 32.2227 22.8587C31.7814 22.7854 26.7672 22.7085 19.7924 22.6678C10.3173 22.6129 8.00728 22.6302 7.60346 22.7596ZM22.5773 27.1954C21.7639 27.4596 20.1897 28.3681 19.8515 28.7686C19.1308 29.6217 19.092 29.925 19.1333 34.3887L19.1706 38.4345L19.5437 39.0975C19.993 39.8961 20.76 40.4944 21.6351 40.7286C22.4753 40.9535 36.1995 41.1101 36.9681 40.9036C37.6914 40.7093 39.1467 39.9802 39.537 39.6168C39.7257 39.4412 40.0194 39.0244 40.1899 38.6905L40.5 38.0834L40.4993 34.0724C40.4989 31.763 40.4456 29.8753 40.3738 29.6229C40.0857 28.6112 39.0462 27.5995 38.0244 27.3364C37.448 27.1879 23.006 27.0561 22.5773 27.1954ZM24.6374 30.395C24.5139 30.9524 24.0358 31.835 23.6913 32.1415C23.5306 32.2844 23.2173 32.4389 22.995 32.4848L22.5908 32.5683V31.6026C22.5908 30.6463 22.5944 30.6354 22.9598 30.4877C23.1627 30.4057 23.3934 30.2625 23.4724 30.1696C23.556 30.0715 23.8485 30.0006 24.1705 30.0006H24.7248L24.6374 30.395ZM35.9833 30.3344C36.1 30.6556 36.4251 30.9871 36.7378 31.1037C36.977 31.1929 37.0176 31.2973 37.0176 31.821V32.4338L36.6577 32.2523C35.9785 31.9096 35.0277 30.7405 35.0277 30.2482C35.0277 30.0213 35.8981 30.0998 35.9833 30.3344ZM30.8055 31.5326C32.4448 32.4031 32.9901 34.2688 32.0697 35.8582C31.5664 36.7274 31.2429 36.935 30.3915 36.935C29.1633 36.935 28.1359 36.3339 27.4647 35.2227C26.7109 33.975 27.2467 31.9283 28.4983 31.274C29.0234 30.9994 30.0097 31.11 30.8055 31.5326ZM37.0176 36.5311V37.4794L36.5824 37.682C36.3429 37.7934 36.1471 37.94 36.1471 38.0078C36.1471 38.0756 35.8686 38.1311 35.5283 38.1311H34.9096L34.9864 37.7367C35.1363 36.9671 35.8401 35.8904 36.3156 35.7031C36.9637 35.4479 37.0176 35.5115 37.0176 36.5311ZM23.0634 35.8758C23.7184 36.2106 24.5807 37.3165 24.5807 37.8217C24.5807 37.9538 24.4578 38.0097 24.1678 38.0097C23.8214 38.0097 23.7264 37.9463 23.577 37.6154C23.4735 37.3859 23.2313 37.1449 22.9977 37.0389C22.6284 36.8716 22.596 36.8104 22.5935 36.2805C22.592 35.9634 22.6215 35.7041 22.6592 35.7041C22.6967 35.7041 22.8785 35.7814 23.0634 35.8758Z" fill="#036CBD"/>
<path fill-rule="evenodd" clip-rule="evenodd" d="M18.7469 3.07319C17.7209 3.22597 16.047 3.84145 14.8032 4.5232C13.3921 5.29656 11.857 6.81683 11.1688 8.1228C9.56128 11.1726 9.85816 14.6985 11.9647 17.579C13.0882 19.1151 15.3221 20.5186 17.3295 20.9499C18.5781 21.2179 20.3334 21.1978 21.5448 20.9013C22.7971 20.5948 25.0459 19.5111 26.0079 18.7506C29.1203 16.2903 30.1789 11.9592 28.5529 8.33966C27.4677 5.92418 25.0135 3.8855 22.4226 3.24708C21.4528 3.00814 19.7304 2.92659 18.7469 3.07319ZM23.3912 3.86002C25.011 4.49274 26.4314 5.60479 27.3855 6.98697L27.8124 7.60573L27.5012 7.76482C27.2459 7.89527 27.2045 7.98313 27.2707 8.25313C27.3149 8.43419 27.3998 8.67495 27.4591 8.78805C27.7823 9.40438 28.1028 11.2057 28.1026 12.4049C28.1023 13.9334 27.88 14.8484 27.1587 16.2881C26.7409 17.1224 26.4272 17.5301 25.518 18.4211C24.5914 19.3292 24.2087 19.6094 23.337 20.0183C21.9503 20.6687 20.8228 20.9257 19.3571 20.9257C14.3815 20.9257 10.4025 17.0431 10.4025 12.188C10.4025 8.24355 13.0449 4.98712 17.1807 3.83478C17.9851 3.61065 20.0619 3.53953 20.8929 3.7076C21.1983 3.76949 21.3443 3.76148 21.2963 3.68576C21.0625 3.31674 22.2538 3.41576 23.3912 3.86002ZM7.60346 22.7596C6.5733 23.0898 5.05002 23.9617 4.56585 24.4984C3.65646 25.5063 3.5 25.9757 3.5 27.695C3.5 29.4171 3.70658 30.3763 4.37544 31.7602C6.1191 35.3677 10.385 37.7947 16.1857 38.4792C16.9426 38.5686 17.1246 38.5498 17.5796 38.3348L18.103 38.0877L18.1393 33.225L18.1756 28.3624L18.5033 27.6804C18.9054 26.8438 19.6518 26.0165 20.2101 25.7885C20.553 25.6483 21.8692 25.6197 27.5683 25.6279C33.8733 25.6371 34.5497 25.6191 34.9549 25.4306C35.2001 25.3164 35.4008 25.1679 35.4008 25.1004C35.4008 25.0328 35.2546 24.7717 35.0757 24.5199C34.4766 23.6764 33.4117 23.0564 32.2227 22.8587C31.7814 22.7854 26.7672 22.7085 19.7924 22.6678C10.3173 22.6129 8.00728 22.6302 7.60346 22.7596ZM32.9981 23.3451C33.4894 23.5243 33.9203 23.8075 34.3709 24.2473C34.7322 24.5997 35.0277 24.9396 35.0277 25.0026C35.0277 25.0657 34.8459 25.192 34.6235 25.2836C34.2973 25.4179 32.8756 25.45 27.2546 25.45H20.2899L19.5504 25.8042C18.6492 26.236 17.8723 26.9721 17.4059 27.836L17.0563 28.4838L16.9941 33.3984L16.9319 38.3131L16.4345 38.2778C15.4196 38.2058 13.2027 37.7433 11.9432 37.3406C7.83702 36.0282 5.10462 33.5743 4.04051 30.2433C3.8011 29.4941 3.74961 29.0649 3.74924 27.8163C3.74874 26.4039 3.77249 26.2523 4.09324 25.6148C4.51299 24.781 5.33259 24.0203 6.27655 23.5885L6.98235 23.2657L10.9 23.2338C13.0547 23.2163 18.5954 23.2446 23.2126 23.2968C29.9322 23.3727 31.6404 23.361 31.7719 23.2377C31.9966 23.0271 32.1686 23.0422 32.9981 23.3451ZM22.5773 27.1954C21.7639 27.4596 20.1897 28.3681 19.8515 28.7686C19.1308 29.6217 19.092 29.925 19.1333 34.3887L19.1706 38.4345L19.5437 39.0975C19.993 39.8961 20.76 40.4944 21.6351 40.7286C22.4753 40.9535 36.1995 41.1101 36.9681 40.9036C37.6914 40.7093 39.1467 39.9802 39.537 39.6168C39.7257 39.4412 40.0194 39.0244 40.1899 38.6905L40.5 38.0834L40.4993 34.0724C40.4989 31.763 40.4456 29.8753 40.3738 29.6229C40.0857 28.6112 39.0462 27.5995 38.0244 27.3364C37.448 27.1879 23.006 27.0561 22.5773 27.1954ZM38.4791 27.8384C38.9409 28.0502 39.7538 28.8182 39.7538 29.0428C39.7538 29.0861 39.5894 29.1882 39.3883 29.2695C39.0507 29.4059 39.0338 29.4418 39.1663 29.7393C39.2615 29.9531 39.3248 31.3766 39.3544 33.9738C39.3924 37.3047 39.3691 37.9864 39.1983 38.5598C38.9664 39.3379 38.3406 40.0817 37.5858 40.4758C37.0802 40.74 37.0752 40.7401 29.6176 40.7083C21.4351 40.6734 21.4805 40.6773 20.5656 39.9415C20.3113 39.7368 19.9493 39.314 19.7612 39.0019L19.4193 38.4345L19.382 34.4656C19.3578 31.8949 19.3918 30.3257 19.4787 30.0111C19.6916 29.2395 20.3277 28.5356 21.2283 28.0748L22.0311 27.6642L29.4311 27.7367C35.7108 27.7983 36.8782 27.7831 37.142 27.6361C37.4838 27.4457 37.6907 27.477 38.4791 27.8384ZM22.6322 29.905C22.5752 29.9911 22.4724 30.1705 22.4037 30.304C22.3349 30.4375 22.0983 30.6286 21.8777 30.7287L21.4768 30.9108L21.4742 32.0471L21.4714 33.1833L22.0583 33.0974C23.5867 32.8738 24.8093 31.6676 24.8691 30.3242L24.8916 29.8186L23.8136 29.7837C23.0381 29.7585 22.7065 29.7926 22.6322 29.905ZM33.8254 30.0704C33.6633 30.4826 34.0436 31.2308 34.7361 31.8623C35.5847 32.6361 36.6015 33.2771 36.9808 33.2771C37.2583 33.2771 37.2663 33.2453 37.2636 32.1546L37.261 31.0321L36.8594 30.8501C36.6338 30.7478 36.3763 30.4965 36.2714 30.2764L36.0849 29.8845L34.9928 29.882C34.1119 29.8798 33.886 29.9163 33.8254 30.0704ZM24.6374 30.395C24.5139 30.9524 24.0358 31.835 23.6913 32.1415C23.5306 32.2844 23.2173 32.4389 22.995 32.4848L22.5908 32.5683V31.6026C22.5908 30.6463 22.5944 30.6354 22.9598 30.4877C23.1627 30.4057 23.3934 30.2625 23.4724 30.1696C23.556 30.0715 23.8485 30.0006 24.1705 30.0006H24.7248L24.6374 30.395ZM35.9833 30.3344C36.1 30.6556 36.4251 30.9871 36.7378 31.1037C36.977 31.1929 37.0176 31.2973 37.0176 31.821V32.4338L36.6577 32.2523C35.9785 31.9096 35.0277 30.7405 35.0277 30.2482C35.0277 30.0213 35.8981 30.0998 35.9833 30.3344ZM28.7277 30.9844C27.6196 31.1813 26.6747 31.9044 26.2073 32.913C25.6902 34.0289 26.0052 35.8128 26.705 35.7319C26.875 35.7122 27.1832 35.8513 27.4728 36.0783C27.7388 36.2869 28.2421 36.6412 28.5913 36.8655C29.2116 37.2642 29.2193 37.2763 28.9245 37.3912C28.683 37.4854 28.7907 37.5105 29.4636 37.5167C30.8044 37.529 31.8202 36.9386 32.4497 35.781C32.8163 35.1071 32.8384 33.5475 32.4905 32.913C31.6786 31.4328 30.2695 30.7105 28.7277 30.9844ZM30.8055 31.5326C32.4448 32.4031 32.9901 34.2688 32.0697 35.8582C31.5664 36.7274 31.2429 36.935 30.3915 36.935C29.1633 36.935 28.1359 36.3339 27.4647 35.2227C26.7109 33.975 27.2467 31.9283 28.4983 31.274C29.0234 30.9994 30.0097 31.11 30.8055 31.5326ZM21.5557 35.2982C21.5094 35.3434 21.4714 35.8693 21.4714 36.4665V37.5526L21.7822 37.4946C22.2292 37.4113 22.5286 37.6751 22.5286 38.1522V38.5558L23.7412 38.5905C25.1319 38.6303 25.1155 38.6476 24.7463 37.5322C24.3729 36.4039 23.29 35.4919 22.0843 35.2902C21.8401 35.2493 21.6023 35.2529 21.5557 35.2982ZM36.1111 35.5488C34.9397 35.9298 33.7884 37.3131 33.7853 38.3435L33.784 38.7378H34.9383H36.0926L36.2319 38.3776C36.3181 38.155 36.5424 37.9377 36.8189 37.809L37.2664 37.6008V36.4704C37.2664 35.1772 37.2627 35.1742 36.1111 35.5488ZM37.0176 36.5311V37.4794L36.5824 37.682C36.3429 37.7934 36.1471 37.94 36.1471 38.0078C36.1471 38.0756 35.8686 38.1311 35.5283 38.1311H34.9096L34.9864 37.7367C35.1363 36.9671 35.8401 35.8904 36.3156 35.7031C36.9637 35.4479 37.0176 35.5115 37.0176 36.5311ZM23.0634 35.8758C23.7184 36.2106 24.5807 37.3165 24.5807 37.8217C24.5807 37.9538 24.4578 38.0097 24.1678 38.0097C23.8214 38.0097 23.7264 37.9463 23.577 37.6154C23.4735 37.3859 23.2313 37.1449 22.9977 37.0389C22.6284 36.8716 22.596 36.8104 22.5935 36.2805C22.592 35.9634 22.6215 35.7041 22.6592 35.7041C22.6967 35.7041 22.8785 35.7814 23.0634 35.8758Z" fill="#055A9E"/>
<path fill-rule="evenodd" clip-rule="evenodd" d="M18.7469 3.07319C17.7209 3.22597 16.047 3.84145 14.8032 4.5232C13.3921 5.29656 11.857 6.81683 11.1688 8.1228C9.56128 11.1726 9.85816 14.6985 11.9647 17.579C13.0882 19.1151 15.3221 20.5186 17.3295 20.9499C18.5781 21.2179 20.3334 21.1978 21.5448 20.9013C22.7971 20.5948 25.0459 19.5111 26.0079 18.7506C29.1203 16.2903 30.1789 11.9592 28.5529 8.33966C27.4677 5.92418 25.0135 3.8855 22.4226 3.24708C21.4528 3.00814 19.7304 2.92659 18.7469 3.07319ZM22.7359 3.58249C24.631 4.17019 26.2368 5.31537 27.4049 6.91246C27.9995 7.7255 28.6006 9.08378 28.743 9.93662C28.817 10.3791 28.7954 10.4511 28.5696 10.5212C28.4145 10.5692 28.3103 10.7065 28.308 10.8658C28.2685 13.6197 27.9559 15.0317 27.0293 16.6418C26.3825 17.7656 24.9304 19.2195 23.8345 19.8407C20.5235 21.7172 16.4305 21.3319 13.4097 18.8593C9.56937 15.7158 9.22897 9.7347 12.6953 6.30401C14.1106 4.90315 16.5611 3.7161 18.984 3.25752C19.7427 3.11396 21.799 3.2921 22.7359 3.58249ZM7.60346 22.7596C6.5733 23.0898 5.05002 23.9617 4.56585 24.4984C3.65646 25.5063 3.5 25.9757 3.5 27.695C3.5 29.4171 3.70658 30.3763 4.37544 31.7602C6.1191 35.3677 10.385 37.7947 16.1857 38.4792C16.9426 38.5686 17.1246 38.5498 17.5796 38.3348L18.103 38.0877L18.1393 33.225L18.1756 28.3624L18.5033 27.6804C18.9054 26.8438 19.6518 26.0165 20.2101 25.7885C20.553 25.6483 21.8692 25.6197 27.5683 25.6279C33.8733 25.6371 34.5497 25.6191 34.9549 25.4306C35.2001 25.3164 35.4008 25.1679 35.4008 25.1004C35.4008 25.0328 35.2546 24.7717 35.0757 24.5199C34.4766 23.6764 33.4117 23.0564 32.2227 22.8587C31.7814 22.7854 26.7672 22.7085 19.7924 22.6678C10.3173 22.6129 8.00728 22.6302 7.60346 22.7596ZM23.6479 23.023C31.9715 23.023 32.5068 23.0359 32.9756 23.2471C33.7032 23.5749 34.6839 24.3316 34.9384 24.762L35.1599 25.1364L34.7719 25.3323C34.4265 25.5064 33.6205 25.5254 27.4612 25.5032C20.5939 25.4785 20.5329 25.4805 19.8239 25.7457C18.9403 26.0764 17.8728 27.0033 17.4742 27.7859C17.1837 28.3567 17.1801 28.4119 17.1185 33.3378L17.0563 38.3131L16.2433 38.296C14.5871 38.2613 11.5517 37.4572 9.78067 36.5841C8.32517 35.8666 7.43481 35.2485 6.40478 34.241C5.27787 33.1386 4.47282 31.8595 3.97932 30.3875C3.66765 29.4581 3.62574 29.1536 3.62512 27.8163C3.62449 26.5288 3.66392 26.216 3.88629 25.7472C4.41897 24.6239 5.28694 23.9152 6.94952 23.2462L7.97731 22.8326L11.3975 22.9279C13.2786 22.9802 18.7913 23.023 23.6479 23.023ZM22.5773 27.1954C21.7639 27.4596 20.1897 28.3681 19.8515 28.7686C19.1308 29.6217 19.092 29.925 19.1333 34.3887L19.1706 38.4345L19.5437 39.0975C19.993 39.8961 20.76 40.4944 21.6351 40.7286C22.4753 40.9535 36.1995 41.1101 36.9681 40.9036C37.6914 40.7093 39.1467 39.9802 39.537 39.6168C39.7257 39.4412 40.0194 39.0244 40.1899 38.6905L40.5 38.0834L40.4993 34.0724C40.4989 31.763 40.4456 29.8753 40.3738 29.6229C40.0857 28.6112 39.0462 27.5995 38.0244 27.3364C37.448 27.1879 23.006 27.0561 22.5773 27.1954ZM38.2031 27.6281C38.9046 27.9141 39.4434 28.3833 39.7959 29.0154C40.2136 29.7643 40.2188 30.0863 39.816 30.2654L39.505 30.4036V34.1268C39.505 38.2179 39.4628 38.5284 38.7719 39.5082C38.3462 40.1118 37.6226 40.587 36.8311 40.7825C36.5036 40.8634 33.8684 40.8765 29.1202 40.8208C21.9583 40.7368 21.9022 40.7343 21.2849 40.4586C20.5331 40.1229 20.0662 39.7071 19.6259 38.9805L19.295 38.4345L19.2562 34.4537C19.2222 30.9801 19.244 30.3945 19.4265 29.8581C19.6771 29.1218 20.3329 28.4434 21.2496 27.9722L21.9067 27.6343L27.8143 27.5702C31.0634 27.535 34.6331 27.494 35.7468 27.4792C37.2843 27.4587 37.8757 27.4946 38.2031 27.6281ZM22.485 30.2461C22.3935 30.4479 22.156 30.695 21.9572 30.7954C21.6008 30.9752 21.5958 30.9921 21.5958 32.0198V33.0619L22.1837 32.9759C22.5069 32.9286 22.9732 32.7895 23.2198 32.6668C23.9389 32.3088 24.6291 31.2959 24.7795 30.3774L24.8613 29.8793H23.7564H22.6514L22.485 30.2461ZM24.6374 30.395C24.5139 30.9524 24.0358 31.835 23.6913 32.1415C23.5306 32.2844 23.2173 32.4389 22.995 32.4848L22.5908 32.5683V31.6026C22.5908 30.6463 22.5944 30.6354 22.9598 30.4877C23.1627 30.4057 23.3934 30.2625 23.4724 30.1696C23.556 30.0715 23.8485 30.0006 24.1705 30.0006H24.7248L24.6374 30.395ZM33.9084 30.287C33.9084 30.87 34.8286 31.9518 35.9436 32.6797C37.0574 33.4068 37.142 33.3675 37.142 32.1212C37.142 31.1603 37.1221 31.0793 36.8622 30.9824C36.5495 30.8657 36.2244 30.5342 36.1076 30.213C36.0423 30.0333 35.8676 30.0006 34.9694 30.0006C33.9373 30.0006 33.9084 30.0084 33.9084 30.287ZM35.9833 30.3344C36.1 30.6556 36.4251 30.9871 36.7378 31.1037C36.977 31.1929 37.0176 31.2973 37.0176 31.821V32.4338L36.6577 32.2523C35.9785 31.9096 35.0277 30.7405 35.0277 30.2482C35.0277 30.0213 35.8981 30.0998 35.9833 30.3344ZM28.2971 31.1315C26.8211 31.6707 26.0731 32.6469 26.0731 34.0347C26.0731 34.5243 26.117 34.6459 26.312 34.6957C26.4434 34.7292 26.8212 35.0856 27.1515 35.4877C27.8477 36.3354 28.4946 36.8038 29.3689 37.0934C30.1843 37.3636 30.5116 37.3621 31.1 37.0858C31.6462 36.8293 32.3364 35.9427 32.5361 35.2408C32.9933 33.6348 32.2518 32.0496 30.6804 31.2731C30.1162 30.9944 28.8747 30.9206 28.2971 31.1315ZM30.8055 31.5326C32.4448 32.4031 32.9901 34.2688 32.0697 35.8582C31.5664 36.7274 31.2429 36.935 30.3915 36.935C29.1633 36.935 28.1359 36.3339 27.4647 35.2227C26.7109 33.975 27.2467 31.9283 28.4983 31.274C29.0234 30.9994 30.0097 31.11 30.8055 31.5326ZM21.5123 35.5939C21.5564 35.7547 21.5932 36.2275 21.5941 36.6446C21.5958 37.3945 21.5997 37.403 21.9452 37.403C22.454 37.403 22.7565 37.6681 22.7565 38.1139C22.7565 38.4857 22.7707 38.4951 23.3267 38.4965C23.6402 38.4972 24.1066 38.5317 24.363 38.5731C24.9117 38.6615 24.9433 38.5495 24.6457 37.5714C24.2974 36.427 23.2352 35.5429 22.0118 35.3794C21.4458 35.3036 21.434 35.3086 21.5123 35.5939ZM35.905 35.6711C34.8521 36.0338 33.9083 37.2609 33.9085 38.2665C33.9085 38.5484 33.9355 38.5558 34.9603 38.5576C35.9134 38.5592 36.0255 38.5346 36.1565 38.2959C36.236 38.151 36.4902 37.9329 36.7215 37.8115L37.142 37.5905V36.526V35.4614L36.8 35.471C36.612 35.4762 36.2091 35.5662 35.905 35.6711ZM37.0176 36.5311V37.4794L36.5824 37.682C36.3429 37.7934 36.1471 37.94 36.1471 38.0078C36.1471 38.0756 35.8686 38.1311 35.5283 38.1311H34.9096L34.9864 37.7367C35.1363 36.9671 35.8401 35.8904 36.3156 35.7031C36.9637 35.4479 37.0176 35.5115 37.0176 36.5311ZM23.0634 35.8758C23.7184 36.2106 24.5807 37.3165 24.5807 37.8217C24.5807 37.9538 24.4578 38.0097 24.1678 38.0097C23.8214 38.0097 23.7264 37.9463 23.577 37.6154C23.4735 37.3859 23.2313 37.1449 22.9977 37.0389C22.6284 36.8716 22.596 36.8104 22.5935 36.2805C22.592 35.9634 22.6215 35.7041 22.6592 35.7041C22.6967 35.7041 22.8785 35.7814 23.0634 35.8758Z" fill="#044578"/>
</svg>
