<svg width="44" height="44" viewBox="0 0 44 44" fill="none" xmlns="http://www.w3.org/2000/svg">
<path fill-rule="evenodd" clip-rule="evenodd" d="M23.5162 3.06023C22.442 3.2087 20.439 3.85888 19.2826 4.43439C17.9083 5.11849 16.3708 6.62215 15.6433 7.99352C14.8636 9.46362 14.5679 10.6325 14.5684 12.2425C14.569 13.8695 14.7851 14.7617 15.5406 16.2551C17.3044 19.7416 21.0419 21.7177 24.8747 21.1907C26.0311 21.0317 28.1774 20.3551 29.178 19.8343C31.3251 18.7169 32.8837 16.7514 33.6072 14.2488C33.9153 13.1835 33.9196 10.8592 33.6156 9.74973C32.568 5.92711 29.2451 3.24141 25.2832 3.01524C24.7223 2.98314 23.9271 3.00345 23.5162 3.06023ZM10.9399 20.5864C7.59463 21.3368 5.50137 22.768 4.36116 25.0845C3.69511 26.4377 3.48704 27.3179 3.50062 28.7236C3.53586 32.3518 6.18497 35.5329 9.83097 36.325C11.3414 36.6532 12.6925 36.5317 14.658 35.891L16.2592 35.3691L19.0576 38.1846L21.856 41H22.4003C23.0638 41 24.5262 40.5001 24.7657 40.1914C25.0399 39.838 25.1148 39.2398 24.9282 38.8921C24.8365 38.7212 23.4965 37.306 21.9505 35.7475L19.1397 32.9138L19.4852 32.382C20.4351 30.92 20.8309 28.4502 20.4106 26.6055C19.7534 23.7205 17.4292 21.3618 14.533 20.6408C13.6965 20.4325 11.757 20.403 10.9399 20.5864ZM20.4655 22.8398C20.3628 22.8804 20.0986 22.9851 19.8783 23.0724L19.4778 23.231L20.0248 24.2778C21.3205 26.7573 21.4878 30.0961 20.4377 32.5157L20.1885 33.0903L22.6123 35.5577C23.9455 36.9147 25.1299 38.2019 25.2445 38.4181C25.4939 38.8893 25.6894 38.9057 27.6716 38.6215C31.0947 38.1306 34.5034 36.8819 36.5689 35.3621C38.9258 33.6277 40.2927 31.1089 40.4726 28.169C40.5309 27.2157 40.501 26.796 40.3354 26.2395C39.8264 24.5296 38.4526 23.3087 36.7151 23.0221C35.9032 22.8882 20.7722 22.7185 20.4655 22.8398ZM13.5539 23.8387C16.3227 25.1116 17.5245 28.5204 16.1464 31.192C15.7631 31.9351 15.0145 32.7323 14.2503 33.2111C13.7434 33.5288 13.5391 33.5826 12.8411 33.5826C11.7315 33.5826 10.5635 33.209 9.67544 32.5697C8.80457 31.943 8.38258 31.4247 7.85126 30.3292C7.47547 29.5545 7.45343 29.4316 7.45343 28.1082C7.45343 26.7742 7.47273 26.6691 7.85711 25.9066C8.28558 25.0565 9.26205 23.9881 9.92025 23.6488C10.814 23.1882 12.3089 23.2663 13.5539 23.8387Z" fill="#0573CA"/>
<path fill-rule="evenodd" clip-rule="evenodd" d="M23.5162 3.06023C22.442 3.2087 20.439 3.85888 19.2826 4.43439C17.9083 5.11849 16.3708 6.62215 15.6433 7.99352C14.8636 9.46362 14.5679 10.6325 14.5684 12.2425C14.569 13.8695 14.7851 14.7617 15.5406 16.2551C17.3044 19.7416 21.0419 21.7177 24.8747 21.1907C26.0311 21.0317 28.1774 20.3551 29.178 19.8343C31.3251 18.7169 32.8837 16.7514 33.6072 14.2488C33.9153 13.1835 33.9196 10.8592 33.6156 9.74973C32.568 5.92711 29.2451 3.24141 25.2832 3.01524C24.7223 2.98314 23.9271 3.00345 23.5162 3.06023ZM28.6837 4.19047C29.5001 4.58323 29.9729 4.92236 30.7519 5.67431C31.3073 6.21043 31.8224 6.76272 31.8966 6.90158C32.02 7.13298 31.9789 7.17067 31.4085 7.34869C30.883 7.51285 30.7753 7.51674 30.7192 7.37398C30.593 7.05297 29.4912 5.95422 28.7478 5.40838C27.9401 4.81511 27.1092 4.37274 26.1311 4.01501C25.7886 3.88976 25.6382 3.81145 25.7969 3.84088C25.9556 3.87043 26.2638 3.81814 26.4817 3.72475C27.0114 3.49786 27.4259 3.58553 28.6837 4.19047ZM10.9399 20.5864C7.59463 21.3368 5.50137 22.768 4.36116 25.0845C3.69511 26.4377 3.48704 27.3179 3.50062 28.7236C3.53586 32.3518 6.18497 35.5329 9.83097 36.325C11.3414 36.6532 12.6925 36.5317 14.658 35.891L16.2592 35.3691L19.0576 38.1846L21.856 41H22.4003C23.0638 41 24.5262 40.5001 24.7657 40.1914C25.0399 39.838 25.1148 39.2398 24.9282 38.8921C24.8365 38.7212 23.4965 37.306 21.9505 35.7475L19.1397 32.9138L19.4852 32.382C20.4351 30.92 20.8309 28.4502 20.4106 26.6055C19.7534 23.7205 17.4292 21.3618 14.533 20.6408C13.6965 20.4325 11.757 20.403 10.9399 20.5864ZM15.3571 21.6732C16.1481 22.0841 17.6164 23.3059 17.8658 23.761C17.9539 23.9215 17.9499 24.0422 17.8528 24.1564C17.7408 24.2882 17.5233 24.1337 16.7546 23.377C15.7223 22.3606 15.0149 21.9016 13.8178 21.4716L13.0567 21.1983L13.804 21.2265C14.3801 21.2484 14.7356 21.3506 15.3571 21.6732ZM20.4655 22.8398C20.3628 22.8804 20.0986 22.9851 19.8783 23.0724L19.4778 23.231L20.0248 24.2778C21.3205 26.7573 21.4878 30.0961 20.4377 32.5157L20.1885 33.0903L22.6123 35.5577C23.9455 36.9147 25.1299 38.2019 25.2445 38.4181C25.4939 38.8893 25.6894 38.9057 27.6716 38.6215C31.0947 38.1306 34.5034 36.8819 36.5689 35.3621C38.9258 33.6277 40.2927 31.1089 40.4726 28.169C40.5309 27.2157 40.501 26.796 40.3354 26.2395C39.8264 24.5296 38.4526 23.3087 36.7151 23.0221C35.9032 22.8882 20.7722 22.7185 20.4655 22.8398ZM13.5539 23.8387C16.3227 25.1116 17.5245 28.5204 16.1464 31.192C15.7631 31.9351 15.0145 32.7323 14.2503 33.2111C13.7434 33.5288 13.5391 33.5826 12.8411 33.5826C11.7315 33.5826 10.5635 33.209 9.67544 32.5697C8.80457 31.943 8.38258 31.4247 7.85126 30.3292C7.47547 29.5545 7.45343 29.4316 7.45343 28.1082C7.45343 26.7742 7.47273 26.6691 7.85711 25.9066C8.28558 25.0565 9.26205 23.9881 9.92025 23.6488C10.814 23.1882 12.3089 23.2663 13.5539 23.8387ZM37.5907 23.5447C38.1565 23.7756 38.8401 24.2905 39.156 24.7237L39.409 25.0706L39.1204 25.1762C38.3076 25.4732 38.3125 25.4743 37.5568 24.7959C37.1571 24.4371 36.5686 24.0379 36.2491 23.9089L35.6682 23.6742L36.1293 23.5341C36.7723 23.3387 37.0916 23.341 37.5907 23.5447ZM8.63535 32.1131C9.06232 32.5087 9.72762 32.9985 10.1136 33.2017L10.8154 33.5712L10.3859 33.7188C10.0074 33.8489 9.98524 33.8785 10.1992 33.9675C10.3547 34.0322 10.2855 34.0413 10.006 33.9928C9.25283 33.8622 8.11424 33.2154 7.42628 32.5273C7.06194 32.1629 6.7956 31.8142 6.83458 31.7527C6.89285 31.6607 7.47036 31.4484 7.78078 31.4048C7.82374 31.3989 8.20838 31.7176 8.63535 32.1131ZM18.8822 33.8679C19.0043 34.012 19.2185 34.3404 19.3579 34.598C19.4975 34.8554 20.476 35.9497 21.5323 37.0299C23.3364 38.8745 23.6629 39.2643 23.3068 39.1485C23.2258 39.1221 21.8951 37.8245 20.3495 36.265L17.5394 33.4297L18.0997 33.5178C18.4391 33.5713 18.7475 33.7093 18.8822 33.8679Z" fill="#0369B8"/>
<path fill-rule="evenodd" clip-rule="evenodd" d="M23.5162 3.06023C22.442 3.2087 20.439 3.85888 19.2826 4.43439C17.9083 5.11849 16.3708 6.62215 15.6433 7.99352C14.8636 9.46362 14.5679 10.6325 14.5684 12.2425C14.569 13.8695 14.7851 14.7617 15.5406 16.2551C17.3044 19.7416 21.0419 21.7177 24.8747 21.1907C26.0311 21.0317 28.1774 20.3551 29.178 19.8343C31.3251 18.7169 32.8837 16.7514 33.6072 14.2488C33.9153 13.1835 33.9196 10.8592 33.6156 9.74973C32.568 5.92711 29.2451 3.24141 25.2832 3.01524C24.7223 2.98314 23.9271 3.00345 23.5162 3.06023ZM26.9886 3.50004C28.5915 3.87918 30.2186 4.8933 31.3847 6.24022C32.0552 7.01479 32.9769 8.6522 32.8202 8.79022C32.7708 8.83363 32.529 8.932 32.2829 9.00873L31.8352 9.1482L32.0729 10.3305C33.0881 15.3801 30.1641 19.8951 25.2324 20.8933C22.8915 21.3671 20.3817 20.758 18.2902 19.2085C16.8057 18.1088 15.8672 16.8049 15.2015 14.9176C14.851 13.9234 14.8155 13.6841 14.8139 12.3033C14.812 10.5621 15.0042 9.69842 15.6934 8.35138C17.1067 5.58895 19.5088 4.0189 23.1287 3.49153C23.8058 3.3928 24.3891 3.2836 24.4248 3.24883C24.5282 3.14778 26.1865 3.31035 26.9886 3.50004ZM10.9399 20.5864C7.59463 21.3368 5.50137 22.768 4.36116 25.0845C3.69511 26.4377 3.48704 27.3179 3.50062 28.7236C3.53586 32.3518 6.18497 35.5329 9.83097 36.325C11.3414 36.6532 12.6925 36.5317 14.658 35.891L16.2592 35.3691L19.0576 38.1846L21.856 41H22.4003C23.0638 41 24.5262 40.5001 24.7657 40.1914C25.0399 39.838 25.1148 39.2398 24.9282 38.8921C24.8365 38.7212 23.4965 37.306 21.9505 35.7475L19.1397 32.9138L19.4852 32.382C20.4351 30.92 20.8309 28.4502 20.4106 26.6055C19.7534 23.7205 17.4292 21.3618 14.533 20.6408C13.6965 20.4325 11.757 20.403 10.9399 20.5864ZM13.6029 20.8801C15.4482 21.3048 17.869 23.035 18.4625 24.3533C18.74 24.9695 18.8924 26.5574 18.8934 28.8404C18.8941 30.5504 18.6858 31.3555 17.9099 32.6402L17.4877 33.3394H18.0509C18.851 33.3394 19.0676 33.4984 19.4746 34.3843C19.771 35.0294 20.1756 35.5127 21.7687 37.124C23.5277 38.9031 23.9347 39.4192 23.5785 39.4192C23.51 39.4192 23.4539 39.5712 23.4539 39.7569C23.4539 40.4877 22.7372 40.9978 22.094 40.7251C21.8987 40.6421 20.5232 39.3433 19.0372 37.8385C17.5512 36.3337 16.2376 35.0573 16.1184 35.0021C15.9676 34.9323 15.7131 35.0102 15.2842 35.2571C14.0643 35.9595 13.0906 36.1971 11.438 36.1956C10.3161 36.1945 9.77307 36.1381 9.25893 35.9691C6.47123 35.0525 4.33488 32.6782 3.82909 29.9347C2.98885 25.3777 6.3111 21.3523 11.2917 20.8927C11.6222 20.8622 11.9257 20.8049 11.9662 20.7653C12.0927 20.6417 12.7756 20.6896 13.6029 20.8801ZM20.4655 22.8398C20.3628 22.8804 20.0986 22.9851 19.8783 23.0724L19.4778 23.231L20.0248 24.2778C21.3205 26.7573 21.4878 30.0961 20.4377 32.5157L20.1885 33.0903L22.6123 35.5577C23.9455 36.9147 25.1299 38.2019 25.2445 38.4181C25.4939 38.8893 25.6894 38.9057 27.6716 38.6215C31.0947 38.1306 34.5034 36.8819 36.5689 35.3621C38.9258 33.6277 40.2927 31.1089 40.4726 28.169C40.5309 27.2157 40.501 26.796 40.3354 26.2395C39.8264 24.5296 38.4526 23.3087 36.7151 23.0221C35.9032 22.8882 20.7722 22.7185 20.4655 22.8398ZM9.54109 23.3724C8.55491 23.6861 7.35344 24.5688 6.73621 25.4331C6.02297 26.4318 5.72487 27.5234 5.80245 28.8522C5.88214 30.2161 6.08784 30.5872 6.70196 30.4747C7.24997 30.3743 7.38544 30.4616 8.04812 31.3425C8.9632 32.5587 9.83433 33.153 11.4313 33.6508C12.0109 33.8315 12.2162 33.9402 12.0539 33.9806C11.8886 34.0217 11.9303 34.0449 12.1851 34.0539C12.8195 34.0763 14.0938 33.6246 14.7275 33.1528C16.3623 31.9354 17.2122 29.8762 16.8824 27.9326C16.554 25.9974 15.384 24.4436 13.6492 23.6391C12.7798 23.2359 12.5709 23.1892 11.5017 23.159C10.5797 23.1329 10.1454 23.1802 9.54109 23.3724ZM37.2754 23.3815C38.2304 23.7078 39.1358 24.4741 39.5897 25.3405C39.755 25.6559 39.8903 25.936 39.8903 25.963C39.8903 25.99 39.6521 26.0772 39.3611 26.1567L38.8319 26.3016L38.8271 28.0877C38.8227 29.7883 38.8025 29.9307 38.4071 31.0584C37.0449 34.9434 33.5177 37.3977 27.9554 38.331C25.9276 38.6712 25.6234 38.6554 25.3811 38.1978C25.2733 37.9941 24.1221 36.7503 22.8231 35.4336C21.1611 33.749 20.4856 32.9849 20.5437 32.8551C20.5892 32.7537 20.7702 32.2329 20.946 31.6979C21.2342 30.8213 21.2659 30.5326 21.2672 28.7796C21.2685 26.8942 21.256 26.7983 20.8596 25.6789C20.6346 25.0435 20.3139 24.2843 20.1468 23.9916C19.9797 23.6989 19.8429 23.4031 19.8429 23.334C19.8429 23.2484 22.2237 23.2323 27.3451 23.2834C31.687 23.3266 34.9521 23.3122 35.0963 23.2491C35.4151 23.1095 36.7096 23.1882 37.2754 23.3815ZM13.5539 23.8387C16.3227 25.1116 17.5245 28.5204 16.1464 31.192C15.7631 31.9351 15.0145 32.7323 14.2503 33.2111C13.7434 33.5288 13.5391 33.5826 12.8411 33.5826C11.7315 33.5826 10.5635 33.209 9.67544 32.5697C8.80457 31.943 8.38258 31.4247 7.85126 30.3292C7.47547 29.5545 7.45343 29.4316 7.45343 28.1082C7.45343 26.7742 7.47273 26.6691 7.85711 25.9066C8.28558 25.0565 9.26205 23.9881 9.92025 23.6488C10.814 23.1882 12.3089 23.2663 13.5539 23.8387Z" fill="#1D4A6D"/>
</svg>
