<svg width="76" height="80" viewBox="0 0 76 80" fill="none" xmlns="http://www.w3.org/2000/svg">
<path fill-rule="evenodd" clip-rule="evenodd" d="M34.3914 6.03886C33.3571 6.08923 30.8742 6.43029 29.9265 6.65208C25.6809 7.64593 22.2849 8.96718 18.7836 10.9873C16.754 12.1583 13.7642 14.6415 12.079 16.5558C10.6857 18.1384 10.5674 18.2895 9.54191 19.7959C7.86722 22.2559 6.14772 25.8368 5.45019 28.3169C4.7629 30.7607 4.6465 31.3042 4.3088 33.6446C3.84491 36.8593 3.91208 40.4619 4.49858 43.8264C4.86035 45.902 4.98087 46.4269 5.49926 48.1851C6.52021 51.6479 8.17774 55.1624 10.2291 58.2139C11.4881 60.0866 13.0353 61.9647 14.738 63.6871C16.7692 65.7419 17.9194 66.7198 19.3393 67.5994C19.6021 67.7623 20.4757 68.334 21.2805 68.8698C22.7089 69.821 23.2168 70.1013 23.7054 70.2079C23.8375 70.2367 23.9659 70.293 23.9908 70.333C24.0667 70.455 24.6854 70.7377 26.5098 71.4839C28.6625 72.3643 28.7419 72.3914 30.6995 72.9184C32.1274 73.3027 34.6922 73.7701 36.1385 73.9095C37.1112 74.0033 39.992 74.0289 40.8364 73.9513C41.3489 73.9041 42.1525 73.8342 42.6223 73.7958C44.1077 73.6744 46.7579 73.087 48.6791 72.4534C50.2684 71.9292 52.8111 70.8305 53.6875 70.2893C53.837 70.197 54.0198 70.0993 54.0937 70.0722C54.1676 70.0451 54.5345 69.8184 54.9091 69.5683C55.2836 69.3183 55.7298 69.0429 55.9006 68.9563C56.0714 68.8697 56.5082 68.5609 56.8712 68.27C57.2342 67.9792 57.671 67.6466 57.8419 67.5309C58.5274 67.0669 59.4756 66.22 61.091 64.6288C63.2378 62.5143 64.8459 60.5684 66.0098 58.6767C67.3228 56.5428 67.2037 56.7651 68.2922 54.4156C69.0778 52.7197 69.8573 50.2632 70.2664 48.1943C70.6739 46.1329 70.6756 46.1231 70.7656 45.215C70.9496 43.3588 71.0035 42.5446 71.0008 41.6623C70.9975 40.6193 70.808 37.6607 70.6996 36.9605C70.2246 33.891 70.2062 33.8009 69.6483 31.8219C68.6402 28.2451 67.0538 24.8567 64.8487 21.5702C62.4654 18.018 59.7574 15.1915 56.1724 12.5141C54.6606 11.385 52.8183 10.288 50.7757 9.30029C48.9109 8.39871 46.4914 7.48539 44.8742 7.07259C41.8807 6.30855 39.2934 5.97652 36.5268 6.00129C35.6085 6.00946 34.6476 6.02644 34.3914 6.03886ZM36.5147 22.6896C37.9428 22.8481 38.9455 23.061 40.1763 23.4668C42.7498 24.3155 45.25 25.853 47.2571 27.8208C47.9757 28.5254 48.2143 28.8147 48.4025 29.2098C48.6926 29.8192 48.7221 30.4481 48.4848 30.9675L48.3328 31.3004L47.9624 31.2466C47.401 31.1651 46.9489 30.8963 46.3496 30.2875C45.0201 28.9371 43.7074 28.0266 42.0225 27.2862C38.8547 25.894 35.4293 25.7712 32.4543 26.9429C31.3459 27.3796 28.9249 28.6266 28.1703 29.1497C26.8508 30.0644 25.5748 31.4398 24.8081 32.774C24.439 33.4164 24.171 34.1613 24.2727 34.2623C24.2955 34.2849 25.0614 33.9119 25.9749 33.4333C27.5674 32.5991 27.6549 32.5635 28.1017 32.5672C29.6713 32.5804 30.7688 34.2774 30.1324 35.7072C29.9487 36.1198 29.4133 36.6675 28.9713 36.8951C28.7644 37.0017 25.3371 39.1491 24.1027 39.9456C23.2627 40.4876 23.0576 40.5341 22.4554 40.3189C21.788 40.0803 21.5062 39.8499 21.0952 39.2069C20.9021 38.9049 20.6648 38.5362 20.5678 38.3877C19.4638 36.6976 16.1916 31.3154 16.0888 31.0204C16.0149 30.8083 15.9533 30.4877 15.9519 30.3079C15.949 29.9392 16.1056 29.2847 16.1968 29.2847C16.3971 29.2847 16.9641 29.5797 17.2195 29.8167C17.3842 29.9696 17.9905 30.7977 18.5669 31.6569C19.1433 32.516 19.6275 33.219 19.6429 33.219C19.7618 33.219 21.5861 32.2616 21.6668 32.1569C21.7234 32.0835 22.0463 31.4679 22.3846 30.789C23.684 28.1804 25.2229 26.298 27.3212 24.7502C28.3932 23.9595 29.1599 23.5613 30.1594 23.2764C32.4076 22.6354 34.3833 22.4531 36.5147 22.6896ZM51.9522 39.9082C52.5479 40.2079 52.7828 40.4904 53.7664 42.0907C54.2488 42.8756 54.8619 43.8664 55.1286 44.2924C55.3953 44.7183 55.7169 45.239 55.8432 45.4495C55.9695 45.66 56.257 46.1272 56.4822 46.4879C58.3396 49.4627 58.3005 49.384 58.2981 50.1434C58.296 50.813 58.2053 50.9623 57.8003 50.9623C57.4842 50.9623 56.7489 50.6866 56.4393 50.4519C56.276 50.3281 55.7115 49.5711 55.07 48.6154C54.4698 47.7211 53.9358 46.9791 53.8833 46.9666C53.8309 46.9541 53.4247 47.2318 52.9807 47.5837L52.1734 48.2236L51.6478 49.2609C50.6968 51.1379 49.8139 52.3662 48.4554 53.7023C47.8089 54.3382 47.5115 54.5635 46.7766 54.974C44.5421 56.2225 42.1983 56.8669 39.5697 56.9556C36.6895 57.0527 34.0061 56.4545 31.363 55.126C29.5576 54.2187 27.692 52.8519 26.3669 51.466C25.6759 50.7433 25.412 50.2443 25.3628 49.567C25.3145 48.9007 25.416 48.6952 25.7582 48.767C26.2246 48.8648 26.7227 49.2021 27.3689 49.8579C28.5804 51.0872 29.7313 51.9138 31.2332 52.6334C33.0024 53.481 34.5734 53.8696 36.5369 53.9454C37.5844 53.9858 37.893 53.9683 38.7883 53.8179C40.0784 53.6012 41.1545 53.2552 42.2742 52.6973C43.2381 52.2171 43.444 52.0826 45.1072 50.846C46.8683 49.5366 47.8632 48.4882 48.7831 46.9724C49.1283 46.4037 49.2948 45.7936 49.1048 45.7936C49.0502 45.7936 48.7223 45.9456 48.3763 46.1313C46.5244 47.1252 45.8715 47.422 45.4401 47.4662C43.8539 47.6289 42.5854 45.8435 43.216 44.3359C43.3682 43.9721 43.4439 43.9001 44.0896 43.5046C44.4784 43.2664 45.146 42.8564 45.5731 42.5933C48.1311 41.0177 49.8827 39.9678 50.1541 39.8477C50.6556 39.6257 51.4434 39.6523 51.9522 39.9082Z" fill="#97D5F0"/>
<path fill-rule="evenodd" clip-rule="evenodd" d="M34.1964 6.07027C32.9723 6.15351 30.6785 6.48855 29.6927 6.728C24.6298 7.95777 20.4132 9.77221 17.0072 12.1866C15.6838 13.1248 13.6871 14.8263 12.7927 15.7784C9.98608 18.7658 7.76986 22.2251 6.34613 25.8408C5.68975 27.5079 5.53523 27.9976 4.88211 30.4813C4.72308 31.0862 4.591 31.8499 4.22844 34.2607C4.1838 34.5577 4.10552 35.6192 4.05451 36.6196C3.97352 38.2081 3.97888 38.6722 4.09698 40.2839C4.29685 43.0118 4.70724 45.4055 5.35236 47.6067C5.5513 48.2855 5.76632 49.0319 5.83014 49.2653C5.97302 49.7874 7.08576 52.5509 7.49195 53.3925C7.76217 53.9523 8.11036 54.6149 8.95155 56.1697C9.49479 57.174 11.1281 59.5298 12.2315 60.9007C13.0016 61.8576 13.8525 62.7826 15.0852 64.0028C16.0511 64.959 16.9734 65.8489 17.1346 65.9803C18.168 66.8223 22.2758 69.5917 23.0132 69.9436C23.2489 70.056 23.5445 70.173 23.67 70.2035C23.7955 70.2339 23.9877 70.3221 24.0971 70.3995C24.3195 70.5568 25.358 71.0085 27.3243 71.8031C29.2324 72.5742 31.5375 73.2092 33.5752 73.5251C34.2799 73.6343 35.0661 73.7584 35.3223 73.8008C35.5786 73.8431 36.68 73.9133 37.7698 73.9568C39.5437 74.0274 39.9441 74.0191 41.5899 73.8778C43.3297 73.7286 45.3978 73.3844 46.9001 72.9942C48.147 72.6702 50.6369 71.7625 51.7631 71.2212C52.4347 70.8984 52.9982 70.6343 53.0151 70.6343C53.0775 70.6343 54.7425 69.6796 54.9679 69.5145C55.0961 69.4208 55.4804 69.1781 55.8221 68.9753C56.1638 68.7725 56.6355 68.445 56.8704 68.2476C57.1053 68.0501 57.5887 67.6828 57.9448 67.4314C59.4801 66.3469 62.7295 63.0855 64.3601 60.9925C64.9172 60.2773 65.7645 59.0556 66.2428 58.2777C67.0212 57.0116 67.4269 56.2384 68.4016 54.1639C68.9666 52.9614 69.8827 50.0253 70.2221 48.3293C70.7245 45.8188 70.7574 45.5794 70.9325 43.1598C71.0933 40.9364 70.8012 37.1109 70.2589 34.3378C70.1182 33.618 69.5262 31.3687 69.246 30.4891C68.8445 29.2282 67.7812 26.7257 67.0463 25.3119C66.075 23.4435 65.8937 23.1371 64.764 21.4547C63.8374 20.0747 63.68 19.8698 62.128 18.0217C60.8702 16.5239 58.6272 14.3903 57.181 13.3159C57.0382 13.2098 56.6565 12.9128 56.3329 12.6558C55.5936 12.0686 55.3363 11.8959 53.8032 10.9565C52.6598 10.2557 50.0172 8.89337 49.0745 8.51845C47.7924 8.0086 45.6718 7.29455 44.7957 7.0777C42.2916 6.45792 41.898 6.38996 39.166 6.10499C37.9774 5.98094 35.7389 5.96535 34.1964 6.07027ZM37.3024 22.7617C40.0952 23.2227 42.2865 24.0905 44.6404 25.6676C46.293 26.7749 48.1113 28.4886 48.4566 29.2642C48.6752 29.7553 48.698 30.398 48.5156 30.9297C48.3948 31.282 48.3843 31.2906 48.0692 31.2898C47.5028 31.2885 46.9754 30.9707 46.0418 30.0681C44.8019 28.8691 44.1295 28.372 42.8092 27.6778C40.9079 26.6782 38.9626 26.1994 36.7697 26.191C34.6413 26.1829 33.337 26.5096 30.915 27.6574C28.4586 28.8215 27.0692 29.8157 25.8918 31.252C25.0373 32.2944 24.409 33.3547 24.3031 33.9328C24.2575 34.1816 24.2702 34.2221 24.3934 34.2221C24.4722 34.2221 24.5699 34.1921 24.6104 34.1554C24.677 34.0951 25.1113 33.8639 27.0914 32.8348C27.6585 32.54 27.7531 32.5146 28.1785 32.542C29.762 32.644 30.7892 34.3778 30.1101 35.8025C29.8716 36.3028 29.7127 36.4354 28.2561 37.3474C27.6582 37.7219 26.9419 38.1727 26.6643 38.3495C26.3867 38.5261 25.7486 38.9281 25.2465 39.2429C24.7442 39.5576 24.1152 39.9533 23.8487 40.1222C23.2489 40.5023 22.8177 40.5293 22.1605 40.2279C21.6046 39.9728 21.2875 39.6038 20.4466 38.2336C20.0691 37.6184 19.5639 36.8026 19.324 36.4207C19.084 36.0388 18.6402 35.3272 18.3375 34.8392C18.0349 34.3513 17.4757 33.4555 17.0949 32.8486C16.1095 31.278 15.9987 31.0456 15.962 30.4716C15.9281 29.9433 16.0772 29.2848 16.2308 29.2848C16.4465 29.2848 17.0184 29.5918 17.2721 29.8438C17.4225 29.9932 17.9947 30.7877 18.5437 31.6094C19.0926 32.4312 19.5675 33.132 19.5988 33.1669C19.668 33.2438 21.536 32.3259 21.6703 32.149C21.7226 32.0799 21.8767 31.7978 22.0125 31.522C23.1177 29.2785 23.4693 28.6951 24.4529 27.4719C25.5889 26.0593 27.0579 24.7811 28.5279 23.9263C29.5479 23.3331 31.2824 22.8769 33.4975 22.6192C34.0795 22.5514 36.6008 22.6459 37.3024 22.7617ZM51.952 39.9001C52.4928 40.156 52.7316 40.4171 53.3846 41.4671C54.1039 42.6238 54.542 43.3295 54.8968 43.9037C55.2833 44.5289 55.6941 45.19 56.0711 45.7938C58.4542 49.6095 58.3729 49.45 58.3331 50.2342C58.3173 50.5442 58.2817 50.8204 58.2539 50.848C58.226 50.8757 58.0636 50.9169 57.893 50.9396C57.4655 50.9966 56.7912 50.772 56.4057 50.4442C56.2329 50.2972 55.634 49.4945 55.0748 48.6604C54.5156 47.8263 54.0128 47.0964 53.9576 47.0383C53.8735 46.9502 53.7254 47.0332 53.0536 47.545L52.2502 48.1572L51.609 49.3785C50.6321 51.2393 49.877 52.2952 48.5777 53.6177C48.2059 53.9961 47.6921 54.4421 47.4358 54.6086C46.7966 55.0243 45.0961 55.8375 44.2633 56.1259C40.8839 57.2961 37.1562 57.2842 33.6067 56.0919C32.7645 55.809 31.6371 55.3361 31.1486 55.0609C30.9885 54.9706 30.7264 54.8233 30.5662 54.7334C29.248 53.9935 27.8742 52.9449 26.6934 51.7773C25.8152 50.909 25.6514 50.7079 25.5092 50.3231C25.3493 49.8902 25.2974 49.2539 25.3931 48.8988C25.4508 48.6851 25.6096 48.6795 26.1231 48.8733C26.4224 48.9863 26.741 49.2381 27.4677 49.936C28.9707 51.3793 30.3183 52.2873 31.9097 52.9287C33.7296 53.6623 35.0658 53.9299 36.9142 53.931C39.4361 53.9326 41.6213 53.2634 43.7005 51.8531C45.6621 50.5226 46.9941 49.3705 47.8965 48.2238C48.713 47.1864 49.2871 46.1006 49.1423 45.8679C49.1136 45.8218 48.6741 46.008 48.0706 46.3218C45.9293 47.4353 45.9112 47.4433 45.4378 47.4773C44.5669 47.5399 43.7887 47.1331 43.3627 46.3923C43.0115 45.7817 42.9239 45.2538 43.0807 44.6934C43.2981 43.9166 43.0932 44.0761 46.6205 41.9375C47.1544 41.6139 48.0104 41.0936 48.5229 40.7812C49.824 39.9884 50.0809 39.8484 50.4507 39.7309C50.8744 39.5963 51.4459 39.6607 51.952 39.9001Z" fill="#A0B4C0"/>
<path fill-rule="evenodd" clip-rule="evenodd" d="M34.7012 6.06784C34.0178 6.09754 33.1967 6.15933 32.8764 6.20531C30.077 6.60662 30.0261 6.61719 27.4066 7.34705C26.0033 7.73802 22.8017 8.89233 22.5915 9.08296C22.551 9.11983 22.473 9.14992 22.4183 9.14992C22.255 9.14992 21.1194 9.71192 19.7214 10.4846C16.9287 12.0281 14.014 14.3636 12.0008 16.6708C11.6309 17.0947 11.2637 17.5113 11.1847 17.5966C10.5231 18.3108 8.72111 20.9873 8.06799 22.2259C7.77711 22.7775 7.44368 23.4024 7.32704 23.6145C6.69924 24.7563 5.69506 27.4716 5.16843 29.451C4.91615 30.399 4.68483 31.3309 4.65431 31.5218C4.15579 34.6414 4.13094 34.894 4.08917 37.2691C4.0331 40.4551 4.17994 42.1736 4.77459 45.2921C5.22411 47.6494 6.50418 51.3973 7.62025 53.6237C8.74099 55.8596 8.95111 56.2254 10.1906 58.0981C11.5783 60.1947 13.0329 61.9593 14.8967 63.807C16.3649 65.2625 17.1913 66.0259 17.5963 66.3007C17.6936 66.3667 17.7908 66.4406 17.8121 66.4648C17.8643 66.5239 19.0746 67.3793 19.5593 67.6997C19.7728 67.8408 20.5631 68.3662 21.3156 68.8673C22.5741 69.7054 23.2078 70.0605 23.7136 70.2109C23.8204 70.2427 23.9951 70.3276 24.1018 70.3997C24.2086 70.4717 24.6454 70.6785 25.0725 70.8591C25.4996 71.0397 25.9538 71.2338 26.0819 71.2903C26.884 71.6442 28.8075 72.3785 29.2656 72.5057C29.8273 72.6617 31.3112 73.0625 31.7893 73.1874C32.0634 73.2591 32.9231 73.4123 33.9247 73.568C34.2236 73.6145 34.6604 73.6843 34.8953 73.7232C36.282 73.9526 40.4128 74.053 41.3791 73.8809C41.6354 73.8353 42.057 73.7977 42.316 73.7975C42.7668 73.797 43.2524 73.7338 44.0969 73.5654C44.3104 73.5228 44.7472 73.4362 45.0675 73.3729C46.6054 73.0691 47.1674 72.9208 48.7075 72.4122C49.6203 72.1107 50.5463 71.7827 50.7652 71.6832C52.233 71.016 54.2145 69.9934 54.8806 69.5593C55.3131 69.2775 55.8369 68.9489 56.0448 68.8291C56.2526 68.7093 56.637 68.4308 56.8989 68.2102C57.1608 67.9897 57.5536 67.6898 57.7717 67.5438C58.6117 66.9814 59.4285 66.2407 61.5519 64.1154C64.6171 61.0474 66.5942 58.1635 68.4008 54.1252C69.0896 52.5854 69.8958 50.0096 70.2358 48.2622C70.2812 48.0288 70.3462 47.699 70.3804 47.5293C70.6465 46.2048 70.7354 45.4718 70.9323 42.9778C71.0504 41.4817 70.8852 38.1771 70.6161 36.6519C70.5786 36.4398 70.5065 35.9711 70.4557 35.6105C70.2319 34.0193 69.5137 31.1463 69.0191 29.8632C67.8793 26.9069 67.5958 26.286 66.3602 24.0429C65.8235 23.0684 63.8936 20.1036 63.5707 19.7573C63.4915 19.6724 63.1854 19.3079 62.8903 18.9473C62.5953 18.5866 62.1024 17.9952 61.7951 17.6329C61.1324 16.8517 58.6861 14.501 57.93 13.9185C57.6372 13.693 57.0432 13.2286 56.6099 12.8864C55.7888 12.238 55.0358 11.7167 54.1138 11.1584C53.8149 10.9774 53.3139 10.6738 53.0007 10.4837C52.0868 9.92939 49.235 8.57967 48.0959 8.16247C46.1167 7.43739 45.1282 7.13768 43.7241 6.83674C43.5448 6.79825 43.0661 6.69425 42.6604 6.60554C41.9275 6.44523 41.3984 6.36608 40.0591 6.21642C37.9405 5.97959 37.2024 5.95914 34.7012 6.06784ZM36.7589 22.6869C38.0227 22.8614 38.468 22.9391 38.9719 23.073C41.3246 23.6978 43.5702 24.7899 45.4558 26.2264C46.2157 26.8053 46.3727 26.9385 47.0476 27.5777C47.8019 28.2921 48.2578 28.8298 48.4758 29.2623C48.695 29.6974 48.7002 30.5714 48.4862 31.0397C48.4039 31.22 48.319 31.3675 48.2976 31.3675C48.0882 31.3675 47.3837 31.1599 47.1524 31.03C46.9919 30.9399 46.5182 30.5349 46.0999 30.1301C45.2098 29.2687 44.7766 28.9115 43.9804 28.3825C42.6801 27.5185 41.4074 26.9672 39.7355 26.5437C38.625 26.2624 37.6086 26.1714 36.1765 26.2252C34.1813 26.3002 33.0219 26.6394 30.462 27.8978C27.8185 29.1972 26.3636 30.4053 25.068 32.3771C24.4968 33.2466 24.1099 34.2219 24.3363 34.2219C24.3866 34.2219 24.7475 34.0526 25.1383 33.8456C27.6967 32.4907 27.6665 32.5035 28.2176 32.5426C28.8044 32.5843 29.1081 32.722 29.597 33.1677C30.081 33.6088 30.3139 34.1518 30.3139 34.839C30.3139 35.6214 30.0812 36.0997 29.4752 36.563C29.2169 36.7604 28.9886 36.922 28.9677 36.922C28.9316 36.922 26.3214 38.5573 24.1407 39.9459C23.376 40.4329 23.2926 40.4706 22.9793 40.4706C22.6527 40.4706 21.8277 40.104 21.5157 39.8203C21.3959 39.7113 21.0142 39.1622 20.6674 38.5999C20.3207 38.0377 19.9051 37.3694 19.744 37.1148C19.5829 36.8602 19.1406 36.1486 18.7612 35.5333C18.3818 34.9181 17.8855 34.1197 17.6584 33.759C16.1111 31.302 15.8057 30.6681 15.9154 30.1414C16.1155 29.181 16.1388 29.1633 16.7812 29.4814C17.266 29.7214 17.4476 29.9406 18.6623 31.7533C19.1884 32.5382 19.6257 33.189 19.6341 33.1995C19.6788 33.2552 21.5229 32.2657 21.6478 32.119C21.7288 32.024 22.0129 31.4948 22.2791 30.9433C23.5713 28.267 25.0999 26.3599 27.2144 24.7863C28.8751 23.5503 30.0427 23.1068 32.7211 22.6943C33.6361 22.5533 35.7633 22.5495 36.7589 22.6869ZM52.068 39.9454C52.3094 40.072 52.6079 40.3027 52.7313 40.4581C52.8547 40.6135 53.738 42.0077 54.6943 43.5564C55.6505 45.1051 56.7815 46.9276 57.2077 47.6065C58.2482 49.2639 58.3441 49.4798 58.345 50.166C58.3456 50.5674 58.3122 50.7532 58.2238 50.8411C57.9477 51.1152 56.8709 50.8836 56.3554 50.4391C56.2216 50.3238 55.6164 49.4912 55.0103 48.5889C54.2936 47.5218 53.8765 46.9676 53.817 47.003C53.7667 47.033 53.389 47.3123 52.9777 47.6237L52.2298 48.1898L51.5653 49.4557C50.5528 51.3845 49.8541 52.3535 48.4973 53.7108C47.9655 54.2427 47.5978 54.5278 46.9934 54.8766C45.1387 55.9471 43.3929 56.5498 41.2238 56.8685C40.2078 57.0178 38.0314 57.0376 37.0695 56.9064C33.0437 56.3572 29.6863 54.7086 26.742 51.8351C25.8306 50.9457 25.67 50.7513 25.5125 50.3468C25.2676 49.718 25.2781 48.7964 25.5312 48.6999C25.5861 48.679 25.8356 48.7445 26.0857 48.8455C26.4369 48.9873 26.7094 49.1942 27.2819 49.7538C28.527 50.9709 29.6274 51.7987 30.8186 52.4147C32.8685 53.4745 34.5866 53.8899 36.9297 53.8924C38.4385 53.8939 39.5006 53.7337 40.7579 53.3149C41.7908 52.9709 43.1555 52.2677 43.9804 51.6544C44.1299 51.5432 44.4618 51.2991 44.7181 51.112C46.7737 49.6105 47.9644 48.3741 48.8217 46.851C49.0906 46.3733 49.1964 45.8707 49.0279 45.8707C48.9854 45.8707 48.696 46.0055 48.3848 46.1702C45.8144 47.531 45.5316 47.6371 44.8793 47.4849C44.1085 47.305 43.6238 46.93 43.275 46.2436C42.9575 45.6187 42.9062 45.0362 43.1193 44.4756C43.3201 43.9473 43.3976 43.8774 44.5628 43.1706C47.1064 41.6278 48.2706 40.9194 48.8724 40.5484C49.8016 39.9755 49.9784 39.8799 50.36 39.7439C50.8384 39.5736 51.51 39.6528 52.068 39.9454Z" fill="#71ACCC"/>
<path fill-rule="evenodd" clip-rule="evenodd" d="M34.9243 6.06395C32.1116 6.20929 29.5465 6.6953 26.3141 7.69548C24.9521 8.11685 21.9935 9.29947 21.018 9.81241C19.1467 10.7963 18.3948 11.2346 17.5396 11.8399C17.1552 12.112 16.6863 12.4425 16.4975 12.5744C15.7303 13.1105 14.8485 13.8599 13.3561 15.2443C12.8246 15.7373 11.1809 17.592 10.6039 18.3499C8.13531 21.5921 6.2119 25.5436 5.16874 29.516C4.73887 31.1532 4.60927 31.7974 4.37352 33.4697C4.33315 33.7561 4.26303 34.2421 4.21768 34.5497C4.08575 35.4438 4.0338 39.2024 4.13576 40.4706C4.34565 43.0808 4.76877 45.5981 5.29625 47.375C5.4222 47.7993 5.63768 48.5283 5.77512 48.995C6.01809 49.8203 6.91946 52.116 7.45307 53.2686C8.04927 54.5565 9.27468 56.7164 10.1493 58.021C11.1555 59.5216 11.4479 59.9172 12.3937 61.0572C13.6885 62.6177 14.2422 63.2119 15.5595 64.4543C17.1192 65.9253 17.8053 66.4829 19.3255 67.515C22.0137 69.34 22.7429 69.806 23.1929 69.9871C23.4575 70.0936 23.9011 70.2963 24.1787 70.4376C24.6757 70.6906 27.4429 71.8547 28.3125 72.1767C29.5334 72.6286 31.893 73.2346 33.2638 73.4483C33.9258 73.5515 34.6946 73.6717 34.9722 73.7155C35.851 73.8544 36.2143 73.8831 37.8841 73.9461C41.462 74.0809 45.1494 73.5598 48.5998 72.4316C49.6289 72.0952 50.7971 71.6518 51.3564 71.3855C51.8903 71.1313 52.5717 70.807 52.8706 70.6649C53.6601 70.2896 54.268 69.9466 54.9284 69.5038C55.2487 69.2891 55.704 69.0052 55.9402 68.873C56.1765 68.7408 56.6132 68.4316 56.9109 68.1858C57.2085 67.94 57.5918 67.6486 57.7626 67.538C58.3948 67.129 59.2847 66.33 61.0889 64.5514C63.5397 62.1355 64.7914 60.6024 66.2242 58.2614C67.7251 55.8091 68.5331 54.0455 69.4095 51.3086C70.6429 47.4574 71.135 43.1185 70.8139 38.9277C70.7472 38.0579 70.6609 37.1379 70.6221 36.8833C70.5832 36.6288 70.4792 35.9518 70.391 35.379C70.1823 34.0237 69.5036 31.2948 69.0863 30.1332C67.8987 26.8271 66.6659 24.3656 64.816 21.6069C61.1933 16.2041 56.2817 11.9511 50.5233 9.2305C48.7156 8.37651 46.5554 7.57097 44.9503 7.15246C41.5499 6.26592 38.153 5.89709 34.9243 6.06395ZM36.9193 22.6865C37.8944 22.8232 38.3899 22.9152 39.031 23.0787C42.0666 23.8529 45.1077 25.6092 47.4373 27.9337C48.4236 28.9178 48.6404 29.3268 48.6349 30.1931C48.6324 30.5979 48.5879 30.8755 48.4962 31.0589C48.3688 31.3136 48.3413 31.3277 48.0146 31.3076C47.2807 31.2624 47.0473 31.1186 45.8848 29.9947C45.4562 29.5805 44.9483 29.119 44.7561 28.9693C42.3496 27.0948 39.1925 26.081 36.2146 26.2263C34.7547 26.2976 33.1957 26.6615 31.9438 27.2234C29.845 28.1654 28.8535 28.7054 27.8671 29.444C26.2327 30.6677 24.6133 32.7164 24.346 33.8988C24.2661 34.252 24.3304 34.3059 24.6079 34.1184C24.6921 34.0615 25.4129 33.6796 26.2096 33.2698C27.5213 32.5951 27.6982 32.5247 28.081 32.5247C28.63 32.5247 28.9411 32.6331 29.4338 32.9963C29.921 33.3554 30.322 34.0872 30.3726 34.7097C30.412 35.1942 30.1751 35.8834 29.8382 36.2647C29.7138 36.4054 28.8526 36.9981 27.9243 37.582C26.996 38.166 25.6767 38.9977 24.9925 39.4303C24.3083 39.8628 23.6299 40.2778 23.4848 40.3523C22.9121 40.6465 21.8294 40.2847 21.3323 39.633C21.1821 39.436 20.5854 38.5111 20.0062 37.5777C18.5828 35.2835 18.0981 34.5074 17.0432 32.8333C15.8535 30.9451 15.7331 30.5864 15.9921 29.7015C16.1348 29.2136 16.2262 29.1869 16.7851 29.4703C17.2854 29.7239 17.4067 29.8694 18.6008 31.6476L19.6435 33.2007L20.6463 32.6891L21.6492 32.1775L22.391 30.7118C23.1923 29.1285 23.6136 28.4656 24.5685 27.2863C25.6507 25.9497 27.5416 24.3807 28.8766 23.7117C29.6466 23.3258 31.1491 22.9157 32.6038 22.6943C33.5598 22.5488 35.907 22.5446 36.9193 22.6865ZM52.128 39.9724C52.6121 40.2543 52.8046 40.4838 53.4841 41.5892C53.8643 42.2075 55.3664 44.6223 56.8434 46.9893C58.3217 49.3583 58.3446 49.4068 58.3448 50.1621C58.345 50.9164 58.2747 51.0053 57.6888 50.9913C57.1775 50.9791 56.5027 50.6668 56.1583 50.2829C56.0156 50.124 55.4622 49.3282 54.9284 48.5147C54.3945 47.701 53.9212 47.0336 53.8765 47.0316C53.7896 47.0276 52.7071 47.8295 52.3373 48.1718C52.2148 48.2851 51.9634 48.6991 51.7788 49.0917C50.805 51.1613 48.9927 53.537 47.6774 54.468C46.1229 55.5683 43.6655 56.5134 41.4172 56.8755C40.3206 57.0521 37.8213 57.0498 36.6805 56.8711C32.8348 56.2688 29.5924 54.6411 26.7201 51.8712C25.9415 51.1203 25.695 50.8305 25.5324 50.4748C25.0885 49.5036 25.2281 48.5541 25.79 48.7228C26.3021 48.8765 26.5781 49.0547 27.0518 49.5377C29.4692 52.0026 32.254 53.4332 35.3881 53.8203C36.4422 53.9505 38.4327 53.8743 39.4137 53.6662C41.0956 53.3094 42.5627 52.6312 44.245 51.4327C46.74 49.6553 47.7389 48.6553 48.7357 46.9371C49.0498 46.3957 49.2107 45.8707 49.0626 45.8707C49.0395 45.8707 48.7687 46.0045 48.4608 46.1682C48.1529 46.3318 47.4318 46.705 46.8584 46.9975C45.8576 47.508 45.7939 47.5293 45.2666 47.5285C44.7893 47.5279 44.6527 47.4931 44.2248 47.2632C43.6729 46.9668 43.4536 46.7209 43.1669 46.0767C42.8516 45.3685 42.947 44.4488 43.3863 43.9599C43.4728 43.8635 44.3493 43.295 45.3341 42.6963C46.3188 42.0976 47.3341 41.4771 47.5904 41.3172C50.1775 39.7037 50.4027 39.5983 51.139 39.6576C51.5472 39.6905 51.7604 39.7583 52.128 39.9724Z" fill="#618FAB"/>
<path fill-rule="evenodd" clip-rule="evenodd" d="M33.654 6.18051C33.1628 6.23636 32.4814 6.32223 32.1398 6.37137C31.7981 6.42058 31.3089 6.49048 31.0527 6.52689C30.4589 6.61113 29.8085 6.73433 29.4608 6.82845C29.3113 6.86895 28.927 6.97117 28.6067 7.05556C27.1828 7.43102 27.0626 7.46497 26.316 7.70265C26.1879 7.74346 26.0131 7.80325 25.9277 7.83549C25.8423 7.86782 25.6326 7.93601 25.4618 7.98716C25.291 8.03823 25.0813 8.1092 24.9959 8.14476C24.9105 8.18033 24.5436 8.3222 24.1806 8.46005C23.8176 8.59791 23.4873 8.74001 23.4468 8.77596C23.4062 8.81191 23.3272 8.8413 23.2712 8.8413C23.2152 8.8413 23.0039 8.91474 22.8014 9.00454C22.5991 9.09434 22.3111 9.22001 22.1617 9.2838C21.3181 9.64361 20.0708 10.2891 18.9392 10.9514C18.2038 11.3817 18.22 11.3714 17.5706 11.8306C17.2556 12.0532 16.8345 12.3498 16.6349 12.4896C15.9768 12.9503 15.4283 13.3771 15.1272 13.6628C15.0378 13.7477 14.6757 14.0756 14.3226 14.3913C13.3356 15.274 12.6801 15.9221 12.1363 16.5531C11.8634 16.87 11.5762 17.1998 11.4983 17.286C10.8647 17.9874 10.2134 18.8718 9.07232 20.5799C8.48016 21.4664 7.23558 23.7961 6.74692 24.9326C6.55536 25.3782 6.39858 25.765 6.39858 25.792C6.39858 25.819 6.22425 26.2854 6.01126 26.8285C5.50474 28.1197 4.79012 30.7814 4.61642 32.0232C4.56307 32.4051 4.50445 32.7661 4.48628 32.8256C4.42353 33.0305 4.23205 34.6488 4.14306 35.7262C4.0036 37.4137 4.13398 41.3715 4.37749 42.8428C4.42144 43.108 4.49505 43.5419 4.54118 43.8071C4.58738 44.0723 4.65532 44.4628 4.69228 44.6749C4.93665 46.078 5.03208 46.463 5.64855 48.5322C6.59061 51.6943 8.1847 55.0446 10.1736 58.0427C11.9243 60.6816 14.5594 63.6672 16.7929 65.5425C17.0203 65.7335 17.2818 65.9604 17.3739 66.0468C17.4661 66.1332 17.7162 66.3221 17.9297 66.4666C18.1432 66.6111 18.3296 66.7573 18.3438 66.7917C18.3581 66.8259 18.4192 66.854 18.4797 66.854C18.5403 66.854 18.5897 66.8887 18.5897 66.9311C18.5897 66.9736 18.6421 67.0083 18.7062 67.0083C18.7703 67.0083 18.8227 67.0355 18.8227 67.0688C18.8227 67.1021 18.9202 67.1866 19.0394 67.2565C19.1586 67.3264 19.5517 67.6019 19.913 67.8687C21.6114 69.1227 22.8557 69.8867 23.6153 70.1419C23.8194 70.2105 24.0738 70.3256 24.1806 70.3977C24.3967 70.5437 25.6726 71.11 26.6266 71.4834C26.9682 71.6171 27.3701 71.7794 27.5196 71.8439C28.1304 72.1077 28.7419 72.3356 29.0726 72.4227C29.3713 72.5014 29.5304 72.5459 30.3926 72.7924C30.7129 72.8839 31.0973 72.9881 31.2468 73.0239C31.3963 73.0597 31.7282 73.1409 31.9845 73.2045C32.2407 73.2681 32.7124 73.3593 33.0328 73.4073C33.922 73.5403 34.4998 73.6311 35.0236 73.7203C36.2366 73.9267 39.795 74.0173 41.1323 73.8758C41.5249 73.8343 42.2654 73.7634 42.7779 73.7185C43.2904 73.6734 43.832 73.6056 43.9815 73.5678C44.131 73.5299 44.4629 73.4602 44.7192 73.4127C44.9754 73.3652 45.3423 73.2936 45.5345 73.2537C45.7267 73.2136 46.1405 73.1275 46.454 73.0621C46.7675 72.9968 47.8059 72.6843 48.7614 72.3675C50.169 71.901 50.8423 71.624 52.3069 70.9087C53.3013 70.4232 54.4084 69.8294 54.767 69.5892C55.1258 69.349 55.58 69.0645 55.7765 68.957C55.973 68.8495 56.4483 68.5128 56.8327 68.2087C57.2171 67.9045 57.7063 67.5375 57.9198 67.3931C58.1333 67.2486 58.3779 67.0659 58.4634 66.9871C58.5488 66.9081 58.7661 66.7332 58.9464 66.5981C59.5088 66.1767 62.9471 62.6887 63.5989 61.8782C64.6942 60.5162 65.3875 59.581 65.8294 58.8695C66.6975 57.4721 67.2858 56.4415 67.5969 55.7733C67.772 55.3972 68.0371 54.8291 68.1858 54.5109C68.6182 53.5862 68.8588 52.9485 69.3643 51.3865C70.2319 48.7067 70.6199 46.5606 70.8556 43.1398C71.0285 40.631 70.6854 36.477 70.0839 33.7976C69.9361 33.139 69.8605 32.8504 69.5286 31.6761C69.4506 31.4003 69.331 30.9664 69.2626 30.7118C69.1943 30.4572 69.1056 30.1795 69.0656 30.0946C69.0256 30.0098 68.8491 29.5585 68.6734 29.0917C68.0827 27.5225 67.7249 26.6912 67.2789 25.8517C67.076 25.4698 66.7411 24.8276 66.5346 24.4245C66.3281 24.0214 66.1399 23.6743 66.1162 23.6531C66.0925 23.6318 65.988 23.4583 65.884 23.2673C65.481 22.5274 63.563 19.7636 63.1224 19.2879C63.0797 19.2418 62.9224 19.0529 62.773 18.8682C61.8967 17.7854 61.2271 17.0422 60.4809 16.3243C60.0179 15.8788 59.3746 15.2603 59.0512 14.9498C58.7279 14.6394 58.2712 14.2402 58.0363 14.0627C57.8014 13.8852 57.5625 13.6961 57.5054 13.6424C57.4483 13.5887 57.2736 13.4498 57.1171 13.3338C56.9607 13.2178 56.7946 13.0881 56.7479 13.0457C56.7013 13.0033 56.5472 12.8817 56.4056 12.7757C56.264 12.6696 56.1099 12.5459 56.0633 12.5007C55.9434 12.3845 54.3238 11.3099 54.2685 11.3099C54.2434 11.3099 54.0217 11.1742 53.7759 11.0084C53.2132 10.6287 52.6799 10.3134 52.5037 10.2561C52.429 10.2318 52.3678 10.1812 52.3678 10.1437C52.3678 10.1063 52.3329 10.0756 52.2902 10.0756C52.2476 10.0756 51.505 9.73363 50.6401 9.31566C49.7752 8.89762 48.8667 8.48104 48.6211 8.38993C47.5662 7.99827 47.3307 7.91557 46.8158 7.75557C46.5168 7.66269 46.2023 7.5597 46.1169 7.52668C45.8426 7.42069 45.6568 7.35936 45.3986 7.28954C45.2598 7.25197 45.0153 7.18563 44.8551 7.14212C44.695 7.09853 44.4066 7.03087 44.2145 6.99169C44.0223 6.95257 43.7078 6.88183 43.5156 6.83462C43.3234 6.78741 43.0089 6.71782 42.8167 6.67994C42.6246 6.64214 42.2926 6.57395 42.0791 6.52836C41.8655 6.48284 41.3763 6.41086 40.992 6.36843C40.6076 6.32601 39.9611 6.25349 39.5554 6.20728C38.4194 6.07791 34.7049 6.06101 33.654 6.18051ZM36.8556 22.656C37.9188 22.8123 38.7539 22.9956 39.9825 23.3421C41.3579 23.73 43.5235 24.8088 44.9445 25.8139C46.3776 26.8276 48.1055 28.4619 48.4424 29.1224C48.7114 29.6497 48.7534 30.5529 48.5317 31.0418C48.3879 31.3589 48.3741 31.3675 48.0121 31.3675C47.8076 31.3675 47.6187 31.3328 47.5923 31.2904C47.5659 31.2479 47.4915 31.2132 47.4269 31.2132C47.2267 31.2132 46.6913 30.7988 45.9187 30.046C45.5108 29.6484 45.0598 29.2364 44.9164 29.1303C44.7731 29.0242 44.6176 28.9008 44.571 28.8561C44.0312 28.3378 41.9453 27.2251 41.0254 26.9646C40.8362 26.9109 40.6481 26.8383 40.6076 26.8029C40.567 26.7677 40.4206 26.7388 40.2821 26.7388C40.1437 26.7388 40.0113 26.708 39.9878 26.6702C39.9643 26.6325 39.8312 26.5818 39.692 26.5577C39.5528 26.5336 39.2467 26.4751 39.0119 26.4278C38.3633 26.2971 35.7324 26.2436 35.0905 26.3479C33.9856 26.5278 33.0574 26.7793 32.2174 27.1266C31.4097 27.4607 29.7109 28.284 29.189 28.5944C28.9755 28.7214 28.7484 28.848 28.6843 28.8757C28.6203 28.9035 28.5504 28.9487 28.529 28.9762C28.5077 29.0037 28.2757 29.1697 28.0137 29.3452C26.4738 30.3761 24.547 32.7867 24.3665 33.9083C24.3203 34.1956 24.329 34.2198 24.4616 34.1712C24.542 34.1418 24.6775 34.074 24.763 34.0206C24.8484 33.9672 25.3201 33.7122 25.8112 33.4538C27.8653 32.3735 28.0397 32.3231 28.7734 32.5973C29.6848 32.9381 30.3036 33.7759 30.3749 34.766C30.406 35.1979 30.3815 35.3347 30.2078 35.6996C30.0959 35.9346 29.9432 36.1958 29.8684 36.28C29.7429 36.4213 28.1132 37.5391 28.0326 37.5391C28.013 37.5391 27.7409 37.7072 27.4282 37.9127C27.1155 38.1182 26.6324 38.425 26.3548 38.5946C26.0772 38.764 25.3958 39.1907 24.8406 39.5427C23.399 40.4565 23.3701 40.4706 22.935 40.4706C22.1426 40.4706 21.4569 39.9654 20.8406 38.9277C20.6516 38.6094 20.4764 38.3317 20.4513 38.3105C20.4262 38.2893 20.2384 37.9942 20.034 37.6548C19.8297 37.3153 19.4739 36.7426 19.2432 36.3819C19.0126 36.0212 18.753 35.6047 18.6662 35.4562C18.5794 35.3077 18.4306 35.0627 18.3355 34.9117C18.2405 34.7607 18.0591 34.4656 17.9326 34.256C17.806 34.0463 17.675 33.8631 17.6414 33.849C17.6078 33.8348 17.5803 33.7887 17.5803 33.7463C17.5803 33.7041 17.4629 33.49 17.3194 33.2706C16.138 31.4649 15.9448 31.0927 15.8936 30.5238C15.8545 30.0882 16.0472 29.2075 16.1816 29.2075C16.3649 29.2075 17.0295 29.5554 17.2592 29.7715C17.4029 29.9068 17.9915 30.7217 18.5671 31.5825C19.4458 32.8964 19.6379 33.1401 19.7636 33.1004C19.8459 33.0744 20.2946 32.8651 20.7607 32.6352L21.6082 32.2172L22.3081 30.8282C23.3496 28.7615 24.1053 27.6673 25.4172 26.3258C26.4123 25.3084 27.6968 24.32 28.7793 23.7386C29.4861 23.3591 30.9496 22.9429 32.4504 22.6946C33.2204 22.5672 36.0813 22.5422 36.8556 22.656ZM52.0471 39.8941C52.4704 40.1139 52.8774 40.531 53.1732 41.0477C53.2709 41.2182 53.5887 41.7396 53.8795 42.2063C54.8705 43.797 55.6543 45.0596 56.1305 45.8321C56.8328 46.9714 57.1785 47.5229 57.5882 48.1567C58.2909 49.2441 58.4675 49.7541 58.3768 50.4339C58.3052 50.9702 58.1849 51.0672 57.6514 51.0191C56.8835 50.95 56.2564 50.5539 55.7735 49.8334C55.6636 49.6693 55.2655 49.0664 54.8889 48.4936C54.5123 47.9208 54.1815 47.4348 54.1538 47.4136C54.1262 47.3924 54.0811 47.3142 54.0534 47.24C53.9855 47.0571 53.6708 47.0687 53.5325 47.2593C53.471 47.3441 53.3759 47.4136 53.3212 47.4136C53.2667 47.4136 53.2219 47.4408 53.2219 47.4741C53.2219 47.5074 53.1259 47.5912 53.0084 47.6604C52.4329 47.9995 52.2011 48.2945 51.63 49.4135C50.7319 51.1737 49.8637 52.3952 48.6187 53.6497C47.351 54.9273 45.3639 55.9549 42.9332 56.5901C42.1597 56.7922 41.6066 56.8779 40.1766 57.0172C39.04 57.1279 37.9286 57.0889 36.833 56.8997C36.5955 56.8588 36.3185 56.8252 36.2173 56.8252C36.1161 56.8252 35.926 56.7932 35.7949 56.754C35.6637 56.7148 35.3642 56.6414 35.1293 56.591C34.681 56.4946 33.802 56.2416 33.5375 56.1328C33.4521 56.0976 33.1725 55.9909 32.9163 55.8956C32.0514 55.574 30.3991 54.7433 29.8371 54.3475C29.7238 54.2676 29.5927 54.2023 29.5459 54.2023C29.4991 54.2023 29.4608 54.1676 29.4608 54.1251C29.4608 54.0827 29.4263 54.048 29.384 54.048C29.3419 54.048 29.2457 53.9979 29.1705 53.9366C29.0953 53.8753 28.8066 53.6585 28.529 53.4548C27.8323 52.9434 27.6858 52.8163 26.6791 51.8494C26.0329 51.2288 25.7322 50.8767 25.56 50.5389C25.1923 49.8178 25.1811 48.8124 25.5392 48.6759C25.6044 48.651 25.8582 48.7115 26.1034 48.8101C26.4441 48.9473 26.7151 49.1535 27.255 49.6866C28.3007 50.7191 29.4488 51.6405 30.198 52.049C31.141 52.563 32.0214 52.9707 32.5748 53.1497C33.4918 53.4463 33.9714 53.5752 34.4693 53.659C34.7682 53.7094 35.2022 53.7829 35.4335 53.8222C36.6569 54.0303 38.8885 53.8446 40.3319 53.4147C41.3052 53.1249 42.7309 52.476 43.3991 52.0189C45.411 50.6426 47.089 49.1988 47.9015 48.1449C48.7176 47.0863 49.3176 45.9478 49.0593 45.9478C48.9994 45.9478 47.2923 46.7987 46.7437 47.1019C45.754 47.649 45.0563 47.7127 44.2951 47.3257C43.4823 46.9124 43.0432 46.2404 42.9886 45.3258C42.958 44.8124 42.9786 44.6902 43.1602 44.3089C43.3598 43.8898 43.4032 43.8532 44.47 43.2046C45.0768 42.8357 45.6956 42.455 45.8451 42.3588C45.9946 42.2626 46.5187 41.9422 47.0099 41.6469C47.501 41.3516 48.1999 40.9265 48.5629 40.7022C50.2491 39.6605 50.3725 39.6094 51.0942 39.6525C51.4961 39.6765 51.7543 39.742 52.0471 39.8941Z" fill="#00467F"/>
<path fill-rule="evenodd" clip-rule="evenodd" d="M33.827 6.19666C33.9451 6.21432 34.1198 6.21386 34.2153 6.19558C34.3108 6.17729 34.2142 6.16279 34.0007 6.16333C33.7871 6.16395 33.709 6.17891 33.827 6.19666ZM38.3734 6.19396C38.4294 6.21625 38.4964 6.21348 38.5222 6.18786C38.548 6.16225 38.5021 6.14405 38.4203 6.14736C38.3298 6.15107 38.3114 6.16935 38.3734 6.19396ZM38.7568 6.19234C38.8102 6.21378 38.8975 6.21378 38.9509 6.19234C39.0043 6.17097 38.9606 6.15346 38.8538 6.15346C38.7471 6.15346 38.7034 6.17097 38.7568 6.19234ZM40.0186 6.31106C40.0186 6.34493 40.1409 6.3727 40.2904 6.3727C40.4398 6.3727 40.5621 6.35912 40.5621 6.34254C40.5621 6.32603 40.4398 6.29826 40.2904 6.2809C40.1409 6.26354 40.0186 6.27712 40.0186 6.31106ZM32.6623 6.35095C32.7803 6.36861 32.955 6.36815 33.0505 6.34987C33.146 6.33158 33.0494 6.31708 32.8359 6.31762C32.6224 6.31824 32.5442 6.3332 32.6623 6.35095ZM31.5353 6.50092C31.5887 6.52236 31.676 6.52236 31.7294 6.50092C31.7828 6.47955 31.7391 6.46204 31.6323 6.46204C31.5255 6.46204 31.4819 6.47955 31.5353 6.50092ZM41.5522 6.50092C41.6056 6.52236 41.693 6.52236 41.7463 6.50092C41.7997 6.47955 41.756 6.46204 41.6493 6.46204C41.5425 6.46204 41.4988 6.47955 41.5522 6.50092ZM30.5258 6.6586C30.6219 6.67696 30.7791 6.67696 30.8752 6.6586C30.9714 6.64016 30.8927 6.62512 30.7005 6.62512C30.5083 6.62512 30.4297 6.64016 30.5258 6.6586ZM32.0594 6.7754C31.8459 6.80965 31.575 6.84251 31.4576 6.84838C31.3402 6.85424 31.2441 6.88486 31.2441 6.91642C31.2441 6.94797 31.1023 6.96664 30.929 6.95784C30.7557 6.94905 30.5949 6.97235 30.5717 7.00968C30.5485 7.04702 30.4781 7.0579 30.4152 7.03399C30.3524 7.00999 30.2365 7.02473 30.1576 7.06669C30.0612 7.11792 30.0054 7.11661 29.9873 7.06268C29.9725 7.01856 29.7512 6.96695 29.4957 6.94797C29.0957 6.91835 29.0661 6.92459 29.2834 6.99248C29.4222 7.03591 29.5357 7.10936 29.5357 7.1558C29.5357 7.21427 29.5024 7.21265 29.4268 7.1504C29.3609 7.09601 29.3072 7.0903 29.2909 7.13589C29.2738 7.18365 29.1422 7.17871 28.931 7.12239C28.6745 7.05397 28.5632 7.05512 28.4467 7.12741C28.3635 7.17902 28.2076 7.22129 28.1003 7.22129C27.9929 7.22129 27.9051 7.25601 27.9051 7.29844C27.9051 7.34087 27.7653 7.37558 27.5945 7.37558C27.4236 7.37558 27.2839 7.4103 27.2839 7.45273C27.2839 7.49516 27.211 7.52987 27.1217 7.52987C26.983 7.52987 25.7817 7.88821 25.3038 8.0722C25.2184 8.10506 24.9388 8.2082 24.6826 8.30132C24.1199 8.50583 24.006 8.55088 23.5566 8.74698C23.3645 8.83091 22.9277 9.01027 22.586 9.14574C22.2443 9.28113 21.7494 9.49374 21.4862 9.6181C21.2229 9.74245 20.9897 9.84421 20.9681 9.84421C20.9465 9.84421 20.6263 10.0178 20.2565 10.2299C19.8867 10.4421 19.57 10.6157 19.5526 10.6157C19.4818 10.6157 18.1306 11.4406 17.7328 11.7266C15.7538 13.1498 15.6299 13.2444 14.9374 13.8587C14.5744 14.1807 14.1536 14.5538 14.0023 14.6878C13.4114 15.2111 12.6223 15.9999 12.2172 16.4722C11.9837 16.7445 11.6351 17.1437 11.4427 17.3594C10.8445 18.0297 10.2272 18.8751 8.90265 20.8373C8.39543 21.5888 7.02497 24.2124 6.68634 25.0803C5.80516 27.3387 5.6108 27.8647 5.5118 28.2587C5.44999 28.5047 5.32357 28.9838 5.23086 29.3232C4.76177 31.041 4.75346 31.0791 4.53852 32.4861C4.49317 32.7831 4.4413 33.1129 4.42337 33.219C4.2127 34.463 4.06648 36.3427 4.06641 37.8065C4.06633 39.2825 4.26892 42.346 4.41607 43.0935C4.43688 43.1996 4.47159 43.3905 4.4931 43.5178C4.8096 45.3912 5.10902 46.7715 5.34663 47.4522C5.4058 47.6219 5.56196 48.1481 5.6935 48.6215C6.0701 49.9764 6.99818 52.3232 7.73579 53.7858C9.18304 56.6554 10.4719 58.6603 12.3426 60.9525C13.5468 62.4278 15.8005 64.7711 16.0153 64.7711C16.0681 64.7711 16.0898 64.8058 16.0634 64.8483C16.037 64.8907 16.0699 64.9254 16.1364 64.9254C16.203 64.9254 16.2575 64.9775 16.2575 65.0411C16.2575 65.1048 16.2909 65.1568 16.3316 65.1568C16.3724 65.1568 16.5021 65.2523 16.6199 65.369C16.7376 65.4857 16.8615 65.5724 16.8952 65.5619C16.9288 65.5512 16.9563 65.5936 16.9563 65.6559C16.9563 65.7299 17.0011 65.7521 17.0855 65.7199C17.1724 65.6868 17.1964 65.7002 17.1586 65.7609C17.1249 65.815 17.1509 65.8511 17.2235 65.8511C17.2901 65.8511 17.3446 65.8776 17.3446 65.91C17.3446 65.9423 17.4232 66.0031 17.5193 66.045C17.6154 66.0869 17.694 66.1731 17.694 66.2368C17.694 66.3004 17.7464 66.3544 17.8105 66.3569C18.0118 66.3647 18.2 66.4811 18.1475 66.5654C18.1174 66.6138 18.1346 66.6234 18.1901 66.5893C18.3347 66.5005 18.6676 66.7527 18.616 66.912C18.5851 67.0076 18.5931 67.0183 18.6435 66.9488C18.6993 66.8719 18.7509 66.882 18.8824 66.9952C18.9746 67.0747 19.0245 67.1651 18.9933 67.1962C18.962 67.2272 18.9714 67.2456 19.0141 67.237C19.1789 67.204 19.2929 67.2431 19.247 67.3169C19.2206 67.3593 19.2536 67.394 19.3201 67.394C19.3866 67.394 19.4412 67.4288 19.4412 67.4712C19.4412 67.5136 19.4674 67.5442 19.4994 67.5392C19.6476 67.5159 19.757 67.5546 19.7183 67.6168C19.6059 67.7975 23.0957 70.0941 23.4828 70.0941C23.53 70.0941 24.0289 70.3163 24.5915 70.588C25.7839 71.1638 28.4618 72.24 29.3028 72.4815C30.2461 72.7523 31.4326 73.0741 32.0206 73.2185C32.402 73.3123 34.3099 73.6172 35.6701 73.8018C36.3902 73.8996 40.5115 73.958 41.0669 73.8784C41.3231 73.8416 41.8997 73.7886 42.3481 73.7605C42.7965 73.7325 43.2333 73.6949 43.3187 73.6769C43.4042 73.659 43.5789 73.6254 43.707 73.6022C45.9617 73.194 46.9878 72.9427 48.6899 72.3816C50.0838 71.9221 50.8134 71.6278 52.0578 71.0226C53.8462 70.153 54.532 69.7847 54.9275 69.4817C55.2281 69.2515 55.9902 68.7826 56.0639 68.7826C56.0896 68.7826 56.4298 68.5276 56.8198 68.2159C57.2097 67.9043 57.6935 67.539 57.8948 67.4042C58.0961 67.2694 58.3756 67.0545 58.516 66.9268C58.6564 66.7989 58.8844 66.6175 59.0227 66.5235C59.4621 66.2248 62.9516 62.6809 63.5967 61.8782C64.696 60.5101 65.3857 59.5797 65.8267 58.8696C66.6948 57.4722 67.2831 56.4415 67.5942 55.7734C67.7693 55.3972 68.0343 54.8291 68.1831 54.5109C68.617 53.5829 68.8563 52.9458 69.3569 51.3865C69.8962 49.7066 69.9417 49.5407 70.1083 48.6479C70.1756 48.2873 70.302 47.6277 70.3892 47.1822C70.6889 45.6494 70.8207 43.9477 70.6442 43.8886C70.5887 43.8699 70.5619 44.0054 70.5673 44.2772C70.5723 44.5292 70.5445 44.6826 70.4972 44.6646C70.4535 44.6478 70.4204 44.3726 70.4224 44.0412C70.4253 43.5699 70.3973 43.4193 70.2865 43.3092C70.1179 43.1417 70.1116 43.0935 70.2583 43.0935C70.3317 43.0935 70.3673 43.0146 70.363 42.8618C70.3593 42.7344 70.4141 42.5668 70.4847 42.4893C70.6435 42.3149 70.6501 42.1678 70.4989 42.1678C70.4295 42.1678 70.4024 42.213 70.4295 42.2835C70.4542 42.3471 70.4356 42.3992 70.3883 42.3992C70.2989 42.3992 70.2675 42.2526 70.2932 41.9556C70.3015 41.8601 70.2757 41.782 70.236 41.782C70.1258 41.782 70.0751 41.9753 70.153 42.0976C70.1912 42.1574 70.2223 42.3452 70.2223 42.5149C70.2223 42.7423 70.2025 42.793 70.147 42.7078C70.0877 42.6166 70.0715 42.6343 70.0706 42.7913C70.0699 42.901 70.047 43.0128 70.0198 43.04C69.9659 43.0934 69.9174 43.5735 69.9183 44.0452C69.9188 44.2805 69.8857 44.3496 69.7568 44.3831C69.6602 44.4082 69.6112 44.4679 69.6355 44.5308C69.6579 44.5889 69.6424 44.6364 69.6011 44.6364C69.5597 44.6364 69.5258 44.6885 69.5258 44.7521C69.5258 44.8158 69.5675 44.8678 69.6183 44.8678C69.6692 44.8678 69.6489 44.9128 69.5733 44.9677C69.4833 45.0331 69.4251 45.1999 69.4049 45.4499C69.328 46.405 69.2723 46.836 69.2067 46.9839C69.1311 47.1545 69.1746 45.6009 69.2801 44.3664C69.403 42.9276 69.2129 39.1837 68.9506 37.8787C68.9327 37.7897 68.8959 37.5293 68.8687 37.3001C68.6855 35.7537 67.7538 32.0943 67.1882 30.6995C67.087 30.4499 67.0967 30.4743 66.6226 29.2846C66.1431 28.0815 66.1701 28.1397 65.3033 26.4348C64.5199 24.894 63.965 23.961 62.9378 22.4573C62.257 21.4609 61.0787 19.9214 60.542 19.3274C60.334 19.0971 60.0654 18.7872 59.9451 18.6387C59.4128 17.9812 57.4066 16.019 56.5545 15.3225C56.3217 15.1322 56.1136 14.9561 56.0923 14.9313C56.0413 14.8722 55.1653 14.2 54.1731 13.4587C52.2645 12.0328 50.4348 10.9684 47.8225 9.76436C47.2432 9.49736 45.9512 8.99562 45.843 8.99562C45.7988 8.99562 45.7019 8.96268 45.6278 8.92248C45.4067 8.8026 44.1897 8.36558 43.9584 8.32299C43.8405 8.30132 43.7248 8.25279 43.7015 8.2153C43.6781 8.17773 43.5758 8.14703 43.474 8.14703C43.3723 8.14703 43.271 8.11802 43.2489 8.08253C43.2269 8.04705 43.0764 8.01303 42.9145 8.00701C42.7365 8.00037 42.5818 7.94383 42.523 7.86391C42.4598 7.77804 42.4258 7.76686 42.4258 7.83197C42.4258 7.89746 42.3788 7.91251 42.2899 7.87555C42.2152 7.84439 41.9793 7.78553 41.7657 7.74472C41.5522 7.70391 41.3338 7.63463 41.2804 7.59074C41.2271 7.54684 41.1833 7.53797 41.1833 7.57099C41.1833 7.60393 41.1135 7.56806 41.028 7.4913C40.94 7.41215 40.8727 7.39024 40.8727 7.44077C40.8727 7.48975 40.8203 7.52987 40.7563 7.52987C40.6922 7.52987 40.6398 7.49114 40.6398 7.4437C40.6398 7.39348 40.559 7.37296 40.4457 7.39448C40.3389 7.41477 40.2515 7.40536 40.2515 7.37365C40.2515 7.34195 40.0856 7.29196 39.8827 7.26264C39.6798 7.23325 39.4371 7.16027 39.3432 7.10041C39.2212 7.02264 39.1572 7.01616 39.1189 7.0778C39.0827 7.13605 39.0424 7.12324 38.9945 7.03831C38.9556 6.96926 38.8885 6.91271 38.8454 6.91271C38.8023 6.91271 38.7872 6.94511 38.8118 6.98477C38.8507 7.04725 38.6144 7.05119 37.898 6.99989C37.8208 6.99441 37.7791 6.95514 37.8055 6.91271C37.8319 6.87028 37.8165 6.83557 37.7713 6.83557C37.7261 6.83557 37.6891 6.8743 37.6891 6.92174C37.6891 7.00606 37.5665 6.99094 37.2687 6.86982C37.1639 6.82716 37.1366 6.83603 37.1762 6.8996C37.2102 6.95429 37.1829 6.98986 37.1067 6.98986C37.0376 6.98986 37.0005 6.95846 37.0244 6.92012C37.083 6.82593 36.5059 6.78365 34.9325 6.76691C34.2064 6.7592 33.3503 6.74392 33.03 6.73297C32.7097 6.72201 32.2729 6.74107 32.0594 6.7754ZM29.6765 6.81111C29.7325 6.83341 29.7995 6.83063 29.8253 6.80502C29.8511 6.77941 29.8053 6.7612 29.7234 6.76452C29.633 6.76822 29.6146 6.78651 29.6765 6.81111ZM44.4253 7.11807C44.4787 7.13952 44.566 7.13952 44.6194 7.11807C44.6728 7.0967 44.6291 7.07919 44.5223 7.07919C44.4156 7.07919 44.3719 7.0967 44.4253 7.11807ZM45.0514 7.27398C45.1073 7.29628 45.1744 7.2935 45.2001 7.26789C45.2259 7.24228 45.1801 7.22407 45.0983 7.22739C45.0078 7.23109 44.9894 7.24937 45.0514 7.27398ZM46.9295 7.86799C46.9295 7.88427 46.9995 7.91575 47.0849 7.93796C47.1704 7.96018 47.2208 7.94684 47.1968 7.90842C47.155 7.84123 46.9295 7.80713 46.9295 7.86799ZM48.5602 8.41603C48.5602 8.46509 49.097 8.6875 49.2103 8.68534C49.2584 8.68442 49.1455 8.61499 48.9594 8.53105C48.5983 8.36828 48.5602 8.35732 48.5602 8.41603ZM51.6662 9.87452C51.6662 9.89119 51.7204 9.92552 51.7867 9.95082C51.8558 9.97713 51.8869 9.96417 51.8598 9.9205C51.8142 9.84714 51.6662 9.81204 51.6662 9.87452ZM51.9768 10.0288C51.9768 10.0455 52.031 10.0798 52.0973 10.1051C52.1664 10.1314 52.1976 10.1185 52.1704 10.0748C52.1248 10.0014 51.9768 9.96633 51.9768 10.0288ZM59.5866 15.5529C59.5866 15.5953 59.6236 15.63 59.6688 15.63C59.714 15.63 59.7294 15.5953 59.703 15.5529C59.6766 15.5105 59.6397 15.4758 59.6208 15.4758C59.6019 15.4758 59.5866 15.5105 59.5866 15.5529ZM37.1067 22.6925C37.6192 22.7611 38.4229 22.9199 38.8927 23.0454C40.7043 23.5292 41.1198 23.686 42.7364 24.4966C44.444 25.3529 45.9008 26.4098 47.3652 27.8548C48.4143 28.8899 48.648 29.29 48.6783 30.1024C48.7099 30.9516 48.4035 31.5139 47.7642 31.7789C47.6041 31.8454 47.4731 31.9317 47.4731 31.9709C47.4731 32.0101 47.3344 32.0641 47.165 32.0911C46.9956 32.118 46.7876 32.2139 46.7029 32.3042C46.5753 32.4403 46.4916 32.4607 46.215 32.4229C45.9732 32.3898 45.924 32.3975 46.0365 32.4507C46.1474 32.5032 46.0926 32.5105 45.845 32.4763C45.37 32.4106 45.033 32.181 44.0396 31.2463C43.0642 30.3284 42.3438 29.7719 41.343 29.1633C40.7251 28.7875 40.3249 28.5944 39.2421 28.1494C39.0926 28.088 38.8669 27.991 38.7405 27.9338C38.6141 27.8766 38.4816 27.8477 38.4459 27.8696C38.4103 27.8914 38.3318 27.8686 38.2714 27.8189C38.2111 27.7691 38.1277 27.7494 38.0861 27.7749C38.0445 27.8005 37.9885 27.7861 37.9616 27.743C37.9348 27.6999 37.8346 27.6646 37.7388 27.6646C37.6431 27.6646 37.5317 27.6322 37.4911 27.5925C37.4505 27.5529 37.2692 27.5071 37.0882 27.4906C36.9073 27.4742 36.7354 27.4372 36.7065 27.4084C36.6774 27.3796 36.5745 27.356 36.4776 27.356C36.3807 27.356 36.2031 27.3156 36.0829 27.2661C35.9627 27.2167 35.5148 27.1676 35.0878 27.1571C34.6607 27.1465 34.058 27.1206 33.7483 27.0996C33.3517 27.0727 33.1846 27.0879 33.1828 27.1508C33.1815 27.2 33.1363 27.1828 33.0824 27.1123C32.9821 26.9813 32.8477 26.938 32.6418 26.9703C32.5777 26.9803 32.6281 27.0105 32.7538 27.0373C32.8795 27.0641 32.9754 27.1207 32.9667 27.1632C32.9522 27.2341 32.6989 27.2656 32.04 27.2786C31.9011 27.2813 31.7876 27.3172 31.7876 27.3583C31.7876 27.3995 31.7003 27.4332 31.5935 27.4332C31.4867 27.4332 31.3994 27.4623 31.3994 27.498C31.3994 27.5336 31.2596 27.6086 31.0888 27.6646C30.9179 27.7206 30.7782 27.7956 30.7782 27.8312C30.7782 27.8669 30.717 27.8968 30.6423 27.8977C30.5676 27.8987 30.419 27.9673 30.3123 28.0503C30.2055 28.1333 30.064 28.202 29.9978 28.2029C29.9316 28.2038 29.8443 28.2368 29.8036 28.276C29.7631 28.3154 29.4949 28.4708 29.2078 28.6216C28.6678 28.9049 27.804 29.4802 27.4052 29.8219C25.9036 31.1084 24.5133 32.9795 24.3624 33.9166L24.3099 34.2426L25.1175 33.8178C25.5616 33.5841 26.3011 33.1959 26.7607 32.9551C27.7715 32.4255 28.1372 32.3598 28.7654 32.5951C29.6785 32.9371 30.3049 33.7544 30.3724 34.6919C30.4092 35.2029 30.3765 35.3625 30.113 35.9609C30.005 36.2063 29.5201 36.6905 29.3825 36.6905C29.3387 36.6905 29.3028 36.7252 29.3028 36.7677C29.3028 36.8101 29.257 36.8448 29.201 36.8448C29.1449 36.8448 29.0241 36.9142 28.9324 36.9991C28.8408 37.0839 28.7494 37.1534 28.7293 37.1534C28.6904 37.1534 27.6665 37.7715 27.0185 38.1864C26.8014 38.3254 26.2919 38.6471 25.8862 38.9014C25.4804 39.1557 24.8785 39.5347 24.5485 39.7437C23.464 40.4301 23.3826 40.468 22.9891 40.4694C22.7602 40.4701 22.6342 40.5004 22.6637 40.5477C22.6901 40.5902 22.6709 40.6249 22.6211 40.6249C22.5713 40.6249 22.5507 40.677 22.5753 40.7406C22.6342 40.8933 22.5115 40.8872 22.2621 40.7249C22.0622 40.5947 22.0612 40.595 22.1648 40.7599C22.2225 40.8515 22.2534 40.9397 22.2336 40.9559C22.0227 41.1292 21.2524 41.4872 21.0294 41.5155C20.6491 41.564 20.5395 41.6379 20.7275 41.7195C20.8241 41.7614 20.7577 41.7697 20.5412 41.7428C20.0585 41.6828 19.494 41.3729 19.1747 40.9925C18.9487 40.7232 17.2012 37.9836 15.6827 35.5181C15.5077 35.234 15.0599 34.5204 14.6876 33.9324C14.3154 33.3443 13.9235 32.6738 13.8169 32.4425C13.5583 31.8813 13.4893 31.2585 13.6466 30.9047L13.7666 30.6347L13.7696 30.9149C13.7732 31.2459 13.9542 31.3347 14.2813 31.1662C14.3957 31.1072 14.5377 31.059 14.5968 31.059C14.656 31.059 14.7045 31.0242 14.7045 30.9818C14.7045 30.9394 14.7443 30.9047 14.793 30.9047C14.8417 30.9047 14.9252 30.8453 14.9787 30.7726C15.0442 30.6836 15.1648 30.6465 15.3486 30.6588C15.6697 30.6803 15.8692 30.5183 15.8692 30.236C15.8692 29.9681 16.0982 29.2075 16.1789 29.2075C16.3623 29.2075 17.0268 29.5554 17.2561 29.7716C17.3996 29.9068 17.9714 30.6944 18.5267 31.5218C19.0821 32.3492 19.5653 33.0571 19.6007 33.0948C19.6372 33.1339 20.0816 32.9613 20.6325 32.694L21.6002 32.2245L22.297 30.8406C23.3364 28.7766 24.1024 27.6674 25.4144 26.3258C26.4095 25.3084 27.6941 24.32 28.7766 23.7386C29.4555 23.374 30.9315 22.9471 32.2923 22.7217C33.6185 22.5021 35.5948 22.49 37.1067 22.6925ZM34.9922 26.4066C35.0677 26.4262 35.1726 26.4249 35.2251 26.4037C35.2777 26.3826 35.2159 26.3666 35.0878 26.3682C34.9596 26.3697 34.9166 26.387 34.9922 26.4066ZM33.5736 26.6617C33.474 26.7256 33.4768 26.7367 33.593 26.7377C33.6677 26.7383 33.7289 26.7041 33.7289 26.6617C33.7289 26.5676 33.7201 26.5676 33.5736 26.6617ZM70.6141 37.5924C70.6148 37.6267 70.6492 37.7069 70.6906 37.7705C70.7554 37.8703 70.766 37.8682 70.7671 37.7558C70.7677 37.684 70.7333 37.6039 70.6906 37.5777C70.6479 37.5514 70.6135 37.5581 70.6141 37.5924ZM51.9809 39.8727C52.5488 40.161 52.856 40.5119 53.5623 41.6787C53.8149 42.0962 54.1319 42.6114 54.2665 42.8235C54.4011 43.0356 54.7045 43.5217 54.9407 43.9035C55.1769 44.2854 55.6006 44.9623 55.8822 45.4078C56.1638 45.8533 56.5621 46.4889 56.7674 46.8204C56.9726 47.1517 57.2454 47.5911 57.3735 47.7968C58.3525 49.3684 58.4713 49.6841 58.3741 50.456C58.3192 50.8914 58.0374 51.27 57.7667 51.272C57.6523 51.2728 57.6354 51.2914 57.7076 51.3369C57.7822 51.3839 57.7377 51.4545 57.5381 51.6057C57.3892 51.7186 57.2321 51.8108 57.1889 51.8108C57.1458 51.8108 57.0575 51.8861 56.9926 51.9781C56.897 52.1136 56.7935 52.1465 56.4451 52.1517C56.157 52.1559 56.0154 52.1897 56.0151 52.2544C56.0149 52.3075 55.9622 52.3508 55.8982 52.3508C55.8341 52.3508 55.7817 52.3833 55.7817 52.4229C55.7817 52.4626 55.5762 52.4261 55.3251 52.3418C54.5491 52.0815 54.3612 51.8696 52.9389 49.6508C52.7076 49.2901 52.4578 48.8658 52.3835 48.7078C52.3093 48.5497 52.2226 48.4196 52.191 48.4185C52.1593 48.4174 51.937 48.8071 51.6971 49.2844C50.7025 51.263 49.8533 52.4546 48.452 53.838C47.8383 54.4437 47.1016 54.9242 45.8424 55.5399C45.2658 55.8217 44.8448 56.0527 44.9067 56.0531C44.9964 56.0536 44.9996 56.0733 44.9229 56.1496C44.8461 56.2258 44.8143 56.2258 44.7667 56.1493C44.7198 56.0739 44.6243 56.0804 44.3235 56.1795C44.1125 56.2489 43.9067 56.3358 43.8662 56.3726C43.8256 56.4094 43.7232 56.4395 43.6387 56.4395C43.4811 56.4395 43.0515 56.5604 42.7752 56.6824C42.6448 56.7401 42.6538 56.7464 42.8315 56.7221C42.9735 56.7027 43.0884 56.7445 43.1809 56.8495C43.2567 56.9356 43.2734 56.9797 43.2179 56.9474C43.1625 56.9151 43.0625 56.9095 42.9956 56.935C42.8975 56.9725 42.8926 57.0034 42.9701 57.0962C43.0257 57.1627 43.0328 57.211 42.9871 57.211C42.9438 57.211 42.8882 57.1589 42.8636 57.0952C42.7875 56.8981 42.6518 56.9639 42.7044 57.1724C42.7485 57.3465 42.7302 57.3652 42.5164 57.3652C42.3862 57.3652 42.258 57.4 42.2316 57.4424C42.2052 57.4848 42.0963 57.5195 41.9895 57.5195C41.8626 57.5195 41.8146 57.5503 41.8508 57.6086C41.8817 57.6584 41.8724 57.6769 41.8296 57.6506C41.7875 57.6248 41.4065 57.6888 40.983 57.793C40.5596 57.8972 40.1149 57.9824 39.9947 57.9824C39.869 57.9824 39.7968 58.0151 39.8245 58.0595C39.8533 58.106 39.7505 58.1367 39.5661 58.1367C39.3977 58.1367 39.1747 58.1806 39.0706 58.2342C38.9337 58.3048 38.518 58.3248 37.567 58.3066C36.844 58.2927 36.069 58.278 35.8449 58.2739C35.6207 58.2697 35.4372 58.235 35.4372 58.1966C35.4372 58.1584 35.376 58.137 35.3013 58.1492C35.2266 58.1615 35.1218 58.1442 35.0684 58.1109C35.0067 58.0725 34.9713 58.0929 34.9713 58.1669C34.9713 58.2309 35.0325 58.3187 35.1072 58.362C35.2366 58.4369 35.2366 58.4407 35.1072 58.443C35.0325 58.4442 34.9713 58.417 34.9713 58.3826C34.9713 58.3481 34.7704 58.3218 34.5248 58.3242C34.0644 58.3287 33.5535 58.2582 33.1465 58.1339C33.0184 58.0948 32.6515 57.9865 32.3312 57.8931C30.5484 57.374 28.5441 56.4091 26.9345 55.2954C26.5928 55.059 26.2958 54.8464 26.2744 54.8229C26.2531 54.7995 25.9782 54.5761 25.6636 54.3264C24.9168 53.7339 23.9653 52.7902 23.6377 52.3171C23.1694 51.641 22.9813 50.8746 23.1394 50.2881C23.2011 50.0596 23.3237 50.1433 23.3237 50.4139C23.3237 50.6988 23.3888 50.7483 23.5841 50.6124C23.6734 50.5502 23.8097 50.4994 23.887 50.4994C23.9642 50.4994 24.0476 50.4473 24.0721 50.3837C24.0967 50.32 24.1666 50.2679 24.2274 50.2679C24.2883 50.2679 24.3569 50.219 24.3801 50.1592C24.4031 50.0994 24.5069 50.0293 24.6105 50.0034C24.7143 49.9776 24.7991 49.905 24.7991 49.8422C24.7991 49.7398 24.9012 49.7006 25.1556 49.7052C25.2022 49.706 25.2458 49.5689 25.2524 49.4005C25.2674 49.0193 25.4175 48.6965 25.5956 48.6625C25.9089 48.6026 26.5874 49.0296 27.3715 49.7805C27.8066 50.1971 28.2275 50.5993 28.3068 50.6742C29.1173 51.4395 31.4569 52.8124 32.4839 53.1255C35.4161 54.0193 37.5124 54.1222 39.9798 53.4937C41.5983 53.0813 42.7252 52.508 44.5923 51.147C46.6398 49.6545 47.8237 48.451 48.7217 46.9493C48.9874 46.505 49.1731 45.9479 49.0554 45.9479C49.035 45.9479 48.9066 46.0072 48.7698 46.0796C48.6332 46.1521 48.503 46.2128 48.4807 46.2146C48.4584 46.2164 48.3556 46.296 48.2525 46.3914C48.1494 46.4869 48.0057 46.565 47.9332 46.565C47.7536 46.565 47.3856 46.761 47.4484 46.8233C47.4762 46.851 47.4037 46.8736 47.2873 46.8736C47.1659 46.8736 47.0961 46.9065 47.1236 46.9507C47.15 46.9932 47.0996 47.0279 47.0117 47.0279C46.9238 47.0279 46.8518 47.0626 46.8518 47.105C46.8518 47.1474 46.8034 47.1822 46.7442 47.1822C46.5831 47.1822 46.2254 47.3827 46.2836 47.4404C46.3114 47.4681 46.2228 47.4907 46.0866 47.4907C45.9502 47.4907 45.7025 47.5805 45.5346 47.6909C45.3615 47.8047 45.1895 47.8661 45.136 47.8333C45.0798 47.7987 45.062 47.8078 45.0918 47.8558C45.1193 47.9 45.0926 47.9767 45.0325 48.0263C44.9466 48.0971 44.9038 48.0865 44.8333 47.9771C44.7555 47.8565 44.7491 47.8556 44.7847 47.9701C44.8232 48.0937 44.4886 48.4137 44.3162 48.4182C44.2801 48.4191 44.1632 48.4878 44.0564 48.5708C43.9497 48.6538 43.7683 48.7224 43.6533 48.7234C43.5384 48.7243 43.4228 48.7598 43.3964 48.8022C43.313 48.9362 42.6678 48.8871 42.3418 48.7219C41.9491 48.5229 41.4669 48.0468 41.2738 47.6675C41.0713 47.2698 40.947 46.6459 41.0025 46.3057C41.0559 45.9788 41.1564 45.9446 41.261 46.2179C41.3016 46.3239 41.3897 46.4107 41.4569 46.4107C41.5747 46.4107 41.9599 46.0576 41.9599 45.9496C41.9599 45.9205 42.056 45.8475 42.1734 45.7873C42.4424 45.6494 42.5811 45.5207 42.5811 45.4088C42.5811 45.3609 42.6128 45.3411 42.6517 45.3649C42.8239 45.4707 42.9693 45.3077 42.9693 45.0091C42.9693 44.8413 43.057 44.5198 43.1642 44.2947C43.3705 43.8616 43.4455 43.8032 44.9494 42.904C45.2911 42.6998 45.6929 42.4544 45.8424 42.3587C47.0542 41.5832 49.9027 39.8879 50.1869 39.7731C50.7652 39.5395 51.3933 39.5744 51.9809 39.8727ZM21.3824 39.8452C21.3824 39.8831 21.4398 39.9359 21.5099 39.9627C21.6165 40.0033 21.6213 39.992 21.5392 39.8938C21.4274 39.7599 21.3824 39.746 21.3824 39.8452ZM21.8993 40.2812C21.9229 40.3425 21.9735 40.3734 22.0118 40.3499C22.1081 40.2908 22.0992 40.2625 21.9688 40.2128C21.8937 40.1842 21.8705 40.2069 21.8993 40.2812ZM70.861 40.7406C70.8626 40.8679 70.88 40.9106 70.8997 40.8356C70.9194 40.7605 70.9181 40.6564 70.8968 40.6041C70.8756 40.5519 70.8595 40.6133 70.861 40.7406ZM70.844 42.4921C70.8234 42.6916 70.8353 42.8264 70.8704 42.7915C70.9055 42.7566 70.9223 42.5934 70.9078 42.4287L70.8815 42.1292L70.844 42.4921ZM70.6235 43.0293C70.6177 43.1001 70.5916 43.2133 70.5655 43.281C70.5307 43.3709 70.5515 43.391 70.6432 43.3561C70.7273 43.324 70.7682 43.3505 70.7682 43.437C70.7682 43.5076 70.7333 43.544 70.6906 43.5178C70.6479 43.4916 70.613 43.5205 70.613 43.5821C70.613 43.6438 70.6654 43.7141 70.7294 43.7386C70.8192 43.7728 70.8459 43.7215 70.8459 43.5154C70.8459 43.3682 70.8134 43.2478 70.7737 43.2478C70.7339 43.2478 70.6863 43.1697 70.6678 43.0742C70.648 42.9722 70.6297 42.9537 70.6235 43.0293ZM69.6035 43.471C69.6035 43.5089 69.6559 43.5598 69.72 43.5843C69.7909 43.6113 69.8364 43.5844 69.8364 43.5154C69.8364 43.4531 69.784 43.4021 69.72 43.4021C69.6559 43.4021 69.6035 43.4331 69.6035 43.471ZM70.2001 43.5709C70.1753 43.6324 70.1569 43.6141 70.1532 43.5242C70.1498 43.4429 70.1682 43.3974 70.1939 43.423C70.2197 43.4486 70.2225 43.5152 70.2001 43.5709ZM69.6631 43.9033C69.6363 44.0393 69.6538 44.1568 69.7054 44.1884C69.8374 44.2694 69.8521 44.2163 69.7768 43.9313L69.7083 43.6721L69.6631 43.9033ZM70.2247 44.2121C70.2247 44.2757 70.1898 44.3278 70.147 44.3278C70.1043 44.3278 70.0694 44.2757 70.0694 44.2121C70.0694 44.1485 70.1043 44.0964 70.147 44.0964C70.1898 44.0964 70.2247 44.1485 70.2247 44.2121ZM70.0694 44.6787C70.0694 44.7698 69.9226 44.7696 69.8874 44.6784C69.8587 44.6041 69.8818 44.5814 69.9569 44.61C70.0188 44.6336 70.0694 44.6645 70.0694 44.6787ZM45.9766 47.6145C45.9509 47.6401 45.8839 47.6429 45.8279 47.6206C45.7659 47.596 45.7843 47.5777 45.8748 47.574C45.9566 47.5707 46.0024 47.5889 45.9766 47.6145ZM69.0353 47.7367C69.0106 47.7982 68.9921 47.7799 68.9884 47.69C68.9851 47.6087 69.0034 47.5632 69.0292 47.5888C69.055 47.6144 69.0578 47.681 69.0353 47.7367ZM69.0178 48.0254C69.0424 48.0649 69.0269 48.119 68.9835 48.1457C68.9401 48.1723 68.9046 48.14 68.9046 48.0739C68.9046 47.9383 68.9512 47.9184 69.0178 48.0254ZM57.5482 51.0939C57.6443 51.1122 57.8016 51.1122 57.8977 51.0939C57.9937 51.0754 57.9151 51.0604 57.7229 51.0604C57.5308 51.0604 57.4522 51.0754 57.5482 51.0939ZM32.239 55.7208C32.295 55.743 32.362 55.7403 32.3878 55.7147C32.4136 55.689 32.3677 55.6708 32.2859 55.6742C32.1954 55.6779 32.177 55.6961 32.239 55.7208ZM32.6418 55.8527C32.6418 55.8693 32.696 55.9037 32.7623 55.929C32.8314 55.9553 32.8625 55.9423 32.8354 55.8987C32.7898 55.8253 32.6418 55.7902 32.6418 55.8527ZM33.0689 56.0538C33.2823 56.1449 33.4049 56.1449 33.263 56.0538C33.1989 56.0127 33.0941 55.9809 33.03 55.9833C32.9532 55.9861 32.9664 56.01 33.0689 56.0538ZM33.8065 56.3148C33.8065 56.331 33.8928 56.3607 33.9983 56.3808C34.1038 56.4009 34.1716 56.3875 34.1491 56.3513C34.1093 56.2873 33.8065 56.2551 33.8065 56.3148ZM34.4132 56.4922C34.4692 56.5145 34.5362 56.5117 34.562 56.4861C34.5878 56.4605 34.542 56.4423 34.4601 56.4456C34.3697 56.4493 34.3513 56.4676 34.4132 56.4922ZM44.1341 56.5167C44.2245 56.5747 44.2018 56.5917 44.0324 56.5926C43.9066 56.5933 43.8346 56.5612 43.8623 56.5167C43.9219 56.4208 43.9849 56.4208 44.1341 56.5167ZM43.674 56.615C43.6708 56.6458 43.6507 56.6709 43.6293 56.6709C43.3202 56.6709 43.317 56.6697 43.4352 56.5939C43.5606 56.5134 43.6835 56.5243 43.674 56.615ZM34.9145 56.6473C34.9901 56.6669 35.0949 56.6655 35.1475 56.6444C35.2001 56.6233 35.1382 56.6073 35.0101 56.6088C34.882 56.6104 34.839 56.6277 34.9145 56.6473ZM42.0808 56.8181C42.0568 56.8565 42.1088 56.8694 42.1962 56.8467C42.2975 56.8204 42.3953 56.858 42.4657 56.9503C42.561 57.0754 42.5765 57.0779 42.5786 56.9685C42.5822 56.7812 42.1795 56.6595 42.0808 56.8181ZM41.5328 56.9023L41.2222 56.9459L41.4939 56.993C41.6434 57.0189 41.7983 57.0097 41.8382 56.9725C41.9473 56.8708 41.8754 56.8543 41.5328 56.9023ZM36.4272 56.9568C36.5234 56.9752 36.6805 56.9752 36.7767 56.9568C36.8728 56.9384 36.7941 56.9234 36.602 56.9234C36.4098 56.9234 36.3311 56.9384 36.4272 56.9568ZM37.8298 57.1094C37.8858 57.1316 37.9528 57.1289 37.9786 57.1033C38.0044 57.0777 37.9586 57.0594 37.8767 57.0628C37.7863 57.0665 37.7679 57.0847 37.8298 57.1094ZM38.2918 57.1112C38.3884 57.1296 38.5282 57.129 38.6024 57.1097C38.6766 57.0904 38.5976 57.0753 38.4267 57.0761C38.2559 57.077 38.1952 57.0928 38.2918 57.1112ZM39.475 57.1043C39.9319 57.162 40.5624 57.1679 40.5622 57.1145C40.5622 57.0827 40.2739 57.0618 39.9215 57.0682C39.5691 57.0746 39.3683 57.0908 39.475 57.1043ZM41.9244 57.2828C41.8997 57.3223 41.9152 57.3764 41.9586 57.403C42.002 57.4297 42.0375 57.3973 42.0375 57.3312C42.0375 57.1957 41.9909 57.1758 41.9244 57.2828ZM32.4347 57.6353C32.4347 57.6908 32.4813 57.7185 32.5383 57.6968C32.5952 57.6751 32.6418 57.6474 32.6418 57.6353C32.6418 57.6231 32.5952 57.5954 32.5383 57.5737C32.4813 57.552 32.4347 57.5797 32.4347 57.6353ZM33.6512 57.9707C33.6512 58.0066 33.7648 58.0378 33.9036 58.04C34.1084 58.0431 34.1267 58.0318 34.0007 57.9799C33.7929 57.8945 33.6512 57.8908 33.6512 57.9707ZM34.2888 58.09C34.3439 58.1492 34.4157 58.1815 34.4484 58.1618C34.5372 58.1084 34.4355 57.9824 34.3037 57.9824C34.2092 57.9824 34.2065 58.0016 34.2888 58.09Z" fill="#00467F"/>
<path fill-rule="evenodd" clip-rule="evenodd" d="M31.9735 6.8848C31.8685 6.93895 31.7313 6.96364 31.6686 6.93973C31.6058 6.91581 31.5545 6.93587 31.5545 6.98432C31.5545 7.04649 31.5117 7.04973 31.4094 6.99527C31.3296 6.95284 31.2496 6.93271 31.2318 6.95053C31.2009 6.98108 30.4681 7.07596 30.1059 7.09625C30.014 7.10134 29.9549 7.13158 29.9747 7.16345C29.9944 7.19523 29.93 7.22416 29.8313 7.22755C29.7327 7.23102 29.5472 7.24206 29.4191 7.25208C29.291 7.26211 29.1604 7.23326 29.1291 7.18798C29.0909 7.1329 29.0717 7.13752 29.0708 7.20202C29.0701 7.26404 28.9519 7.29806 28.7397 7.29729C28.4832 7.29637 28.4356 7.27754 28.5261 7.21282C28.623 7.14362 28.6187 7.13729 28.5003 7.17548C28.4221 7.20071 28.2868 7.2213 28.1997 7.2213C28.0609 7.2213 28.0545 7.23727 28.1478 7.34983C28.2437 7.46554 28.2335 7.47318 28.0455 7.42666C27.9214 7.39596 27.8152 7.40969 27.7835 7.46068C27.7456 7.5217 27.7129 7.51854 27.6701 7.44973C27.6346 7.39272 27.5519 7.37521 27.4684 7.40707C27.3482 7.45297 27.344 7.47195 27.4412 7.53389C27.5189 7.5835 27.4733 7.59113 27.2985 7.55781C27.1571 7.53081 26.9649 7.54423 26.8714 7.58766C26.7779 7.6311 26.5441 7.71001 26.3519 7.76317C25.7343 7.93381 24.6071 8.32169 24.531 8.38966C24.4904 8.42592 24.4126 8.45562 24.3582 8.45562C24.3038 8.45562 24.0399 8.5539 23.7719 8.67401C23.504 8.79413 22.9003 9.04323 22.4305 9.22752C21.5549 9.57105 21.1491 9.76954 19.5963 10.6141C18.5469 11.1848 17.7797 11.6699 17.4763 11.9545C17.3567 12.0668 17.2331 12.1586 17.2019 12.1586C17.0696 12.1586 15.424 13.4208 14.7291 14.0552C14.3147 14.4334 13.7465 14.9512 13.4664 15.2058C13.1863 15.4603 12.7999 15.8498 12.6077 16.0711C12.4155 16.2924 12.1709 16.5709 12.0642 16.6899C10.3313 18.621 9.10164 20.3856 7.85683 22.7274C5.75397 26.6832 4.59092 30.7043 4.18636 35.4176C4.02321 37.3186 4.13262 41.2595 4.38988 42.7464C4.43399 43.0009 4.49921 43.4002 4.53485 43.6335C4.90548 46.057 5.68999 48.9348 6.58538 51.1551C6.73936 51.537 6.89792 51.9188 6.93768 52.0037C6.97743 52.0886 7.10175 52.3836 7.21396 52.6594C7.39745 53.1103 8.2155 54.718 8.94122 56.0538C9.52601 57.1303 11.332 59.711 12.4772 61.1068C13.6073 62.4841 15.3903 64.3163 16.043 64.7711C16.1952 64.8772 16.3055 64.9871 16.2881 65.0152C16.2707 65.0434 16.359 65.1115 16.4842 65.1666C16.6095 65.2216 16.695 65.2941 16.6742 65.3275C16.6534 65.3609 16.6929 65.3883 16.762 65.3883C16.8311 65.3883 16.8661 65.423 16.8397 65.4654C16.8133 65.5079 16.8462 65.5426 16.9128 65.5426C16.9793 65.5426 17.0338 65.5773 17.0338 65.6197C17.0338 65.6621 17.0698 65.6969 17.1137 65.6969C17.1577 65.6969 17.3705 65.8357 17.5866 66.0054C17.8027 66.1752 18.0172 66.314 18.0632 66.314C18.1092 66.314 18.1249 66.3358 18.0981 66.3625C18.0712 66.3891 18.1615 66.4678 18.2987 66.5373C18.4358 66.6069 18.6587 66.7618 18.794 66.8817C18.9293 67.0016 19.0603 67.0965 19.0852 67.0926C19.1453 67.0831 19.3757 67.2787 19.8161 67.7131C20.4204 68.3092 23.2009 70.0941 23.5251 70.0941C23.5846 70.0941 23.9742 70.2647 24.3907 70.4731C24.8074 70.6816 25.2706 70.9039 25.4201 70.9671C25.5696 71.0305 25.8316 71.1417 26.0025 71.2143C26.1733 71.287 26.4703 71.4081 26.6625 71.4835C26.8547 71.5588 27.3614 71.7644 27.7884 71.9403C28.882 72.3908 31.833 73.2284 32.7969 73.3619C32.9891 73.3886 33.356 73.4424 33.6122 73.4815C35.2441 73.731 35.8522 73.8 37.0452 73.8714C38.7108 73.971 39.9758 73.9731 40.8982 73.8777C41.2898 73.8372 42.0296 73.7665 42.5421 73.7206C43.0546 73.6747 44.2515 73.4833 45.2021 73.2952C47.2832 72.8834 49.9216 72.0473 51.3933 71.3331C51.9063 71.0843 52.5881 70.7558 52.9084 70.6033C53.6892 70.2317 54.2021 69.9407 55.0826 69.3699C55.4884 69.107 55.9827 68.7891 56.1812 68.6636C56.3797 68.5382 56.8085 68.2272 57.1341 67.9726C57.4597 67.718 58.0831 67.232 58.5196 66.8926C59.4617 66.1599 62.7863 62.8653 63.5797 61.8782C65.0802 60.0114 65.6517 59.1786 67.0216 56.8638C67.496 56.0622 68.6771 53.4257 69.0089 52.428C69.5999 50.651 69.9444 49.4327 70.1105 48.5322C70.1653 48.2352 70.268 47.7017 70.3386 47.3466C70.4092 46.9914 70.4501 46.6572 70.4294 46.6037C70.4089 46.5504 70.4293 46.4696 70.4749 46.4242C70.5206 46.3789 70.5708 46.0709 70.5865 45.7398C70.6042 45.3665 70.5901 45.1965 70.5493 45.2921C70.5131 45.377 70.4911 45.5506 70.5003 45.6779C70.5096 45.8051 70.4688 45.9862 70.4096 46.0802C70.2829 46.2816 70.2718 46.3613 70.3798 46.295C70.4225 46.2688 70.4575 46.2841 70.4575 46.329C70.4575 46.3739 70.425 46.4107 70.3854 46.4107C70.3458 46.4107 70.2893 46.6021 70.2598 46.836C70.1817 47.4577 70.0644 47.4387 70.0775 46.8065C70.0849 46.4467 70.1219 46.2528 70.1881 46.2276C70.4284 46.136 70.3747 45.3217 70.1294 45.3368C70.0515 45.3416 70.0511 45.3511 70.1275 45.3818C70.2711 45.4394 70.2452 45.5617 70.0886 45.5646C69.9652 45.5668 69.9665 45.5774 70.1024 45.6795C70.2961 45.8251 70.2113 45.9104 69.9899 45.7926C69.87 45.7289 69.7953 45.7263 69.7373 45.7839C69.6793 45.8415 69.6933 45.8803 69.7845 45.915C69.8636 45.9452 69.9139 46.0502 69.9139 46.1852C69.9139 46.3496 69.8843 46.3946 69.7974 46.3615C69.7237 46.3334 69.681 46.3625 69.681 46.441C69.681 46.5881 69.5928 46.6008 69.4635 46.4724C69.3336 46.3433 69.3 46.8675 69.4142 47.2434C69.4437 47.3406 69.4372 47.4146 69.3997 47.4077C69.217 47.3745 69.1397 47.4289 69.1447 47.5872C69.1478 47.6826 69.0931 48.0038 69.023 48.3008C68.953 48.5978 68.8624 49.061 68.8218 49.3302C68.781 49.5994 68.6957 49.8935 68.632 49.9838C68.5189 50.1441 68.5162 50.1422 68.5162 49.904C68.5162 49.7698 68.5459 49.6417 68.5822 49.6194C68.6185 49.5971 68.6913 49.2566 68.7439 48.8627C68.7965 48.4688 68.8708 47.9729 68.909 47.7608C68.9472 47.5486 68.9969 47.2709 69.0195 47.1436C69.1283 46.5285 69.2387 44.578 69.253 43.0164C69.2725 40.8818 69.1494 39.1428 68.8655 37.5391C68.8542 37.4755 68.821 37.2325 68.7916 36.9991C68.7054 36.3143 68.4607 35.0878 68.2528 34.299C68.1466 33.896 68.006 33.3627 67.9406 33.1142C67.6624 32.0587 66.9036 29.8774 66.5412 29.0918C66.4825 28.9645 66.34 28.6347 66.2247 28.3589C65.9062 27.5975 64.7379 25.3292 64.228 24.4823C62.2263 21.1574 59.6624 18.0566 56.9226 15.6473C56.6802 15.434 54.6697 13.841 53.9783 13.3143C53.7309 13.1258 51.7882 11.8493 51.187 11.4801C50.5481 11.0879 47.6035 9.66308 46.7352 9.32619C46.3081 9.16041 45.4345 8.85731 44.7939 8.65257C44.1533 8.4479 43.5243 8.23606 43.3962 8.18191C43.2681 8.12775 43.025 8.0621 42.8559 8.03595C42.6869 8.00988 42.5214 7.94608 42.4882 7.89416C42.442 7.8218 42.4277 7.82334 42.4267 7.90087C42.4261 7.95641 42.3877 7.97855 42.3413 7.95009C42.2715 7.90727 41.6722 7.75615 41.1832 7.65802C41.1191 7.64521 41.0143 7.61382 40.9502 7.58836C40.7649 7.51468 39.7601 7.29012 39.6123 7.28935C39.5384 7.28896 39.4573 7.25556 39.4322 7.21513C39.4071 7.17471 39.354 7.16159 39.3142 7.18605C39.2744 7.21043 39.2414 7.18497 39.2407 7.12942C39.2398 7.0502 39.225 7.05128 39.1717 7.13475C39.132 7.19723 39.0631 7.21598 39.0048 7.18019C38.9503 7.14678 38.8154 7.11238 38.705 7.10374C38.5945 7.09517 38.1548 7.06246 37.7277 7.03114C37.3006 6.99974 36.9163 6.94767 36.8736 6.91535C36.7736 6.83975 36.9167 6.84553 34.3637 6.81383C32.6878 6.79292 32.1189 6.80981 31.9735 6.8848ZM32.4798 6.86328C32.4621 6.87855 32.3426 6.91435 32.2145 6.94281C32.0444 6.98061 32.013 6.97344 32.098 6.91627C32.2029 6.84576 32.5577 6.79655 32.4798 6.86328ZM29.1538 6.94104C29.1716 6.95662 29.3259 6.99265 29.4967 7.02104C29.7193 7.05807 29.7743 7.05043 29.6909 6.99388C29.5861 6.92299 29.0759 6.87284 29.1538 6.94104ZM48.6169 8.46518C48.6696 8.51795 48.7323 8.54163 48.7561 8.51787C48.78 8.49411 48.737 8.45099 48.6604 8.42198C48.5497 8.38017 48.5408 8.38896 48.6169 8.46518ZM37.1842 22.688C37.5685 22.7449 37.9704 22.8101 38.0771 22.8327C41.3878 23.5354 44.2427 24.9898 46.7755 27.2636C47.7077 28.1005 48.3225 28.807 48.541 29.2922C48.7005 29.6463 48.7236 29.7959 48.6945 30.2875C48.6588 30.8892 48.4569 31.4447 48.2738 31.4447C48.2177 31.4447 48.1717 31.4941 48.1717 31.5544C48.1717 31.6148 48.0407 31.7054 47.8805 31.7558C47.7204 31.8062 47.553 31.8924 47.5085 31.9473C47.4641 32.0023 47.2796 32.0868 47.0985 32.1353C46.9174 32.1837 46.7875 32.2525 46.8097 32.2881C46.9474 32.5096 46.1683 32.6551 45.7083 32.4937C45.2432 32.3306 44.9599 32.1218 44.087 31.299C42.7763 30.0634 41.646 29.2656 40.3212 28.6411C39.8125 28.4013 39.3616 28.2033 39.2419 28.1673C37.2846 27.5783 36.7627 27.4493 36.1747 27.4089C36.0039 27.3972 35.781 27.3422 35.6795 27.2867C35.5264 27.203 35.4835 27.2036 35.4283 27.2902C35.3887 27.3523 35.3612 27.3593 35.3605 27.3074C35.3589 27.1889 34.4078 27.1199 34.3317 27.2327C34.2918 27.2919 34.2743 27.2894 34.2734 27.2241C34.2728 27.1709 34.164 27.1301 34.0199 27.1292C33.8811 27.1283 33.6587 27.1265 33.5257 27.1252C33.3927 27.1239 33.1966 27.1679 33.0899 27.2229C32.9831 27.2779 32.6847 27.3188 32.4267 27.3138C32.0897 27.3071 31.9677 27.3307 31.9934 27.3975C32.0132 27.4486 31.9731 27.5119 31.9044 27.5381C31.8317 27.5657 31.7992 27.5537 31.8268 27.5095C31.9133 27.3704 31.5435 27.4305 31.3141 27.5927C31.1901 27.6805 31.0886 27.7334 31.0886 27.7104C31.0886 27.6759 29.9342 28.2403 29.3414 28.5645C29.256 28.6112 29.0906 28.6938 28.9739 28.7479C28.8572 28.8021 28.6927 28.9103 28.6083 28.9884C28.5239 29.0665 28.4335 29.1304 28.4075 29.1304C28.3074 29.1304 27.6928 29.5929 27.2915 29.9704C27.061 30.1872 26.8606 30.3647 26.8463 30.3647C26.7724 30.3647 25.8095 31.4364 25.4772 31.8886C24.74 32.8915 24.2091 33.9702 24.3726 34.1326C24.4 34.1599 24.6207 34.0735 24.863 33.9407C25.4562 33.6156 26.7534 32.9394 27.3044 32.668C28.0846 32.2838 28.815 32.4122 29.5495 33.0626C30.1568 33.6003 30.4173 34.1945 30.3742 34.9437C30.3424 35.4974 30.1558 36.0133 29.8667 36.3474C29.7428 36.4905 28.7953 37.1534 28.7146 37.1534C28.6962 37.1534 28.4105 37.3253 28.0795 37.5356C27.245 38.0656 26.3271 38.6411 25.1871 39.3491C24.6533 39.6807 24.0767 40.0438 23.9059 40.1559C23.382 40.4999 23.1905 40.5715 22.9136 40.5269C22.7189 40.4955 22.6505 40.5127 22.6505 40.5933C22.6505 40.653 22.6884 40.7033 22.7347 40.7047C22.7809 40.7063 22.7332 40.7546 22.6285 40.8121C22.524 40.8697 22.3872 40.8973 22.3246 40.8734C22.2547 40.8468 22.2312 40.8627 22.2636 40.9148C22.2937 40.9632 22.2409 41.023 22.1405 41.0542C22.0438 41.0843 21.8249 41.2032 21.654 41.3184C21.4832 41.4337 21.25 41.5233 21.1359 41.5177C21.0217 41.512 20.9452 41.5346 20.9657 41.5676C20.9863 41.6007 20.9487 41.6278 20.8821 41.6278C20.8156 41.6278 20.7697 41.6711 20.7805 41.7242C20.8054 41.8482 20.5348 41.8112 20.0223 41.6207C19.5158 41.4324 19.0476 40.9462 18.4692 40.0077C18.0149 39.2708 17.7747 38.8867 17.4554 38.3877C17.3604 38.2392 17.1457 37.892 16.9783 37.6162C16.5869 36.9716 14.7597 34.07 14.4279 33.5662C13.6828 32.4348 13.403 31.5108 13.6137 30.8767C13.6976 30.6243 13.8713 30.5476 13.843 30.7755C13.8168 30.9861 13.8626 31.0433 14.0831 31.0754C14.242 31.0986 14.316 31.0769 14.316 31.007C14.316 30.9507 14.379 30.9047 14.456 30.9047C14.5331 30.9047 14.734 30.8049 14.9025 30.683C15.2472 30.4336 15.6145 30.2893 15.5207 30.44C15.4815 30.5031 15.5196 30.5238 15.6422 30.5061C15.7828 30.4859 15.8266 30.4231 15.8484 30.2104C15.8937 29.7687 16.1048 29.2075 16.2255 29.2075C16.447 29.2075 17.038 29.5385 17.3075 29.8134C17.4591 29.9681 18.0274 30.7528 18.5703 31.5571C19.1132 32.3615 19.5787 33.0498 19.6047 33.0868C19.6832 33.1987 21.5039 32.2488 21.6741 32.0071C21.7575 31.8887 22.0917 31.2538 22.4168 30.5961C23.0753 29.2638 23.5503 28.5084 24.4078 27.4295C25.8078 25.668 27.9983 23.9528 29.5706 23.3869C30.6756 22.9893 32.4969 22.619 33.7287 22.5415C34.4622 22.4954 36.4534 22.5798 37.1842 22.688ZM51.3544 39.629C51.8433 39.7332 52.3284 39.997 52.6461 40.3315C52.7793 40.4717 53.1244 40.9682 53.4132 41.4349C53.7019 41.9016 54.0686 42.4918 54.228 42.7464C54.558 43.2733 55.6031 44.9493 56.6455 46.6229C57.0353 47.2487 57.472 47.9424 57.6159 48.1643C57.7599 48.3862 58.0001 48.797 58.1496 49.0772C58.3892 49.5258 58.4216 49.6539 58.4216 50.1527C58.4216 50.6442 58.396 50.7493 58.2275 50.9482C58.1207 51.0743 58.0334 51.2102 58.0334 51.2503C58.0334 51.2904 57.9538 51.3592 57.8566 51.4032C57.6927 51.4774 57.4334 51.6738 57.1061 51.9718C56.949 52.1148 56.3736 52.2742 56.1612 52.2335C56.0769 52.2174 56.0144 52.2489 56.0144 52.3077C56.0144 52.6717 54.8968 52.3359 54.3794 51.8164C54.2441 51.6805 53.2967 50.2961 53.2967 50.2342C53.2967 50.2124 53.0695 49.8457 52.7919 49.4194C52.5143 48.993 52.2872 48.6124 52.2872 48.5735C52.2872 48.5346 52.2537 48.4821 52.2127 48.457C52.1717 48.4318 51.895 48.896 51.5978 49.4886C50.7299 51.2182 49.8153 52.5011 48.5642 53.7433C47.8311 54.4712 46.7336 55.1963 45.6004 55.7012C45.1722 55.8919 44.9346 56.0408 44.9404 56.1147C44.9452 56.1782 44.9056 56.2453 44.8522 56.2641C44.7988 56.2828 44.7551 56.2431 44.7551 56.1759C44.7551 56.0258 44.7184 56.0286 44.328 56.2081C44.1572 56.2866 44.0748 56.3535 44.145 56.3567C44.3304 56.365 44.3741 56.5522 44.2138 56.6517C44.1133 56.714 44.053 56.714 43.9904 56.6518C43.9278 56.5896 43.8674 56.5982 43.7669 56.6836C43.6539 56.7796 43.5966 56.7836 43.4475 56.7059C43.3209 56.6399 43.2974 56.5988 43.3699 56.57C43.5402 56.5025 43.2714 56.5224 43.0468 56.5938C42.8553 56.6548 42.8551 56.6557 43.032 56.6632C43.135 56.6677 43.1901 56.705 43.1613 56.7512C43.1285 56.804 43.1866 56.8128 43.3315 56.777C43.5313 56.7275 43.5416 56.7344 43.4435 56.8528C43.3481 56.9677 43.3519 56.9768 43.4757 56.9296C43.5766 56.8911 43.599 56.9033 43.5555 56.9731C43.5223 57.0265 43.4271 57.0524 43.3439 57.0308C43.2523 57.007 43.1749 57.0372 43.1478 57.1074C43.1216 57.1754 43.0431 57.2078 42.9583 57.1858C42.8786 57.1651 42.7865 57.196 42.7536 57.2546C42.7206 57.313 42.6168 57.3726 42.5228 57.3868C42.4288 57.401 42.3277 57.4368 42.2982 57.4662C42.2686 57.4955 42.1804 57.5195 42.102 57.5195C42.0237 57.5195 41.9597 57.5543 41.9597 57.5967C41.9597 57.6391 41.822 57.6738 41.6537 57.6738C41.4853 57.6738 41.326 57.7085 41.2996 57.751C41.2732 57.7934 41.1335 57.8281 40.989 57.8281C40.8446 57.8281 40.7048 57.8628 40.6784 57.9053C40.652 57.9477 40.484 57.9829 40.305 57.9836C40.0663 57.9845 40.0106 58.0047 40.0961 58.0596C40.1809 58.114 40.1176 58.135 39.8631 58.1367C39.6404 58.1382 39.5515 58.1628 39.6179 58.2047C39.694 58.2526 39.6678 58.2806 39.5208 58.3085C39.3721 58.3367 39.3189 58.3143 39.3172 58.2224C39.3151 58.1148 39.3043 58.1162 39.2357 58.2331C39.1921 58.3073 39.073 58.3681 38.9708 58.3681C38.8687 58.3681 38.7627 58.4042 38.7352 58.4484C38.7077 58.4926 38.6189 58.5078 38.5377 58.4822C38.4565 58.4565 38.2498 58.4337 38.0784 58.4314C37.9069 58.429 37.7665 58.3957 37.7665 58.3573C37.7665 58.3188 37.6784 58.3448 37.5706 58.415C37.3638 58.5496 36.934 58.5925 36.7742 58.4944C36.7221 58.4624 36.6794 58.469 36.6794 58.5092C36.6794 58.6345 35.1635 58.5273 34.0473 58.3231C33.1605 58.1608 31.5588 57.7062 30.9721 57.4503C30.8867 57.4129 30.5897 57.2878 30.3121 57.1722C27.2867 55.9115 23.7989 53.1664 23.2297 51.5979C23.0667 51.1486 23.0544 50.3018 23.207 50.0365L23.318 49.8437L23.3208 50.0495C23.325 50.3629 23.3987 50.4946 23.5435 50.4477C23.8657 50.3433 24.1777 50.1772 24.1777 50.11C24.1777 50.0696 24.2301 50.0365 24.2942 50.0365C24.3582 50.0365 24.4106 50.0018 24.4106 49.9594C24.4106 49.9169 24.4588 49.8822 24.5176 49.8822C24.5765 49.8822 24.6725 49.8149 24.7312 49.7326C24.7898 49.6503 24.9076 49.5722 24.993 49.559C25.1909 49.5285 25.2621 49.4303 25.2636 49.1858C25.2652 48.9306 25.4687 48.6479 25.651 48.6479C26.0307 48.6479 26.5616 48.9923 27.3522 49.7513C28.6236 50.972 29.4162 51.5784 30.6227 52.2537C32.8481 53.4993 35.7519 54.097 38.1848 53.8104C39.633 53.6397 40.7257 53.3365 41.9597 52.763C42.852 52.3483 43.394 52.0082 44.7163 51.0329C46.5122 49.7084 47.2716 48.9795 48.2204 47.6698C48.7355 46.9589 49.1298 46.1742 49.024 46.0708C48.9614 46.0096 48.9103 46.0235 48.8374 46.1214C48.7821 46.1956 48.6797 46.2564 48.6097 46.2564C48.5396 46.2564 48.4823 46.2871 48.4823 46.3246C48.4823 46.362 48.4211 46.4147 48.3464 46.4416C48.2717 46.4684 48.0358 46.5895 47.8223 46.7106C47.6088 46.8318 47.3904 46.9142 47.337 46.894C47.2836 46.8737 47.2399 46.8955 47.2399 46.9425C47.2399 46.9895 47.1878 47.0279 47.1241 47.0279C47.0604 47.0279 46.9657 47.0955 46.9138 47.1782C46.8514 47.2774 46.7896 47.3041 46.7321 47.2568C46.6756 47.2102 46.591 47.2349 46.4911 47.3274C46.2659 47.5359 46.0335 47.645 45.815 47.645C45.709 47.645 45.6106 47.671 45.5963 47.7029C45.5711 47.7593 45.0007 48.0541 44.8972 48.0642C44.8686 48.067 44.7589 48.1439 44.6534 48.235C44.5479 48.3261 44.391 48.423 44.3047 48.4501C44.2185 48.4774 44.1056 48.5503 44.0538 48.6124C44.002 48.6743 43.8752 48.7251 43.7722 48.7251C43.6692 48.7251 43.4981 48.7815 43.3919 48.8507C42.8607 49.1965 41.7234 48.5442 41.2406 47.6168C41.033 47.2182 40.9941 47.0584 40.9935 46.6036C40.9931 46.3066 41.0217 45.9594 41.0569 45.8321L41.121 45.6007L41.2103 45.8698C41.3587 46.3165 41.5028 46.2818 42.1539 45.6425C42.3033 45.4958 42.4268 45.409 42.4283 45.4497C42.4299 45.4903 42.4794 45.4368 42.5385 45.3307C42.5976 45.2246 42.6869 45.1378 42.7369 45.1378C42.7869 45.1378 42.9087 44.8988 43.0076 44.6068C43.1066 44.3148 43.2694 43.9959 43.3695 43.8984C43.4696 43.8008 44.0232 43.4348 44.5998 43.085C45.7052 42.4143 48.9114 40.4785 49.6635 40.0277C50.0236 39.8118 50.6017 39.5902 50.9051 39.5517C50.935 39.5479 51.1372 39.5827 51.3544 39.629ZM70.6279 44.9064C70.6295 45.0337 70.6469 45.0764 70.6666 45.0014C70.6863 44.9263 70.685 44.8222 70.6637 44.7699C70.6424 44.7177 70.6264 44.7791 70.6279 44.9064ZM69.9916 46.5568C69.9916 46.5946 69.9391 46.6456 69.8751 46.6701C69.7568 46.7152 69.7161 46.633 69.8104 46.5393C69.8846 46.4656 69.9916 46.4759 69.9916 46.5568ZM69.9527 48.1336C69.9527 48.2853 69.9137 48.3908 69.8575 48.3908C69.7707 48.3908 69.7908 48.1106 69.8904 47.9343C69.9444 47.8386 69.9527 47.8651 69.9527 48.1336ZM69.8834 48.6157C69.8575 48.6828 69.8338 48.7956 69.8308 48.8664C69.8265 48.9678 69.8123 48.9624 69.7639 48.8408C69.6939 48.6651 69.7379 48.4936 69.8529 48.4936C69.8956 48.4936 69.9093 48.5486 69.8834 48.6157ZM68.3964 51.0341C68.421 51.0736 68.4055 51.1277 68.3621 51.1543C68.3187 51.181 68.2832 51.1486 68.2832 51.0825C68.2832 50.947 68.3298 50.9271 68.3964 51.0341ZM45.4095 55.9574C45.3709 55.9892 45.3132 56.0499 45.2813 56.0924C45.2483 56.1364 45.2229 56.1116 45.2222 56.0345C45.2215 55.9594 45.2785 55.8995 45.3504 55.8995C45.4216 55.8995 45.4482 55.9255 45.4095 55.9574ZM44.5998 56.2852C44.5998 56.3277 44.5628 56.3624 44.5176 56.3624C44.4724 56.3624 44.4569 56.3277 44.4833 56.2852C44.5097 56.2428 44.5467 56.2081 44.5656 56.2081C44.5844 56.2081 44.5998 56.2428 44.5998 56.2852ZM33.8695 56.3379C33.9255 56.3602 33.9925 56.3574 34.0183 56.3318C34.044 56.3062 33.9982 56.288 33.9164 56.2913C33.8259 56.295 33.8075 56.3133 33.8695 56.3379ZM34.8789 56.6465C34.9349 56.6688 35.0019 56.666 35.0277 56.6404C35.0535 56.6148 35.0077 56.5966 34.9258 56.5999C34.8354 56.6036 34.817 56.6219 34.8789 56.6465ZM36.3543 56.9551C36.4103 56.9774 36.4773 56.9746 36.5031 56.949C36.5289 56.9234 36.4831 56.9052 36.4012 56.9085C36.3107 56.9122 36.2923 56.9305 36.3543 56.9551ZM41.6346 56.9551C41.6905 56.9774 41.7575 56.9746 41.7833 56.949C41.8091 56.9234 41.7633 56.9052 41.6815 56.9085C41.591 56.9122 41.5726 56.9305 41.6346 56.9551ZM34.9504 58.2334C34.9237 58.3026 35.0269 58.3334 35.3109 58.3412C35.5297 58.3472 35.6297 58.336 35.5329 58.3161C35.4362 58.2962 35.3772 58.2477 35.4016 58.2084C35.4261 58.1689 35.3946 58.1367 35.3316 58.1367C35.2686 58.1367 35.1994 58.1801 35.1778 58.2331C35.1465 58.3103 35.1374 58.3103 35.1326 58.2331C35.1246 58.1082 34.9987 58.1084 34.9504 58.2334ZM36.3893 58.3464C36.5074 58.364 36.6821 58.3636 36.7776 58.3453C36.8731 58.327 36.7765 58.3125 36.563 58.313C36.3494 58.3137 36.2713 58.3286 36.3893 58.3464Z" fill="#005796"/>
<path fill-rule="evenodd" clip-rule="evenodd" d="M33.3029 22.4898C33.1748 22.5189 33.5417 22.53 34.1183 22.5147C35.4723 22.4785 35.6603 22.4365 34.4677 22.4368C33.9552 22.4369 33.4311 22.4608 33.3029 22.4898ZM36.3556 22.5486C36.4116 22.5708 36.4786 22.5681 36.5044 22.5425C36.5302 22.5168 36.4844 22.4986 36.4025 22.502C36.3121 22.5057 36.2937 22.5239 36.3556 22.5486ZM32.4682 22.6241C32.5216 22.6455 32.609 22.6455 32.6623 22.6241C32.7157 22.6027 32.672 22.5852 32.5653 22.5852C32.4585 22.5852 32.4149 22.6027 32.4682 22.6241ZM37.0545 22.6257C37.1105 22.648 37.1775 22.6452 37.2033 22.6196C37.229 22.594 37.1832 22.5758 37.1014 22.5791C37.0109 22.5828 36.9925 22.6011 37.0545 22.6257ZM37.4427 22.7028C37.4987 22.7251 37.5657 22.7224 37.5915 22.6967C37.6173 22.6711 37.5715 22.6529 37.4896 22.6562C37.3992 22.6599 37.3808 22.6782 37.4427 22.7028ZM31.284 22.8044C31.2288 22.8932 31.3546 22.8932 31.6335 22.8044C31.8188 22.7454 31.8164 22.7423 31.5798 22.735C31.4435 22.7308 31.3104 22.762 31.284 22.8044ZM38.1949 22.8416C38.4512 22.8977 38.7657 22.9692 38.8938 23.0006C39.0219 23.0319 39.1021 23.0312 39.0721 22.9988C38.9986 22.9199 38.1661 22.7285 37.9232 22.7346C37.8164 22.7373 37.9387 22.7855 38.1949 22.8416ZM30.7016 22.9623C30.6166 23.0194 30.648 23.0266 30.8181 22.9888C31.1036 22.9253 31.1656 22.8812 30.967 22.8827C30.8851 22.8834 30.7657 22.9192 30.7016 22.9623ZM29.6145 23.2584C29.2942 23.3753 28.9623 23.5119 28.8769 23.562C28.7914 23.612 28.6342 23.6876 28.5274 23.7299C28.3296 23.8084 28.2753 23.8396 27.6876 24.2131C27.5033 24.3302 27.3765 24.3875 27.4058 24.3405C27.4444 24.2784 27.4141 24.2787 27.2962 24.3414C27.2066 24.3891 27.0938 24.5013 27.0455 24.591C26.9753 24.7213 26.9441 24.7325 26.8896 24.647C26.8364 24.5636 26.8212 24.5719 26.8203 24.6846C26.819 24.8519 26.0407 25.5896 25.9345 25.5244C25.8954 25.5003 25.8849 25.5153 25.9112 25.5577C25.9376 25.6001 25.7072 25.8807 25.3991 26.1812C24.8068 26.7592 24.4924 27.1212 24.4906 27.2274C24.4901 27.2627 24.6845 27.0675 24.9227 26.7937C25.4695 26.1653 26.4225 25.3163 27.3238 24.6547C28.4344 23.8396 29.1486 23.4681 30.1969 23.1605C30.4372 23.09 30.5112 23.0464 30.391 23.0462C30.2843 23.0461 29.9348 23.1415 29.6145 23.2584ZM39.9032 23.2987C40.3303 23.4405 40.7496 23.5833 40.8351 23.6161C40.9404 23.6566 40.9654 23.6504 40.9127 23.5969C40.8226 23.5052 39.4154 23.0346 39.2431 23.0384C39.1791 23.0399 39.4762 23.157 39.9032 23.2987ZM41.3317 23.8144C41.5194 23.8971 41.6869 23.9511 41.7037 23.9343C41.7374 23.901 41.139 23.6496 41.047 23.6585C41.0158 23.6614 41.1439 23.7316 41.3317 23.8144ZM41.8057 23.9919C41.8057 24.0086 41.8599 24.0429 41.9262 24.0682C41.9953 24.0945 42.0264 24.0816 41.9993 24.0379C41.9537 23.9645 41.8057 23.9294 41.8057 23.9919ZM42.1163 24.1462C42.1163 24.1629 42.1705 24.1972 42.2368 24.2225C42.3059 24.2488 42.3371 24.2359 42.3099 24.1922C42.2643 24.1188 42.1163 24.0837 42.1163 24.1462ZM42.7375 24.4548C42.7375 24.4715 42.7917 24.5058 42.858 24.5311C42.9271 24.5574 42.9583 24.5444 42.9311 24.5008C42.8855 24.4274 42.7375 24.3923 42.7375 24.4548ZM26.5862 24.699C26.5862 24.7651 26.6211 24.7979 26.6638 24.7716C26.7065 24.7454 26.7415 24.6913 26.7415 24.6514C26.7415 24.6114 26.7065 24.5788 26.6638 24.5788C26.6211 24.5788 26.5862 24.6329 26.5862 24.699ZM26.1673 24.8897C26.0865 24.9707 25.9903 25.0186 25.9538 24.9962C25.9172 24.9737 25.8873 24.9893 25.8873 25.0308C25.8873 25.0723 25.7641 25.1819 25.6134 25.2743C25.4629 25.3668 25.2968 25.4836 25.2446 25.5339C25.1924 25.5842 25.0273 25.7092 24.8778 25.8119C24.5674 26.0251 24.483 26.1258 24.5393 26.2163C24.561 26.2512 24.5325 26.2702 24.4759 26.2586C24.4194 26.2469 24.3827 26.2834 24.3945 26.3395C24.4062 26.3958 24.3785 26.4187 24.3328 26.3907C24.2872 26.3627 24.1986 26.3821 24.1358 26.4339C24.0478 26.5065 24.0423 26.5524 24.1121 26.636C24.183 26.7209 24.1673 26.7768 24.0387 26.8958C23.8428 27.0771 23.7797 27.0885 23.8403 26.9317C23.8649 26.868 23.9407 26.816 24.0087 26.816C24.1046 26.816 24.1115 26.7952 24.0397 26.7238C23.9678 26.6524 23.913 26.6678 23.7959 26.7927C23.7128 26.8813 23.666 26.9749 23.6919 27.0006C23.7177 27.0263 23.6913 27.0474 23.6329 27.0474C23.5194 27.0474 22.7813 27.7904 22.7813 27.9048C22.7813 27.9423 22.8165 27.9731 22.8595 27.9731C22.906 27.9731 22.8984 28.0359 22.8409 28.1274C22.7876 28.2123 22.7131 28.2817 22.6754 28.2817C22.6378 28.2817 22.6511 28.2288 22.7052 28.1641C22.7592 28.0995 22.7806 28.0239 22.7527 27.9962C22.6914 27.9352 22.4766 28.2026 22.4732 28.3441C22.4718 28.401 22.5098 28.4211 22.5604 28.3901C22.6132 28.3576 22.629 28.3687 22.5989 28.4171C22.518 28.5471 22.6232 28.7294 22.7669 28.7085C22.8389 28.6981 22.8541 28.7045 22.8007 28.7227C22.7473 28.7409 22.7036 28.7923 22.7036 28.8368C22.7036 28.8901 22.6673 28.8878 22.5975 28.8302C22.5165 28.7635 22.467 28.7717 22.3889 28.8652C22.314 28.9549 22.3102 29.0023 22.3751 29.0421C22.4727 29.1021 22.4739 29.4389 22.3765 29.4389C22.3429 29.4389 22.3154 29.4936 22.3154 29.5605C22.3154 29.6385 22.3919 29.5902 22.5289 29.4255C22.6463 29.2844 22.7689 29.1572 22.8012 29.143C22.8335 29.1288 22.84 29.0851 22.8156 29.046C22.7913 29.0069 22.826 28.9205 22.8928 28.8542C23.0308 28.7172 23.0518 28.5903 22.9366 28.5903C22.8939 28.5903 22.8589 28.534 22.8589 28.4652C22.8589 28.3593 22.8781 28.3558 22.9827 28.442C23.0884 28.5292 23.1279 28.5165 23.2528 28.3551C23.3332 28.2511 23.3998 28.1379 23.4008 28.1036C23.4017 28.0692 23.4383 28.0632 23.4821 28.09C23.5258 28.1169 23.552 28.1064 23.5403 28.0667C23.5155 27.9829 24.0697 27.3154 24.5478 26.853C24.7293 26.6774 24.8778 26.4911 24.8778 26.4389C24.8778 26.3867 24.9081 26.3626 24.9451 26.3853C25.0376 26.442 25.2806 26.1632 25.208 26.0838C25.1759 26.0485 25.1894 26.0424 25.2379 26.0699C25.3369 26.1261 25.5491 25.9143 25.4713 25.8369C25.4438 25.8097 25.4214 25.8279 25.4214 25.8773C25.4214 25.9269 25.3875 25.9674 25.3462 25.9674C25.3048 25.9674 25.2916 25.9138 25.3169 25.8484C25.3422 25.783 25.4197 25.7387 25.4892 25.7501C25.648 25.776 25.81 25.6784 25.8085 25.5578C25.8077 25.5026 25.7772 25.5121 25.732 25.5816C25.6906 25.6453 25.6562 25.6582 25.6555 25.6103C25.654 25.4966 25.8768 25.314 25.9403 25.3771C26.016 25.4523 26.1979 25.2708 26.1979 25.1199C26.1979 25.0218 26.2512 24.9915 26.3962 25.0073C26.5482 25.0239 26.5756 25.0062 26.5134 24.9318C26.4688 24.8783 26.4552 24.8117 26.4833 24.7838C26.5114 24.7559 26.4849 24.7351 26.4244 24.7376C26.3638 24.7402 26.2482 24.8086 26.1673 24.8897ZM23.2084 27.8188C23.1792 27.9101 23.1378 27.9674 23.1165 27.9462C23.0951 27.925 23.1016 27.833 23.1307 27.7417C23.1598 27.6504 23.2012 27.5931 23.2226 27.6143C23.2439 27.6355 23.2375 27.7276 23.2084 27.8188ZM24.0137 27.7995C23.9172 27.9219 23.9199 27.9246 24.0431 27.8287C24.1178 27.7705 24.179 27.7097 24.179 27.6937C24.179 27.6302 24.1152 27.671 24.0137 27.7995ZM22.1591 28.7298C21.8481 29.1848 21.837 29.2074 21.9232 29.2074C21.9681 29.2074 22.0048 29.1591 22.0048 29.1C22.0048 29.0409 22.0577 28.9723 22.1224 28.9477C22.2282 28.9073 22.4303 28.5244 22.3749 28.4694C22.3625 28.4571 22.2654 28.5742 22.1591 28.7298ZM22.6648 29.0531C22.6912 29.0956 22.6757 29.1303 22.6306 29.1303C22.5854 29.1303 22.5483 29.0956 22.5483 29.0531C22.5483 29.0107 22.5637 28.976 22.5826 28.976C22.6014 28.976 22.6384 29.0107 22.6648 29.0531ZM15.2002 29.1571C14.8799 29.2459 14.4727 29.5002 14.4727 29.6114C14.4727 29.6438 14.56 29.6703 14.6668 29.6703C14.7736 29.6703 14.8609 29.6404 14.8609 29.6037C14.8609 29.5288 15.5741 29.2908 15.9177 29.251C16.2293 29.2149 16.2408 29.2055 16.0645 29.1303C15.8565 29.0415 15.5874 29.0499 15.2002 29.1571ZM22.1212 29.2074C22.0948 29.2499 22.1103 29.2846 22.1555 29.2846C22.2007 29.2846 22.2377 29.2499 22.2377 29.2074C22.2377 29.165 22.2223 29.1303 22.2035 29.1303C22.1846 29.1303 22.1476 29.165 22.1212 29.2074ZM22.7777 29.6769C22.73 29.7654 22.7056 29.8524 22.7236 29.8701C22.7414 29.8879 22.796 29.8155 22.8446 29.7092C22.9516 29.4759 22.8995 29.4508 22.7777 29.6769ZM22.4287 30.2926C22.4005 30.3378 22.3941 30.3915 22.4145 30.4117C22.4348 30.4319 22.4721 30.3948 22.4975 30.3294C22.55 30.1934 22.5052 30.1695 22.4287 30.2926ZM21.766 31.6887C21.7132 31.7878 21.619 31.947 21.5566 32.0425C21.4944 32.138 21.4643 32.2161 21.49 32.2161C21.567 32.2161 21.9534 31.5993 21.9059 31.5522C21.8818 31.5282 21.8189 31.5897 21.766 31.6887ZM26.5479 32.9867C26.5207 33.0303 26.5518 33.0433 26.6209 33.017C26.7554 32.9657 26.7801 32.9104 26.6684 32.9104C26.6282 32.9104 26.574 32.9447 26.5479 32.9867ZM19.5976 33.0647C19.5976 33.1071 19.6346 33.1418 19.6798 33.1418C19.725 33.1418 19.7405 33.1071 19.7141 33.0647C19.6877 33.0222 19.6507 32.9875 19.6318 32.9875C19.613 32.9875 19.5976 33.0222 19.5976 33.0647ZM50.4832 39.5959C50.5366 39.6173 50.6239 39.6173 50.6773 39.5959C50.7307 39.5745 50.687 39.557 50.5802 39.557C50.4734 39.557 50.4298 39.5745 50.4832 39.5959ZM51.2597 39.5959C51.3131 39.6173 51.4004 39.6173 51.4538 39.5959C51.5072 39.5745 51.4635 39.557 51.3567 39.557C51.25 39.557 51.2063 39.5745 51.2597 39.5959ZM51.8226 39.732C51.8226 39.7501 51.9361 39.8192 52.075 39.8855L52.3274 40.0061L52.144 39.8525C51.9745 39.7107 51.8226 39.6537 51.8226 39.732ZM52.4614 40.1295C52.5351 40.2059 52.6122 40.2519 52.6326 40.2316C52.653 40.2113 52.5927 40.1488 52.4986 40.0925C52.335 39.9949 52.3333 39.9966 52.4614 40.1295ZM48.9113 40.3925C48.8841 40.4362 48.9152 40.4492 48.9843 40.4229C49.1188 40.3716 49.1434 40.3163 49.0318 40.3163C48.9916 40.3163 48.9374 40.3506 48.9113 40.3925ZM52.8913 40.5863C53.0218 40.756 53.195 41.0163 53.2762 41.1648C53.5409 41.6485 53.7825 42.0207 53.8126 41.9908C53.8643 41.9395 53.0663 40.6707 52.8563 40.4705C52.6812 40.3036 52.6859 40.3191 52.8913 40.5863ZM54.109 42.5293C54.1748 42.6645 54.2674 42.7988 54.3147 42.8278C54.4188 42.8918 54.3065 42.672 54.1153 42.4377C53.9984 42.2945 53.9979 42.3011 54.109 42.5293ZM54.6569 43.402C54.7231 43.5293 54.7948 43.6335 54.8161 43.6335C54.8375 43.6335 54.8008 43.5293 54.7345 43.402C54.6683 43.2747 54.5966 43.1706 54.5753 43.1706C54.5539 43.1706 54.5906 43.2747 54.6569 43.402ZM42.1666 44.4447C42.0976 44.4949 42.0638 44.5585 42.0916 44.5861C42.1845 44.6785 42.2716 44.6377 42.2728 44.5013C42.2737 44.398 42.2894 44.3904 42.3396 44.4693C42.3937 44.554 42.4128 44.5528 42.4475 44.4629C42.4988 44.3299 42.3388 44.3196 42.1666 44.4447ZM24.8002 48.5983C24.4735 48.7043 24.0237 48.9661 24.0237 49.0503C24.0237 49.1461 24.1291 49.1215 24.3364 48.9771C24.442 48.9037 24.5375 48.8523 24.5486 48.8629C24.5598 48.8737 24.6778 48.8265 24.811 48.758C24.9442 48.6896 25.1368 48.6496 25.2391 48.669C25.3414 48.6884 25.4402 48.68 25.4587 48.6504C25.4772 48.6207 25.4501 48.5948 25.3986 48.5928C25.3471 48.5908 25.2525 48.5713 25.1884 48.5496C25.1244 48.5278 24.9497 48.5497 24.8002 48.5983ZM52.0217 48.7024C51.9796 48.8123 51.9885 48.8212 52.0652 48.7456C52.1183 48.6932 52.1422 48.631 52.1182 48.6073C52.0943 48.5835 52.0509 48.6263 52.0217 48.7024ZM32.3323 52.9983C32.3323 53.0149 32.3865 53.0493 32.4528 53.0746C32.5219 53.1009 32.5531 53.0879 32.5259 53.0443C32.4803 52.9709 32.3323 52.9358 32.3323 52.9983ZM39.0685 53.6362C39.1219 53.6576 39.2093 53.6576 39.2626 53.6362C39.3161 53.6148 39.2723 53.5973 39.1656 53.5973C39.0588 53.5973 39.0152 53.6148 39.0685 53.6362ZM67.0422 56.6709C66.9964 56.7558 66.9765 56.8252 66.9979 56.8252C67.0192 56.8252 67.0741 56.7558 67.1198 56.6709C67.1655 56.586 67.1854 56.5166 67.1641 56.5166C67.1427 56.5166 67.0879 56.586 67.0422 56.6709ZM66.7315 57.2109C66.6858 57.2958 66.6659 57.3652 66.6873 57.3652C66.7086 57.3652 66.7635 57.2958 66.8092 57.2109C66.8549 57.126 66.8748 57.0566 66.8535 57.0566C66.8321 57.0566 66.7773 57.126 66.7315 57.2109ZM65.6817 58.9274C65.5624 59.1077 65.4069 59.342 65.3361 59.4481C65.1267 59.762 65.0893 59.8338 65.1357 59.8338C65.1598 59.8338 65.3299 59.5995 65.5137 59.3131C65.9522 58.6296 65.9699 58.5995 65.9314 58.5995C65.9133 58.5995 65.8009 58.7471 65.6817 58.9274ZM64.7874 60.2231C64.6506 60.3947 64.5516 60.5472 64.5673 60.5618C64.5832 60.5763 64.7108 60.4359 64.851 60.2496C65.1712 59.8242 65.1219 59.8036 64.7874 60.2231ZM64.2074 60.9915C64.1299 61.0766 64.0809 61.1599 64.0983 61.1768C64.1159 61.1936 64.1931 61.1239 64.2698 61.022C64.4392 60.7969 64.4016 60.7785 64.2074 60.9915ZM63.8485 61.4346C63.752 61.5569 63.7547 61.5596 63.8779 61.4637C64.0073 61.3629 64.0483 61.2996 63.9844 61.2996C63.9684 61.2996 63.9072 61.3604 63.8485 61.4346ZM63.1626 62.2832C63.0634 62.3999 62.926 62.5647 62.8574 62.6496L62.7325 62.8039L62.9156 62.6496C63.0945 62.4988 63.4328 62.071 63.373 62.071C63.3565 62.071 63.2618 62.1664 63.1626 62.2832ZM50.4249 71.7141C50.3609 71.7552 50.3434 71.7888 50.3861 71.7888C50.4288 71.7888 50.5162 71.7552 50.5802 71.7141C50.6443 71.673 50.6617 71.6393 50.619 71.6393C50.5763 71.6393 50.489 71.673 50.4249 71.7141ZM49.959 71.8684C49.8171 71.9595 49.9397 71.9595 50.1531 71.8684C50.2556 71.8246 50.2688 71.8006 50.192 71.7979C50.1279 71.7955 50.0231 71.8273 49.959 71.8684ZM47.1636 72.7941C47.0216 72.8852 47.1442 72.8852 47.3577 72.7941C47.4601 72.7504 47.4733 72.7264 47.3965 72.7236C47.3325 72.7212 47.2276 72.753 47.1636 72.7941ZM30.6871 72.8468C30.7431 72.8691 30.8101 72.8663 30.8359 72.8407C30.8617 72.8151 30.8159 72.7969 30.734 72.8002C30.6436 72.8039 30.6252 72.8222 30.6871 72.8468ZM46.7559 72.9223C46.8093 72.9438 46.8967 72.9438 46.95 72.9223C47.0035 72.9009 46.9598 72.8834 46.853 72.8834C46.7462 72.8834 46.7026 72.9009 46.7559 72.9223ZM31.6723 73.1027C31.7577 73.1392 31.88 73.169 31.9441 73.169C32.0174 73.169 32.0031 73.1445 31.9052 73.1027C31.8198 73.0662 31.6975 73.0364 31.6335 73.0364C31.5601 73.0364 31.5744 73.0609 31.6723 73.1027ZM46.0197 73.079C46.0953 73.0986 46.2001 73.0973 46.2527 73.0761C46.3052 73.055 46.2434 73.039 46.1153 73.0406C45.9872 73.0421 45.9442 73.0594 46.0197 73.079ZM32.1979 73.2333C32.2734 73.2529 32.3783 73.2516 32.4308 73.2304C32.4834 73.2093 32.4216 73.1933 32.2935 73.1949C32.1654 73.1964 32.1223 73.2137 32.1979 73.2333ZM33.1719 73.3868C33.2279 73.4091 33.2949 73.4063 33.3207 73.3807C33.3465 73.3551 33.3007 73.3369 33.2188 73.3402C33.1284 73.3439 33.11 73.3622 33.1719 73.3868ZM44.4667 73.3876C44.5423 73.4072 44.6471 73.4059 44.6996 73.3847C44.7522 73.3636 44.6904 73.3476 44.5623 73.3492C44.4342 73.3507 44.3911 73.368 44.4667 73.3876ZM34.2168 73.5419C34.2924 73.5615 34.3972 73.5602 34.4498 73.539C34.5023 73.5179 34.4405 73.5019 34.3124 73.5034C34.1843 73.505 34.1413 73.5223 34.2168 73.5419ZM43.7275 73.5395C43.781 73.5609 43.8683 73.5609 43.9217 73.5395C43.9751 73.5181 43.9314 73.5006 43.8246 73.5006C43.7178 73.5006 43.6742 73.5181 43.7275 73.5395ZM34.6424 73.6166C34.6958 73.6381 34.7832 73.6381 34.8365 73.6166C34.89 73.5952 34.8462 73.5777 34.7395 73.5777C34.6327 73.5777 34.5891 73.5952 34.6424 73.6166ZM35.1486 73.6962C35.2242 73.7158 35.329 73.7144 35.3816 73.6933C35.4341 73.6722 35.3723 73.6562 35.2442 73.6577C35.1161 73.6593 35.0731 73.6766 35.1486 73.6962ZM42.1728 73.6984C42.3106 73.7154 42.5553 73.7157 42.7164 73.699C42.8774 73.6823 42.7647 73.6684 42.4657 73.668C42.1668 73.6677 42.0349 73.6813 42.1728 73.6984ZM35.846 73.773C35.9207 73.7924 36.0431 73.7924 36.1178 73.773C36.1925 73.7536 36.1314 73.7377 35.9819 73.7377C35.8324 73.7377 35.7713 73.7536 35.846 73.773ZM41.5582 73.7725C41.6142 73.7948 41.6812 73.792 41.707 73.7664C41.7328 73.7408 41.687 73.7226 41.6051 73.7259C41.5147 73.7296 41.4963 73.7479 41.5582 73.7725ZM37.3225 73.8524C37.4405 73.87 37.6152 73.8696 37.7107 73.8513C37.8062 73.833 37.7096 73.8185 37.4961 73.819C37.2825 73.8197 37.2044 73.8346 37.3225 73.8524ZM40.5439 73.8481C40.5973 73.8695 40.6846 73.8695 40.738 73.8481C40.7914 73.8267 40.7477 73.8092 40.6409 73.8092C40.5342 73.8092 40.4905 73.8267 40.5439 73.8481Z" fill="#004C75"/>
</svg>
