<svg width="44" height="44" viewBox="0 0 44 44" fill="none" xmlns="http://www.w3.org/2000/svg">
<path fill-rule="evenodd" clip-rule="evenodd" d="M20.002 3.14995C18.3853 3.3883 17.4047 3.6632 15.5245 4.40508C13.4684 5.21629 12.6726 5.61127 11.41 6.44773C7.4517 9.0698 4.80825 13.1167 3.82609 18.0578C3.44066 19.9973 3.44381 23.1138 3.83311 24.9579C4.39401 27.6146 5.30175 29.7991 6.76203 32.006C7.77856 33.5424 10.172 35.9451 11.6994 36.9625C16.6552 40.2633 22.6681 40.905 28.2003 38.7236C30.0569 37.9914 31.5339 37.2608 32.572 36.5612C40.0238 31.5388 42.5879 21.6503 38.5847 13.3723C37.1047 10.3116 34.5688 7.44569 31.809 5.71447C30.164 4.68277 27.8558 3.75669 25.8953 3.34216C24.3772 3.02125 21.5094 2.92763 20.002 3.14995ZM22.1803 12.9335C24.8458 13.0812 25.9381 13.4799 27.1046 14.7311C28.0563 15.7521 28.5348 17.0213 28.5321 18.5178C28.5286 20.4938 27.484 22.3192 25.9166 23.0886C25.5589 23.2642 25.2662 23.4501 25.2662 23.5016C25.2662 23.5531 25.9819 25.0779 26.8564 26.8902C27.7311 28.7024 28.4255 30.2007 28.3994 30.2198C28.3734 30.2388 28.0793 30.2331 27.746 30.207L27.14 30.1595L25.5484 26.6784L23.9569 23.1973L21.8584 23.1983C19.9502 23.1992 19.7078 23.2237 19.1852 23.4672L18.6104 23.7351V26.8963V30.0576H17.9448H17.2792V21.4367V12.8159L18.7616 12.8211C19.577 12.824 21.1154 12.8745 22.1803 12.9335ZM19.3673 14.7445L18.6117 15.0621L18.611 18.2939L18.6104 21.5257L20.5769 21.6088C21.8071 21.6606 22.7869 21.6441 23.194 21.5644C24.0315 21.4006 26.0095 20.5312 26.3346 20.1839C26.8149 19.671 27.1083 18.7918 27.1083 17.8655C27.1083 15.8306 25.9606 14.673 23.8376 14.5666C20.4546 14.3974 20.1658 14.4088 19.3673 14.7445Z" fill="#0369B7"/>
<path fill-rule="evenodd" clip-rule="evenodd" d="M20.002 3.14995C18.3853 3.3883 17.4047 3.6632 15.5245 4.40508C13.4684 5.21629 12.6726 5.61127 11.41 6.44773C7.4517 9.0698 4.80825 13.1167 3.82609 18.0578C3.44066 19.9973 3.44381 23.1138 3.83311 24.9579C4.39401 27.6146 5.30175 29.7991 6.76203 32.006C7.77856 33.5424 10.172 35.9451 11.6994 36.9625C16.6552 40.2633 22.6681 40.905 28.2003 38.7236C30.0569 37.9914 31.5339 37.2608 32.572 36.5612C40.0238 31.5388 42.5879 21.6503 38.5847 13.3723C37.1047 10.3116 34.5688 7.44569 31.809 5.71447C30.164 4.68277 27.8558 3.75669 25.8953 3.34216C24.3772 3.02125 21.5094 2.92763 20.002 3.14995ZM28.4731 4.33137C32.2999 5.71824 35.9931 8.95057 37.9059 12.5872L38.4563 13.6336L37.8505 13.8863L37.2446 14.1389L37.4145 14.5398C37.7009 15.2156 38.3134 17.3124 38.5424 18.4012C38.849 19.8598 38.8471 24.0684 38.539 25.6062C37.2327 32.1258 32.5428 37.3277 26.3681 39.1054C17.8581 41.5555 8.77403 37.0557 5.20324 28.6215C2.2909 21.7427 3.7847 13.8099 8.9495 8.7274C9.50411 8.18161 10.1212 7.60147 10.3208 7.43816C11.5344 6.44567 14.1186 5.0769 15.8334 4.51848C17.7986 3.87836 18.6105 3.76932 21.3332 3.77964C22.7309 3.78498 24.0961 3.84521 24.3669 3.91357C24.76 4.01289 24.9644 3.99662 25.3807 3.83331C25.8729 3.64013 25.9539 3.64098 26.8246 3.84849C27.3319 3.9693 28.0737 4.18664 28.4731 4.33137ZM15.706 21.5824V30.6303L17.1704 30.7161C17.9758 30.7635 18.67 30.7668 18.7133 30.7234C18.7565 30.6802 18.8093 29.1161 18.8307 27.2475L18.8696 23.8503L20.8275 23.8711C22.7516 23.8915 22.7911 23.8972 23.1182 24.2047C23.3011 24.3768 23.451 24.6337 23.451 24.7754C23.451 25.1184 23.8433 26.0855 24.9042 28.3577C25.3876 29.3928 25.7892 30.3821 25.7968 30.5561L25.8107 30.8724L27.3767 30.9478C28.2379 30.9893 28.9669 30.9988 28.9966 30.9691C29.0262 30.9393 28.4923 29.7522 27.8102 28.3311C27.128 26.9099 26.3343 25.2451 26.0464 24.6314L25.523 23.5157L26.1509 23.1595C28.3462 21.9146 29.3153 19.0304 28.4178 16.4129C27.7962 14.6004 26.2511 13.3042 24.1968 12.872C23.6693 12.761 22.0619 12.6733 19.5482 12.6184L15.706 12.5345V21.5824ZM22.1803 12.9335C24.8458 13.0812 25.9381 13.4799 27.1046 14.7311C28.0563 15.7521 28.5348 17.0213 28.5321 18.5178C28.5286 20.4938 27.484 22.3192 25.9166 23.0886C25.5589 23.2642 25.2662 23.4501 25.2662 23.5016C25.2662 23.5531 25.9819 25.0779 26.8564 26.8902C27.7311 28.7024 28.4255 30.2007 28.3994 30.2198C28.3734 30.2388 28.0793 30.2331 27.746 30.207L27.14 30.1595L25.5484 26.6784L23.9569 23.1973L21.8584 23.1983C19.9502 23.1992 19.7078 23.2237 19.1852 23.4672L18.6104 23.7351V26.8963V30.0576H17.9448H17.2792V21.4367V12.8159L18.7616 12.8211C19.577 12.824 21.1154 12.8745 22.1803 12.9335ZM19.3673 14.7445L18.6117 15.0621L18.611 18.2939L18.6104 21.5257L20.5769 21.6088C21.8071 21.6606 22.7869 21.6441 23.194 21.5644C24.0315 21.4006 26.0095 20.5312 26.3346 20.1839C26.8149 19.671 27.1083 18.7918 27.1083 17.8655C27.1083 15.8306 25.9606 14.673 23.8376 14.5666C20.4546 14.3974 20.1658 14.4088 19.3673 14.7445ZM24.2376 15.3885C25.0197 15.5885 25.8846 16.6475 25.5444 16.9887C25.4978 17.0356 25.4749 17.5595 25.4937 18.1533C25.5209 19.0152 25.4801 19.3383 25.2917 19.7578C24.6563 21.1719 23.4836 21.5589 20.3785 21.3792L18.8524 21.2909V18.1944V15.0978L21.3029 15.1814C22.6507 15.2273 23.9713 15.3205 24.2376 15.3885Z" fill="#035A9D"/>
<path fill-rule="evenodd" clip-rule="evenodd" d="M20.002 3.14995C18.3853 3.3883 17.4047 3.6632 15.5245 4.40508C13.4684 5.21629 12.6726 5.61127 11.41 6.44773C7.4517 9.0698 4.80825 13.1167 3.82609 18.0578C3.44066 19.9973 3.44381 23.1138 3.83311 24.9579C4.39401 27.6146 5.30175 29.7991 6.76203 32.006C7.77856 33.5424 10.172 35.9451 11.6994 36.9625C16.6552 40.2633 22.6681 40.905 28.2003 38.7236C30.0569 37.9914 31.5339 37.2608 32.572 36.5612C40.0238 31.5388 42.5879 21.6503 38.5847 13.3723C37.1047 10.3116 34.5688 7.44569 31.809 5.71447C30.164 4.68277 27.8558 3.75669 25.8953 3.34216C24.3772 3.02125 21.5094 2.92763 20.002 3.14995ZM26.1133 3.57128C32.7956 5.13117 37.9546 10.2152 39.6614 16.9223C39.7943 17.4443 39.9178 18.187 39.9362 18.5729L39.9695 19.2746L39.4593 19.4776L38.9491 19.6806L38.9029 22.0461C38.8674 23.8629 38.7966 24.696 38.5975 25.6383C37.2465 32.0337 33.019 36.9228 27.1334 38.8964C25.0727 39.5875 24.2271 39.7108 21.5752 39.7072C19.3879 39.7043 19.0257 39.6732 17.812 39.3842C9.99132 37.5215 4.25908 30.7397 3.7455 22.742C3.32642 16.2172 6.12187 10.262 11.2625 6.72833C13.2274 5.37753 16.2271 4.14487 18.3078 3.83307C18.8403 3.75329 19.4393 3.63066 19.639 3.56048C20.3746 3.30197 21.137 3.24114 23.0879 3.28558C24.5137 3.31812 25.3787 3.39984 26.1133 3.57128ZM15.8277 21.5784L15.8286 30.6039L17.2799 30.6269L18.7314 30.6498V27.2544V23.859L19.0131 23.7517C19.168 23.6926 20.2648 23.6591 21.4503 23.6772C23.5821 23.7096 23.6078 23.7132 23.7662 24C23.867 24.1825 23.9298 24.2226 23.9356 24.108C23.9406 24.0078 24.0301 24.0842 24.1346 24.2777C24.2696 24.5277 24.3028 24.7934 24.2495 25.1961C24.1594 25.8784 24.3517 26.4829 25.2985 28.4931C25.6638 29.2688 26.0264 30.097 26.1042 30.3334L26.2457 30.7635L27.516 30.8503C28.2147 30.8981 28.8125 30.911 28.8445 30.8788C28.9253 30.7977 28.6603 30.2035 26.9766 26.6894C26.1689 25.0038 25.5082 23.5778 25.5082 23.5205C25.5082 23.4632 25.7373 23.3127 26.0172 23.186C26.7884 22.8371 27.7073 21.8619 28.1803 20.8903C28.5877 20.0535 28.594 20.016 28.5899 18.4619C28.5862 17.123 28.545 16.7821 28.3184 16.2156C27.5644 14.3309 25.9175 13.1504 23.582 12.8207C23.1438 12.7589 21.2198 12.6733 19.3062 12.6306L15.827 12.553L15.8277 21.5784ZM22.1803 12.9335C24.8458 13.0812 25.9381 13.4799 27.1046 14.7311C28.0563 15.7521 28.5348 17.0213 28.5321 18.5178C28.5286 20.4938 27.484 22.3192 25.9166 23.0886C25.5589 23.2642 25.2662 23.4501 25.2662 23.5016C25.2662 23.5531 25.9819 25.0779 26.8564 26.8902C27.7311 28.7024 28.4255 30.2007 28.3994 30.2198C28.3734 30.2388 28.0793 30.2331 27.746 30.207L27.14 30.1595L25.5484 26.6784L23.9569 23.1973L21.8584 23.1983C19.9502 23.1992 19.7078 23.2237 19.1852 23.4672L18.6104 23.7351V26.8963V30.0576H17.9448H17.2792V21.4367V12.8159L18.7616 12.8211C19.577 12.824 21.1154 12.8745 22.1803 12.9335ZM19.3673 14.7445L18.6117 15.0621L18.611 18.2939L18.6104 21.5257L20.5769 21.6088C21.8071 21.6606 22.7869 21.6441 23.194 21.5644C24.0315 21.4006 26.0095 20.5312 26.3346 20.1839C26.8149 19.671 27.1083 18.7918 27.1083 17.8655C27.1083 15.8306 25.9606 14.673 23.8376 14.5666C20.4546 14.3974 20.1658 14.4088 19.3673 14.7445ZM24.4781 15.3455C25.5018 15.8118 25.8616 16.2555 25.9564 17.1684C25.997 17.5594 25.9633 17.7582 25.8414 17.8485C25.7424 17.9218 25.6354 18.3003 25.5903 18.7366C25.4903 19.7025 25.1492 20.3729 24.5279 20.8245C23.8196 21.3393 23.0695 21.4576 20.7886 21.4141L18.7919 21.376L18.7596 18.2588C18.7297 15.367 18.7428 15.1369 18.9411 15.0794C19.0587 15.0451 20.2168 15.0292 21.5147 15.0439C23.6754 15.0683 23.9255 15.0938 24.4781 15.3455Z" fill="#044A81"/>
<path fill-rule="evenodd" clip-rule="evenodd" d="M20.002 3.14995C18.3853 3.3883 17.4047 3.6632 15.5245 4.40508C13.4684 5.21629 12.6726 5.61127 11.41 6.44773C7.4517 9.0698 4.80825 13.1167 3.82609 18.0578C3.44066 19.9973 3.44381 23.1138 3.83311 24.9579C4.39401 27.6146 5.30175 29.7991 6.76203 32.006C7.77856 33.5424 10.172 35.9451 11.6994 36.9625C16.6552 40.2633 22.6681 40.905 28.2003 38.7236C30.0569 37.9914 31.5339 37.2608 32.572 36.5612C40.0238 31.5388 42.5879 21.6503 38.5847 13.3723C37.1047 10.3116 34.5688 7.44569 31.809 5.71447C30.164 4.68277 27.8558 3.75669 25.8953 3.34216C24.3772 3.02125 21.5094 2.92763 20.002 3.14995ZM25.7683 3.47014C32.8977 4.92791 38.4522 10.5922 39.9216 17.9031C40.0514 18.5495 40.1899 19.8936 40.2321 20.9193L40.3083 22.7695L39.6246 23.073C38.9798 23.359 38.9409 23.4008 38.9409 23.8049C38.9409 24.0407 38.8083 24.8473 38.6463 25.5974C36.9303 33.5428 30.9352 39.0167 23.1211 39.7729C20.1063 40.0647 16.6101 39.3823 13.7634 37.9465C10.2928 36.1962 7.15061 32.9665 5.49247 29.4452C2.65794 23.4259 3.1449 16.5851 6.79265 11.1767C7.75532 9.74939 9.8991 7.59722 11.2505 6.70138C13.7821 5.02311 17.5977 3.59496 20.5162 3.23313C21.8395 3.06909 24.3636 3.18298 25.7683 3.47014ZM15.8844 12.6994C15.8608 12.7379 15.9759 13.4492 16.1403 14.2801C16.4352 15.7699 16.4396 15.8825 16.4529 22.4688C16.4604 26.1417 16.4254 29.4412 16.3752 29.801C16.2852 30.4454 16.2881 30.454 16.5697 30.3849C16.727 30.3464 17.2368 30.3877 17.7027 30.4768C18.3341 30.5975 18.5725 30.6035 18.6388 30.4999C18.6877 30.4236 18.7285 28.8781 18.7296 27.0655L18.7314 23.77L19.0642 23.6775C19.2471 23.6266 20.1717 23.598 21.1185 23.614C22.2049 23.6324 23.0016 23.5895 23.2777 23.4981C23.556 23.406 23.7574 23.3955 23.8309 23.4693C24.0799 23.719 24.8778 25.7504 24.7711 25.8625C24.5342 26.111 24.6898 26.7146 25.3746 28.2031C25.7672 29.0561 26.1685 29.9485 26.2665 30.1863L26.4447 30.6185L27.6205 30.7728C28.2672 30.8577 28.826 30.8974 28.8623 30.861C28.8986 30.8246 28.1371 29.1558 27.1701 27.1523L25.4121 23.51L26.0675 23.1388C27.781 22.1685 28.6546 20.5644 28.6546 18.3885C28.6546 17.2113 28.3258 16.1106 27.6919 15.1653C26.5828 13.5117 25.0419 12.85 22.0593 12.7463C19.2878 12.6499 15.9306 12.6244 15.8844 12.6994ZM22.1803 12.9335C24.8458 13.0812 25.9381 13.4799 27.1046 14.7311C28.0563 15.7521 28.5348 17.0213 28.5321 18.5178C28.5286 20.4938 27.484 22.3192 25.9166 23.0886C25.5589 23.2642 25.2662 23.4501 25.2662 23.5016C25.2662 23.5531 25.9819 25.0779 26.8564 26.8902C27.7311 28.7024 28.4255 30.2007 28.3994 30.2198C28.3734 30.2388 28.0793 30.2331 27.746 30.207L27.14 30.1595L25.5484 26.6784L23.9569 23.1973L21.8584 23.1983C19.9502 23.1992 19.7078 23.2237 19.1852 23.4672L18.6104 23.7351V26.8963V30.0576H17.9448H17.2792V21.4367V12.8159L18.7616 12.8211C19.577 12.824 21.1154 12.8745 22.1803 12.9335ZM19.3673 14.7445L18.6117 15.0621L18.611 18.2939L18.6104 21.5257L20.5769 21.6088C21.8071 21.6606 22.7869 21.6441 23.194 21.5644C24.0315 21.4006 26.0095 20.5312 26.3346 20.1839C26.8149 19.671 27.1083 18.7918 27.1083 17.8655C27.1083 15.8306 25.9606 14.673 23.8376 14.5666C20.4546 14.3974 20.1658 14.4088 19.3673 14.7445ZM24.394 15.1978C24.7739 15.297 25.206 15.4577 25.3544 15.5551C25.6573 15.754 26.1 16.6461 26.1987 17.2567C26.3011 17.8895 26.1333 18.7428 25.8912 18.8199C25.7715 18.858 25.6114 19.1269 25.5164 19.4497C25.3163 20.13 24.7971 20.7507 24.128 21.11C23.6734 21.354 23.4299 21.3793 21.1819 21.4153L18.7314 21.4546V18.2988V15.1431L19.0642 15.0125C19.5347 14.8277 23.5054 14.9657 24.394 15.1978Z" fill="#034070"/>
<path fill-rule="evenodd" clip-rule="evenodd" d="M20.002 3.14995C18.3853 3.3883 17.4047 3.6632 15.5245 4.40508C13.4684 5.21629 12.6726 5.61127 11.41 6.44773C7.4517 9.0698 4.80825 13.1167 3.82609 18.0578C3.44066 19.9973 3.44381 23.1138 3.83311 24.9579C4.39401 27.6146 5.30175 29.7991 6.76203 32.006C7.77856 33.5424 10.172 35.9451 11.6994 36.9625C16.6552 40.2633 22.6681 40.905 28.2003 38.7236C30.0569 37.9914 31.5339 37.2608 32.572 36.5612C40.0238 31.5388 42.5879 21.6503 38.5847 13.3723C37.1047 10.3116 34.5688 7.44569 31.809 5.71447C30.164 4.68277 27.8558 3.75669 25.8953 3.34216C24.3772 3.02125 21.5094 2.92763 20.002 3.14995ZM25.5675 3.40178C32.4835 4.78367 37.9347 9.95739 39.7151 16.8289C40.5102 19.8976 40.4333 23.662 39.5121 26.7792C39.3699 27.2604 39.2763 27.3617 38.7275 27.6281C38.1982 27.885 38.0739 28.013 37.9017 28.478C36.4459 32.4107 33.0797 36.161 29.3109 38.049C26.9459 39.2337 24.449 39.8117 21.6962 39.8117C18.7518 39.8117 16.5698 39.304 13.9513 38.0093C11.9301 37.01 10.4716 35.9463 8.90363 34.328C2.81925 28.0485 1.92301 18.5134 6.73335 11.2374C7.70631 9.76566 9.89632 7.5954 11.4448 6.56818C13.8542 4.96992 17.4065 3.62993 20.3046 3.22596C21.4121 3.07164 24.4179 3.17205 25.5675 3.40178ZM16.0215 13.0157C16.068 13.2064 16.1824 13.5808 16.276 13.8479C16.6261 14.8475 16.9988 16.8748 16.8999 17.2413C16.7753 17.703 16.8702 23.8216 17.0168 24.7758C17.0995 25.3139 17.0874 25.6154 16.9706 25.9293C16.8752 26.1856 16.793 27.113 16.7631 28.2666L16.7136 30.179L17.2082 30.1843C17.4802 30.1872 17.9027 30.2613 18.147 30.3488C18.5635 30.4981 18.5956 30.492 18.6597 30.2524C18.6972 30.1118 18.7288 28.6006 18.7297 26.8943L18.7314 23.7917L19.3062 23.585C19.7606 23.4216 20.303 23.3783 21.8965 23.3788L23.9119 23.3794L24.6569 25.1704C25.0666 26.1555 25.6387 27.5077 25.9281 28.1755C26.2176 28.8434 26.5517 29.6404 26.6706 29.9468L26.8866 30.5039L27.7811 30.6547C28.273 30.7376 28.6938 30.7872 28.7161 30.7648C28.8131 30.6675 28.2191 29.3062 26.85 26.4888C26.0422 24.8264 25.3963 23.4604 25.4145 23.4533C26.5798 22.9943 27.5682 22.0527 28.1411 20.8557C28.8678 19.3375 28.8282 17.3319 28.0404 15.7501C27.3836 14.4312 25.8387 13.2853 24.2349 12.9272C23.9034 12.8533 21.9016 12.765 19.7848 12.731L15.9371 12.6692L16.0215 13.0157ZM22.1803 12.9335C24.8458 13.0812 25.9381 13.4799 27.1046 14.7311C28.0563 15.7521 28.5348 17.0213 28.5321 18.5178C28.5286 20.4938 27.484 22.3192 25.9166 23.0886C25.5589 23.2642 25.2662 23.4501 25.2662 23.5016C25.2662 23.5531 25.9819 25.0779 26.8564 26.8902C27.7311 28.7024 28.4255 30.2007 28.3994 30.2198C28.3734 30.2388 28.0793 30.2331 27.746 30.207L27.14 30.1595L25.5484 26.6784L23.9569 23.1973L21.8584 23.1983C19.9502 23.1992 19.7078 23.2237 19.1852 23.4672L18.6104 23.7351V26.8963V30.0576H17.9448H17.2792V21.4367V12.8159L18.7616 12.8211C19.577 12.824 21.1154 12.8745 22.1803 12.9335ZM19.3673 14.7445L18.6117 15.0621L18.611 18.2939L18.6104 21.5257L20.5769 21.6088C21.8071 21.6606 22.7869 21.6441 23.194 21.5644C24.0315 21.4006 26.0095 20.5312 26.3346 20.1839C26.8149 19.671 27.1083 18.7918 27.1083 17.8655C27.1083 15.8306 25.9606 14.673 23.8376 14.5666C20.4546 14.3974 20.1658 14.4088 19.3673 14.7445ZM25.0803 15.0237C25.3634 15.096 25.7506 15.3375 26.0251 15.6129L26.4901 16.0795L26.451 17.453C26.4187 18.5905 26.3708 18.8834 26.1719 19.1572C26.0398 19.3391 25.8501 19.5197 25.7502 19.5586C25.6504 19.5974 25.404 19.8572 25.2026 20.1356C24.777 20.7242 24.2052 21.1408 23.5863 21.3133C23.3454 21.3805 22.1545 21.4356 20.9399 21.436L18.7314 21.4367V18.2928V15.1488L19.1852 14.9543C19.5721 14.7885 20.0051 14.7701 22.1198 14.8305C23.4842 14.8693 24.8165 14.9563 25.0803 15.0237Z" fill="#022E50"/>
<path fill-rule="evenodd" clip-rule="evenodd" d="M21.7305 3.07081C22.1491 3.09461 22.8026 3.09449 23.1827 3.07045C23.5628 3.04641 23.2203 3.02698 22.4216 3.02722C21.6229 3.02747 21.3119 3.04714 21.7305 3.07081ZM20.1541 3.18811C20.3046 3.21712 20.5224 3.21603 20.6381 3.18568C20.7538 3.15532 20.6306 3.13152 20.3644 3.13286C20.0982 3.13419 20.0035 3.15909 20.1541 3.18811ZM24.2686 3.18811C24.4191 3.21712 24.6369 3.21603 24.7526 3.18568C24.8683 3.15532 24.7451 3.13152 24.4789 3.13286C24.2127 3.13419 24.118 3.15909 24.2686 3.18811ZM18.8517 3.35105C18.6477 3.42063 18.7462 3.43143 19.1542 3.38408C19.487 3.34559 19.7821 3.29362 19.8098 3.26885C19.905 3.18349 19.154 3.24797 18.8517 3.35105ZM26.1731 3.52456C32.4084 4.98719 37.3683 9.54689 39.4068 15.6902C39.7614 16.7588 40.2177 18.8988 40.3085 19.919L40.3517 20.4047L40.372 19.8948C40.3832 19.6143 40.2809 18.8057 40.1448 18.0978C39.4584 14.5289 37.7955 11.2501 35.3927 8.72779C33.2724 6.50203 31.0015 4.99642 28.2909 4.01911C27.2812 3.65509 25.5781 3.22125 25.205 3.23303C25.0719 3.23716 25.5075 3.36841 26.1731 3.52456ZM17.2965 3.72867C16.8738 3.86041 16.5486 3.98875 16.5736 4.01389C16.5988 4.03914 17.0535 3.92998 17.5842 3.77141C18.115 3.61283 18.4403 3.48437 18.3071 3.48619C18.174 3.48789 17.7193 3.59693 17.2965 3.72867ZM15.8868 4.26C15.5842 4.40632 15.5741 4.42307 15.8263 4.36127C16.1693 4.27725 16.5546 4.08006 16.3709 4.08285C16.3043 4.08382 16.0865 4.16348 15.8868 4.26ZM14.6767 4.73876C14.3439 4.89613 14.1261 5.02592 14.1926 5.02738C14.2592 5.02884 14.5859 4.90135 14.9187 4.74411C15.2515 4.58675 15.4693 4.45695 15.4028 4.45549C15.3362 4.45403 15.0095 4.58152 14.6767 4.73876ZM12.9825 5.50347C10.9913 6.56626 9.13966 8.04516 7.81854 9.62763C6.95364 10.6637 6.16874 11.7945 5.85834 12.4516C5.63712 12.9201 5.69291 12.8432 6.55369 11.4943C8.0907 9.08549 10.3977 6.99694 13.1035 5.56455C13.636 5.28273 14.0172 5.05191 13.9506 5.05179C13.884 5.05154 13.4484 5.2548 12.9825 5.50347ZM17.1409 13.206C17.1167 13.5083 17.1242 17.4373 17.1575 21.937L17.218 30.1183H17.9441H18.6702L18.7024 26.9472L18.7347 23.7759L19.409 23.517C19.992 23.2931 20.3362 23.258 21.9494 23.258H23.8156L24.1822 24.0169C24.3838 24.4344 25.1065 26.0325 25.7883 27.5685L27.028 30.3611L27.8409 30.3971C28.2881 30.4167 28.6539 30.4064 28.6539 30.3739C28.6539 30.3415 27.9154 28.7734 27.0127 26.8894C25.7596 24.2741 25.409 23.4399 25.5303 23.3628C25.6564 23.2826 25.6571 23.2613 25.534 23.2599C25.4487 23.2589 25.3514 23.3298 25.3179 23.4176C25.2843 23.5054 25.9744 25.064 26.8515 26.8812C27.7285 28.6984 28.4248 30.2007 28.3987 30.2198C28.3727 30.2389 28.0786 30.2332 27.7453 30.207L27.1393 30.1596L25.5477 26.6785L23.9562 23.1973L21.8577 23.1983C19.9496 23.1993 19.7072 23.2237 19.1845 23.4672L18.6097 23.7351V26.8963V30.0576H17.9441H17.2785V21.4367V12.8159L18.7609 12.8211C24.0992 12.8399 25.6778 13.2014 27.104 14.7312C28.0275 15.722 28.4037 16.6545 28.535 18.2798C28.6133 19.2501 28.6193 19.2674 28.6361 18.5695C28.6876 16.4258 27.672 14.5345 25.9706 13.6054C24.7587 12.9435 23.9406 12.8152 20.4083 12.7321L17.1848 12.6565L17.1409 13.206ZM5.35359 13.3097C5.30966 13.3809 5.29973 13.4652 5.33144 13.4971C5.36315 13.5289 5.42135 13.4706 5.4608 13.3675C5.54261 13.1536 5.47291 13.1159 5.35359 13.3097ZM4.9546 14.2174C4.7519 14.6639 4.79062 14.7592 5.00978 14.3533C5.11216 14.1637 5.17327 13.9859 5.14568 13.9581C5.11797 13.9304 5.03205 14.0471 4.9546 14.2174ZM19.5173 14.7015C18.8219 15.0231 18.8333 15.0987 19.5328 14.804C19.931 14.6363 20.3462 14.6168 22.3006 14.6737C23.6251 14.7125 24.7935 14.8051 25.0567 14.8924C25.7379 15.1185 26.4239 15.7688 26.6777 16.4295C26.9743 17.2011 26.9797 18.5293 26.6874 18.8534C26.571 18.9825 26.4756 19.1418 26.4756 19.2073C26.4756 19.349 25.7619 20.1011 25.6273 20.1011C25.5759 20.1011 25.2707 20.3193 24.9489 20.5861C23.938 21.4243 23.365 21.5308 20.2093 21.4668L18.7229 21.4367L18.7571 18.219C18.7758 16.4493 18.7503 15.0013 18.7004 15.0013C18.6506 15.0015 18.6097 16.4694 18.6097 18.2635V21.5257L20.5762 21.6088C21.8064 21.6606 22.7863 21.6441 23.1934 21.5645C24.0308 21.4007 26.0088 20.5312 26.3339 20.1839C26.8142 19.671 27.1076 18.7918 27.1076 17.8655C27.1076 15.8306 25.9599 14.673 23.8369 14.5667C20.4719 14.3982 20.1515 14.4082 19.5173 14.7015ZM4.52645 15.3097C4.40967 15.615 4.44404 15.6938 4.58671 15.4477C4.65739 15.3258 4.6897 15.2005 4.65848 15.1693C4.62737 15.1379 4.56784 15.2012 4.52645 15.3097ZM4.33948 15.9222C4.34529 16.0636 4.37397 16.0924 4.41257 15.9956C4.44755 15.908 4.44319 15.8032 4.40301 15.7629C4.36284 15.7226 4.33428 15.7942 4.33948 15.9222ZM4.09745 16.7721C4.10326 16.9136 4.13194 16.9424 4.17054 16.8456C4.20552 16.7579 4.20116 16.6531 4.16098 16.6128C4.12081 16.5725 4.09225 16.6442 4.09745 16.7721ZM3.97644 17.2578C3.98224 17.3993 4.01092 17.428 4.04953 17.3313C4.0845 17.2436 4.08015 17.1388 4.03997 17.0985C3.99979 17.0582 3.97123 17.1298 3.97644 17.2578ZM3.85542 17.8649C3.86123 18.0064 3.88991 18.0351 3.92851 17.9384C3.96349 17.8507 3.95913 17.7459 3.91895 17.7056C3.87878 17.6653 3.85022 17.7369 3.85542 17.8649ZM3.74397 18.5226C3.74397 18.6896 3.77144 18.758 3.80496 18.6744C3.8386 18.591 3.8386 18.4544 3.80496 18.3709C3.77144 18.2875 3.74397 18.3557 3.74397 18.5226ZM3.63675 19.494C3.63675 19.7945 3.66035 19.9175 3.68927 19.7672C3.71807 19.6169 3.71807 19.3711 3.68927 19.2208C3.66035 19.0705 3.63675 19.1935 3.63675 19.494ZM28.4214 19.6862C28.4273 19.8277 28.4559 19.8564 28.4945 19.7597C28.5295 19.672 28.5252 19.5672 28.485 19.5269C28.4448 19.4866 28.4162 19.5582 28.4214 19.6862ZM28.3004 20.1719C28.3062 20.3134 28.3349 20.3421 28.3735 20.2454C28.4085 20.1577 28.4041 20.0529 28.364 20.0126C28.3238 19.9723 28.2952 20.0439 28.3004 20.1719ZM3.54308 21.9224C3.63287 25.5881 4.67469 28.8524 6.76135 32.006C7.77788 33.5425 10.1713 35.9451 11.6988 36.9625C16.6546 40.2633 22.6674 40.905 28.1996 38.7236C31.8112 37.2993 34.0052 35.8444 36.0117 33.5427C38.4286 30.7703 40.1536 26.7393 40.335 23.4402L40.3817 22.5902L40.2704 23.3795C39.8185 26.5853 38.9338 29.0234 37.3728 31.365C36.7486 32.3013 36.5751 32.4782 36.1042 32.6586C35.6977 32.8144 35.4016 33.0659 34.9412 33.6463C32.6118 36.5836 28.8164 38.7949 24.7166 39.6033C23.2306 39.8963 20.1797 39.8992 18.6097 39.609C14.5397 38.8569 10.5627 36.5185 7.94113 33.3359C5.28267 30.1086 3.87115 26.3605 3.59839 21.8048L3.5 20.1618L3.54308 21.9224ZM27.8785 21.1431C27.688 21.5079 27.2264 22.0873 26.8527 22.4307C26.4789 22.7739 26.2843 22.9954 26.4202 22.9228C26.9988 22.6138 28.4587 20.7146 28.2662 20.5215C28.2433 20.4985 28.0688 20.7783 27.8785 21.1431ZM40.4353 21.4974C40.435 22.0985 40.4554 22.3596 40.4808 22.0778C40.5061 21.796 40.5065 21.3043 40.4814 20.9851C40.4565 20.6658 40.4357 20.8964 40.4353 21.4974ZM25.8706 23.1366C25.7615 23.2073 25.7465 23.255 25.8332 23.2562C25.9124 23.2572 26.0109 23.2034 26.0521 23.1366C26.1449 22.9858 26.103 22.9858 25.8706 23.1366Z" fill="#00243E"/>
<path fill-rule="evenodd" clip-rule="evenodd" d="M21.7337 3.07081C22.1523 3.09461 22.8058 3.09449 23.1859 3.07045C23.566 3.04641 23.2235 3.02698 22.4248 3.02722C21.6261 3.02747 21.3151 3.04714 21.7337 3.07081ZM20.0348 3.18264C20.118 3.2164 20.2542 3.2164 20.3373 3.18264C20.4206 3.14901 20.3524 3.12145 20.186 3.12145C20.0197 3.12145 19.9516 3.14901 20.0348 3.18264ZM24.4541 3.18641C24.5719 3.21725 24.7352 3.21518 24.8172 3.18191C24.8991 3.14864 24.8028 3.12351 24.6031 3.12594C24.4034 3.12837 24.3364 3.15556 24.4541 3.18641ZM19.1877 3.30406C19.2709 3.33782 19.4071 3.33782 19.4902 3.30406C19.5735 3.27043 19.5053 3.24287 19.3389 3.24287C19.1725 3.24287 19.1045 3.27043 19.1877 3.30406ZM25.2384 3.30406C25.3217 3.33782 25.4578 3.33782 25.541 3.30406C25.6242 3.27043 25.5561 3.24287 25.3897 3.24287C25.2233 3.24287 25.1553 3.27043 25.2384 3.30406ZM18.7112 3.42803C18.7985 3.46312 18.9029 3.45875 18.9431 3.41844C18.9833 3.37813 18.9119 3.34947 18.7843 3.35469C18.6433 3.36052 18.6147 3.3893 18.7112 3.42803ZM25.8435 3.42548C25.9268 3.45924 26.0629 3.45924 26.146 3.42548C26.2293 3.39185 26.1612 3.36429 25.9948 3.36429C25.8284 3.36429 25.7604 3.39185 25.8435 3.42548ZM18.1062 3.54945C18.1934 3.58454 18.2979 3.58017 18.338 3.53986C18.3782 3.49955 18.3068 3.47089 18.1793 3.47611C18.0383 3.48194 18.0096 3.51072 18.1062 3.54945ZM26.4562 3.54945C26.5434 3.58454 26.6479 3.58017 26.6881 3.53986C26.7282 3.49955 26.6568 3.47089 26.5293 3.47611C26.3883 3.48194 26.3596 3.51072 26.4562 3.54945ZM26.9403 3.67087C27.0275 3.70596 27.1319 3.70159 27.1721 3.66128C27.2123 3.62097 27.1409 3.59231 27.0133 3.59754C26.8724 3.60336 26.8437 3.63214 26.9403 3.67087ZM17.2591 3.79229C17.3463 3.82738 17.4507 3.82301 17.4909 3.7827C17.5311 3.74239 17.4597 3.71373 17.3322 3.71896C17.1912 3.72478 17.1625 3.75356 17.2591 3.79229ZM16.6766 3.9522C16.5768 4.01692 16.5495 4.06986 16.6161 4.06986C16.6827 4.06986 16.8188 4.01692 16.9186 3.9522C17.0185 3.88749 17.0457 3.83455 16.9792 3.83455C16.9126 3.83455 16.7765 3.88749 16.6766 3.9522ZM28.5361 4.19504C28.6359 4.25976 28.7721 4.3127 28.8386 4.3127C28.9052 4.3127 28.8779 4.25976 28.7781 4.19504C28.6783 4.13033 28.5421 4.07739 28.4756 4.07739C28.409 4.07739 28.4362 4.13033 28.5361 4.19504ZM29.1411 4.43789C29.241 4.5026 29.3771 4.55554 29.4437 4.55554C29.5102 4.55554 29.483 4.5026 29.3832 4.43789C29.2833 4.37317 29.1472 4.32023 29.0806 4.32023C29.0141 4.32023 29.0413 4.37317 29.1411 4.43789ZM30.3513 4.97128C30.3513 4.99751 30.4358 5.05154 30.5391 5.09137C30.6468 5.13277 30.6953 5.11238 30.653 5.04365C30.582 4.92818 30.3513 4.87293 30.3513 4.97128ZM30.8354 5.20672C30.8354 5.24145 31.1341 5.44155 31.4995 5.65124C33.2342 6.64713 35.6267 8.85892 36.8194 10.5696C37.4707 11.5037 37.7799 11.868 37.4379 11.2981C36.5677 9.8485 34.5414 7.69972 32.8926 6.47811C31.9655 5.79124 30.8354 5.09283 30.8354 5.20672ZM12.3734 5.8409C12.1479 6.0223 12.1493 6.02449 12.4108 5.89736C12.5607 5.82451 12.6831 5.73951 12.6831 5.70855C12.6831 5.61566 12.6203 5.6425 12.3734 5.8409ZM10.8524 6.83594C10.702 7.02851 10.7062 7.03276 10.8982 6.88183C11.0998 6.72314 11.1638 6.62345 11.0642 6.62345C11.0391 6.62345 10.9438 6.71901 10.8524 6.83594ZM10.3684 7.2002C10.2179 7.39277 10.2222 7.39702 10.4141 7.2461C10.5306 7.15442 10.6259 7.05874 10.6259 7.03361C10.6259 6.93368 10.5265 6.99791 10.3684 7.2002ZM9.76957 7.68588L9.47623 8.01979L9.80902 7.72546C9.99199 7.56349 10.1418 7.41329 10.1418 7.39156C10.1418 7.29624 10.0438 7.37383 9.76957 7.68588ZM8.62344 8.71795L8.14507 9.23399L8.65938 8.75401C8.94231 8.49005 9.17369 8.25777 9.17369 8.23798C9.17369 8.14606 9.06829 8.2381 8.62344 8.71795ZM7.7744 9.68932L7.41898 10.0839L7.81227 9.72732C8.17883 9.39487 8.26124 9.2947 8.1677 9.2947C8.14688 9.2947 7.96984 9.47234 7.7744 9.68932ZM7.22051 10.3571C6.87235 10.7788 6.72496 10.9946 6.78474 10.9946C6.81826 10.9946 6.99107 10.8033 7.16872 10.5696C7.49848 10.1359 7.53842 9.9721 7.22051 10.3571ZM37.7332 11.9659C37.8045 12.0995 37.8899 12.2088 37.9232 12.2088C37.9565 12.2088 37.9255 12.0995 37.8542 11.9659C37.7829 11.8324 37.6975 11.7231 37.6642 11.7231C37.6309 11.7231 37.6619 11.8324 37.7332 11.9659ZM6.02731 12.0874C5.95603 12.2209 5.92505 12.3302 5.95833 12.3302C5.99161 12.3302 6.07704 12.2209 6.14832 12.0874C6.2196 11.9538 6.25058 11.8445 6.2173 11.8445C6.18402 11.8445 6.09858 11.9538 6.02731 12.0874ZM38.3634 13.1156C38.5757 13.5474 38.7695 13.8809 38.7938 13.8563C38.8479 13.8021 38.1162 12.3302 38.0351 12.3302C38.0034 12.3302 38.1512 12.6837 38.3634 13.1156ZM17.1901 21.4064L17.2195 30.1183L17.2514 21.4704L17.2833 12.8223L19.0675 12.7853L20.8516 12.7481L19.0062 12.7213L17.1607 12.6945L17.1901 21.4064ZM22.4853 12.9359C24.66 13.0669 25.7328 13.4374 26.8031 14.4275C27.4945 15.0669 27.7849 15.4819 28.1302 16.324C28.2836 16.6985 28.4106 16.9166 28.4122 16.8087C28.4187 16.3676 27.5423 14.878 26.9873 14.3869C25.7602 13.3011 24.6539 12.93 22.4853 12.8772L20.8516 12.8374L22.4853 12.9359ZM5.35676 13.3097C5.31283 13.3809 5.30291 13.4652 5.33462 13.4971C5.36632 13.5289 5.42453 13.4706 5.46398 13.3675C5.54579 13.1536 5.47608 13.1159 5.35676 13.3097ZM38.9471 14.3336C38.9471 14.4004 38.9999 14.537 39.0644 14.6372C39.1289 14.7374 39.1816 14.7647 39.1816 14.6979C39.1816 14.6311 39.1289 14.4945 39.0644 14.3944C38.9999 14.2942 38.9471 14.2669 38.9471 14.3336ZM19.6415 14.6372C19.1079 14.885 19.1241 14.9608 19.6639 14.7419C19.8512 14.666 20.1951 14.5629 20.4281 14.513C20.8403 14.4247 20.8419 14.4222 20.4886 14.4173C20.2889 14.4146 19.9077 14.5136 19.6415 14.6372ZM22.399 14.6056C22.7841 14.6298 23.3831 14.6295 23.7302 14.6051C24.0772 14.5807 23.762 14.5609 23.0299 14.5612C22.2978 14.5614 22.0139 14.5815 22.399 14.6056ZM25.0045 14.8681C26.3021 15.3178 26.9889 16.3549 26.983 17.8563C26.9803 18.558 26.916 18.8663 26.6721 19.3494C26.3027 20.0807 26.0347 20.2837 24.5594 20.9501C23.5305 21.4148 23.3027 21.4701 22.0786 21.5528C20.8222 21.6377 20.7933 21.6451 21.652 21.6617C22.9042 21.686 23.6471 21.5253 24.9667 20.9446C26.2209 20.3926 26.4739 20.1748 26.8494 19.323C27.3544 18.1776 27.1669 16.6433 26.3985 15.6324C26.0771 15.2096 25.0393 14.6373 24.6031 14.6423C24.47 14.6439 24.6506 14.7455 25.0045 14.8681ZM39.2644 15.1229C39.3065 15.2898 39.4157 15.6177 39.507 15.8514C39.6491 16.2151 39.6632 16.2257 39.6042 15.9255C39.5663 15.7325 39.4572 15.4047 39.3616 15.1969C39.2309 14.9129 39.2068 14.8946 39.2644 15.1229ZM18.6129 15.13C18.6129 15.2007 18.6673 15.2249 18.7339 15.1836C18.8004 15.1423 18.8549 15.0845 18.8549 15.055C18.8549 15.0255 18.8004 15.0015 18.7339 15.0015C18.6673 15.0015 18.6129 15.0594 18.6129 15.13ZM39.6865 16.4585C39.6865 16.5587 39.7332 16.7499 39.7905 16.8835C39.856 17.0366 39.8944 17.0589 39.8944 16.9442C39.8944 16.844 39.8477 16.6528 39.7905 16.5192C39.7249 16.3661 39.6865 16.3438 39.6865 16.4585ZM28.4342 17.3084C28.4342 17.4754 28.4616 17.5438 28.4952 17.4602C28.5288 17.3768 28.5288 17.2402 28.4952 17.1567C28.4616 17.0733 28.4342 17.1415 28.4342 17.3084ZM39.9306 17.4299C39.9306 17.5968 39.9581 17.6652 39.9916 17.5816C40.0252 17.4982 40.0252 17.3616 39.9916 17.2781C39.9581 17.1947 39.9306 17.2629 39.9306 17.4299ZM40.0516 18.037C40.0516 18.2039 40.0791 18.2723 40.1126 18.1887C40.1462 18.1053 40.1462 17.9687 40.1126 17.8852C40.0791 17.8018 40.0516 17.87 40.0516 18.037ZM3.73758 18.472C3.74339 18.6135 3.77207 18.6422 3.81068 18.5455C3.84565 18.4578 3.84129 18.353 3.80111 18.3127C3.76094 18.2724 3.73238 18.344 3.73758 18.472ZM28.5552 18.5226C28.5552 18.6896 28.5827 18.758 28.6162 18.6744C28.6498 18.591 28.6498 18.4544 28.6162 18.3709C28.5827 18.2875 28.5552 18.3557 28.5552 18.5226ZM40.1771 18.7048C40.1795 18.9051 40.2066 18.9724 40.2374 18.8542C40.2681 18.7361 40.266 18.5722 40.2329 18.49C40.1997 18.4078 40.1747 18.5044 40.1771 18.7048ZM3.62613 19.2512C3.62613 19.4181 3.6536 19.4865 3.68712 19.4029C3.72076 19.3195 3.72076 19.1829 3.68712 19.0994C3.6536 19.016 3.62613 19.0842 3.62613 19.2512ZM40.3074 19.6154C40.3074 19.9159 40.331 20.0389 40.36 19.8886C40.3888 19.7383 40.3888 19.4926 40.36 19.3422C40.331 19.1919 40.3074 19.3149 40.3074 19.6154ZM3.53125 21.4974C3.53149 22.232 3.55146 22.5169 3.57554 22.1304C3.59963 21.7441 3.59938 21.143 3.57506 20.7948C3.55074 20.4467 3.53101 20.7629 3.53125 21.4974ZM40.4385 21.4974C40.4381 22.0985 40.4586 22.3597 40.484 22.0778C40.5093 21.796 40.5096 21.3043 40.4846 20.9851C40.4597 20.6658 40.4389 20.8964 40.4385 21.4974ZM19.1308 21.5261C19.4489 21.5512 19.9391 21.5509 20.2199 21.5255C20.5008 21.5 20.2405 21.4795 19.6415 21.4798C19.0425 21.4802 18.8126 21.5011 19.1308 21.5261ZM27.0774 22.2563L26.6603 22.7116L27.1141 22.2932C27.3638 22.063 27.568 21.8582 27.568 21.8379C27.568 21.7451 27.4656 21.8326 27.0774 22.2563ZM40.3074 23.3795C40.3074 23.68 40.331 23.803 40.36 23.6527C40.3888 23.5023 40.3888 23.2566 40.36 23.1063C40.331 22.9559 40.3074 23.0789 40.3074 23.3795ZM3.6375 23.5616C3.63883 23.8287 3.66364 23.9237 3.69257 23.7726C3.72149 23.6216 3.7204 23.403 3.69014 23.2869C3.65989 23.1709 3.63617 23.2945 3.6375 23.5616ZM21.9032 23.2274C23.8175 23.2619 23.9271 23.2769 24.0019 23.5129C24.0452 23.65 24.1073 23.7352 24.1398 23.7026C24.1725 23.6699 24.1384 23.5292 24.0641 23.3899C23.9345 23.1469 23.8469 23.1377 21.9063 23.1638L19.8835 23.191L21.9032 23.2274ZM19.46 23.3795C19.3601 23.4442 19.3329 23.4971 19.3995 23.4971C19.466 23.4971 19.6021 23.4442 19.702 23.3795C19.8018 23.3147 19.8291 23.2618 19.7625 23.2618C19.6959 23.2618 19.5598 23.3147 19.46 23.3795ZM25.3188 23.3963C25.239 23.5259 26.4754 26.216 26.5708 26.1203C26.595 26.096 26.3357 25.518 25.9944 24.8358C25.6533 24.1536 25.4031 23.5196 25.4386 23.4267C25.5164 23.2233 25.4376 23.2034 25.3188 23.3963ZM18.7872 23.6897C18.5658 23.8678 18.5697 23.8702 18.8549 23.734C19.2253 23.557 19.2939 23.5009 19.1402 23.5009C19.0753 23.5009 18.9165 23.5859 18.7872 23.6897ZM24.1795 23.9036C24.1795 23.9248 24.825 25.3591 25.6138 27.0909L27.0482 30.2397L27.6408 30.2521L28.2335 30.2645L27.689 30.216L27.1444 30.1675L25.7051 27.0164C24.454 24.2776 24.1795 23.7176 24.1795 23.9036ZM3.75162 24.4115C3.75404 24.6119 3.78115 24.6791 3.81189 24.561C3.84262 24.4429 3.84057 24.2789 3.80741 24.1967C3.77425 24.1145 3.7492 24.2112 3.75162 24.4115ZM40.1726 24.3508C40.1726 24.5178 40.2001 24.5861 40.2336 24.5026C40.2673 24.4192 40.2673 24.2826 40.2336 24.199C40.2001 24.1156 40.1726 24.1839 40.1726 24.3508ZM40.0516 25.0793C40.0516 25.2463 40.0791 25.3147 40.1126 25.2311C40.1462 25.1477 40.1462 25.0111 40.1126 24.9276C40.0791 24.8442 40.0516 24.9124 40.0516 25.0793ZM3.8586 25.1501C3.86441 25.2916 3.89309 25.3204 3.93169 25.2236C3.96666 25.1359 3.96231 25.0311 3.92213 24.9908C3.88195 24.9505 3.85339 25.0222 3.8586 25.1501ZM3.97961 25.6358C3.98542 25.7773 4.0141 25.806 4.05271 25.7093C4.08768 25.6216 4.08332 25.5168 4.04314 25.4765C4.00297 25.4362 3.97441 25.5078 3.97961 25.6358ZM39.921 25.6358C39.9268 25.7773 39.9555 25.806 39.9941 25.7093C40.0291 25.6216 40.0247 25.5168 39.9846 25.4765C39.9444 25.4362 39.9158 25.5078 39.921 25.6358ZM4.10063 26.1215C4.10644 26.263 4.13512 26.2917 4.17372 26.195C4.20869 26.1073 4.20434 26.0025 4.16416 25.9622C4.12398 25.9219 4.09542 25.9935 4.10063 26.1215ZM39.8 26.1215C39.8058 26.263 39.8345 26.2917 39.8731 26.195C39.9081 26.1073 39.9037 26.0025 39.8636 25.9622C39.8234 25.9219 39.7948 25.9935 39.8 26.1215ZM26.6124 26.3543C26.6124 26.421 26.9879 27.2133 27.4469 28.1149C27.906 29.0164 28.2815 29.6994 28.2815 29.6326C28.2815 29.5658 27.906 28.7736 27.4469 27.872C26.9879 26.9705 26.6124 26.2875 26.6124 26.3543ZM4.22914 26.5364C4.22914 26.6366 4.27586 26.8278 4.3331 26.9614C4.39869 27.1145 4.43705 27.1368 4.43705 27.0221C4.43705 26.9219 4.39034 26.7307 4.3331 26.5971C4.26751 26.444 4.22914 26.4216 4.22914 26.5364ZM39.6175 26.7271C39.5731 26.9051 39.56 27.0742 39.5885 27.1028C39.617 27.1314 39.6768 27.0092 39.7214 26.8313C39.7658 26.6533 39.7788 26.4843 39.7504 26.4556C39.7218 26.4271 39.6621 26.5493 39.6175 26.7271ZM4.64677 27.872C4.8013 28.5151 5.95288 30.773 6.71975 31.9362C7.77839 33.542 10.133 35.9174 11.7019 36.9625C14.6404 38.9197 17.6375 39.8669 21.1542 39.9499L23.0299 39.9943L21.2147 39.8959C16.3132 39.6302 12.4273 37.933 9.11391 34.6108C7.16303 32.6549 6.234 31.2328 4.71139 27.872L4.5738 27.5685L4.64677 27.872ZM39.2609 27.816C39.1441 28.1213 39.1785 28.2001 39.3212 27.954C39.3918 27.8321 39.4241 27.7068 39.3929 27.6756C39.3618 27.6442 39.3023 27.7075 39.2609 27.816ZM39.0189 28.4231C38.9021 28.7284 38.9365 28.8072 39.0791 28.5611C39.1498 28.4392 39.1821 28.3139 39.1509 28.2827C39.1198 28.2513 39.0603 28.3146 39.0189 28.4231ZM38.5706 29.4771C38.0844 30.5281 37.0467 32.1059 36.1265 33.1935C34.3736 35.2649 31.9577 36.9697 28.8701 38.3136C28.3549 38.5378 27.9547 38.7427 27.9809 38.7689C28.0517 38.8399 30.536 37.7582 31.4404 37.2625C33.7222 36.0123 35.9136 33.9725 37.4205 31.6968C38.0812 30.6988 38.9962 28.9773 38.9112 28.8919C38.8849 28.8656 38.7316 29.129 38.5706 29.4771ZM28.2978 29.8755C28.2978 29.9422 28.3506 30.0788 28.4151 30.179C28.4796 30.2792 28.5323 30.3065 28.5323 30.2397C28.5323 30.1729 28.4796 30.0363 28.4151 29.9362C28.3506 29.836 28.2978 29.8087 28.2978 29.8755ZM18.2196 30.138C18.3028 30.1717 18.439 30.1717 18.5221 30.138C18.6053 30.1043 18.5372 30.0768 18.3708 30.0768C18.2044 30.0768 18.1364 30.1043 18.2196 30.138ZM27.0234 39.053C26.6906 39.182 26.5756 39.2566 26.768 39.2191C27.1485 39.1449 27.946 38.82 27.7495 38.8192C27.6829 38.8189 27.3562 38.9242 27.0234 39.053ZM25.6488 39.4248C25.4253 39.4894 24.7718 39.6157 24.1966 39.7056C23.6214 39.7955 23.3415 39.8737 23.5745 39.8793C24.0164 39.8898 26.214 39.4703 26.3309 39.3529C26.4273 39.2563 26.1206 39.2886 25.6488 39.4248Z" fill="#000C0C"/>
<path fill-rule="evenodd" clip-rule="evenodd" d="M23.4199 3.0612C23.5032 3.09495 23.6393 3.09495 23.7225 3.0612C23.8057 3.02756 23.7376 3 23.5712 3C23.4048 3 23.3368 3.02756 23.4199 3.0612ZM34.039 7.47337C34.1594 7.60693 34.2852 7.71621 34.3185 7.71621C34.3518 7.71621 34.2804 7.60693 34.16 7.47337C34.0396 7.33981 33.9137 7.23053 33.8804 7.23053C33.8472 7.23053 33.9186 7.33981 34.039 7.47337ZM8.62015 8.71793L8.14178 9.23396L8.6561 8.75399C8.93903 8.49002 9.17041 8.25774 9.17041 8.23795C9.17041 8.14604 9.065 8.23807 8.62015 8.71793ZM35.4306 8.847C35.4306 8.86788 35.6076 9.04552 35.8239 9.24161L36.2172 9.59823L35.8618 9.20361C35.5305 8.83583 35.4306 8.75314 35.4306 8.847ZM36.2777 9.82625C36.2777 9.85139 36.3731 9.94707 36.4895 10.0387C36.6814 10.1897 36.6857 10.1854 36.5353 9.99284C36.3771 9.79056 36.2777 9.72632 36.2777 9.82625ZM17.3692 12.7748C17.4524 12.8086 17.5886 12.8086 17.6717 12.7748C17.755 12.7412 17.6868 12.7136 17.5204 12.7136C17.354 12.7136 17.286 12.7412 17.3692 12.7748ZM21.3658 12.9049C21.6504 12.9306 22.0861 12.9302 22.3339 12.9041C22.5818 12.878 22.3489 12.857 21.8165 12.8575C21.284 12.8579 21.0812 12.8792 21.3658 12.9049ZM23.6696 13.0202C23.7568 13.0553 23.8613 13.0509 23.9014 13.0106C23.9416 12.9703 23.8702 12.9417 23.7427 12.9469C23.6017 12.9527 23.573 12.9815 23.6696 13.0202ZM27.0201 14.6372C27.28 14.9043 27.52 15.1229 27.5533 15.1229C27.5866 15.1229 27.4011 14.9043 27.1411 14.6372C26.8812 14.37 26.6412 14.1515 26.6079 14.1515C26.5746 14.1515 26.7602 14.37 27.0201 14.6372ZM20.213 14.478C20.3296 14.5086 20.52 14.5086 20.6366 14.478C20.7531 14.4475 20.6577 14.4225 20.4248 14.4225C20.1918 14.4225 20.0965 14.4475 20.213 14.478ZM24.0326 14.5987C24.1199 14.6338 24.2243 14.6294 24.2645 14.5891C24.3047 14.5488 24.2333 14.5201 24.1057 14.5253C23.9647 14.5312 23.936 14.5599 24.0326 14.5987ZM26.1125 15.4264C26.2688 15.5934 26.424 15.73 26.4573 15.73C26.4905 15.73 26.3899 15.5934 26.2335 15.4264C26.0772 15.2594 25.922 15.1229 25.8887 15.1229C25.8555 15.1229 25.9561 15.2594 26.1125 15.4264ZM27.0902 17.8649C27.096 18.0063 27.1247 18.0351 27.1633 17.9383C27.1982 17.8507 27.1939 17.7459 27.1537 17.7056C27.1135 17.6653 27.085 17.7369 27.0902 17.8649ZM40.2904 19.3726C40.2904 19.5395 40.3178 19.6079 40.3513 19.5243C40.385 19.4409 40.385 19.3043 40.3513 19.2208C40.3178 19.1374 40.2904 19.2056 40.2904 19.3726ZM26.3127 20.0803C26.2025 20.2025 25.8403 20.4304 25.5077 20.5866C25.1751 20.7429 24.9247 20.8925 24.9511 20.9191C25.0363 21.0045 26.1651 20.3789 26.4035 20.1142C26.5304 19.9735 26.6068 19.8582 26.5736 19.8582C26.5403 19.8582 26.4229 19.9582 26.3127 20.0803ZM3.51562 20.7082C3.51562 21.0087 3.53922 21.1317 3.56815 20.9814C3.59695 20.8311 3.59695 20.5853 3.56815 20.435C3.53922 20.2847 3.51562 20.4077 3.51562 20.7082ZM40.4352 21.4974C40.4348 22.0985 40.4553 22.3596 40.4807 22.0778C40.506 21.796 40.5064 21.3042 40.4813 20.985C40.4564 20.6658 40.4356 20.8964 40.4352 21.4974ZM24.1763 21.1939C24.0764 21.2586 24.0492 21.3115 24.1157 21.3115C24.1823 21.3115 24.3184 21.2586 24.4183 21.1939C24.5181 21.1292 24.5454 21.0762 24.4788 21.0762C24.4122 21.0762 24.2761 21.1292 24.1763 21.1939ZM23.3065 21.5196C23.3938 21.5547 23.4982 21.5504 23.5384 21.51C23.5786 21.4697 23.5072 21.4411 23.3796 21.4463C23.2386 21.4521 23.2099 21.4809 23.3065 21.5196ZM3.51901 22.1652C3.51901 22.5325 3.54164 22.6827 3.56936 22.4991C3.59707 22.3156 3.59707 22.0149 3.56936 21.8313C3.54164 21.6477 3.51901 21.7979 3.51901 22.1652ZM21.3058 21.6475C21.6239 21.6726 22.114 21.6723 22.3949 21.6469C22.6758 21.6214 22.4155 21.6009 21.8165 21.6012C21.2174 21.6016 20.9876 21.6225 21.3058 21.6475ZM22.7241 23.2054C23.1306 23.2966 24.0284 23.3125 23.9761 23.2277C23.9452 23.1775 23.61 23.1429 23.2313 23.1507C22.8525 23.1585 22.6242 23.1831 22.7241 23.2054ZM3.62284 23.7437C3.62284 23.9107 3.65031 23.979 3.68384 23.8955C3.71748 23.8121 3.71748 23.6755 3.68384 23.5919C3.65031 23.5085 3.62284 23.5767 3.62284 23.7437ZM40.2808 23.6931C40.2866 23.8345 40.3153 23.8633 40.3539 23.7665C40.3889 23.6789 40.3845 23.5741 40.3443 23.5338C40.3042 23.4935 40.2756 23.5651 40.2808 23.6931ZM27.3546 30.2662C27.5385 30.294 27.8108 30.2932 27.9597 30.2645C28.1085 30.2357 27.958 30.2129 27.6252 30.2137C27.2924 30.2147 27.1706 30.2382 27.3546 30.2662ZM36.6253 32.6984C36.4749 32.891 36.4791 32.8953 36.671 32.7443C36.8727 32.5856 36.9367 32.486 36.8371 32.486C36.812 32.486 36.7167 32.5816 36.6253 32.6984ZM7.35519 32.8961C7.35519 32.9213 7.45042 33.0169 7.56696 33.1086C7.75889 33.2595 7.76313 33.2553 7.61271 33.0627C7.45454 32.8604 7.35519 32.7962 7.35519 32.8961ZM36.1412 33.3055C35.9908 33.4981 35.9951 33.5024 36.187 33.3514C36.3034 33.2598 36.3988 33.1641 36.3988 33.139C36.3988 33.039 36.2994 33.1033 36.1412 33.3055ZM8.02077 33.7002C8.14118 33.8337 8.26703 33.943 8.30031 33.943C8.33359 33.943 8.26219 33.8337 8.14178 33.7002C8.02137 33.5666 7.89552 33.4573 7.86224 33.4573C7.82896 33.4573 7.90036 33.5666 8.02077 33.7002ZM35.1794 34.3983L34.8861 34.7322L35.2189 34.4379C35.4018 34.2759 35.5517 34.1257 35.5517 34.104C35.5517 34.0087 35.4536 34.0863 35.1794 34.3983ZM34.335 35.1269L33.918 35.5822L34.3718 35.1638C34.7941 34.7742 34.8812 34.6715 34.7888 34.6715C34.7686 34.6715 34.5644 34.8765 34.335 35.1269ZM9.95701 35.6429C10.0774 35.7765 10.2033 35.8857 10.2365 35.8857C10.2698 35.8857 10.1984 35.7765 10.078 35.6429C9.95761 35.5093 9.83176 35.4001 9.79848 35.4001C9.7652 35.4001 9.8366 35.5093 9.95701 35.6429ZM33.5434 35.7947L33.3129 36.0679L33.5852 35.8366C33.841 35.6192 33.9125 35.5215 33.8157 35.5215C33.7927 35.5215 33.6702 35.6443 33.5434 35.7947ZM10.5016 36.053C10.5016 36.0782 10.5968 36.1739 10.7133 36.2655C10.9053 36.4165 10.9095 36.4122 10.7591 36.2196C10.6009 36.0174 10.5016 35.9531 10.5016 36.053ZM32.6536 36.3806C31.9892 36.8184 31.7181 37.0947 32.2558 36.7863C32.6531 36.5585 33.3653 36.0115 33.2524 36.021C33.2191 36.0238 32.9496 36.1856 32.6536 36.3806ZM10.9856 36.4173C10.9856 36.4424 11.0809 36.5381 11.1974 36.6298C11.3893 36.7807 11.3936 36.7765 11.2432 36.5839C11.085 36.3816 10.9856 36.3174 10.9856 36.4173ZM30.8321 37.4642C30.3329 37.7248 29.9667 37.9405 30.0182 37.9439C30.1469 37.9521 31.8002 37.1114 31.8002 37.0376C31.8002 36.9557 31.84 36.9382 30.8321 37.4642ZM13.89 38.2534C14.0564 38.3489 14.247 38.4269 14.3135 38.4269C14.3801 38.4269 14.2984 38.3489 14.132 38.2534C13.9656 38.158 13.775 38.0799 13.7085 38.0799C13.6419 38.0799 13.7236 38.158 13.89 38.2534ZM29.2589 38.1927C29.159 38.2574 29.1318 38.3104 29.1984 38.3104C29.2649 38.3104 29.4011 38.2574 29.5009 38.1927C29.6007 38.128 29.628 38.0751 29.5614 38.0751C29.4949 38.0751 29.3587 38.128 29.2589 38.1927ZM28.4118 38.557C28.3119 38.6217 28.2847 38.6746 28.3513 38.6746C28.4178 38.6746 28.554 38.6217 28.6538 38.557C28.7536 38.4923 28.7809 38.4393 28.7143 38.4393C28.6478 38.4393 28.5116 38.4923 28.4118 38.557ZM25.2428 39.6113C25.33 39.6464 25.4344 39.642 25.4746 39.6017C25.5148 39.5614 25.4434 39.5327 25.3159 39.5379C25.1749 39.5438 25.1462 39.5725 25.2428 39.6113ZM24.6377 39.7327C24.7249 39.7678 24.8294 39.7634 24.8696 39.7231C24.9097 39.6828 24.8383 39.6541 24.7108 39.6594C24.5698 39.6652 24.5411 39.694 24.6377 39.7327ZM19.192 39.8541C19.2793 39.8892 19.3837 39.8848 19.4239 39.8445C19.4641 39.8042 19.3927 39.7756 19.2651 39.7808C19.1241 39.7866 19.0954 39.8154 19.192 39.8541ZM23.783 39.8516C23.8662 39.8853 24.0024 39.8853 24.0855 39.8516C24.1688 39.8179 24.1006 39.7904 23.9342 39.7904C23.7678 39.7904 23.6998 39.8179 23.783 39.8516ZM20.2735 39.9783C20.4233 40.0072 20.6683 40.0072 20.8181 39.9783C20.9679 39.9493 20.8453 39.9256 20.5458 39.9256C20.2463 39.9256 20.1237 39.9493 20.2735 39.9783ZM22.5146 39.9767C22.6323 40.0076 22.7957 40.0055 22.8776 39.9723C22.9596 39.939 22.8632 39.9139 22.6636 39.9163C22.4639 39.9187 22.3969 39.9459 22.5146 39.9767Z" fill="black"/>
</svg>
