<svg width="375" height="11910" viewBox="0 0 375 11910" fill="none" xmlns="http://www.w3.org/2000/svg">
<g filter="url(#filter0_f_1216_40182)">
<path d="M14.0632 11960.1C63.6736 11896.9 239.924 11923.8 271.755 11924.2L865.204 12061L1234.05 12550.3C895.802 12584.8 146.019 13183.3 -54.8979 13216.7C-327.004 13262 -633.895 13002.8 -608.436 12753.2C-584.199 12515.5 -448.293 12569 -457.759 12495.9C-477.945 12340 -50.1763 12042 14.0632 11960.1Z" fill="#2E88FC"/>
<path d="M14.0632 11960.1C63.6736 11896.9 239.924 11923.8 271.755 11924.2L865.204 12061L1234.05 12550.3C895.802 12584.8 146.019 13183.3 -54.8979 13216.7C-327.004 13262 -633.895 13002.8 -608.436 12753.2C-584.199 12515.5 -448.293 12569 -457.759 12495.9C-477.945 12340 -50.1763 12042 14.0632 11960.1Z" fill="url(#paint0_linear_1216_40182)"/>
<path d="M14.0632 11960.1C63.6736 11896.9 239.924 11923.8 271.755 11924.2L865.204 12061L1234.05 12550.3C895.802 12584.8 146.019 13183.3 -54.8979 13216.7C-327.004 13262 -633.895 13002.8 -608.436 12753.2C-584.199 12515.5 -448.293 12569 -457.759 12495.9C-477.945 12340 -50.1763 12042 14.0632 11960.1Z" fill="url(#paint1_linear_1216_40182)" fill-opacity="0.25"/>
<path d="M14.0632 11960.1C63.6736 11896.9 239.924 11923.8 271.755 11924.2L865.204 12061L1234.05 12550.3C895.802 12584.8 146.019 13183.3 -54.8979 13216.7C-327.004 13262 -633.895 13002.8 -608.436 12753.2C-584.199 12515.5 -448.293 12569 -457.759 12495.9C-477.945 12340 -50.1763 12042 14.0632 11960.1Z" fill="url(#paint2_linear_1216_40182)"/>
<path d="M14.0632 11960.1C63.6736 11896.9 239.924 11923.8 271.755 11924.2L865.204 12061L1234.05 12550.3C895.802 12584.8 146.019 13183.3 -54.8979 13216.7C-327.004 13262 -633.895 13002.8 -608.436 12753.2C-584.199 12515.5 -448.293 12569 -457.759 12495.9C-477.945 12340 -50.1763 12042 14.0632 11960.1Z" fill="url(#paint3_linear_1216_40182)" fill-opacity="0.75"/>
<path d="M14.0632 11960.1C63.6736 11896.9 239.924 11923.8 271.755 11924.2L865.204 12061L1234.05 12550.3C895.802 12584.8 146.019 13183.3 -54.8979 13216.7C-327.004 13262 -633.895 13002.8 -608.436 12753.2C-584.199 12515.5 -448.293 12569 -457.759 12495.9C-477.945 12340 -50.1763 12042 14.0632 11960.1Z" fill="url(#paint4_radial_1216_40182)" fill-opacity="0.5"/>
</g>
<g filter="url(#filter1_f_1216_40182)">
<path d="M550.533 6536.93C518.189 6605.77 349.888 6618.35 320.446 6624.77L-256.035 6624.59L-700.186 6251.53C-395.482 6147.89 169.077 5436.56 347.323 5363.09C588.727 5263.58 926.856 5437.51 956.374 5673.18C984.476 5897.54 847.756 5877.09 872.011 5942.52C923.735 6082.05 592.414 6447.79 550.533 6536.93Z" fill="#2E88FC"/>
<path d="M550.533 6536.93C518.189 6605.77 349.888 6618.35 320.446 6624.77L-256.035 6624.59L-700.186 6251.53C-395.482 6147.89 169.077 5436.56 347.323 5363.09C588.727 5263.58 926.856 5437.51 956.374 5673.18C984.476 5897.54 847.756 5877.09 872.011 5942.52C923.735 6082.05 592.414 6447.79 550.533 6536.93Z" fill="url(#paint5_linear_1216_40182)"/>
<path d="M550.533 6536.93C518.189 6605.77 349.888 6618.35 320.446 6624.77L-256.035 6624.59L-700.186 6251.53C-395.482 6147.89 169.077 5436.56 347.323 5363.09C588.727 5263.58 926.856 5437.51 956.374 5673.18C984.476 5897.54 847.756 5877.09 872.011 5942.52C923.735 6082.05 592.414 6447.79 550.533 6536.93Z" fill="url(#paint6_linear_1216_40182)" fill-opacity="0.5"/>
<path d="M550.533 6536.93C518.189 6605.77 349.888 6618.35 320.446 6624.77L-256.035 6624.59L-700.186 6251.53C-395.482 6147.89 169.077 5436.56 347.323 5363.09C588.727 5263.58 926.856 5437.51 956.374 5673.18C984.476 5897.54 847.756 5877.09 872.011 5942.52C923.735 6082.05 592.414 6447.79 550.533 6536.93Z" fill="url(#paint7_linear_1216_40182)"/>
<path d="M550.533 6536.93C518.189 6605.77 349.888 6618.35 320.446 6624.77L-256.035 6624.59L-700.186 6251.53C-395.482 6147.89 169.077 5436.56 347.323 5363.09C588.727 5263.58 926.856 5437.51 956.374 5673.18C984.476 5897.54 847.756 5877.09 872.011 5942.52C923.735 6082.05 592.414 6447.79 550.533 6536.93Z" fill="url(#paint8_linear_1216_40182)" fill-opacity="0.8"/>
<path d="M550.533 6536.93C518.189 6605.77 349.888 6618.35 320.446 6624.77L-256.035 6624.59L-700.186 6251.53C-395.482 6147.89 169.077 5436.56 347.323 5363.09C588.727 5263.58 926.856 5437.51 956.374 5673.18C984.476 5897.54 847.756 5877.09 872.011 5942.52C923.735 6082.05 592.414 6447.79 550.533 6536.93Z" fill="url(#paint9_linear_1216_40182)"/>
<path d="M550.533 6536.93C518.189 6605.77 349.888 6618.35 320.446 6624.77L-256.035 6624.59L-700.186 6251.53C-395.482 6147.89 169.077 5436.56 347.323 5363.09C588.727 5263.58 926.856 5437.51 956.374 5673.18C984.476 5897.54 847.756 5877.09 872.011 5942.52C923.735 6082.05 592.414 6447.79 550.533 6536.93Z" fill="url(#paint10_linear_1216_40182)" fill-opacity="0.5"/>
<path d="M550.533 6536.93C518.189 6605.77 349.888 6618.35 320.446 6624.77L-256.035 6624.59L-700.186 6251.53C-395.482 6147.89 169.077 5436.56 347.323 5363.09C588.727 5263.58 926.856 5437.51 956.374 5673.18C984.476 5897.54 847.756 5877.09 872.011 5942.52C923.735 6082.05 592.414 6447.79 550.533 6536.93Z" fill="url(#paint11_radial_1216_40182)" fill-opacity="0.5"/>
</g>
<g filter="url(#filter2_f_1216_40182)">
<path d="M290.681 383.615C343.51 383.157 276.633 301.043 313.639 293.594C350.645 286.146 310.674 217.498 426.09 203.549C489.811 195.848 543.032 199.204 547.221 244.412C601.029 331.453 557.217 485.846 481.004 549.356C402.12 615.092 104.792 556.844 -22.5963 670.878L-25.7743 673.793C-24.7271 672.809 -23.6677 671.838 -22.5963 670.878L290.681 383.615Z" fill="#ED5F5C"/>
<path d="M290.681 383.615C343.51 383.157 276.633 301.043 313.639 293.594C350.645 286.146 310.674 217.498 426.09 203.549C489.811 195.848 543.032 199.204 547.221 244.412C601.029 331.453 557.217 485.846 481.004 549.356C402.12 615.092 104.792 556.844 -22.5963 670.878L-25.7743 673.793C-24.7271 672.809 -23.6677 671.838 -22.5963 670.878L290.681 383.615Z" fill="url(#paint12_linear_1216_40182)"/>
<path d="M290.681 383.615C343.51 383.157 276.633 301.043 313.639 293.594C350.645 286.146 310.674 217.498 426.09 203.549C489.811 195.848 543.032 199.204 547.221 244.412C601.029 331.453 557.217 485.846 481.004 549.356C402.12 615.092 104.792 556.844 -22.5963 670.878L-25.7743 673.793C-24.7271 672.809 -23.6677 671.838 -22.5963 670.878L290.681 383.615Z" fill="url(#paint13_linear_1216_40182)"/>
<path d="M290.681 383.615C343.51 383.157 276.633 301.043 313.639 293.594C350.645 286.146 310.674 217.498 426.09 203.549C489.811 195.848 543.032 199.204 547.221 244.412C601.029 331.453 557.217 485.846 481.004 549.356C402.12 615.092 104.792 556.844 -22.5963 670.878L-25.7743 673.793C-24.7271 672.809 -23.6677 671.838 -22.5963 670.878L290.681 383.615Z" fill="url(#paint14_linear_1216_40182)"/>
</g>
<g filter="url(#filter3_f_1216_40182)">
<path d="M-19.3775 412.282C-64.397 410.084 -117.752 494.682 -129.294 508.309L-289.391 810.112L-217.532 1146.26C-78.6166 1015.57 450.602 917.718 538.591 844.833C657.756 746.123 660.675 520.803 545.517 439.864C435.885 362.809 175.308 475.057 134.45 481.448C93.592 487.838 38.9173 415.128 -19.3775 412.282Z" fill="#2E88FC"/>
<path d="M-19.3775 412.282C-64.397 410.084 -117.752 494.682 -129.294 508.309L-289.391 810.112L-217.532 1146.26C-78.6166 1015.57 450.602 917.718 538.591 844.833C657.756 746.123 660.675 520.803 545.517 439.864C435.885 362.809 175.308 475.057 134.45 481.448C93.592 487.838 38.9173 415.128 -19.3775 412.282Z" fill="white" fill-opacity="0.2"/>
<path d="M-19.3775 412.282C-64.397 410.084 -117.752 494.682 -129.294 508.309L-289.391 810.112L-217.532 1146.26C-78.6166 1015.57 450.602 917.718 538.591 844.833C657.756 746.123 660.675 520.803 545.517 439.864C435.885 362.809 175.308 475.057 134.45 481.448C93.592 487.838 38.9173 415.128 -19.3775 412.282Z" fill="url(#paint15_linear_1216_40182)"/>
<path d="M-19.3775 412.282C-64.397 410.084 -117.752 494.682 -129.294 508.309L-289.391 810.112L-217.532 1146.26C-78.6166 1015.57 450.602 917.718 538.591 844.833C657.756 746.123 660.675 520.803 545.517 439.864C435.885 362.809 175.308 475.057 134.45 481.448C93.592 487.838 38.9173 415.128 -19.3775 412.282Z" fill="url(#paint16_linear_1216_40182)" fill-opacity="0.8"/>
<path d="M-19.3775 412.282C-64.397 410.084 -117.752 494.682 -129.294 508.309L-289.391 810.112L-217.532 1146.26C-78.6166 1015.57 450.602 917.718 538.591 844.833C657.756 746.123 660.675 520.803 545.517 439.864C435.885 362.809 175.308 475.057 134.45 481.448C93.592 487.838 38.9173 415.128 -19.3775 412.282Z" fill="url(#paint17_linear_1216_40182)"/>
<path d="M-19.3775 412.282C-64.397 410.084 -117.752 494.682 -129.294 508.309L-289.391 810.112L-217.532 1146.26C-78.6166 1015.57 450.602 917.718 538.591 844.833C657.756 746.123 660.675 520.803 545.517 439.864C435.885 362.809 175.308 475.057 134.45 481.448C93.592 487.838 38.9173 415.128 -19.3775 412.282Z" fill="url(#paint18_linear_1216_40182)" fill-opacity="0.3"/>
<path d="M-19.3775 412.282C-64.397 410.084 -117.752 494.682 -129.294 508.309L-289.391 810.112L-217.532 1146.26C-78.6166 1015.57 450.602 917.718 538.591 844.833C657.756 746.123 660.675 520.803 545.517 439.864C435.885 362.809 175.308 475.057 134.45 481.448C93.592 487.838 38.9173 415.128 -19.3775 412.282Z" fill="url(#paint19_linear_1216_40182)"/>
<path d="M-19.3775 412.282C-64.397 410.084 -117.752 494.682 -129.294 508.309L-289.391 810.112L-217.532 1146.26C-78.6166 1015.57 450.602 917.718 538.591 844.833C657.756 746.123 660.675 520.803 545.517 439.864C435.885 362.809 175.308 475.057 134.45 481.448C93.592 487.838 38.9173 415.128 -19.3775 412.282Z" fill="url(#paint20_linear_1216_40182)" fill-opacity="0.5"/>
<path d="M-19.3775 412.282C-64.397 410.084 -117.752 494.682 -129.294 508.309L-289.391 810.112L-217.532 1146.26C-78.6166 1015.57 450.602 917.718 538.591 844.833C657.756 746.123 660.675 520.803 545.517 439.864C435.885 362.809 175.308 475.057 134.45 481.448C93.592 487.838 38.9173 415.128 -19.3775 412.282Z" fill="url(#paint21_radial_1216_40182)" fill-opacity="0.5"/>
</g>
<g filter="url(#filter4_f_1216_40182)">
<path d="M-12.4276 886.155C-81.5034 882.782 -163.369 1012.59 -181.078 1033.49L-426.725 1496.57L-316.467 2012.35C-103.321 1811.81 708.687 1661.67 843.693 1549.84C1026.54 1398.39 1031.01 1052.66 854.321 928.477C686.107 810.247 286.289 982.474 223.599 992.28C160.908 1002.09 77.0174 890.523 -12.4276 886.155Z" fill="#2E88FC"/>
<path d="M-12.4276 886.155C-81.5034 882.782 -163.369 1012.59 -181.078 1033.49L-426.725 1496.57L-316.467 2012.35C-103.321 1811.81 708.687 1661.67 843.693 1549.84C1026.54 1398.39 1031.01 1052.66 854.321 928.477C686.107 810.247 286.289 982.474 223.599 992.28C160.908 1002.09 77.0174 890.523 -12.4276 886.155Z" fill="white" fill-opacity="0.2"/>
<path d="M-12.4276 886.155C-81.5034 882.782 -163.369 1012.59 -181.078 1033.49L-426.725 1496.57L-316.467 2012.35C-103.321 1811.81 708.687 1661.67 843.693 1549.84C1026.54 1398.39 1031.01 1052.66 854.321 928.477C686.107 810.247 286.289 982.474 223.599 992.28C160.908 1002.09 77.0174 890.523 -12.4276 886.155Z" fill="url(#paint22_linear_1216_40182)"/>
<path d="M-12.4276 886.155C-81.5034 882.782 -163.369 1012.59 -181.078 1033.49L-426.725 1496.57L-316.467 2012.35C-103.321 1811.81 708.687 1661.67 843.693 1549.84C1026.54 1398.39 1031.01 1052.66 854.321 928.477C686.107 810.247 286.289 982.474 223.599 992.28C160.908 1002.09 77.0174 890.523 -12.4276 886.155Z" fill="url(#paint23_linear_1216_40182)" fill-opacity="0.8"/>
<path d="M-12.4276 886.155C-81.5034 882.782 -163.369 1012.59 -181.078 1033.49L-426.725 1496.57L-316.467 2012.35C-103.321 1811.81 708.687 1661.67 843.693 1549.84C1026.54 1398.39 1031.01 1052.66 854.321 928.477C686.107 810.247 286.289 982.474 223.599 992.28C160.908 1002.09 77.0174 890.523 -12.4276 886.155Z" fill="url(#paint24_linear_1216_40182)"/>
<path d="M-12.4276 886.155C-81.5034 882.782 -163.369 1012.59 -181.078 1033.49L-426.725 1496.57L-316.467 2012.35C-103.321 1811.81 708.687 1661.67 843.693 1549.84C1026.54 1398.39 1031.01 1052.66 854.321 928.477C686.107 810.247 286.289 982.474 223.599 992.28C160.908 1002.09 77.0174 890.523 -12.4276 886.155Z" fill="url(#paint25_linear_1216_40182)" fill-opacity="0.3"/>
<path d="M-12.4276 886.155C-81.5034 882.782 -163.369 1012.59 -181.078 1033.49L-426.725 1496.57L-316.467 2012.35C-103.321 1811.81 708.687 1661.67 843.693 1549.84C1026.54 1398.39 1031.01 1052.66 854.321 928.477C686.107 810.247 286.289 982.474 223.599 992.28C160.908 1002.09 77.0174 890.523 -12.4276 886.155Z" fill="url(#paint26_linear_1216_40182)"/>
<path d="M-12.4276 886.155C-81.5034 882.782 -163.369 1012.59 -181.078 1033.49L-426.725 1496.57L-316.467 2012.35C-103.321 1811.81 708.687 1661.67 843.693 1549.84C1026.54 1398.39 1031.01 1052.66 854.321 928.477C686.107 810.247 286.289 982.474 223.599 992.28C160.908 1002.09 77.0174 890.523 -12.4276 886.155Z" fill="url(#paint27_linear_1216_40182)" fill-opacity="0.5"/>
<path d="M-12.4276 886.155C-81.5034 882.782 -163.369 1012.59 -181.078 1033.49L-426.725 1496.57L-316.467 2012.35C-103.321 1811.81 708.687 1661.67 843.693 1549.84C1026.54 1398.39 1031.01 1052.66 854.321 928.477C686.107 810.247 286.289 982.474 223.599 992.28C160.908 1002.09 77.0174 890.523 -12.4276 886.155Z" fill="url(#paint28_radial_1216_40182)" fill-opacity="0.5"/>
</g>
<g filter="url(#filter5_f_1216_40182)">
<path d="M708.361 7726.89C656.767 7680.84 511.495 7730.3 484.578 7735.43L2.40782 7941.07L-236.143 8411.47C55.6872 8389.55 781.516 8783.34 956.812 8781.26C1194.22 8778.44 1415.07 8512.42 1355.75 8304.76C1299.28 8107.06 880.09 7989.6 825.175 7957.81C770.26 7926.02 775.169 7786.52 708.361 7726.89Z" fill="#2E88FC"/>
<path d="M708.361 7726.89C656.767 7680.84 511.495 7730.3 484.578 7735.43L2.40782 7941.07L-236.143 8411.47C55.6872 8389.55 781.516 8783.34 956.812 8781.26C1194.22 8778.44 1415.07 8512.42 1355.75 8304.76C1299.28 8107.06 880.09 7989.6 825.175 7957.81C770.26 7926.02 775.169 7786.52 708.361 7726.89Z" fill="white" fill-opacity="0.2"/>
<path d="M708.361 7726.89C656.767 7680.84 511.495 7730.3 484.578 7735.43L2.40782 7941.07L-236.143 8411.47C55.6872 8389.55 781.516 8783.34 956.812 8781.26C1194.22 8778.44 1415.07 8512.42 1355.75 8304.76C1299.28 8107.06 880.09 7989.6 825.175 7957.81C770.26 7926.02 775.169 7786.52 708.361 7726.89Z" fill="url(#paint29_linear_1216_40182)"/>
<path d="M708.361 7726.89C656.767 7680.84 511.495 7730.3 484.578 7735.43L2.40782 7941.07L-236.143 8411.47C55.6872 8389.55 781.516 8783.34 956.812 8781.26C1194.22 8778.44 1415.07 8512.42 1355.75 8304.76C1299.28 8107.06 880.09 7989.6 825.175 7957.81C770.26 7926.02 775.169 7786.52 708.361 7726.89Z" fill="url(#paint30_linear_1216_40182)" fill-opacity="0.8"/>
<path d="M708.361 7726.89C656.767 7680.84 511.495 7730.3 484.578 7735.43L2.40782 7941.07L-236.143 8411.47C55.6872 8389.55 781.516 8783.34 956.812 8781.26C1194.22 8778.44 1415.07 8512.42 1355.75 8304.76C1299.28 8107.06 880.09 7989.6 825.175 7957.81C770.26 7926.02 775.169 7786.52 708.361 7726.89Z" fill="url(#paint31_linear_1216_40182)"/>
<path d="M708.361 7726.89C656.767 7680.84 511.495 7730.3 484.578 7735.43L2.40782 7941.07L-236.143 8411.47C55.6872 8389.55 781.516 8783.34 956.812 8781.26C1194.22 8778.44 1415.07 8512.42 1355.75 8304.76C1299.28 8107.06 880.09 7989.6 825.175 7957.81C770.26 7926.02 775.169 7786.52 708.361 7726.89Z" fill="url(#paint32_linear_1216_40182)" fill-opacity="0.3"/>
<path d="M708.361 7726.89C656.767 7680.84 511.495 7730.3 484.578 7735.43L2.40782 7941.07L-236.143 8411.47C55.6872 8389.55 781.516 8783.34 956.812 8781.26C1194.22 8778.44 1415.07 8512.42 1355.75 8304.76C1299.28 8107.06 880.09 7989.6 825.175 7957.81C770.26 7926.02 775.169 7786.52 708.361 7726.89Z" fill="url(#paint33_linear_1216_40182)"/>
<path d="M708.361 7726.89C656.767 7680.84 511.495 7730.3 484.578 7735.43L2.40782 7941.07L-236.143 8411.47C55.6872 8389.55 781.516 8783.34 956.812 8781.26C1194.22 8778.44 1415.07 8512.42 1355.75 8304.76C1299.28 8107.06 880.09 7989.6 825.175 7957.81C770.26 7926.02 775.169 7786.52 708.361 7726.89Z" fill="url(#paint34_linear_1216_40182)" fill-opacity="0.5"/>
<path d="M708.361 7726.89C656.767 7680.84 511.495 7730.3 484.578 7735.43L2.40782 7941.07L-236.143 8411.47C55.6872 8389.55 781.516 8783.34 956.812 8781.26C1194.22 8778.44 1415.07 8512.42 1355.75 8304.76C1299.28 8107.06 880.09 7989.6 825.175 7957.81C770.26 7926.02 775.169 7786.52 708.361 7726.89Z" fill="url(#paint35_radial_1216_40182)" fill-opacity="0.5"/>
</g>
<g filter="url(#filter6_f_1216_40182)">
<path d="M909.044 2409.17C917.214 2313.92 742.075 2194.24 714.094 2168.72L86.9315 1805.87L-631.122 1931.96C-364.954 2236.57 -198.838 3365.84 -51.2257 3558.01C148.689 3818.26 626.011 3842.02 806.534 3604.27C978.395 3377.92 760.816 2816.89 750.458 2729.8C740.099 2642.71 898.466 2532.5 909.044 2409.17Z" fill="#2E88FC"/>
<path d="M909.044 2409.17C917.214 2313.92 742.075 2194.24 714.094 2168.72L86.9315 1805.87L-631.122 1931.96C-364.954 2236.57 -198.838 3365.84 -51.2257 3558.01C148.689 3818.26 626.011 3842.02 806.534 3604.27C978.395 3377.92 760.816 2816.89 750.458 2729.8C740.099 2642.71 898.466 2532.5 909.044 2409.17Z" fill="white" fill-opacity="0.2"/>
<path d="M909.044 2409.17C917.214 2313.92 742.075 2194.24 714.094 2168.72L86.9315 1805.87L-631.122 1931.96C-364.954 2236.57 -198.838 3365.84 -51.2257 3558.01C148.689 3818.26 626.011 3842.02 806.534 3604.27C978.395 3377.92 760.816 2816.89 750.458 2729.8C740.099 2642.71 898.466 2532.5 909.044 2409.17Z" fill="url(#paint36_linear_1216_40182)"/>
<path d="M909.044 2409.17C917.214 2313.92 742.075 2194.24 714.094 2168.72L86.9315 1805.87L-631.122 1931.96C-364.954 2236.57 -198.838 3365.84 -51.2257 3558.01C148.689 3818.26 626.011 3842.02 806.534 3604.27C978.395 3377.92 760.816 2816.89 750.458 2729.8C740.099 2642.71 898.466 2532.5 909.044 2409.17Z" fill="url(#paint37_linear_1216_40182)" fill-opacity="0.8"/>
<path d="M909.044 2409.17C917.214 2313.92 742.075 2194.24 714.094 2168.72L86.9315 1805.87L-631.122 1931.96C-364.954 2236.57 -198.838 3365.84 -51.2257 3558.01C148.689 3818.26 626.011 3842.02 806.534 3604.27C978.395 3377.92 760.816 2816.89 750.458 2729.8C740.099 2642.71 898.466 2532.5 909.044 2409.17Z" fill="url(#paint38_linear_1216_40182)"/>
<path d="M909.044 2409.17C917.214 2313.92 742.075 2194.24 714.094 2168.72L86.9315 1805.87L-631.122 1931.96C-364.954 2236.57 -198.838 3365.84 -51.2257 3558.01C148.689 3818.26 626.011 3842.02 806.534 3604.27C978.395 3377.92 760.816 2816.89 750.458 2729.8C740.099 2642.71 898.466 2532.5 909.044 2409.17Z" fill="url(#paint39_linear_1216_40182)" fill-opacity="0.3"/>
<path d="M909.044 2409.17C917.214 2313.92 742.075 2194.24 714.094 2168.72L86.9315 1805.87L-631.122 1931.96C-364.954 2236.57 -198.838 3365.84 -51.2257 3558.01C148.689 3818.26 626.011 3842.02 806.534 3604.27C978.395 3377.92 760.816 2816.89 750.458 2729.8C740.099 2642.71 898.466 2532.5 909.044 2409.17Z" fill="url(#paint40_linear_1216_40182)"/>
<path d="M909.044 2409.17C917.214 2313.92 742.075 2194.24 714.094 2168.72L86.9315 1805.87L-631.122 1931.96C-364.954 2236.57 -198.838 3365.84 -51.2257 3558.01C148.689 3818.26 626.011 3842.02 806.534 3604.27C978.395 3377.92 760.816 2816.89 750.458 2729.8C740.099 2642.71 898.466 2532.5 909.044 2409.17Z" fill="url(#paint41_linear_1216_40182)" fill-opacity="0.5"/>
<path d="M909.044 2409.17C917.214 2313.92 742.075 2194.24 714.094 2168.72L86.9315 1805.87L-631.122 1931.96C-364.954 2236.57 -198.838 3365.84 -51.2257 3558.01C148.689 3818.26 626.011 3842.02 806.534 3604.27C978.395 3377.92 760.816 2816.89 750.458 2729.8C740.099 2642.71 898.466 2532.5 909.044 2409.17Z" fill="url(#paint42_radial_1216_40182)" fill-opacity="0.5"/>
</g>
<defs>
<filter id="filter0_f_1216_40182" x="-709.922" y="11818.2" width="2043.98" height="1503.73" filterUnits="userSpaceOnUse" color-interpolation-filters="sRGB">
<feFlood flood-opacity="0" result="BackgroundImageFix"/>
<feBlend mode="normal" in="SourceGraphic" in2="BackgroundImageFix" result="shape"/>
<feGaussianBlur stdDeviation="50" result="effect1_foregroundBlur_1216_40182"/>
</filter>
<filter id="filter1_f_1216_40182" x="-913.188" y="5121.5" width="2086.39" height="1716.27" filterUnits="userSpaceOnUse" color-interpolation-filters="sRGB">
<feFlood flood-opacity="0" result="BackgroundImageFix"/>
<feBlend mode="normal" in="SourceGraphic" in2="BackgroundImageFix" result="shape"/>
<feGaussianBlur stdDeviation="106.5" result="effect1_foregroundBlur_1216_40182"/>
</filter>
<filter id="filter2_f_1216_40182" x="-225.773" y="0.325439" width="996.836" height="873.467" filterUnits="userSpaceOnUse" color-interpolation-filters="sRGB">
<feFlood flood-opacity="0" result="BackgroundImageFix"/>
<feBlend mode="normal" in="SourceGraphic" in2="BackgroundImageFix" result="shape"/>
<feGaussianBlur stdDeviation="100" result="effect1_foregroundBlur_1216_40182"/>
</filter>
<filter id="filter3_f_1216_40182" x="-489.391" y="212.24" width="1319.36" height="1134.03" filterUnits="userSpaceOnUse" color-interpolation-filters="sRGB">
<feFlood flood-opacity="0" result="BackgroundImageFix"/>
<feBlend mode="normal" in="SourceGraphic" in2="BackgroundImageFix" result="shape"/>
<feGaussianBlur stdDeviation="100" result="effect1_foregroundBlur_1216_40182"/>
</filter>
<filter id="filter4_f_1216_40182" x="-626.723" y="686.091" width="1810.61" height="1526.25" filterUnits="userSpaceOnUse" color-interpolation-filters="sRGB">
<feFlood flood-opacity="0" result="BackgroundImageFix"/>
<feBlend mode="normal" in="SourceGraphic" in2="BackgroundImageFix" result="shape"/>
<feGaussianBlur stdDeviation="100" result="effect1_foregroundBlur_1216_40182"/>
</filter>
<filter id="filter5_f_1216_40182" x="-436.145" y="7507.43" width="2001.65" height="1473.84" filterUnits="userSpaceOnUse" color-interpolation-filters="sRGB">
<feFlood flood-opacity="0" result="BackgroundImageFix"/>
<feBlend mode="normal" in="SourceGraphic" in2="BackgroundImageFix" result="shape"/>
<feGaussianBlur stdDeviation="100" result="effect1_foregroundBlur_1216_40182"/>
</filter>
<filter id="filter6_f_1216_40182" x="-831.121" y="1605.87" width="1940.44" height="2362.94" filterUnits="userSpaceOnUse" color-interpolation-filters="sRGB">
<feFlood flood-opacity="0" result="BackgroundImageFix"/>
<feBlend mode="normal" in="SourceGraphic" in2="BackgroundImageFix" result="shape"/>
<feGaussianBlur stdDeviation="100" result="effect1_foregroundBlur_1216_40182"/>
</filter>
<linearGradient id="paint0_linear_1216_40182" x1="-581.038" y1="12553.4" x2="-126.219" y2="12569" gradientUnits="userSpaceOnUse">
<stop stop-color="#FFEADE"/>
<stop offset="1" stop-color="#D65007" stop-opacity="0"/>
</linearGradient>
<linearGradient id="paint1_linear_1216_40182" x1="-278.833" y1="12270.3" x2="-4.99215" y2="12770.5" gradientUnits="userSpaceOnUse">
<stop stop-color="#F9914E"/>
<stop offset="1" stop-color="#F67C2D" stop-opacity="0"/>
</linearGradient>
<linearGradient id="paint2_linear_1216_40182" x1="-287.75" y1="12377.6" x2="651.328" y2="12673.2" gradientUnits="userSpaceOnUse">
<stop stop-color="#CDE3F5"/>
<stop offset="1" stop-color="#CDE3F5" stop-opacity="0"/>
</linearGradient>
<linearGradient id="paint3_linear_1216_40182" x1="441.032" y1="11865.2" x2="252.541" y2="12347.7" gradientUnits="userSpaceOnUse">
<stop stop-color="#ED5F5C"/>
<stop offset="1" stop-color="#ED5F5C" stop-opacity="0"/>
</linearGradient>
<radialGradient id="paint4_radial_1216_40182" cx="0" cy="0" r="1" gradientUnits="userSpaceOnUse" gradientTransform="translate(469.364 12291.2) rotate(112.291) scale(252.343 396.901)">
<stop stop-color="white"/>
<stop offset="1" stop-color="white" stop-opacity="0"/>
</radialGradient>
<linearGradient id="paint5_linear_1216_40182" x1="973.511" y1="5863.25" x2="550.643" y2="5945.43" gradientUnits="userSpaceOnUse">
<stop stop-color="#FFEADE"/>
<stop offset="1" stop-color="#D65007" stop-opacity="0"/>
</linearGradient>
<linearGradient id="paint6_linear_1216_40182" x1="754.861" y1="6188.62" x2="396.039" y2="5785.33" gradientUnits="userSpaceOnUse">
<stop stop-color="#F9914E"/>
<stop offset="1" stop-color="#F67C2D" stop-opacity="0"/>
</linearGradient>
<linearGradient id="paint7_linear_1216_40182" x1="-155.223" y1="6153.78" x2="60.1295" y2="5781.72" gradientUnits="userSpaceOnUse">
<stop stop-color="#CBE5FA"/>
<stop offset="1" stop-color="#CDE3F5" stop-opacity="0"/>
</linearGradient>
<linearGradient id="paint8_linear_1216_40182" x1="772.867" y1="6278.61" x2="478.407" y2="5927.22" gradientUnits="userSpaceOnUse">
<stop stop-color="#CDE3F5"/>
<stop offset="1" stop-color="#CDE3F5" stop-opacity="0"/>
</linearGradient>
<linearGradient id="paint9_linear_1216_40182" x1="510.328" y1="6623.01" x2="465.282" y2="6160.86" gradientUnits="userSpaceOnUse">
<stop stop-color="#ED5F5C"/>
<stop offset="1" stop-color="#ED5F5C" stop-opacity="0"/>
</linearGradient>
<linearGradient id="paint10_linear_1216_40182" x1="65.7411" y1="6584.88" x2="110.778" y2="6039.3" gradientUnits="userSpaceOnUse">
<stop stop-color="white"/>
<stop offset="1" stop-color="#F67C2D" stop-opacity="0"/>
</linearGradient>
<radialGradient id="paint11_radial_1216_40182" cx="0" cy="0" r="1" gradientUnits="userSpaceOnUse" gradientTransform="translate(60.2284 6328.16) rotate(-80.6711) scale(238.865 375.701)">
<stop stop-color="white"/>
<stop offset="1" stop-color="white" stop-opacity="0"/>
</radialGradient>
<linearGradient id="paint12_linear_1216_40182" x1="473.539" y1="214.977" x2="268.591" y2="377.567" gradientUnits="userSpaceOnUse">
<stop stop-color="#FFEADE"/>
<stop offset="1" stop-color="#D65007" stop-opacity="0"/>
</linearGradient>
<linearGradient id="paint13_linear_1216_40182" x1="37.6594" y1="450.828" x2="216.662" y2="545.899" gradientUnits="userSpaceOnUse">
<stop stop-color="#F9914E"/>
<stop offset="1" stop-color="#F67C2D" stop-opacity="0"/>
</linearGradient>
<linearGradient id="paint14_linear_1216_40182" x1="-33.9413" y1="538.956" x2="134.655" y2="562.239" gradientUnits="userSpaceOnUse">
<stop stop-color="#CBE5FA"/>
<stop offset="1" stop-color="#CDE3F5" stop-opacity="0"/>
</linearGradient>
<linearGradient id="paint15_linear_1216_40182" x1="450.788" y1="378.078" x2="290.269" y2="576.589" gradientUnits="userSpaceOnUse">
<stop stop-color="#FFEADE"/>
<stop offset="1" stop-color="#D65007" stop-opacity="0"/>
</linearGradient>
<linearGradient id="paint16_linear_1216_40182" x1="51.852" y1="656.415" x2="257.861" y2="762.679" gradientUnits="userSpaceOnUse">
<stop stop-color="#F9914E"/>
<stop offset="1" stop-color="#F67C2D" stop-opacity="0"/>
</linearGradient>
<linearGradient id="paint17_linear_1216_40182" x1="-61.7939" y1="709.468" x2="165.06" y2="776.011" gradientUnits="userSpaceOnUse">
<stop stop-color="#CBE5FA"/>
<stop offset="1" stop-color="#CDE3F5" stop-opacity="0"/>
</linearGradient>
<linearGradient id="paint18_linear_1216_40182" x1="204.856" y1="465.408" x2="229.481" y2="600.469" gradientUnits="userSpaceOnUse">
<stop stop-color="#CDE3F5"/>
<stop offset="1" stop-color="#CDE3F5" stop-opacity="0"/>
</linearGradient>
<linearGradient id="paint19_linear_1216_40182" x1="-33.387" y1="468.598" x2="146.864" y2="567.854" gradientUnits="userSpaceOnUse">
<stop stop-color="#ED5F5C"/>
<stop offset="1" stop-color="#ED5F5C" stop-opacity="0"/>
</linearGradient>
<linearGradient id="paint20_linear_1216_40182" x1="-179.188" y1="652.717" x2="118.904" y2="780.748" gradientUnits="userSpaceOnUse">
<stop stop-color="white"/>
<stop offset="1" stop-color="#F67C2D" stop-opacity="0"/>
</linearGradient>
<radialGradient id="paint21_radial_1216_40182" cx="0" cy="0" r="1" gradientUnits="userSpaceOnUse" gradientTransform="translate(-46.3461 726.938) rotate(18.6334) scale(141.557 222.65)">
<stop stop-color="white"/>
<stop offset="1" stop-color="white" stop-opacity="0"/>
</radialGradient>
<linearGradient id="paint22_linear_1216_40182" x1="708.974" y1="833.674" x2="462.679" y2="1138.26" gradientUnits="userSpaceOnUse">
<stop stop-color="#FFEADE"/>
<stop offset="1" stop-color="#D65007" stop-opacity="0"/>
</linearGradient>
<linearGradient id="paint23_linear_1216_40182" x1="96.8638" y1="1260.74" x2="412.954" y2="1423.79" gradientUnits="userSpaceOnUse">
<stop stop-color="#F9914E"/>
<stop offset="1" stop-color="#F67C2D" stop-opacity="0"/>
</linearGradient>
<linearGradient id="paint24_linear_1216_40182" x1="-77.5092" y1="1342.14" x2="270.565" y2="1444.24" gradientUnits="userSpaceOnUse">
<stop stop-color="#CBE5FA"/>
<stop offset="1" stop-color="#CDE3F5" stop-opacity="0"/>
</linearGradient>
<linearGradient id="paint25_linear_1216_40182" x1="331.626" y1="967.67" x2="369.41" y2="1174.9" gradientUnits="userSpaceOnUse">
<stop stop-color="#CDE3F5"/>
<stop offset="1" stop-color="#CDE3F5" stop-opacity="0"/>
</linearGradient>
<linearGradient id="paint26_linear_1216_40182" x1="-33.9231" y1="972.565" x2="242.645" y2="1124.86" gradientUnits="userSpaceOnUse">
<stop stop-color="#ED5F5C"/>
<stop offset="1" stop-color="#ED5F5C" stop-opacity="0"/>
</linearGradient>
<linearGradient id="paint27_linear_1216_40182" x1="-257.634" y1="1255.07" x2="199.746" y2="1451.51" gradientUnits="userSpaceOnUse">
<stop stop-color="white"/>
<stop offset="1" stop-color="#F67C2D" stop-opacity="0"/>
</linearGradient>
<radialGradient id="paint28_radial_1216_40182" cx="0" cy="0" r="1" gradientUnits="userSpaceOnUse" gradientTransform="translate(-53.807 1368.95) rotate(18.6334) scale(217.199 341.624)">
<stop stop-color="white"/>
<stop offset="1" stop-color="white" stop-opacity="0"/>
</radialGradient>
<linearGradient id="paint29_linear_1216_40182" x1="1302.33" y1="8139.65" x2="919.305" y2="8221.65" gradientUnits="userSpaceOnUse">
<stop stop-color="#FFEADE"/>
<stop offset="1" stop-color="#D65007" stop-opacity="0"/>
</linearGradient>
<linearGradient id="paint30_linear_1216_40182" x1="557.832" y1="8086.89" x2="701.115" y2="8412.42" gradientUnits="userSpaceOnUse">
<stop stop-color="#F9914E"/>
<stop offset="1" stop-color="#F67C2D" stop-opacity="0"/>
</linearGradient>
<linearGradient id="paint31_linear_1216_40182" x1="371.055" y1="8040.56" x2="577.53" y2="8338.8" gradientUnits="userSpaceOnUse">
<stop stop-color="#CBE5FA"/>
<stop offset="1" stop-color="#CDE3F5" stop-opacity="0"/>
</linearGradient>
<linearGradient id="paint32_linear_1216_40182" x1="924.652" y1="8006.59" x2="823.739" y2="8191.5" gradientUnits="userSpaceOnUse">
<stop stop-color="#CDE3F5"/>
<stop offset="1" stop-color="#CDE3F5" stop-opacity="0"/>
</linearGradient>
<linearGradient id="paint33_linear_1216_40182" x1="637.317" y1="7780.57" x2="756.629" y2="8072.88" gradientUnits="userSpaceOnUse">
<stop stop-color="#ED5F5C"/>
<stop offset="1" stop-color="#ED5F5C" stop-opacity="0"/>
</linearGradient>
<linearGradient id="paint34_linear_1216_40182" x1="285.735" y1="7859.59" x2="517.89" y2="8299.92" gradientUnits="userSpaceOnUse">
<stop stop-color="white"/>
<stop offset="1" stop-color="#F67C2D" stop-opacity="0"/>
</linearGradient>
<radialGradient id="paint35_radial_1216_40182" cx="0" cy="0" r="1" gradientUnits="userSpaceOnUse" gradientTransform="translate(372.634 8076.3) rotate(57.5904) scale(217.199 341.624)">
<stop stop-color="white"/>
<stop offset="1" stop-color="white" stop-opacity="0"/>
</radialGradient>
<linearGradient id="paint36_linear_1216_40182" x1="944.872" y1="3408.31" x2="536.662" y2="3052.62" gradientUnits="userSpaceOnUse">
<stop stop-color="#FFEADE"/>
<stop offset="1" stop-color="#D65007" stop-opacity="0"/>
</linearGradient>
<linearGradient id="paint37_linear_1216_40182" x1="386.07" y1="2541.09" x2="144.785" y2="2969.43" gradientUnits="userSpaceOnUse">
<stop stop-color="#F9914E"/>
<stop offset="1" stop-color="#F67C2D" stop-opacity="0"/>
</linearGradient>
<linearGradient id="paint38_linear_1216_40182" x1="282.489" y1="2296.09" x2="123.766" y2="2771.7" gradientUnits="userSpaceOnUse">
<stop stop-color="#CBE5FA"/>
<stop offset="1" stop-color="#CDE3F5" stop-opacity="0"/>
</linearGradient>
<linearGradient id="paint39_linear_1216_40182" x1="778.962" y1="2880.27" x2="490.789" y2="2921.93" gradientUnits="userSpaceOnUse">
<stop stop-color="#CDE3F5"/>
<stop offset="1" stop-color="#CDE3F5" stop-opacity="0"/>
</linearGradient>
<linearGradient id="paint40_linear_1216_40182" x1="790.778" y1="2375.08" x2="566.357" y2="2749.37" gradientUnits="userSpaceOnUse">
<stop stop-color="#ED5F5C"/>
<stop offset="1" stop-color="#ED5F5C" stop-opacity="0"/>
</linearGradient>
<linearGradient id="paint41_linear_1216_40182" x1="411.923" y1="2051.71" x2="117.327" y2="2673.51" gradientUnits="userSpaceOnUse">
<stop stop-color="white"/>
<stop offset="1" stop-color="#F67C2D" stop-opacity="0"/>
</linearGradient>
<radialGradient id="paint42_radial_1216_40182" cx="0" cy="0" r="1" gradientUnits="userSpaceOnUse" gradientTransform="translate(244.259 2327.47) rotate(110.741) scale(300.222 472.209)">
<stop stop-color="white"/>
<stop offset="1" stop-color="white" stop-opacity="0"/>
</radialGradient>
</defs>
</svg>
