<svg width="183" height="61" viewBox="0 0 183 61" fill="none" xmlns="http://www.w3.org/2000/svg">
<path d="M41.8366 49.1955L30.7537 60.5904C30.4978 60.8526 30.1511 60.9999 29.7898 60.9999C29.4284 60.9999 29.0818 60.8526 28.8259 60.5904L0.4005 31.3622C0.273563 31.2323 0.172838 31.0778 0.104109 30.9078C0.0353801 30.7377 0 30.5553 0 30.3712C0 30.187 0.0353801 30.0047 0.104109 29.8346C0.172838 29.6645 0.273563 29.5101 0.4005 29.3801L11.4808 17.9879C11.6072 17.8574 11.7574 17.7539 11.9228 17.6832C12.0883 17.6125 12.2656 17.5762 12.4447 17.5762C12.6239 17.5762 12.8012 17.6125 12.9666 17.6832C13.132 17.7539 13.2823 17.8574 13.4086 17.9879L15.8177 20.4649C16.0728 20.728 16.2161 21.0844 16.2161 21.4559C16.2161 21.8274 16.0728 22.1838 15.8177 22.4469L9.07172 29.3801C8.81663 29.6433 8.67339 29.9997 8.67339 30.3712C8.67339 30.7427 8.81663 31.0991 9.07172 31.3622L28.8259 51.6724C28.9523 51.8029 29.1025 51.9065 29.2679 51.9771C29.4333 52.0478 29.6107 52.0842 29.7898 52.0842C29.9689 52.0842 30.1463 52.0478 30.3117 51.9771C30.4771 51.9065 30.6273 51.8029 30.7537 51.6724L33.1628 49.1955C33.2897 49.0658 33.3903 48.9116 33.459 48.7417C33.5277 48.5719 33.5631 48.3897 33.5631 48.2058C33.5631 48.0218 33.5277 47.8397 33.459 47.6699C33.3903 47.5 33.2897 47.3458 33.1628 47.2161L17.7456 31.3488C17.6186 31.2188 17.5179 31.0644 17.4492 30.8943C17.3804 30.7243 17.3451 30.5419 17.3451 30.3577C17.3451 30.1736 17.3804 29.9912 17.4492 29.8211C17.5179 29.6511 17.6186 29.4966 17.7456 29.3667L25.4542 21.4546L29.7911 25.9135L26.4194 29.3801C26.1643 29.6433 26.0211 29.9997 26.0211 30.3712C26.0211 30.7427 26.1643 31.0991 26.4194 31.3622L41.8523 47.2295C42.1012 47.4938 42.2391 47.848 42.2361 48.2158C42.2332 48.5836 42.0897 48.9355 41.8366 49.1955Z" fill="#83BEFF"/>
<path d="M59.3496 31.6195L48.2663 43.0144C48.0108 43.2765 47.6646 43.4237 47.3037 43.4237C46.9427 43.4237 46.5965 43.2765 46.341 43.0144L43.9319 40.5375C43.8049 40.4076 43.7042 40.2531 43.6355 40.083C43.5667 39.913 43.5314 39.7306 43.5314 39.5465C43.5314 39.3623 43.5667 39.1799 43.6355 39.0099C43.7042 38.8398 43.8049 38.6853 43.9319 38.5554L50.6755 31.6195C50.8024 31.4895 50.9031 31.3351 50.9719 31.165C51.0406 30.9949 51.076 30.8126 51.076 30.6284C51.076 30.4443 51.0406 30.2619 50.9719 30.0918C50.9031 29.9218 50.8024 29.7673 50.6755 29.6374L30.9207 9.32711C30.6648 9.06483 30.3182 8.91756 29.9568 8.91756C29.5954 8.91756 29.2488 9.06483 28.9929 9.32711L26.5863 11.804C26.3312 12.0672 26.188 12.4236 26.188 12.7951C26.188 13.1666 26.3312 13.523 26.5863 13.7861L42.0197 29.6374C42.2748 29.9005 42.418 30.2569 42.418 30.6284C42.418 31 42.2748 31.3563 42.0197 31.6195L34.2952 39.5343L29.9581 35.078L33.3299 31.6087C33.4569 31.4788 33.5576 31.3243 33.6263 31.1543C33.695 30.9842 33.7304 30.8018 33.7304 30.6177C33.7304 30.4335 33.695 30.2512 33.6263 30.0811C33.5576 29.911 33.4569 29.7566 33.3299 29.6266L17.9122 13.7861C17.7853 13.6562 17.6846 13.5017 17.6158 13.3317C17.5471 13.1616 17.5117 12.9792 17.5117 12.7951C17.5117 12.6109 17.5471 12.4286 17.6158 12.2585C17.6846 12.0884 17.7853 11.934 17.9122 11.804L28.9929 0.411775C29.1193 0.281264 29.2695 0.177704 29.4349 0.10704C29.6003 0.0363762 29.7777 0 29.9568 0C30.1359 0 30.3133 0.0363762 30.4787 0.10704C30.6441 0.177704 30.7944 0.281264 30.9207 0.411775L59.3496 29.6374C59.6047 29.9005 59.7479 30.2569 59.7479 30.6284C59.7479 31 59.6047 31.3563 59.3496 31.6195Z" fill="#2484FF"/>
<path opacity="0.5" d="M38.3333 35.4367L33.9961 31.0171L29.6589 35.4367L33.9961 39.8564L38.3333 35.4367Z" fill="url(#paint0_linear_1645_1736)"/>
<path opacity="0.5" d="M21.4167 26.5974L25.7539 31.0171L30.0911 26.5974L25.7539 22.1778L21.4167 26.5974Z" fill="url(#paint1_linear_1645_1736)"/>
<path d="M83.3801 33.1402H81.1194V43.7176H76.2344V18H81.1194V28.4148H83.4317L91.5419 18H97.6714L87.391 30.5461L98.4422 43.7131H92.0996L83.3801 33.1402Z" fill="#0A213A"/>
<path d="M121.506 43.7176H102.715V18H121.36V22.7036H107.727V28.4009H117.169V33.1022H107.727V39.014H121.506V43.7176Z" fill="#0A213A"/>
<path d="M145.421 43.7176H127.484V18H132.397V38.9236H145.421V43.7176Z" fill="#0A213A"/>
<path d="M154.812 43.7176H149.688V18H154.812V43.7176Z" fill="#0A213A"/>
<path d="M183.001 43.7176H178.354L165.76 26.5424L165.743 43.7176H160.793V18H165.422L178.034 35.1752V18H183.001V43.7176Z" fill="#0A213A"/>
<defs>
<linearGradient id="paint0_linear_1645_1736" x1="31.8275" y1="37.6503" x2="36.2482" y2="33.312" gradientUnits="userSpaceOnUse">
<stop stop-color="#004187"/>
<stop offset="0.8" stop-color="#004187" stop-opacity="0"/>
</linearGradient>
<linearGradient id="paint1_linear_1645_1736" x1="27.9244" y1="24.3857" x2="23.5036" y2="28.7241" gradientUnits="userSpaceOnUse">
<stop stop-color="#004187"/>
<stop offset="0.8" stop-color="#004187" stop-opacity="0"/>
</linearGradient>
</defs>
</svg>
