<svg width="24" height="24" viewBox="0 0 24 24" fill="none" xmlns="http://www.w3.org/2000/svg">
<path d="M22.2075 18.4103C22.2075 18.7827 22.1246 19.1655 21.9485 19.5379C21.7723 19.9103 21.5444 20.262 21.244 20.5931C20.7363 21.1517 20.1768 21.5551 19.5449 21.8138C18.9232 22.0724 18.2498 22.2069 17.5246 22.2069C16.4678 22.2069 15.3386 21.9586 14.1471 21.4517C12.9557 20.9448 11.7642 20.262 10.5831 19.4034C9.3917 18.5345 8.26242 17.5724 7.18494 16.5069C6.11783 15.431 5.15431 14.3034 4.2944 13.1241C3.44485 11.9448 2.76107 10.7655 2.26377 9.59652C1.76647 8.41721 1.51782 7.28963 1.51782 6.21376C1.51782 5.51032 1.64215 4.8379 1.8908 4.21721C2.13944 3.58618 2.53314 3.00687 3.08224 2.48963C3.7453 1.8379 4.47053 1.51721 5.23719 1.51721C5.52729 1.51721 5.81738 1.57928 6.07638 1.70342C6.34575 1.82756 6.58404 2.01376 6.77053 2.28273L9.17413 5.66549C9.36062 5.92411 9.49531 6.16204 9.58855 6.38963C9.68179 6.60687 9.73359 6.82411 9.73359 7.02066C9.73359 7.26894 9.66107 7.51721 9.51603 7.75514C9.38134 7.99307 9.18449 8.24135 8.93585 8.48962L8.14846 9.30687C8.03449 9.42066 7.98269 9.55514 7.98269 9.72066C7.98269 9.80342 7.99305 9.87583 8.01377 9.95859C8.04486 10.0413 8.07594 10.1034 8.09666 10.1655C8.28314 10.5069 8.60431 10.9517 9.06017 11.4896C9.52639 12.0276 10.0237 12.5758 10.5624 13.1241C11.1219 13.6724 11.6606 14.1793 12.2097 14.6448C12.7485 15.1 13.194 15.4103 13.5462 15.5965C13.598 15.6172 13.6602 15.6482 13.7327 15.6793C13.8156 15.7103 13.8985 15.7207 13.9917 15.7207C14.1678 15.7207 14.3025 15.6586 14.4165 15.5448L15.2039 14.7689C15.4629 14.5103 15.7115 14.3138 15.9498 14.1896C16.1881 14.0448 16.4264 13.9724 16.6854 13.9724C16.8822 13.9724 17.0895 14.0138 17.3174 14.1069C17.5453 14.2 17.7836 14.3345 18.0426 14.5103L21.4719 16.9413C21.7413 17.1276 21.9277 17.3448 22.0417 17.6034C22.1453 17.862 22.2075 18.1207 22.2075 18.4103Z" fill="#00589B"/>
</svg>
