<svg width="375" height="8521" viewBox="0 0 375 8521" fill="none" xmlns="http://www.w3.org/2000/svg">
<g clip-path="url(#clip0_1221_20776)">
<rect width="375" height="8521" fill="#CDE3F5"/>
<g filter="url(#filter0_f_1221_20776)">
<path d="M22.8233 8517.52C13.3094 8550.57 48.7336 8612.26 53.8936 8624.39L185.869 8821.86L379.193 8855C334.926 8717.53 380.527 8297.1 357.789 8212.58C326.995 8098.12 206.871 8037.76 142.202 8102.85C80.6356 8164.81 116.952 8205.13 95.3218 8217.7C49.196 8244.5 35.1427 8474.73 22.8233 8517.52Z" fill="#2E88FC"/>
<path d="M22.8233 8517.52C13.3094 8550.57 48.7336 8612.26 53.8936 8624.39L185.869 8821.86L379.193 8855C334.926 8717.53 380.527 8297.1 357.789 8212.58C326.995 8098.12 206.871 8037.76 142.202 8102.85C80.6356 8164.81 116.952 8205.13 95.3218 8217.7C49.196 8244.5 35.1427 8474.73 22.8233 8517.52Z" fill="url(#paint0_linear_1221_20776)"/>
<path d="M22.8233 8517.52C13.3094 8550.57 48.7336 8612.26 53.8936 8624.39L185.869 8821.86L379.193 8855C334.926 8717.53 380.527 8297.1 357.789 8212.58C326.995 8098.12 206.871 8037.76 142.202 8102.85C80.6356 8164.81 116.952 8205.13 95.3218 8217.7C49.196 8244.5 35.1427 8474.73 22.8233 8517.52Z" fill="url(#paint1_linear_1221_20776)" fill-opacity="0.25"/>
<path d="M22.8233 8517.52C13.3094 8550.57 48.7336 8612.26 53.8936 8624.39L185.869 8821.86L379.193 8855C334.926 8717.53 380.527 8297.1 357.789 8212.58C326.995 8098.12 206.871 8037.76 142.202 8102.85C80.6356 8164.81 116.952 8205.13 95.3218 8217.7C49.196 8244.5 35.1427 8474.73 22.8233 8517.52Z" fill="url(#paint2_linear_1221_20776)"/>
<path d="M22.8233 8517.52C13.3094 8550.57 48.7336 8612.26 53.8936 8624.39L185.869 8821.86L379.193 8855C334.926 8717.53 380.527 8297.1 357.789 8212.58C326.995 8098.12 206.871 8037.76 142.202 8102.85C80.6356 8164.81 116.952 8205.13 95.3218 8217.7C49.196 8244.5 35.1427 8474.73 22.8233 8517.52Z" fill="url(#paint3_linear_1221_20776)" fill-opacity="0.75"/>
<path d="M22.8233 8517.52C13.3094 8550.57 48.7336 8612.26 53.8936 8624.39L185.869 8821.86L379.193 8855C334.926 8717.53 380.527 8297.1 357.789 8212.58C326.995 8098.12 206.871 8037.76 142.202 8102.85C80.6356 8164.81 116.952 8205.13 95.3218 8217.7C49.196 8244.5 35.1427 8474.73 22.8233 8517.52Z" fill="url(#paint4_linear_1221_20776)" fill-opacity="0.8"/>
<path d="M22.8233 8517.52C13.3094 8550.57 48.7336 8612.26 53.8936 8624.39L185.869 8821.86L379.193 8855C334.926 8717.53 380.527 8297.1 357.789 8212.58C326.995 8098.12 206.871 8037.76 142.202 8102.85C80.6356 8164.81 116.952 8205.13 95.3218 8217.7C49.196 8244.5 35.1427 8474.73 22.8233 8517.52Z" fill="url(#paint5_radial_1221_20776)" fill-opacity="0.5"/>
</g>
<g filter="url(#filter1_f_1221_20776)">
<path d="M138.929 5593.15C154.753 5565.04 210.971 5577.02 221.125 5577.18L410.416 5638.02L528.068 5855.64C420.176 5870.98 181.019 6137.18 116.932 6152.03C30.1389 6172.15 -67.7498 6056.88 -59.6293 5945.86C-51.8984 5840.17 -8.54861 5863.95 -11.5679 5831.43C-18.0064 5762.09 118.438 5629.55 138.929 5593.15Z" fill="#2E88FC"/>
<path d="M138.929 5593.15C154.753 5565.04 210.971 5577.02 221.125 5577.18L410.416 5638.02L528.068 5855.64C420.176 5870.98 181.019 6137.18 116.932 6152.03C30.1389 6172.15 -67.7498 6056.88 -59.6293 5945.86C-51.8984 5840.17 -8.54861 5863.95 -11.5679 5831.43C-18.0064 5762.09 118.438 5629.55 138.929 5593.15Z" fill="url(#paint6_linear_1221_20776)"/>
<path d="M138.929 5593.15C154.753 5565.04 210.971 5577.02 221.125 5577.18L410.416 5638.02L528.068 5855.64C420.176 5870.98 181.019 6137.18 116.932 6152.03C30.1389 6172.15 -67.7498 6056.88 -59.6293 5945.86C-51.8984 5840.17 -8.54861 5863.95 -11.5679 5831.43C-18.0064 5762.09 118.438 5629.55 138.929 5593.15Z" fill="url(#paint7_linear_1221_20776)" fill-opacity="0.25"/>
<path d="M138.929 5593.15C154.753 5565.04 210.971 5577.02 221.125 5577.18L410.416 5638.02L528.068 5855.64C420.176 5870.98 181.019 6137.18 116.932 6152.03C30.1389 6172.15 -67.7498 6056.88 -59.6293 5945.86C-51.8984 5840.17 -8.54861 5863.95 -11.5679 5831.43C-18.0064 5762.09 118.438 5629.55 138.929 5593.15Z" fill="url(#paint8_linear_1221_20776)"/>
<path d="M138.929 5593.15C154.753 5565.04 210.971 5577.02 221.125 5577.18L410.416 5638.02L528.068 5855.64C420.176 5870.98 181.019 6137.18 116.932 6152.03C30.1389 6172.15 -67.7498 6056.88 -59.6293 5945.86C-51.8984 5840.17 -8.54861 5863.95 -11.5679 5831.43C-18.0064 5762.09 118.438 5629.55 138.929 5593.15Z" fill="url(#paint9_linear_1221_20776)" fill-opacity="0.75"/>
<path d="M138.929 5593.15C154.753 5565.04 210.971 5577.02 221.125 5577.18L410.416 5638.02L528.068 5855.64C420.176 5870.98 181.019 6137.18 116.932 6152.03C30.1389 6172.15 -67.7498 6056.88 -59.6293 5945.86C-51.8984 5840.17 -8.54861 5863.95 -11.5679 5831.43C-18.0064 5762.09 118.438 5629.55 138.929 5593.15Z" fill="url(#paint10_radial_1221_20776)" fill-opacity="0.5"/>
</g>
<g filter="url(#filter2_f_1221_20776)">
<path d="M310.047 3181.22C299.731 3211.83 246.048 3217.43 236.657 3220.28L52.777 3220.2L-88.8933 3054.28C8.29764 3008.19 188.375 2691.83 245.23 2659.16C322.23 2614.9 430.083 2692.25 439.498 2797.07C448.461 2896.85 404.852 2887.75 412.589 2916.85C429.087 2978.91 323.406 3141.57 310.047 3181.22Z" fill="#2E88FC"/>
<path d="M310.047 3181.22C299.731 3211.83 246.048 3217.43 236.657 3220.28L52.777 3220.2L-88.8933 3054.28C8.29764 3008.19 188.375 2691.83 245.23 2659.16C322.23 2614.9 430.083 2692.25 439.498 2797.07C448.461 2896.85 404.852 2887.75 412.589 2916.85C429.087 2978.91 323.406 3141.57 310.047 3181.22Z" fill="url(#paint11_linear_1221_20776)"/>
<path d="M310.047 3181.22C299.731 3211.83 246.048 3217.43 236.657 3220.28L52.777 3220.2L-88.8933 3054.28C8.29764 3008.19 188.375 2691.83 245.23 2659.16C322.23 2614.9 430.083 2692.25 439.498 2797.07C448.461 2896.85 404.852 2887.75 412.589 2916.85C429.087 2978.91 323.406 3141.57 310.047 3181.22Z" fill="url(#paint12_linear_1221_20776)" fill-opacity="0.5"/>
<path d="M310.047 3181.22C299.731 3211.83 246.048 3217.43 236.657 3220.28L52.777 3220.2L-88.8933 3054.28C8.29764 3008.19 188.375 2691.83 245.23 2659.16C322.23 2614.9 430.083 2692.25 439.498 2797.07C448.461 2896.85 404.852 2887.75 412.589 2916.85C429.087 2978.91 323.406 3141.57 310.047 3181.22Z" fill="url(#paint13_linear_1221_20776)"/>
<path d="M310.047 3181.22C299.731 3211.83 246.048 3217.43 236.657 3220.28L52.777 3220.2L-88.8933 3054.28C8.29764 3008.19 188.375 2691.83 245.23 2659.16C322.23 2614.9 430.083 2692.25 439.498 2797.07C448.461 2896.85 404.852 2887.75 412.589 2916.85C429.087 2978.91 323.406 3141.57 310.047 3181.22Z" fill="url(#paint14_linear_1221_20776)" fill-opacity="0.8"/>
<path d="M310.047 3181.22C299.731 3211.83 246.048 3217.43 236.657 3220.28L52.777 3220.2L-88.8933 3054.28C8.29764 3008.19 188.375 2691.83 245.23 2659.16C322.23 2614.9 430.083 2692.25 439.498 2797.07C448.461 2896.85 404.852 2887.75 412.589 2916.85C429.087 2978.91 323.406 3141.57 310.047 3181.22Z" fill="url(#paint15_linear_1221_20776)"/>
<path d="M310.047 3181.22C299.731 3211.83 246.048 3217.43 236.657 3220.28L52.777 3220.2L-88.8933 3054.28C8.29764 3008.19 188.375 2691.83 245.23 2659.16C322.23 2614.9 430.083 2692.25 439.498 2797.07C448.461 2896.85 404.852 2887.75 412.589 2916.85C429.087 2978.91 323.406 3141.57 310.047 3181.22Z" fill="url(#paint16_linear_1221_20776)" fill-opacity="0.5"/>
<path d="M310.047 3181.22C299.731 3211.83 246.048 3217.43 236.657 3220.28L52.777 3220.2L-88.8933 3054.28C8.29764 3008.19 188.375 2691.83 245.23 2659.16C322.23 2614.9 430.083 2692.25 439.498 2797.07C448.461 2896.85 404.852 2887.75 412.589 2916.85C429.087 2978.91 323.406 3141.57 310.047 3181.22Z" fill="url(#paint17_radial_1221_20776)" fill-opacity="0.5"/>
</g>
<g filter="url(#filter3_f_1221_20776)">
<path d="M227.165 444.563C244.015 444.359 222.684 407.839 234.488 404.526C246.291 401.214 233.542 370.683 270.356 364.479C290.681 361.054 307.657 362.547 308.993 382.653C326.156 421.364 312.181 490.029 287.872 518.275C262.71 547.511 167.872 521.605 127.239 572.321L126.225 573.617C126.559 573.18 126.897 572.748 127.239 572.321L227.165 444.563Z" fill="#ED5F5C"/>
<path d="M227.165 444.563C244.015 444.359 222.684 407.839 234.488 404.526C246.291 401.214 233.542 370.683 270.356 364.479C290.681 361.054 307.657 362.547 308.993 382.653C326.156 421.364 312.181 490.029 287.872 518.275C262.71 547.511 167.872 521.605 127.239 572.321L126.225 573.617C126.559 573.18 126.897 572.748 127.239 572.321L227.165 444.563Z" fill="url(#paint18_linear_1221_20776)"/>
<path d="M227.165 444.563C244.015 444.359 222.684 407.839 234.488 404.526C246.291 401.214 233.542 370.683 270.356 364.479C290.681 361.054 307.657 362.547 308.993 382.653C326.156 421.364 312.181 490.029 287.872 518.275C262.71 547.511 167.872 521.605 127.239 572.321L126.225 573.617C126.559 573.18 126.897 572.748 127.239 572.321L227.165 444.563Z" fill="url(#paint19_linear_1221_20776)"/>
<path d="M227.165 444.563C244.015 444.359 222.684 407.839 234.488 404.526C246.291 401.214 233.542 370.683 270.356 364.479C290.681 361.054 307.657 362.547 308.993 382.653C326.156 421.364 312.181 490.029 287.872 518.275C262.71 547.511 167.872 521.605 127.239 572.321L126.225 573.617C126.559 573.18 126.897 572.748 127.239 572.321L227.165 444.563Z" fill="url(#paint20_linear_1221_20776)"/>
</g>
<g filter="url(#filter4_f_1221_20776)">
<path d="M128.263 457.312C113.903 456.335 96.8848 493.959 93.2033 500.02L42.1371 634.245L65.0579 783.747C109.368 725.621 278.172 682.102 306.238 649.687C344.248 605.786 345.179 505.576 308.447 469.579C273.478 435.31 190.362 485.231 177.329 488.073C164.297 490.916 146.857 458.578 128.263 457.312Z" fill="#2E88FC"/>
<path d="M128.263 457.312C113.903 456.335 96.8848 493.959 93.2033 500.02L42.1371 634.245L65.0579 783.747C109.368 725.621 278.172 682.102 306.238 649.687C344.248 605.786 345.179 505.576 308.447 469.579C273.478 435.31 190.362 485.231 177.329 488.073C164.297 490.916 146.857 458.578 128.263 457.312Z" fill="white" fill-opacity="0.2"/>
<path d="M128.263 457.312C113.903 456.335 96.8848 493.959 93.2033 500.02L42.1371 634.245L65.0579 783.747C109.368 725.621 278.172 682.102 306.238 649.687C344.248 605.786 345.179 505.576 308.447 469.579C273.478 435.31 190.362 485.231 177.329 488.073C164.297 490.916 146.857 458.578 128.263 457.312Z" fill="url(#paint21_linear_1221_20776)"/>
<path d="M128.263 457.312C113.903 456.335 96.8848 493.959 93.2033 500.02L42.1371 634.245L65.0579 783.747C109.368 725.621 278.172 682.102 306.238 649.687C344.248 605.786 345.179 505.576 308.447 469.579C273.478 435.31 190.362 485.231 177.329 488.073C164.297 490.916 146.857 458.578 128.263 457.312Z" fill="url(#paint22_linear_1221_20776)" fill-opacity="0.8"/>
<path d="M128.263 457.312C113.903 456.335 96.8848 493.959 93.2033 500.02L42.1371 634.245L65.0579 783.747C109.368 725.621 278.172 682.102 306.238 649.687C344.248 605.786 345.179 505.576 308.447 469.579C273.478 435.31 190.362 485.231 177.329 488.073C164.297 490.916 146.857 458.578 128.263 457.312Z" fill="url(#paint23_linear_1221_20776)"/>
<path d="M128.263 457.312C113.903 456.335 96.8848 493.959 93.2033 500.02L42.1371 634.245L65.0579 783.747C109.368 725.621 278.172 682.102 306.238 649.687C344.248 605.786 345.179 505.576 308.447 469.579C273.478 435.31 190.362 485.231 177.329 488.073C164.297 490.916 146.857 458.578 128.263 457.312Z" fill="url(#paint24_linear_1221_20776)" fill-opacity="0.3"/>
<path d="M128.263 457.312C113.903 456.335 96.8848 493.959 93.2033 500.02L42.1371 634.245L65.0579 783.747C109.368 725.621 278.172 682.102 306.238 649.687C344.248 605.786 345.179 505.576 308.447 469.579C273.478 435.31 190.362 485.231 177.329 488.073C164.297 490.916 146.857 458.578 128.263 457.312Z" fill="url(#paint25_linear_1221_20776)"/>
<path d="M128.263 457.312C113.903 456.335 96.8848 493.959 93.2033 500.02L42.1371 634.245L65.0579 783.747C109.368 725.621 278.172 682.102 306.238 649.687C344.248 605.786 345.179 505.576 308.447 469.579C273.478 435.31 190.362 485.231 177.329 488.073C164.297 490.916 146.857 458.578 128.263 457.312Z" fill="url(#paint26_linear_1221_20776)" fill-opacity="0.5"/>
<path d="M128.263 457.312C113.903 456.335 96.8848 493.959 93.2033 500.02L42.1371 634.245L65.0579 783.747C109.368 725.621 278.172 682.102 306.238 649.687C344.248 605.786 345.179 505.576 308.447 469.579C273.478 435.31 190.362 485.231 177.329 488.073C164.297 490.916 146.857 458.578 128.263 457.312Z" fill="url(#paint27_radial_1221_20776)" fill-opacity="0.5"/>
</g>
<g filter="url(#filter5_f_1221_20776)">
<path d="M130.48 668.065C108.447 666.565 82.3345 724.294 76.6857 733.593L-1.66793 939.542L33.5007 1168.93C101.488 1079.74 360.493 1012.97 403.556 963.236C461.877 895.877 463.305 742.119 406.946 686.887C353.291 634.305 225.761 710.902 205.765 715.263C185.769 719.624 159.01 670.007 130.48 668.065Z" fill="#2E88FC"/>
<path d="M130.48 668.065C108.447 666.565 82.3345 724.294 76.6857 733.593L-1.66793 939.542L33.5007 1168.93C101.488 1079.74 360.493 1012.97 403.556 963.236C461.877 895.877 463.305 742.119 406.946 686.887C353.291 634.305 225.761 710.902 205.765 715.263C185.769 719.624 159.01 670.007 130.48 668.065Z" fill="white" fill-opacity="0.2"/>
<path d="M130.48 668.065C108.447 666.565 82.3345 724.294 76.6857 733.593L-1.66793 939.542L33.5007 1168.93C101.488 1079.74 360.493 1012.97 403.556 963.236C461.877 895.877 463.305 742.119 406.946 686.887C353.291 634.305 225.761 710.902 205.765 715.263C185.769 719.624 159.01 670.007 130.48 668.065Z" fill="url(#paint28_linear_1221_20776)"/>
<path d="M130.48 668.065C108.447 666.565 82.3345 724.294 76.6857 733.593L-1.66793 939.542L33.5007 1168.93C101.488 1079.74 360.493 1012.97 403.556 963.236C461.877 895.877 463.305 742.119 406.946 686.887C353.291 634.305 225.761 710.902 205.765 715.263C185.769 719.624 159.01 670.007 130.48 668.065Z" fill="url(#paint29_linear_1221_20776)" fill-opacity="0.8"/>
<path d="M130.48 668.065C108.447 666.565 82.3345 724.294 76.6857 733.593L-1.66793 939.542L33.5007 1168.93C101.488 1079.74 360.493 1012.97 403.556 963.236C461.877 895.877 463.305 742.119 406.946 686.887C353.291 634.305 225.761 710.902 205.765 715.263C185.769 719.624 159.01 670.007 130.48 668.065Z" fill="url(#paint30_linear_1221_20776)"/>
<path d="M130.48 668.065C108.447 666.565 82.3345 724.294 76.6857 733.593L-1.66793 939.542L33.5007 1168.93C101.488 1079.74 360.493 1012.97 403.556 963.236C461.877 895.877 463.305 742.119 406.946 686.887C353.291 634.305 225.761 710.902 205.765 715.263C185.769 719.624 159.01 670.007 130.48 668.065Z" fill="url(#paint31_linear_1221_20776)" fill-opacity="0.3"/>
<path d="M130.48 668.065C108.447 666.565 82.3345 724.294 76.6857 733.593L-1.66793 939.542L33.5007 1168.93C101.488 1079.74 360.493 1012.97 403.556 963.236C461.877 895.877 463.305 742.119 406.946 686.887C353.291 634.305 225.761 710.902 205.765 715.263C185.769 719.624 159.01 670.007 130.48 668.065Z" fill="url(#paint32_linear_1221_20776)"/>
<path d="M130.48 668.065C108.447 666.565 82.3345 724.294 76.6857 733.593L-1.66793 939.542L33.5007 1168.93C101.488 1079.74 360.493 1012.97 403.556 963.236C461.877 895.877 463.305 742.119 406.946 686.887C353.291 634.305 225.761 710.902 205.765 715.263C185.769 719.624 159.01 670.007 130.48 668.065Z" fill="url(#paint33_linear_1221_20776)" fill-opacity="0.5"/>
<path d="M130.48 668.065C108.447 666.565 82.3345 724.294 76.6857 733.593L-1.66793 939.542L33.5007 1168.93C101.488 1079.74 360.493 1012.97 403.556 963.236C461.877 895.877 463.305 742.119 406.946 686.887C353.291 634.305 225.761 710.902 205.765 715.263C185.769 719.624 159.01 670.007 130.48 668.065Z" fill="url(#paint34_radial_1221_20776)" fill-opacity="0.5"/>
</g>
<g filter="url(#filter6_f_1221_20776)">
<path d="M360.389 3710.44C343.932 3689.96 297.595 3711.96 289.009 3714.24L135.212 3805.7L59.1214 4014.91C152.206 4005.16 383.723 4180.29 439.637 4179.37C515.362 4178.12 585.807 4059.8 566.886 3967.45C548.874 3879.52 415.165 3827.28 397.649 3813.15C380.133 3799.01 381.699 3736.97 360.389 3710.44Z" fill="#2E88FC"/>
<path d="M360.389 3710.44C343.932 3689.96 297.595 3711.96 289.009 3714.24L135.212 3805.7L59.1214 4014.91C152.206 4005.16 383.723 4180.29 439.637 4179.37C515.362 4178.12 585.807 4059.8 566.886 3967.45C548.874 3879.52 415.165 3827.28 397.649 3813.15C380.133 3799.01 381.699 3736.97 360.389 3710.44Z" fill="white" fill-opacity="0.2"/>
<path d="M360.389 3710.44C343.932 3689.96 297.595 3711.96 289.009 3714.24L135.212 3805.7L59.1214 4014.91C152.206 4005.16 383.723 4180.29 439.637 4179.37C515.362 4178.12 585.807 4059.8 566.886 3967.45C548.874 3879.52 415.165 3827.28 397.649 3813.15C380.133 3799.01 381.699 3736.97 360.389 3710.44Z" fill="url(#paint35_linear_1221_20776)"/>
<path d="M360.389 3710.44C343.932 3689.96 297.595 3711.96 289.009 3714.24L135.212 3805.7L59.1214 4014.91C152.206 4005.16 383.723 4180.29 439.637 4179.37C515.362 4178.12 585.807 4059.8 566.886 3967.45C548.874 3879.52 415.165 3827.28 397.649 3813.15C380.133 3799.01 381.699 3736.97 360.389 3710.44Z" fill="url(#paint36_linear_1221_20776)" fill-opacity="0.8"/>
<path d="M360.389 3710.44C343.932 3689.96 297.595 3711.96 289.009 3714.24L135.212 3805.7L59.1214 4014.91C152.206 4005.16 383.723 4180.29 439.637 4179.37C515.362 4178.12 585.807 4059.8 566.886 3967.45C548.874 3879.52 415.165 3827.28 397.649 3813.15C380.133 3799.01 381.699 3736.97 360.389 3710.44Z" fill="url(#paint37_linear_1221_20776)"/>
<path d="M360.389 3710.44C343.932 3689.96 297.595 3711.96 289.009 3714.24L135.212 3805.7L59.1214 4014.91C152.206 4005.16 383.723 4180.29 439.637 4179.37C515.362 4178.12 585.807 4059.8 566.886 3967.45C548.874 3879.52 415.165 3827.28 397.649 3813.15C380.133 3799.01 381.699 3736.97 360.389 3710.44Z" fill="url(#paint38_linear_1221_20776)" fill-opacity="0.3"/>
<path d="M360.389 3710.44C343.932 3689.96 297.595 3711.96 289.009 3714.24L135.212 3805.7L59.1214 4014.91C152.206 4005.16 383.723 4180.29 439.637 4179.37C515.362 4178.12 585.807 4059.8 566.886 3967.45C548.874 3879.52 415.165 3827.28 397.649 3813.15C380.133 3799.01 381.699 3736.97 360.389 3710.44Z" fill="url(#paint39_linear_1221_20776)"/>
<path d="M360.389 3710.44C343.932 3689.96 297.595 3711.96 289.009 3714.24L135.212 3805.7L59.1214 4014.91C152.206 4005.16 383.723 4180.29 439.637 4179.37C515.362 4178.12 585.807 4059.8 566.886 3967.45C548.874 3879.52 415.165 3827.28 397.649 3813.15C380.133 3799.01 381.699 3736.97 360.389 3710.44Z" fill="url(#paint40_linear_1221_20776)" fill-opacity="0.5"/>
<path d="M360.389 3710.44C343.932 3689.96 297.595 3711.96 289.009 3714.24L135.212 3805.7L59.1214 4014.91C152.206 4005.16 383.723 4180.29 439.637 4179.37C515.362 4178.12 585.807 4059.8 566.886 3967.45C548.874 3879.52 415.165 3827.28 397.649 3813.15C380.133 3799.01 381.699 3736.97 360.389 3710.44Z" fill="url(#paint41_radial_1221_20776)" fill-opacity="0.5"/>
</g>
</g>
<defs>
<filter id="filter0_f_1221_20776" x="-191.791" y="7863.11" width="783.984" height="1204.89" filterUnits="userSpaceOnUse" color-interpolation-filters="sRGB">
<feFlood flood-opacity="0" result="BackgroundImageFix"/>
<feBlend mode="normal" in="SourceGraphic" in2="BackgroundImageFix" result="shape"/>
<feGaussianBlur stdDeviation="106.5" result="effect1_foregroundBlur_1221_20776"/>
</filter>
<filter id="filter1_f_1221_20776" x="-160.104" y="5474.51" width="788.172" height="779.826" filterUnits="userSpaceOnUse" color-interpolation-filters="sRGB">
<feFlood flood-opacity="0" result="BackgroundImageFix"/>
<feBlend mode="normal" in="SourceGraphic" in2="BackgroundImageFix" result="shape"/>
<feGaussianBlur stdDeviation="50" result="effect1_foregroundBlur_1221_20776"/>
</filter>
<filter id="filter2_f_1221_20776" x="-301.893" y="2433.44" width="955.611" height="999.843" filterUnits="userSpaceOnUse" color-interpolation-filters="sRGB">
<feFlood flood-opacity="0" result="BackgroundImageFix"/>
<feBlend mode="normal" in="SourceGraphic" in2="BackgroundImageFix" result="shape"/>
<feGaussianBlur stdDeviation="106.5" result="effect1_foregroundBlur_1221_20776"/>
</filter>
<filter id="filter3_f_1221_20776" x="-73.7754" y="163.046" width="590.373" height="610.572" filterUnits="userSpaceOnUse" color-interpolation-filters="sRGB">
<feFlood flood-opacity="0" result="BackgroundImageFix"/>
<feBlend mode="normal" in="SourceGraphic" in2="BackgroundImageFix" result="shape"/>
<feGaussianBlur stdDeviation="100" result="effect1_foregroundBlur_1221_20776"/>
</filter>
<filter id="filter4_f_1221_20776" x="-157.863" y="257.293" width="693.246" height="726.454" filterUnits="userSpaceOnUse" color-interpolation-filters="sRGB">
<feFlood flood-opacity="0" result="BackgroundImageFix"/>
<feBlend mode="normal" in="SourceGraphic" in2="BackgroundImageFix" result="shape"/>
<feGaussianBlur stdDeviation="100" result="effect1_foregroundBlur_1221_20776"/>
</filter>
<filter id="filter5_f_1221_20776" x="-201.668" y="468.036" width="849.943" height="900.896" filterUnits="userSpaceOnUse" color-interpolation-filters="sRGB">
<feFlood flood-opacity="0" result="BackgroundImageFix"/>
<feBlend mode="normal" in="SourceGraphic" in2="BackgroundImageFix" result="shape"/>
<feGaussianBlur stdDeviation="100" result="effect1_foregroundBlur_1221_20776"/>
</filter>
<filter id="filter6_f_1221_20776" x="-140.879" y="3501.79" width="910.877" height="877.583" filterUnits="userSpaceOnUse" color-interpolation-filters="sRGB">
<feFlood flood-opacity="0" result="BackgroundImageFix"/>
<feBlend mode="normal" in="SourceGraphic" in2="BackgroundImageFix" result="shape"/>
<feGaussianBlur stdDeviation="100" result="effect1_foregroundBlur_1221_20776"/>
</filter>
<linearGradient id="paint0_linear_1221_20776" x1="91.572" y1="8157.63" x2="209.304" y2="8292.94" gradientUnits="userSpaceOnUse">
<stop stop-color="#FFEADE"/>
<stop offset="1" stop-color="#D65007" stop-opacity="0"/>
</linearGradient>
<linearGradient id="paint1_linear_1221_20776" x1="61.6553" y1="8336.37" x2="242.925" y2="8333.41" gradientUnits="userSpaceOnUse">
<stop stop-color="#F9914E"/>
<stop offset="1" stop-color="#F67C2D" stop-opacity="0"/>
</linearGradient>
<linearGradient id="paint2_linear_1221_20776" x1="90.0746" y1="8272.34" x2="260.668" y2="8340.36" gradientUnits="userSpaceOnUse">
<stop stop-color="#CDE3F5"/>
<stop offset="1" stop-color="#CDE3F5" stop-opacity="0"/>
</linearGradient>
<linearGradient id="paint3_linear_1221_20776" x1="61.3872" y1="8642.68" x2="113.864" y2="8382.97" gradientUnits="userSpaceOnUse">
<stop stop-color="#ED5F5C"/>
<stop offset="1" stop-color="#ED5F5C" stop-opacity="0"/>
</linearGradient>
<linearGradient id="paint4_linear_1221_20776" x1="326.014" y1="8203.2" x2="195.191" y2="8362.09" gradientUnits="userSpaceOnUse">
<stop offset="0.121877" stop-color="white"/>
<stop offset="1" stop-color="white" stop-opacity="0"/>
</linearGradient>
<radialGradient id="paint5_radial_1221_20776" cx="0" cy="0" r="1" gradientUnits="userSpaceOnUse" gradientTransform="translate(186.334 8618.91) rotate(-60.9924) scale(101.172 139.465)">
<stop stop-color="white"/>
<stop offset="1" stop-color="white" stop-opacity="0"/>
</radialGradient>
<linearGradient id="paint6_linear_1221_20776" x1="-50.8899" y1="5857.03" x2="94.266" y2="5860.6" gradientUnits="userSpaceOnUse">
<stop stop-color="#FFEADE"/>
<stop offset="1" stop-color="#D65007" stop-opacity="0"/>
</linearGradient>
<linearGradient id="paint7_linear_1221_20776" x1="45.5039" y1="5731.1" x2="184.958" y2="5913.79" gradientUnits="userSpaceOnUse">
<stop stop-color="#F9914E"/>
<stop offset="1" stop-color="#F67C2D" stop-opacity="0"/>
</linearGradient>
<linearGradient id="paint8_linear_1221_20776" x1="42.6596" y1="5778.81" x2="355.915" y2="5849.54" gradientUnits="userSpaceOnUse">
<stop stop-color="#CDE3F5"/>
<stop offset="1" stop-color="#CDE3F5" stop-opacity="0"/>
</linearGradient>
<linearGradient id="paint9_linear_1221_20776" x1="275.118" y1="5550.95" x2="171.223" y2="5741.67" gradientUnits="userSpaceOnUse">
<stop stop-color="#ED5F5C"/>
<stop offset="1" stop-color="#ED5F5C" stop-opacity="0"/>
</linearGradient>
<radialGradient id="paint10_radial_1221_20776" cx="0" cy="0" r="1" gradientUnits="userSpaceOnUse" gradientTransform="translate(284.155 5740.41) rotate(106.384) scale(108.236 131.268)">
<stop stop-color="white"/>
<stop offset="1" stop-color="white" stop-opacity="0"/>
</radialGradient>
<linearGradient id="paint11_linear_1221_20776" x1="444.964" y1="2881.6" x2="307.656" y2="2900.74" gradientUnits="userSpaceOnUse">
<stop stop-color="#FFEADE"/>
<stop offset="1" stop-color="#D65007" stop-opacity="0"/>
</linearGradient>
<linearGradient id="paint12_linear_1221_20776" x1="375.222" y1="3026.31" x2="218.209" y2="2899.74" gradientUnits="userSpaceOnUse">
<stop stop-color="#F9914E"/>
<stop offset="1" stop-color="#F67C2D" stop-opacity="0"/>
</linearGradient>
<linearGradient id="paint13_linear_1221_20776" x1="84.9331" y1="3010.81" x2="192.897" y2="2877.03" gradientUnits="userSpaceOnUse">
<stop stop-color="#CBE5FA"/>
<stop offset="1" stop-color="#CDE3F5" stop-opacity="0"/>
</linearGradient>
<linearGradient id="paint14_linear_1221_20776" x1="380.965" y1="3066.33" x2="249.55" y2="2953.86" gradientUnits="userSpaceOnUse">
<stop stop-color="#CDE3F5"/>
<stop offset="1" stop-color="#CDE3F5" stop-opacity="0"/>
</linearGradient>
<linearGradient id="paint15_linear_1221_20776" x1="297.223" y1="3219.5" x2="269.535" y2="3015.77" gradientUnits="userSpaceOnUse">
<stop stop-color="#ED5F5C"/>
<stop offset="1" stop-color="#ED5F5C" stop-opacity="0"/>
</linearGradient>
<linearGradient id="paint16_linear_1221_20776" x1="155.414" y1="3202.54" x2="183.164" y2="2961.44" gradientUnits="userSpaceOnUse">
<stop stop-color="white"/>
<stop offset="1" stop-color="#F67C2D" stop-opacity="0"/>
</linearGradient>
<radialGradient id="paint17_radial_1221_20776" cx="0" cy="0" r="1" gradientUnits="userSpaceOnUse" gradientTransform="translate(153.655 3088.37) rotate(-83.2805) scale(105.554 120.609)">
<stop stop-color="white"/>
<stop offset="1" stop-color="white" stop-opacity="0"/>
</radialGradient>
<linearGradient id="paint18_linear_1221_20776" x1="285.491" y1="369.562" x2="205.025" y2="415.344" gradientUnits="userSpaceOnUse">
<stop stop-color="#FFEADE"/>
<stop offset="1" stop-color="#D65007" stop-opacity="0"/>
</linearGradient>
<linearGradient id="paint19_linear_1221_20776" x1="146.459" y1="474.455" x2="210.385" y2="498.806" gradientUnits="userSpaceOnUse">
<stop stop-color="#F9914E"/>
<stop offset="1" stop-color="#F67C2D" stop-opacity="0"/>
</linearGradient>
<linearGradient id="paint20_linear_1221_20776" x1="123.62" y1="513.649" x2="177.891" y2="519.025" gradientUnits="userSpaceOnUse">
<stop stop-color="#CBE5FA"/>
<stop offset="1" stop-color="#CDE3F5" stop-opacity="0"/>
</linearGradient>
<linearGradient id="paint21_linear_1221_20776" x1="278.232" y1="442.1" x2="205.747" y2="506.39" gradientUnits="userSpaceOnUse">
<stop stop-color="#FFEADE"/>
<stop offset="1" stop-color="#D65007" stop-opacity="0"/>
</linearGradient>
<linearGradient id="paint22_linear_1221_20776" x1="150.983" y1="565.889" x2="224.162" y2="592.961" gradientUnits="userSpaceOnUse">
<stop stop-color="#F9914E"/>
<stop offset="1" stop-color="#F67C2D" stop-opacity="0"/>
</linearGradient>
<linearGradient id="paint23_linear_1221_20776" x1="114.734" y1="589.484" x2="189.988" y2="605.316" gradientUnits="userSpaceOnUse">
<stop stop-color="#CBE5FA"/>
<stop offset="1" stop-color="#CDE3F5" stop-opacity="0"/>
</linearGradient>
<linearGradient id="paint24_linear_1221_20776" x1="199.787" y1="480.94" x2="214.607" y2="539.237" gradientUnits="userSpaceOnUse">
<stop stop-color="#CDE3F5"/>
<stop offset="1" stop-color="#CDE3F5" stop-opacity="0"/>
</linearGradient>
<linearGradient id="paint25_linear_1221_20776" x1="123.795" y1="482.359" x2="188.613" y2="507.957" gradientUnits="userSpaceOnUse">
<stop stop-color="#ED5F5C"/>
<stop offset="1" stop-color="#ED5F5C" stop-opacity="0"/>
</linearGradient>
<linearGradient id="paint26_linear_1221_20776" x1="77.2885" y1="564.245" x2="180.15" y2="595.93" gradientUnits="userSpaceOnUse">
<stop stop-color="white"/>
<stop offset="1" stop-color="#F67C2D" stop-opacity="0"/>
</linearGradient>
<radialGradient id="paint27_radial_1221_20776" cx="0" cy="0" r="1" gradientUnits="userSpaceOnUse" gradientTransform="translate(119.661 597.254) rotate(25.1804) scale(47.2783 94.5698)">
<stop stop-color="white"/>
<stop offset="1" stop-color="white" stop-opacity="0"/>
</radialGradient>
<linearGradient id="paint28_linear_1221_20776" x1="360.585" y1="644.724" x2="249.367" y2="743.367" gradientUnits="userSpaceOnUse">
<stop stop-color="#FFEADE"/>
<stop offset="1" stop-color="#D65007" stop-opacity="0"/>
</linearGradient>
<linearGradient id="paint29_linear_1221_20776" x1="165.341" y1="834.66" x2="277.623" y2="876.198" gradientUnits="userSpaceOnUse">
<stop stop-color="#F9914E"/>
<stop offset="1" stop-color="#F67C2D" stop-opacity="0"/>
</linearGradient>
<linearGradient id="paint30_linear_1221_20776" x1="109.721" y1="870.863" x2="225.188" y2="895.155" gradientUnits="userSpaceOnUse">
<stop stop-color="#CBE5FA"/>
<stop offset="1" stop-color="#CDE3F5" stop-opacity="0"/>
</linearGradient>
<linearGradient id="paint31_linear_1221_20776" x1="240.222" y1="704.318" x2="262.962" y2="793.766" gradientUnits="userSpaceOnUse">
<stop stop-color="#CDE3F5"/>
<stop offset="1" stop-color="#CDE3F5" stop-opacity="0"/>
</linearGradient>
<linearGradient id="paint32_linear_1221_20776" x1="123.624" y1="706.495" x2="223.078" y2="745.772" gradientUnits="userSpaceOnUse">
<stop stop-color="#ED5F5C"/>
<stop offset="1" stop-color="#ED5F5C" stop-opacity="0"/>
</linearGradient>
<linearGradient id="paint33_linear_1221_20776" x1="52.2667" y1="832.137" x2="210.093" y2="880.753" gradientUnits="userSpaceOnUse">
<stop stop-color="white"/>
<stop offset="1" stop-color="#F67C2D" stop-opacity="0"/>
</linearGradient>
<radialGradient id="paint34_radial_1221_20776" cx="0" cy="0" r="1" gradientUnits="userSpaceOnUse" gradientTransform="translate(117.281 882.784) rotate(25.1804) scale(72.5417 145.104)">
<stop stop-color="white"/>
<stop offset="1" stop-color="white" stop-opacity="0"/>
</radialGradient>
<linearGradient id="paint35_linear_1221_20776" x1="549.847" y1="3894.02" x2="425.017" y2="3913.18" gradientUnits="userSpaceOnUse">
<stop stop-color="#FFEADE"/>
<stop offset="1" stop-color="#D65007" stop-opacity="0"/>
</linearGradient>
<linearGradient id="paint36_linear_1221_20776" x1="312.375" y1="3870.55" x2="389.421" y2="3996.09" gradientUnits="userSpaceOnUse">
<stop stop-color="#F9914E"/>
<stop offset="1" stop-color="#F67C2D" stop-opacity="0"/>
</linearGradient>
<linearGradient id="paint37_linear_1221_20776" x1="252.799" y1="3849.94" x2="350.845" y2="3951.52" gradientUnits="userSpaceOnUse">
<stop stop-color="#CBE5FA"/>
<stop offset="1" stop-color="#CDE3F5" stop-opacity="0"/>
</linearGradient>
<linearGradient id="paint38_linear_1221_20776" x1="429.379" y1="3834.84" x2="377.946" y2="3902.43" gradientUnits="userSpaceOnUse">
<stop stop-color="#CDE3F5"/>
<stop offset="1" stop-color="#CDE3F5" stop-opacity="0"/>
</linearGradient>
<linearGradient id="paint39_linear_1221_20776" x1="337.728" y1="3734.32" x2="402.925" y2="3848.88" gradientUnits="userSpaceOnUse">
<stop stop-color="#ED5F5C"/>
<stop offset="1" stop-color="#ED5F5C" stop-opacity="0"/>
</linearGradient>
<linearGradient id="paint40_linear_1221_20776" x1="225.584" y1="3769.46" x2="345.02" y2="3931.93" gradientUnits="userSpaceOnUse">
<stop stop-color="white"/>
<stop offset="1" stop-color="#F67C2D" stop-opacity="0"/>
</linearGradient>
<radialGradient id="paint41_radial_1221_20776" cx="0" cy="0" r="1" gradientUnits="userSpaceOnUse" gradientTransform="translate(253.302 3865.84) rotate(65.5195) scale(89.6072 117.469)">
<stop stop-color="white"/>
<stop offset="1" stop-color="white" stop-opacity="0"/>
</radialGradient>
<clipPath id="clip0_1221_20776">
<rect width="375" height="8521" fill="white"/>
</clipPath>
</defs>
</svg>
