<svg width="1920" height="10304" viewBox="0 0 1920 10304" fill="none" xmlns="http://www.w3.org/2000/svg">
<g filter="url(#filter0_f_1211_27124)">
<path d="M413.54 11825.1C514.39 11953.5 872.679 11898.8 937.388 11898.1L2143.78 11620L2893.59 10625.3C2205.98 10555.2 681.786 9338.42 273.353 9270.52C-279.796 9178.56 -903.657 9705.45 -851.904 10212.9C-802.634 10696 -526.358 10587.3 -545.601 10735.9C-586.635 11052.9 282.951 11658.7 413.54 11825.1Z" fill="#2E88FC"/>
<path d="M413.54 11825.1C514.39 11953.5 872.679 11898.8 937.388 11898.1L2143.78 11620L2893.59 10625.3C2205.98 10555.2 681.786 9338.42 273.353 9270.52C-279.796 9178.56 -903.657 9705.45 -851.904 10212.9C-802.634 10696 -526.358 10587.3 -545.601 10735.9C-586.635 11052.9 282.951 11658.7 413.54 11825.1Z" fill="url(#paint0_linear_1211_27124)"/>
<path d="M413.54 11825.1C514.39 11953.5 872.679 11898.8 937.388 11898.1L2143.78 11620L2893.59 10625.3C2205.98 10555.2 681.786 9338.42 273.353 9270.52C-279.796 9178.56 -903.657 9705.45 -851.904 10212.9C-802.634 10696 -526.358 10587.3 -545.601 10735.9C-586.635 11052.9 282.951 11658.7 413.54 11825.1Z" fill="url(#paint1_linear_1211_27124)" fill-opacity="0.25"/>
<path d="M413.54 11825.1C514.39 11953.5 872.679 11898.8 937.388 11898.1L2143.78 11620L2893.59 10625.3C2205.98 10555.2 681.786 9338.42 273.353 9270.52C-279.796 9178.56 -903.657 9705.45 -851.904 10212.9C-802.634 10696 -526.358 10587.3 -545.601 10735.9C-586.635 11052.9 282.951 11658.7 413.54 11825.1Z" fill="url(#paint2_linear_1211_27124)"/>
<path d="M413.54 11825.1C514.39 11953.5 872.679 11898.8 937.388 11898.1L2143.78 11620L2893.59 10625.3C2205.98 10555.2 681.786 9338.42 273.353 9270.52C-279.796 9178.56 -903.657 9705.45 -851.904 10212.9C-802.634 10696 -526.358 10587.3 -545.601 10735.9C-586.635 11052.9 282.951 11658.7 413.54 11825.1Z" fill="url(#paint3_linear_1211_27124)" fill-opacity="0.75"/>
<path d="M413.54 11825.1C514.39 11953.5 872.679 11898.8 937.388 11898.1L2143.78 11620L2893.59 10625.3C2205.98 10555.2 681.786 9338.42 273.353 9270.52C-279.796 9178.56 -903.657 9705.45 -851.904 10212.9C-802.634 10696 -526.358 10587.3 -545.601 10735.9C-586.635 11052.9 282.951 11658.7 413.54 11825.1Z" fill="url(#paint4_linear_1211_27124)" fill-opacity="0.8"/>
<path d="M413.54 11825.1C514.39 11953.5 872.679 11898.8 937.388 11898.1L2143.78 11620L2893.59 10625.3C2205.98 10555.2 681.786 9338.42 273.353 9270.52C-279.796 9178.56 -903.657 9705.45 -851.904 10212.9C-802.634 10696 -526.358 10587.3 -545.601 10735.9C-586.635 11052.9 282.951 11658.7 413.54 11825.1Z" fill="url(#paint5_radial_1211_27124)" fill-opacity="0.5"/>
</g>
<g filter="url(#filter1_f_1211_27124)">
<path d="M1317.02 5663.02C1215.96 5791.33 857.761 5735.99 793.054 5735.14L-412.865 5455.02L-1161 4459.04C-473.271 4390.1 1052.97 3175.93 1461.51 3108.72C2014.82 3017.7 2637.79 3545.63 2585.18 4052.98C2535.1 4535.99 2259.01 4426.85 2278 4575.5C2318.5 4892.5 1447.89 5496.87 1317.02 5663.02Z" fill="#2E88FC"/>
<path d="M1317.02 5663.02C1215.96 5791.33 857.761 5735.99 793.054 5735.14L-412.865 5455.02L-1161 4459.04C-473.271 4390.1 1052.97 3175.93 1461.51 3108.72C2014.82 3017.7 2637.79 3545.63 2585.18 4052.98C2535.1 4535.99 2259.01 4426.85 2278 4575.5C2318.5 4892.5 1447.89 5496.87 1317.02 5663.02Z" fill="url(#paint6_linear_1211_27124)"/>
<path d="M1317.02 5663.02C1215.96 5791.33 857.761 5735.99 793.054 5735.14L-412.865 5455.02L-1161 4459.04C-473.271 4390.1 1052.97 3175.93 1461.51 3108.72C2014.82 3017.7 2637.79 3545.63 2585.18 4052.98C2535.1 4535.99 2259.01 4426.85 2278 4575.5C2318.5 4892.5 1447.89 5496.87 1317.02 5663.02Z" fill="url(#paint7_linear_1211_27124)" fill-opacity="0.5"/>
<path d="M1317.02 5663.02C1215.96 5791.33 857.761 5735.99 793.054 5735.14L-412.865 5455.02L-1161 4459.04C-473.271 4390.1 1052.97 3175.93 1461.51 3108.72C2014.82 3017.7 2637.79 3545.63 2585.18 4052.98C2535.1 4535.99 2259.01 4426.85 2278 4575.5C2318.5 4892.5 1447.89 5496.87 1317.02 5663.02Z" fill="url(#paint8_linear_1211_27124)"/>
<path d="M1317.02 5663.02C1215.96 5791.33 857.761 5735.99 793.054 5735.14L-412.865 5455.02L-1161 4459.04C-473.271 4390.1 1052.97 3175.93 1461.51 3108.72C2014.82 3017.7 2637.79 3545.63 2585.18 4052.98C2535.1 4535.99 2259.01 4426.85 2278 4575.5C2318.5 4892.5 1447.89 5496.87 1317.02 5663.02Z" fill="url(#paint9_linear_1211_27124)" fill-opacity="0.8"/>
<path d="M1317.02 5663.02C1215.96 5791.33 857.761 5735.99 793.054 5735.14L-412.865 5455.02L-1161 4459.04C-473.271 4390.1 1052.97 3175.93 1461.51 3108.72C2014.82 3017.7 2637.79 3545.63 2585.18 4052.98C2535.1 4535.99 2259.01 4426.85 2278 4575.5C2318.5 4892.5 1447.89 5496.87 1317.02 5663.02Z" fill="url(#paint10_linear_1211_27124)"/>
<path d="M1317.02 5663.02C1215.96 5791.33 857.761 5735.99 793.054 5735.14L-412.865 5455.02L-1161 4459.04C-473.271 4390.1 1052.97 3175.93 1461.51 3108.72C2014.82 3017.7 2637.79 3545.63 2585.18 4052.98C2535.1 4535.99 2259.01 4426.85 2278 4575.5C2318.5 4892.5 1447.89 5496.87 1317.02 5663.02Z" fill="url(#paint11_linear_1211_27124)" fill-opacity="0.5"/>
<path d="M1317.02 5663.02C1215.96 5791.33 857.761 5735.99 793.054 5735.14L-412.865 5455.02L-1161 4459.04C-473.271 4390.1 1052.97 3175.93 1461.51 3108.72C2014.82 3017.7 2637.79 3545.63 2585.18 4052.98C2535.1 4535.99 2259.01 4426.85 2278 4575.5C2318.5 4892.5 1447.89 5496.87 1317.02 5663.02Z" fill="url(#paint12_radial_1211_27124)" fill-opacity="0.5"/>
</g>
<g filter="url(#filter2_f_1211_27124)">
<path d="M1518.35 5347.62C1681.5 5355.24 1844.75 5678.84 1881.68 5731.98L2354.96 6875.97L1979.63 8063.75C1523.66 7544.31 -351.584 7008.54 -643.811 6715.23C-1039.58 6318 -972.285 5504.19 -528.923 5252C-106.832 5011.91 -35.0959 5299.99 74.804 5198.11C309.163 4980.84 1307.08 5337.75 1518.35 5347.62Z" fill="#2E88FC"/>
<path d="M1518.35 5347.62C1681.5 5355.24 1844.75 5678.84 1881.68 5731.98L2354.96 6875.97L1979.63 8063.75C1523.66 7544.31 -351.584 7008.54 -643.811 6715.23C-1039.58 6318 -972.285 5504.19 -528.923 5252C-106.832 5011.91 -35.0959 5299.99 74.804 5198.11C309.163 4980.84 1307.08 5337.75 1518.35 5347.62Z" fill="url(#paint13_linear_1211_27124)"/>
<path d="M1518.35 5347.62C1681.5 5355.24 1844.75 5678.84 1881.68 5731.98L2354.96 6875.97L1979.63 8063.75C1523.66 7544.31 -351.584 7008.54 -643.811 6715.23C-1039.58 6318 -972.285 5504.19 -528.923 5252C-106.832 5011.91 -35.0959 5299.99 74.804 5198.11C309.163 4980.84 1307.08 5337.75 1518.35 5347.62Z" fill="url(#paint14_linear_1211_27124)"/>
<path d="M1518.35 5347.62C1681.5 5355.24 1844.75 5678.84 1881.68 5731.98L2354.96 6875.97L1979.63 8063.75C1523.66 7544.31 -351.584 7008.54 -643.811 6715.23C-1039.58 6318 -972.285 5504.19 -528.923 5252C-106.832 5011.91 -35.0959 5299.99 74.804 5198.11C309.163 4980.84 1307.08 5337.75 1518.35 5347.62Z" fill="url(#paint15_linear_1211_27124)" fill-opacity="0.25"/>
<path d="M1518.35 5347.62C1681.5 5355.24 1844.75 5678.84 1881.68 5731.98L2354.96 6875.97L1979.63 8063.75C1523.66 7544.31 -351.584 7008.54 -643.811 6715.23C-1039.58 6318 -972.285 5504.19 -528.923 5252C-106.832 5011.91 -35.0959 5299.99 74.804 5198.11C309.163 4980.84 1307.08 5337.75 1518.35 5347.62Z" fill="url(#paint16_linear_1211_27124)" fill-opacity="0.5"/>
</g>
<rect x="-291.211" y="-395" width="2262" height="2467" fill="url(#paint17_linear_1211_27124)"/>
<rect x="-291.211" y="-395" width="2262" height="2467" fill="url(#paint18_linear_1211_27124)" fill-opacity="0.3"/>
<g filter="url(#filter3_f_1211_27124)">
<path d="M1040.33 1104.85C1252.98 1103 983.777 772.46 1132.74 742.477C1281.7 712.495 1120.8 436.162 1585.4 380.012C1841.9 349.012 2056.14 362.518 2073 544.5C2289.6 894.872 2113.24 1516.36 1806.45 1772.02C1488.91 2036.63 292.052 1802.16 -220.735 2261.19L-233.528 2272.92C-229.312 2268.96 -225.048 2265.05 -220.735 2261.19L1040.33 1104.85Z" fill="#ED5F5C"/>
<path d="M1040.33 1104.85C1252.98 1103 983.777 772.46 1132.74 742.477C1281.7 712.495 1120.8 436.162 1585.4 380.012C1841.9 349.012 2056.14 362.518 2073 544.5C2289.6 894.872 2113.24 1516.36 1806.45 1772.02C1488.91 2036.63 292.052 1802.16 -220.735 2261.19L-233.528 2272.92C-229.312 2268.96 -225.048 2265.05 -220.735 2261.19L1040.33 1104.85Z" fill="url(#paint19_linear_1211_27124)"/>
<path d="M1040.33 1104.85C1252.98 1103 983.777 772.46 1132.74 742.477C1281.7 712.495 1120.8 436.162 1585.4 380.012C1841.9 349.012 2056.14 362.518 2073 544.5C2289.6 894.872 2113.24 1516.36 1806.45 1772.02C1488.91 2036.63 292.052 1802.16 -220.735 2261.19L-233.528 2272.92C-229.312 2268.96 -225.048 2265.05 -220.735 2261.19L1040.33 1104.85Z" fill="url(#paint20_linear_1211_27124)"/>
<path d="M1040.33 1104.85C1252.98 1103 983.777 772.46 1132.74 742.477C1281.7 712.495 1120.8 436.162 1585.4 380.012C1841.9 349.012 2056.14 362.518 2073 544.5C2289.6 894.872 2113.24 1516.36 1806.45 1772.02C1488.91 2036.63 292.052 1802.16 -220.735 2261.19L-233.528 2272.92C-229.312 2268.96 -225.048 2265.05 -220.735 2261.19L1040.33 1104.85Z" fill="url(#paint21_linear_1211_27124)"/>
</g>
<g filter="url(#filter4_f_1211_27124)">
<path d="M-178.472 926.794C-341.807 926.447 -520.642 1241.7 -560.119 1292.98L-1088.63 2412.52L-771.684 3617.2C-290.924 3120.61 1608.22 2676.95 1914.41 2398.24C2329.08 2020.78 2301.56 1204.66 1871.02 931.145C1461.15 670.75 404.812 1029.45 257.992 1059.49C111.172 1089.53 33.0277 927.243 -178.472 926.794Z" fill="#2E88FC"/>
<path d="M-178.472 926.794C-341.807 926.447 -520.642 1241.7 -560.119 1292.98L-1088.63 2412.52L-771.684 3617.2C-290.924 3120.61 1608.22 2676.95 1914.41 2398.24C2329.08 2020.78 2301.56 1204.66 1871.02 931.145C1461.15 670.75 404.812 1029.45 257.992 1059.49C111.172 1089.53 33.0277 927.243 -178.472 926.794Z" fill="white" fill-opacity="0.2"/>
<path d="M-178.472 926.794C-341.807 926.447 -520.642 1241.7 -560.119 1292.98L-1088.63 2412.52L-771.684 3617.2C-290.924 3120.61 1608.22 2676.95 1914.41 2398.24C2329.08 2020.78 2301.56 1204.66 1871.02 931.145C1461.15 670.75 404.812 1029.45 257.992 1059.49C111.172 1089.53 33.0277 927.243 -178.472 926.794Z" fill="url(#paint22_linear_1211_27124)"/>
<path d="M-178.472 926.794C-341.807 926.447 -520.642 1241.7 -560.119 1292.98L-1088.63 2412.52L-771.684 3617.2C-290.924 3120.61 1608.22 2676.95 1914.41 2398.24C2329.08 2020.78 2301.56 1204.66 1871.02 931.145C1461.15 670.75 404.812 1029.45 257.992 1059.49C111.172 1089.53 33.0277 927.243 -178.472 926.794Z" fill="url(#paint23_linear_1211_27124)" fill-opacity="0.8"/>
<path d="M-178.472 926.794C-341.807 926.447 -520.642 1241.7 -560.119 1292.98L-1088.63 2412.52L-771.684 3617.2C-290.924 3120.61 1608.22 2676.95 1914.41 2398.24C2329.08 2020.78 2301.56 1204.66 1871.02 931.145C1461.15 670.75 404.812 1029.45 257.992 1059.49C111.172 1089.53 33.0277 927.243 -178.472 926.794Z" fill="url(#paint24_linear_1211_27124)"/>
<path d="M-178.472 926.794C-341.807 926.447 -520.642 1241.7 -560.119 1292.98L-1088.63 2412.52L-771.684 3617.2C-290.924 3120.61 1608.22 2676.95 1914.41 2398.24C2329.08 2020.78 2301.56 1204.66 1871.02 931.145C1461.15 670.75 404.812 1029.45 257.992 1059.49C111.172 1089.53 33.0277 927.243 -178.472 926.794Z" fill="url(#paint25_linear_1211_27124)" fill-opacity="0.3"/>
<path d="M-178.472 926.794C-341.807 926.447 -520.642 1241.7 -560.119 1292.98L-1088.63 2412.52L-771.684 3617.2C-290.924 3120.61 1608.22 2676.95 1914.41 2398.24C2329.08 2020.78 2301.56 1204.66 1871.02 931.145C1461.15 670.75 404.812 1029.45 257.992 1059.49C111.172 1089.53 33.0277 927.243 -178.472 926.794Z" fill="url(#paint26_linear_1211_27124)"/>
<path d="M-178.472 926.794C-341.807 926.447 -520.642 1241.7 -560.119 1292.98L-1088.63 2412.52L-771.684 3617.2C-290.924 3120.61 1608.22 2676.95 1914.41 2398.24C2329.08 2020.78 2301.56 1204.66 1871.02 931.145C1461.15 670.75 404.812 1029.45 257.992 1059.49C111.172 1089.53 33.0277 927.243 -178.472 926.794Z" fill="url(#paint27_linear_1211_27124)" fill-opacity="0.5"/>
<path d="M-178.472 926.794C-341.807 926.447 -520.642 1241.7 -560.119 1292.98L-1088.63 2412.52L-771.684 3617.2C-290.924 3120.61 1608.22 2676.95 1914.41 2398.24C2329.08 2020.78 2301.56 1204.66 1871.02 931.145C1461.15 670.75 404.812 1029.45 257.992 1059.49C111.172 1089.53 33.0277 927.243 -178.472 926.794Z" fill="url(#paint28_radial_1211_27124)" fill-opacity="0.5"/>
</g>
<g filter="url(#filter5_f_1211_27124)">
<rect x="1698" y="839" width="222" height="248" fill="#F4C7B8"/>
</g>
<defs>
<filter id="filter0_f_1211_27124" x="-1067.92" y="9047" width="4174.51" height="3076.28" filterUnits="userSpaceOnUse" color-interpolation-filters="sRGB">
<feFlood flood-opacity="0" result="BackgroundImageFix"/>
<feBlend mode="normal" in="SourceGraphic" in2="BackgroundImageFix" result="shape"/>
<feGaussianBlur stdDeviation="106.5" result="effect1_foregroundBlur_1211_27124"/>
</filter>
<filter id="filter1_f_1211_27124" x="-1374" y="2885.41" width="4175.3" height="3075.32" filterUnits="userSpaceOnUse" color-interpolation-filters="sRGB">
<feFlood flood-opacity="0" result="BackgroundImageFix"/>
<feBlend mode="normal" in="SourceGraphic" in2="BackgroundImageFix" result="shape"/>
<feGaussianBlur stdDeviation="106.5" result="effect1_foregroundBlur_1211_27124"/>
</filter>
<filter id="filter2_f_1211_27124" x="-1117.74" y="4915.1" width="3685.69" height="3361.65" filterUnits="userSpaceOnUse" color-interpolation-filters="sRGB">
<feFlood flood-opacity="0" result="BackgroundImageFix"/>
<feBlend mode="normal" in="SourceGraphic" in2="BackgroundImageFix" result="shape"/>
<feGaussianBlur stdDeviation="106.5" result="effect1_foregroundBlur_1211_27124"/>
</filter>
<filter id="filter3_f_1211_27124" x="-433.527" y="167.034" width="2802.5" height="2305.89" filterUnits="userSpaceOnUse" color-interpolation-filters="sRGB">
<feFlood flood-opacity="0" result="BackgroundImageFix"/>
<feBlend mode="normal" in="SourceGraphic" in2="BackgroundImageFix" result="shape"/>
<feGaussianBlur stdDeviation="100" result="effect1_foregroundBlur_1211_27124"/>
</filter>
<filter id="filter4_f_1211_27124" x="-1288.63" y="636.918" width="3698.86" height="3180.28" filterUnits="userSpaceOnUse" color-interpolation-filters="sRGB">
<feFlood flood-opacity="0" result="BackgroundImageFix"/>
<feBlend mode="normal" in="SourceGraphic" in2="BackgroundImageFix" result="shape"/>
<feGaussianBlur stdDeviation="100" result="effect1_foregroundBlur_1211_27124"/>
</filter>
<filter id="filter5_f_1211_27124" x="1611" y="752" width="396" height="422" filterUnits="userSpaceOnUse" color-interpolation-filters="sRGB">
<feFlood flood-opacity="0" result="BackgroundImageFix"/>
<feBlend mode="normal" in="SourceGraphic" in2="BackgroundImageFix" result="shape"/>
<feGaussianBlur stdDeviation="43.5" result="effect1_foregroundBlur_1211_27124"/>
</filter>
<linearGradient id="paint0_linear_1211_27124" x1="-796.207" y1="10618.9" x2="128.368" y2="10587.2" gradientUnits="userSpaceOnUse">
<stop stop-color="#FFEADE"/>
<stop offset="1" stop-color="#D65007" stop-opacity="0"/>
</linearGradient>
<linearGradient id="paint1_linear_1211_27124" x1="-181.873" y1="11194.5" x2="374.804" y2="10177.7" gradientUnits="userSpaceOnUse">
<stop stop-color="#F9914E"/>
<stop offset="1" stop-color="#F67C2D" stop-opacity="0"/>
</linearGradient>
<linearGradient id="paint2_linear_1211_27124" x1="-345.331" y1="10890.3" x2="602.669" y2="10322.3" gradientUnits="userSpaceOnUse">
<stop stop-color="#CDE3F5"/>
<stop offset="1" stop-color="#CDE3F5" stop-opacity="0"/>
</linearGradient>
<linearGradient id="paint3_linear_1211_27124" x1="1034" y1="11898.5" x2="70.344" y2="11138.9" gradientUnits="userSpaceOnUse">
<stop stop-color="#ED5F5C"/>
<stop offset="1" stop-color="#ED5F5C" stop-opacity="0"/>
</linearGradient>
<linearGradient id="paint4_linear_1211_27124" x1="134.5" y1="9425" x2="652" y2="10342" gradientUnits="userSpaceOnUse">
<stop offset="0.121877" stop-color="white"/>
<stop offset="1" stop-color="white" stop-opacity="0"/>
</linearGradient>
<radialGradient id="paint5_radial_1211_27124" cx="0" cy="0" r="1" gradientUnits="userSpaceOnUse" gradientTransform="translate(1339.09 11152) rotate(-112.291) scale(512.974 806.838)">
<stop stop-color="white"/>
<stop offset="1" stop-color="white" stop-opacity="0"/>
</radialGradient>
<linearGradient id="paint6_linear_1211_27124" x1="2528.8" y1="4458.93" x2="1604.28" y2="4425.64" gradientUnits="userSpaceOnUse">
<stop stop-color="#FFEADE"/>
<stop offset="1" stop-color="#D65007" stop-opacity="0"/>
</linearGradient>
<linearGradient id="paint7_linear_1211_27124" x1="1913.5" y1="5033.5" x2="1358.54" y2="4015.69" gradientUnits="userSpaceOnUse">
<stop stop-color="#F9914E"/>
<stop offset="1" stop-color="#F67C2D" stop-opacity="0"/>
</linearGradient>
<linearGradient id="paint8_linear_1211_27124" x1="26.4981" y1="4519" x2="657.562" y2="3845.14" gradientUnits="userSpaceOnUse">
<stop stop-color="#CBE5FA"/>
<stop offset="1" stop-color="#CDE3F5" stop-opacity="0"/>
</linearGradient>
<linearGradient id="paint9_linear_1211_27124" x1="1907.5" y1="5230.5" x2="1462" y2="4352.5" gradientUnits="userSpaceOnUse">
<stop stop-color="#CDE3F5"/>
<stop offset="1" stop-color="#CDE3F5" stop-opacity="0"/>
</linearGradient>
<linearGradient id="paint10_linear_1211_27124" x1="1191.14" y1="5823.59" x2="1321.17" y2="4834.91" gradientUnits="userSpaceOnUse">
<stop stop-color="#ED5F5C"/>
<stop offset="1" stop-color="#ED5F5C" stop-opacity="0"/>
</linearGradient>
<linearGradient id="paint11_linear_1211_27124" x1="279.567" y1="5528.08" x2="638.526" y2="4408.58" gradientUnits="userSpaceOnUse">
<stop stop-color="white"/>
<stop offset="1" stop-color="#F67C2D" stop-opacity="0"/>
</linearGradient>
<radialGradient id="paint12_radial_1211_27124" cx="0" cy="0" r="1" gradientUnits="userSpaceOnUse" gradientTransform="translate(392.604 4988.36) rotate(-67.612) scale(512.974 806.838)">
<stop stop-color="white"/>
<stop offset="1" stop-color="white" stop-opacity="0"/>
</radialGradient>
<linearGradient id="paint13_linear_1211_27124" x1="-1197.86" y1="5872.09" x2="598.275" y2="5675.45" gradientUnits="userSpaceOnUse">
<stop stop-color="white"/>
<stop offset="1" stop-color="white" stop-opacity="0"/>
</linearGradient>
<linearGradient id="paint14_linear_1211_27124" x1="316.723" y1="5271.69" x2="403.956" y2="6373.38" gradientUnits="userSpaceOnUse">
<stop stop-color="#CDE3F5"/>
<stop offset="1" stop-color="#CDE3F5" stop-opacity="0"/>
</linearGradient>
<linearGradient id="paint15_linear_1211_27124" x1="2011.78" y1="6270.14" x2="892.255" y2="6629.02" gradientUnits="userSpaceOnUse">
<stop stop-color="white"/>
<stop offset="1" stop-color="#F67C2D" stop-opacity="0"/>
</linearGradient>
<linearGradient id="paint16_linear_1211_27124" x1="478.533" y1="5330.58" x2="1172.69" y2="6398.44" gradientUnits="userSpaceOnUse">
<stop stop-color="white"/>
<stop offset="0.833033" stop-color="white" stop-opacity="0"/>
</linearGradient>
<linearGradient id="paint17_linear_1211_27124" x1="-291.211" y1="-234.298" x2="2092.29" y2="-101.035" gradientUnits="userSpaceOnUse">
<stop stop-color="#CDE3F5"/>
<stop offset="1" stop-color="#C1CFE4"/>
</linearGradient>
<linearGradient id="paint18_linear_1211_27124" x1="936.498" y1="-262.585" x2="933.414" y2="277.728" gradientUnits="userSpaceOnUse">
<stop stop-color="#5A6877"/>
<stop offset="1" stop-color="#5A6877" stop-opacity="0"/>
</linearGradient>
<linearGradient id="paint19_linear_1211_27124" x1="1776.4" y1="426.011" x2="951.405" y2="1080.5" gradientUnits="userSpaceOnUse">
<stop stop-color="#FFEADE"/>
<stop offset="1" stop-color="#D65007" stop-opacity="0"/>
</linearGradient>
<linearGradient id="paint20_linear_1211_27124" x1="21.8173" y1="1375.41" x2="742.371" y2="1758.1" gradientUnits="userSpaceOnUse">
<stop stop-color="#F9914E"/>
<stop offset="1" stop-color="#F67C2D" stop-opacity="0"/>
</linearGradient>
<linearGradient id="paint21_linear_1211_27124" x1="-266.403" y1="1730.15" x2="412.262" y2="1823.87" gradientUnits="userSpaceOnUse">
<stop stop-color="#CBE5FA"/>
<stop offset="1" stop-color="#CDE3F5" stop-opacity="0"/>
</linearGradient>
<linearGradient id="paint22_linear_1211_27124" x1="1517.67" y1="723.501" x2="970.175" y2="1469.22" gradientUnits="userSpaceOnUse">
<stop stop-color="#FFEADE"/>
<stop offset="1" stop-color="#D65007" stop-opacity="0"/>
</linearGradient>
<linearGradient id="paint23_linear_1211_27124" x1="120.638" y1="1798.48" x2="884.321" y2="2148.31" gradientUnits="userSpaceOnUse">
<stop stop-color="#F9914E"/>
<stop offset="1" stop-color="#F67C2D" stop-opacity="0"/>
</linearGradient>
<linearGradient id="paint24_linear_1211_27124" x1="-281.774" y1="2009.73" x2="550.652" y2="2212.26" gradientUnits="userSpaceOnUse">
<stop stop-color="#CBE5FA"/>
<stop offset="1" stop-color="#CDE3F5" stop-opacity="0"/>
</linearGradient>
<linearGradient id="paint25_linear_1211_27124" x1="642.199" y1="1081.2" x2="754.17" y2="1565.94" gradientUnits="userSpaceOnUse">
<stop stop-color="#CDE3F5"/>
<stop offset="1" stop-color="#CDE3F5" stop-opacity="0"/>
</linearGradient>
<linearGradient id="paint26_linear_1211_27124" x1="-219.664" y1="1133.02" x2="449.595" y2="1461.84" gradientUnits="userSpaceOnUse">
<stop stop-color="#ED5F5C"/>
<stop offset="1" stop-color="#ED5F5C" stop-opacity="0"/>
</linearGradient>
<linearGradient id="paint27_linear_1211_27124" x1="-716.318" y1="1824.15" x2="384.376" y2="2237.21" gradientUnits="userSpaceOnUse">
<stop stop-color="white"/>
<stop offset="1" stop-color="#F67C2D" stop-opacity="0"/>
</linearGradient>
<radialGradient id="paint28_radial_1211_27124" cx="0" cy="0" r="1" gradientUnits="userSpaceOnUse" gradientTransform="translate(-222.902 2070.36) rotate(15.9596) scale(512.974 806.838)">
<stop stop-color="white"/>
<stop offset="1" stop-color="white" stop-opacity="0"/>
</radialGradient>
</defs>
</svg>
