<svg width="375" height="6985" viewBox="0 0 375 6985" fill="none" xmlns="http://www.w3.org/2000/svg">
<g clip-path="url(#clip0_1216_42896)">
<rect width="375" height="6985" fill="#CDE3F5"/>
<g filter="url(#filter0_f_1216_42896)">
<path d="M-142.535 7003.07C-164.171 7029.99 -83.6104 7080.24 -71.8756 7090.13L228.258 7251L667.911 7278C567.241 7166 670.944 6823.5 619.235 6754.64C549.203 6661.39 276.022 6612.22 128.953 6665.24C-11.0598 6715.73 71.53 6748.57 22.3393 6758.81C-82.5587 6780.64 -114.518 6968.21 -142.535 7003.07Z" fill="#2E88FC"/>
<path d="M-142.535 7003.07C-164.171 7029.99 -83.6104 7080.24 -71.8756 7090.13L228.258 7251L667.911 7278C567.241 7166 670.944 6823.5 619.235 6754.64C549.203 6661.39 276.022 6612.22 128.953 6665.24C-11.0598 6715.73 71.53 6748.57 22.3393 6758.81C-82.5587 6780.64 -114.518 6968.21 -142.535 7003.07Z" fill="url(#paint0_linear_1216_42896)"/>
<path d="M-142.535 7003.07C-164.171 7029.99 -83.6104 7080.24 -71.8756 7090.13L228.258 7251L667.911 7278C567.241 7166 670.944 6823.5 619.235 6754.64C549.203 6661.39 276.022 6612.22 128.953 6665.24C-11.0598 6715.73 71.53 6748.57 22.3393 6758.81C-82.5587 6780.64 -114.518 6968.21 -142.535 7003.07Z" fill="url(#paint1_linear_1216_42896)" fill-opacity="0.25"/>
<path d="M-142.535 7003.07C-164.171 7029.99 -83.6104 7080.24 -71.8756 7090.13L228.258 7251L667.911 7278C567.241 7166 670.944 6823.5 619.235 6754.64C549.203 6661.39 276.022 6612.22 128.953 6665.24C-11.0598 6715.73 71.53 6748.57 22.3393 6758.81C-82.5587 6780.64 -114.518 6968.21 -142.535 7003.07Z" fill="url(#paint2_linear_1216_42896)"/>
<path d="M-142.535 7003.07C-164.171 7029.99 -83.6104 7080.24 -71.8756 7090.13L228.258 7251L667.911 7278C567.241 7166 670.944 6823.5 619.235 6754.64C549.203 6661.39 276.022 6612.22 128.953 6665.24C-11.0598 6715.73 71.53 6748.57 22.3393 6758.81C-82.5587 6780.64 -114.518 6968.21 -142.535 7003.07Z" fill="url(#paint3_linear_1216_42896)" fill-opacity="0.75"/>
<path d="M-142.535 7003.07C-164.171 7029.99 -83.6104 7080.24 -71.8756 7090.13L228.258 7251L667.911 7278C567.241 7166 670.944 6823.5 619.235 6754.64C549.203 6661.39 276.022 6612.22 128.953 6665.24C-11.0598 6715.73 71.53 6748.57 22.3393 6758.81C-82.5587 6780.64 -114.518 6968.21 -142.535 7003.07Z" fill="url(#paint4_linear_1216_42896)" fill-opacity="0.8"/>
<path d="M-142.535 7003.07C-164.171 7029.99 -83.6104 7080.24 -71.8756 7090.13L228.258 7251L667.911 7278C567.241 7166 670.944 6823.5 619.235 6754.64C549.203 6661.39 276.022 6612.22 128.953 6665.24C-11.0598 6715.73 71.53 6748.57 22.3393 6758.81C-82.5587 6780.64 -114.518 6968.21 -142.535 7003.07Z" fill="url(#paint5_radial_1216_42896)" fill-opacity="0.5"/>
</g>
<g filter="url(#filter1_f_1216_42896)">
<path d="M121.509 4620.68C157.496 4597.78 285.346 4607.54 308.436 4607.67L738.918 4657.23L1006.48 4834.53C761.114 4847.02 217.229 5063.88 71.4856 5075.98C-125.897 5092.37 -348.513 4998.47 -330.046 4908.02C-312.465 4821.92 -213.88 4841.29 -220.746 4814.8C-235.388 4758.32 74.9104 4650.34 121.509 4620.68Z" fill="#2E88FC"/>
<path d="M121.509 4620.68C157.496 4597.78 285.346 4607.54 308.436 4607.67L738.918 4657.23L1006.48 4834.53C761.114 4847.02 217.229 5063.88 71.4856 5075.98C-125.897 5092.37 -348.513 4998.47 -330.046 4908.02C-312.465 4821.92 -213.88 4841.29 -220.746 4814.8C-235.388 4758.32 74.9104 4650.34 121.509 4620.68Z" fill="url(#paint6_linear_1216_42896)"/>
<path d="M121.509 4620.68C157.496 4597.78 285.346 4607.54 308.436 4607.67L738.918 4657.23L1006.48 4834.53C761.114 4847.02 217.229 5063.88 71.4856 5075.98C-125.897 5092.37 -348.513 4998.47 -330.046 4908.02C-312.465 4821.92 -213.88 4841.29 -220.746 4814.8C-235.388 4758.32 74.9104 4650.34 121.509 4620.68Z" fill="url(#paint7_linear_1216_42896)" fill-opacity="0.25"/>
<path d="M121.509 4620.68C157.496 4597.78 285.346 4607.54 308.436 4607.67L738.918 4657.23L1006.48 4834.53C761.114 4847.02 217.229 5063.88 71.4856 5075.98C-125.897 5092.37 -348.513 4998.47 -330.046 4908.02C-312.465 4821.92 -213.88 4841.29 -220.746 4814.8C-235.388 4758.32 74.9104 4650.34 121.509 4620.68Z" fill="url(#paint8_linear_1216_42896)"/>
<path d="M121.509 4620.68C157.496 4597.78 285.346 4607.54 308.436 4607.67L738.918 4657.23L1006.48 4834.53C761.114 4847.02 217.229 5063.88 71.4856 5075.98C-125.897 5092.37 -348.513 4998.47 -330.046 4908.02C-312.465 4821.92 -213.88 4841.29 -220.746 4814.8C-235.388 4758.32 74.9104 4650.34 121.509 4620.68Z" fill="url(#paint9_linear_1216_42896)" fill-opacity="0.75"/>
<path d="M121.509 4620.68C157.496 4597.78 285.346 4607.54 308.436 4607.67L738.918 4657.23L1006.48 4834.53C761.114 4847.02 217.229 5063.88 71.4856 5075.98C-125.897 5092.37 -348.513 4998.47 -330.046 4908.02C-312.465 4821.92 -213.88 4841.29 -220.746 4814.8C-235.388 4758.32 74.9104 4650.34 121.509 4620.68Z" fill="url(#paint10_radial_1216_42896)" fill-opacity="0.5"/>
</g>
<g filter="url(#filter2_f_1216_42896)">
<path d="M510.658 2655.76C487.196 2680.7 365.112 2685.26 343.755 2687.58L-74.4186 2687.52L-396.601 2552.35C-175.572 2514.8 233.953 2257.07 363.252 2230.45C538.363 2194.4 783.639 2257.42 805.051 2342.8C825.436 2424.1 726.26 2416.68 743.855 2440.39C781.375 2490.95 541.038 2623.46 510.658 2655.76Z" fill="#2E88FC"/>
<path d="M510.658 2655.76C487.196 2680.7 365.112 2685.26 343.755 2687.58L-74.4186 2687.52L-396.601 2552.35C-175.572 2514.8 233.953 2257.07 363.252 2230.45C538.363 2194.4 783.639 2257.42 805.051 2342.8C825.436 2424.1 726.26 2416.68 743.855 2440.39C781.375 2490.95 541.038 2623.46 510.658 2655.76Z" fill="url(#paint11_linear_1216_42896)"/>
<path d="M510.658 2655.76C487.196 2680.7 365.112 2685.26 343.755 2687.58L-74.4186 2687.52L-396.601 2552.35C-175.572 2514.8 233.953 2257.07 363.252 2230.45C538.363 2194.4 783.639 2257.42 805.051 2342.8C825.436 2424.1 726.26 2416.68 743.855 2440.39C781.375 2490.95 541.038 2623.46 510.658 2655.76Z" fill="url(#paint12_linear_1216_42896)" fill-opacity="0.5"/>
<path d="M510.658 2655.76C487.196 2680.7 365.112 2685.26 343.755 2687.58L-74.4186 2687.52L-396.601 2552.35C-175.572 2514.8 233.953 2257.07 363.252 2230.45C538.363 2194.4 783.639 2257.42 805.051 2342.8C825.436 2424.1 726.26 2416.68 743.855 2440.39C781.375 2490.95 541.038 2623.46 510.658 2655.76Z" fill="url(#paint13_linear_1216_42896)"/>
<path d="M510.658 2655.76C487.196 2680.7 365.112 2685.26 343.755 2687.58L-74.4186 2687.52L-396.601 2552.35C-175.572 2514.8 233.953 2257.07 363.252 2230.45C538.363 2194.4 783.639 2257.42 805.051 2342.8C825.436 2424.1 726.26 2416.68 743.855 2440.39C781.375 2490.95 541.038 2623.46 510.658 2655.76Z" fill="url(#paint14_linear_1216_42896)" fill-opacity="0.8"/>
<path d="M510.658 2655.76C487.196 2680.7 365.112 2685.26 343.755 2687.58L-74.4186 2687.52L-396.601 2552.35C-175.572 2514.8 233.953 2257.07 363.252 2230.45C538.363 2194.4 783.639 2257.42 805.051 2342.8C825.436 2424.1 726.26 2416.68 743.855 2440.39C781.375 2490.95 541.038 2623.46 510.658 2655.76Z" fill="url(#paint15_linear_1216_42896)"/>
<path d="M510.658 2655.76C487.196 2680.7 365.112 2685.26 343.755 2687.58L-74.4186 2687.52L-396.601 2552.35C-175.572 2514.8 233.953 2257.07 363.252 2230.45C538.363 2194.4 783.639 2257.42 805.051 2342.8C825.436 2424.1 726.26 2416.68 743.855 2440.39C781.375 2490.95 541.038 2623.46 510.658 2655.76Z" fill="url(#paint16_linear_1216_42896)" fill-opacity="0.5"/>
<path d="M510.658 2655.76C487.196 2680.7 365.112 2685.26 343.755 2687.58L-74.4186 2687.52L-396.601 2552.35C-175.572 2514.8 233.953 2257.07 363.252 2230.45C538.363 2194.4 783.639 2257.42 805.051 2342.8C825.436 2424.1 726.26 2416.68 743.855 2440.39C781.375 2490.95 541.038 2623.46 510.658 2655.76Z" fill="url(#paint17_radial_1216_42896)" fill-opacity="0.5"/>
</g>
<g filter="url(#filter3_f_1216_42896)">
<path d="M322.165 426.296C360.486 426.13 311.974 396.378 338.818 393.68C365.661 390.981 336.667 366.109 420.389 361.055C466.611 358.264 505.217 359.48 508.256 375.86C547.287 407.396 515.507 463.336 460.223 486.347C403.001 510.164 187.322 489.06 94.9161 530.377L92.6107 531.433C93.3704 531.076 94.1389 530.724 94.9161 530.377L322.165 426.296Z" fill="#ED5F5C"/>
<path d="M322.165 426.296C360.486 426.13 311.974 396.378 338.818 393.68C365.661 390.981 336.667 366.109 420.389 361.055C466.611 358.264 505.217 359.48 508.256 375.86C547.287 407.396 515.507 463.336 460.223 486.347C403.001 510.164 187.322 489.06 94.9161 530.377L92.6107 531.433C93.3704 531.076 94.1389 530.724 94.9161 530.377L322.165 426.296Z" fill="url(#paint18_linear_1216_42896)"/>
<path d="M322.165 426.296C360.486 426.13 311.974 396.378 338.818 393.68C365.661 390.981 336.667 366.109 420.389 361.055C466.611 358.264 505.217 359.48 508.256 375.86C547.287 407.396 515.507 463.336 460.223 486.347C403.001 510.164 187.322 489.06 94.9161 530.377L92.6107 531.433C93.3704 531.076 94.1389 530.724 94.9161 530.377L322.165 426.296Z" fill="url(#paint19_linear_1216_42896)"/>
<path d="M322.165 426.296C360.486 426.13 311.974 396.378 338.818 393.68C365.661 390.981 336.667 366.109 420.389 361.055C466.611 358.264 505.217 359.48 508.256 375.86C547.287 407.396 515.507 463.336 460.223 486.347C403.001 510.164 187.322 489.06 94.9161 530.377L92.6107 531.433C93.3704 531.076 94.1389 530.724 94.9161 530.377L322.165 426.296Z" fill="url(#paint20_linear_1216_42896)"/>
</g>
<g filter="url(#filter4_f_1216_42896)">
<path d="M97.2513 436.683C64.5946 435.886 25.8916 466.538 17.5192 471.475L-98.6141 580.824L-46.4882 702.618C54.2799 655.265 438.17 619.812 501.996 593.404C588.437 557.64 590.555 476.002 507.021 446.676C427.494 418.758 238.474 459.427 208.836 461.743C179.198 464.058 139.538 437.714 97.2513 436.683Z" fill="#2E88FC"/>
<path d="M97.2513 436.683C64.5946 435.886 25.8916 466.538 17.5192 471.475L-98.6141 580.824L-46.4882 702.618C54.2799 655.265 438.17 619.812 501.996 593.404C588.437 557.64 590.555 476.002 507.021 446.676C427.494 418.758 238.474 459.427 208.836 461.743C179.198 464.058 139.538 437.714 97.2513 436.683Z" fill="white" fill-opacity="0.2"/>
<path d="M97.2513 436.683C64.5946 435.886 25.8916 466.538 17.5192 471.475L-98.6141 580.824L-46.4882 702.618C54.2799 655.265 438.17 619.812 501.996 593.404C588.437 557.64 590.555 476.002 507.021 446.676C427.494 418.758 238.474 459.427 208.836 461.743C179.198 464.058 139.538 437.714 97.2513 436.683Z" fill="url(#paint21_linear_1216_42896)"/>
<path d="M97.2513 436.683C64.5946 435.886 25.8916 466.538 17.5192 471.475L-98.6141 580.824L-46.4882 702.618C54.2799 655.265 438.17 619.812 501.996 593.404C588.437 557.64 590.555 476.002 507.021 446.676C427.494 418.758 238.474 459.427 208.836 461.743C179.198 464.058 139.538 437.714 97.2513 436.683Z" fill="url(#paint22_linear_1216_42896)" fill-opacity="0.8"/>
<path d="M97.2513 436.683C64.5946 435.886 25.8916 466.538 17.5192 471.475L-98.6141 580.824L-46.4882 702.618C54.2799 655.265 438.17 619.812 501.996 593.404C588.437 557.64 590.555 476.002 507.021 446.676C427.494 418.758 238.474 459.427 208.836 461.743C179.198 464.058 139.538 437.714 97.2513 436.683Z" fill="url(#paint23_linear_1216_42896)"/>
<path d="M97.2513 436.683C64.5946 435.886 25.8916 466.538 17.5192 471.475L-98.6141 580.824L-46.4882 702.618C54.2799 655.265 438.17 619.812 501.996 593.404C588.437 557.64 590.555 476.002 507.021 446.676C427.494 418.758 238.474 459.427 208.836 461.743C179.198 464.058 139.538 437.714 97.2513 436.683Z" fill="url(#paint24_linear_1216_42896)" fill-opacity="0.3"/>
<path d="M97.2513 436.683C64.5946 435.886 25.8916 466.538 17.5192 471.475L-98.6141 580.824L-46.4882 702.618C54.2799 655.265 438.17 619.812 501.996 593.404C588.437 557.64 590.555 476.002 507.021 446.676C427.494 418.758 238.474 459.427 208.836 461.743C179.198 464.058 139.538 437.714 97.2513 436.683Z" fill="url(#paint25_linear_1216_42896)"/>
<path d="M97.2513 436.683C64.5946 435.886 25.8916 466.538 17.5192 471.475L-98.6141 580.824L-46.4882 702.618C54.2799 655.265 438.17 619.812 501.996 593.404C588.437 557.64 590.555 476.002 507.021 446.676C427.494 418.758 238.474 459.427 208.836 461.743C179.198 464.058 139.538 437.714 97.2513 436.683Z" fill="url(#paint26_linear_1216_42896)" fill-opacity="0.5"/>
<path d="M97.2513 436.683C64.5946 435.886 25.8916 466.538 17.5192 471.475L-98.6141 580.824L-46.4882 702.618C54.2799 655.265 438.17 619.812 501.996 593.404C588.437 557.64 590.555 476.002 507.021 446.676C427.494 418.758 238.474 459.427 208.836 461.743C179.198 464.058 139.538 437.714 97.2513 436.683Z" fill="url(#paint27_radial_1216_42896)" fill-opacity="0.5"/>
</g>
<g filter="url(#filter5_f_1216_42896)">
<path d="M102.292 608.376C52.1854 607.154 -7.19885 654.184 -20.045 661.76L-198.235 829.539L-118.255 1016.42C36.3589 943.758 625.382 889.361 723.314 848.842C855.946 793.967 859.194 668.705 731.024 623.71C609.002 580.873 318.979 643.274 273.503 646.827C228.028 650.379 167.175 609.958 102.292 608.376Z" fill="#2E88FC"/>
<path d="M102.292 608.376C52.1854 607.154 -7.19885 654.184 -20.045 661.76L-198.235 829.539L-118.255 1016.42C36.3589 943.758 625.382 889.361 723.314 848.842C855.946 793.967 859.194 668.705 731.024 623.71C609.002 580.873 318.979 643.274 273.503 646.827C228.028 650.379 167.175 609.958 102.292 608.376Z" fill="white" fill-opacity="0.2"/>
<path d="M102.292 608.376C52.1854 607.154 -7.19885 654.184 -20.045 661.76L-198.235 829.539L-118.255 1016.42C36.3589 943.758 625.382 889.361 723.314 848.842C855.946 793.967 859.194 668.705 731.024 623.71C609.002 580.873 318.979 643.274 273.503 646.827C228.028 650.379 167.175 609.958 102.292 608.376Z" fill="url(#paint28_linear_1216_42896)"/>
<path d="M102.292 608.376C52.1854 607.154 -7.19885 654.184 -20.045 661.76L-198.235 829.539L-118.255 1016.42C36.3589 943.758 625.382 889.361 723.314 848.842C855.946 793.967 859.194 668.705 731.024 623.71C609.002 580.873 318.979 643.274 273.503 646.827C228.028 650.379 167.175 609.958 102.292 608.376Z" fill="url(#paint29_linear_1216_42896)" fill-opacity="0.8"/>
<path d="M102.292 608.376C52.1854 607.154 -7.19885 654.184 -20.045 661.76L-198.235 829.539L-118.255 1016.42C36.3589 943.758 625.382 889.361 723.314 848.842C855.946 793.967 859.194 668.705 731.024 623.71C609.002 580.873 318.979 643.274 273.503 646.827C228.028 650.379 167.175 609.958 102.292 608.376Z" fill="url(#paint30_linear_1216_42896)"/>
<path d="M102.292 608.376C52.1854 607.154 -7.19885 654.184 -20.045 661.76L-198.235 829.539L-118.255 1016.42C36.3589 943.758 625.382 889.361 723.314 848.842C855.946 793.967 859.194 668.705 731.024 623.71C609.002 580.873 318.979 643.274 273.503 646.827C228.028 650.379 167.175 609.958 102.292 608.376Z" fill="url(#paint31_linear_1216_42896)" fill-opacity="0.3"/>
<path d="M102.292 608.376C52.1854 607.154 -7.19885 654.184 -20.045 661.76L-198.235 829.539L-118.255 1016.42C36.3589 943.758 625.382 889.361 723.314 848.842C855.946 793.967 859.194 668.705 731.024 623.71C609.002 580.873 318.979 643.274 273.503 646.827C228.028 650.379 167.175 609.958 102.292 608.376Z" fill="url(#paint32_linear_1216_42896)"/>
<path d="M102.292 608.376C52.1854 607.154 -7.19885 654.184 -20.045 661.76L-198.235 829.539L-118.255 1016.42C36.3589 943.758 625.382 889.361 723.314 848.842C855.946 793.967 859.194 668.705 731.024 623.71C609.002 580.873 318.979 643.274 273.503 646.827C228.028 650.379 167.175 609.958 102.292 608.376Z" fill="url(#paint33_linear_1216_42896)" fill-opacity="0.5"/>
<path d="M102.292 608.376C52.1854 607.154 -7.19885 654.184 -20.045 661.76L-198.235 829.539L-118.255 1016.42C36.3589 943.758 625.382 889.361 723.314 848.842C855.946 793.967 859.194 668.705 731.024 623.71C609.002 580.873 318.979 643.274 273.503 646.827C228.028 650.379 167.175 609.958 102.292 608.376Z" fill="url(#paint34_radial_1216_42896)" fill-opacity="0.5"/>
</g>
<g filter="url(#filter6_f_1216_42896)">
<path d="M625.146 3086.9C587.72 3070.22 482.34 3088.14 462.815 3090L113.054 3164.51L-59.9884 3334.94C151.702 3327 678.211 3469.67 805.369 3468.92C977.582 3467.9 1137.78 3371.52 1094.76 3296.27C1053.79 3224.64 749.716 3182.09 709.881 3170.57C670.046 3159.05 673.608 3108.51 625.146 3086.9Z" fill="#2E88FC"/>
<path d="M625.146 3086.9C587.72 3070.22 482.34 3088.14 462.815 3090L113.054 3164.51L-59.9884 3334.94C151.702 3327 678.211 3469.67 805.369 3468.92C977.582 3467.9 1137.78 3371.52 1094.76 3296.27C1053.79 3224.64 749.716 3182.09 709.881 3170.57C670.046 3159.05 673.608 3108.51 625.146 3086.9Z" fill="white" fill-opacity="0.2"/>
<path d="M625.146 3086.9C587.72 3070.22 482.34 3088.14 462.815 3090L113.054 3164.51L-59.9884 3334.94C151.702 3327 678.211 3469.67 805.369 3468.92C977.582 3467.9 1137.78 3371.52 1094.76 3296.27C1053.79 3224.64 749.716 3182.09 709.881 3170.57C670.046 3159.05 673.608 3108.51 625.146 3086.9Z" fill="url(#paint35_linear_1216_42896)"/>
<path d="M625.146 3086.9C587.72 3070.22 482.34 3088.14 462.815 3090L113.054 3164.51L-59.9884 3334.94C151.702 3327 678.211 3469.67 805.369 3468.92C977.582 3467.9 1137.78 3371.52 1094.76 3296.27C1053.79 3224.64 749.716 3182.09 709.881 3170.57C670.046 3159.05 673.608 3108.51 625.146 3086.9Z" fill="url(#paint36_linear_1216_42896)" fill-opacity="0.8"/>
<path d="M625.146 3086.9C587.72 3070.22 482.34 3088.14 462.815 3090L113.054 3164.51L-59.9884 3334.94C151.702 3327 678.211 3469.67 805.369 3468.92C977.582 3467.9 1137.78 3371.52 1094.76 3296.27C1053.79 3224.64 749.716 3182.09 709.881 3170.57C670.046 3159.05 673.608 3108.51 625.146 3086.9Z" fill="url(#paint37_linear_1216_42896)"/>
<path d="M625.146 3086.9C587.72 3070.22 482.34 3088.14 462.815 3090L113.054 3164.51L-59.9884 3334.94C151.702 3327 678.211 3469.67 805.369 3468.92C977.582 3467.9 1137.78 3371.52 1094.76 3296.27C1053.79 3224.64 749.716 3182.09 709.881 3170.57C670.046 3159.05 673.608 3108.51 625.146 3086.9Z" fill="url(#paint38_linear_1216_42896)" fill-opacity="0.3"/>
<path d="M625.146 3086.9C587.72 3070.22 482.34 3088.14 462.815 3090L113.054 3164.51L-59.9884 3334.94C151.702 3327 678.211 3469.67 805.369 3468.92C977.582 3467.9 1137.78 3371.52 1094.76 3296.27C1053.79 3224.64 749.716 3182.09 709.881 3170.57C670.046 3159.05 673.608 3108.51 625.146 3086.9Z" fill="url(#paint39_linear_1216_42896)"/>
<path d="M625.146 3086.9C587.72 3070.22 482.34 3088.14 462.815 3090L113.054 3164.51L-59.9884 3334.94C151.702 3327 678.211 3469.67 805.369 3468.92C977.582 3467.9 1137.78 3371.52 1094.76 3296.27C1053.79 3224.64 749.716 3182.09 709.881 3170.57C670.046 3159.05 673.608 3108.51 625.146 3086.9Z" fill="url(#paint40_linear_1216_42896)" fill-opacity="0.5"/>
<path d="M625.146 3086.9C587.72 3070.22 482.34 3088.14 462.815 3090L113.054 3164.51L-59.9884 3334.94C151.702 3327 678.211 3469.67 805.369 3468.92C977.582 3467.9 1137.78 3371.52 1094.76 3296.27C1053.79 3224.64 749.716 3182.09 709.881 3170.57C670.046 3159.05 673.608 3108.51 625.146 3086.9Z" fill="url(#paint41_radial_1216_42896)" fill-opacity="0.5"/>
</g>
</g>
<defs>
<filter id="filter0_f_1216_42896" x="-359.206" y="6430.46" width="1240.12" height="1060.54" filterUnits="userSpaceOnUse" color-interpolation-filters="sRGB">
<feFlood flood-opacity="0" result="BackgroundImageFix"/>
<feBlend mode="normal" in="SourceGraphic" in2="BackgroundImageFix" result="shape"/>
<feGaussianBlur stdDeviation="106.5" result="effect1_foregroundBlur_1216_42896"/>
</filter>
<filter id="filter1_f_1216_42896" x="-431.122" y="4505.5" width="1537.6" height="672.365" filterUnits="userSpaceOnUse" color-interpolation-filters="sRGB">
<feFlood flood-opacity="0" result="BackgroundImageFix"/>
<feBlend mode="normal" in="SourceGraphic" in2="BackgroundImageFix" result="shape"/>
<feGaussianBlur stdDeviation="50" result="effect1_foregroundBlur_1216_42896"/>
</filter>
<filter id="filter2_f_1216_42896" x="-609.602" y="2007.09" width="1630.43" height="893.491" filterUnits="userSpaceOnUse" color-interpolation-filters="sRGB">
<feFlood flood-opacity="0" result="BackgroundImageFix"/>
<feBlend mode="normal" in="SourceGraphic" in2="BackgroundImageFix" result="shape"/>
<feGaussianBlur stdDeviation="106.5" result="effect1_foregroundBlur_1216_42896"/>
</filter>
<filter id="filter3_f_1216_42896" x="-107.39" y="159.887" width="832.94" height="571.546" filterUnits="userSpaceOnUse" color-interpolation-filters="sRGB">
<feFlood flood-opacity="0" result="BackgroundImageFix"/>
<feBlend mode="normal" in="SourceGraphic" in2="BackgroundImageFix" result="shape"/>
<feGaussianBlur stdDeviation="100" result="effect1_foregroundBlur_1216_42896"/>
</filter>
<filter id="filter4_f_1216_42896" x="-298.614" y="236.667" width="1066.89" height="665.951" filterUnits="userSpaceOnUse" color-interpolation-filters="sRGB">
<feFlood flood-opacity="0" result="BackgroundImageFix"/>
<feBlend mode="normal" in="SourceGraphic" in2="BackgroundImageFix" result="shape"/>
<feGaussianBlur stdDeviation="100" result="effect1_foregroundBlur_1216_42896"/>
</filter>
<filter id="filter5_f_1216_42896" x="-398.234" y="408.352" width="1423.25" height="808.063" filterUnits="userSpaceOnUse" color-interpolation-filters="sRGB">
<feFlood flood-opacity="0" result="BackgroundImageFix"/>
<feBlend mode="normal" in="SourceGraphic" in2="BackgroundImageFix" result="shape"/>
<feGaussianBlur stdDeviation="100" result="effect1_foregroundBlur_1216_42896"/>
</filter>
<filter id="filter6_f_1216_42896" x="-259.988" y="2879.85" width="1561.82" height="789.071" filterUnits="userSpaceOnUse" color-interpolation-filters="sRGB">
<feFlood flood-opacity="0" result="BackgroundImageFix"/>
<feBlend mode="normal" in="SourceGraphic" in2="BackgroundImageFix" result="shape"/>
<feGaussianBlur stdDeviation="100" result="effect1_foregroundBlur_1216_42896"/>
</filter>
<linearGradient id="paint0_linear_1216_42896" x1="13.8116" y1="6709.87" x2="68.8354" y2="6886.41" gradientUnits="userSpaceOnUse">
<stop stop-color="#FFEADE"/>
<stop offset="1" stop-color="#D65007" stop-opacity="0"/>
</linearGradient>
<linearGradient id="paint1_linear_1216_42896" x1="-54.2242" y1="6855.49" x2="357.271" y2="6836.76" gradientUnits="userSpaceOnUse">
<stop stop-color="#F9914E"/>
<stop offset="1" stop-color="#F67C2D" stop-opacity="0"/>
</linearGradient>
<linearGradient id="paint2_linear_1216_42896" x1="10.4061" y1="6803.33" x2="211.237" y2="7026.86" gradientUnits="userSpaceOnUse">
<stop stop-color="#CDE3F5"/>
<stop offset="1" stop-color="#CDE3F5" stop-opacity="0"/>
</linearGradient>
<linearGradient id="paint3_linear_1216_42896" x1="-54.8339" y1="7105.03" x2="-38.9772" y2="6885.96" gradientUnits="userSpaceOnUse">
<stop stop-color="#ED5F5C"/>
<stop offset="1" stop-color="#ED5F5C" stop-opacity="0"/>
</linearGradient>
<linearGradient id="paint4_linear_1216_42896" x1="546.973" y1="6747" x2="488.039" y2="6946.81" gradientUnits="userSpaceOnUse">
<stop offset="0.121877" stop-color="white"/>
<stop offset="1" stop-color="white" stop-opacity="0"/>
</linearGradient>
<radialGradient id="paint5_radial_1216_42896" cx="0" cy="0" r="1" gradientUnits="userSpaceOnUse" gradientTransform="translate(229.317 7085.66) rotate(-32.8647) scale(132.832 196.8)">
<stop stop-color="white"/>
<stop offset="1" stop-color="white" stop-opacity="0"/>
</radialGradient>
<linearGradient id="paint6_linear_1216_42896" x1="-310.171" y1="4835.66" x2="18.5869" y2="4858.24" gradientUnits="userSpaceOnUse">
<stop stop-color="#FFEADE"/>
<stop offset="1" stop-color="#D65007" stop-opacity="0"/>
</linearGradient>
<linearGradient id="paint7_linear_1216_42896" x1="-90.9551" y1="4733.06" x2="-31.0265" y2="4952.23" gradientUnits="userSpaceOnUse">
<stop stop-color="#F9914E"/>
<stop offset="1" stop-color="#F67C2D" stop-opacity="0"/>
</linearGradient>
<linearGradient id="paint8_linear_1216_42896" x1="-97.4235" y1="4771.93" x2="438.413" y2="5109.67" gradientUnits="userSpaceOnUse">
<stop stop-color="#CDE3F5"/>
<stop offset="1" stop-color="#CDE3F5" stop-opacity="0"/>
</linearGradient>
<linearGradient id="paint9_linear_1216_42896" x1="431.228" y1="4586.31" x2="393.352" y2="4780.39" gradientUnits="userSpaceOnUse">
<stop stop-color="#ED5F5C"/>
<stop offset="1" stop-color="#ED5F5C" stop-opacity="0"/>
</linearGradient>
<radialGradient id="paint10_radial_1216_42896" cx="0" cy="0" r="1" gradientUnits="userSpaceOnUse" gradientTransform="translate(451.78 4740.65) rotate(129.378) scale(109.441 240.522)">
<stop stop-color="white"/>
<stop offset="1" stop-color="white" stop-opacity="0"/>
</radialGradient>
<linearGradient id="paint11_linear_1216_42896" x1="817.482" y1="2411.67" x2="541.005" y2="2519.24" gradientUnits="userSpaceOnUse">
<stop stop-color="#FFEADE"/>
<stop offset="1" stop-color="#D65007" stop-opacity="0"/>
</linearGradient>
<linearGradient id="paint12_linear_1216_42896" x1="658.876" y1="2529.56" x2="561.721" y2="2310.94" gradientUnits="userSpaceOnUse">
<stop stop-color="#F9914E"/>
<stop offset="1" stop-color="#F67C2D" stop-opacity="0"/>
</linearGradient>
<linearGradient id="paint13_linear_1216_42896" x1="-1.29023" y1="2516.94" x2="46.7255" y2="2350.85" gradientUnits="userSpaceOnUse">
<stop stop-color="#CBE5FA"/>
<stop offset="1" stop-color="#CDE3F5" stop-opacity="0"/>
</linearGradient>
<linearGradient id="paint14_linear_1216_42896" x1="671.937" y1="2562.16" x2="594.75" y2="2377.75" gradientUnits="userSpaceOnUse">
<stop stop-color="#CDE3F5"/>
<stop offset="1" stop-color="#CDE3F5" stop-opacity="0"/>
</linearGradient>
<linearGradient id="paint15_linear_1216_42896" x1="481.494" y1="2686.95" x2="473.284" y2="2518.31" gradientUnits="userSpaceOnUse">
<stop stop-color="#ED5F5C"/>
<stop offset="1" stop-color="#ED5F5C" stop-opacity="0"/>
</linearGradient>
<linearGradient id="paint16_linear_1216_42896" x1="158.995" y1="2673.13" x2="167.187" y2="2474.45" gradientUnits="userSpaceOnUse">
<stop stop-color="white"/>
<stop offset="1" stop-color="#F67C2D" stop-opacity="0"/>
</linearGradient>
<radialGradient id="paint17_radial_1216_42896" cx="0" cy="0" r="1" gradientUnits="userSpaceOnUse" gradientTransform="translate(154.996 2580.12) rotate(-71.7944) scale(89.9007 262.358)">
<stop stop-color="white"/>
<stop offset="1" stop-color="white" stop-opacity="0"/>
</radialGradient>
<linearGradient id="paint18_linear_1216_42896" x1="454.808" y1="365.195" x2="386.044" y2="474.412" gradientUnits="userSpaceOnUse">
<stop stop-color="#FFEADE"/>
<stop offset="1" stop-color="#D65007" stop-opacity="0"/>
</linearGradient>
<linearGradient id="paint19_linear_1216_42896" x1="138.625" y1="450.649" x2="216.757" y2="533.729" gradientUnits="userSpaceOnUse">
<stop stop-color="#F9914E"/>
<stop offset="1" stop-color="#F67C2D" stop-opacity="0"/>
</linearGradient>
<linearGradient id="paint20_linear_1216_42896" x1="86.6865" y1="482.579" x2="202.466" y2="514.59" gradientUnits="userSpaceOnUse">
<stop stop-color="#CBE5FA"/>
<stop offset="1" stop-color="#CDE3F5" stop-opacity="0"/>
</linearGradient>
<linearGradient id="paint21_linear_1216_42896" x1="438.305" y1="424.29" x2="396.999" y2="526.56" gradientUnits="userSpaceOnUse">
<stop stop-color="#FFEADE"/>
<stop offset="1" stop-color="#D65007" stop-opacity="0"/>
</linearGradient>
<linearGradient id="paint22_linear_1216_42896" x1="148.921" y1="525.136" x2="240.474" y2="619.687" gradientUnits="userSpaceOnUse">
<stop stop-color="#F9914E"/>
<stop offset="1" stop-color="#F67C2D" stop-opacity="0"/>
</linearGradient>
<linearGradient id="paint23_linear_1216_42896" x1="66.483" y1="544.359" x2="199.369" y2="622.399" gradientUnits="userSpaceOnUse">
<stop stop-color="#CBE5FA"/>
<stop offset="1" stop-color="#CDE3F5" stop-opacity="0"/>
</linearGradient>
<linearGradient id="paint24_linear_1216_42896" x1="259.908" y1="455.931" x2="264.475" y2="506.077" gradientUnits="userSpaceOnUse">
<stop stop-color="#CDE3F5"/>
<stop offset="1" stop-color="#CDE3F5" stop-opacity="0"/>
</linearGradient>
<linearGradient id="paint25_linear_1216_42896" x1="87.089" y1="457.087" x2="164.004" y2="541.883" gradientUnits="userSpaceOnUse">
<stop stop-color="#ED5F5C"/>
<stop offset="1" stop-color="#ED5F5C" stop-opacity="0"/>
</linearGradient>
<linearGradient id="paint26_linear_1216_42896" x1="-18.6739" y1="523.797" x2="128.573" y2="650.413" gradientUnits="userSpaceOnUse">
<stop stop-color="white"/>
<stop offset="1" stop-color="#F67C2D" stop-opacity="0"/>
</linearGradient>
<radialGradient id="paint27_radial_1216_42896" cx="0" cy="0" r="1" gradientUnits="userSpaceOnUse" gradientTransform="translate(77.6886 550.688) rotate(9.55995) scale(98.6721 83.9505)">
<stop stop-color="white"/>
<stop offset="1" stop-color="white" stop-opacity="0"/>
</radialGradient>
<linearGradient id="paint28_linear_1216_42896" x1="625.59" y1="589.361" x2="562.212" y2="746.279" gradientUnits="userSpaceOnUse">
<stop stop-color="#FFEADE"/>
<stop offset="1" stop-color="#D65007" stop-opacity="0"/>
</linearGradient>
<linearGradient id="paint29_linear_1216_42896" x1="181.571" y1="744.095" x2="322.047" y2="889.169" gradientUnits="userSpaceOnUse">
<stop stop-color="#F9914E"/>
<stop offset="1" stop-color="#F67C2D" stop-opacity="0"/>
</linearGradient>
<linearGradient id="paint30_linear_1216_42896" x1="55.0827" y1="773.589" x2="258.978" y2="893.33" gradientUnits="userSpaceOnUse">
<stop stop-color="#CBE5FA"/>
<stop offset="1" stop-color="#CDE3F5" stop-opacity="0"/>
</linearGradient>
<linearGradient id="paint31_linear_1216_42896" x1="351.865" y1="637.91" x2="358.872" y2="714.852" gradientUnits="userSpaceOnUse">
<stop stop-color="#CDE3F5"/>
<stop offset="1" stop-color="#CDE3F5" stop-opacity="0"/>
</linearGradient>
<linearGradient id="paint32_linear_1216_42896" x1="86.6997" y1="639.683" x2="204.715" y2="769.79" gradientUnits="userSpaceOnUse">
<stop stop-color="#ED5F5C"/>
<stop offset="1" stop-color="#ED5F5C" stop-opacity="0"/>
</linearGradient>
<linearGradient id="paint33_linear_1216_42896" x1="-75.578" y1="742.04" x2="150.35" y2="936.313" gradientUnits="userSpaceOnUse">
<stop stop-color="white"/>
<stop offset="1" stop-color="#F67C2D" stop-opacity="0"/>
</linearGradient>
<radialGradient id="paint34_radial_1216_42896" cx="0" cy="0" r="1" gradientUnits="userSpaceOnUse" gradientTransform="translate(72.2761 783.301) rotate(9.55995) scale(151.398 128.81)">
<stop stop-color="white"/>
<stop offset="1" stop-color="white" stop-opacity="0"/>
</radialGradient>
<linearGradient id="paint35_linear_1216_42896" x1="1056.01" y1="3236.45" x2="810.523" y2="3341.67" gradientUnits="userSpaceOnUse">
<stop stop-color="#FFEADE"/>
<stop offset="1" stop-color="#D65007" stop-opacity="0"/>
</linearGradient>
<linearGradient id="paint36_linear_1216_42896" x1="515.953" y1="3217.34" x2="545.48" y2="3351.64" gradientUnits="userSpaceOnUse">
<stop stop-color="#F9914E"/>
<stop offset="1" stop-color="#F67C2D" stop-opacity="0"/>
</linearGradient>
<linearGradient id="paint37_linear_1216_42896" x1="380.467" y1="3200.55" x2="429.839" y2="3343.33" gradientUnits="userSpaceOnUse">
<stop stop-color="#CBE5FA"/>
<stop offset="1" stop-color="#CDE3F5" stop-opacity="0"/>
</linearGradient>
<linearGradient id="paint38_linear_1216_42896" x1="782.041" y1="3188.25" x2="759.978" y2="3269.18" gradientUnits="userSpaceOnUse">
<stop stop-color="#CDE3F5"/>
<stop offset="1" stop-color="#CDE3F5" stop-opacity="0"/>
</linearGradient>
<linearGradient id="paint39_linear_1216_42896" x1="573.611" y1="3106.35" x2="597.795" y2="3224.98" gradientUnits="userSpaceOnUse">
<stop stop-color="#ED5F5C"/>
<stop offset="1" stop-color="#ED5F5C" stop-opacity="0"/>
</linearGradient>
<linearGradient id="paint40_linear_1216_42896" x1="318.577" y1="3134.98" x2="368.787" y2="3325.65" gradientUnits="userSpaceOnUse">
<stop stop-color="white"/>
<stop offset="1" stop-color="#F67C2D" stop-opacity="0"/>
</linearGradient>
<radialGradient id="paint41_radial_1216_42896" cx="0" cy="0" r="1" gradientUnits="userSpaceOnUse" gradientTransform="translate(381.612 3213.5) rotate(38.1944) scale(107.446 181.5)">
<stop stop-color="white"/>
<stop offset="1" stop-color="white" stop-opacity="0"/>
</radialGradient>
<clipPath id="clip0_1216_42896">
<rect width="375" height="6985" fill="white"/>
</clipPath>
</defs>
</svg>
